<svg xmlns="http://www.w3.org/2000/svg" xmlns:xlink="http://www.w3.org/1999/xlink" width="188" zoomAndPan="magnify" viewBox="0 0 141.12 141.750002" height="188" preserveAspectRatio="xMidYMid meet" version="1.0"><defs><clipPath id="dba7277610"><path d="M 24.328125 69 L 115.539062 69 L 115.539062 89.566406 L 24.328125 89.566406 Z M 24.328125 69 " clip-rule="nonzero"/></clipPath><clipPath id="18da97ab1b"><path d="M 24.328125 51.003906 L 115.539062 51.003906 L 115.539062 86 L 24.328125 86 Z M 24.328125 51.003906 " clip-rule="nonzero"/></clipPath></defs><g clip-path="url(#dba7277610)"><path fill="#ea8439" d="M 115.6875 69.398438 L 115.6875 72.609375 C 115.6875 72.632812 115.6875 72.632812 115.6875 72.65625 C 115.6875 82.101562 108.039062 89.75 98.59375 89.75 L 41.527344 89.75 C 32.082031 89.75 24.433594 82.078125 24.433594 72.65625 C 24.433594 72.609375 24.433594 72.585938 24.433594 72.539062 C 24.433594 72.492188 24.433594 72.46875 24.433594 72.421875 L 24.433594 69.398438 Z M 115.6875 69.398438 L 115.6875 72.609375 C 115.6875 72.632812 115.6875 72.632812 115.6875 72.65625 C 115.6875 82.101562 108.039062 89.75 98.59375 89.75 L 41.527344 89.75 C 32.082031 89.75 24.433594 82.078125 24.433594 72.65625 C 24.433594 72.609375 24.433594 72.585938 24.433594 72.539062 C 24.433594 72.492188 24.433594 72.46875 24.433594 72.421875 L 24.433594 69.398438 Z M 115.6875 69.398438 " fill-opacity="1" fill-rule="nonzero"/></g><g clip-path="url(#18da97ab1b)"><path fill="#ffde17" d="M 115.6875 67.980469 L 115.6875 68.050781 C 115.6875 68.074219 115.6875 68.074219 115.6875 68.097656 C 115.6875 77.542969 108.039062 85.191406 98.59375 85.191406 L 41.527344 85.191406 C 32.082031 85.191406 24.433594 77.519531 24.433594 68.097656 C 24.433594 68.050781 24.433594 68.027344 24.433594 67.980469 C 24.433594 67.933594 24.433594 67.910156 24.433594 67.863281 C 24.574219 58.535156 32.152344 51.003906 41.527344 51.003906 L 98.59375 51.003906 C 98.59375 51.003906 98.59375 51.003906 98.617188 51.003906 C 107.992188 51.003906 115.617188 58.585938 115.6875 67.980469 Z M 115.6875 67.980469 L 115.6875 68.050781 C 115.6875 68.074219 115.6875 68.074219 115.6875 68.097656 C 115.6875 77.542969 108.039062 85.191406 98.59375 85.191406 L 41.527344 85.191406 C 32.082031 85.191406 24.433594 77.519531 24.433594 68.097656 C 24.433594 68.050781 24.433594 68.027344 24.433594 67.980469 C 24.433594 67.933594 24.433594 67.910156 24.433594 67.863281 C 24.574219 58.535156 32.152344 51.003906 41.527344 51.003906 L 98.59375 51.003906 C 98.59375 51.003906 98.59375 51.003906 98.617188 51.003906 C 107.992188 51.003906 115.617188 58.585938 115.6875 67.980469 Z M 115.6875 67.980469 " fill-opacity="1" fill-rule="nonzero"/></g><path fill="#000000" d="M 53.851562 68.242188 C 54.113281 68.691406 54.230469 69.207031 54.230469 69.847656 L 54.230469 70.933594 C 54.230469 71.902344 53.945312 72.65625 53.378906 73.222656 C 52.8125 73.789062 52.058594 74.074219 51.089844 74.074219 L 47.761719 74.074219 L 47.761719 60.851562 L 50.925781 60.851562 C 51.890625 60.851562 52.648438 61.132812 53.214844 61.699219 C 53.78125 62.265625 54.066406 63.046875 54.066406 63.992188 L 54.066406 64.699219 C 54.066406 65.878906 53.617188 66.730469 52.71875 67.226562 C 53.214844 67.460938 53.59375 67.816406 53.851562 68.242188 Z M 49.765625 62.738281 L 49.765625 66.328125 L 50.664062 66.328125 C 51.136719 66.328125 51.492188 66.210938 51.726562 65.972656 C 51.964844 65.738281 52.082031 65.382812 52.082031 64.910156 L 52.082031 63.96875 C 52.082031 63.566406 51.964844 63.28125 51.75 63.070312 C 51.539062 62.859375 51.230469 62.738281 50.855469 62.738281 Z M 52.246094 69.632812 C 52.246094 69.160156 52.128906 68.808594 51.890625 68.570312 C 51.65625 68.335938 51.300781 68.21875 50.828125 68.21875 L 49.765625 68.21875 L 49.765625 72.183594 L 51.019531 72.183594 C 51.421875 72.183594 51.703125 72.066406 51.914062 71.851562 C 52.128906 71.640625 52.246094 71.332031 52.246094 70.957031 C 52.246094 70.957031 52.246094 69.632812 52.246094 69.632812 Z M 62.398438 71.144531 L 60.25 71.144531 L 59.824219 74.074219 L 57.820312 74.074219 L 60.015625 60.851562 L 62.683594 60.851562 L 64.878906 74.074219 L 62.847656 74.074219 Z M 62.140625 69.234375 L 61.335938 63.707031 L 60.535156 69.234375 Z M 69.554688 73.410156 C 68.960938 72.820312 68.679688 72.066406 68.679688 71.144531 L 68.679688 63.824219 C 68.679688 62.90625 68.960938 62.148438 69.554688 61.558594 C 70.144531 60.96875 70.898438 60.683594 71.820312 60.683594 C 72.742188 60.683594 73.496094 60.96875 74.085938 61.558594 C 74.675781 62.148438 74.960938 62.90625 74.960938 63.824219 L 74.960938 65.382812 L 73 65.382812 L 73 63.824219 C 73 63.449219 72.882812 63.140625 72.667969 62.929688 C 72.457031 62.691406 72.175781 62.597656 71.84375 62.597656 C 71.511719 62.597656 71.230469 62.714844 71.015625 62.929688 C 70.804688 63.164062 70.6875 63.449219 70.6875 63.824219 L 70.6875 71.144531 C 70.6875 71.523438 70.804688 71.828125 71.015625 72.042969 C 71.230469 72.277344 71.511719 72.371094 71.84375 72.371094 C 72.175781 72.371094 72.457031 72.253906 72.667969 72.042969 C 72.882812 71.804688 73 71.523438 73 71.144531 L 73 69.257812 L 74.960938 69.257812 L 74.960938 71.144531 C 74.960938 72.066406 74.675781 72.820312 74.085938 73.410156 C 73.496094 74 72.742188 74.285156 71.820312 74.285156 C 70.898438 74.261719 70.144531 73.976562 69.554688 73.410156 Z M 82.019531 68.640625 L 81.265625 70.105469 L 81.265625 74.097656 L 79.257812 74.097656 L 79.257812 60.875 L 81.265625 60.875 L 81.265625 66.234375 L 83.910156 60.875 L 86.058594 60.875 L 83.246094 66.492188 L 86.269531 74.097656 L 84.121094 74.097656 Z M 89.667969 67.460938 L 95.101562 71.996094 L 95.101562 62.929688 Z M 89.667969 67.460938 " fill-opacity="1" fill-rule="nonzero"/></svg>