<svg xmlns="http://www.w3.org/2000/svg" xmlns:xlink="http://www.w3.org/1999/xlink" width="188" zoomAndPan="magnify" viewBox="0 0 141.12 141.750002" height="188" preserveAspectRatio="xMidYMid meet" version="1.0"><defs><g/><clipPath id="d731469c6f"><path d="M 37.90625 41.691406 L 102.417969 41.691406 L 102.417969 106.203125 L 37.90625 106.203125 Z M 37.90625 41.691406 " clip-rule="nonzero"/></clipPath></defs><g clip-path="url(#d731469c6f)"><path fill="#ff9900" d="M 102.222656 73.851562 C 102.222656 74.902344 102.167969 75.953125 102.066406 77 C 101.964844 78.050781 101.808594 79.089844 101.601562 80.125 C 101.398438 81.15625 101.140625 82.175781 100.835938 83.183594 C 100.53125 84.191406 100.175781 85.183594 99.773438 86.15625 C 99.371094 87.128906 98.921875 88.082031 98.425781 89.007812 C 97.925781 89.9375 97.386719 90.839844 96.800781 91.714844 C 96.214844 92.589844 95.589844 93.4375 94.921875 94.25 C 94.253906 95.066406 93.546875 95.84375 92.800781 96.589844 C 92.058594 97.332031 91.277344 98.039062 90.464844 98.707031 C 89.648438 99.375 88.804688 100.003906 87.929688 100.589844 C 87.054688 101.171875 86.152344 101.714844 85.222656 102.210938 C 84.292969 102.707031 83.34375 103.15625 82.371094 103.558594 C 81.398438 103.964844 80.40625 104.316406 79.398438 104.625 C 78.390625 104.929688 77.371094 105.183594 76.335938 105.390625 C 75.304688 105.59375 74.261719 105.75 73.214844 105.851562 C 72.167969 105.957031 71.117188 106.007812 70.0625 106.007812 C 69.011719 106.007812 67.960938 105.957031 66.910156 105.851562 C 65.863281 105.75 64.824219 105.59375 63.789062 105.390625 C 62.757812 105.183594 61.734375 104.929688 60.726562 104.625 C 59.71875 104.316406 58.730469 103.964844 57.757812 103.558594 C 56.785156 103.15625 55.832031 102.707031 54.902344 102.210938 C 53.976562 101.714844 53.074219 101.171875 52.195312 100.589844 C 51.320312 100.003906 50.476562 99.375 49.664062 98.707031 C 48.847656 98.039062 48.070312 97.332031 47.324219 96.589844 C 46.578125 95.84375 45.871094 95.066406 45.203125 94.25 C 44.535156 93.4375 43.910156 92.589844 43.324219 91.714844 C 42.738281 90.839844 42.199219 89.9375 41.703125 89.007812 C 41.207031 88.082031 40.757812 87.128906 40.351562 86.15625 C 39.949219 85.183594 39.59375 84.191406 39.289062 83.183594 C 38.984375 82.175781 38.726562 81.15625 38.523438 80.125 C 38.316406 79.089844 38.164062 78.050781 38.058594 77 C 37.957031 75.953125 37.90625 74.902344 37.90625 73.851562 C 37.90625 72.796875 37.957031 71.746094 38.058594 70.699219 C 38.164062 69.648438 38.316406 68.609375 38.523438 67.574219 C 38.726562 66.542969 38.984375 65.523438 39.289062 64.515625 C 39.59375 63.507812 39.949219 62.515625 40.351562 61.542969 C 40.757812 60.570312 41.207031 59.621094 41.703125 58.691406 C 42.199219 57.761719 42.738281 56.859375 43.324219 55.984375 C 43.910156 55.109375 44.535156 54.261719 45.203125 53.449219 C 45.871094 52.636719 46.578125 51.855469 47.324219 51.109375 C 48.070312 50.367188 48.847656 49.660156 49.664062 48.992188 C 50.476562 48.324219 51.320312 47.695312 52.195312 47.113281 C 53.074219 46.527344 53.976562 45.984375 54.902344 45.488281 C 55.832031 44.992188 56.785156 44.542969 57.757812 44.140625 C 58.730469 43.738281 59.71875 43.382812 60.726562 43.078125 C 61.734375 42.769531 62.757812 42.515625 63.789062 42.308594 C 64.824219 42.105469 65.863281 41.949219 66.910156 41.847656 C 67.960938 41.742188 69.011719 41.691406 70.0625 41.691406 C 71.117188 41.691406 72.167969 41.742188 73.214844 41.847656 C 74.261719 41.949219 75.304688 42.105469 76.335938 42.308594 C 77.371094 42.515625 78.390625 42.769531 79.398438 43.078125 C 80.40625 43.382812 81.398438 43.738281 82.371094 44.140625 C 83.34375 44.542969 84.292969 44.992188 85.222656 45.488281 C 86.152344 45.984375 87.054688 46.527344 87.929688 47.113281 C 88.804688 47.695312 89.648438 48.324219 90.464844 48.992188 C 91.277344 49.660156 92.058594 50.367188 92.800781 51.109375 C 93.546875 51.855469 94.253906 52.636719 94.921875 53.449219 C 95.589844 54.261719 96.214844 55.109375 96.800781 55.984375 C 97.386719 56.859375 97.925781 57.761719 98.425781 58.691406 C 98.921875 59.621094 99.371094 60.570312 99.773438 61.542969 C 100.175781 62.515625 100.53125 63.507812 100.835938 64.515625 C 101.140625 65.523438 101.398438 66.542969 101.601562 67.574219 C 101.808594 68.609375 101.964844 69.648438 102.066406 70.699219 C 102.167969 71.746094 102.222656 72.796875 102.222656 73.851562 Z M 102.222656 73.851562 " fill-opacity="1" fill-rule="nonzero"/></g><path fill="#000000" d="M 85.917969 82.15625 C 80.726562 77.738281 79.191406 79.847656 76.882812 82.34375 C 75.148438 84.078125 70.914062 80.421875 67.257812 76.761719 C 63.617188 72.921875 59.957031 68.6875 61.679688 66.953125 C 64.191406 64.457031 66.296875 62.910156 61.878906 57.53125 C 57.648438 52.152344 54.953125 56.382812 52.457031 58.691406 C 49.960938 61.390625 52.457031 71.570312 62.269531 81.769531 C 72.265625 91.96875 82.261719 94.460938 84.957031 91.765625 C 87.265625 89.472656 91.296875 86.589844 85.917969 82.15625 Z M 85.917969 82.15625 " fill-opacity="1" fill-rule="evenodd"/><g fill="#ffffff" fill-opacity="1"><g transform="translate(54.698942, 53.675458)"><g><path d="M 4.34375 -3.542969 C 4.34375 -3.542969 4 -2.945312 2.996094 -2.4375 C 2.097656 -1.988281 0.910156 -2.308594 0.410156 -3.304688 C -0.105469 -4.324219 0.140625 -5.367188 1.15625 -5.878906 C 1.816406 -6.210938 2.5625 -6.132812 2.882812 -5.570312 L 3.671875 -5.96875 L 2.820312 -7.644531 L 2.027344 -7.246094 L 2.34375 -6.757812 C 2.265625 -6.84375 1.808594 -7.242188 0.59375 -6.628906 C -0.726562 -5.964844 -1.269531 -4.277344 -0.546875 -2.84375 C 0.226562 -1.308594 1.9375 -0.867188 3.539062 -1.675781 C 4.570312 -2.195312 4.988281 -2.929688 4.988281 -2.929688 Z M 1.277344 -4.460938 L 0.308594 -4.574219 C 0.308594 -4.539062 0.300781 -4.5 0.296875 -4.460938 L 1.265625 -4.347656 Z M 4.824219 -2.5 L 5.765625 -2.390625 C 5.800781 -2.425781 5.828125 -2.464844 5.855469 -2.496094 L 4.917969 -2.597656 Z M 1.417969 -4.921875 L 0.46875 -5.035156 L 0.414062 -4.929688 L 1.375 -4.816406 Z M 4.625 -2.285156 L 5.542969 -2.179688 L 5.652344 -2.28125 L 4.722656 -2.386719 Z M 1.332031 -4.691406 L 0.367188 -4.808594 C 0.363281 -4.769531 0.34375 -4.734375 0.332031 -4.703125 L 1.304688 -4.589844 Z M 1.253906 -4.226562 L 0.289062 -4.335938 L 0.296875 -4.230469 L 1.257812 -4.113281 Z M 1.304688 -3.738281 L 0.347656 -3.847656 L 0.386719 -3.738281 L 1.335938 -3.628906 Z M 1.375 -3.492188 L 0.4375 -3.601562 L 0.476562 -3.488281 L 1.417969 -3.378906 Z M 6.03125 -2.707031 L 5.082031 -2.816406 L 5.007812 -2.714844 L 5.957031 -2.609375 Z M 0.796875 -2.96875 L 1.695312 -2.863281 C 1.664062 -2.902344 1.632812 -2.949219 1.613281 -2.988281 L 0.703125 -3.089844 Z M 1.554688 -5.148438 L 0.605469 -5.253906 L 0.539062 -5.160156 L 1.488281 -5.042969 C 1.507812 -5.082031 1.523438 -5.117188 1.554688 -5.148438 Z M 4.125 -1.863281 L 5.011719 -1.761719 L 5.148438 -1.855469 L 4.253906 -1.964844 Z M 3.832031 -5.96875 L 4.761719 -5.859375 L 4.707031 -5.972656 L 3.765625 -6.085938 Z M 3.695312 -6.226562 L 4.632812 -6.113281 L 4.578125 -6.226562 L 3.636719 -6.339844 Z M 4.449219 -6.480469 L 3.507812 -6.59375 L 3.566406 -6.480469 L 4.507812 -6.367188 Z M 1.535156 -3.128906 L 1.476562 -3.242188 L 0.546875 -3.347656 C 0.5625 -3.3125 0.585938 -3.269531 0.613281 -3.230469 Z M 1.261719 -3.984375 L 0.304688 -4.09375 C 0.3125 -4.0625 0.320312 -4.023438 0.320312 -3.988281 L 1.28125 -3.875 Z M 3.4375 -6.734375 L 4.371094 -6.621094 L 4.316406 -6.734375 L 3.378906 -6.847656 Z M 3.308594 -6.988281 L 4.242188 -6.875 L 4.1875 -6.988281 L 3.253906 -7.101562 Z M 1.730469 -5.359375 L 0.804688 -5.472656 L 0.710938 -5.378906 L 1.644531 -5.265625 Z M 3.179688 -7.242188 L 4.113281 -7.136719 L 4.058594 -7.242188 L 3.125 -7.355469 Z M 3.941406 -7.476562 L 3.007812 -7.589844 L 3.0625 -7.476562 L 3.996094 -7.367188 Z M 3.8125 -1.664062 L 4.667969 -1.5625 C 4.726562 -1.589844 4.777344 -1.625 4.835938 -1.65625 L 3.960938 -1.753906 Z M 1.976562 -5.574219 L 1.089844 -5.675781 C 1.042969 -5.652344 0.996094 -5.621094 0.949219 -5.589844 L 1.863281 -5.480469 C 1.898438 -5.515625 1.9375 -5.542969 1.976562 -5.574219 Z M 4.390625 -2.078125 L 5.304688 -1.972656 C 5.339844 -2.007812 5.378906 -2.035156 5.417969 -2.0625 L 4.496094 -2.167969 Z M 1.105469 -2.691406 L 1.914062 -2.601562 L 1.800781 -2.722656 L 0.949219 -2.824219 C 1 -2.78125 1.050781 -2.734375 1.105469 -2.691406 Z M 4.894531 -3.207031 L 5.738281 -3.109375 L 5.617188 -3.234375 L 4.769531 -3.332031 Z M 5.171875 -2.957031 C 5.171875 -2.957031 5.167969 -2.945312 5.160156 -2.941406 L 6.027344 -2.839844 L 5.890625 -2.964844 L 5.058594 -3.058594 Z M 3.191406 -5.566406 L 4.039062 -5.46875 L 4.207031 -5.554688 L 3.363281 -5.652344 Z M 3.582031 -5.761719 L 4.421875 -5.660156 L 4.589844 -5.746094 L 3.75 -5.847656 Z M 2.28125 -5.761719 L 2.308594 -5.777344 L 1.535156 -5.867188 C 1.457031 -5.851562 1.375 -5.820312 1.292969 -5.789062 L 2.148438 -5.6875 C 2.1875 -5.714844 2.230469 -5.738281 2.28125 -5.761719 Z M 3.429688 -1.46875 L 4.238281 -1.378906 C 4.304688 -1.40625 4.382812 -1.425781 4.445312 -1.460938 L 3.617188 -1.554688 L 3.605469 -1.546875 C 3.546875 -1.519531 3.492188 -1.492188 3.429688 -1.46875 Z M 2.9375 -1.292969 L 3.605469 -1.210938 C 3.710938 -1.230469 3.824219 -1.253906 3.933594 -1.28125 L 3.179688 -1.371094 C 3.097656 -1.339844 3.015625 -1.3125 2.9375 -1.292969 Z M 2.195312 -2.378906 C 2.15625 -2.398438 2.121094 -2.421875 2.085938 -2.449219 L 1.402344 -2.53125 C 1.652344 -2.417969 1.917969 -2.363281 2.195312 -2.378906 Z M 2.195312 -2.378906 "/></g></g></g><g fill="#ffffff" fill-opacity="1"><g transform="translate(61.864304, 50.286206)"><g><path d="M 0.390625 -0.0585938 L 2.449219 -0.375 L 2.3125 -1.265625 L 1.84375 -1.195312 L 1.996094 -1.800781 L 4.070312 -2.117188 L 4.40625 -1.585938 L 3.984375 -1.519531 L 4.121094 -0.628906 L 6.160156 -0.941406 L 6.023438 -1.832031 L 5.429688 -1.742188 L 2.664062 -6.03125 L 2.210938 -5.960938 L 0.847656 -1.042969 L 0.253906 -0.949219 Z M 2.667969 -4.375 L 3.621094 -2.839844 L 2.214844 -2.625 Z M 2.574219 -0.496094 L 3.425781 -0.105469 L 3.40625 -0.230469 L 2.554688 -0.621094 Z M 2.53125 -0.777344 L 3.382812 -0.386719 L 3.363281 -0.511719 L 2.511719 -0.902344 Z M 2.066406 -1.507812 L 2.296875 -1.40625 L 2.429688 -1.425781 L 2.445312 -1.339844 L 2.953125 -1.105469 L 2.976562 -1.214844 L 2.105469 -1.617188 C 2.097656 -1.578125 2.074219 -1.550781 2.066406 -1.507812 Z M 6.273438 -1.148438 L 7.125 -0.761719 L 7.105469 -0.886719 L 6.253906 -1.273438 Z M 6.230469 -1.429688 L 7.082031 -1.042969 L 7.0625 -1.160156 L 6.210938 -1.554688 Z M 7.167969 -0.476562 L 7.148438 -0.601562 L 6.296875 -0.992188 L 6.316406 -0.867188 L 7.160156 -0.476562 Z M 3.453125 0.0898438 L 3.449219 0.0507812 L 2.59375 -0.347656 L 2.609375 -0.253906 L 2.546875 -0.246094 L 3.320312 0.109375 Z M 0.84375 0.015625 L 1.609375 0.371094 L 1.804688 0.339844 L 1.039062 -0.015625 Z M 1.265625 -0.0507812 L 2.039062 0.304688 L 2.234375 0.273438 L 1.460938 -0.078125 Z M 5.535156 -0.699219 L 6.308594 -0.347656 L 6.503906 -0.375 L 5.730469 -0.730469 Z M 2.125 -0.179688 L 2.890625 0.175781 L 3.085938 0.144531 L 2.3125 -0.210938 Z M 2.246094 -1.695312 L 3.011719 -1.339844 L 3.207031 -1.371094 L 2.433594 -1.722656 Z M 5.964844 -0.765625 L 6.738281 -0.414062 L 6.925781 -0.441406 L 6.160156 -0.796875 Z M 2.667969 -1.757812 L 3.441406 -1.40625 L 3.628906 -1.433594 L 2.863281 -1.789062 Z M 1.695312 -0.113281 L 2.46875 0.238281 L 2.65625 0.210938 L 1.890625 -0.144531 Z M 5.113281 -0.636719 L 5.878906 -0.28125 L 6.074219 -0.3125 L 5.300781 -0.664062 Z M 4.683594 -0.570312 L 5.457031 -0.21875 L 5.644531 -0.246094 L 4.878906 -0.601562 Z M 4.164062 -3.949219 L 4.921875 -3.601562 L 4.808594 -3.765625 L 4.0625 -4.109375 Z M 3.21875 -5.4375 L 3.96875 -5.085938 L 3.863281 -5.253906 L 3.105469 -5.601562 Z M 4.40625 -3.578125 L 5.15625 -3.226562 L 5.050781 -3.394531 L 4.300781 -3.746094 Z M 4.890625 -2.828125 L 5.636719 -2.484375 L 5.523438 -2.652344 L 4.785156 -2.996094 Z M 3.933594 -4.320312 L 4.671875 -3.976562 L 4.570312 -4.136719 L 3.820312 -4.488281 Z M 3.324219 -0.753906 L 2.910156 -0.949219 L 2.914062 -0.980469 L 2.46875 -1.183594 L 2.488281 -1.058594 L 3.339844 -0.667969 Z M 3.691406 -4.691406 L 4.441406 -4.34375 L 4.335938 -4.511719 L 3.585938 -4.851562 Z M 4.648438 -3.207031 L 5.398438 -2.855469 L 5.292969 -3.023438 L 4.542969 -3.367188 Z M 3.453125 -5.0625 L 4.199219 -4.714844 L 4.09375 -4.882812 L 3.347656 -5.222656 Z M 5.128906 -2.464844 L 5.871094 -2.121094 L 5.765625 -2.28125 L 5.023438 -2.625 Z M 2.554688 -3.382812 L 3.347656 -3.023438 L 3.242188 -3.183594 L 2.589844 -3.484375 Z M 2.902344 -5.925781 L 3 -5.769531 L 3.746094 -5.429688 L 3.664062 -5.566406 Z M 3.097656 -1.824219 L 3.847656 -1.476562 L 3.828125 -1.609375 L 3.285156 -1.855469 Z M 2.496094 -3.140625 L 3.039062 -2.894531 L 3.234375 -2.925781 L 2.527344 -3.25 Z M 5.363281 -2.089844 L 5.714844 -1.929688 L 5.902344 -1.957031 L 5.257812 -2.25 Z M 4.167969 -1.691406 L 4.136719 -1.71875 L 3.714844 -1.917969 L 3.527344 -1.890625 L 4.011719 -1.667969 Z M 2.617188 -3.617188 L 3.109375 -3.386719 L 3 -3.554688 L 2.648438 -3.71875 Z M 2.617188 -2.832031 L 2.8125 -2.863281 L 2.46875 -3.015625 L 2.4375 -2.910156 Z M 2.675781 -3.847656 L 2.875 -3.75 L 2.777344 -3.921875 L 2.710938 -3.949219 Z M 2.675781 -3.847656 "/></g></g></g><g fill="#ffffff" fill-opacity="1"><g transform="translate(69.643325, 49.350607)"><g><path d="M 4.902344 0.710938 L 5.117188 -0.792969 L 4.289062 -0.914062 L 4.199219 -0.304688 L 2.421875 -0.558594 L 2.960938 -4.277344 L 3.796875 -4.15625 L 3.925781 -5.050781 L 1.515625 -5.398438 L 1.386719 -4.507812 L 1.992188 -4.417969 L 1.453125 -0.699219 L 0.847656 -0.789062 L 0.71875 0.105469 Z M 5.070312 0.519531 L 5.773438 1.140625 L 5.792969 1.015625 L 5.089844 0.394531 Z M 2.875 -2.699219 L 3.578125 -2.078125 L 3.597656 -2.203125 L 2.894531 -2.824219 Z M 2.917969 -2.980469 L 3.617188 -2.363281 L 3.636719 -2.488281 L 2.933594 -3.109375 Z M 2.957031 -3.265625 L 3.660156 -2.644531 L 3.675781 -2.769531 L 2.976562 -3.390625 Z M 3 -3.546875 L 3.699219 -2.925781 L 3.71875 -3.050781 L 3.015625 -3.671875 Z M 2.835938 -2.417969 L 3.535156 -1.796875 L 3.554688 -1.921875 L 2.855469 -2.542969 Z M 3.039062 -3.828125 L 3.742188 -3.207031 L 3.757812 -3.332031 L 3.058594 -3.953125 Z M 2.753906 -1.855469 L 3.457031 -1.234375 L 3.472656 -1.359375 L 2.773438 -1.980469 Z M 5.152344 -0.046875 L 5.855469 0.582031 L 5.871094 0.457031 L 5.171875 -0.171875 Z M 5.113281 0.238281 L 5.8125 0.859375 L 5.832031 0.738281 L 5.128906 0.109375 Z M 3.960938 -4.285156 L 4.660156 -3.65625 L 4.679688 -3.78125 L 3.980469 -4.410156 Z M 4 -4.566406 L 4.703125 -3.9375 L 4.71875 -4.0625 L 4.019531 -4.691406 Z M 2.671875 -1.292969 L 3.375 -0.671875 L 3.390625 -0.796875 L 2.691406 -1.417969 Z M 5.03125 0.800781 L 5.734375 1.421875 L 5.75 1.296875 L 5.050781 0.675781 Z M 2.714844 -1.574219 L 3.414062 -0.953125 L 3.433594 -1.078125 L 2.730469 -1.699219 Z M 5.191406 -0.3125 L 5.890625 0.316406 L 5.910156 0.191406 L 5.210938 -0.4375 Z M 2.792969 -2.136719 L 3.496094 -1.515625 L 3.515625 -1.640625 L 2.8125 -2.261719 Z M 4.628906 -3.421875 L 4.636719 -3.5 L 3.9375 -4.128906 L 3.921875 -4.003906 L 4.566406 -3.429688 Z M 3.789062 -3.542969 L 3.898438 -3.527344 L 3.261719 -4.089844 L 3.082031 -4.117188 L 3.082031 -4.109375 L 3.78125 -3.488281 Z M 1.277344 0.328125 L 1.910156 0.890625 L 2.105469 0.921875 L 1.46875 0.355469 Z M 1.703125 0.390625 L 2.339844 0.953125 L 2.527344 0.980469 L 1.898438 0.417969 Z M 2.5625 0.515625 L 3.191406 1.078125 L 3.386719 1.105469 L 2.75 0.542969 Z M 2.984375 0.574219 L 3.625 1.140625 L 3.8125 1.167969 L 3.179688 0.605469 Z M 3.839844 0.699219 L 4.476562 1.261719 L 4.664062 1.289062 L 4.035156 0.726562 Z M 3.417969 0.636719 L 4.046875 1.199219 L 4.242188 1.230469 L 3.605469 0.664062 Z M 3.503906 -4.054688 L 4.132812 -3.492188 L 4.320312 -3.464844 L 3.691406 -4.027344 Z M 4.699219 0.824219 L 5.328125 1.386719 L 5.519531 1.414062 L 4.886719 0.851562 Z M 4.269531 0.761719 L 4.90625 1.324219 L 5.09375 1.351562 L 4.457031 0.789062 Z M 2.132812 0.453125 L 2.769531 1.015625 L 2.957031 1.042969 L 2.320312 0.480469 Z M 4.753906 -4.308594 L 4.054688 -4.9375 L 4.039062 -4.824219 L 4.738281 -4.195312 Z M 2.632812 -1.007812 L 3.085938 -0.609375 L 3.273438 -0.582031 L 2.648438 -1.136719 Z M 1.539062 0.839844 L 1.675781 0.859375 L 1.042969 0.296875 L 0.910156 0.277344 Z M 5.945312 -0.0507812 L 5.246094 -0.679688 L 5.226562 -0.5625 L 5.929688 0.0664062 Z M 2.609375 -0.851562 L 2.589844 -0.726562 L 2.664062 -0.667969 L 2.851562 -0.640625 Z M 2.609375 -0.851562 "/></g></g></g><g fill="#ffffff" fill-opacity="1"><g transform="translate(76.473992, 50.513065)"><g><path d="M 4.519531 2.023438 L 5.140625 0.640625 L 4.375 0.296875 L 4.121094 0.859375 L 2.484375 0.125 L 4.019531 -3.304688 L 4.792969 -2.957031 L 5.160156 -3.78125 L 2.9375 -4.777344 L 2.570312 -3.953125 L 3.125 -3.703125 L 1.589844 -0.277344 L 1.03125 -0.523438 L 0.664062 0.296875 Z M 4.734375 1.886719 L 5.238281 2.679688 L 5.292969 2.5625 L 4.789062 1.773438 Z M 3.507812 -1.808594 L 4.011719 -1.019531 L 4.0625 -1.136719 L 3.558594 -1.925781 Z M 3.621094 -2.070312 L 4.128906 -1.277344 L 4.179688 -1.394531 L 3.675781 -2.183594 Z M 3.738281 -2.328125 L 4.242188 -1.539062 L 4.296875 -1.65625 L 3.792969 -2.445312 Z M 3.855469 -2.589844 L 4.359375 -1.800781 L 4.410156 -1.914062 L 3.90625 -2.703125 Z M 3.390625 -1.550781 L 3.894531 -0.757812 L 3.945312 -0.875 L 3.441406 -1.664062 Z M 3.972656 -2.847656 L 4.476562 -2.058594 L 4.527344 -2.175781 L 4.023438 -2.964844 Z M 3.15625 -1.03125 L 3.660156 -0.238281 L 3.714844 -0.355469 L 3.207031 -1.144531 Z M 4.96875 1.367188 L 5.46875 2.164062 L 5.519531 2.050781 L 5.019531 1.253906 Z M 4.851562 1.628906 L 5.355469 2.417969 L 5.40625 2.308594 L 4.902344 1.511719 Z M 4.984375 -3.035156 L 5.484375 -2.238281 L 5.535156 -2.355469 L 5.035156 -3.152344 Z M 5.101562 -3.296875 L 5.601562 -2.5 L 5.652344 -2.613281 L 5.152344 -3.410156 Z M 2.925781 -0.507812 L 3.429688 0.28125 L 3.480469 0.164062 L 2.976562 -0.625 Z M 4.621094 2.148438 L 5.125 2.9375 L 5.175781 2.824219 L 4.671875 2.03125 Z M 3.039062 -0.769531 L 3.542969 0.0195312 L 3.597656 -0.09375 L 3.09375 -0.886719 Z M 5.078125 1.125 L 5.578125 1.921875 L 5.632812 1.804688 L 5.128906 1.007812 Z M 3.273438 -1.289062 L 3.777344 -0.5 L 3.828125 -0.613281 L 3.324219 -1.40625 Z M 5.386719 -2.023438 L 5.421875 -2.09375 L 4.917969 -2.890625 L 4.867188 -2.777344 L 5.332031 -2.050781 Z M 4.617188 -2.371094 L 4.714844 -2.324219 L 4.257812 -3.039062 L 4.09375 -3.117188 L 4.089844 -3.109375 L 4.59375 -2.320312 Z M 1.140625 0.667969 L 1.589844 1.378906 L 1.773438 1.460938 L 1.3125 0.746094 Z M 1.53125 0.839844 L 1.988281 1.558594 L 2.160156 1.636719 L 1.710938 0.921875 Z M 2.324219 1.199219 L 2.773438 1.910156 L 2.957031 1.992188 L 2.496094 1.273438 Z M 2.714844 1.371094 L 3.171875 2.089844 L 3.34375 2.167969 L 2.894531 1.453125 Z M 3.5 1.726562 L 3.957031 2.441406 L 4.132812 2.519531 L 3.679688 1.804688 Z M 3.109375 1.550781 L 3.5625 2.265625 L 3.742188 2.34375 L 3.285156 1.628906 Z M 4.480469 -2.941406 L 4.933594 -2.226562 L 5.105469 -2.148438 L 4.65625 -2.863281 Z M 4.292969 2.082031 L 4.746094 2.792969 L 4.917969 2.871094 L 4.46875 2.160156 Z M 3.898438 1.902344 L 4.355469 2.621094 L 4.527344 2.699219 L 4.070312 1.980469 Z M 1.925781 1.019531 L 2.386719 1.738281 L 2.558594 1.8125 L 2.101562 1.097656 Z M 5.753906 -2.839844 L 5.253906 -3.636719 L 5.207031 -3.535156 L 5.707031 -2.738281 Z M 2.808594 -0.25 L 3.132812 0.261719 L 3.308594 0.339844 L 2.859375 -0.367188 Z M 1.253906 1.230469 L 1.375 1.285156 L 0.921875 0.570312 L 0.800781 0.515625 Z M 5.730469 1.582031 L 5.230469 0.785156 L 5.183594 0.890625 L 5.683594 1.6875 Z M 2.742188 -0.105469 L 2.691406 0.0117188 L 2.742188 0.0859375 L 2.917969 0.164062 Z M 2.742188 -0.105469 "/></g></g></g><g fill="#ffffff" fill-opacity="1"><g transform="translate(82.725605, 53.63201)"><g/></g></g><g fill="#ffffff" fill-opacity="1"><g transform="translate(86.445835, 56.367841)"><g><path d="M 6.386719 0.6875 L 6.753906 1.171875 L 5.484375 2.144531 L 3.839844 -0.015625 L 5.109375 -0.984375 L 5.480469 -0.5 L 6.195312 -1.046875 L 4.863281 -2.792969 L 4.144531 -2.246094 L 4.515625 -1.761719 L 1.527344 0.515625 L 1.160156 0.03125 L 0.441406 0.578125 L 1.769531 2.320312 L 2.488281 1.773438 L 2.121094 1.296875 L 3.148438 0.511719 L 4.792969 2.671875 L 3.769531 3.453125 L 3.398438 2.96875 L 2.683594 3.515625 L 4.011719 5.257812 L 4.726562 4.710938 L 4.363281 4.230469 L 7.351562 1.953125 L 7.71875 2.4375 L 8.4375 1.890625 L 7.101562 0.140625 Z M 4.617188 -0.429688 L 4.683594 0.503906 L 4.785156 0.429688 L 4.722656 -0.511719 Z M 4.84375 -0.601562 L 4.910156 0.332031 L 5.011719 0.257812 L 4.949219 -0.683594 Z M 2.804688 0.953125 L 2.871094 1.886719 L 2.972656 1.8125 L 2.914062 0.871094 Z M 4.519531 5.046875 L 4.585938 5.984375 L 4.683594 5.90625 L 4.625 4.96875 Z M 3.03125 0.78125 L 3.097656 1.714844 L 3.199219 1.636719 L 3.140625 0.738281 L 3.121094 0.714844 Z M 5.605469 3.460938 L 5.667969 4.402344 L 5.765625 4.324219 L 5.707031 3.386719 Z M 2.175781 2.1875 L 2.242188 3.125 L 2.34375 3.046875 L 2.277344 2.113281 Z M 5.578125 -0.394531 L 5.636719 0.542969 L 5.738281 0.46875 L 5.679688 -0.472656 Z M 6.054688 3.121094 L 6.121094 4.054688 L 6.21875 3.980469 L 6.152344 3.046875 Z M 5.804688 -0.566406 L 5.863281 0.371094 L 5.964844 0.292969 L 5.90625 -0.644531 Z M 6.03125 -0.742188 L 6.089844 0.199219 L 6.191406 0.121094 L 6.132812 -0.816406 Z M 1.949219 2.363281 L 2.015625 3.296875 L 2.117188 3.21875 L 2.050781 2.285156 Z M 6.28125 2.949219 L 6.347656 3.882812 L 6.445312 3.808594 L 6.378906 2.871094 Z M 7.191406 2.253906 L 7.25 3.191406 L 7.351562 3.117188 L 7.292969 2.175781 Z M 6.511719 2.773438 L 6.570312 3.710938 L 6.671875 3.632812 L 6.613281 2.695312 Z M 5.378906 3.636719 L 5.441406 4.574219 L 5.539062 4.496094 L 5.480469 3.558594 Z M 5.828125 3.292969 L 5.894531 4.230469 L 5.992188 4.152344 L 5.925781 3.21875 Z M 4.925781 3.980469 L 4.988281 4.921875 L 5.089844 4.84375 L 5.027344 3.902344 Z M 6.738281 2.597656 L 6.796875 3.539062 L 6.898438 3.460938 L 6.839844 2.523438 Z M 6.964844 2.425781 L 7.023438 3.367188 L 7.125 3.289062 L 7.066406 2.347656 Z M 5.152344 3.808594 L 5.214844 4.746094 L 5.316406 4.671875 L 5.253906 3.730469 Z M 4.292969 5.222656 L 4.363281 6.152344 L 4.464844 6.074219 L 4.394531 5.144531 Z M 4.515625 0.636719 L 4.558594 0.601562 L 4.496094 -0.335938 L 4.390625 -0.257812 L 4.445312 0.546875 Z M 1.847656 3.425781 L 1.890625 3.390625 L 1.832031 2.453125 L 1.742188 2.519531 L 1.722656 2.496094 L 1.78125 3.335938 Z M 2.6875 1.800781 L 2.628906 1.84375 L 2.644531 2.058594 L 2.746094 1.984375 L 2.6875 1.042969 L 2.578125 1.125 L 2.625 1.71875 Z M 7.917969 2.464844 L 7.984375 3.398438 L 8.078125 3.328125 L 8.019531 2.386719 Z M 8.144531 2.292969 L 8.210938 3.226562 L 8.304688 3.152344 L 8.246094 2.214844 Z M 4.070312 5.390625 L 4.136719 6.324219 L 4.238281 6.246094 L 4.167969 5.316406 Z M 7.796875 3.542969 L 7.851562 3.5 L 7.792969 2.558594 L 7.691406 2.636719 L 7.75 3.480469 Z M 5.1875 0.121094 L 5.25 0.203125 L 5.1875 -0.644531 L 5.082031 -0.785156 L 5.070312 -0.773438 L 5.136719 0.160156 Z M 0.9375 1.464844 L 1 2.3125 L 1.113281 2.464844 L 1.058594 1.621094 Z M 3.820312 5.242188 L 3.878906 6.085938 L 3.996094 6.242188 L 3.9375 5.394531 Z M 5.332031 -0.457031 L 5.394531 0.390625 L 5.507812 0.542969 L 5.453125 -0.300781 Z M 3.285156 0.925781 L 3.34375 1.777344 L 3.460938 1.925781 L 3.402344 1.085938 Z M 1.460938 2.148438 L 1.519531 2.996094 L 1.636719 3.148438 L 1.582031 2.304688 Z M 3.546875 1.273438 L 3.605469 2.117188 L 3.722656 2.273438 L 3.664062 1.421875 Z M 3.808594 1.613281 L 3.867188 2.460938 L 3.984375 2.613281 L 3.925781 1.769531 Z M 1.203125 1.808594 L 1.257812 2.652344 L 1.378906 2.808594 L 1.316406 1.960938 Z M 3.558594 4.898438 L 3.617188 5.746094 L 3.734375 5.898438 L 3.675781 5.054688 Z M 0.679688 1.125 L 0.734375 1.964844 L 0.855469 2.125 L 0.792969 1.273438 Z M 8.507812 3 L 8.449219 2.0625 L 8.351562 2.132812 L 8.417969 3.066406 Z M 4.222656 2.925781 L 4.242188 2.914062 L 4.1875 2.109375 L 4.070312 1.957031 L 4.125 2.800781 Z M 7.429688 2.292969 L 7.488281 3.140625 L 7.605469 3.292969 L 7.542969 2.441406 Z M 3.296875 4.558594 L 3.355469 5.398438 L 3.46875 5.550781 L 3.414062 4.707031 Z M 3.035156 4.210938 L 3.09375 5.0625 L 3.210938 5.210938 L 3.148438 4.363281 Z M 2.773438 3.871094 L 2.832031 4.714844 L 2.945312 4.867188 L 2.890625 4.023438 Z M 2.527344 2.90625 L 2.476562 2.191406 L 2.519531 2.15625 L 2.503906 1.9375 L 2.402344 2.015625 L 2.46875 2.949219 Z M 0.515625 1.675781 L 0.589844 1.777344 L 0.535156 0.933594 L 0.457031 0.835938 Z M 4.722656 4.464844 L 4.835938 4.617188 L 4.800781 4.078125 L 4.695312 4.160156 Z M 4.164062 -0.0820312 L 4.1875 0.207031 L 4.308594 0.363281 L 4.273438 -0.164062 Z M 4.328125 2.296875 L 4.367188 2.816406 L 4.46875 2.738281 L 4.449219 2.453125 Z M 4.746094 4.875 L 4.761719 5.09375 L 4.867188 5.011719 L 4.851562 4.792969 Z M 2.460938 1.21875 L 2.355469 1.296875 L 2.359375 1.371094 L 2.480469 1.53125 Z M 4.5625 4.257812 L 4.578125 4.277344 L 4.574219 4.25 Z M 4.5625 4.257812 "/></g></g></g><g fill="#ffffff" fill-opacity="1"><g transform="translate(91.366326, 63.323122)"><g><path d="M 5.46875 3.308594 L 6.898438 2.796875 L 5.480469 -1.179688 L 4.632812 -0.878906 L 4.835938 -0.304688 L 1.296875 0.957031 L 1.09375 0.382812 L 0.246094 0.683594 L 1.660156 4.664062 L 3.09375 4.15625 L 2.8125 3.363281 L 2.230469 3.570312 L 1.628906 1.878906 L 2.878906 1.433594 L 3.328125 2.703125 L 4.148438 2.410156 L 3.699219 1.144531 L 5.167969 0.621094 L 5.769531 2.3125 L 5.1875 2.519531 Z M 6.507812 3.089844 L 6.285156 4 L 6.40625 3.957031 L 6.632812 3.042969 Z M 4.582031 0.980469 L 4.359375 1.890625 L 4.476562 1.847656 L 4.699219 0.9375 Z M 4.847656 0.882812 L 4.628906 1.792969 L 4.746094 1.75 L 4.96875 0.839844 Z M 6.238281 3.183594 L 6.019531 4.09375 L 6.136719 4.050781 L 6.367188 3.140625 Z M 5.703125 3.375 L 5.480469 4.285156 L 5.601562 4.242188 L 5.828125 3.332031 Z M 3.394531 2.832031 L 3.171875 3.742188 L 3.289062 3.699219 L 3.511719 2.789062 Z M 3.660156 2.734375 L 3.4375 3.644531 L 3.558594 3.601562 L 3.78125 2.691406 Z M 2.484375 4.523438 L 2.261719 5.433594 L 2.382812 5.390625 L 2.609375 4.476562 Z M 2.433594 1.742188 L 2.214844 2.652344 L 2.332031 2.613281 L 2.554688 1.703125 Z M 5.433594 3.472656 L 5.214844 4.382812 L 5.332031 4.339844 L 5.5625 3.425781 Z M 5.972656 3.28125 L 5.75 4.191406 L 5.867188 4.148438 L 6.097656 3.234375 Z M 2.703125 1.648438 L 2.480469 2.558594 L 2.601562 2.515625 L 2.808594 1.660156 L 2.792969 1.617188 Z M 2.757812 4.425781 L 2.53125 5.335938 L 2.648438 5.292969 L 2.878906 4.382812 Z M 4.144531 1.96875 L 4.210938 1.941406 L 4.433594 1.03125 L 4.3125 1.074219 L 4.113281 1.886719 Z M 1.949219 4.714844 L 1.734375 5.621094 L 1.84375 5.582031 L 2.066406 4.671875 Z M 3.929688 2.640625 L 3.707031 3.550781 L 3.820312 3.507812 L 4.046875 2.597656 Z M 1.6875 4.804688 L 1.464844 5.714844 L 1.578125 5.675781 L 1.796875 4.765625 Z M 2.214844 4.617188 L 1.996094 5.527344 L 2.113281 5.484375 L 2.335938 4.574219 Z M 1.488281 4.601562 L 1.285156 5.425781 L 1.351562 5.613281 L 1.554688 4.785156 Z M 1.339844 4.191406 L 1.140625 5.019531 L 1.207031 5.203125 L 1.40625 4.375 Z M 1.050781 3.378906 L 0.851562 4.207031 L 0.917969 4.390625 L 1.117188 3.566406 Z M 0.183594 0.941406 L -0.0195312 1.761719 L 0.046875 1.949219 L 0.25 1.128906 Z M 0.328125 1.34375 L 0.125 2.171875 L 0.191406 2.359375 L 0.394531 1.53125 Z M 5.265625 3.164062 L 5.066406 3.988281 L 5.132812 4.175781 L 5.332031 3.347656 Z M 4.902344 1.695312 L 4.964844 1.867188 L 5.164062 1.039062 L 5.101562 0.863281 L 4.894531 1.699219 Z M 1.199219 3.789062 L 0.996094 4.617188 L 1.0625 4.792969 L 1.265625 3.972656 Z M 0.761719 2.566406 L 0.5625 3.394531 L 0.625 3.574219 L 0.828125 2.753906 Z M 0.621094 2.164062 L 0.417969 2.984375 L 0.484375 3.167969 L 0.683594 2.34375 Z M 0.472656 1.753906 L 0.273438 2.582031 L 0.335938 2.761719 L 0.539062 1.941406 Z M 5.246094 1.265625 L 5.042969 2.089844 L 5.109375 2.269531 L 5.3125 1.449219 Z M 0.910156 2.976562 L 0.707031 3.796875 L 0.773438 3.980469 L 0.972656 3.15625 Z M 2.886719 1.886719 L 2.6875 2.710938 L 2.75 2.890625 L 2.953125 2.070312 Z M 2.859375 3.195312 L 2.898438 3.183594 L 2.914062 3.234375 L 3.101562 2.480469 L 3.035156 2.292969 L 2.832031 3.113281 Z M 2.167969 1.839844 L 2.003906 2.511719 L 2.070312 2.695312 L 2.285156 1.796875 Z M 3.179688 2.703125 L 2.996094 3.457031 L 3.058594 3.636719 L 3.242188 2.882812 Z M 6.628906 3.878906 L 6.859375 2.964844 L 6.753906 3 L 6.53125 3.910156 Z M 4.941406 3.640625 L 4.984375 3.765625 L 5.1875 2.945312 L 5.144531 2.820312 Z M 5.390625 1.671875 L 5.222656 2.355469 L 5.339844 2.3125 L 5.453125 1.851562 Z M 3.96875 1.476562 L 4.035156 1.660156 L 4.164062 1.128906 L 4.042969 1.171875 Z M 2.015625 1.894531 L 1.898438 1.933594 L 1.855469 2.101562 L 1.921875 2.289062 Z M 5.585938 2.226562 L 5.535156 2.074219 L 5.488281 2.257812 Z M 3.878906 1.230469 L 3.890625 1.257812 L 3.894531 1.222656 Z M 3.878906 1.230469 "/></g></g></g><g fill="#ffffff" fill-opacity="1"><g transform="translate(93.596735, 69.920855)"><g><path d="M 4.695312 0.710938 L 4.722656 1.3125 L 0.96875 1.484375 L 0.941406 0.882812 L 0.0429688 0.925781 L 0.148438 3.261719 L 1.050781 3.222656 L 1.015625 2.464844 L 1.726562 2.429688 L 1.753906 3.039062 C 1.757812 3.140625 1.761719 3.238281 1.773438 3.332031 C 1.425781 4.019531 0.152344 4 0.214844 5.382812 C 0.230469 5.707031 0.285156 5.910156 0.285156 5.910156 L 1.15625 5.871094 L 1.144531 5.648438 C 1.113281 4.976562 1.726562 4.839844 2.078125 4.386719 C 2.441406 5.105469 3.066406 5.394531 3.832031 5.359375 C 4.992188 5.308594 5.773438 4.527344 5.707031 3.050781 L 5.597656 0.671875 Z M 4.800781 3.019531 C 4.84375 3.945312 4.390625 4.273438 3.78125 4.300781 C 3.175781 4.328125 2.671875 4.035156 2.628906 3.117188 L 2.59375 2.390625 L 4.769531 2.292969 Z M 2.234375 6.105469 L 2.726562 5.277344 C 2.703125 5.253906 2.667969 5.238281 2.636719 5.214844 L 2.136719 6.054688 C 2.167969 6.078125 2.203125 6.089844 2.234375 6.105469 Z M 1.847656 5.824219 L 2.347656 4.984375 C 2.324219 4.960938 2.292969 4.9375 2.265625 4.910156 L 1.773438 5.746094 Z M 3.21875 6.3125 L 3.703125 5.5 C 3.664062 5.503906 3.617188 5.503906 3.578125 5.5 L 3.089844 6.3125 C 3.128906 6.316406 3.179688 6.316406 3.21875 6.3125 Z M 2.03125 5.980469 L 2.53125 5.140625 L 2.449219 5.082031 L 1.949219 5.914062 Z M 2.453125 6.207031 L 2.945312 5.375 L 2.847656 5.332031 L 2.355469 6.164062 Z M 2.949219 6.304688 L 3.433594 5.488281 L 3.320312 5.46875 L 2.828125 6.292969 C 2.867188 6.296875 2.910156 6.304688 2.949219 6.304688 Z M 0.125 3.40625 L -0.355469 4.210938 L -0.226562 4.207031 L 0.25 3.402344 Z M 0.410156 3.394531 L -0.0703125 4.199219 L 0.0585938 4.195312 L 0.535156 3.386719 Z M 2.691406 6.265625 L 3.1875 5.445312 L 3.082031 5.417969 L 2.582031 6.25 Z M 1.683594 5.632812 L 2.183594 4.800781 C 2.15625 4.769531 2.132812 4.742188 2.113281 4.710938 L 1.621094 5.539062 Z M 0.214844 6.054688 L -0.273438 6.863281 L -0.144531 6.855469 L 0.332031 6.050781 Z M 0.773438 6.03125 L 0.296875 6.835938 L 0.421875 6.828125 L 0.898438 6.023438 Z M 0.488281 6.042969 L 0.0117188 6.847656 L 0.136719 6.84375 L 0.617188 6.035156 Z M 0.691406 3.382812 L 0.214844 4.1875 L 0.339844 4.179688 L 0.820312 3.375 Z M 4.285156 2.457031 L 3.808594 3.261719 L 3.933594 3.257812 L 4.410156 2.453125 Z M 3.429688 2.496094 L 2.953125 3.300781 L 3.078125 3.296875 L 3.558594 2.488281 Z M 3.714844 2.484375 L 3.238281 3.289062 L 3.363281 3.28125 L 3.84375 2.476562 Z M 4 2.46875 L 3.523438 3.277344 L 3.648438 3.269531 L 4.125 2.464844 Z M 3.507812 6.285156 L 3.988281 5.488281 C 3.941406 5.496094 3.902344 5.5 3.855469 5.5 L 3.375 6.300781 C 3.421875 6.296875 3.46875 6.285156 3.507812 6.285156 Z M 4.632812 2.441406 L 4.570312 2.445312 L 4.089844 3.25 L 4.203125 3.246094 L 4.203125 3.269531 L 4.636719 2.542969 Z M 3.839844 6.207031 L 4.292969 5.441406 C 4.246094 5.453125 4.199219 5.460938 4.152344 5.464844 L 3.691406 6.246094 Z M -0.320312 6.679688 L 0.144531 5.90625 L 0.113281 5.757812 L -0.335938 6.515625 C -0.332031 6.578125 -0.324219 6.632812 -0.320312 6.679688 Z M 1.175781 3.707031 L 1.609375 2.984375 L 1.601562 2.785156 L 1.167969 3.519531 Z M -0.0390625 2.289062 L -0.472656 3.015625 L -0.464844 3.210938 L -0.03125 2.480469 Z M -0.0585938 1.855469 L -0.492188 2.578125 L -0.484375 2.777344 L -0.0507812 2.046875 Z M 0 3.152344 L -0.433594 3.875 L -0.425781 4.074219 L 0.0117188 3.339844 Z M -0.078125 1.421875 L -0.511719 2.152344 L -0.503906 2.34375 L -0.0703125 1.617188 Z M -0.0195312 2.714844 L -0.453125 3.449219 L -0.445312 3.640625 L -0.0078125 2.914062 Z M 4.210938 6.039062 L 4.628906 5.332031 C 4.582031 5.355469 4.527344 5.367188 4.472656 5.386719 L 4.03125 6.125 C 4.09375 6.101562 4.15625 6.074219 4.210938 6.039062 Z M 2.789062 3.308594 L 2.796875 3.308594 L 3.273438 2.503906 L 3.148438 2.507812 L 2.773438 3.144531 C 2.773438 3.199219 2.777344 3.253906 2.789062 3.308594 Z M -0.355469 6.277344 L 0.0859375 5.546875 C 0.078125 5.492188 0.0742188 5.445312 0.0703125 5.390625 L 0.0703125 5.355469 L -0.339844 6.050781 Z M 4.648438 2.78125 L 4.214844 3.511719 L 4.222656 3.703125 L 4.65625 2.96875 Z M 4.238281 4.042969 L 4.335938 3.96875 L 4.617188 3.503906 C 4.636719 3.414062 4.648438 3.328125 4.660156 3.222656 L 4.234375 3.941406 Z M 1.492188 5.324219 L 1.539062 5.410156 L 1.957031 4.707031 C 1.886719 4.777344 1.820312 4.824219 1.765625 4.875 C 1.75 4.882812 1.734375 4.894531 1.71875 4.910156 L 1.441406 5.375 Z M 1.183594 3.027344 L 1.191406 3.214844 L 1.566406 2.582031 L 1.441406 2.585938 Z M 4.785156 5.464844 L 4.96875 5.15625 L 4.816406 5.242188 L 4.441406 5.878906 C 4.570312 5.761719 4.691406 5.621094 4.785156 5.464844 Z M 2.988281 2.515625 L 2.863281 2.523438 L 2.753906 2.710938 L 2.761719 2.90625 Z M 1.164062 2.597656 L 1.171875 2.78125 L 1.28125 2.59375 Z M 1.625 3.308594 C 1.613281 3.285156 1.613281 3.25 1.613281 3.226562 L 1.449219 3.496094 C 1.519531 3.4375 1.578125 3.371094 1.625 3.308594 Z M 0.976562 3.367188 L 0.960938 3.390625 L 1.089844 3.386719 L 1.105469 3.363281 Z M 0.976562 3.367188 "/></g></g></g><g fill="#ffffff" fill-opacity="1"><g transform="translate(93.706652, 77.770697)"><g><path d="M 2.683594 5.800781 L 4.15625 6.175781 L 5.207031 2.085938 L 4.332031 1.863281 L 4.179688 2.453125 L 0.542969 1.519531 L 0.691406 0.929688 L -0.179688 0.703125 L -1.230469 4.796875 L 0.242188 5.171875 L 0.449219 4.363281 L -0.148438 4.207031 L 0.296875 2.46875 L 1.585938 2.800781 L 1.25 4.101562 L 2.09375 4.316406 L 2.429688 3.015625 L 3.9375 3.402344 L 3.492188 5.140625 L 2.894531 4.988281 Z M 3.667969 6.199219 L 2.976562 6.832031 L 3.097656 6.863281 L 3.800781 6.234375 Z M 3.25 3.371094 L 2.558594 4.003906 L 2.679688 4.035156 L 3.375 3.40625 Z M 3.527344 3.445312 L 2.832031 4.074219 L 2.957031 4.105469 L 3.648438 3.476562 Z M 3.394531 6.128906 L 2.699219 6.757812 L 2.824219 6.789062 L 3.523438 6.160156 Z M 2.839844 5.988281 L 2.148438 6.617188 L 2.273438 6.648438 L 2.972656 6.019531 Z M 1.230469 4.242188 L 0.539062 4.875 L 0.660156 4.90625 L 1.355469 4.273438 Z M 1.507812 4.3125 L 0.8125 4.945312 L 0.9375 4.976562 L 1.628906 4.34375 Z M -0.46875 5.136719 L -1.160156 5.769531 L -1.039062 5.800781 L -0.339844 5.171875 Z M 1.042969 2.808594 L 0.351562 3.4375 L 0.472656 3.46875 L 1.167969 2.839844 Z M 2.566406 5.917969 L 1.875 6.546875 L 1.996094 6.578125 L 2.695312 5.949219 Z M 3.117188 6.058594 L 2.425781 6.6875 L 2.546875 6.71875 L 3.246094 6.089844 Z M 1.320312 2.878906 L 0.628906 3.507812 L 0.75 3.539062 L 1.398438 2.949219 L 1.410156 2.902344 Z M -0.183594 5.210938 L -0.886719 5.839844 L -0.761719 5.871094 L -0.0625 5.242188 Z M 2.335938 3.945312 L 2.40625 3.964844 L 3.097656 3.332031 L 2.976562 3.300781 L 2.359375 3.863281 Z M -1.019531 4.996094 L -1.703125 5.628906 L -1.589844 5.660156 L -0.898438 5.027344 Z M 1.78125 4.382812 L 1.089844 5.015625 L 1.207031 5.046875 L 1.90625 4.417969 Z M -1.289062 4.929688 L -1.980469 5.558594 L -1.867188 5.589844 L -1.171875 4.957031 Z M -0.742188 5.066406 L -1.4375 5.699219 L -1.3125 5.730469 L -0.621094 5.097656 Z M -1.339844 4.644531 L -1.96875 5.21875 L -2.015625 5.410156 L -1.386719 4.835938 Z M -1.230469 4.226562 L -1.859375 4.796875 L -1.90625 4.988281 L -1.277344 4.417969 Z M -1.015625 3.390625 L -1.644531 3.964844 L -1.695312 4.15625 L -1.066406 3.582031 Z M -0.375 0.882812 L -1 1.449219 L -1.050781 1.640625 L -0.421875 1.074219 Z M -0.480469 1.296875 L -1.109375 1.871094 L -1.15625 2.0625 L -0.527344 1.488281 Z M 2.597656 5.566406 L 1.96875 6.140625 L 1.921875 6.332031 L 2.550781 5.757812 Z M 3.117188 4.148438 L 3.074219 4.324219 L 3.699219 3.75 L 3.75 3.566406 L 3.109375 4.144531 Z M -1.125 3.8125 L -1.753906 4.382812 L -1.800781 4.570312 L -1.171875 4.003906 Z M -0.800781 2.554688 L -1.429688 3.128906 L -1.476562 3.3125 L -0.851562 2.746094 Z M -0.695312 2.140625 L -1.324219 2.707031 L -1.371094 2.898438 L -0.742188 2.324219 Z M -0.585938 1.71875 L -1.214844 2.292969 L -1.265625 2.476562 L -0.636719 1.910156 Z M 3.640625 3.980469 L 3.011719 4.554688 L 2.964844 4.738281 L 3.59375 4.171875 Z M -0.910156 2.976562 L -1.535156 3.542969 L -1.585938 3.734375 L -0.957031 3.160156 Z M 1.339844 3.175781 L 0.710938 3.75 L 0.664062 3.933594 L 1.292969 3.367188 Z M 0.585938 4.25 L 0.621094 4.257812 L 0.609375 4.3125 L 1.183594 3.789062 L 1.234375 3.597656 L 0.605469 4.164062 Z M 0.769531 2.738281 L 0.257812 3.203125 L 0.207031 3.394531 L 0.890625 2.769531 Z M 1.125 4.019531 L 0.550781 4.542969 L 0.503906 4.726562 L 1.078125 4.203125 Z M 3.328125 6.921875 L 4.027344 6.292969 L 3.921875 6.265625 L 3.230469 6.894531 Z M 2.0625 5.777344 L 2.027344 5.910156 L 2.65625 5.34375 L 2.6875 5.214844 Z M 3.535156 4.402344 L 3.011719 4.871094 L 3.136719 4.902344 L 3.488281 4.585938 Z M 2.464844 3.441406 L 2.417969 3.632812 L 2.820312 3.261719 L 2.699219 3.230469 Z M 0.613281 2.695312 L 0.492188 2.664062 L 0.363281 2.78125 L 0.316406 2.972656 Z M 3.390625 4.96875 L 3.429688 4.816406 L 3.289062 4.941406 Z M 2.53125 3.1875 L 2.523438 3.21875 L 2.546875 3.191406 Z M 2.53125 3.1875 "/></g></g></g></svg>