<svg xmlns="http://www.w3.org/2000/svg" xmlns:xlink="http://www.w3.org/1999/xlink" width="188" zoomAndPan="magnify" viewBox="0 0 141.12 141.750002" height="188" preserveAspectRatio="xMidYMid meet" version="1.0"><defs><clipPath id="72eb2c7552"><path d="M 4.832031 5.148438 L 134.601562 5.148438 L 134.601562 134.914062 L 4.832031 134.914062 Z M 4.832031 5.148438 " clip-rule="nonzero"/></clipPath><clipPath id="c790164e61"><path d="M 39.546875 39.859375 L 134.601562 39.859375 L 134.601562 134.914062 L 39.546875 134.914062 Z M 39.546875 39.859375 " clip-rule="nonzero"/></clipPath><clipPath id="04a787fbc3"><path d="M 134.601562 70.03125 C 134.601562 105.867188 105.550781 134.914062 69.714844 134.914062 C 33.882812 134.914062 4.832031 105.867188 4.832031 70.03125 C 4.832031 34.199219 33.882812 5.148438 69.714844 5.148438 C 105.550781 5.148438 134.601562 34.199219 134.601562 70.03125 Z M 134.601562 70.03125 " clip-rule="nonzero"/></clipPath></defs><g clip-path="url(#72eb2c7552)"><path fill="#db1100" d="M 134.601562 70.03125 C 134.601562 105.867188 105.550781 134.914062 69.714844 134.914062 C 33.882812 134.914062 4.832031 105.867188 4.832031 70.03125 C 4.832031 34.199219 33.882812 5.148438 69.714844 5.148438 C 105.550781 5.148438 134.601562 34.199219 134.601562 70.03125 " fill-opacity="1" fill-rule="nonzero"/></g><g clip-path="url(#c790164e61)"><g clip-path="url(#04a787fbc3)"><path fill="#b30d00" d="M 146.476562 86.667969 L 99.777344 39.96875 L 39.65625 100.09375 L 83.605469 144.042969 L 120.375 121.527344 L 146.476562 86.667969 " fill-opacity="1" fill-rule="nonzero"/></g></g><path fill="#ffffff" d="M 81.207031 70.03125 L 99.777344 51.460938 C 102.945312 48.292969 102.945312 43.136719 99.777344 39.96875 C 98.246094 38.433594 96.203125 37.589844 94.03125 37.589844 C 91.863281 37.589844 89.820312 38.433594 88.289062 39.96875 L 69.714844 58.539062 L 51.144531 39.96875 C 49.609375 38.433594 47.570312 37.589844 45.402344 37.589844 C 43.230469 37.589844 41.1875 38.433594 39.65625 39.96875 C 36.488281 43.136719 36.488281 48.292969 39.65625 51.460938 L 58.226562 70.03125 L 39.65625 88.601562 C 38.121094 90.136719 37.273438 92.179688 37.273438 94.347656 C 37.273438 96.519531 38.121094 98.558594 39.65625 100.09375 C 41.1875 101.628906 43.230469 102.472656 45.402344 102.472656 C 47.570312 102.472656 49.609375 101.628906 51.144531 100.09375 L 69.714844 81.523438 L 88.289062 100.09375 C 89.824219 101.628906 91.863281 102.472656 94.03125 102.472656 C 96.203125 102.472656 98.242188 101.628906 99.777344 100.09375 C 102.945312 96.925781 102.945312 91.769531 99.777344 88.601562 L 81.207031 70.03125 " fill-opacity="1" fill-rule="nonzero"/></svg>