<svg xmlns="http://www.w3.org/2000/svg" xmlns:xlink="http://www.w3.org/1999/xlink" width="188" zoomAndPan="magnify" viewBox="0 0 141.12 141.750002" height="188" preserveAspectRatio="xMidYMid meet" version="1.0"><defs><clipPath id="18c0051115"><path d="M 6.308594 25 L 133.851562 25 L 133.851562 100.339844 L 6.308594 100.339844 Z M 6.308594 25 " clip-rule="nonzero"/></clipPath><clipPath id="05b32750e3"><path d="M 6.308594 22.480469 L 133.851562 22.480469 L 133.851562 100.339844 L 6.308594 100.339844 Z M 6.308594 22.480469 " clip-rule="nonzero"/></clipPath><clipPath id="c2ba99a6fc"><path d="M 6.308594 22.480469 L 133.851562 22.480469 L 133.851562 100.339844 L 6.308594 100.339844 Z M 6.308594 22.480469 " clip-rule="nonzero"/></clipPath><clipPath id="6ff6a60305"><path d="M 8 22.480469 L 129 22.480469 L 129 100.339844 L 8 100.339844 Z M 8 22.480469 " clip-rule="nonzero"/></clipPath><clipPath id="d93813277b"><path d="M 6.308594 22.480469 L 73 22.480469 L 73 100.339844 L 6.308594 100.339844 Z M 6.308594 22.480469 " clip-rule="nonzero"/></clipPath><clipPath id="51e3d9a6a9"><path d="M 6.308594 22.480469 L 90 22.480469 L 90 100.339844 L 6.308594 100.339844 Z M 6.308594 22.480469 " clip-rule="nonzero"/></clipPath><clipPath id="72095395e7"><path d="M 60 22.480469 L 133.851562 22.480469 L 133.851562 100.339844 L 60 100.339844 Z M 60 22.480469 " clip-rule="nonzero"/></clipPath><clipPath id="7c589a92db"><path d="M 15 22.480469 L 110 22.480469 L 110 100.339844 L 15 100.339844 Z M 15 22.480469 " clip-rule="nonzero"/></clipPath><clipPath id="726db6ebed"><path d="M 32 22.480469 L 133.851562 22.480469 L 133.851562 100.339844 L 32 100.339844 Z M 32 22.480469 " clip-rule="nonzero"/></clipPath><clipPath id="4d2728cb92"><path d="M 83 22.480469 L 133.851562 22.480469 L 133.851562 100 L 83 100 Z M 83 22.480469 " clip-rule="nonzero"/></clipPath><clipPath id="2f71b23a53"><path d="M 80 29 L 133.851562 29 L 133.851562 100.339844 L 80 100.339844 Z M 80 29 " clip-rule="nonzero"/></clipPath><clipPath id="a9f4caf404"><path d="M 6.308594 37 L 44 37 L 44 91 L 6.308594 91 Z M 6.308594 37 " clip-rule="nonzero"/></clipPath><clipPath id="b39320511e"><path d="M 106 24 L 133.851562 24 L 133.851562 72 L 106 72 Z M 106 24 " clip-rule="nonzero"/></clipPath><clipPath id="67667b8c26"><path d="M 30 87 L 111.820312 87 L 111.820312 108 L 30 108 Z M 30 87 " clip-rule="nonzero"/></clipPath><clipPath id="a1aae5683c"><path d="M 28.027344 84.367188 L 110 84.367188 L 110 106 L 28.027344 106 Z M 28.027344 84.367188 " clip-rule="nonzero"/></clipPath><clipPath id="cda07d22e2"><path d="M 28.027344 84.367188 L 111.820312 84.367188 L 111.820312 108.09375 L 28.027344 108.09375 Z M 28.027344 84.367188 " clip-rule="nonzero"/></clipPath></defs><g clip-path="url(#18c0051115)"><path fill="#febf10" d="M 132.742188 39.785156 L 132.742188 39.800781 L 132.375 41.125 C 130.585938 47.683594 128.75 54.464844 127.863281 61.019531 C 127.65625 62.628906 127.015625 64.046875 125.941406 65.265625 C 126.375 66.015625 126.65625 66.816406 126.792969 67.671875 C 126.929688 68.527344 126.90625 69.378906 126.726562 70.226562 L 126.375 71.949219 C 126.191406 72.832031 125.855469 73.648438 125.367188 74.402344 C 124.875 75.15625 124.265625 75.792969 123.539062 76.320312 C 122.757812 76.902344 121.894531 77.320312 120.949219 77.570312 C 112.6875 91.355469 92.296875 100.117188 69.976562 100.117188 C 65.921875 100.113281 61.886719 99.828125 57.871094 99.253906 C 42.207031 97 29.320312 90.570312 22.011719 81.734375 C 21.742188 82.804688 21.253906 83.757812 20.546875 84.597656 C 19.835938 85.4375 18.980469 86.082031 17.972656 86.527344 C 17.15625 86.898438 16.296875 87.105469 15.398438 87.140625 C 13.878906 87.222656 12.503906 86.816406 11.273438 85.921875 C 10.746094 85.535156 10.304688 85.074219 9.941406 84.539062 C 9.734375 84.421875 9.539062 84.292969 9.347656 84.148438 C 8.894531 83.804688 8.5 83.402344 8.164062 82.941406 C 7.824219 82.484375 7.554688 81.988281 7.359375 81.453125 C 7.160156 80.917969 7.042969 80.367188 7.003906 79.796875 C 6.964844 79.230469 7.003906 78.667969 7.125 78.109375 C 8.476562 70.769531 10.320312 63.550781 12.652344 56.460938 C 12.800781 56.035156 12.929688 55.574219 13.0625 55.09375 L 13.085938 55.019531 C 13.851562 52.375 14.890625 48.769531 17.648438 46.3125 C 18.292969 45.75 18.992188 45.273438 19.75 44.882812 C 31.070312 30.453125 55.898438 22.886719 80.601562 26.433594 C 90.519531 27.859375 99.46875 30.980469 106.625 35.5 C 107.5 35.316406 108.382812 35.222656 109.277344 35.230469 C 111.433594 35.195312 113.382812 35.804688 115.136719 37.058594 C 115.296875 36.425781 115.457031 35.792969 115.625 35.164062 C 115.929688 33.996094 116.488281 32.964844 117.300781 32.070312 C 118.113281 31.175781 119.089844 30.527344 120.226562 30.117188 C 120.8125 29.898438 121.417969 29.761719 122.042969 29.703125 C 122.667969 29.644531 123.285156 29.671875 123.902344 29.78125 C 124.519531 29.886719 125.113281 30.074219 125.679688 30.339844 C 126.246094 30.605469 126.769531 30.941406 127.246094 31.347656 C 128.625 31.539062 129.832031 32.097656 130.867188 33.023438 C 131.328125 33.441406 131.71875 33.914062 132.042969 34.441406 C 132.371094 34.972656 132.613281 35.535156 132.78125 36.132812 C 132.945312 36.730469 133.027344 37.34375 133.019531 37.964844 C 133.011719 38.585938 132.921875 39.191406 132.742188 39.785156 Z M 132.742188 39.785156 " fill-opacity="1" fill-rule="nonzero"/></g><g clip-path="url(#05b32750e3)"><path stroke-linecap="butt" transform="matrix(0.633111, 0, 0, 0.633111, 6.689663, 25.248882)" fill="none" stroke-linejoin="miter" d="M 199.100158 22.960067 L 199.100158 22.984747 L 198.520185 25.076353 C 195.694358 35.435662 192.794491 46.146656 191.393918 56.499796 C 191.066912 59.041806 190.055043 61.28149 188.358313 63.206507 C 189.043175 64.391133 189.48741 65.655969 189.703358 67.007183 C 189.919305 68.358397 189.882286 69.703441 189.598469 71.042316 L 189.043175 73.763254 C 188.753189 75.157658 188.222575 76.447173 187.451334 77.637969 C 186.673923 78.828765 185.711414 79.834463 184.563808 80.667403 C 183.329822 81.586723 181.966268 82.246905 180.473145 82.64178 C 167.423748 104.415456 135.216724 118.254604 99.961756 118.254604 C 93.55737 118.248434 87.183835 117.79803 80.841149 116.89105 C 56.099738 113.331002 35.745146 103.1753 24.20121 89.218923 C 23.775485 90.909484 23.004244 92.414946 21.887487 93.741481 C 20.764561 95.068015 19.413346 96.086053 17.821505 96.789425 C 16.53199 97.375568 15.174606 97.702574 13.755522 97.758104 C 11.35542 97.887672 9.183606 97.246 7.240079 95.833086 C 6.407138 95.222263 5.709936 94.494212 5.136133 93.648932 C 4.809127 93.463834 4.500631 93.260226 4.198304 93.031939 C 3.482592 92.488985 2.85943 91.853483 2.328816 91.125431 C 1.792032 90.40355 1.366307 89.619969 1.057811 88.774689 C 0.743144 87.929408 0.558047 87.059449 0.496347 86.158639 C 0.434648 85.264 0.496347 84.37553 0.687615 83.49323 C 2.82241 71.899936 5.734616 60.497909 9.418063 49.29949 C 9.65252 48.626967 9.856128 47.898916 10.065906 47.140015 L 10.102925 47.022786 C 11.312231 42.845745 12.953432 37.150902 17.309401 33.270017 C 18.327439 32.381547 19.431856 31.628816 20.628822 31.011823 C 38.509273 8.220109 77.725335 -3.731041 116.74396 1.871254 C 132.409407 4.123277 146.544712 9.05305 157.84802 16.191656 C 159.230083 15.90167 160.624487 15.753591 162.037401 15.765931 C 165.443201 15.710402 168.521995 16.672911 171.292293 18.653458 C 171.54526 17.653929 171.798227 16.654401 172.063534 15.661042 C 172.544788 13.816234 173.427088 12.187373 174.710433 10.77446 C 175.993778 9.361546 177.53626 8.337338 179.331709 7.689496 C 180.257198 7.34398 181.213537 7.128032 182.200725 7.035483 C 183.187914 6.942934 184.162762 6.986124 185.137611 7.158882 C 186.11246 7.32547 187.050289 7.621626 187.944928 8.041181 C 188.839568 8.460737 189.666338 8.99135 190.419069 9.633023 C 192.597054 9.935349 194.503562 10.817649 196.138592 12.279922 C 196.866644 12.940104 197.483637 13.686666 197.995741 14.519606 C 198.514015 15.358716 198.89655 16.247186 199.161857 17.191185 C 199.420994 18.135184 199.550563 19.103862 199.538223 20.084881 C 199.525883 21.065899 199.383975 22.022238 199.100158 22.960067 Z M 199.100158 22.960067 " stroke="#231f20" stroke-width="1" stroke-opacity="1" stroke-miterlimit="10"/></g><path fill="#231f20" d="M 121.125 64.910156 C 121.125 65.949219 121.042969 66.988281 120.878906 68.019531 C 120.714844 69.054688 120.46875 70.082031 120.144531 71.101562 C 119.820312 72.121094 119.414062 73.128906 118.929688 74.121094 C 118.445312 75.117188 117.882812 76.09375 117.246094 77.054688 C 116.605469 78.015625 115.894531 78.953125 115.109375 79.871094 C 114.320312 80.785156 113.464844 81.675781 112.539062 82.539062 C 111.613281 83.40625 110.617188 84.238281 109.5625 85.042969 C 108.503906 85.84375 107.382812 86.613281 106.203125 87.351562 C 105.023438 88.085938 103.789062 88.78125 102.5 89.441406 C 101.210938 90.101562 99.871094 90.71875 98.484375 91.296875 C 97.097656 91.875 95.667969 92.40625 94.195312 92.898438 C 92.726562 93.386719 91.21875 93.832031 89.679688 94.230469 C 88.136719 94.625 86.566406 94.976562 84.972656 95.277344 C 83.375 95.578125 81.757812 95.832031 80.121094 96.035156 C 78.484375 96.238281 76.835938 96.390625 75.175781 96.492188 C 73.515625 96.59375 71.851562 96.644531 70.183594 96.644531 C 68.515625 96.644531 66.851562 96.59375 65.191406 96.492188 C 63.53125 96.390625 61.882812 96.238281 60.246094 96.035156 C 58.609375 95.832031 56.992188 95.578125 55.398438 95.277344 C 53.800781 94.976562 52.230469 94.625 50.691406 94.230469 C 49.148438 93.832031 47.644531 93.386719 46.171875 92.898438 C 44.699219 92.40625 43.269531 91.875 41.882812 91.296875 C 40.496094 90.71875 39.160156 90.101562 37.867188 89.441406 C 36.578125 88.78125 35.34375 88.085938 34.164062 87.351562 C 32.984375 86.613281 31.867188 85.84375 30.808594 85.042969 C 29.75 84.238281 28.757812 83.40625 27.832031 82.539062 C 26.902344 81.675781 26.046875 80.785156 25.261719 79.871094 C 24.472656 78.953125 23.761719 78.015625 23.121094 77.054688 C 22.484375 76.09375 21.921875 75.117188 21.4375 74.121094 C 20.953125 73.128906 20.550781 72.121094 20.222656 71.101562 C 19.898438 70.082031 19.65625 69.054688 19.492188 68.019531 C 19.328125 66.988281 19.246094 65.949219 19.246094 64.910156 C 19.246094 63.871094 19.328125 62.835938 19.492188 61.800781 C 19.65625 60.765625 19.898438 59.738281 20.222656 58.71875 C 20.550781 57.699219 20.953125 56.695312 21.4375 55.699219 C 21.921875 54.703125 22.484375 53.726562 23.121094 52.765625 C 23.761719 51.808594 24.472656 50.867188 25.261719 49.953125 C 26.046875 49.035156 26.902344 48.144531 27.832031 47.28125 C 28.757812 46.417969 29.75 45.582031 30.808594 44.777344 C 31.867188 43.976562 32.984375 43.207031 34.164062 42.472656 C 35.34375 41.738281 36.578125 41.039062 37.867188 40.378906 C 39.160156 39.722656 40.496094 39.101562 41.882812 38.523438 C 43.269531 37.949219 44.699219 37.414062 46.171875 36.925781 C 47.644531 36.433594 49.148438 35.992188 50.691406 35.59375 C 52.230469 35.195312 53.800781 34.84375 55.398438 34.542969 C 56.992188 34.242188 58.609375 33.988281 60.246094 33.785156 C 61.882812 33.585938 63.53125 33.433594 65.191406 33.332031 C 66.851562 33.226562 68.515625 33.175781 70.183594 33.175781 C 71.851562 33.175781 73.515625 33.226562 75.175781 33.332031 C 76.835938 33.433594 78.484375 33.585938 80.121094 33.785156 C 81.757812 33.988281 83.375 34.242188 84.972656 34.542969 C 86.566406 34.84375 88.136719 35.195312 89.679688 35.59375 C 91.21875 35.992188 92.726562 36.433594 94.195312 36.925781 C 95.667969 37.414062 97.097656 37.949219 98.484375 38.523438 C 99.871094 39.101562 101.210938 39.722656 102.5 40.378906 C 103.789062 41.039062 105.023438 41.738281 106.203125 42.472656 C 107.382812 43.207031 108.503906 43.976562 109.5625 44.777344 C 110.617188 45.582031 111.613281 46.417969 112.539062 47.28125 C 113.464844 48.144531 114.320312 49.035156 115.109375 49.953125 C 115.894531 50.867188 116.605469 51.808594 117.246094 52.765625 C 117.882812 53.726562 118.445312 54.703125 118.929688 55.699219 C 119.414062 56.695312 119.820312 57.699219 120.144531 58.71875 C 120.46875 59.738281 120.714844 60.765625 120.878906 61.800781 C 121.042969 62.835938 121.125 63.871094 121.125 64.910156 Z M 121.125 64.910156 " fill-opacity="1" fill-rule="nonzero"/><g clip-path="url(#c2ba99a6fc)"><path stroke-linecap="butt" transform="matrix(0.633111, 0, 0, 0.633111, 6.438318, 25.65977)" fill="none" stroke-linejoin="miter" d="M 181.147793 61.996046 C 181.147793 63.637246 181.018224 65.278447 180.759087 66.907308 C 180.49995 68.542339 180.111245 70.16503 179.599141 71.775381 C 179.087037 73.385733 178.445364 74.977574 177.680293 76.544736 C 176.915222 78.118067 176.026752 79.660549 175.021054 81.178352 C 174.009186 82.696154 172.886259 84.176937 171.646104 85.62687 C 170.399778 87.070633 169.048564 88.477376 167.586291 89.84093 C 166.124018 91.210654 164.550686 92.524849 162.884806 93.795854 C 161.212755 95.06069 159.441986 96.276165 157.578668 97.442282 C 155.71535 98.602228 153.765652 99.700475 151.729576 100.743193 C 149.6935 101.785911 147.577215 102.76076 145.38689 103.673909 C 143.196566 104.587058 140.938372 105.426168 138.612309 106.203579 C 136.292416 106.97482 133.910824 107.678192 131.479873 108.307525 C 129.042751 108.930688 126.56244 109.485981 124.045109 109.961065 C 121.521609 110.43615 118.967259 110.837195 116.382059 111.158032 C 113.796859 111.478868 111.19315 111.719495 108.57093 111.879913 C 105.948711 112.040331 103.320321 112.12054 100.685762 112.12054 C 98.051203 112.12054 95.422814 112.040331 92.800594 111.879913 C 90.178375 111.719495 87.574665 111.478868 84.989466 111.158032 C 82.404266 110.837195 79.849916 110.43615 77.332585 109.961065 C 74.809084 109.485981 72.328773 108.930688 69.897822 108.307525 C 67.4607 107.678192 65.085278 106.97482 62.759215 106.203579 C 60.433152 105.426168 58.174959 104.587058 55.984634 103.673909 C 53.79431 102.76076 51.684195 101.785911 49.641948 100.743193 C 47.605872 99.700475 45.656175 98.602228 43.792857 97.442282 C 41.929538 96.276165 40.164939 95.06069 38.492889 93.795854 C 36.820838 92.524849 35.253676 91.210654 33.791403 89.84093 C 32.322961 88.477376 30.971746 87.070633 29.731591 85.62687 C 28.485265 84.176937 27.362339 82.696154 26.35047 81.178352 C 25.344772 79.660549 24.456303 78.118067 23.691231 76.544736 C 22.92616 74.977574 22.290658 73.385733 21.772384 71.775381 C 21.26028 70.16503 20.877744 68.542339 20.618607 66.907308 C 20.35947 65.278447 20.229902 63.637246 20.229902 61.996046 C 20.229902 60.354845 20.35947 58.719814 20.618607 57.084783 C 20.877744 55.449752 21.26028 53.827061 21.772384 52.21671 C 22.290658 50.606359 22.92616 49.020687 23.691231 47.447356 C 24.456303 45.874024 25.344772 44.331542 26.35047 42.81374 C 27.362339 41.302107 28.485265 39.815155 29.731591 38.371392 C 30.971746 36.921459 32.322961 35.514715 33.791403 34.151161 C 35.253676 32.787607 36.820838 31.467242 38.492889 30.196237 C 40.164939 28.931402 41.929538 27.715926 43.792857 26.55598 C 45.656175 25.396033 47.605872 24.291616 49.641948 23.248898 C 51.684195 22.21235 53.79431 21.231332 55.984634 20.318182 C 58.174959 19.411203 60.433152 18.565923 62.759215 17.794682 C 65.085278 17.017271 67.4607 16.320069 69.897822 15.690736 C 72.328773 15.061404 74.809084 14.50611 77.332585 14.031026 C 79.849916 13.555941 82.404266 13.154896 84.989466 12.83406 C 87.574665 12.519393 90.178375 12.278766 92.800594 12.118348 C 95.422814 11.95176 98.051203 11.871551 100.685762 11.871551 C 103.320321 11.871551 105.948711 11.95176 108.57093 12.118348 C 111.19315 12.278766 113.796859 12.519393 116.382059 12.83406 C 118.967259 13.154896 121.521609 13.555941 124.045109 14.031026 C 126.56244 14.50611 129.042751 15.061404 131.479873 15.690736 C 133.910824 16.320069 136.292416 17.017271 138.612309 17.794682 C 140.938372 18.565923 143.196566 19.411203 145.38689 20.318182 C 147.577215 21.231332 149.6935 22.21235 151.729576 23.248898 C 153.765652 24.291616 155.71535 25.396033 157.578668 26.55598 C 159.441986 27.715926 161.212755 28.931402 162.884806 30.196237 C 164.550686 31.467242 166.124018 32.787607 167.586291 34.151161 C 169.048564 35.514715 170.399778 36.921459 171.646104 38.371392 C 172.886259 39.815155 174.009186 41.302107 175.021054 42.81374 C 176.026752 44.331542 176.915222 45.874024 177.680293 47.447356 C 178.445364 49.020687 179.087037 50.606359 179.599141 52.21671 C 180.111245 53.827061 180.49995 55.449752 180.759087 57.084783 C 181.018224 58.719814 181.147793 60.354845 181.147793 61.996046 Z M 181.147793 61.996046 " stroke="#231f20" stroke-width="2" stroke-opacity="1" stroke-miterlimit="10"/></g><path fill="#ff9900" d="M 119.582031 60.445312 C 119.589844 61.484375 119.511719 62.523438 119.355469 63.558594 C 119.199219 64.59375 118.960938 65.621094 118.644531 66.644531 C 118.324219 67.664062 117.925781 68.675781 117.449219 69.671875 C 116.96875 70.667969 116.414062 71.652344 115.78125 72.613281 C 115.152344 73.578125 114.445312 74.523438 113.664062 75.445312 C 112.882812 76.367188 112.03125 77.261719 111.109375 78.132812 C 110.191406 79 109.203125 79.839844 108.148438 80.652344 C 107.097656 81.460938 105.980469 82.238281 104.808594 82.980469 C 103.632812 83.722656 102.402344 84.429688 101.117188 85.097656 C 99.832031 85.761719 98.496094 86.390625 97.113281 86.976562 C 95.730469 87.5625 94.304688 88.105469 92.835938 88.605469 C 91.367188 89.105469 89.863281 89.558594 88.324219 89.964844 C 86.789062 90.375 85.222656 90.734375 83.625 91.046875 C 82.03125 91.359375 80.417969 91.621094 78.78125 91.832031 C 77.148438 92.046875 75.5 92.210938 73.839844 92.320312 C 72.179688 92.433594 70.515625 92.496094 68.847656 92.507812 C 67.179688 92.519531 65.515625 92.476562 63.855469 92.386719 C 62.195312 92.296875 60.542969 92.152344 58.90625 91.960938 C 57.269531 91.769531 55.652344 91.527344 54.054688 91.234375 C 52.453125 90.945312 50.882812 90.605469 49.339844 90.21875 C 47.796875 89.828125 46.285156 89.394531 44.8125 88.914062 C 43.339844 88.433594 41.90625 87.910156 40.515625 87.339844 C 39.125 86.773438 37.78125 86.164062 36.488281 85.511719 C 35.195312 84.859375 33.953125 84.171875 32.769531 83.445312 C 31.585938 82.71875 30.460938 81.957031 29.398438 81.160156 C 28.335938 80.363281 27.335938 79.535156 26.40625 78.675781 C 25.472656 77.820312 24.609375 76.933594 23.816406 76.023438 C 23.023438 75.109375 22.308594 74.175781 21.660156 73.222656 C 21.015625 72.265625 20.449219 71.292969 19.960938 70.300781 C 19.46875 69.308594 19.058594 68.304688 18.726562 67.285156 C 18.394531 66.269531 18.140625 65.246094 17.972656 64.210938 C 17.800781 63.179688 17.714844 62.140625 17.707031 61.101562 C 17.699219 60.0625 17.773438 59.027344 17.933594 57.992188 C 18.089844 56.957031 18.328125 55.925781 18.644531 54.90625 C 18.964844 53.882812 19.363281 52.875 19.839844 51.875 C 20.316406 50.878906 20.875 49.898438 21.503906 48.933594 C 22.136719 47.96875 22.84375 47.027344 23.625 46.105469 C 24.40625 45.183594 25.257812 44.289062 26.175781 43.417969 C 27.097656 42.546875 28.085938 41.707031 29.140625 40.898438 C 30.191406 40.085938 31.304688 39.308594 32.480469 38.566406 C 33.65625 37.824219 34.886719 37.121094 36.171875 36.453125 C 37.457031 35.785156 38.792969 35.15625 40.175781 34.570312 C 41.558594 33.984375 42.984375 33.441406 44.453125 32.941406 C 45.921875 32.445312 47.421875 31.992188 48.960938 31.582031 C 50.5 31.175781 52.066406 30.816406 53.664062 30.503906 C 55.257812 30.191406 56.871094 29.929688 58.507812 29.714844 C 60.140625 29.503906 61.789062 29.339844 63.449219 29.226562 C 65.109375 29.113281 66.773438 29.050781 68.441406 29.042969 C 70.109375 29.03125 71.773438 29.070312 73.433594 29.164062 C 75.09375 29.253906 76.742188 29.394531 78.382812 29.585938 C 80.019531 29.78125 81.636719 30.019531 83.234375 30.3125 C 84.832031 30.605469 86.40625 30.945312 87.949219 31.332031 C 89.492188 31.71875 91 32.152344 92.476562 32.632812 C 93.949219 33.113281 95.382812 33.640625 96.773438 34.207031 C 98.164062 34.777344 99.507812 35.386719 100.800781 36.035156 C 102.09375 36.6875 103.332031 37.375 104.519531 38.105469 C 105.703125 38.832031 106.828125 39.59375 107.890625 40.390625 C 108.953125 41.1875 109.953125 42.015625 110.882812 42.871094 C 111.816406 43.730469 112.679688 44.613281 113.472656 45.527344 C 114.261719 46.4375 114.980469 47.371094 115.625 48.328125 C 116.269531 49.285156 116.839844 50.257812 117.328125 51.25 C 117.820312 52.242188 118.230469 53.246094 118.5625 54.261719 C 118.894531 55.277344 119.148438 56.304688 119.316406 57.335938 C 119.488281 58.371094 119.574219 59.40625 119.582031 60.445312 Z M 119.582031 60.445312 " fill-opacity="1" fill-rule="nonzero"/><g clip-path="url(#6ff6a60305)"><path stroke-linecap="butt" transform="matrix(0.633098, -0.00407738, 0.00407738, 0.633098, 6.462378, 25.648374)" fill="none" stroke-linejoin="miter" d="M 178.315 56.111372 C 178.31677 57.752618 178.182805 59.39299 177.925483 61.026398 C 177.668161 62.659805 177.281352 64.280039 176.771188 65.893308 C 176.254893 67.500367 175.615282 69.094293 174.852434 70.662744 C 174.083416 72.231155 173.197291 73.780303 172.188008 75.291636 C 171.184856 76.809179 170.058506 78.295079 168.815168 79.743204 C 167.571831 81.19133 166.217715 82.595552 164.752781 83.96204 C 163.294056 85.322398 161.724554 86.638851 160.050443 87.911441 C 158.382541 89.177901 156.610071 90.394327 154.751581 91.554668 C 152.886922 92.71497 150.936242 93.819187 148.899583 94.86115 C 146.862964 95.896942 144.746495 96.876691 142.556425 97.788094 C 140.366356 98.699498 138.108855 99.542597 135.783924 100.31739 C 133.458993 101.092184 131.079011 101.792583 128.643977 102.418586 C 126.215074 103.050799 123.737328 103.602487 121.210701 104.079819 C 118.690244 104.55719 116.139454 104.954156 113.552162 105.270676 C 110.971 105.593406 108.365676 105.835769 105.742398 105.991636 C 103.119081 106.153672 100.49011 106.235461 97.855486 106.237004 C 95.220862 106.238546 92.592964 106.153751 89.971713 105.994958 C 87.350462 105.836165 84.742107 105.591074 82.158908 105.272104 C 79.575709 104.953135 77.023875 104.554157 74.503407 104.07517 C 71.976729 103.602313 69.499927 103.049567 67.066789 102.423061 C 64.633692 101.790385 62.25039 101.09016 59.929263 100.316294 C 57.608136 99.542428 55.349144 98.701092 53.158496 97.786155 C 50.967809 96.877388 48.851597 95.90123 46.816029 94.857721 C 44.780461 93.814212 42.825458 92.715691 40.963399 91.556069 C 39.10134 90.396446 37.332187 89.181891 35.662107 87.912444 C 33.992027 86.642996 32.420983 85.324826 30.961312 83.958013 C 29.495432 82.59733 28.140926 81.188004 26.897715 79.742374 C 25.654544 78.290575 24.534967 76.808721 23.520476 75.296693 C 22.512194 73.778536 21.627467 72.236494 20.866335 70.664398 C 20.099033 69.092262 19.461416 67.502451 18.947354 65.888756 C 18.433253 64.28123 18.042626 62.66216 17.787855 61.025454 C 17.526874 59.394878 17.401708 57.752837 17.399938 56.111591 C 17.398168 54.470345 17.525924 52.836103 17.789416 51.202735 C 18.046738 49.569327 18.433586 47.942924 18.943711 46.335825 C 19.460045 44.722595 20.099617 43.13484 20.862505 41.560219 C 21.625353 39.991768 22.517608 38.44883 23.52076 36.931287 C 24.530083 35.413783 25.656393 33.934054 26.899731 32.485928 C 28.143068 31.037802 29.497184 29.633581 30.955948 28.267053 C 32.420882 26.900565 33.990385 25.584111 35.664456 24.317691 C 37.332397 23.045062 39.098698 21.828596 40.963357 20.668295 C 42.828017 19.507993 44.778656 18.409946 46.815315 17.367983 C 48.851974 16.32602 50.968444 15.346272 53.158513 14.434868 C 55.348583 13.523465 57.606083 12.680366 59.931014 11.905572 C 62.255905 11.136948 64.629718 10.43651 67.064791 9.804337 C 69.499825 9.178334 71.977571 8.626646 74.504198 8.149314 C 77.024655 7.671942 79.575445 7.274976 82.162777 6.952287 C 84.743899 6.635727 87.349223 6.393364 89.972541 6.231327 C 92.595858 6.069291 95.224829 5.987501 97.859413 5.992129 C 100.494037 5.990587 103.121974 6.069212 105.743185 6.234175 C 108.364437 6.392968 110.966662 6.631849 113.556031 6.950858 C 116.13919 7.275998 118.691064 7.668806 121.211532 8.147793 C 123.732 8.62678 126.214972 9.179566 128.648109 9.806072 C 131.081247 10.432578 133.458379 11.132763 135.785676 11.906669 C 138.106803 12.680535 140.365755 13.528041 142.556442 14.436808 C 144.74709 15.351744 146.863302 16.327902 148.89891 17.365242 C 150.934478 18.408751 152.883311 19.507232 154.7515 20.673064 C 156.613558 21.832687 158.382712 23.047242 160.052792 24.316689 C 161.722871 25.586136 163.293916 26.904306 164.753627 28.26495 C 166.219467 29.631802 167.574012 31.034959 168.817184 32.486758 C 170.054225 33.932348 171.179971 35.414242 172.188253 36.932399 C 173.196535 38.450557 174.087431 39.992639 174.848564 41.564735 C 175.615866 43.136871 176.253483 44.726682 176.767584 46.334207 C 177.281686 47.941733 177.672272 49.566973 177.927084 51.197509 C 178.188025 52.834254 178.313231 54.470125 178.315 56.111372 Z M 178.315 56.111372 " stroke="#231f20" stroke-width="1" stroke-opacity="1" stroke-miterlimit="10"/></g><path fill="#231f20" d="M 36.5 52.304688 C 35.402344 49.96875 32.636719 48.507812 29.464844 48.582031 C 27.039062 48.632812 24.296875 48.917969 22.382812 50.601562 C 20.378906 52.359375 19.542969 55.265625 18.859375 57.601562 C 18.703125 58.164062 18.542969 58.699219 18.382812 59.183594 C 16.074219 66.113281 14.257812 73.167969 12.929688 80.347656 C 12.8125 80.804688 12.832031 81.253906 12.984375 81.695312 C 13.140625 82.140625 13.402344 82.503906 13.773438 82.792969 C 14.292969 83.160156 14.871094 83.324219 15.507812 83.285156 C 15.957031 83.265625 16.386719 83.164062 16.796875 82.980469 C 17.320312 82.742188 17.761719 82.402344 18.121094 81.953125 C 18.472656 81.515625 18.703125 81.019531 18.804688 80.464844 C 19.585938 76.292969 20.542969 72.164062 21.648438 68.175781 C 25.816406 66.589844 32.042969 63.5625 35.488281 58.761719 C 37.0625 56.5625 37.429688 54.269531 36.5 52.304688 Z M 25.449219 56.351562 C 26.066406 55.132812 26.394531 54.871094 27.226562 54.613281 C 27.546875 54.53125 27.875 54.488281 28.203125 54.488281 C 28.453125 54.476562 28.699219 54.476562 28.917969 54.476562 L 29.015625 54.472656 C 30.632812 54.464844 30.902344 54.804688 30.914062 54.816406 C 31.222656 55.230469 30.71875 55.945312 29.167969 57.285156 L 29.023438 57.410156 C 27.359375 58.835938 25.554688 60.0625 23.617188 61.082031 C 24.097656 59.457031 24.710938 57.878906 25.449219 56.351562 Z M 25.449219 56.351562 " fill-opacity="1" fill-rule="nonzero"/><g clip-path="url(#d93813277b)"><path stroke-linecap="butt" transform="matrix(0.633111, 0, 0, 0.633111, 6.689663, 25.248882)" fill="none" stroke-linejoin="miter" d="M 47.085473 42.734686 C 45.351723 39.045069 40.983414 36.737516 35.973433 36.854745 C 32.141908 36.934954 27.810618 37.385359 24.787354 40.044598 C 21.622181 42.821065 20.301816 47.411492 19.222079 51.101109 C 18.975281 51.989578 18.722314 52.834858 18.469347 53.599929 C 14.82292 64.545382 11.953903 75.688271 9.856128 87.028599 C 9.67103 87.750481 9.70188 88.460022 9.942507 89.157224 C 10.189304 89.860596 10.602689 90.434399 11.188832 90.890974 C 12.009433 91.470947 12.922582 91.730084 13.92828 91.668385 C 14.637822 91.637535 15.316514 91.477117 15.964357 91.18713 C 16.791127 90.810765 17.488329 90.273981 18.055962 89.564439 C 18.611256 88.873407 18.975281 88.089827 19.1357 87.213697 C 20.369685 80.624214 21.881318 74.1026 23.627407 67.803104 C 30.21072 65.298113 40.045585 60.516419 45.487462 52.933577 C 47.973943 49.459908 48.553916 45.83816 47.085473 42.734686 Z M 29.630747 49.126732 C 30.605596 47.201714 31.12387 46.788329 32.438064 46.381114 C 32.943998 46.251545 33.462272 46.183676 33.980546 46.183676 C 34.375422 46.165166 34.764127 46.165166 35.109643 46.165166 L 35.263891 46.158996 C 37.818241 46.146656 38.243966 46.68344 38.262476 46.70195 C 38.749901 47.355962 37.95398 48.485059 35.504518 50.601344 L 35.276231 50.798782 C 32.647842 53.050806 29.797335 54.988163 26.737051 56.598514 C 27.495952 54.031824 28.464631 51.539173 29.630747 49.126732 Z M 29.630747 49.126732 " stroke="#231f20" stroke-width="4" stroke-opacity="1" stroke-miterlimit="10"/></g><path fill="#231f20" d="M 53.101562 75.785156 C 50.441406 73.167969 47.59375 70.773438 44.554688 68.605469 C 47.453125 66.328125 49.882812 63.5625 50.941406 59.820312 C 52.246094 55.1875 50.894531 49.558594 45.816406 48.25 C 45.042969 48.003906 44.253906 47.933594 43.445312 48.039062 C 42.640625 48.144531 41.894531 48.414062 41.210938 48.847656 C 38.832031 50.429688 38.234375 53.636719 37.703125 56.46875 C 37.578125 57.164062 37.449219 57.820312 37.316406 58.382812 L 32.371094 78.53125 C 32.21875 79.050781 32.214844 79.570312 32.367188 80.089844 C 32.519531 80.609375 32.800781 81.046875 33.207031 81.402344 C 33.660156 81.765625 34.175781 81.988281 34.746094 82.074219 C 35.320312 82.15625 35.878906 82.089844 36.417969 81.871094 C 36.9375 81.667969 37.382812 81.351562 37.75 80.929688 C 38.117188 80.503906 38.363281 80.019531 38.492188 79.472656 L 39.976562 73.4375 C 43.023438 75.585938 45.871094 77.964844 48.519531 80.582031 C 48.8125 80.875 49.152344 81.089844 49.539062 81.222656 C 49.929688 81.359375 50.328125 81.402344 50.738281 81.355469 C 50.949219 81.335938 51.15625 81.292969 51.355469 81.230469 C 51.933594 81.035156 52.4375 80.71875 52.863281 80.285156 C 53.292969 79.847656 53.601562 79.339844 53.785156 78.761719 C 53.964844 78.238281 53.992188 77.710938 53.867188 77.175781 C 53.746094 76.640625 53.488281 76.175781 53.101562 75.785156 Z M 44.046875 56.839844 C 44.136719 56.480469 44.351562 55.621094 44.585938 54.984375 C 44.617188 55.03125 44.652344 55.082031 44.6875 55.136719 C 45.40625 56.199219 45.128906 58.007812 44.628906 59.34375 C 44.1875 60.472656 43.546875 61.476562 42.699219 62.347656 Z M 44.046875 56.839844 " fill-opacity="1" fill-rule="nonzero"/><g clip-path="url(#51e3d9a6a9)"><path stroke-linecap="butt" transform="matrix(0.633111, 0, 0, 0.633111, 6.689663, 25.248882)" fill="none" stroke-linejoin="miter" d="M 73.307667 79.822123 C 69.105946 75.688271 64.608069 71.906106 59.807865 68.481796 C 64.385951 64.884728 68.223646 60.516419 69.895697 54.605628 C 71.956453 47.288093 69.821658 38.397227 61.800751 36.330301 C 60.579106 35.941596 59.33278 35.830537 58.055605 35.997125 C 56.7846 36.163713 55.606144 36.589438 54.526406 37.2743 C 50.76892 39.773121 49.824921 44.838632 48.985811 49.311829 C 48.788373 50.410077 48.584766 51.446625 48.374988 52.335094 L 40.563859 84.159583 C 40.323232 84.980183 40.317062 85.800783 40.557689 86.621384 C 40.798317 87.441984 41.242551 88.133016 41.884224 88.69448 C 42.599936 89.268283 43.414366 89.619969 44.315176 89.755707 C 45.222155 89.885276 46.104455 89.780387 46.955905 89.434871 C 47.776505 89.114035 48.479877 88.61427 49.05985 87.947918 C 49.639823 87.275396 50.028529 86.510325 50.232136 85.646535 L 52.576709 76.113996 C 57.389253 79.507457 61.88713 83.264943 66.070341 87.398795 C 66.533086 87.861539 67.06987 88.200885 67.680693 88.410663 C 68.297685 88.62661 68.927018 88.69448 69.574861 88.62044 C 69.908037 88.589591 70.235043 88.521722 70.549709 88.423003 C 71.462858 88.114506 72.258779 87.614742 72.931301 86.92988 C 73.609993 86.238848 74.097418 85.436758 74.387404 84.523608 C 74.671221 83.696838 74.714411 82.863898 74.516973 82.018618 C 74.325705 81.173337 73.91849 80.439116 73.307667 79.822123 Z M 59.005774 49.897973 C 59.147682 49.330339 59.487028 47.972955 59.857224 46.967257 C 59.906583 47.041296 59.962113 47.121505 60.017642 47.207884 C 61.152909 48.886104 60.714844 51.742781 59.925093 53.852896 C 59.227891 55.636006 58.216023 57.221677 56.877149 58.597571 Z M 59.005774 49.897973 " stroke="#231f20" stroke-width="4" stroke-opacity="1" stroke-miterlimit="10"/></g><path fill="#231f20" d="M 117.8125 42.578125 C 117.214844 41.824219 116.480469 41.25 115.605469 40.847656 C 114.734375 40.445312 113.816406 40.265625 112.855469 40.304688 C 104.578125 40.289062 99.28125 51.441406 97.464844 57.804688 C 97.390625 58.011719 97.332031 58.226562 97.292969 58.441406 C 97.246094 58.640625 97.214844 58.84375 97.207031 59.046875 C 96.515625 63.605469 95.222656 74.050781 103.199219 75.195312 C 104.027344 75.320312 104.859375 75.339844 105.695312 75.25 C 107.382812 75.066406 108.914062 74.476562 110.292969 73.484375 C 114.707031 70.394531 116.976562 64.152344 118.097656 59.464844 C 119.394531 54.066406 120.777344 46.449219 117.8125 42.578125 Z M 111.480469 58.464844 C 109.90625 65.097656 107.890625 68.46875 105.480469 68.496094 C 105.027344 68.53125 104.65625 68.375 104.363281 68.03125 C 103.382812 66.886719 103.238281 63.964844 103.933594 59.339844 C 105.253906 54.417969 107.589844 50.316406 110.359375 48.082031 C 110.726562 47.71875 111.160156 47.46875 111.660156 47.339844 L 111.6875 47.339844 C 111.980469 47.449219 112.519531 48.6875 112.460938 51.039062 C 112.394531 53.546875 112.066406 56.023438 111.480469 58.464844 Z M 111.480469 58.464844 " fill-opacity="1" fill-rule="nonzero"/><g clip-path="url(#72095395e7)"><path stroke-linecap="butt" transform="matrix(0.633111, 0, 0, 0.633111, 6.689663, 25.248882)" fill="none" stroke-linejoin="miter" d="M 175.518693 27.371566 C 174.574694 26.18077 173.414748 25.27379 172.032684 24.638288 C 170.65679 24.002785 169.206857 23.718968 167.689055 23.780668 C 154.614977 23.755988 146.248555 41.371132 143.379539 51.421945 C 143.26231 51.748951 143.169761 52.088297 143.108062 52.427643 C 143.034023 52.742309 142.984663 53.063146 142.972323 53.383982 C 141.880246 60.584288 139.838 77.082675 152.436993 78.890464 C 153.745018 79.087902 155.059212 79.118751 156.379577 78.976843 C 159.044986 78.686856 161.463597 77.755197 163.641582 76.188036 C 170.613601 71.307623 174.198329 61.448078 175.969098 54.044164 C 178.017514 45.517324 180.201669 33.485964 175.518693 27.371566 Z M 165.51724 52.464663 C 163.030759 62.9412 159.847076 68.265848 156.040231 68.309038 C 155.324519 68.364567 154.738376 68.11777 154.275631 67.574816 C 152.726979 65.767027 152.498692 61.151921 153.596939 53.846727 C 155.682375 46.072617 159.371992 39.594193 163.746471 36.064994 C 164.326444 35.491191 165.011306 35.096316 165.801057 34.892708 L 165.844246 34.892708 C 166.306991 35.065466 167.158441 37.021333 167.065892 40.73563 C 166.961003 44.696723 166.442729 48.608458 165.51724 52.464663 Z M 165.51724 52.464663 " stroke="#231f20" stroke-width="4" stroke-opacity="1" stroke-miterlimit="10"/></g><path fill="#231f20" d="M 71.828125 44.085938 C 71.25 43.351562 70.53125 42.785156 69.679688 42.394531 C 68.828125 42.003906 67.933594 41.828125 66.996094 41.871094 C 59.097656 41.867188 54.109375 52.148438 52.269531 58.628906 C 52.191406 58.839844 52.136719 59.054688 52.097656 59.273438 C 52.050781 59.480469 52.015625 59.6875 52.003906 59.898438 C 51.375 64.128906 50.121094 74.726562 58.28125 75.464844 C 58.933594 75.523438 59.585938 75.519531 60.238281 75.453125 C 65.671875 74.886719 69.832031 69.6875 72.0625 60.558594 C 74.078125 52.3125 73.996094 46.925781 71.828125 44.085938 Z M 65.453125 59.546875 C 64.851562 62.003906 63.269531 68.539062 59.964844 68.703125 C 59.644531 68.742188 59.378906 68.640625 59.171875 68.394531 C 58.742188 67.914062 57.84375 66.15625 58.742188 60.167969 C 59.289062 58.121094 61.269531 51.761719 65.179688 49.140625 C 65.382812 49 65.601562 48.886719 65.835938 48.800781 C 66.730469 49.726562 66.382812 55.734375 65.453125 59.546875 Z M 65.453125 59.546875 " fill-opacity="1" fill-rule="nonzero"/><g clip-path="url(#7c589a92db)"><path stroke-linecap="butt" transform="matrix(0.633111, 0, 0, 0.633111, 6.689663, 25.248882)" fill="none" stroke-linejoin="miter" d="M 102.886302 29.753158 C 101.973152 28.593211 100.837885 27.698572 99.492841 27.081579 C 98.147797 26.464586 96.734883 26.18694 95.254101 26.254809 C 82.778506 26.248639 74.899508 42.487889 71.993472 52.7238 C 71.870074 53.056976 71.783695 53.396322 71.721995 53.741838 C 71.647956 54.068844 71.592427 54.39585 71.573917 54.729026 C 70.580559 61.411058 68.600012 78.150073 81.488991 79.316189 C 82.519369 79.408738 83.549747 79.402568 84.580125 79.297679 C 93.162495 78.40304 99.733468 70.190866 103.256497 55.771744 C 106.44018 42.747026 106.310612 34.238696 102.886302 29.753158 Z M 92.816979 54.173733 C 91.86681 58.054617 89.367989 68.376907 84.14823 68.636044 C 83.642296 68.697743 83.222741 68.537325 82.895735 68.148619 C 82.217043 67.389718 80.797959 64.613251 82.217043 55.154751 C 83.080833 51.921709 86.208986 41.877066 92.385084 37.737045 C 92.70592 37.514927 93.051436 37.335999 93.421632 37.200261 C 94.834546 38.662534 94.285422 48.151883 92.816979 54.173733 Z M 92.816979 54.173733 " stroke="#231f20" stroke-width="4" stroke-opacity="1" stroke-miterlimit="10"/></g><path fill="#231f20" d="M 98.394531 48.007812 L 92.730469 74.976562 C 92.644531 75.386719 92.488281 75.769531 92.265625 76.125 C 92.039062 76.476562 91.757812 76.777344 91.417969 77.027344 C 91.082031 77.277344 90.710938 77.457031 90.304688 77.566406 C 89.902344 77.679688 89.488281 77.714844 89.070312 77.671875 C 88.863281 77.660156 88.660156 77.625 88.460938 77.566406 C 88.261719 77.507812 88.070312 77.429688 87.886719 77.328125 C 87.703125 77.226562 87.535156 77.109375 87.378906 76.96875 C 87.222656 76.832031 87.082031 76.679688 86.957031 76.511719 C 86.835938 76.34375 86.730469 76.164062 86.648438 75.972656 C 86.566406 75.78125 86.503906 75.585938 86.460938 75.378906 C 86.421875 75.175781 86.40625 74.96875 86.410156 74.761719 C 86.414062 74.550781 86.441406 74.347656 86.492188 74.144531 L 89.265625 60.957031 C 87.6875 63.390625 86.179688 65.875 84.769531 68.398438 C 84.425781 68.992188 83.953125 69.453125 83.355469 69.78125 C 82.753906 70.113281 82.113281 70.261719 81.425781 70.234375 C 81.128906 70.234375 80.839844 70.179688 80.558594 70.082031 C 80.28125 69.980469 80.023438 69.835938 79.792969 69.648438 C 79.5625 69.460938 79.367188 69.242188 79.210938 68.988281 C 79.054688 68.734375 78.945312 68.460938 78.878906 68.171875 C 78.625 67.03125 78.410156 65.886719 78.210938 64.742188 C 76.921875 69.203125 75.699219 73.671875 74.550781 78.125 C 74.367188 78.839844 74 79.4375 73.441406 79.917969 C 72.898438 80.390625 72.269531 80.664062 71.554688 80.738281 C 71.261719 80.769531 70.972656 80.761719 70.679688 80.71875 C 70.476562 80.695312 70.28125 80.652344 70.085938 80.585938 C 69.894531 80.519531 69.710938 80.433594 69.535156 80.328125 C 69.363281 80.21875 69.203125 80.09375 69.054688 79.953125 C 68.910156 79.808594 68.78125 79.652344 68.667969 79.480469 C 68.558594 79.3125 68.46875 79.128906 68.394531 78.9375 C 68.324219 78.746094 68.273438 78.550781 68.246094 78.347656 C 68.21875 78.144531 68.214844 77.941406 68.234375 77.738281 C 68.25 77.535156 68.289062 77.335938 68.351562 77.144531 C 70.839844 67.519531 73.65625 57.824219 76.738281 48.316406 C 76.851562 47.949219 77.023438 47.609375 77.246094 47.296875 C 77.46875 46.984375 77.734375 46.714844 78.046875 46.488281 C 78.355469 46.257812 78.691406 46.085938 79.058594 45.964844 C 79.421875 45.84375 79.796875 45.78125 80.183594 45.78125 C 80.546875 45.777344 80.898438 45.84375 81.238281 45.976562 C 81.578125 46.109375 81.878906 46.300781 82.140625 46.554688 C 82.40625 46.804688 82.613281 47.09375 82.765625 47.425781 C 82.914062 47.757812 82.996094 48.105469 83.011719 48.472656 C 83.234375 51.863281 83.472656 55.070312 83.835938 58.179688 C 86.644531 53.851562 89.679688 49.683594 92.9375 45.683594 C 93.140625 45.410156 93.382812 45.175781 93.664062 44.980469 C 93.941406 44.78125 94.246094 44.636719 94.574219 44.539062 C 94.898438 44.4375 95.234375 44.394531 95.574219 44.402344 C 95.917969 44.410156 96.246094 44.472656 96.570312 44.589844 C 96.898438 44.71875 97.199219 44.898438 97.464844 45.136719 C 97.730469 45.371094 97.945312 45.644531 98.113281 45.960938 C 98.28125 46.273438 98.386719 46.605469 98.4375 46.957031 C 98.484375 47.308594 98.46875 47.660156 98.394531 48.007812 Z M 98.394531 48.007812 " fill-opacity="1" fill-rule="nonzero"/><g clip-path="url(#726db6ebed)"><path stroke-linecap="butt" transform="matrix(0.633111, 0, 0, 0.633111, 6.689663, 25.248882)" fill="none" stroke-linejoin="miter" d="M 144.847981 35.947766 L 135.901586 78.544948 C 135.765848 79.192791 135.51905 79.797443 135.167365 80.358907 C 134.809509 80.9142 134.365274 81.389285 133.82849 81.78416 C 133.297876 82.179036 132.711733 82.462852 132.070061 82.63561 C 131.434558 82.814538 130.780546 82.870068 130.120363 82.802198 C 129.793357 82.783689 129.472521 82.728159 129.157855 82.63561 C 128.843188 82.543061 128.540862 82.419663 128.250875 82.259245 C 127.960889 82.098827 127.695582 81.913729 127.448785 81.691611 C 127.201988 81.475664 126.97987 81.235037 126.782432 80.96973 C 126.591165 80.704423 126.424577 80.420606 126.295008 80.11828 C 126.16544 79.815953 126.066721 79.507457 125.998852 79.180451 C 125.937152 78.859614 125.912473 78.532608 125.918643 78.205602 C 125.924812 77.872426 125.968002 77.55159 126.048211 77.230753 L 130.42886 56.401077 C 127.936209 60.244942 125.554617 64.169016 123.327273 68.154789 C 122.784319 69.092618 122.037758 69.82067 121.093759 70.338944 C 120.14359 70.863388 119.131722 71.097845 118.045814 71.054656 C 117.5769 71.054656 117.120325 70.968277 116.67609 70.814028 C 116.238026 70.65361 115.83081 70.425323 115.466785 70.129166 C 115.102759 69.83301 114.794262 69.487494 114.547465 69.086449 C 114.300668 68.685403 114.12791 68.253508 114.023021 67.796934 C 113.621976 65.995315 113.28263 64.187526 112.967964 62.379737 C 110.931888 69.425795 109.0007 76.484192 107.186741 83.51791 C 106.896755 84.647007 106.316781 85.591006 105.434482 86.349907 C 104.576862 87.096468 103.583503 87.528363 102.454407 87.645592 C 101.991662 87.694951 101.535087 87.682611 101.072343 87.614742 C 100.751506 87.577723 100.44301 87.509853 100.134514 87.404965 C 99.832187 87.300076 99.542201 87.164337 99.264554 86.997749 C 98.993077 86.824991 98.74011 86.627554 98.505653 86.405436 C 98.277365 86.177149 98.073758 85.930352 97.89483 85.658875 C 97.722072 85.393568 97.580163 85.103581 97.462935 84.801255 C 97.351876 84.498929 97.271667 84.190432 97.228478 83.869596 C 97.185288 83.54876 97.179118 83.227923 97.209968 82.907087 C 97.234648 82.586251 97.296347 82.271585 97.395066 81.969258 C 101.32531 66.766556 105.773828 51.452794 110.641901 36.43519 C 110.820829 35.855217 111.092306 35.318433 111.443992 34.824839 C 111.795677 34.331244 112.215233 33.905519 112.708827 33.547664 C 113.196251 33.183638 113.726865 32.912161 114.306838 32.720893 C 114.880641 32.529625 115.472955 32.430907 116.083777 32.430907 C 116.657581 32.424737 117.212874 32.529625 117.749658 32.739403 C 118.286442 32.949181 118.761526 33.251507 119.174911 33.652552 C 119.594466 34.047428 119.921473 34.504002 120.1621 35.028446 C 120.396557 35.55289 120.526125 36.102014 120.550805 36.681987 C 120.902491 42.037484 121.278857 47.102995 121.85266 52.014258 C 126.288838 45.177978 131.082872 38.594665 136.228592 32.276658 C 136.549428 31.844763 136.931964 31.474568 137.376199 31.166071 C 137.814264 30.851405 138.295518 30.623118 138.813792 30.46887 C 139.325896 30.308451 139.85651 30.240582 140.393293 30.252922 C 140.936247 30.265262 141.454521 30.363981 141.966625 30.549079 C 142.484899 30.752686 142.959983 31.036503 143.379539 31.412869 C 143.799094 31.783064 144.13844 32.214959 144.403747 32.714723 C 144.669054 33.208318 144.835642 33.732761 144.915851 34.288055 C 144.98989 34.843348 144.96521 35.398642 144.847981 35.947766 Z M 144.847981 35.947766 " stroke="#231f20" stroke-width="4" stroke-opacity="1" stroke-miterlimit="10"/></g><path fill="#231f20" d="M 129.519531 38.625 L 129.15625 39.945312 C 127.339844 46.617188 125.460938 53.519531 124.542969 60.320312 C 124.261719 62.402344 122.832031 63.566406 121.515625 63.707031 C 121.40625 63.71875 121.292969 63.722656 121.179688 63.714844 C 119.855469 63.675781 118.660156 62.546875 118.941406 60.457031 L 119.269531 57.984375 C 120.191406 50.996094 121.058594 44.386719 122.929688 37.519531 C 123.085938 36.925781 123.367188 36.398438 123.78125 35.945312 C 124.195312 35.488281 124.695312 35.160156 125.273438 34.949219 C 125.855469 34.726562 126.457031 34.664062 127.074219 34.769531 C 127.691406 34.871094 128.238281 35.125 128.71875 35.527344 C 129.140625 35.921875 129.425781 36.398438 129.570312 36.957031 C 129.714844 37.519531 129.699219 38.074219 129.519531 38.625 Z M 129.519531 38.625 " fill-opacity="1" fill-rule="nonzero"/><g clip-path="url(#4d2728cb92)"><path stroke-linecap="butt" transform="matrix(0.633111, 0, 0, 0.633111, 6.689663, 25.248882)" fill="none" stroke-linejoin="miter" d="M 194.009967 21.127599 L 193.436164 23.213034 C 190.567148 33.751271 187.599412 44.653534 186.149479 55.395378 C 185.705244 58.68395 183.447051 60.522589 181.367785 60.744706 C 181.195027 60.763216 181.016099 60.769386 180.837171 60.757046 C 178.745566 60.695347 176.857568 58.912237 177.301802 55.611326 L 177.820076 51.705762 C 179.276179 40.66776 180.645903 30.228242 183.601299 19.381509 C 183.848096 18.44368 184.292331 17.61074 184.946343 16.895028 C 185.600356 16.173147 186.390106 15.654873 187.303256 15.321696 C 188.222575 14.970011 189.172744 14.871292 190.147592 15.03788 C 191.122441 15.198298 191.986231 15.599343 192.745132 16.234846 C 193.411484 16.858009 193.861889 17.61074 194.090176 18.493039 C 194.318464 19.381509 194.293784 20.257639 194.009967 21.127599 Z M 194.009967 21.127599 " stroke="#231f20" stroke-width="4" stroke-opacity="1" stroke-miterlimit="10"/></g><path fill="#231f20" d="M 123.457031 69.289062 L 123.101562 71.011719 C 122.90625 71.914062 122.433594 72.628906 121.6875 73.164062 C 121.109375 73.601562 120.457031 73.855469 119.738281 73.9375 C 119.476562 73.964844 119.210938 73.960938 118.945312 73.933594 C 118.734375 73.902344 118.527344 73.847656 118.328125 73.773438 C 118.125 73.695312 117.9375 73.601562 117.757812 73.484375 C 117.574219 73.367188 117.410156 73.234375 117.257812 73.082031 C 117.105469 72.933594 116.972656 72.765625 116.855469 72.585938 C 116.738281 72.40625 116.640625 72.21875 116.5625 72.019531 C 116.484375 71.816406 116.429688 71.613281 116.398438 71.398438 C 116.363281 71.1875 116.351562 70.976562 116.363281 70.761719 C 116.375 70.546875 116.410156 70.335938 116.464844 70.128906 L 116.8125 68.40625 C 117.011719 67.507812 117.484375 66.789062 118.230469 66.253906 C 119.042969 65.640625 119.957031 65.382812 120.96875 65.484375 C 121.179688 65.515625 121.386719 65.570312 121.589844 65.644531 C 121.789062 65.722656 121.980469 65.816406 122.160156 65.933594 C 122.339844 66.050781 122.507812 66.183594 122.660156 66.332031 C 122.8125 66.484375 122.945312 66.648438 123.0625 66.828125 C 123.183594 67.007812 123.277344 67.199219 123.355469 67.398438 C 123.433594 67.597656 123.488281 67.804688 123.523438 68.015625 C 123.558594 68.230469 123.566406 68.441406 123.558594 68.65625 C 123.546875 68.871094 123.511719 69.082031 123.457031 69.289062 Z M 123.457031 69.289062 " fill-opacity="1" fill-rule="nonzero"/><g clip-path="url(#2f71b23a53)"><path stroke-linecap="butt" transform="matrix(0.633111, 0, 0, 0.633111, 6.689663, 25.248882)" fill="none" stroke-linejoin="miter" d="M 184.434239 69.561533 L 183.872776 72.282471 C 183.564279 73.707725 182.817718 74.836821 181.639262 75.682102 C 180.726112 76.373133 179.695734 76.774179 178.560468 76.903747 C 178.147083 76.946937 177.727527 76.940767 177.307972 76.897577 C 176.974796 76.848218 176.64779 76.761839 176.333124 76.64461 C 176.012287 76.521212 175.716131 76.373133 175.432314 76.188036 C 175.142328 76.002938 174.883191 75.79316 174.642563 75.552533 C 174.401936 75.318076 174.192159 75.052769 174.007061 74.768952 C 173.821963 74.485135 173.667715 74.188979 173.544316 73.874313 C 173.420918 73.553476 173.334539 73.23264 173.285179 72.893294 C 173.22965 72.560118 173.21114 72.226942 173.22965 71.887596 C 173.24816 71.54825 173.303689 71.215074 173.390068 70.888067 L 173.939192 68.167129 C 174.253858 66.748046 175.000419 65.612779 176.178876 64.767499 C 177.462221 63.79882 178.905984 63.391605 180.503995 63.552023 C 180.837171 63.601383 181.164177 63.687762 181.485014 63.80499 C 181.79968 63.928389 182.102006 64.076467 182.385823 64.261565 C 182.66964 64.446663 182.934947 64.65644 183.175574 64.890898 C 183.416201 65.131525 183.625979 65.390662 183.811076 65.674478 C 184.002344 65.958295 184.150422 66.260622 184.273821 66.575288 C 184.39722 66.889954 184.483599 67.21696 184.539128 67.550136 C 184.594657 67.889483 184.606997 68.222659 184.594657 68.562005 C 184.576147 68.901351 184.520618 69.234527 184.434239 69.561533 Z M 184.434239 69.561533 " stroke="#231f20" stroke-width="4" stroke-opacity="1" stroke-miterlimit="10"/></g><path fill="#ffde17" d="M 34.339844 50.546875 C 33.253906 48.210938 30.523438 46.75 27.390625 46.820312 C 24.992188 46.875 22.285156 47.15625 20.390625 48.839844 C 18.414062 50.59375 17.578125 53.503906 16.910156 55.832031 C 16.75 56.398438 16.59375 56.933594 16.4375 57.414062 C 14.148438 64.347656 12.347656 71.402344 11.03125 78.582031 C 10.917969 79.035156 10.933594 79.484375 11.085938 79.925781 C 11.234375 80.367188 11.492188 80.734375 11.859375 81.027344 C 12.371094 81.394531 12.945312 81.558594 13.574219 81.519531 C 14.019531 81.5 14.441406 81.398438 14.847656 81.214844 C 15.367188 80.976562 15.804688 80.636719 16.15625 80.191406 C 16.503906 79.75 16.730469 79.253906 16.835938 78.699219 C 17.605469 74.53125 18.558594 70.402344 19.652344 66.417969 C 23.773438 64.828125 29.925781 61.804688 33.332031 57.003906 C 34.890625 54.808594 35.253906 52.515625 34.339844 50.546875 Z M 23.417969 54.589844 C 24.027344 53.371094 24.351562 53.109375 25.175781 52.851562 C 25.492188 52.773438 25.8125 52.730469 26.140625 52.726562 C 26.386719 52.714844 26.628906 52.71875 26.847656 52.714844 L 26.941406 52.710938 C 28.539062 52.703125 28.804688 53.046875 28.816406 53.058594 C 29.121094 53.472656 28.621094 54.1875 27.089844 55.527344 L 26.945312 55.652344 C 25.300781 57.078125 23.519531 58.300781 21.601562 59.324219 C 22.078125 57.695312 22.683594 56.117188 23.417969 54.589844 Z M 23.417969 54.589844 " fill-opacity="1" fill-rule="nonzero"/><g clip-path="url(#a9f4caf404)"><path stroke-linecap="butt" transform="matrix(0.633111, 0, 0, 0.633111, 6.689663, 25.248882)" fill="none" stroke-linejoin="miter" d="M 43.673503 39.958219 C 41.958263 36.268602 37.645483 33.961049 32.697201 34.072107 C 28.908865 34.158486 24.633105 34.602721 21.64069 37.26196 C 18.518707 40.032258 17.198342 44.628854 16.143285 48.306131 C 15.890318 49.200771 15.64352 50.046051 15.396723 50.804952 C 11.781146 61.756574 8.936809 72.899464 6.857543 84.239792 C 6.678615 84.955503 6.703295 85.665045 6.943922 86.362247 C 7.178379 87.059449 7.585595 87.639422 8.165568 88.102166 C 8.973828 88.68214 9.880808 88.941277 10.874166 88.879577 C 11.577538 88.848728 12.24389 88.68831 12.885563 88.398323 C 13.706163 88.021957 14.397195 87.485174 14.952488 86.781802 C 15.501612 86.0846 15.859468 85.301019 16.026056 84.424889 C 17.241532 77.841576 18.746994 71.319962 20.474574 65.026636 C 26.983848 62.515475 36.701484 57.739951 42.081662 50.15711 C 44.543463 46.68961 45.117266 43.067862 43.673503 39.958219 Z M 26.422385 46.344094 C 27.384893 44.419077 27.896997 44.005691 29.198852 43.598476 C 29.698616 43.475078 30.20455 43.407208 30.722824 43.401039 C 31.11153 43.382529 31.494065 43.388699 31.839581 43.382529 L 31.98766 43.376359 C 34.51116 43.364019 34.930715 43.906973 34.949225 43.925482 C 35.430479 44.579495 34.640729 45.708592 32.222117 47.824877 L 31.993829 48.022315 C 29.39629 50.274338 26.582803 52.205526 23.553368 53.822047 C 24.306099 51.249187 25.262438 48.756536 26.422385 46.344094 Z M 26.422385 46.344094 " stroke="#231f20" stroke-width="1" stroke-opacity="1" stroke-miterlimit="10"/></g><path stroke-linecap="butt" transform="matrix(0.633111, 0, 0, 0.633111, 6.689663, 25.248882)" fill-opacity="1" fill="#ffde17" fill-rule="nonzero" stroke-linejoin="miter" d="M 69.365083 77.125865 C 65.218891 72.985843 60.770373 69.203677 56.025699 65.767027 C 60.548256 62.169959 64.336592 57.81399 65.983962 51.903199 C 68.032379 44.591835 65.916093 35.700968 58.000076 33.615533 C 56.79077 33.232997 55.556784 33.115769 54.304289 33.282357 C 53.045624 33.442775 51.879507 33.8685 50.81211 34.553362 C 47.097813 37.046013 46.172324 42.111524 45.339384 46.578551 C 45.141946 47.682969 44.944508 48.713346 44.740901 49.607986 L 37.016151 81.426304 C 36.775524 82.240735 36.769354 83.061335 37.003811 83.881936 C 37.244438 84.696366 37.676333 85.393568 38.318006 85.955032 C 39.015207 86.528835 39.817298 86.886691 40.718108 87.016259 C 41.612747 87.151998 42.482707 87.047109 43.321817 86.707763 C 44.142418 86.380757 44.839619 85.880992 45.407253 85.21464 C 45.981056 84.542118 46.363592 83.777047 46.561029 82.919427 L 48.880922 73.393058 C 53.637937 76.792689 58.080285 80.556345 62.214137 84.690196 C 62.664541 85.152941 63.188985 85.492287 63.799808 85.702064 C 64.404461 85.918012 65.027624 85.992051 65.669296 85.918012 C 65.996302 85.880992 66.317139 85.819293 66.637975 85.720574 C 67.538784 85.405908 68.328535 84.906144 68.994887 84.221282 C 69.66124 83.53642 70.142494 82.734329 70.426311 81.82118 C 70.710127 81.000579 70.753317 80.167639 70.562049 79.322359 C 70.370781 78.477079 69.969736 77.742857 69.365083 77.125865 Z M 55.235948 47.177034 C 55.371686 46.609401 55.711032 45.252017 56.075058 44.246319 C 56.124418 44.320358 56.179947 44.406737 56.229306 44.486946 C 57.358403 46.165166 56.920338 49.028013 56.142927 51.131958 C 55.458065 52.915067 54.452367 54.494569 53.132003 55.870463 Z M 55.235948 47.177034 " stroke="#231f20" stroke-width="1" stroke-opacity="1" stroke-miterlimit="10"/><path stroke-linecap="butt" transform="matrix(0.633111, 0, 0, 0.633111, 6.689663, 25.248882)" fill-opacity="1" fill="#ffde17" fill-rule="nonzero" stroke-linejoin="miter" d="M 170.218725 24.817216 C 169.299406 23.632589 168.151799 22.71944 166.788245 22.083937 C 165.424691 21.448435 163.993268 21.158448 162.487805 21.220148 C 149.574146 21.176958 141.306443 38.779762 138.468276 48.824405 C 138.351047 49.157581 138.264668 49.490757 138.202969 49.836273 C 138.12893 50.15094 138.07957 50.465606 138.067231 50.786442 C 136.987493 57.986748 134.969927 74.478966 147.420841 76.311434 C 148.710356 76.508872 150.012211 76.539721 151.314066 76.403983 C 153.948625 76.107827 156.342557 75.182337 158.489692 73.621346 C 165.381502 68.747102 168.92304 58.893728 170.66913 51.489814 C 172.699036 42.962974 174.852341 30.931614 170.218725 24.817216 Z M 160.34684 49.897973 C 157.891209 60.37451 154.744546 65.699158 150.98089 65.730008 C 150.271348 65.785537 149.697545 65.53874 149.24097 64.995786 C 147.704658 63.181827 147.482541 58.566721 148.568448 51.267697 C 150.629204 43.499757 154.275631 37.027503 158.594581 33.498304 C 159.162214 32.924501 159.840906 32.535795 160.624487 32.326018 L 160.667677 32.326018 C 161.124251 32.504946 161.963362 34.460813 161.870813 38.16894 C 161.765924 42.136203 161.25999 46.041768 160.34684 49.897973 Z M 160.34684 49.897973 " stroke="#231f20" stroke-width="1" stroke-opacity="1" stroke-miterlimit="10"/><path stroke-linecap="butt" transform="matrix(0.633111, 0, 0, 0.633111, 6.689663, 25.248882)" fill-opacity="1" fill="#ffde17" fill-rule="nonzero" stroke-linejoin="miter" d="M 98.530332 27.100089 C 97.629523 25.940142 96.518936 25.051673 95.186231 24.42851 C 93.853527 23.811517 92.452953 23.533871 90.99068 23.60174 C 78.656994 23.57089 70.876715 39.797801 68.007699 50.027541 C 67.8843 50.360717 67.797921 50.700063 67.736222 51.051749 C 67.662183 51.372585 67.612823 51.705762 67.588144 52.038938 C 66.607125 58.72097 64.657428 75.453814 77.385989 76.63844 C 78.404027 76.730989 79.422066 76.724819 80.440104 76.6261 C 88.917585 75.731461 95.414519 67.531627 98.888188 53.118675 C 102.041021 40.100127 101.911453 31.585627 98.530332 27.100089 Z M 88.578239 51.502154 C 87.64041 55.383039 85.178608 65.699158 80.014379 65.958295 C 79.514614 66.019994 79.101229 65.853406 78.774223 65.464701 C 78.107871 64.7058 76.707297 61.929332 78.107871 52.470833 C 78.959321 49.23779 82.050455 39.193148 88.152514 35.065466 C 88.46718 34.843348 88.812696 34.664421 89.176722 34.534852 C 90.571125 35.997125 90.028172 45.486474 88.578239 51.502154 Z M 88.578239 51.502154 " stroke="#231f20" stroke-width="1" stroke-opacity="1" stroke-miterlimit="10"/><path stroke-linecap="butt" transform="matrix(0.633111, 0, 0, 0.633111, 6.689663, 25.248882)" fill-opacity="1" fill="#ffde17" fill-rule="nonzero" stroke-linejoin="miter" d="M 140.010758 33.547664 L 131.169251 76.138676 C 131.045853 76.780349 130.805225 77.385002 130.45354 77.940295 C 130.101854 78.495589 129.663789 78.970673 129.139345 79.365548 C 128.608731 79.754254 128.028758 80.044241 127.399425 80.216999 C 126.763923 80.395926 126.12225 80.451456 125.462068 80.389757 C 125.141232 80.365077 124.820395 80.303378 124.505729 80.210829 C 124.191063 80.11828 123.888736 79.988711 123.60492 79.828293 C 123.321103 79.667875 123.055796 79.476607 122.808999 79.26066 C 122.568372 79.044712 122.346254 78.804085 122.154986 78.532608 C 121.963719 78.267301 121.803301 77.983485 121.673732 77.687328 C 121.544164 77.385002 121.445445 77.076505 121.383745 76.749499 C 121.322046 76.428663 121.297366 76.107827 121.309706 75.78082 C 121.315876 75.447644 121.359066 75.126808 121.439275 74.812142 L 125.764394 53.988635 C 123.302593 57.8325 120.951851 61.750404 118.749186 65.736178 C 118.218572 66.667837 117.484351 67.395888 116.546522 67.920332 C 115.608693 68.438606 114.602995 68.679233 113.529427 68.636044 C 113.066683 68.629874 112.610108 68.543495 112.172043 68.383077 C 111.733978 68.222659 111.332933 67.994371 110.975077 67.698215 C 110.611051 67.402058 110.308725 67.056542 110.068098 66.655497 C 109.821301 66.254452 109.654712 65.828727 109.555994 65.372152 C 109.167288 63.570533 108.827942 61.762744 108.513276 59.954955 C 106.501879 66.994843 104.589202 74.053241 102.799923 81.080788 C 102.516106 82.203715 101.942303 83.147714 101.066173 83.912785 C 100.227063 84.659347 99.246044 85.091242 98.123117 85.21464 C 97.666542 85.25783 97.216138 85.24549 96.759563 85.177621 C 96.444897 85.140601 96.13023 85.066562 95.827904 84.961673 C 95.525577 84.850614 95.241761 84.714876 94.970284 84.542118 C 94.692637 84.37553 94.44584 84.178092 94.217553 83.949805 C 93.989265 83.721518 93.785658 83.47472 93.6129 83.209414 C 93.440142 82.937937 93.298233 82.64795 93.187175 82.351794 C 93.076116 82.049467 93.002077 81.740971 92.958887 81.420134 C 92.915698 81.099298 92.909528 80.784632 92.940378 80.463796 C 92.965057 80.142959 93.032927 79.828293 93.125476 79.525967 C 97.01253 64.335604 101.405519 49.021843 106.211893 34.010408 C 106.390821 33.436605 106.649958 32.899821 106.995474 32.406227 C 107.347159 31.912633 107.760545 31.486908 108.241799 31.129052 C 108.729223 30.771196 109.253667 30.493549 109.82747 30.302281 C 110.401274 30.111014 110.987417 30.012295 111.59207 30.012295 C 112.159703 30.012295 112.708827 30.117184 113.239441 30.326961 C 113.770054 30.542909 114.245139 30.845235 114.652354 31.240111 C 115.065739 31.641156 115.386576 32.097731 115.621033 32.622174 C 115.85549 33.140448 115.978889 33.689572 115.997398 34.257205 C 116.349084 39.618873 116.71928 44.684384 117.280743 49.595646 C 121.661392 42.765536 126.399897 36.194563 131.490087 29.876556 C 131.804754 29.444662 132.181119 29.074466 132.613014 28.765969 C 133.051079 28.457473 133.526164 28.223016 134.032098 28.068768 C 134.544202 27.914519 135.068646 27.84665 135.599259 27.85899 C 136.136043 27.87133 136.654317 27.970049 137.154081 28.155147 C 137.672355 28.358754 138.14127 28.654911 138.554655 29.025106 C 138.97421 29.401472 139.307386 29.833367 139.572693 30.326961 C 139.83183 30.820555 140.004588 31.344999 140.078627 31.900293 C 140.152666 32.449416 140.127987 33.00471 140.010758 33.547664 Z M 140.010758 33.547664 " stroke="#231f20" stroke-width="1" stroke-opacity="1" stroke-miterlimit="10"/><path fill="#ffde17" d="M 125.976562 37.023438 L 125.617188 38.34375 C 123.820312 45.015625 121.964844 51.917969 121.058594 58.714844 C 120.78125 60.796875 119.371094 61.960938 118.066406 62.097656 C 117.957031 62.109375 117.847656 62.113281 117.738281 62.105469 C 116.425781 62.066406 115.246094 60.933594 115.519531 58.847656 L 115.84375 56.378906 C 116.757812 49.386719 117.613281 42.78125 119.464844 35.914062 C 119.613281 35.324219 119.894531 34.796875 120.304688 34.34375 C 120.714844 33.890625 121.207031 33.558594 121.78125 33.347656 C 122.359375 33.125 122.953125 33.066406 123.5625 33.167969 C 124.171875 33.273438 124.714844 33.527344 125.183594 33.929688 C 125.601562 34.328125 125.882812 34.804688 126.023438 35.363281 C 126.167969 35.921875 126.152344 36.476562 125.976562 37.023438 Z M 125.976562 37.023438 " fill-opacity="1" fill-rule="nonzero"/><g clip-path="url(#b39320511e)"><path stroke-linecap="butt" transform="matrix(0.633111, 0, 0, 0.633111, 6.689663, 25.248882)" fill="none" stroke-linejoin="miter" d="M 188.413843 18.597928 L 187.846209 20.683364 C 185.008042 31.221601 182.077327 42.123863 180.645903 52.859538 C 180.207838 56.14811 177.980495 57.986748 175.919739 58.202696 C 175.746981 58.221205 175.574223 58.227375 175.401465 58.215036 C 173.328369 58.153336 171.465051 56.364057 171.896946 53.069316 L 172.40905 49.169921 C 173.852813 38.12575 175.204027 27.692402 178.128573 16.845669 C 178.36303 15.91401 178.807265 15.081069 179.455107 14.365358 C 180.10295 13.649646 180.880361 13.125202 181.78734 12.792026 C 182.700489 12.44034 183.638318 12.347791 184.600827 12.508209 C 185.563336 12.674797 186.420956 13.075843 187.161347 13.711345 C 187.82153 14.340678 188.265764 15.093409 188.487882 15.975709 C 188.716169 16.858009 188.691489 17.734138 188.413843 18.597928 Z M 188.413843 18.597928 " stroke="#231f20" stroke-width="1" stroke-opacity="1" stroke-miterlimit="10"/></g><path stroke-linecap="butt" transform="matrix(0.633111, 0, 0, 0.633111, 6.689663, 25.248882)" fill-opacity="1" fill="#ffde17" fill-rule="nonzero" stroke-linejoin="miter" d="M 178.949173 65.958295 L 178.40005 68.679233 C 178.097723 70.098317 177.357332 71.233583 176.191215 72.085034 C 175.290406 72.763726 174.272368 73.170941 173.149441 73.300509 C 172.736056 73.337529 172.322671 73.337529 171.915455 73.288169 C 169.169837 72.948823 167.436088 70.252565 168.040741 67.27866 L 168.583694 64.551551 C 168.892191 63.138638 169.626412 62.003371 170.792528 61.151921 C 172.057364 60.183243 173.482617 59.782197 175.068289 59.942615 C 177.813906 60.288131 179.559996 62.98439 178.949173 65.958295 Z M 178.949173 65.958295 " stroke="#231f20" stroke-width="1" stroke-opacity="1" stroke-miterlimit="10"/><g clip-path="url(#67667b8c26)"><path fill="#ffde17" d="M 101.4375 107.886719 L 41.082031 107.886719 C 35.386719 107.886719 30.769531 103.269531 30.769531 97.574219 C 30.769531 91.878906 35.386719 87.261719 41.082031 87.261719 L 101.4375 87.261719 C 107.132812 87.261719 111.75 91.878906 111.75 97.574219 C 111.75 103.269531 107.132812 107.886719 101.4375 107.886719 Z M 101.4375 107.886719 " fill-opacity="1" fill-rule="nonzero"/></g><g clip-path="url(#a1aae5683c)"><path fill="#ffde17" d="M 99.042969 105.324219 L 38.6875 105.324219 C 32.992188 105.324219 28.375 100.707031 28.375 95.011719 C 28.375 89.316406 32.992188 84.699219 38.6875 84.699219 L 99.042969 84.699219 C 104.738281 84.699219 109.355469 89.316406 109.355469 95.011719 C 109.355469 100.707031 104.738281 105.324219 99.042969 105.324219 Z M 99.042969 105.324219 " fill-opacity="1" fill-rule="nonzero"/></g><g clip-path="url(#cda07d22e2)"><path fill="#2b2b2b" d="M 107.902344 89.117188 C 105.992188 86.253906 102.734375 84.367188 99.042969 84.367188 L 38.6875 84.367188 C 32.816406 84.367188 28.039062 89.140625 28.039062 95.011719 C 28.039062 98.445312 29.671875 101.5 32.199219 103.445312 C 34.179688 106.4375 37.496094 108.222656 41.082031 108.222656 L 101.4375 108.222656 C 104.28125 108.222656 106.957031 107.113281 108.964844 105.101562 C 110.976562 103.09375 112.082031 100.421875 112.082031 97.574219 C 112.082031 94.230469 110.558594 91.148438 107.902344 89.117188 Z M 28.710938 95.011719 C 28.710938 89.511719 33.1875 85.035156 38.6875 85.035156 L 99.042969 85.035156 C 104.542969 85.035156 109.019531 89.511719 109.019531 95.011719 C 109.019531 100.515625 104.542969 104.988281 99.042969 104.988281 L 38.6875 104.988281 C 33.1875 104.988281 28.710938 100.515625 28.710938 95.011719 Z M 108.492188 104.628906 C 106.609375 106.515625 104.105469 107.550781 101.4375 107.550781 L 41.082031 107.550781 C 38.351562 107.550781 35.792969 106.449219 33.929688 104.535156 C 35.363281 105.25 36.976562 105.660156 38.6875 105.660156 L 99.042969 105.660156 C 104.914062 105.660156 109.691406 100.882812 109.691406 95.011719 C 109.691406 93.5625 109.398438 92.179688 108.871094 90.917969 C 110.503906 92.730469 111.417969 95.074219 111.417969 97.574219 C 111.414062 100.242188 110.375 102.746094 108.492188 104.628906 Z M 42.640625 97.699219 L 42.640625 100.097656 C 42.15625 100.253906 41.71875 100.332031 41.339844 100.332031 C 40.011719 100.332031 38.933594 99.832031 38.109375 98.835938 C 37.28125 97.839844 36.871094 96.527344 36.871094 94.902344 C 36.871094 93.394531 37.289062 92.148438 38.121094 91.164062 C 38.953125 90.183594 40.003906 89.695312 41.277344 89.695312 C 41.773438 89.695312 42.226562 89.757812 42.640625 89.890625 L 42.640625 92.300781 C 42.203125 92.152344 41.789062 92.082031 41.402344 92.082031 C 40.804688 92.082031 40.308594 92.355469 39.917969 92.898438 C 39.523438 93.445312 39.324219 94.140625 39.324219 94.980469 C 39.324219 95.890625 39.523438 96.605469 39.921875 97.136719 C 40.316406 97.664062 40.847656 97.925781 41.507812 97.925781 C 41.824219 97.921875 42.203125 97.847656 42.640625 97.699219 Z M 44.125 89.976562 L 46.417969 89.976562 L 46.417969 97.742188 L 48.234375 97.742188 L 48.234375 100.082031 L 44.125 100.082031 Z M 49.871094 89.976562 L 52.164062 89.976562 L 52.164062 100.082031 L 49.871094 100.082031 Z M 59.710938 97.699219 L 59.710938 100.097656 C 59.226562 100.253906 58.789062 100.332031 58.410156 100.332031 C 57.082031 100.332031 56.003906 99.832031 55.179688 98.835938 C 54.351562 97.839844 53.941406 96.527344 53.941406 94.902344 C 53.941406 93.394531 54.355469 92.148438 55.1875 91.164062 C 56.023438 90.183594 57.074219 89.695312 58.347656 89.695312 C 58.839844 89.695312 59.292969 89.757812 59.710938 89.890625 L 59.710938 92.300781 C 59.269531 92.152344 58.859375 92.082031 58.46875 92.082031 C 57.875 92.082031 57.378906 92.355469 56.984375 92.898438 C 56.589844 93.445312 56.394531 94.140625 56.394531 94.980469 C 56.394531 95.890625 56.589844 96.605469 56.988281 97.136719 C 57.382812 97.664062 57.910156 97.925781 58.574219 97.925781 C 58.898438 97.921875 59.277344 97.847656 59.710938 97.699219 Z M 61.195312 89.976562 L 63.488281 89.976562 L 63.488281 94.730469 L 63.527344 94.730469 L 65.691406 89.976562 L 68.101562 89.976562 L 65.753906 95.136719 L 68 100.082031 L 65.480469 100.082031 L 63.527344 95.878906 L 63.488281 95.878906 L 63.488281 100.082031 L 61.195312 100.082031 Z M 73.042969 89.976562 L 75.335938 89.976562 L 75.335938 93.722656 L 77.375 93.722656 L 77.375 89.976562 L 79.667969 89.976562 L 79.667969 100.082031 L 77.375 100.082031 L 77.375 95.878906 L 75.335938 95.878906 L 75.335938 100.082031 L 73.042969 100.082031 Z M 81.832031 89.976562 L 86.472656 89.976562 L 86.472656 92.125 L 84.128906 92.125 L 84.128906 93.988281 L 86.164062 93.988281 L 86.164062 96.082031 L 84.128906 96.082031 L 84.128906 97.921875 L 86.492188 97.921875 L 86.492188 100.082031 L 81.835938 100.082031 L 81.835938 89.976562 Z M 88.300781 89.976562 L 90.972656 89.976562 C 92.050781 89.976562 92.90625 90.253906 93.53125 90.808594 C 94.160156 91.363281 94.46875 92.117188 94.46875 93.074219 C 94.46875 93.5625 94.351562 94.035156 94.117188 94.492188 C 93.878906 94.949219 93.53125 95.292969 93.078125 95.523438 L 94.910156 100.082031 L 92.488281 100.082031 L 90.632812 95.480469 L 90.59375 95.480469 L 90.59375 100.082031 L 88.300781 100.082031 Z M 90.59375 91.925781 L 90.59375 94.324219 C 91.605469 94.308594 92.113281 93.949219 92.113281 93.257812 C 92.113281 92.789062 91.996094 92.453125 91.761719 92.25 C 91.527344 92.050781 91.136719 91.941406 90.59375 91.925781 Z M 96.203125 89.976562 L 100.847656 89.976562 L 100.847656 92.125 L 98.5 92.125 L 98.5 93.988281 L 100.535156 93.988281 L 100.535156 96.082031 L 98.5 96.082031 L 98.5 97.921875 L 100.863281 97.921875 L 100.863281 100.082031 L 96.207031 100.082031 L 96.207031 89.976562 Z M 96.203125 89.976562 " fill-opacity="1" fill-rule="nonzero"/></g></svg>