<svg xmlns="http://www.w3.org/2000/svg" xmlns:xlink="http://www.w3.org/1999/xlink" width="500" zoomAndPan="magnify" viewBox="0 0 375 374.999991" height="500" preserveAspectRatio="xMidYMid meet" version="1.0"><defs><clipPath id="0d6db319a9"><path d="M 14.59375 15.375 L 360.34375 15.375 L 360.34375 361.125 L 14.59375 361.125 Z M 14.59375 15.375 " clip-rule="nonzero"/></clipPath><clipPath id="4087de83d2"><path d="M 124 96.421875 L 248 96.421875 L 248 242 L 124 242 Z M 124 96.421875 " clip-rule="nonzero"/></clipPath><clipPath id="0155fd1db3"><path d="M 123.199219 136 L 251.449219 136 L 251.449219 280 L 123.199219 280 Z M 123.199219 136 " clip-rule="nonzero"/></clipPath></defs><g clip-path="url(#0d6db319a9)"><path fill="#000000" d="M 187.5 15.375 C 92.125 15.375 14.59375 92.972656 14.59375 188.277344 C 14.59375 283.582031 92.125 361.183594 187.5 361.183594 C 282.804688 361.183594 360.402344 283.652344 360.402344 188.277344 C 360.402344 92.972656 282.875 15.375 187.5 15.375 Z M 187.5 333.035156 C 107.6875 333.035156 42.742188 268.089844 42.742188 188.277344 C 42.742188 108.464844 107.6875 43.523438 187.5 43.523438 C 267.3125 43.523438 332.253906 108.464844 332.253906 188.277344 C 332.253906 268.089844 267.3125 333.035156 187.5 333.035156 Z M 187.5 333.035156 " fill-opacity="1" fill-rule="nonzero"/></g><path fill="#000000" d="M 311.023438 188.277344 C 311.023438 190.300781 310.972656 192.320312 310.875 194.339844 C 310.773438 196.359375 310.625 198.375 310.425781 200.386719 C 310.230469 202.398438 309.980469 204.402344 309.683594 206.402344 C 309.386719 208.402344 309.042969 210.394531 308.648438 212.375 C 308.253906 214.359375 307.8125 216.332031 307.320312 218.292969 C 306.828125 220.253906 306.289062 222.199219 305.703125 224.136719 C 305.117188 226.070312 304.480469 227.988281 303.800781 229.890625 C 303.121094 231.796875 302.394531 233.679688 301.621094 235.546875 C 300.847656 237.414062 300.027344 239.261719 299.164062 241.089844 C 298.296875 242.917969 297.390625 244.722656 296.4375 246.507812 C 295.484375 248.289062 294.488281 250.046875 293.449219 251.78125 C 292.410156 253.515625 291.328125 255.222656 290.203125 256.902344 C 289.082031 258.585938 287.917969 260.238281 286.714844 261.859375 C 285.507812 263.484375 284.265625 265.078125 282.984375 266.640625 C 281.699219 268.203125 280.382812 269.734375 279.023438 271.230469 C 277.664062 272.730469 276.273438 274.191406 274.84375 275.621094 C 273.414062 277.050781 271.949219 278.445312 270.453125 279.800781 C 268.953125 281.160156 267.425781 282.480469 265.859375 283.761719 C 264.296875 285.046875 262.707031 286.289062 261.082031 287.492188 C 259.457031 288.695312 257.804688 289.859375 256.125 290.984375 C 254.445312 292.105469 252.738281 293.1875 251.003906 294.226562 C 249.269531 295.265625 247.511719 296.261719 245.726562 297.214844 C 243.945312 298.167969 242.140625 299.078125 240.3125 299.941406 C 238.484375 300.804688 236.636719 301.625 234.769531 302.398438 C 232.902344 303.171875 231.015625 303.898438 229.113281 304.582031 C 227.210938 305.261719 225.289062 305.894531 223.355469 306.480469 C 221.421875 307.070312 219.472656 307.609375 217.511719 308.097656 C 215.550781 308.589844 213.578125 309.03125 211.597656 309.425781 C 209.613281 309.820312 207.625 310.167969 205.625 310.464844 C 203.625 310.761719 201.617188 311.007812 199.605469 311.207031 C 197.59375 311.40625 195.578125 311.554688 193.558594 311.652344 C 191.542969 311.75 189.519531 311.800781 187.5 311.800781 C 185.476562 311.800781 183.457031 311.75 181.4375 311.652344 C 179.417969 311.554688 177.402344 311.40625 175.390625 311.207031 C 173.378906 311.007812 171.375 310.761719 169.375 310.464844 C 167.375 310.167969 165.382812 309.820312 163.402344 309.425781 C 161.417969 309.035156 159.445312 308.589844 157.484375 308.097656 C 155.523438 307.609375 153.578125 307.070312 151.640625 306.480469 C 149.707031 305.894531 147.789062 305.261719 145.886719 304.582031 C 143.980469 303.898438 142.097656 303.171875 140.230469 302.398438 C 138.363281 301.625 136.515625 300.804688 134.6875 299.941406 C 132.859375 299.078125 131.054688 298.167969 129.269531 297.214844 C 127.488281 296.261719 125.730469 295.265625 123.996094 294.226562 C 122.261719 293.1875 120.554688 292.105469 118.875 290.984375 C 117.191406 289.859375 115.539062 288.695312 113.917969 287.492188 C 112.292969 286.289062 110.699219 285.046875 109.136719 283.761719 C 107.574219 282.480469 106.042969 281.160156 104.546875 279.800781 C 103.046875 278.445312 101.585938 277.050781 100.15625 275.621094 C 98.726562 274.191406 97.332031 272.730469 95.976562 271.230469 C 94.617188 269.734375 93.296875 268.203125 92.015625 266.640625 C 90.730469 265.078125 89.488281 263.484375 88.285156 261.859375 C 87.082031 260.238281 85.917969 258.585938 84.792969 256.902344 C 83.671875 255.222656 82.589844 253.515625 81.550781 251.78125 C 80.511719 250.046875 79.515625 248.289062 78.5625 246.507812 C 77.609375 244.722656 76.699219 242.917969 75.835938 241.089844 C 74.972656 239.261719 74.152344 237.414062 73.378906 235.546875 C 72.605469 233.679688 71.878906 231.796875 71.195312 229.890625 C 70.515625 227.988281 69.882812 226.070312 69.296875 224.136719 C 68.707031 222.199219 68.167969 220.253906 67.679688 218.292969 C 67.1875 216.332031 66.746094 214.359375 66.351562 212.375 C 65.957031 210.394531 65.609375 208.402344 65.3125 206.402344 C 65.015625 204.402344 64.769531 202.398438 64.570312 200.386719 C 64.371094 198.375 64.222656 196.359375 64.125 194.339844 C 64.027344 192.320312 63.976562 190.300781 63.976562 188.277344 C 63.976562 186.257812 64.027344 184.238281 64.125 182.21875 C 64.222656 180.199219 64.371094 178.183594 64.570312 176.171875 C 64.769531 174.160156 65.015625 172.152344 65.3125 170.152344 C 65.609375 168.152344 65.957031 166.164062 66.351562 164.179688 C 66.746094 162.199219 67.1875 160.226562 67.679688 158.265625 C 68.167969 156.304688 68.707031 154.355469 69.296875 152.421875 C 69.882812 150.488281 70.515625 148.566406 71.195312 146.664062 C 71.878906 144.761719 72.605469 142.875 73.378906 141.007812 C 74.152344 139.140625 74.972656 137.292969 75.835938 135.464844 C 76.699219 133.636719 77.609375 131.832031 78.5625 130.050781 C 79.515625 128.265625 80.511719 126.507812 81.550781 124.773438 C 82.589844 123.039062 83.671875 121.332031 84.792969 119.652344 C 85.917969 117.972656 87.082031 116.320312 88.285156 114.695312 C 89.488281 113.070312 90.730469 111.480469 92.015625 109.917969 C 93.296875 108.351562 94.617188 106.824219 95.976562 105.324219 C 97.332031 103.828125 98.726562 102.363281 100.15625 100.933594 C 101.585938 99.503906 103.046875 98.113281 104.546875 96.753906 C 106.042969 95.394531 107.574219 94.078125 109.136719 92.792969 C 110.699219 91.511719 112.292969 90.269531 113.917969 89.0625 C 115.539062 87.859375 117.191406 86.695312 118.875 85.574219 C 120.554688 84.449219 122.261719 83.367188 123.996094 82.328125 C 125.730469 81.289062 127.488281 80.292969 129.269531 79.339844 C 131.054688 78.386719 132.859375 77.480469 134.6875 76.613281 C 136.515625 75.75 138.363281 74.929688 140.230469 74.15625 C 142.097656 73.382812 143.980469 72.65625 145.886719 71.976562 C 147.789062 71.296875 149.707031 70.660156 151.640625 70.074219 C 153.578125 69.488281 155.523438 68.949219 157.484375 68.457031 C 159.445312 67.964844 161.417969 67.523438 163.402344 67.128906 C 165.382812 66.734375 167.375 66.390625 169.375 66.09375 C 171.375 65.796875 173.378906 65.546875 175.390625 65.351562 C 177.402344 65.152344 179.417969 65.003906 181.4375 64.902344 C 183.457031 64.804688 185.476562 64.753906 187.5 64.753906 C 189.519531 64.753906 191.542969 64.804688 193.558594 64.902344 C 195.578125 65.003906 197.59375 65.152344 199.605469 65.351562 C 201.617188 65.546875 203.625 65.796875 205.625 66.09375 C 207.625 66.390625 209.613281 66.734375 211.597656 67.128906 C 213.578125 67.523438 215.550781 67.964844 217.511719 68.457031 C 219.472656 68.949219 221.421875 69.488281 223.355469 70.074219 C 225.289062 70.660156 227.210938 71.296875 229.113281 71.976562 C 231.015625 72.65625 232.902344 73.382812 234.769531 74.15625 C 236.636719 74.929688 238.484375 75.75 240.3125 76.613281 C 242.140625 77.480469 243.945312 78.386719 245.726562 79.339844 C 247.511719 80.292969 249.269531 81.289062 251.003906 82.328125 C 252.738281 83.367188 254.445312 84.449219 256.125 85.574219 C 257.804688 86.695312 259.457031 87.859375 261.082031 89.0625 C 262.707031 90.269531 264.296875 91.511719 265.859375 92.792969 C 267.425781 94.078125 268.953125 95.394531 270.453125 96.753906 C 271.949219 98.113281 273.414062 99.503906 274.84375 100.933594 C 276.273438 102.363281 277.664062 103.828125 279.023438 105.324219 C 280.382812 106.824219 281.699219 108.351562 282.984375 109.917969 C 284.265625 111.480469 285.507812 113.070312 286.714844 114.695312 C 287.917969 116.320312 289.082031 117.972656 290.203125 119.652344 C 291.328125 121.332031 292.410156 123.039062 293.449219 124.773438 C 294.488281 126.507812 295.484375 128.265625 296.4375 130.050781 C 297.390625 131.832031 298.296875 133.636719 299.164062 135.464844 C 300.027344 137.292969 300.847656 139.140625 301.621094 141.007812 C 302.394531 142.875 303.121094 144.761719 303.800781 146.664062 C 304.480469 148.566406 305.117188 150.488281 305.703125 152.421875 C 306.289062 154.355469 306.828125 156.304688 307.320312 158.265625 C 307.8125 160.226562 308.253906 162.199219 308.648438 164.179688 C 309.042969 166.164062 309.386719 168.152344 309.683594 170.152344 C 309.980469 172.152344 310.230469 174.160156 310.425781 176.171875 C 310.625 178.183594 310.773438 180.199219 310.875 182.21875 C 310.972656 184.238281 311.023438 186.257812 311.023438 188.277344 Z M 311.023438 188.277344 " fill-opacity="1" fill-rule="nonzero"/><g clip-path="url(#4087de83d2)"><path fill="#ffffff" d="M 124.1875 161.722656 C 124.136719 161.207031 124.050781 160.691406 124.050781 160.167969 C 124.039062 139.554688 124.054688 118.9375 124.011719 98.324219 C 124.007812 96.902344 124.484375 96.546875 125.839844 96.546875 C 148.472656 96.582031 171.101562 96.585938 193.738281 96.5625 C 205.550781 96.550781 216.261719 99.953125 225.742188 106.992188 C 233.574219 112.808594 239.390625 120.257812 243.210938 129.28125 C 246.855469 137.875 248.066406 146.835938 247.015625 156.011719 C 245.480469 169.316406 239.644531 180.570312 229.710938 189.605469 C 224.058594 194.742188 217.601562 198.535156 210.265625 200.746094 C 208.519531 201.269531 206.734375 201.664062 204.976562 202.144531 C 204.421875 202.296875 203.894531 202.539062 202.894531 202.914062 C 205.109375 205.027344 207.109375 206.871094 209.035156 208.792969 C 216.089844 215.824219 223.101562 222.90625 230.199219 229.902344 C 231.207031 230.890625 231.230469 231.582031 230.441406 232.636719 C 228.074219 235.792969 225.480469 238.71875 222.421875 241.242188 C 221.347656 242.132812 220.691406 241.984375 219.777344 241.066406 C 205.101562 226.339844 190.398438 211.640625 175.699219 196.933594 C 173.273438 194.507812 170.867188 192.070312 168.429688 189.660156 C 168.085938 189.320312 167.632812 189.089844 167.230469 188.804688 C 167.328125 188.632812 167.425781 188.457031 167.523438 188.285156 C 168.082031 188.25 168.636719 188.179688 169.195312 188.179688 C 177.03125 188.171875 184.867188 188.097656 192.699219 188.195312 C 200.898438 188.292969 208.441406 186.230469 215.242188 181.652344 C 222.625 176.679688 227.722656 169.90625 230.445312 161.449219 C 232.414062 155.339844 232.671875 149.066406 231.472656 142.734375 C 229.710938 133.394531 224.996094 125.839844 217.617188 119.945312 C 212.945312 116.214844 207.699219 113.574219 201.761719 112.582031 C 198.886719 112.101562 195.953125 111.75 193.042969 111.738281 C 175.726562 111.65625 158.40625 111.695312 141.09375 111.695312 C 139.269531 111.695312 139.226562 111.730469 139.226562 113.519531 C 139.222656 123.457031 139.238281 133.402344 139.191406 143.339844 C 139.1875 144.042969 138.953125 144.972656 138.480469 145.410156 C 133.175781 150.304688 128.539062 155.75 124.1875 161.722656 Z M 124.1875 161.722656 " fill-opacity="1" fill-rule="nonzero"/></g><g clip-path="url(#0155fd1db3)"><path fill="#ffffff" d="M 251.800781 251.550781 L 238.132812 264.941406 L 238.125 264.949219 C 232.15625 269.507812 225.554688 272.960938 218.429688 275.441406 C 208.453125 278.914062 198.136719 280.003906 187.710938 278.851562 C 170.3125 276.929688 155.472656 269.570312 143.390625 256.824219 C 136.699219 249.765625 131.675781 241.640625 128.367188 232.519531 C 124.761719 222.582031 123.199219 212.304688 124.300781 201.757812 C 126.761719 178.203125 138.035156 159.984375 157.960938 147.210938 C 163.628906 143.574219 169.824219 141.019531 176.363281 139.253906 C 183.535156 137.316406 190.800781 136.394531 198.214844 136.703125 C 204.085938 136.945312 209.832031 138 215.507812 139.519531 C 217.351562 140.015625 217.605469 141.542969 218.015625 142.960938 C 219.289062 147.402344 219.453125 151.867188 218.050781 156.515625 C 215.925781 155.785156 213.953125 154.910156 211.890625 154.433594 C 207.761719 153.480469 203.613281 152.453125 199.414062 151.992188 C 193.648438 151.355469 187.859375 151.910156 182.242188 153.351562 C 169.027344 156.734375 158.234375 163.8125 150.085938 174.839844 C 146.242188 180.035156 143.351562 185.703125 141.523438 191.882812 C 139.214844 199.703125 138.609375 207.664062 139.769531 215.777344 C 141.761719 229.722656 148.195312 241.238281 158.722656 250.46875 C 164.230469 255.300781 170.542969 258.789062 177.527344 261.175781 C 185.445312 263.886719 193.539062 264.558594 201.757812 263.71875 C 209.382812 262.941406 216.539062 260.492188 223.1875 256.632812 C 229.671875 252.867188 235.214844 248.027344 239.777344 242.074219 C 240.789062 240.753906 240.980469 240.730469 242.078125 241.828125 C 245.320312 245.070312 248.5625 248.3125 251.800781 251.550781 Z M 251.800781 251.550781 " fill-opacity="1" fill-rule="nonzero"/></g></svg>