<svg xmlns="http://www.w3.org/2000/svg" xmlns:xlink="http://www.w3.org/1999/xlink" width="188" zoomAndPan="magnify" viewBox="0 0 141.12 141.750002" height="188" preserveAspectRatio="xMidYMid meet" version="1.0"><defs><clipPath id="b85cdc6716"><path d="M 42.039062 34.203125 L 98.394531 34.203125 L 98.394531 90.558594 L 42.039062 90.558594 Z M 42.039062 34.203125 " clip-rule="nonzero"/></clipPath><clipPath id="392d188833"><path d="M 42.039062 80.113281 L 97 80.113281 L 97 92 L 42.039062 92 Z M 42.039062 80.113281 " clip-rule="nonzero"/></clipPath><clipPath id="db65af8d63"><path d="M 85 83 L 98 83 L 98 94.945312 L 85 94.945312 Z M 85 83 " clip-rule="nonzero"/></clipPath><clipPath id="a8ab95e76c"><path d="M 86 83 L 98 83 L 98 94.945312 L 86 94.945312 Z M 86 83 " clip-rule="nonzero"/></clipPath></defs><path fill="#ff0000" d="M 57.855469 63.113281 C 57.84375 63.121094 57.835938 63.132812 57.824219 63.144531 C 57.226562 63.777344 56.570312 64.371094 55.9375 65.03125 C 55.761719 65.246094 55.488281 65.441406 55.542969 65.753906 C 55.703125 66.007812 55.917969 66.265625 56.226562 66.300781 C 56.527344 66.148438 56.78125 65.949219 57.050781 65.773438 C 57.316406 65.984375 57.578125 66.203125 57.832031 66.4375 C 58.070312 66.648438 58.300781 66.875 58.53125 67.105469 C 59.300781 67.859375 60.03125 68.667969 60.835938 69.398438 C 61.148438 69.183594 61.460938 68.96875 61.769531 68.710938 C 61.578125 68.398438 61.359375 68.066406 61.085938 67.808594 C 60.230469 66.972656 59.371094 66.117188 58.53125 65.261719 C 58.367188 65.097656 58.207031 64.9375 58.050781 64.777344 C 58.214844 64.566406 58.367188 64.34375 58.53125 64.128906 L 58.53125 63.648438 C 58.367188 63.410156 58.140625 63.207031 57.855469 63.113281 " fill-opacity="1" fill-rule="nonzero"/><path fill="#ff0000" d="M 66.914062 63.542969 C 66.941406 63.511719 66.960938 63.476562 66.980469 63.445312 C 67.023438 63.050781 66.667969 62.738281 66.316406 62.660156 C 65.925781 62.914062 65.613281 63.34375 65.125 63.382812 C 64.257812 63.363281 63.59375 62.738281 63.046875 62.128906 C 62.617188 61.625 62.222656 60.957031 62.421875 60.269531 C 62.46875 60.1875 62.519531 60.109375 62.570312 60.03125 C 62.738281 59.78125 62.933594 59.554688 63.097656 59.304688 C 63.101562 59.296875 63.101562 59.292969 63.105469 59.289062 C 62.90625 58.976562 62.636719 58.546875 62.207031 58.742188 C 61.976562 58.890625 61.777344 59.082031 61.613281 59.304688 C 61.4375 59.519531 61.3125 59.769531 61.222656 60.03125 C 61.109375 60.359375 61.070312 60.707031 61.105469 61.054688 C 61.199219 61.984375 61.734375 62.835938 62.410156 63.480469 C 62.457031 63.53125 62.503906 63.574219 62.554688 63.621094 C 63.136719 64.167969 63.84375 64.609375 64.632812 64.707031 C 64.722656 64.722656 64.816406 64.734375 64.910156 64.734375 C 65.273438 64.746094 65.609375 64.648438 65.914062 64.476562 C 66.316406 64.257812 66.652344 63.921875 66.914062 63.542969 " fill-opacity="1" fill-rule="nonzero"/><path fill="#ff0000" d="M 63.945312 66.363281 C 63.730469 65.933594 63.355469 65.613281 63.046875 65.28125 C 62.917969 65.160156 62.785156 65.03125 62.65625 64.902344 C 62.609375 64.863281 62.5625 64.816406 62.519531 64.769531 C 62.199219 64.457031 61.882812 64.140625 61.570312 63.824219 C 60.859375 63.105469 60.15625 62.382812 59.421875 61.699219 C 59.152344 61.914062 58.796875 62.074219 58.640625 62.425781 C 58.5625 62.757812 58.894531 62.953125 59.070312 63.167969 C 60.226562 64.304688 61.359375 65.441406 62.5 66.597656 C 62.578125 66.675781 62.660156 66.761719 62.75 66.84375 C 62.890625 66.972656 63.054688 67.082031 63.261719 67.082031 C 63.558594 66.910156 63.808594 66.675781 63.945312 66.363281 " fill-opacity="1" fill-rule="nonzero"/><path fill="#ff0000" d="M 61.679688 73.59375 C 61.589844 73.675781 61.507812 73.757812 61.421875 73.84375 C 61.265625 74 61.089844 74.183594 60.90625 74.324219 C 60.660156 74.511719 60.390625 74.625 60.066406 74.488281 C 59.980469 74.441406 59.898438 74.394531 59.820312 74.332031 C 59.492188 74.089844 59.234375 73.757812 58.929688 73.46875 L 58.886719 73.425781 C 58.8125 73.378906 58.746094 73.316406 58.695312 73.234375 L 57.832031 72.371094 C 56.621094 71.164062 55.414062 69.949219 54.203125 68.742188 C 53.332031 67.871094 52.460938 66.996094 51.585938 66.125 C 51.335938 65.871094 51.078125 65.558594 51.136719 65.164062 C 51.234375 64.832031 51.507812 64.59375 51.726562 64.359375 C 52.554688 63.53125 53.382812 62.703125 54.210938 61.875 C 54.878906 61.214844 55.539062 60.546875 56.203125 59.882812 C 56.207031 59.878906 56.21875 59.871094 56.222656 59.863281 C 56.644531 59.445312 57.0625 59.027344 57.484375 58.605469 L 57.484375 58.601562 C 58.148438 57.941406 58.816406 57.273438 59.484375 56.605469 C 62.519531 53.578125 65.554688 50.542969 68.589844 47.515625 C 69.253906 46.914062 69.804688 46.242188 70.472656 45.695312 C 70.902344 45.421875 71.410156 45.675781 71.707031 46.027344 C 74.40625 48.75 77.132812 51.4375 79.832031 54.160156 C 80.261719 54.527344 80.167969 55.195312 79.734375 55.546875 L 78.667969 56.617188 C 77.769531 57.519531 76.875 58.414062 75.980469 59.308594 C 75.738281 59.554688 75.492188 59.800781 75.246094 60.039062 C 74.011719 61.28125 72.78125 62.511719 71.546875 63.746094 C 71.253906 64.039062 70.960938 64.332031 70.671875 64.621094 C 70.3125 64.980469 69.953125 65.339844 69.597656 65.691406 L 69.597656 65.695312 C 69.085938 66.203125 68.574219 66.710938 68.066406 67.222656 C 67.785156 67.503906 67.503906 67.785156 67.222656 68.066406 C 66.785156 68.5 66.347656 68.9375 65.914062 69.367188 C 64.5 70.777344 63.09375 72.179688 61.679688 73.59375 Z M 62.707031 73.59375 C 63.863281 72.441406 65.019531 71.285156 66.175781 70.128906 C 66.527344 69.777344 66.875 69.429688 67.226562 69.078125 L 68.179688 68.128906 C 68.597656 67.703125 69.023438 67.277344 69.449219 66.859375 C 70.394531 65.90625 71.347656 64.960938 72.292969 64.007812 C 72.46875 63.835938 72.640625 63.660156 72.820312 63.484375 C 73.96875 62.339844 75.113281 61.1875 76.265625 60.039062 C 76.507812 59.796875 76.746094 59.554688 76.992188 59.308594 C 77.886719 58.414062 78.777344 57.523438 79.675781 56.625 C 79.679688 56.621094 79.679688 56.621094 79.683594 56.617188 C 80.15625 56.132812 80.789062 55.679688 80.851562 54.945312 C 80.988281 54.078125 80.242188 53.472656 79.695312 52.921875 C 77.152344 50.417969 74.664062 47.890625 72.136719 45.382812 C 71.726562 44.953125 71.074219 44.695312 70.472656 44.890625 C 70.152344 44.992188 69.882812 45.1875 69.648438 45.421875 C 65.921875 49.160156 62.183594 52.878906 58.453125 56.605469 C 58.300781 56.753906 58.152344 56.910156 58.003906 57.058594 C 56.875 58.1875 55.742188 59.3125 54.617188 60.445312 C 54.484375 60.578125 54.347656 60.707031 54.222656 60.839844 C 53.128906 61.933594 52.03125 63.03125 50.941406 64.128906 C 50.296875 64.714844 50.273438 65.816406 50.902344 66.417969 C 51.996094 67.527344 53.09375 68.628906 54.203125 69.730469 C 55.511719 71.039062 56.828125 72.34375 58.125 73.660156 C 58.25 73.777344 58.367188 73.894531 58.480469 74.019531 C 58.601562 74.136719 58.714844 74.253906 58.832031 74.371094 C 59.269531 74.800781 59.753906 75.273438 60.40625 75.253906 C 61.082031 75.273438 61.542969 74.78125 61.980469 74.324219 C 62.03125 74.269531 62.089844 74.214844 62.144531 74.15625 C 62.332031 73.96875 62.519531 73.785156 62.707031 73.59375 " fill-opacity="1" fill-rule="nonzero"/><path fill="#ff0000" d="M 70.625 59.253906 C 70.640625 59.273438 70.660156 59.289062 70.675781 59.304688 C 70.789062 59.390625 70.929688 59.367188 71.054688 59.304688 L 71.0625 59.304688 C 71.171875 59.246094 71.277344 59.167969 71.351562 59.09375 C 71.859375 58.601562 72.390625 58.117188 72.839844 57.546875 C 72.957031 57.097656 72.308594 56.546875 71.941406 56.917969 C 71.609375 57.175781 71.292969 57.449219 70.976562 57.722656 C 70.605469 57.382812 70.207031 57.042969 69.917969 56.617188 C 69.902344 56.601562 69.894531 56.582031 69.882812 56.566406 C 70.078125 56.210938 70.371094 55.921875 70.605469 55.585938 C 70.785156 55.179688 70.238281 55 70 54.804688 C 69.726562 55.0625 69.488281 55.332031 69.179688 55.527344 C 68.671875 55.683594 68.332031 55.117188 68.0625 54.785156 C 68.117188 54.292969 68.648438 54.042969 68.863281 53.628906 C 68.804688 53.238281 68.472656 52.808594 68.039062 52.984375 C 67.472656 53.453125 66.925781 54.003906 66.433594 54.589844 C 66.183594 54.921875 66.570312 55.234375 66.785156 55.449219 C 67.1875 55.828125 67.574219 56.21875 67.96875 56.609375 C 68.847656 57.492188 69.71875 58.394531 70.625 59.253906 " fill-opacity="1" fill-rule="nonzero"/><path fill="#ff0000" d="M 70.410156 52.574219 C 71.664062 53.628906 72.703125 54.902344 73.9375 55.976562 C 74.367188 56.351562 74.78125 55.707031 74.957031 55.351562 C 73.957031 53.960938 72.488281 52.941406 71.429688 51.589844 C 71.375 51.183594 71.878906 50.945312 71.878906 50.550781 C 71.78125 50.28125 71.527344 50.085938 71.292969 49.949219 C 70.976562 49.949219 70.765625 50.21875 70.550781 50.433594 C 69.917969 51.105469 69.195312 51.671875 68.707031 52.433594 C 68.941406 52.671875 69.179688 52.886719 69.414062 53.121094 C 69.746094 52.921875 70.019531 52.609375 70.410156 52.574219 " fill-opacity="1" fill-rule="nonzero"/><path fill="#ff0000" d="M 67 62.09375 C 67.238281 62.289062 67.472656 62.621094 67.824219 62.558594 C 68.101562 62.363281 68.492188 62.074219 68.394531 61.679688 C 67.980469 61.078125 67.289062 60.691406 66.984375 60.035156 C 66.945312 59.945312 66.910156 59.847656 66.882812 59.738281 C 67.125 59.820312 67.355469 59.921875 67.585938 60.035156 C 68.175781 60.316406 68.734375 60.648438 69.371094 60.820312 C 69.820312 60.757812 70.078125 60.308594 70.410156 60.035156 C 70 59.71875 69.535156 59.5 69.066406 59.296875 C 68.316406 58.992188 67.539062 58.742188 66.847656 58.3125 C 66.5 57.808594 66.371094 57.199219 66.203125 56.609375 C 66.074219 56.167969 65.925781 55.738281 65.652344 55.375 C 65.335938 55.609375 64.984375 55.902344 64.847656 56.332031 C 64.871094 56.421875 64.898438 56.519531 64.929688 56.609375 C 65.183594 57.460938 65.644531 58.242188 65.90625 59.113281 C 65.21875 58.503906 64.671875 57.765625 63.925781 57.25 C 63.460938 57.3125 63.261719 57.765625 63.023438 58.097656 C 63.417969 58.5 63.816406 58.90625 64.21875 59.304688 L 64.945312 60.03125 C 65.636719 60.714844 66.320312 61.402344 67 62.09375 " fill-opacity="1" fill-rule="nonzero"/><path fill="#ff0000" d="M 58.886719 73.425781 L 58.695312 73.234375 C 58.746094 73.316406 58.8125 73.378906 58.886719 73.425781 " fill-opacity="1" fill-rule="nonzero"/><path fill="#ff0000" d="M 84.4375 61.050781 C 85.332031 61.089844 86.191406 61.003906 87.050781 61.089844 C 87.550781 61.195312 87.734375 61.738281 87.6875 62.195312 C 87.675781 66.035156 87.703125 69.855469 87.6875 73.691406 C 87.734375 74.257812 87.191406 74.664062 86.636719 74.605469 C 80.179688 74.617188 73.71875 74.613281 67.261719 74.601562 L 66.53125 75.328125 L 85.835938 75.328125 C 86.511719 75.3125 87.289062 75.453125 87.855469 74.964844 C 88.5625 74.453125 88.464844 73.496094 88.464844 72.722656 C 88.4375 69.148438 88.464844 65.605469 88.449219 62.039062 C 88.464844 61.449219 88.1875 60.8125 87.621094 60.519531 C 87.328125 60.367188 86.996094 60.3125 86.664062 60.3125 C 84.964844 60.316406 83.257812 60.316406 81.5625 60.316406 C 81.320312 60.5625 81.078125 60.804688 80.832031 61.042969 C 82.035156 61.042969 83.234375 61.050781 84.4375 61.050781 " fill-opacity="1" fill-rule="nonzero"/><path fill="#ff0000" d="M 58.304688 73.867188 C 58.363281 73.921875 58.417969 73.972656 58.480469 74.019531 C 58.367188 73.894531 58.25 73.777344 58.125 73.660156 C 58.179688 73.730469 58.238281 73.804688 58.304688 73.867188 " fill-opacity="1" fill-rule="nonzero"/><path fill="#ff0000" d="M 58.085938 56.605469 C 58.0625 56.753906 58.035156 56.902344 58.003906 57.058594 C 58.152344 56.910156 58.300781 56.753906 58.453125 56.605469 L 58.085938 56.605469 " fill-opacity="1" fill-rule="nonzero"/><path fill="#ff0000" d="M 54.222656 60.5 L 54.222656 60.839844 C 54.347656 60.707031 54.484375 60.578125 54.617188 60.445312 C 54.484375 60.464844 54.355469 60.484375 54.222656 60.5 " fill-opacity="1" fill-rule="nonzero"/><path fill="#ff0000" d="M 62.644531 64.796875 C 62.605469 64.785156 62.558594 64.777344 62.519531 64.769531 C 62.5625 64.816406 62.609375 64.863281 62.65625 64.902344 C 62.65625 64.867188 62.652344 64.832031 62.644531 64.796875 " fill-opacity="1" fill-rule="nonzero"/><path fill="#ff0000" d="M 62.65625 64.902344 C 62.65625 64.867188 62.652344 64.832031 62.644531 64.796875 C 62.605469 64.785156 62.558594 64.777344 62.519531 64.769531 C 62.199219 64.457031 61.882812 64.140625 61.570312 63.824219 C 60.859375 63.105469 60.15625 62.382812 59.421875 61.699219 C 59.152344 61.914062 58.796875 62.074219 58.640625 62.425781 C 58.5625 62.757812 58.894531 62.953125 59.070312 63.167969 C 60.226562 64.304688 61.359375 65.441406 62.5 66.597656 C 62.578125 66.675781 62.660156 66.761719 62.75 66.84375 C 62.890625 66.972656 63.054688 67.082031 63.261719 67.082031 C 63.558594 66.910156 63.808594 66.675781 63.945312 66.363281 C 63.730469 65.933594 63.355469 65.613281 63.046875 65.28125 C 62.917969 65.160156 62.785156 65.03125 62.65625 64.902344 " fill-opacity="1" fill-rule="nonzero"/><path fill="#ff0000" d="M 66.316406 62.660156 C 65.925781 62.914062 65.613281 63.34375 65.125 63.382812 C 64.257812 63.363281 63.59375 62.738281 63.046875 62.128906 C 62.617188 61.625 62.222656 60.957031 62.421875 60.269531 C 62.46875 60.1875 62.519531 60.109375 62.570312 60.03125 C 62.738281 59.78125 62.933594 59.554688 63.097656 59.304688 C 63.101562 59.296875 63.101562 59.292969 63.105469 59.289062 C 62.90625 58.976562 62.636719 58.546875 62.207031 58.742188 C 61.976562 58.890625 61.777344 59.082031 61.613281 59.304688 C 61.4375 59.519531 61.3125 59.769531 61.222656 60.03125 C 61.109375 60.359375 61.070312 60.707031 61.105469 61.054688 C 61.199219 61.984375 61.734375 62.835938 62.410156 63.480469 C 62.457031 63.53125 62.503906 63.574219 62.554688 63.621094 C 63.136719 64.167969 63.84375 64.609375 64.632812 64.707031 C 64.722656 64.722656 64.816406 64.734375 64.910156 64.734375 C 65.273438 64.746094 65.609375 64.648438 65.914062 64.476562 C 66.316406 64.257812 66.652344 63.921875 66.914062 63.542969 C 66.941406 63.511719 66.960938 63.476562 66.980469 63.445312 C 67.023438 63.050781 66.667969 62.738281 66.316406 62.660156 " fill-opacity="1" fill-rule="nonzero"/><path fill="#ff0000" d="M 58.53125 65.261719 C 58.367188 65.097656 58.207031 64.9375 58.050781 64.777344 C 58.214844 64.566406 58.367188 64.34375 58.53125 64.128906 C 58.578125 64.0625 58.628906 63.996094 58.679688 63.929688 C 58.640625 63.835938 58.585938 63.738281 58.53125 63.648438 C 58.367188 63.410156 58.140625 63.207031 57.855469 63.113281 C 57.84375 63.121094 57.835938 63.132812 57.824219 63.144531 C 57.226562 63.777344 56.570312 64.371094 55.9375 65.03125 C 55.761719 65.246094 55.488281 65.441406 55.542969 65.753906 C 55.703125 66.007812 55.917969 66.265625 56.226562 66.300781 C 56.527344 66.148438 56.78125 65.949219 57.050781 65.773438 C 57.316406 65.984375 57.578125 66.203125 57.832031 66.4375 C 58.070312 66.648438 58.300781 66.875 58.53125 67.105469 C 59.296875 67.859375 60.03125 68.667969 60.835938 69.398438 C 61.148438 69.183594 61.460938 68.96875 61.769531 68.710938 C 61.578125 68.398438 61.359375 68.066406 61.085938 67.808594 C 60.230469 66.972656 59.371094 66.117188 58.53125 65.261719 " fill-opacity="1" fill-rule="nonzero"/><path fill="#ff0000" d="M 67.824219 62.558594 C 68.101562 62.363281 68.492188 62.074219 68.394531 61.679688 C 67.980469 61.078125 67.289062 60.691406 66.984375 60.035156 C 66.945312 59.945312 66.910156 59.847656 66.882812 59.738281 C 67.125 59.820312 67.355469 59.921875 67.585938 60.035156 C 68.175781 60.316406 68.734375 60.648438 69.371094 60.820312 C 69.820312 60.757812 70.078125 60.308594 70.410156 60.035156 C 70 59.71875 69.535156 59.5 69.066406 59.296875 C 68.316406 58.992188 67.539062 58.742188 66.847656 58.3125 C 66.5 57.808594 66.371094 57.199219 66.203125 56.613281 C 66.074219 56.167969 65.925781 55.738281 65.652344 55.375 C 65.335938 55.609375 64.984375 55.902344 64.847656 56.332031 C 64.871094 56.421875 64.898438 56.519531 64.929688 56.613281 C 65.183594 57.460938 65.644531 58.242188 65.90625 59.113281 C 65.21875 58.503906 64.671875 57.765625 63.925781 57.25 C 63.460938 57.3125 63.261719 57.765625 63.023438 58.097656 C 63.417969 58.5 63.816406 58.90625 64.21875 59.304688 L 64.945312 60.03125 C 65.636719 60.714844 66.320312 61.402344 67 62.09375 C 67.238281 62.289062 67.472656 62.621094 67.824219 62.558594 " fill-opacity="1" fill-rule="nonzero"/><path fill="#ff0000" d="M 70.410156 52.574219 C 71.664062 53.628906 72.703125 54.902344 73.9375 55.976562 C 74.367188 56.351562 74.78125 55.707031 74.957031 55.351562 C 73.957031 53.960938 72.488281 52.941406 71.429688 51.589844 C 71.375 51.183594 71.878906 50.945312 71.878906 50.550781 C 71.78125 50.28125 71.527344 50.085938 71.292969 49.949219 C 70.976562 49.949219 70.765625 50.21875 70.550781 50.433594 C 69.917969 51.105469 69.195312 51.671875 68.707031 52.433594 C 68.941406 52.671875 69.179688 52.886719 69.414062 53.121094 C 69.746094 52.921875 70.019531 52.609375 70.410156 52.574219 " fill-opacity="1" fill-rule="nonzero"/><path fill="#ff0000" d="M 66.785156 55.449219 C 67.1875 55.828125 67.574219 56.21875 67.96875 56.613281 C 68.847656 57.492188 69.71875 58.394531 70.625 59.253906 C 70.640625 59.273438 70.660156 59.289062 70.675781 59.304688 C 70.789062 59.390625 70.929688 59.367188 71.054688 59.304688 L 71.0625 59.304688 C 71.171875 59.246094 71.277344 59.167969 71.351562 59.09375 C 71.859375 58.601562 72.390625 58.117188 72.839844 57.546875 C 72.957031 57.097656 72.308594 56.546875 71.941406 56.917969 C 71.609375 57.175781 71.292969 57.449219 70.976562 57.722656 C 70.605469 57.382812 70.207031 57.042969 69.917969 56.617188 C 69.902344 56.601562 69.894531 56.582031 69.882812 56.566406 C 70.078125 56.210938 70.371094 55.921875 70.605469 55.585938 C 70.785156 55.179688 70.238281 55 70 54.804688 C 69.726562 55.0625 69.488281 55.332031 69.179688 55.527344 C 68.671875 55.683594 68.332031 55.117188 68.0625 54.785156 C 68.117188 54.292969 68.648438 54.042969 68.863281 53.628906 C 68.804688 53.238281 68.472656 52.808594 68.039062 52.984375 C 67.472656 53.453125 66.925781 54.003906 66.433594 54.589844 C 66.183594 54.921875 66.570312 55.234375 66.785156 55.449219 " fill-opacity="1" fill-rule="nonzero"/><path fill="#ff0000" d="M 80.152344 70.0625 C 79.738281 70.003906 79.324219 69.980469 78.910156 69.953125 C 78.878906 69.425781 78.835938 68.886719 78.949219 68.355469 C 79.339844 68.25 79.753906 68.25 80.152344 68.179688 C 80.574219 68.015625 80.308594 67.5 80.28125 67.195312 C 79.90625 67.179688 79.542969 67.210938 79.1875 67.128906 C 78.714844 66.878906 78.878906 66.238281 78.917969 65.808594 C 79.308594 65.503906 79.859375 65.699219 80.308594 65.5625 C 80.542969 65.238281 80.613281 64.703125 80.183594 64.523438 C 79.445312 64.453125 78.675781 64.453125 77.910156 64.523438 C 77.496094 64.578125 77.554688 65.074219 77.554688 65.382812 C 77.59375 67.167969 77.523438 68.980469 77.578125 70.78125 C 77.554688 71.117188 77.96875 71.171875 78.203125 71.183594 C 78.910156 71.199219 79.625 71.230469 80.347656 71.140625 C 80.753906 70.90625 80.679688 70.0625 80.152344 70.0625 " fill-opacity="1" fill-rule="nonzero"/><path fill="#ff0000" d="M 83.757812 64.492188 C 82.839844 64.523438 81.929688 64.410156 81.042969 64.605469 C 81.042969 64.9375 81.054688 65.253906 81.054688 65.589844 C 81.425781 65.683594 81.839844 65.660156 82.148438 65.90625 C 82.289062 67.542969 82.125 69.175781 82.230469 70.808594 C 82.273438 71.375 83.019531 71.214844 83.398438 71.085938 C 83.675781 69.394531 83.351562 67.640625 83.5625 65.9375 C 83.8125 65.605469 84.339844 65.796875 84.617188 65.519531 C 84.738281 65.253906 84.699219 64.9375 84.628906 64.675781 C 84.40625 64.453125 84.058594 64.492188 83.757812 64.492188 " fill-opacity="1" fill-rule="nonzero"/><path fill="#ff0000" d="M 61.679688 73.59375 C 61.589844 73.675781 61.507812 73.757812 61.421875 73.84375 C 61.265625 74 61.089844 74.183594 60.90625 74.324219 C 60.660156 74.511719 60.390625 74.625 60.066406 74.488281 C 59.980469 74.441406 59.898438 74.394531 59.820312 74.332031 C 59.492188 74.089844 59.234375 73.757812 58.929688 73.46875 L 57.832031 72.371094 C 56.621094 71.164062 55.414062 69.949219 54.203125 68.742188 C 53.332031 67.871094 52.460938 66.996094 51.585938 66.125 C 51.335938 65.871094 51.078125 65.558594 51.136719 65.164062 C 51.234375 64.832031 51.507812 64.59375 51.726562 64.359375 C 52.554688 63.53125 53.382812 62.703125 54.210938 61.875 C 54.878906 61.214844 55.539062 60.546875 56.203125 59.882812 C 56.207031 59.878906 56.21875 59.871094 56.222656 59.863281 C 56.644531 59.445312 57.0625 59.027344 57.484375 58.605469 L 57.484375 58.601562 C 58.148438 57.941406 58.816406 57.273438 59.484375 56.605469 C 62.519531 53.578125 65.554688 50.542969 68.589844 47.515625 C 69.253906 46.914062 69.804688 46.242188 70.472656 45.695312 C 70.902344 45.421875 71.410156 45.675781 71.707031 46.027344 C 74.40625 48.75 77.132812 51.4375 79.832031 54.160156 C 80.261719 54.527344 80.167969 55.195312 79.734375 55.546875 L 78.667969 56.617188 C 77.769531 57.519531 76.875 58.414062 75.980469 59.308594 C 75.738281 59.554688 75.492188 59.800781 75.246094 60.039062 C 74.011719 61.28125 72.78125 62.511719 71.546875 63.746094 C 71.253906 64.039062 70.960938 64.332031 70.671875 64.621094 C 70.3125 64.980469 69.953125 65.339844 69.597656 65.691406 L 69.597656 65.695312 C 69.085938 66.203125 68.574219 66.710938 68.066406 67.222656 C 67.785156 67.503906 67.503906 67.785156 67.222656 68.066406 C 66.785156 68.5 66.347656 68.9375 65.914062 69.367188 C 64.5 70.777344 63.09375 72.179688 61.679688 73.59375 Z M 67.226562 69.078125 L 68.179688 68.128906 C 68.597656 67.703125 69.023438 67.277344 69.449219 66.859375 C 70.394531 65.90625 71.347656 64.960938 72.292969 64.007812 C 72.46875 63.835938 72.640625 63.660156 72.820312 63.484375 C 73.96875 62.339844 75.113281 61.1875 76.265625 60.039062 C 76.507812 59.796875 76.746094 59.554688 76.992188 59.308594 C 77.886719 58.414062 78.777344 57.523438 79.675781 56.625 C 79.679688 56.621094 79.679688 56.621094 79.683594 56.617188 C 80.15625 56.132812 80.789062 55.679688 80.851562 54.945312 C 80.988281 54.078125 80.242188 53.472656 79.695312 52.921875 C 77.152344 50.417969 74.664062 47.890625 72.136719 45.382812 C 71.726562 44.953125 71.074219 44.695312 70.472656 44.890625 C 70.152344 44.992188 69.882812 45.1875 69.648438 45.421875 C 65.921875 49.160156 62.183594 52.878906 58.453125 56.605469 L 58.085938 56.605469 C 58.0625 56.753906 58.035156 56.902344 58.003906 57.058594 C 56.875 58.1875 55.742188 59.3125 54.617188 60.445312 C 54.484375 60.464844 54.355469 60.484375 54.222656 60.5 L 54.222656 60.839844 C 53.128906 61.933594 52.03125 63.03125 50.941406 64.128906 C 50.296875 64.714844 50.273438 65.816406 50.902344 66.417969 C 51.996094 67.527344 53.09375 68.628906 54.203125 69.730469 C 55.511719 71.039062 56.828125 72.34375 58.125 73.660156 C 58.179688 73.730469 58.238281 73.804688 58.304688 73.867188 C 58.363281 73.921875 58.417969 73.972656 58.480469 74.019531 C 58.601562 74.136719 58.714844 74.253906 58.832031 74.371094 C 59.269531 74.800781 59.753906 75.273438 60.40625 75.253906 C 61.082031 75.273438 61.542969 74.78125 61.980469 74.324219 C 62.03125 74.269531 62.089844 74.214844 62.144531 74.15625 C 62.332031 73.96875 62.519531 73.785156 62.707031 73.59375 C 63.863281 72.441406 65.019531 71.285156 66.175781 70.128906 C 66.527344 69.777344 66.875 69.429688 67.226562 69.078125 " fill-opacity="1" fill-rule="nonzero"/><g clip-path="url(#b85cdc6716)"><path fill="#ff0000" d="M 92.054688 74.175781 C 91.25 74.257812 90.421875 74.476562 89.765625 74.996094 C 88.796875 75.6875 88.253906 76.863281 88.214844 78.039062 C 80.089844 78.0625 71.964844 78.035156 63.832031 78.035156 C 64.734375 77.128906 65.632812 76.230469 66.53125 75.328125 L 85.835938 75.328125 C 86.511719 75.3125 87.289062 75.453125 87.855469 74.964844 C 88.5625 74.453125 88.464844 73.496094 88.464844 72.722656 C 88.4375 69.148438 88.464844 65.605469 88.449219 62.039062 C 88.464844 61.449219 88.1875 60.8125 87.621094 60.519531 C 87.328125 60.367188 86.996094 60.3125 86.664062 60.3125 C 84.964844 60.316406 83.257812 60.316406 81.5625 60.316406 C 82.378906 59.503906 83.195312 58.683594 84.007812 57.863281 C 83.9375 57.789062 83.867188 57.707031 83.808594 57.625 L 88.1875 57.625 C 88.3125 58.46875 88.480469 59.386719 89.089844 60.050781 C 89.804688 60.960938 90.941406 61.40625 92.078125 61.519531 C 92.035156 65.742188 92.09375 69.953125 92.054688 74.175781 Z M 87.6875 73.691406 C 87.734375 74.257812 87.191406 74.664062 86.636719 74.605469 C 80.179688 74.617188 73.71875 74.613281 67.261719 74.601562 C 68.402344 73.460938 69.542969 72.324219 70.683594 71.183594 C 71.125 71.285156 71.601562 71.269531 72.039062 71.171875 C 72.34375 70.921875 72.316406 70.449219 72.121094 70.144531 C 72.007812 70.121094 71.890625 70.105469 71.773438 70.097656 C 72.1875 69.683594 72.597656 69.273438 73.011719 68.863281 C 73.011719 69.320312 73.011719 69.773438 73.007812 70.230469 C 73.035156 70.53125 72.964844 70.9375 73.257812 71.140625 C 73.59375 71.199219 74.074219 71.269531 74.28125 70.921875 C 74.4375 70.101562 74.128906 69.21875 74.585938 68.484375 C 74.988281 69.300781 75.128906 70.214844 75.582031 71.003906 C 75.945312 71.28125 76.441406 71.140625 76.871094 71.183594 C 76.691406 69.867188 75.875 68.746094 75.574219 67.445312 C 75.710938 66.671875 76.230469 66.027344 76.550781 65.328125 C 77.980469 63.902344 79.410156 62.476562 80.832031 61.042969 C 82.035156 61.042969 83.234375 61.050781 84.4375 61.050781 C 85.332031 61.089844 86.191406 61.003906 87.050781 61.089844 C 87.550781 61.195312 87.734375 61.738281 87.6875 62.195312 C 87.675781 66.035156 87.703125 69.855469 87.6875 73.691406 Z M 62.457031 77.683594 C 62.191406 77.417969 61.894531 77.203125 61.570312 77.03125 L 61.566406 77.03125 C 60.488281 76.476562 59.152344 76.449219 58.046875 76.960938 C 57.667969 77.128906 57.316406 77.367188 57.011719 77.664062 C 54.015625 74.683594 51.019531 71.710938 48.058594 68.691406 C 48.707031 67.867188 49.214844 66.847656 49.140625 65.773438 C 49.117188 64.8125 48.589844 63.972656 48.042969 63.207031 C 54.972656 56.292969 61.910156 49.359375 68.824219 42.445312 C 69.511719 42.957031 70.273438 43.484375 71.171875 43.519531 C 72.332031 43.65625 73.445312 43.171875 74.332031 42.445312 C 77.285156 45.460938 80.304688 48.398438 83.261719 51.417969 C 82.75 52.039062 82.320312 52.789062 82.222656 53.605469 C 82.042969 54.683594 82.402344 55.785156 83.078125 56.621094 L 83.082031 56.621094 C 83.144531 56.703125 83.210938 56.785156 83.28125 56.863281 C 82.46875 57.679688 81.65625 58.5 80.835938 59.3125 C 80.59375 59.558594 80.355469 59.800781 80.109375 60.039062 C 78.6875 61.472656 77.257812 62.902344 75.824219 64.324219 C 74.648438 65.507812 73.464844 66.679688 72.289062 67.859375 C 71.875 68.269531 71.464844 68.679688 71.050781 69.09375 L 71.046875 69.09375 C 70.6875 69.457031 70.324219 69.820312 69.960938 70.179688 C 68.820312 71.320312 67.675781 72.457031 66.535156 73.597656 L 65.808594 74.324219 C 64.910156 75.226562 64.007812 76.128906 63.105469 77.03125 C 62.890625 77.246094 62.671875 77.46875 62.457031 77.683594 Z M 70.0625 34.203125 C 54.585938 34.203125 42.039062 46.75 42.039062 62.226562 C 42.039062 77.699219 54.585938 90.246094 70.0625 90.246094 C 85.539062 90.246094 98.082031 77.699219 98.082031 62.226562 C 98.082031 46.75 85.539062 34.203125 70.0625 34.203125 " fill-opacity="1" fill-rule="nonzero"/></g><g clip-path="url(#392d188833)"><path fill="#ff0000" d="M 91.378906 91.246094 L 47.632812 91.246094 C 44.554688 91.246094 42.066406 88.75 42.066406 85.679688 C 42.066406 82.601562 44.554688 80.113281 47.632812 80.113281 L 91.378906 80.113281 C 94.449219 80.113281 96.945312 82.601562 96.945312 85.679688 C 96.945312 88.75 94.457031 91.246094 91.378906 91.246094 Z M 91.378906 91.246094 " fill-opacity="1" fill-rule="nonzero"/></g><g clip-path="url(#db65af8d63)"><path fill="#1d1d1b" d="M 94.960938 85.160156 C 94.660156 85.03125 94.324219 85.023438 94.015625 85.140625 C 93.8125 85.222656 93.640625 85.351562 93.511719 85.511719 C 93.417969 85.433594 93.320312 85.371094 93.203125 85.320312 C 92.898438 85.191406 92.566406 85.1875 92.257812 85.304688 C 92.046875 85.382812 91.875 85.519531 91.742188 85.679688 C 91.65625 85.605469 91.558594 85.542969 91.445312 85.5 C 91.144531 85.371094 90.8125 85.363281 90.5 85.480469 C 90.351562 85.542969 90.21875 85.628906 90.105469 85.734375 L 89.390625 83.914062 C 89.265625 83.605469 89.039062 83.363281 88.734375 83.234375 C 88.433594 83.105469 88.097656 83.097656 87.789062 83.214844 C 87.160156 83.460938 86.84375 84.183594 87.089844 84.816406 L 89.03125 89.738281 L 87.695312 89.15625 C 87.351562 89.011719 86.972656 89.003906 86.621094 89.140625 C 86.277344 89.277344 85.996094 89.542969 85.847656 89.886719 C 85.539062 90.597656 85.867188 91.425781 86.578125 91.734375 L 90.488281 93.433594 L 90.75 94.09375 C 91.03125 94.816406 91.855469 95.175781 92.578125 94.890625 L 96.976562 93.15625 C 97.699219 92.871094 98.058594 92.050781 97.773438 91.328125 L 95.609375 85.835938 C 95.5 85.539062 95.265625 85.289062 94.960938 85.160156 Z M 97.0625 91.617188 C 97.191406 91.945312 97.03125 92.316406 96.703125 92.445312 L 92.304688 94.179688 C 91.976562 94.3125 91.609375 94.148438 91.476562 93.824219 L 91.15625 93.007812 C 91.121094 92.914062 91.046875 92.835938 90.953125 92.796875 L 86.898438 91.035156 C 86.585938 90.902344 86.4375 90.53125 86.574219 90.207031 C 86.640625 90.046875 86.769531 89.929688 86.917969 89.875 C 87.066406 89.8125 87.238281 89.8125 87.398438 89.882812 L 89.59375 90.832031 C 89.734375 90.894531 89.902344 90.863281 90.019531 90.757812 C 90.136719 90.652344 90.167969 90.488281 90.113281 90.339844 L 87.828125 84.542969 C 87.734375 84.308594 87.851562 84.042969 88.085938 83.945312 C 88.199219 83.902344 88.328125 83.902344 88.4375 83.949219 C 88.550781 84 88.636719 84.085938 88.683594 84.203125 L 90.898438 89.8125 C 90.976562 90.011719 91.199219 90.109375 91.398438 90.03125 C 91.59375 89.949219 91.695312 89.726562 91.613281 89.527344 L 90.546875 86.808594 C 90.453125 86.574219 90.570312 86.308594 90.804688 86.210938 C 90.914062 86.167969 91.046875 86.167969 91.15625 86.21875 C 91.269531 86.265625 91.355469 86.351562 91.402344 86.46875 L 92.472656 89.1875 C 92.554688 89.386719 92.773438 89.484375 92.972656 89.40625 C 93.171875 89.324219 93.269531 89.101562 93.1875 88.90625 L 92.292969 86.625 C 92.199219 86.390625 92.316406 86.125 92.554688 86.027344 C 92.664062 85.984375 92.792969 85.984375 92.90625 86.03125 C 93.015625 86.082031 93.101562 86.167969 93.152344 86.285156 L 94.042969 88.539062 C 94.121094 88.738281 94.34375 88.835938 94.542969 88.757812 C 94.738281 88.675781 94.839844 88.453125 94.757812 88.257812 L 94.046875 86.457031 C 93.957031 86.222656 94.074219 85.957031 94.308594 85.859375 C 94.417969 85.816406 94.546875 85.816406 94.660156 85.863281 C 94.769531 85.914062 94.855469 86 94.90625 86.117188 Z M 97.0625 91.617188 " fill-opacity="1" fill-rule="nonzero"/></g><g clip-path="url(#a8ab95e76c)"><path fill="#f6f6f6" d="M 94.902344 86.125 L 97.0625 91.617188 C 97.191406 91.945312 97.03125 92.316406 96.703125 92.445312 L 92.304688 94.179688 C 91.976562 94.3125 91.609375 94.148438 91.476562 93.824219 L 91.15625 93.007812 C 91.121094 92.914062 91.046875 92.835938 90.953125 92.796875 L 86.898438 91.035156 C 86.585938 90.902344 86.4375 90.53125 86.574219 90.207031 C 86.640625 90.046875 86.769531 89.929688 86.917969 89.875 C 87.066406 89.8125 87.238281 89.8125 87.398438 89.882812 L 89.59375 90.832031 C 89.734375 90.894531 89.902344 90.863281 90.019531 90.757812 C 90.136719 90.652344 90.167969 90.488281 90.113281 90.339844 L 87.828125 84.542969 C 87.734375 84.308594 87.851562 84.042969 88.085938 83.945312 C 88.199219 83.902344 88.328125 83.902344 88.4375 83.949219 C 88.550781 84 88.636719 84.085938 88.683594 84.203125 L 90.898438 89.8125 C 90.976562 90.011719 91.199219 90.109375 91.398438 90.03125 C 91.59375 89.949219 91.695312 89.726562 91.613281 89.527344 L 90.546875 86.808594 C 90.453125 86.574219 90.570312 86.308594 90.804688 86.210938 C 90.914062 86.167969 91.046875 86.167969 91.15625 86.21875 C 91.269531 86.265625 91.355469 86.351562 91.402344 86.46875 L 92.472656 89.1875 C 92.554688 89.386719 92.773438 89.484375 92.972656 89.40625 C 93.171875 89.324219 93.269531 89.101562 93.1875 88.90625 L 92.292969 86.625 C 92.199219 86.390625 92.316406 86.125 92.554688 86.027344 C 92.664062 85.984375 92.792969 85.984375 92.90625 86.03125 C 93.015625 86.082031 93.101562 86.167969 93.152344 86.285156 L 94.042969 88.539062 C 94.121094 88.738281 94.34375 88.835938 94.542969 88.757812 C 94.738281 88.675781 94.839844 88.453125 94.757812 88.257812 L 94.046875 86.457031 C 93.957031 86.222656 94.074219 85.957031 94.308594 85.859375 C 94.417969 85.816406 94.546875 85.816406 94.660156 85.863281 C 94.765625 85.921875 94.855469 86.011719 94.902344 86.125 Z M 94.902344 86.125 " fill-opacity="1" fill-rule="nonzero"/></g><path fill="#f6f6f6" d="M 49.269531 87.027344 L 49.8125 88.113281 C 49.8125 88.113281 49.1875 88.625 47.976562 88.625 C 46.394531 88.625 44.949219 87.34375 44.949219 85.742188 C 44.945312 84.128906 46.390625 82.832031 47.972656 82.832031 C 49.183594 82.832031 49.804688 83.34375 49.804688 83.34375 L 49.261719 84.433594 C 49.261719 84.433594 48.816406 84.085938 48.164062 84.085938 C 46.890625 84.085938 46.328125 84.976562 46.328125 85.722656 C 46.328125 86.476562 46.890625 87.371094 48.167969 87.371094 C 48.816406 87.371094 49.269531 87.027344 49.269531 87.027344 Z M 49.269531 87.027344 " fill-opacity="1" fill-rule="nonzero"/><path fill="#f6f6f6" d="M 51.386719 87.402344 L 53.316406 87.402344 L 53.316406 88.523438 L 50.113281 88.523438 L 50.113281 82.929688 L 51.386719 82.929688 Z M 51.386719 87.402344 " fill-opacity="1" fill-rule="nonzero"/><path fill="#f6f6f6" d="M 53.679688 82.929688 L 54.953125 82.929688 L 54.953125 88.523438 L 53.679688 88.523438 Z M 53.679688 82.929688 " fill-opacity="1" fill-rule="nonzero"/><path fill="#f6f6f6" d="M 59.714844 87.027344 L 60.257812 88.113281 C 60.257812 88.113281 59.636719 88.625 58.425781 88.625 C 56.84375 88.625 55.398438 87.34375 55.398438 85.742188 C 55.398438 84.136719 56.84375 82.832031 58.425781 82.832031 C 59.636719 82.832031 60.257812 83.34375 60.257812 83.34375 L 59.714844 84.433594 C 59.714844 84.433594 59.269531 84.085938 58.617188 84.085938 C 57.335938 84.085938 56.773438 84.980469 56.773438 85.722656 C 56.773438 86.476562 57.335938 87.371094 58.617188 87.371094 C 59.269531 87.371094 59.714844 87.027344 59.714844 87.027344 Z M 59.714844 87.027344 " fill-opacity="1" fill-rule="nonzero"/><path fill="#f6f6f6" d="M 63.898438 88.523438 L 61.835938 86.148438 L 61.835938 88.523438 L 60.5625 88.523438 L 60.5625 82.929688 L 61.835938 82.929688 L 61.835938 85.214844 L 63.75 82.929688 L 65.292969 82.929688 L 63.046875 85.582031 L 65.648438 88.523438 Z M 63.898438 88.523438 " fill-opacity="1" fill-rule="nonzero"/><path fill="#f6f6f6" d="M 69.019531 88.523438 L 67.746094 88.523438 L 67.746094 82.929688 L 69.019531 82.929688 L 69.019531 85.160156 L 70.824219 85.160156 L 70.824219 82.929688 L 72.097656 82.929688 L 72.097656 88.523438 L 70.824219 88.523438 L 70.824219 86.277344 L 69.019531 86.277344 Z M 69.019531 88.523438 " fill-opacity="1" fill-rule="nonzero"/><path fill="#f6f6f6" d="M 76.019531 84.050781 L 74.09375 84.050781 L 74.09375 85.160156 L 75.933594 85.160156 L 75.933594 86.277344 L 74.09375 86.277344 L 74.09375 87.402344 L 76.019531 87.402344 L 76.019531 88.523438 L 72.820312 88.523438 L 72.820312 82.929688 L 76.019531 82.929688 Z M 76.019531 84.050781 " fill-opacity="1" fill-rule="nonzero"/><path fill="#f6f6f6" d="M 78.632812 82.929688 C 79.671875 82.929688 80.457031 83.492188 80.457031 84.59375 C 80.457031 85.433594 79.992188 85.996094 79.3125 86.210938 L 81.242188 88.523438 L 79.621094 88.523438 L 77.917969 86.308594 L 77.917969 88.523438 L 76.644531 88.523438 L 76.644531 82.929688 Z M 78.054688 85.414062 C 78.535156 85.414062 79.109375 85.382812 79.109375 84.683594 C 79.109375 83.988281 78.535156 83.957031 78.054688 83.957031 L 77.90625 83.957031 L 77.90625 85.421875 L 78.054688 85.421875 Z M 78.054688 85.414062 " fill-opacity="1" fill-rule="nonzero"/><path fill="#f6f6f6" d="M 84.632812 84.050781 L 82.703125 84.050781 L 82.703125 85.160156 L 84.546875 85.160156 L 84.546875 86.277344 L 82.703125 86.277344 L 82.703125 87.402344 L 84.632812 87.402344 L 84.632812 88.523438 L 81.433594 88.523438 L 81.433594 82.929688 L 84.632812 82.929688 Z M 84.632812 84.050781 " fill-opacity="1" fill-rule="nonzero"/></svg>