<svg xmlns="http://www.w3.org/2000/svg" xmlns:xlink="http://www.w3.org/1999/xlink" width="188" zoomAndPan="magnify" viewBox="0 0 141.75 141.749996" height="188" preserveAspectRatio="xMidYMid meet" version="1.0"><defs><g/><clipPath id="d4995e849e"><path d="M 7.074219 59 L 127.824219 59 L 127.824219 85 L 7.074219 85 Z M 7.074219 59 " clip-rule="nonzero"/></clipPath><clipPath id="71c1816d1f"><path d="M 7.074219 58.863281 L 127.824219 58.863281 L 127.824219 85.050781 L 7.074219 85.050781 Z M 7.074219 58.863281 " clip-rule="nonzero"/></clipPath><clipPath id="31f438f711"><path d="M 107.34375 60.125 L 120.53125 60.125 L 120.53125 83.375 L 107.34375 83.375 Z M 107.34375 60.125 " clip-rule="nonzero"/></clipPath><clipPath id="8d56b74057"><path d="M 103.28125 64 L 117 64 L 117 81 L 103.28125 81 Z M 103.28125 64 " clip-rule="nonzero"/></clipPath><clipPath id="54f94da8b8"><path d="M 119 62 L 120.53125 62 L 120.53125 83.375 L 119 83.375 Z M 119 62 " clip-rule="nonzero"/></clipPath><clipPath id="c7898af006"><path d="M 111 62 L 120 62 L 120 83.375 L 111 83.375 Z M 111 62 " clip-rule="nonzero"/></clipPath><clipPath id="2e3c20b897"><path d="M 8.039062 59.507812 L 32.789062 59.507812 L 32.789062 84.257812 L 8.039062 84.257812 Z M 8.039062 59.507812 " clip-rule="nonzero"/></clipPath></defs><g clip-path="url(#d4995e849e)"><path fill="#ff9900" d="M 114.734375 84.613281 L 20.171875 84.613281 C 13.179688 84.613281 7.511719 78.945312 7.511719 71.957031 C 7.511719 64.96875 13.179688 59.304688 20.171875 59.304688 L 114.734375 59.304688 C 121.722656 59.304688 127.394531 64.96875 127.394531 71.957031 C 127.394531 78.945312 121.722656 84.613281 114.734375 84.613281 " fill-opacity="1" fill-rule="nonzero"/></g><g clip-path="url(#71c1816d1f)"><path fill="#ff9900" d="M 20.171875 59.742188 C 13.433594 59.742188 7.949219 65.222656 7.949219 71.957031 C 7.949219 78.695312 13.433594 84.175781 20.171875 84.175781 L 114.734375 84.175781 C 121.472656 84.175781 126.953125 78.695312 126.953125 71.957031 C 126.953125 65.222656 121.472656 59.742188 114.734375 59.742188 Z M 114.734375 85.050781 L 20.171875 85.050781 C 12.949219 85.050781 7.074219 79.175781 7.074219 71.957031 C 7.074219 64.738281 12.949219 58.867188 20.171875 58.867188 L 114.734375 58.867188 C 121.957031 58.867188 127.832031 64.738281 127.832031 71.957031 C 127.832031 79.175781 121.957031 85.050781 114.734375 85.050781 " fill-opacity="1" fill-rule="nonzero"/></g><path fill="#ff9900" d="M 22.980469 74.933594 L 24.863281 74.933594 C 25.824219 74.933594 26.488281 74.484375 26.488281 73.535156 C 26.488281 72.707031 25.957031 72.152344 24.671875 72.152344 L 22.980469 72.152344 Z M 24.722656 71.316406 C 25.828125 71.316406 26.257812 70.882812 26.257812 70.136719 C 26.257812 69.464844 25.773438 68.980469 24.878906 68.980469 L 22.980469 68.980469 L 22.980469 71.316406 Z M 21.988281 68.148438 L 24.914062 68.148438 C 26.527344 68.148438 27.277344 68.992188 27.277344 70.050781 C 27.277344 70.9375 26.769531 71.511719 26.183594 71.710938 C 26.714844 71.878906 27.527344 72.417969 27.527344 73.535156 C 27.527344 74.972656 26.433594 75.769531 24.984375 75.769531 L 21.988281 75.769531 L 21.988281 68.148438 " fill-opacity="1" fill-rule="nonzero"/><path fill="#ff9900" d="M 29.703125 71.925781 C 29.703125 73.574219 30.542969 75.015625 32.183594 75.015625 C 33.953125 75.015625 34.660156 73.558594 34.660156 71.929688 C 34.660156 70.285156 33.863281 68.898438 32.1875 68.898438 C 30.457031 68.898438 29.703125 70.300781 29.703125 71.925781 Z M 35.71875 71.914062 C 35.71875 74.011719 34.542969 75.878906 32.140625 75.878906 C 29.894531 75.878906 28.644531 74.144531 28.644531 71.957031 C 28.644531 69.777344 29.921875 68.039062 32.230469 68.039062 C 34.375 68.039062 35.71875 69.648438 35.71875 71.914062 " fill-opacity="1" fill-rule="nonzero"/><path fill="#ff9900" d="M 37.933594 71.925781 C 37.933594 73.574219 38.773438 75.015625 40.414062 75.015625 C 42.1875 75.015625 42.890625 73.558594 42.890625 71.929688 C 42.890625 70.285156 42.089844 68.898438 40.417969 68.898438 C 38.691406 68.898438 37.933594 70.300781 37.933594 71.925781 Z M 43.949219 71.914062 C 43.949219 74.011719 42.773438 75.878906 40.371094 75.878906 C 38.125 75.878906 36.875 74.144531 36.875 71.957031 C 36.875 69.777344 38.152344 68.039062 40.457031 68.039062 C 42.605469 68.039062 43.949219 69.648438 43.949219 71.914062 " fill-opacity="1" fill-rule="nonzero"/><path fill="#ff9900" d="M 45.527344 68.148438 L 46.53125 68.148438 L 46.53125 71.886719 C 47.101562 71.296875 49.035156 69.382812 50.238281 68.148438 L 51.496094 68.148438 L 48.21875 71.359375 L 51.660156 75.769531 L 50.433594 75.769531 L 47.507812 72.015625 L 46.53125 72.898438 L 46.53125 75.769531 L 45.527344 75.769531 L 45.527344 68.148438 " fill-opacity="1" fill-rule="nonzero"/><path fill="#ff9900" d="M 55.304688 75.769531 L 55.304688 68.148438 L 56.644531 68.148438 C 57.738281 69.929688 60.117188 73.71875 60.542969 74.546875 L 60.558594 74.546875 C 60.484375 73.570312 60.492188 72.367188 60.492188 71.121094 L 60.492188 68.148438 L 61.449219 68.148438 L 61.449219 75.769531 L 60.191406 75.769531 C 59.183594 74.113281 56.703125 70.035156 56.222656 69.179688 L 56.210938 69.179688 C 56.261719 70.046875 56.265625 71.339844 56.265625 72.714844 L 56.265625 75.769531 L 55.304688 75.769531 " fill-opacity="1" fill-rule="nonzero"/><path fill="#ff9900" d="M 64.089844 71.925781 C 64.089844 73.574219 64.933594 75.015625 66.574219 75.015625 C 68.34375 75.015625 69.050781 73.558594 69.050781 71.929688 C 69.050781 70.285156 68.25 68.898438 66.578125 68.898438 C 64.847656 68.898438 64.089844 70.300781 64.089844 71.925781 Z M 70.109375 71.914062 C 70.109375 74.011719 68.933594 75.878906 66.53125 75.878906 C 64.285156 75.878906 63.03125 74.144531 63.03125 71.957031 C 63.03125 69.777344 64.3125 68.039062 66.617188 68.039062 C 68.765625 68.039062 70.109375 69.648438 70.109375 71.914062 " fill-opacity="1" fill-rule="nonzero"/><path fill="#ff9900" d="M 72.941406 75.769531 L 70.898438 68.148438 L 71.964844 68.148438 C 72.558594 70.644531 73.382812 73.796875 73.523438 74.667969 L 73.53125 74.667969 C 73.734375 73.683594 74.78125 70.09375 75.277344 68.148438 L 76.261719 68.148438 C 76.722656 69.847656 77.761719 73.71875 77.933594 74.628906 L 77.945312 74.628906 C 78.191406 73.3125 79.253906 69.710938 79.675781 68.148438 L 80.675781 68.148438 L 78.449219 75.769531 L 77.363281 75.769531 C 76.898438 74.015625 75.917969 70.382812 75.734375 69.46875 L 75.722656 69.46875 C 75.496094 70.605469 74.511719 74.019531 74.023438 75.769531 L 72.941406 75.769531 " fill-opacity="1" fill-rule="nonzero"/><path fill="#ff9900" d="M 112.960938 63.46875 C 108.28125 63.46875 104.46875 67.277344 104.46875 71.957031 C 104.46875 76.636719 108.28125 80.445312 112.960938 80.445312 C 117.644531 80.445312 121.453125 76.636719 121.453125 71.957031 C 121.453125 67.277344 117.644531 63.46875 112.960938 63.46875 Z M 112.960938 81.320312 C 107.796875 81.320312 103.59375 77.121094 103.59375 71.957031 C 103.59375 66.796875 107.796875 62.59375 112.960938 62.59375 C 118.128906 62.59375 122.328125 66.796875 122.328125 71.957031 C 122.328125 77.121094 118.128906 81.320312 112.960938 81.320312 " fill-opacity="1" fill-rule="nonzero"/><path fill="#ff9900" d="M 111.796875 76.46875 L 110.910156 75.585938 L 114.539062 71.957031 L 110.910156 68.332031 L 111.796875 67.445312 L 116.308594 71.957031 L 111.796875 76.46875 " fill-opacity="1" fill-rule="nonzero"/><g clip-path="url(#31f438f711)"><path fill="#37a42c" d="M 120.53125 62.882812 C 120.53125 63.164062 120.308594 63.390625 120.03125 63.390625 L 107.855469 63.390625 C 107.582031 63.390625 107.355469 63.164062 107.355469 62.882812 L 107.355469 60.632812 C 107.355469 60.355469 107.582031 60.125 107.855469 60.125 L 120.03125 60.125 C 120.308594 60.125 120.53125 60.355469 120.53125 60.632812 Z M 120.53125 67.265625 C 120.53125 66.988281 120.308594 66.757812 120.03125 66.757812 L 111.449219 66.757812 C 111.175781 66.757812 110.949219 66.988281 110.949219 67.265625 L 110.949219 67.886719 C 110.949219 68.164062 111.175781 68.390625 111.449219 68.390625 L 120.03125 68.390625 C 120.308594 68.390625 120.53125 68.164062 120.53125 67.886719 Z M 120.53125 73.871094 C 120.53125 73.589844 120.308594 73.363281 120.03125 73.363281 L 107.855469 73.363281 C 107.582031 73.363281 107.355469 73.589844 107.355469 73.871094 L 107.355469 75.347656 C 107.355469 75.625 107.582031 75.851562 107.855469 75.851562 L 120.03125 75.851562 C 120.308594 75.851562 120.53125 75.625 120.53125 75.347656 Z M 120.433594 82.203125 C 120.433594 81.921875 120.210938 81.695312 119.933594 81.695312 L 111.367188 81.695312 C 111.09375 81.695312 110.871094 81.921875 110.871094 82.203125 L 110.871094 82.871094 C 110.871094 83.148438 111.09375 83.375 111.367188 83.375 L 119.933594 83.375 C 120.210938 83.375 120.433594 83.148438 120.433594 82.871094 L 120.433594 82.203125 " fill-opacity="1" fill-rule="nonzero"/></g><g clip-path="url(#8d56b74057)"><path fill="#ffffff" d="M 112.929688 65.410156 C 112.929688 65.6875 112.703125 65.914062 112.429688 65.914062 L 103.863281 65.914062 C 103.589844 65.914062 103.363281 65.6875 103.363281 65.410156 L 103.363281 64.742188 C 103.363281 64.460938 103.589844 64.234375 103.863281 64.234375 L 112.429688 64.234375 C 112.703125 64.234375 112.929688 64.460938 112.929688 64.742188 Z M 116.539062 69.742188 C 116.539062 69.464844 116.316406 69.238281 116.039062 69.238281 L 103.863281 69.238281 C 103.589844 69.238281 103.363281 69.464844 103.363281 69.742188 L 103.363281 72.011719 C 103.363281 72.289062 103.589844 72.519531 103.863281 72.519531 L 116.039062 72.519531 C 116.316406 72.519531 116.539062 72.289062 116.539062 72.011719 Z M 112.929688 77.183594 C 112.929688 76.90625 112.703125 76.675781 112.429688 76.675781 L 103.863281 76.675781 C 103.589844 76.675781 103.363281 76.90625 103.363281 77.183594 L 103.363281 77.835938 C 103.363281 78.113281 103.589844 78.339844 103.863281 78.339844 L 112.429688 78.339844 C 112.703125 78.339844 112.929688 78.113281 112.929688 77.835938 Z M 116.457031 79.691406 C 116.457031 79.414062 116.230469 79.1875 115.957031 79.1875 L 103.78125 79.1875 C 103.507812 79.1875 103.28125 79.414062 103.28125 79.691406 L 103.28125 80.34375 C 103.28125 80.625 103.507812 80.851562 103.78125 80.851562 L 115.957031 80.851562 C 116.230469 80.851562 116.457031 80.625 116.457031 80.34375 L 116.457031 79.691406 " fill-opacity="1" fill-rule="nonzero"/></g><g clip-path="url(#54f94da8b8)"><path fill="#37a42c" d="M 119.648438 63.144531 L 119.460938 62.957031 L 119.511719 62.90625 L 119.648438 63.042969 L 119.929688 62.757812 L 119.980469 62.808594 Z M 120.152344 62.808594 L 120.105469 62.757812 L 119.824219 63.042969 L 119.6875 62.90625 L 119.636719 62.957031 L 119.824219 63.144531 Z M 119.980469 67.8125 L 119.929688 67.761719 L 119.648438 68.046875 L 119.511719 67.90625 L 119.460938 67.957031 L 119.648438 68.144531 Z M 120.152344 67.8125 L 120.105469 67.761719 L 119.824219 68.046875 L 119.6875 67.90625 L 119.636719 67.957031 L 119.824219 68.144531 Z M 119.980469 75.273438 L 119.929688 75.222656 L 119.648438 75.507812 L 119.511719 75.371094 L 119.460938 75.417969 L 119.648438 75.605469 Z M 120.152344 75.273438 L 120.105469 75.222656 L 119.824219 75.507812 L 119.6875 75.371094 L 119.636719 75.417969 L 119.824219 75.605469 Z M 119.882812 82.792969 L 119.832031 82.746094 L 119.550781 83.03125 L 119.414062 82.890625 L 119.367188 82.941406 L 119.550781 83.128906 Z M 120.054688 82.792969 L 120.007812 82.746094 L 119.726562 83.03125 L 119.589844 82.890625 L 119.539062 82.941406 L 119.726562 83.128906 L 120.054688 82.792969 " fill-opacity="1" fill-rule="nonzero"/></g><g clip-path="url(#c7898af006)"><path fill="#37a42c" d="M 118.15625 63.144531 L 118.089844 63.144531 L 118.089844 62.882812 C 118.0625 62.90625 118.035156 62.925781 118 62.933594 L 118 62.871094 C 118.019531 62.867188 118.039062 62.855469 118.058594 62.839844 C 118.078125 62.820312 118.09375 62.804688 118.101562 62.78125 L 118.15625 62.78125 Z M 118.40625 63.144531 L 118.339844 63.144531 L 118.339844 62.882812 C 118.3125 62.90625 118.285156 62.925781 118.25 62.933594 L 118.25 62.871094 C 118.269531 62.867188 118.289062 62.855469 118.308594 62.839844 C 118.328125 62.820312 118.34375 62.804688 118.351562 62.78125 L 118.40625 62.78125 Z M 118.539062 62.953125 L 118.539062 62.882812 L 118.605469 62.882812 L 118.605469 62.953125 Z M 118.539062 63.144531 L 118.539062 63.074219 L 118.605469 63.074219 L 118.605469 63.144531 Z M 118.792969 62.78125 C 118.828125 62.78125 118.855469 62.792969 118.875 62.816406 C 118.894531 62.847656 118.90625 62.898438 118.90625 62.964844 C 118.90625 63.035156 118.894531 63.082031 118.871094 63.113281 C 118.855469 63.136719 118.828125 63.152344 118.792969 63.152344 C 118.757812 63.152344 118.730469 63.136719 118.707031 63.109375 C 118.6875 63.082031 118.675781 63.035156 118.675781 62.964844 C 118.675781 62.898438 118.6875 62.847656 118.710938 62.816406 C 118.730469 62.792969 118.757812 62.78125 118.792969 62.78125 Z M 118.792969 62.839844 C 118.785156 62.839844 118.777344 62.839844 118.769531 62.847656 C 118.761719 62.851562 118.757812 62.859375 118.753906 62.875 C 118.75 62.894531 118.746094 62.921875 118.746094 62.964844 C 118.746094 63.007812 118.75 63.039062 118.753906 63.054688 C 118.757812 63.070312 118.761719 63.078125 118.769531 63.085938 C 118.777344 63.089844 118.785156 63.09375 118.792969 63.09375 C 118.800781 63.09375 118.808594 63.089844 118.8125 63.085938 C 118.820312 63.078125 118.824219 63.070312 118.828125 63.054688 C 118.832031 63.039062 118.835938 63.007812 118.835938 62.964844 C 118.835938 62.921875 118.835938 62.894531 118.828125 62.878906 C 118.824219 62.863281 118.820312 62.851562 118.8125 62.847656 C 118.808594 62.839844 118.800781 62.839844 118.792969 62.839844 Z M 119.183594 63.078125 L 119.183594 63.144531 L 118.945312 63.144531 C 118.949219 63.121094 118.957031 63.097656 118.96875 63.074219 C 118.980469 63.054688 119.007812 63.023438 119.046875 62.988281 C 119.078125 62.960938 119.09375 62.9375 119.101562 62.929688 C 119.113281 62.914062 119.117188 62.902344 119.117188 62.886719 C 119.117188 62.871094 119.113281 62.859375 119.105469 62.851562 C 119.097656 62.84375 119.085938 62.839844 119.070312 62.839844 C 119.054688 62.839844 119.042969 62.84375 119.035156 62.851562 C 119.027344 62.859375 119.023438 62.875 119.019531 62.894531 L 118.953125 62.886719 C 118.957031 62.851562 118.96875 62.820312 118.992188 62.804688 C 119.011719 62.789062 119.039062 62.78125 119.070312 62.78125 C 119.105469 62.78125 119.132812 62.789062 119.15625 62.808594 C 119.175781 62.828125 119.183594 62.851562 119.183594 62.882812 C 119.183594 62.898438 119.183594 62.914062 119.175781 62.929688 C 119.171875 62.941406 119.160156 62.957031 119.148438 62.972656 C 119.140625 62.984375 119.125 63 119.105469 63.019531 C 119.082031 63.039062 119.070312 63.054688 119.0625 63.0625 C 119.058594 63.066406 119.050781 63.074219 119.050781 63.078125 Z M 118.15625 68.144531 L 118.089844 68.144531 L 118.089844 67.882812 C 118.0625 67.90625 118.035156 67.925781 118 67.9375 L 118 67.875 C 118.019531 67.867188 118.039062 67.855469 118.058594 67.839844 C 118.078125 67.824219 118.09375 67.804688 118.101562 67.78125 L 118.15625 67.78125 Z M 118.40625 68.144531 L 118.339844 68.144531 L 118.339844 67.882812 C 118.3125 67.90625 118.285156 67.925781 118.25 67.9375 L 118.25 67.875 C 118.269531 67.867188 118.289062 67.855469 118.308594 67.839844 C 118.328125 67.824219 118.34375 67.804688 118.351562 67.78125 L 118.40625 67.78125 Z M 118.539062 67.953125 L 118.539062 67.882812 L 118.605469 67.882812 L 118.605469 67.953125 Z M 118.539062 68.144531 L 118.539062 68.078125 L 118.605469 68.078125 L 118.605469 68.144531 Z M 118.851562 68.144531 L 118.78125 68.144531 L 118.78125 67.882812 C 118.757812 67.90625 118.726562 67.925781 118.695312 67.9375 L 118.695312 67.875 C 118.710938 67.867188 118.730469 67.855469 118.753906 67.839844 C 118.773438 67.824219 118.789062 67.804688 118.796875 67.78125 L 118.851562 67.78125 Z M 118.953125 68.054688 L 119.023438 68.046875 C 119.023438 68.0625 119.03125 68.074219 119.039062 68.082031 C 119.050781 68.09375 119.0625 68.097656 119.074219 68.097656 C 119.085938 68.097656 119.101562 68.089844 119.109375 68.078125 C 119.121094 68.066406 119.125 68.050781 119.125 68.027344 C 119.125 68.003906 119.121094 67.988281 119.109375 67.976562 C 119.101562 67.964844 119.085938 67.957031 119.070312 67.957031 C 119.050781 67.957031 119.035156 67.96875 119.019531 67.984375 L 118.964844 67.976562 L 119 67.789062 L 119.179688 67.789062 L 119.179688 67.855469 L 119.050781 67.855469 L 119.039062 67.914062 C 119.054688 67.90625 119.070312 67.902344 119.085938 67.902344 C 119.117188 67.902344 119.140625 67.914062 119.164062 67.9375 C 119.183594 67.960938 119.195312 67.988281 119.195312 68.023438 C 119.195312 68.054688 119.1875 68.082031 119.167969 68.105469 C 119.144531 68.136719 119.113281 68.152344 119.074219 68.152344 C 119.039062 68.152344 119.011719 68.144531 118.992188 68.125 C 118.972656 68.105469 118.957031 68.082031 118.953125 68.054688 Z M 118.15625 75.605469 L 118.089844 75.605469 L 118.089844 75.34375 C 118.0625 75.371094 118.035156 75.386719 118 75.398438 L 118 75.335938 C 118.019531 75.328125 118.039062 75.316406 118.058594 75.300781 C 118.078125 75.285156 118.09375 75.265625 118.101562 75.242188 L 118.15625 75.242188 Z M 118.40625 75.605469 L 118.339844 75.605469 L 118.339844 75.34375 C 118.3125 75.371094 118.285156 75.386719 118.25 75.398438 L 118.25 75.335938 C 118.269531 75.328125 118.289062 75.316406 118.308594 75.300781 C 118.328125 75.285156 118.34375 75.265625 118.351562 75.242188 L 118.40625 75.242188 Z M 118.539062 75.414062 L 118.539062 75.34375 L 118.605469 75.34375 L 118.605469 75.414062 Z M 118.539062 75.605469 L 118.539062 75.539062 L 118.605469 75.539062 L 118.605469 75.605469 Z M 118.90625 75.542969 L 118.90625 75.605469 L 118.667969 75.605469 C 118.671875 75.582031 118.679688 75.558594 118.691406 75.539062 C 118.703125 75.515625 118.730469 75.488281 118.769531 75.449219 C 118.796875 75.421875 118.816406 75.402344 118.824219 75.390625 C 118.832031 75.378906 118.839844 75.363281 118.839844 75.347656 C 118.839844 75.332031 118.835938 75.320312 118.828125 75.3125 C 118.816406 75.304688 118.808594 75.300781 118.792969 75.300781 C 118.777344 75.300781 118.765625 75.304688 118.757812 75.3125 C 118.75 75.324219 118.746094 75.335938 118.742188 75.359375 L 118.675781 75.351562 C 118.679688 75.3125 118.691406 75.285156 118.714844 75.269531 C 118.734375 75.25 118.761719 75.242188 118.792969 75.242188 C 118.828125 75.242188 118.855469 75.253906 118.878906 75.273438 C 118.898438 75.292969 118.90625 75.316406 118.90625 75.34375 C 118.90625 75.359375 118.90625 75.375 118.898438 75.390625 C 118.894531 75.40625 118.882812 75.421875 118.871094 75.4375 C 118.863281 75.449219 118.847656 75.464844 118.828125 75.484375 C 118.804688 75.503906 118.792969 75.515625 118.785156 75.523438 C 118.78125 75.53125 118.773438 75.535156 118.769531 75.542969 Z M 118.953125 75.515625 L 119.023438 75.507812 C 119.023438 75.523438 119.03125 75.535156 119.039062 75.542969 C 119.050781 75.554688 119.0625 75.558594 119.074219 75.558594 C 119.085938 75.558594 119.101562 75.550781 119.109375 75.539062 C 119.121094 75.527344 119.125 75.511719 119.125 75.488281 C 119.125 75.464844 119.121094 75.449219 119.109375 75.4375 C 119.101562 75.425781 119.085938 75.421875 119.070312 75.421875 C 119.050781 75.421875 119.035156 75.429688 119.019531 75.445312 L 118.964844 75.4375 L 119 75.25 L 119.179688 75.25 L 119.179688 75.316406 L 119.050781 75.316406 L 119.039062 75.375 C 119.054688 75.367188 119.070312 75.363281 119.085938 75.363281 C 119.117188 75.363281 119.140625 75.375 119.164062 75.398438 C 119.183594 75.421875 119.195312 75.449219 119.195312 75.484375 C 119.195312 75.515625 119.1875 75.542969 119.167969 75.566406 C 119.144531 75.597656 119.113281 75.613281 119.074219 75.613281 C 119.039062 75.613281 119.011719 75.605469 118.992188 75.585938 C 118.972656 75.570312 118.957031 75.542969 118.953125 75.515625 Z M 118.058594 83.128906 L 117.992188 83.128906 L 117.992188 82.867188 C 117.96875 82.890625 117.9375 82.910156 117.902344 82.921875 L 117.902344 82.859375 C 117.921875 82.851562 117.941406 82.839844 117.960938 82.824219 C 117.984375 82.808594 117.996094 82.789062 118.003906 82.765625 L 118.058594 82.765625 Z M 118.308594 83.128906 L 118.242188 83.128906 L 118.242188 82.867188 C 118.21875 82.890625 118.1875 82.910156 118.152344 82.921875 L 118.152344 82.859375 C 118.171875 82.851562 118.191406 82.839844 118.210938 82.824219 C 118.234375 82.808594 118.246094 82.789062 118.253906 82.765625 L 118.308594 82.765625 Z M 118.441406 82.9375 L 118.441406 82.867188 L 118.507812 82.867188 L 118.507812 82.9375 Z M 118.441406 83.128906 L 118.441406 83.058594 L 118.507812 83.058594 L 118.507812 83.128906 Z M 118.578125 83.035156 L 118.644531 83.027344 C 118.644531 83.042969 118.652344 83.054688 118.660156 83.066406 C 118.667969 83.074219 118.679688 83.078125 118.695312 83.078125 C 118.707031 83.078125 118.71875 83.074219 118.730469 83.0625 C 118.738281 83.050781 118.742188 83.035156 118.742188 83.019531 C 118.742188 83 118.738281 82.988281 118.730469 82.976562 C 118.71875 82.964844 118.710938 82.960938 118.695312 82.960938 C 118.6875 82.960938 118.675781 82.964844 118.664062 82.964844 L 118.671875 82.910156 C 118.691406 82.910156 118.703125 82.90625 118.714844 82.898438 C 118.722656 82.890625 118.730469 82.878906 118.730469 82.863281 C 118.730469 82.851562 118.726562 82.839844 118.71875 82.835938 C 118.710938 82.828125 118.703125 82.824219 118.691406 82.824219 C 118.679688 82.824219 118.667969 82.828125 118.660156 82.835938 C 118.652344 82.84375 118.648438 82.855469 118.644531 82.871094 L 118.582031 82.859375 C 118.585938 82.839844 118.59375 82.820312 118.601562 82.808594 C 118.609375 82.796875 118.621094 82.785156 118.636719 82.777344 C 118.65625 82.769531 118.671875 82.765625 118.691406 82.765625 C 118.726562 82.765625 118.753906 82.777344 118.773438 82.800781 C 118.789062 82.816406 118.796875 82.835938 118.796875 82.859375 C 118.796875 82.890625 118.78125 82.917969 118.746094 82.933594 C 118.765625 82.941406 118.78125 82.949219 118.796875 82.964844 C 118.808594 82.980469 118.8125 83 118.8125 83.019531 C 118.8125 83.054688 118.800781 83.082031 118.78125 83.101562 C 118.757812 83.125 118.726562 83.136719 118.695312 83.136719 C 118.660156 83.136719 118.636719 83.125 118.613281 83.109375 C 118.59375 83.089844 118.578125 83.0625 118.578125 83.035156 Z M 118.859375 83.035156 L 118.925781 83.03125 C 118.925781 83.046875 118.933594 83.058594 118.941406 83.066406 C 118.953125 83.074219 118.964844 83.082031 118.976562 83.082031 C 118.992188 83.082031 119.003906 83.074219 119.011719 83.0625 C 119.023438 83.050781 119.027344 83.035156 119.027344 83.007812 C 119.027344 82.988281 119.023438 82.972656 119.011719 82.960938 C 119.003906 82.949219 118.988281 82.941406 118.972656 82.941406 C 118.953125 82.941406 118.9375 82.953125 118.921875 82.96875 L 118.867188 82.960938 L 118.902344 82.773438 L 119.082031 82.773438 L 119.082031 82.835938 L 118.953125 82.835938 L 118.941406 82.898438 C 118.957031 82.890625 118.972656 82.886719 118.988281 82.886719 C 119.019531 82.886719 119.046875 82.898438 119.066406 82.921875 C 119.085938 82.945312 119.097656 82.972656 119.097656 83.007812 C 119.097656 83.039062 119.089844 83.066406 119.070312 83.089844 C 119.050781 83.121094 119.015625 83.136719 118.976562 83.136719 C 118.941406 83.136719 118.914062 83.128906 118.894531 83.109375 C 118.875 83.089844 118.863281 83.066406 118.859375 83.035156 Z M 111.496094 65.667969 L 111.425781 65.667969 L 111.425781 65.40625 C 111.402344 65.429688 111.371094 65.449219 111.339844 65.460938 L 111.339844 65.398438 C 111.355469 65.390625 111.375 65.378906 111.398438 65.363281 C 111.417969 65.347656 111.433594 65.328125 111.441406 65.304688 L 111.496094 65.304688 Z M 111.746094 65.667969 L 111.675781 65.667969 L 111.675781 65.40625 C 111.652344 65.429688 111.621094 65.449219 111.589844 65.460938 L 111.589844 65.398438 C 111.605469 65.390625 111.625 65.378906 111.648438 65.363281 C 111.667969 65.347656 111.683594 65.328125 111.691406 65.304688 L 111.746094 65.304688 Z M 111.875 65.476562 L 111.875 65.40625 L 111.945312 65.40625 L 111.945312 65.476562 Z M 111.875 65.667969 L 111.875 65.601562 L 111.945312 65.601562 L 111.945312 65.667969 Z M 112.128906 65.304688 C 112.164062 65.304688 112.191406 65.316406 112.210938 65.34375 C 112.234375 65.371094 112.246094 65.421875 112.246094 65.492188 C 112.246094 65.558594 112.234375 65.609375 112.210938 65.636719 C 112.191406 65.664062 112.164062 65.675781 112.128906 65.675781 C 112.09375 65.675781 112.066406 65.660156 112.046875 65.632812 C 112.023438 65.609375 112.015625 65.558594 112.015625 65.488281 C 112.015625 65.421875 112.023438 65.371094 112.046875 65.34375 C 112.066406 65.316406 112.09375 65.304688 112.128906 65.304688 Z M 112.128906 65.363281 C 112.121094 65.363281 112.113281 65.367188 112.109375 65.371094 C 112.101562 65.375 112.097656 65.386719 112.09375 65.398438 C 112.085938 65.417969 112.085938 65.449219 112.085938 65.492188 C 112.085938 65.53125 112.085938 65.5625 112.089844 65.578125 C 112.097656 65.59375 112.101562 65.605469 112.109375 65.609375 C 112.113281 65.613281 112.121094 65.617188 112.128906 65.617188 C 112.136719 65.617188 112.144531 65.613281 112.152344 65.609375 C 112.160156 65.605469 112.164062 65.59375 112.167969 65.582031 C 112.171875 65.5625 112.175781 65.53125 112.175781 65.492188 C 112.175781 65.449219 112.171875 65.417969 112.167969 65.402344 C 112.164062 65.386719 112.15625 65.375 112.152344 65.371094 C 112.144531 65.367188 112.136719 65.363281 112.128906 65.363281 Z M 112.425781 65.667969 L 112.425781 65.597656 L 112.28125 65.597656 L 112.28125 65.535156 L 112.433594 65.304688 L 112.492188 65.304688 L 112.492188 65.535156 L 112.535156 65.535156 L 112.535156 65.597656 L 112.492188 65.597656 L 112.492188 65.667969 Z M 112.425781 65.535156 L 112.425781 65.410156 L 112.34375 65.535156 Z M 115.105469 72.273438 L 115.035156 72.273438 L 115.035156 72.011719 C 115.011719 72.035156 114.980469 72.050781 114.949219 72.0625 L 114.949219 72 C 114.964844 71.996094 114.984375 71.984375 115.007812 71.96875 C 115.027344 71.949219 115.042969 71.929688 115.050781 71.910156 L 115.105469 71.910156 Z M 115.355469 72.273438 L 115.285156 72.273438 L 115.285156 72.011719 C 115.261719 72.035156 115.230469 72.050781 115.199219 72.0625 L 115.199219 72 C 115.214844 71.996094 115.234375 71.984375 115.257812 71.96875 C 115.277344 71.949219 115.292969 71.929688 115.300781 71.910156 L 115.355469 71.910156 Z M 115.484375 72.082031 L 115.484375 72.011719 L 115.554688 72.011719 L 115.554688 72.082031 Z M 115.484375 72.273438 L 115.484375 72.203125 L 115.554688 72.203125 L 115.554688 72.273438 Z M 115.800781 72.273438 L 115.730469 72.273438 L 115.730469 72.011719 C 115.707031 72.035156 115.675781 72.050781 115.640625 72.0625 L 115.640625 72 C 115.660156 71.996094 115.679688 71.984375 115.699219 71.96875 C 115.722656 71.949219 115.734375 71.929688 115.742188 71.910156 L 115.800781 71.910156 Z M 115.902344 72.1875 L 115.96875 72.183594 C 115.96875 72.195312 115.976562 72.207031 115.980469 72.210938 C 115.988281 72.21875 115.996094 72.222656 116.007812 72.222656 C 116.023438 72.222656 116.035156 72.214844 116.046875 72.203125 C 116.054688 72.1875 116.0625 72.160156 116.0625 72.121094 C 116.046875 72.140625 116.023438 72.152344 116 72.152344 C 115.972656 72.152344 115.945312 72.140625 115.925781 72.117188 C 115.90625 72.09375 115.894531 72.066406 115.894531 72.03125 C 115.894531 71.996094 115.90625 71.964844 115.929688 71.941406 C 115.949219 71.921875 115.976562 71.910156 116.011719 71.910156 C 116.046875 71.910156 116.078125 71.921875 116.101562 71.953125 C 116.121094 71.980469 116.132812 72.027344 116.132812 72.09375 C 116.132812 72.160156 116.121094 72.207031 116.097656 72.234375 C 116.074219 72.265625 116.042969 72.28125 116.003906 72.28125 C 115.976562 72.28125 115.953125 72.273438 115.9375 72.257812 C 115.917969 72.242188 115.90625 72.21875 115.902344 72.1875 Z M 116.058594 72.039062 C 116.058594 72.015625 116.050781 71.996094 116.042969 71.984375 C 116.03125 71.972656 116.019531 71.96875 116.007812 71.96875 C 115.996094 71.96875 115.984375 71.972656 115.976562 71.980469 C 115.96875 71.992188 115.964844 72.007812 115.964844 72.03125 C 115.964844 72.054688 115.96875 72.074219 115.976562 72.082031 C 115.984375 72.09375 115.996094 72.101562 116.011719 72.101562 C 116.023438 72.101562 116.035156 72.09375 116.042969 72.085938 C 116.054688 72.074219 116.058594 72.058594 116.058594 72.039062 Z M 111.496094 78.097656 L 111.425781 78.097656 L 111.425781 77.835938 C 111.402344 77.859375 111.371094 77.875 111.339844 77.886719 L 111.339844 77.824219 C 111.355469 77.816406 111.375 77.808594 111.398438 77.789062 C 111.417969 77.773438 111.433594 77.753906 111.441406 77.730469 L 111.496094 77.730469 Z M 111.746094 78.097656 L 111.675781 78.097656 L 111.675781 77.835938 C 111.652344 77.859375 111.621094 77.875 111.589844 77.886719 L 111.589844 77.824219 C 111.605469 77.816406 111.625 77.808594 111.648438 77.789062 C 111.667969 77.773438 111.683594 77.753906 111.691406 77.730469 L 111.746094 77.730469 Z M 111.875 77.902344 L 111.875 77.832031 L 111.945312 77.832031 L 111.945312 77.902344 Z M 111.875 78.097656 L 111.875 78.027344 L 111.945312 78.027344 L 111.945312 78.097656 Z M 112.246094 78.03125 L 112.246094 78.097656 L 112.003906 78.097656 C 112.007812 78.070312 112.015625 78.046875 112.027344 78.027344 C 112.042969 78.003906 112.066406 77.976562 112.105469 77.941406 C 112.136719 77.910156 112.15625 77.890625 112.164062 77.878906 C 112.171875 77.867188 112.175781 77.851562 112.175781 77.839844 C 112.175781 77.824219 112.171875 77.8125 112.164062 77.800781 C 112.15625 77.792969 112.144531 77.789062 112.128906 77.789062 C 112.117188 77.789062 112.105469 77.792969 112.097656 77.804688 C 112.085938 77.8125 112.082031 77.828125 112.082031 77.847656 L 112.011719 77.839844 C 112.015625 77.800781 112.03125 77.773438 112.050781 77.757812 C 112.074219 77.742188 112.101562 77.730469 112.132812 77.730469 C 112.167969 77.730469 112.195312 77.742188 112.214844 77.761719 C 112.234375 77.78125 112.246094 77.804688 112.246094 77.832031 C 112.246094 77.847656 112.242188 77.863281 112.238281 77.878906 C 112.230469 77.894531 112.222656 77.910156 112.210938 77.925781 C 112.199219 77.9375 112.1875 77.953125 112.164062 77.972656 C 112.144531 77.992188 112.128906 78.003906 112.125 78.011719 C 112.117188 78.019531 112.113281 78.023438 112.109375 78.03125 Z M 112.523438 77.824219 L 112.457031 77.828125 C 112.457031 77.816406 112.453125 77.804688 112.445312 77.800781 C 112.4375 77.792969 112.429688 77.789062 112.417969 77.789062 C 112.402344 77.789062 112.390625 77.796875 112.382812 77.808594 C 112.371094 77.824219 112.363281 77.851562 112.363281 77.890625 C 112.378906 77.871094 112.402344 77.859375 112.425781 77.859375 C 112.453125 77.859375 112.480469 77.871094 112.5 77.894531 C 112.519531 77.917969 112.53125 77.945312 112.53125 77.980469 C 112.53125 78.015625 112.519531 78.046875 112.496094 78.070312 C 112.476562 78.089844 112.449219 78.101562 112.414062 78.101562 C 112.378906 78.101562 112.347656 78.089844 112.328125 78.058594 C 112.304688 78.03125 112.292969 77.984375 112.292969 77.917969 C 112.292969 77.851562 112.304688 77.804688 112.328125 77.777344 C 112.351562 77.746094 112.382812 77.730469 112.421875 77.730469 C 112.449219 77.730469 112.472656 77.738281 112.488281 77.753906 C 112.507812 77.769531 112.519531 77.792969 112.523438 77.824219 Z M 112.367188 77.972656 C 112.367188 77.996094 112.375 78.015625 112.382812 78.027344 C 112.394531 78.039062 112.40625 78.042969 112.417969 78.042969 C 112.429688 78.042969 112.441406 78.039062 112.449219 78.03125 C 112.457031 78.019531 112.460938 78.003906 112.460938 77.980469 C 112.460938 77.957031 112.457031 77.9375 112.449219 77.929688 C 112.441406 77.917969 112.429688 77.910156 112.414062 77.910156 C 112.402344 77.910156 112.390625 77.917969 112.382812 77.925781 C 112.371094 77.9375 112.367188 77.953125 112.367188 77.972656 Z M 115.023438 80.605469 L 114.953125 80.605469 L 114.953125 80.34375 C 114.929688 80.367188 114.898438 80.386719 114.863281 80.394531 L 114.863281 80.332031 C 114.882812 80.328125 114.902344 80.316406 114.921875 80.300781 C 114.945312 80.28125 114.957031 80.265625 114.964844 80.242188 L 115.023438 80.242188 Z M 115.273438 80.605469 L 115.203125 80.605469 L 115.203125 80.34375 C 115.179688 80.367188 115.148438 80.386719 115.117188 80.394531 L 115.117188 80.332031 C 115.132812 80.328125 115.152344 80.316406 115.171875 80.300781 C 115.195312 80.28125 115.207031 80.265625 115.214844 80.242188 L 115.273438 80.242188 Z M 115.402344 80.414062 L 115.402344 80.34375 L 115.46875 80.34375 L 115.46875 80.414062 Z M 115.402344 80.605469 L 115.402344 80.535156 L 115.46875 80.535156 L 115.46875 80.605469 Z M 115.773438 80.539062 L 115.773438 80.605469 L 115.53125 80.605469 C 115.535156 80.582031 115.542969 80.558594 115.554688 80.535156 C 115.566406 80.515625 115.59375 80.484375 115.632812 80.449219 C 115.664062 80.421875 115.683594 80.398438 115.6875 80.390625 C 115.699219 80.375 115.703125 80.363281 115.703125 80.347656 C 115.703125 80.332031 115.699219 80.320312 115.691406 80.3125 C 115.683594 80.304688 115.671875 80.300781 115.65625 80.300781 C 115.644531 80.300781 115.632812 80.304688 115.621094 80.3125 C 115.613281 80.320312 115.609375 80.335938 115.609375 80.355469 L 115.539062 80.347656 C 115.542969 80.3125 115.558594 80.28125 115.578125 80.265625 C 115.597656 80.25 115.625 80.242188 115.660156 80.242188 C 115.695312 80.242188 115.722656 80.25 115.742188 80.269531 C 115.761719 80.289062 115.773438 80.3125 115.773438 80.34375 C 115.773438 80.359375 115.769531 80.375 115.761719 80.390625 C 115.757812 80.402344 115.75 80.417969 115.734375 80.433594 C 115.726562 80.445312 115.710938 80.460938 115.691406 80.480469 C 115.667969 80.5 115.65625 80.515625 115.648438 80.523438 C 115.644531 80.527344 115.640625 80.535156 115.636719 80.539062 Z M 115.875 80.410156 C 115.859375 80.402344 115.847656 80.390625 115.839844 80.378906 C 115.832031 80.367188 115.828125 80.351562 115.828125 80.335938 C 115.828125 80.308594 115.835938 80.285156 115.855469 80.269531 C 115.871094 80.25 115.898438 80.242188 115.933594 80.242188 C 115.96875 80.242188 115.992188 80.25 116.011719 80.269531 C 116.03125 80.285156 116.039062 80.308594 116.039062 80.335938 C 116.039062 80.351562 116.035156 80.367188 116.027344 80.378906 C 116.019531 80.394531 116.007812 80.402344 115.992188 80.410156 C 116.011719 80.417969 116.027344 80.429688 116.035156 80.445312 C 116.046875 80.460938 116.050781 80.480469 116.050781 80.5 C 116.050781 80.53125 116.042969 80.558594 116.019531 80.582031 C 116 80.601562 115.972656 80.613281 115.9375 80.613281 C 115.902344 80.613281 115.878906 80.601562 115.855469 80.585938 C 115.828125 80.566406 115.816406 80.539062 115.816406 80.5 C 115.816406 80.484375 115.820312 80.464844 115.832031 80.449219 C 115.839844 80.429688 115.855469 80.417969 115.875 80.410156 Z M 115.882812 80.496094 C 115.882812 80.515625 115.890625 80.527344 115.898438 80.539062 C 115.910156 80.550781 115.921875 80.554688 115.933594 80.554688 C 115.949219 80.554688 115.960938 80.550781 115.96875 80.539062 C 115.980469 80.53125 115.984375 80.515625 115.984375 80.496094 C 115.984375 80.480469 115.980469 80.464844 115.96875 80.453125 C 115.960938 80.445312 115.949219 80.441406 115.933594 80.441406 C 115.917969 80.441406 115.90625 80.445312 115.898438 80.457031 C 115.890625 80.46875 115.882812 80.480469 115.882812 80.496094 Z M 115.890625 80.339844 C 115.890625 80.355469 115.894531 80.363281 115.902344 80.371094 C 115.910156 80.378906 115.921875 80.382812 115.933594 80.382812 C 115.945312 80.382812 115.957031 80.378906 115.964844 80.371094 C 115.972656 80.363281 115.976562 80.355469 115.976562 80.339844 C 115.976562 80.328125 115.972656 80.316406 115.964844 80.308594 C 115.957031 80.300781 115.945312 80.296875 115.933594 80.296875 C 115.921875 80.296875 115.910156 80.300781 115.902344 80.308594 C 115.894531 80.316406 115.890625 80.328125 115.890625 80.339844 " fill-opacity="1" fill-rule="nonzero"/></g><path fill="#37a42c" d="M 20.671875 65.1875 C 17.058594 65.1875 14.125 68.121094 14.125 71.734375 C 14.125 72.996094 14.488281 74.21875 15.164062 75.28125 L 15.324219 75.527344 L 14.691406 77.796875 L 17.09375 77.230469 L 17.316406 77.371094 C 18.324219 77.96875 19.492188 78.289062 20.671875 78.289062 C 24.28125 78.289062 27.21875 75.355469 27.21875 71.746094 C 27.21875 68.132812 24.28125 65.1875 20.671875 65.1875 Z M 24.398438 74.550781 C 24.335938 74.871094 23.648438 75.28125 23.210938 75.398438 C 22.117188 75.6875 20.574219 74.851562 19.054688 73.523438 C 17.519531 72.195312 16.492188 70.78125 16.621094 69.65625 C 16.675781 69.207031 16.996094 68.464844 17.296875 68.371094 C 17.597656 68.273438 17.808594 68.371094 18.121094 68.464844 C 18.269531 68.636719 18.464844 68.839844 18.679688 69.085938 C 18.96875 69.410156 19.160156 69.699219 19.277344 69.902344 C 19.375 70.074219 19.34375 70.289062 19.191406 70.414062 L 18.667969 70.886719 C 18.570312 70.972656 18.539062 71.113281 18.59375 71.230469 C 18.753906 71.574219 19.128906 72.28125 19.695312 72.773438 C 20.253906 73.265625 21.015625 73.542969 21.378906 73.652344 C 21.496094 73.695312 21.636719 73.640625 21.699219 73.535156 L 22.097656 72.957031 C 22.203125 72.792969 22.417969 72.730469 22.597656 72.804688 C 22.8125 72.902344 23.136719 73.050781 23.488281 73.289062 C 23.757812 73.46875 23.992188 73.628906 24.175781 73.757812 C 24.335938 74.046875 24.464844 74.25 24.398438 74.550781 Z M 24.398438 74.550781 " fill-opacity="1" fill-rule="nonzero"/><g clip-path="url(#2e3c20b897)"><path fill="#37a42c" d="M 20.414062 59.507812 C 13.578125 59.507812 8.039062 65.046875 8.039062 71.882812 C 8.039062 78.71875 13.578125 84.257812 20.414062 84.257812 C 27.25 84.257812 32.789062 78.71875 32.789062 71.882812 C 32.777344 65.046875 27.238281 59.507812 20.414062 59.507812 Z M 20.671875 79.566406 C 19.34375 79.566406 18.046875 79.234375 16.890625 78.589844 L 12.871094 79.542969 L 13.933594 75.71875 C 13.214844 74.507812 12.839844 73.136719 12.839844 71.722656 C 12.839844 67.40625 16.351562 63.890625 20.671875 63.890625 C 24.988281 63.890625 28.503906 67.414062 28.503906 71.734375 C 28.503906 76.050781 24.988281 79.566406 20.671875 79.566406 Z M 20.671875 79.566406 " fill-opacity="1" fill-rule="nonzero"/></g><g fill="#000000" fill-opacity="1"><g transform="translate(34.318905, 70.308691)"><g/></g></g><g fill="#000000" fill-opacity="1"><g transform="translate(37.576717, 70.308691)"><g><path d="M 6.515625 -4.09375 C 6.625 -4.140625 7.390625 -4.523438 7.390625 -5.734375 C 7.390625 -6.863281 6.550781 -7.90625 4.597656 -7.90625 L 1.234375 -7.90625 C 0.960938 -7.90625 0.886719 -7.777344 0.886719 -7.558594 L 0.886719 -0.347656 C 0.886719 -0.132812 0.960938 0 1.234375 0 L 4.765625 0 C 6.433594 0 7.621094 -0.78125 7.621094 -2.304688 C 7.621094 -3.601562 6.613281 -4.054688 6.515625 -4.09375 Z M 4.789062 -1.703125 L 2.773438 -1.703125 L 2.773438 -6.214844 L 4.597656 -6.214844 C 5.21875 -6.214844 5.59375 -6.085938 5.59375 -5.542969 C 5.59375 -5.074219 5.292969 -4.824219 4.597656 -4.824219 L 4.441406 -4.824219 C 4.164062 -4.824219 4.09375 -4.691406 4.09375 -4.476562 L 4.09375 -3.5625 C 4.09375 -3.347656 4.164062 -3.214844 4.441406 -3.214844 L 4.714844 -3.214844 C 5.292969 -3.214844 5.710938 -3.046875 5.710938 -2.484375 C 5.710938 -1.945312 5.375 -1.703125 4.789062 -1.703125 Z M 4.789062 -1.703125 "/></g></g></g><g fill="#000000" fill-opacity="1"><g transform="translate(45.820731, 70.308691)"><g><path d="M 7.09375 -2.53125 L 7.09375 -5.363281 C 7.09375 -7.261719 5.292969 -8.074219 3.863281 -8.074219 C 2.4375 -8.074219 0.660156 -7.261719 0.660156 -5.363281 L 0.660156 -2.53125 C 0.660156 -0.636719 2.4375 0.179688 3.863281 0.179688 C 5.292969 0.179688 7.09375 -0.636719 7.09375 -2.53125 Z M 5.207031 -5.195312 L 5.207031 -2.699219 C 5.207031 -1.933594 4.65625 -1.488281 3.863281 -1.488281 C 3.085938 -1.488281 2.53125 -1.933594 2.53125 -2.699219 L 2.53125 -5.195312 C 2.53125 -5.964844 3.085938 -6.40625 3.863281 -6.40625 C 4.65625 -6.40625 5.207031 -5.964844 5.207031 -5.195312 Z M 5.207031 -5.195312 "/></g></g></g><g fill="#000000" fill-opacity="1"><g transform="translate(53.560747, 70.308691)"><g><path d="M 7.09375 -2.53125 L 7.09375 -5.363281 C 7.09375 -7.261719 5.292969 -8.074219 3.863281 -8.074219 C 2.4375 -8.074219 0.660156 -7.261719 0.660156 -5.363281 L 0.660156 -2.53125 C 0.660156 -0.636719 2.4375 0.179688 3.863281 0.179688 C 5.292969 0.179688 7.09375 -0.636719 7.09375 -2.53125 Z M 5.207031 -5.195312 L 5.207031 -2.699219 C 5.207031 -1.933594 4.65625 -1.488281 3.863281 -1.488281 C 3.085938 -1.488281 2.53125 -1.933594 2.53125 -2.699219 L 2.53125 -5.195312 C 2.53125 -5.964844 3.085938 -6.40625 3.863281 -6.40625 C 4.65625 -6.40625 5.207031 -5.964844 5.207031 -5.195312 Z M 5.207031 -5.195312 "/></g></g></g><g fill="#000000" fill-opacity="1"><g transform="translate(61.300763, 70.308691)"><g><path d="M 7.464844 -7.894531 L 5.84375 -7.894531 C 5.566406 -7.894531 5.484375 -7.871094 5.242188 -7.609375 L 2.761719 -4.871094 L 2.761719 -7.546875 C 2.761719 -7.824219 2.628906 -7.894531 2.425781 -7.894531 L 1.234375 -7.894531 C 1.007812 -7.894531 0.886719 -7.824219 0.886719 -7.546875 L 0.886719 -0.347656 C 0.886719 -0.0703125 1.007812 0 1.234375 0 L 2.425781 0 C 2.628906 0 2.761719 -0.0703125 2.761719 -0.347656 L 2.761719 -2.484375 L 3.503906 -3.265625 C 4.152344 -2.183594 5.21875 -0.382812 5.21875 -0.382812 C 5.375 -0.132812 5.53125 0 5.820312 0 L 7.285156 0 C 7.511719 0 7.558594 -0.226562 7.464844 -0.382812 L 4.882812 -4.632812 L 7.585938 -7.558594 C 7.691406 -7.667969 7.691406 -7.894531 7.464844 -7.894531 Z M 7.464844 -7.894531 "/></g></g></g><g fill="#000000" fill-opacity="1"><g transform="translate(69.148777, 70.308691)"><g/></g></g><g fill="#000000" fill-opacity="1"><g transform="translate(72.400787, 70.308691)"><g><path d="M 6.949219 -7.894531 L 5.796875 -7.894531 C 5.578125 -7.894531 5.449219 -7.824219 5.449219 -7.546875 L 5.449219 -3.382812 L 2.902344 -7.488281 C 2.746094 -7.726562 2.664062 -7.894531 2.363281 -7.894531 L 1.234375 -7.894531 C 0.960938 -7.894531 0.886719 -7.765625 0.886719 -7.546875 L 0.886719 -0.347656 C 0.886719 -0.0703125 1.019531 0 1.234375 0 L 2.425781 0 C 2.640625 0 2.773438 -0.0703125 2.773438 -0.347656 L 2.773438 -4.523438 L 5.316406 -0.40625 C 5.472656 -0.167969 5.554688 0 5.855469 0 L 6.949219 0 C 7.222656 0 7.296875 -0.132812 7.296875 -0.347656 L 7.296875 -7.546875 C 7.296875 -7.824219 7.164062 -7.894531 6.949219 -7.894531 Z M 6.949219 -7.894531 "/></g></g></g><g fill="#000000" fill-opacity="1"><g transform="translate(80.584799, 70.308691)"><g><path d="M 7.09375 -2.53125 L 7.09375 -5.363281 C 7.09375 -7.261719 5.292969 -8.074219 3.863281 -8.074219 C 2.4375 -8.074219 0.660156 -7.261719 0.660156 -5.363281 L 0.660156 -2.53125 C 0.660156 -0.636719 2.4375 0.179688 3.863281 0.179688 C 5.292969 0.179688 7.09375 -0.636719 7.09375 -2.53125 Z M 5.207031 -5.195312 L 5.207031 -2.699219 C 5.207031 -1.933594 4.65625 -1.488281 3.863281 -1.488281 C 3.085938 -1.488281 2.53125 -1.933594 2.53125 -2.699219 L 2.53125 -5.195312 C 2.53125 -5.964844 3.085938 -6.40625 3.863281 -6.40625 C 4.65625 -6.40625 5.207031 -5.964844 5.207031 -5.195312 Z M 5.207031 -5.195312 "/></g></g></g><g fill="#000000" fill-opacity="1"><g transform="translate(88.324815, 70.308691)"><g><path d="M 10.308594 -7.894531 L 9.035156 -7.894531 C 8.675781 -7.894531 8.59375 -7.65625 8.554688 -7.511719 L 7.367188 -3.433594 L 6.203125 -7.511719 C 6.15625 -7.679688 6.070312 -7.894531 5.808594 -7.894531 L 4.96875 -7.894531 C 4.691406 -7.894531 4.609375 -7.679688 4.558594 -7.511719 L 3.40625 -3.433594 L 2.21875 -7.511719 C 2.171875 -7.65625 2.101562 -7.894531 1.738281 -7.894531 L 0.421875 -7.894531 C 0.203125 -7.894531 0.167969 -7.691406 0.203125 -7.546875 L 2.425781 -0.253906 C 2.425781 -0.253906 2.484375 0 2.746094 0 L 3.804688 0 C 4.117188 0 4.1875 -0.277344 4.1875 -0.277344 L 5.386719 -4.105469 L 6.589844 -0.277344 C 6.589844 -0.277344 6.660156 0 6.972656 0 L 7.980469 0 C 8.242188 0 8.304688 -0.253906 8.304688 -0.253906 L 10.511719 -7.546875 C 10.558594 -7.691406 10.523438 -7.894531 10.308594 -7.894531 Z M 10.308594 -7.894531 "/></g></g></g><g fill="#000000" fill-opacity="1"><g transform="translate(34.318905, 81.666135)"><g><path d="M 10.308594 -7.894531 L 9.035156 -7.894531 C 8.675781 -7.894531 8.59375 -7.65625 8.554688 -7.511719 L 7.367188 -3.433594 L 6.203125 -7.511719 C 6.15625 -7.679688 6.070312 -7.894531 5.808594 -7.894531 L 4.96875 -7.894531 C 4.691406 -7.894531 4.609375 -7.679688 4.558594 -7.511719 L 3.40625 -3.433594 L 2.21875 -7.511719 C 2.171875 -7.65625 2.101562 -7.894531 1.738281 -7.894531 L 0.421875 -7.894531 C 0.203125 -7.894531 0.167969 -7.691406 0.203125 -7.546875 L 2.425781 -0.253906 C 2.425781 -0.253906 2.484375 0 2.746094 0 L 3.804688 0 C 4.117188 0 4.1875 -0.277344 4.1875 -0.277344 L 5.386719 -4.105469 L 6.589844 -0.277344 C 6.589844 -0.277344 6.660156 0 6.972656 0 L 7.980469 0 C 8.242188 0 8.304688 -0.253906 8.304688 -0.253906 L 10.511719 -7.546875 C 10.558594 -7.691406 10.523438 -7.894531 10.308594 -7.894531 Z M 10.308594 -7.894531 "/></g></g></g><g fill="#000000" fill-opacity="1"><g transform="translate(45.094924, 81.666135)"><g><path d="M 6.984375 -7.894531 L 5.796875 -7.894531 C 5.578125 -7.894531 5.449219 -7.824219 5.449219 -7.546875 L 5.449219 -4.835938 L 2.773438 -4.835938 L 2.773438 -7.546875 C 2.773438 -7.824219 2.652344 -7.894531 2.425781 -7.894531 L 1.234375 -7.894531 C 1.019531 -7.894531 0.886719 -7.824219 0.886719 -7.546875 L 0.886719 -0.347656 C 0.886719 -0.0703125 1.019531 0 1.234375 0 L 2.425781 0 C 2.652344 0 2.773438 -0.0703125 2.773438 -0.347656 L 2.773438 -3.058594 L 5.449219 -3.058594 L 5.449219 -0.347656 C 5.449219 -0.0703125 5.578125 0 5.796875 0 L 6.984375 0 C 7.199219 0 7.332031 -0.0703125 7.332031 -0.347656 L 7.332031 -7.546875 C 7.332031 -7.824219 7.199219 -7.894531 6.984375 -7.894531 Z M 6.984375 -7.894531 "/></g></g></g><g fill="#000000" fill-opacity="1"><g transform="translate(53.314939, 81.666135)"><g><path d="M 7.679688 -0.335938 L 5.027344 -7.523438 C 4.921875 -7.777344 4.800781 -7.894531 4.535156 -7.894531 L 3.382812 -7.894531 C 3.121094 -7.894531 2.988281 -7.777344 2.890625 -7.523438 L 0.226562 -0.335938 C 0.167969 -0.191406 0.167969 0 0.433594 0 L 1.691406 0 C 1.957031 0 2.050781 -0.0703125 2.148438 -0.359375 L 2.484375 -1.308594 L 5.425781 -1.308594 L 5.761719 -0.359375 C 5.855469 -0.0703125 5.953125 0 6.214844 0 L 7.476562 0 C 7.738281 0 7.738281 -0.191406 7.679688 -0.335938 Z M 3.960938 -5.640625 L 4.859375 -2.988281 L 3.058594 -2.988281 Z M 3.960938 -5.640625 "/></g></g></g><g fill="#000000" fill-opacity="1"><g transform="translate(61.174958, 81.666135)"><g><path d="M 6.226562 -7.894531 L 0.660156 -7.894531 C 0.382812 -7.894531 0.3125 -7.765625 0.3125 -7.546875 L 0.3125 -6.550781 C 0.3125 -6.335938 0.382812 -6.203125 0.660156 -6.203125 L 2.507812 -6.203125 L 2.507812 -0.347656 C 2.507812 -0.0703125 2.640625 0 2.855469 0 L 4.042969 0 C 4.261719 0 4.390625 -0.0703125 4.390625 -0.347656 L 4.390625 -6.203125 L 6.226562 -6.203125 C 6.503906 -6.203125 6.574219 -6.335938 6.574219 -6.550781 L 6.574219 -7.546875 C 6.574219 -7.765625 6.503906 -7.894531 6.226562 -7.894531 Z M 6.226562 -7.894531 "/></g></g></g><g fill="#000000" fill-opacity="1"><g transform="translate(68.062973, 81.666135)"><g><path d="M 4.609375 -4.585938 C 4.128906 -4.777344 2.363281 -5.039062 2.363281 -5.773438 C 2.363281 -6.3125 3.023438 -6.46875 3.421875 -6.46875 C 3.78125 -6.46875 4.210938 -6.359375 4.441406 -6.144531 C 4.585938 -6 4.644531 -5.902344 4.691406 -5.785156 C 4.753906 -5.628906 4.789062 -5.460938 5.015625 -5.460938 L 6.191406 -5.460938 C 6.46875 -5.460938 6.539062 -5.507812 6.539062 -5.796875 C 6.539062 -7.378906 4.871094 -8.074219 3.347656 -8.074219 C 1.847656 -8.015625 0.433594 -7.246094 0.433594 -5.6875 C 0.433594 -4.164062 1.546875 -3.683594 2.761719 -3.300781 C 3.78125 -2.976562 4.847656 -2.964844 4.847656 -2.292969 C 4.847656 -1.621094 4.320312 -1.476562 3.671875 -1.476562 C 3.226562 -1.476562 2.734375 -1.585938 2.496094 -1.871094 C 2.339844 -2.050781 2.28125 -2.207031 2.269531 -2.363281 C 2.242188 -2.664062 2.113281 -2.699219 1.835938 -2.699219 L 0.671875 -2.699219 C 0.394531 -2.699219 0.324219 -2.640625 0.324219 -2.363281 C 0.324219 -0.683594 2.050781 0.179688 3.550781 0.179688 C 5.398438 0.179688 6.742188 -0.636719 6.742188 -2.339844 C 6.742188 -3.972656 5.472656 -4.320312 4.609375 -4.585938 Z M 4.609375 -4.585938 "/></g></g></g><g fill="#000000" fill-opacity="1"><g transform="translate(75.322989, 81.666135)"><g/></g></g><g fill="#000000" fill-opacity="1"><g transform="translate(78.574999, 81.666135)"><g><path d="M 7.679688 -0.335938 L 5.027344 -7.523438 C 4.921875 -7.777344 4.800781 -7.894531 4.535156 -7.894531 L 3.382812 -7.894531 C 3.121094 -7.894531 2.988281 -7.777344 2.890625 -7.523438 L 0.226562 -0.335938 C 0.167969 -0.191406 0.167969 0 0.433594 0 L 1.691406 0 C 1.957031 0 2.050781 -0.0703125 2.148438 -0.359375 L 2.484375 -1.308594 L 5.425781 -1.308594 L 5.761719 -0.359375 C 5.855469 -0.0703125 5.953125 0 6.214844 0 L 7.476562 0 C 7.738281 0 7.738281 -0.191406 7.679688 -0.335938 Z M 3.960938 -5.640625 L 4.859375 -2.988281 L 3.058594 -2.988281 Z M 3.960938 -5.640625 "/></g></g></g><g fill="#000000" fill-opacity="1"><g transform="translate(86.435018, 81.666135)"><g><path d="M 3.9375 -7.894531 L 1.234375 -7.894531 C 0.960938 -7.894531 0.886719 -7.765625 0.886719 -7.546875 L 0.886719 -0.347656 C 0.886719 -0.0703125 1.019531 0 1.234375 0 L 2.425781 0 C 2.640625 0 2.773438 -0.0703125 2.773438 -0.347656 L 2.773438 -2.339844 L 3.925781 -2.339844 C 5.976562 -2.339844 7.078125 -3.445312 7.078125 -5.113281 C 7.078125 -6.769531 6 -7.894531 3.9375 -7.894531 Z M 3.925781 -3.960938 L 2.773438 -3.960938 L 2.773438 -6.203125 L 3.925781 -6.203125 C 4.859375 -6.203125 5.269531 -5.699219 5.269531 -5.074219 C 5.269531 -4.476562 4.859375 -3.960938 3.925781 -3.960938 Z M 3.925781 -3.960938 "/></g></g></g><g fill="#000000" fill-opacity="1"><g transform="translate(93.971031, 81.666135)"><g><path d="M 3.9375 -7.894531 L 1.234375 -7.894531 C 0.960938 -7.894531 0.886719 -7.765625 0.886719 -7.546875 L 0.886719 -0.347656 C 0.886719 -0.0703125 1.019531 0 1.234375 0 L 2.425781 0 C 2.640625 0 2.773438 -0.0703125 2.773438 -0.347656 L 2.773438 -2.339844 L 3.925781 -2.339844 C 5.976562 -2.339844 7.078125 -3.445312 7.078125 -5.113281 C 7.078125 -6.769531 6 -7.894531 3.9375 -7.894531 Z M 3.925781 -3.960938 L 2.773438 -3.960938 L 2.773438 -6.203125 L 3.925781 -6.203125 C 4.859375 -6.203125 5.269531 -5.699219 5.269531 -5.074219 C 5.269531 -4.476562 4.859375 -3.960938 3.925781 -3.960938 Z M 3.925781 -3.960938 "/></g></g></g></svg>