<svg xmlns="http://www.w3.org/2000/svg" xmlns:xlink="http://www.w3.org/1999/xlink" width="188" zoomAndPan="magnify" viewBox="0 0 141.12 141.750002" height="188" preserveAspectRatio="xMidYMid meet" version="1.0"><defs><clipPath id="06908b3e7f"><path d="M 8.410156 19.28125 L 132.964844 19.28125 L 132.964844 122.335938 L 8.410156 122.335938 Z M 8.410156 19.28125 " clip-rule="nonzero"/></clipPath></defs><g clip-path="url(#06908b3e7f)"><path fill="#ffffff" d="M 108.449219 97.203125 L 108.804688 102.742188 L 103.277344 103.347656 L 102.671875 108.867188 L 97.125 108.507812 L 95.570312 113.839844 L 90.167969 112.527344 L 87.710938 117.503906 L 82.621094 115.269531 L 79.328125 119.742188 L 74.707031 116.652344 L 70.6875 120.488281 L 66.664062 116.652344 L 62.042969 119.742188 L 58.75 115.269531 L 53.664062 117.503906 L 51.203125 112.527344 L 45.800781 113.839844 L 44.25 108.507812 L 38.699219 108.867188 L 38.09375 103.347656 L 32.566406 102.742188 L 32.925781 97.203125 L 27.585938 95.652344 L 28.902344 90.257812 L 23.914062 87.804688 L 26.152344 82.722656 L 21.675781 79.4375 L 24.765625 74.824219 L 20.925781 70.808594 L 24.765625 66.792969 L 21.675781 62.179688 L 26.152344 58.894531 L 23.914062 53.8125 L 28.902344 51.359375 L 27.585938 45.964844 L 32.925781 44.414062 L 32.570312 38.875 L 38.097656 38.269531 L 38.699219 32.75 L 44.25 33.105469 L 45.804688 27.777344 L 51.207031 29.089844 L 53.664062 24.113281 L 58.753906 26.347656 L 62.046875 21.875 L 66.664062 24.964844 L 70.6875 21.128906 L 74.707031 24.964844 L 79.328125 21.875 L 82.621094 26.347656 L 87.710938 24.113281 L 90.167969 29.089844 L 95.570312 27.777344 L 97.125 33.109375 L 102.675781 32.75 L 103.28125 38.269531 L 108.808594 38.875 L 108.449219 44.414062 L 113.789062 45.964844 L 112.472656 51.359375 L 117.460938 53.8125 L 115.222656 58.894531 L 119.699219 62.179688 L 116.605469 66.792969 L 120.449219 70.808594 L 116.605469 74.824219 L 119.699219 79.4375 L 115.222656 82.726562 L 117.457031 87.804688 L 112.472656 90.261719 L 113.789062 95.652344 Z M 10.042969 91.808594 L 15.128906 70.929688 C 15.15625 70.820312 15.15625 70.707031 15.128906 70.597656 L 10.0625 51.6875 L 24.152344 51.6875 L 22.328125 52.582031 C 22.007812 52.742188 21.867188 53.121094 22.011719 53.449219 L 24.121094 58.230469 L 19.90625 61.324219 C 19.617188 61.535156 19.546875 61.9375 19.746094 62.234375 L 22.65625 66.574219 L 19.042969 70.347656 C 18.796875 70.605469 18.796875 71.011719 19.042969 71.269531 L 22.65625 75.046875 L 19.746094 79.386719 C 19.546875 79.679688 19.617188 80.082031 19.90625 80.292969 L 24.121094 83.386719 L 22.011719 88.167969 C 21.867188 88.492188 22.007812 88.875 22.328125 89.03125 L 27.019531 91.34375 L 26.90625 91.808594 Z M 114.464844 91.808594 L 114.351562 91.34375 L 119.046875 89.035156 C 119.367188 88.875 119.503906 88.496094 119.359375 88.167969 L 117.253906 83.386719 L 121.46875 80.292969 C 121.757812 80.082031 121.828125 79.679688 121.628906 79.386719 L 118.71875 75.042969 L 122.332031 71.269531 C 122.578125 71.011719 122.578125 70.605469 122.332031 70.347656 L 118.71875 66.574219 L 121.628906 62.234375 C 121.828125 61.9375 121.757812 61.539062 121.46875 61.324219 L 117.253906 58.230469 L 119.363281 53.449219 C 119.507812 53.125 119.367188 52.742188 119.046875 52.585938 L 117.222656 51.6875 L 131.269531 51.6875 L 125.296875 70.570312 C 125.257812 70.695312 125.253906 70.828125 125.292969 70.953125 L 131.296875 91.808594 Z M 132.820312 92.289062 L 126.628906 70.777344 L 132.816406 51.222656 C 132.882812 51.019531 132.84375 50.796875 132.71875 50.625 C 132.59375 50.453125 132.394531 50.355469 132.179688 50.355469 L 114.359375 50.355469 C 114.257812 50.355469 114.160156 50.382812 114.074219 50.425781 L 115.386719 45.042969 L 109.851562 43.433594 L 110.222656 37.6875 L 104.488281 37.0625 L 103.863281 31.339844 L 98.109375 31.710938 L 96.496094 26.183594 L 90.894531 27.542969 L 88.34375 22.378906 L 83.066406 24.699219 L 79.648438 20.058594 L 74.855469 23.261719 L 70.6875 19.285156 L 66.519531 23.261719 L 61.726562 20.058594 L 58.308594 24.699219 L 53.03125 22.378906 L 50.480469 27.542969 L 44.878906 26.183594 L 43.269531 31.710938 L 37.511719 31.339844 L 36.886719 37.058594 L 31.152344 37.6875 L 31.523438 43.433594 L 25.988281 45.039062 L 27.300781 50.425781 C 27.214844 50.382812 27.117188 50.355469 27.015625 50.355469 L 9.195312 50.355469 C 8.988281 50.355469 8.792969 50.449219 8.664062 50.613281 C 8.539062 50.777344 8.496094 50.992188 8.550781 51.191406 L 13.792969 70.777344 L 8.546875 92.316406 C 8.496094 92.515625 8.542969 92.726562 8.667969 92.886719 C 8.796875 93.046875 8.988281 93.140625 9.195312 93.140625 L 26.824219 93.140625 L 25.988281 96.574219 L 31.523438 98.183594 L 31.152344 103.929688 L 36.882812 104.554688 L 37.511719 110.277344 L 43.265625 109.90625 L 44.878906 115.4375 L 50.480469 114.074219 L 53.03125 119.238281 L 58.308594 116.917969 L 61.726562 121.558594 L 66.519531 118.355469 L 70.6875 122.332031 L 74.855469 118.355469 L 79.648438 121.558594 L 83.0625 116.917969 L 88.34375 119.238281 L 90.894531 114.074219 L 96.496094 115.4375 L 98.105469 109.90625 L 103.859375 110.277344 L 104.488281 104.558594 L 110.21875 103.929688 L 109.851562 98.183594 L 115.386719 96.578125 L 114.550781 93.140625 L 132.179688 93.140625 C 132.390625 93.140625 132.585938 93.042969 132.714844 92.875 C 132.839844 92.707031 132.878906 92.492188 132.820312 92.289062 " fill-opacity="1" fill-rule="nonzero"/></g><path fill="#ffffff" d="M 70.246094 33.242188 C 67.199219 33.277344 64.238281 33.667969 61.402344 34.390625 L 60.382812 30.585938 C 63.542969 29.78125 66.847656 29.335938 70.246094 29.300781 Z M 80.992188 30.585938 L 79.972656 34.390625 C 77.136719 33.667969 74.175781 33.277344 71.128906 33.242188 L 71.128906 29.300781 C 74.527344 29.335938 77.832031 29.78125 80.992188 30.585938 Z M 108.3125 70.246094 C 108.269531 67.191406 107.863281 64.226562 107.128906 61.390625 L 110.933594 60.371094 C 111.757812 63.535156 112.214844 66.839844 112.261719 70.246094 Z M 107.183594 79.992188 C 107.902344 77.148438 108.292969 74.179688 108.320312 71.121094 L 112.265625 71.121094 C 112.238281 74.53125 111.800781 77.84375 110.996094 81.011719 Z M 103.542969 89.113281 C 104.992188 86.527344 106.144531 83.753906 106.953125 80.839844 L 110.769531 81.859375 C 109.867188 85.113281 108.582031 88.203125 106.957031 91.085938 Z M 97.65625 96.988281 C 99.738281 94.847656 101.570312 92.460938 103.105469 89.875 L 106.519531 91.84375 C 104.816406 94.730469 102.773438 97.386719 100.445312 99.773438 Z M 89.933594 103.085938 C 92.515625 101.546875 94.898438 99.703125 97.035156 97.609375 L 99.824219 100.394531 C 97.445312 102.730469 94.789062 104.78125 91.90625 106.496094 Z M 80.882812 106.976562 C 83.804688 106.152344 86.582031 104.988281 89.171875 103.523438 L 91.144531 106.9375 C 88.261719 108.574219 85.164062 109.875 81.90625 110.785156 Z M 71.128906 108.375 C 74.199219 108.339844 77.183594 107.945312 80.035156 107.214844 L 81.058594 111.015625 C 77.875 111.832031 74.550781 112.28125 71.128906 112.316406 Z M 61.339844 107.214844 C 64.191406 107.945312 67.175781 108.339844 70.246094 108.375 L 70.246094 112.316406 C 66.824219 112.28125 63.5 111.832031 60.320312 111.015625 Z M 52.203125 103.523438 C 54.792969 104.988281 57.570312 106.152344 60.492188 106.976562 L 59.46875 110.785156 C 56.210938 109.875 53.113281 108.574219 50.230469 106.9375 Z M 44.339844 97.609375 C 46.472656 99.703125 48.859375 101.546875 51.441406 103.085938 L 49.46875 106.496094 C 46.585938 104.78125 43.929688 102.730469 41.550781 100.394531 Z M 38.269531 89.875 C 39.804688 92.460938 41.636719 94.847656 43.71875 96.988281 L 40.929688 99.773438 C 38.601562 97.390625 36.558594 94.730469 34.855469 91.84375 Z M 34.421875 80.839844 C 35.230469 83.753906 36.382812 86.527344 37.832031 89.113281 L 34.417969 91.085938 C 32.792969 88.203125 31.503906 85.113281 30.605469 81.859375 Z M 33.054688 71.121094 C 33.082031 74.179688 33.472656 77.148438 34.191406 79.992188 L 30.378906 81.011719 C 29.574219 77.84375 29.136719 74.53125 29.109375 71.121094 Z M 34.246094 61.390625 C 33.511719 64.226562 33.105469 67.191406 33.0625 70.246094 L 29.113281 70.246094 C 29.160156 66.839844 29.617188 63.535156 30.4375 60.371094 Z M 37.941406 52.316406 C 36.480469 54.886719 35.3125 57.644531 34.484375 60.542969 L 30.667969 59.523438 C 31.585938 56.285156 32.886719 53.210938 34.523438 50.34375 Z M 43.84375 44.503906 C 41.757812 46.625 39.917969 48.988281 38.378906 51.554688 L 34.964844 49.585938 C 36.679688 46.722656 38.726562 44.082031 41.054688 41.71875 Z M 51.550781 38.46875 C 48.976562 39.992188 46.601562 41.8125 44.46875 43.882812 L 41.675781 41.101562 C 44.054688 38.785156 46.703125 36.753906 49.578125 35.058594 Z M 52.3125 38.03125 L 50.339844 34.617188 C 53.210938 33.003906 56.292969 31.71875 59.53125 30.816406 L 60.554688 34.625 C 57.652344 35.4375 54.890625 36.585938 52.3125 38.03125 Z M 89.0625 38.03125 C 86.484375 36.585938 83.722656 35.4375 80.820312 34.625 L 81.84375 30.816406 C 85.082031 31.71875 88.164062 33.003906 91.035156 34.617188 Z M 96.910156 43.882812 C 94.773438 41.8125 92.398438 39.992188 89.824219 38.46875 L 91.796875 35.058594 C 94.667969 36.753906 97.320312 38.785156 99.699219 41.101562 Z M 102.996094 51.554688 C 101.457031 48.988281 99.617188 46.625 97.53125 44.503906 L 100.320312 41.71875 C 102.648438 44.082031 104.695312 46.722656 106.410156 49.585938 Z M 103.433594 52.316406 L 106.851562 50.34375 C 108.488281 53.210938 109.789062 56.285156 110.707031 59.523438 L 106.890625 60.542969 C 106.0625 57.644531 104.894531 54.886719 103.433594 52.316406 Z M 70.6875 35.578125 C 90.144531 35.578125 105.976562 51.382812 105.976562 70.808594 C 105.976562 90.234375 90.144531 106.039062 70.6875 106.039062 C 51.230469 106.039062 35.398438 90.234375 35.398438 70.808594 C 35.398438 51.382812 51.230469 35.578125 70.6875 35.578125 Z M 71.128906 27.523438 L 71.128906 27.519531 L 70.246094 27.519531 L 70.246094 27.523438 C 46.542969 27.761719 27.328125 47.085938 27.328125 70.808594 C 27.328125 94.679688 46.777344 114.097656 70.6875 114.097656 C 94.59375 114.097656 114.046875 94.679688 114.046875 70.808594 C 114.046875 47.085938 94.832031 27.761719 71.128906 27.523438 " fill-opacity="1" fill-rule="nonzero"/><path fill="#ffffff" d="M 95.421875 51.6875 C 99.71875 57.214844 101.992188 63.816406 101.992188 70.808594 C 101.992188 78.59375 99.101562 86.039062 93.84375 91.808594 L 47.53125 91.808594 C 42.273438 86.039062 39.382812 78.59375 39.382812 70.808594 C 39.382812 63.816406 41.652344 57.214844 45.953125 51.6875 Z M 45.105469 50.605469 C 40.488281 56.421875 38.046875 63.40625 38.046875 70.808594 C 38.046875 79.027344 41.136719 86.878906 46.746094 92.925781 L 46.945312 93.140625 L 94.429688 93.140625 L 94.625 92.925781 C 100.234375 86.878906 103.324219 79.027344 103.324219 70.808594 C 103.324219 63.40625 100.882812 56.421875 96.269531 50.605469 L 96.066406 50.355469 L 45.308594 50.355469 L 45.105469 50.605469 " fill-opacity="1" fill-rule="nonzero"/><path fill="#ffffff" d="M 68.644531 47.695312 L 71.183594 45.855469 L 73.722656 47.695312 L 72.75 44.71875 L 75.289062 42.875 L 72.152344 42.875 L 71.183594 39.898438 L 70.214844 42.875 L 67.078125 42.875 L 69.613281 44.71875 L 68.644531 47.695312 " fill-opacity="1" fill-rule="nonzero"/><path fill="#ffffff" d="M 59.902344 47.050781 L 61.476562 45.910156 L 63.050781 47.050781 L 62.449219 45.203125 L 64.023438 44.0625 L 62.078125 44.0625 L 61.476562 42.214844 L 60.875 44.0625 L 58.925781 44.0625 L 60.503906 45.203125 L 59.902344 47.050781 " fill-opacity="1" fill-rule="nonzero"/><path fill="#ffffff" d="M 78.324219 47.050781 L 79.898438 45.910156 L 81.476562 47.050781 L 80.871094 45.203125 L 82.449219 44.0625 L 80.5 44.0625 L 79.898438 42.214844 L 79.296875 44.0625 L 77.351562 44.0625 L 78.925781 45.203125 L 78.324219 47.050781 " fill-opacity="1" fill-rule="nonzero"/><path fill="#ffffff" d="M 73.722656 94.382812 L 71.183594 96.222656 L 68.644531 94.382812 L 69.613281 97.359375 L 67.078125 99.203125 L 70.214844 99.203125 L 71.183594 102.179688 L 72.152344 99.203125 L 75.289062 99.203125 L 72.75 97.359375 L 73.722656 94.382812 " fill-opacity="1" fill-rule="nonzero"/><path fill="#ffffff" d="M 63.050781 95.027344 L 61.476562 96.171875 L 59.902344 95.027344 L 60.503906 96.875 L 58.925781 98.015625 L 60.875 98.015625 L 61.476562 99.867188 L 62.078125 98.015625 L 64.023438 98.015625 L 62.449219 96.875 L 63.050781 95.027344 " fill-opacity="1" fill-rule="nonzero"/><path fill="#ffffff" d="M 81.476562 95.027344 L 79.898438 96.171875 L 78.324219 95.027344 L 78.925781 96.875 L 77.351562 98.015625 L 79.296875 98.015625 L 79.898438 99.867188 L 80.5 98.015625 L 82.449219 98.015625 L 80.871094 96.875 L 81.476562 95.027344 " fill-opacity="1" fill-rule="nonzero"/><path fill="#ffffff" d="M 55.664062 64.816406 L 55.664062 61.851562 L 56.769531 61.851562 C 57.800781 61.851562 58.363281 62.355469 58.363281 63.347656 C 58.363281 64.3125 57.800781 64.816406 56.710938 64.816406 Z M 55.664062 56.441406 L 56.652344 56.441406 C 57.546875 56.441406 57.9375 56.90625 57.9375 57.820312 C 57.9375 58.769531 57.527344 59.273438 56.75 59.273438 L 55.664062 59.273438 Z M 61.199219 63.363281 C 61.199219 62.140625 60.59375 61.054688 59.585938 60.472656 C 60.304688 59.816406 60.730469 58.730469 60.730469 57.703125 C 60.730469 55.394531 59.234375 53.84375 57.136719 53.84375 L 52.90625 53.84375 L 52.90625 67.417969 L 57.199219 67.417969 C 59.527344 67.417969 61.199219 65.789062 61.199219 63.363281 " fill-opacity="1" fill-rule="nonzero"/><path fill="#ffffff" d="M 70.035156 64.796875 L 65.589844 64.796875 L 65.589844 61.792969 L 69.453125 61.792969 L 69.453125 59.273438 L 65.589844 59.273438 L 65.589844 56.460938 L 69.84375 56.460938 L 69.84375 53.84375 L 62.832031 53.84375 L 62.832031 67.417969 L 70.035156 67.417969 L 70.035156 64.796875 " fill-opacity="1" fill-rule="nonzero"/><path fill="#ffffff" d="M 75.339844 65.011719 C 74.464844 65.011719 73.921875 64.546875 73.921875 63.460938 L 71.085938 63.460938 C 71.085938 66.195312 72.71875 67.6875 75.300781 67.6875 C 78 67.6875 79.574219 66.058594 79.574219 63.828125 C 79.574219 59.503906 74.175781 59.371094 74.175781 57.238281 C 74.175781 56.617188 74.601562 56.230469 75.320312 56.230469 C 76.117188 56.230469 76.523438 56.675781 76.523438 57.566406 L 79.359375 57.566406 C 79.359375 55.066406 77.84375 53.570312 75.339844 53.570312 C 72.835938 53.570312 71.378906 55.082031 71.378906 57.160156 C 71.378906 61.289062 76.699219 61.558594 76.699219 63.808594 C 76.699219 64.488281 76.253906 65.011719 75.339844 65.011719 " fill-opacity="1" fill-rule="nonzero"/><path fill="#ffffff" d="M 82.972656 67.417969 L 85.808594 67.417969 L 85.808594 56.460938 L 88.46875 56.460938 L 88.46875 53.84375 L 80.3125 53.84375 L 80.3125 56.460938 L 82.972656 56.460938 L 82.972656 67.417969 " fill-opacity="1" fill-rule="nonzero"/><path fill="#ffffff" d="M 52.285156 71.886719 L 53.429688 71.886719 C 54.535156 71.886719 55.117188 72.566406 55.117188 73.886719 C 55.117188 75.183594 54.535156 75.863281 53.429688 75.863281 L 52.285156 75.863281 Z M 52.285156 78.480469 L 53.46875 78.480469 C 56.285156 78.480469 57.953125 76.773438 57.953125 73.886719 C 57.953125 70.976562 56.285156 69.269531 53.46875 69.269531 L 49.527344 69.269531 L 49.527344 82.84375 L 52.285156 82.84375 L 52.285156 78.480469 " fill-opacity="1" fill-rule="nonzero"/><path fill="#ffffff" d="M 63.375 75.667969 L 62.226562 75.667969 L 62.226562 71.886719 L 63.375 71.886719 C 64.34375 71.886719 64.871094 72.546875 64.871094 73.789062 C 64.871094 75.011719 64.34375 75.667969 63.375 75.667969 Z M 65.820312 77.707031 C 67.027344 76.988281 67.707031 75.628906 67.707031 73.789062 C 67.707031 70.9375 66.113281 69.269531 63.414062 69.269531 L 59.46875 69.269531 L 59.46875 82.84375 L 62.226562 82.84375 L 62.226562 78.289062 L 63.199219 78.289062 L 65.375 82.84375 L 68.386719 82.84375 L 65.820312 77.707031 " fill-opacity="1" fill-rule="nonzero"/><path fill="#ffffff" d="M 72.445312 69.269531 L 69.6875 69.269531 L 69.6875 82.84375 L 72.445312 82.84375 L 72.445312 69.269531 " fill-opacity="1" fill-rule="nonzero"/><path fill="#ffffff" d="M 78.660156 71.675781 C 79.710938 71.675781 80.175781 72.179688 80.253906 73.421875 L 83.011719 73.421875 C 82.914062 70.550781 81.398438 69 78.679688 69 C 76.019531 69 74.464844 70.550781 74.464844 73.421875 L 74.464844 78.695312 C 74.464844 81.546875 76.019531 83.078125 78.660156 83.078125 C 81.417969 83.078125 82.992188 81.546875 83.050781 78.695312 L 80.292969 78.695312 C 80.214844 79.898438 79.730469 80.402344 78.660156 80.402344 C 77.804688 80.402344 77.339844 79.859375 77.339844 78.695312 L 77.339844 73.421875 C 77.339844 72.21875 77.824219 71.675781 78.660156 71.675781 " fill-opacity="1" fill-rule="nonzero"/><path fill="#ffffff" d="M 91.65625 71.886719 L 91.65625 69.269531 L 84.644531 69.269531 L 84.644531 82.84375 L 91.847656 82.84375 L 91.847656 80.226562 L 87.402344 80.226562 L 87.402344 77.222656 L 91.269531 77.222656 L 91.269531 74.699219 L 87.402344 74.699219 L 87.402344 71.886719 L 91.65625 71.886719 " fill-opacity="1" fill-rule="nonzero"/><path fill="#ffffff" d="M 55.320312 87.84375 L 56.304688 87.84375 L 56.304688 88.691406 C 56.304688 89.386719 55.921875 89.738281 55.335938 89.738281 C 54.769531 89.738281 54.382812 89.386719 54.382812 88.636719 L 54.382812 86.316406 C 54.382812 85.558594 54.726562 85.214844 55.304688 85.214844 C 55.875 85.214844 56.21875 85.535156 56.25 86.246094 L 56.898438 86.246094 C 56.859375 85.171875 56.257812 84.589844 55.304688 84.589844 C 54.335938 84.589844 53.726562 85.1875 53.726562 86.308594 L 53.726562 88.636719 C 53.726562 89.746094 54.375 90.363281 55.335938 90.363281 C 56.296875 90.363281 56.929688 89.746094 56.9375 88.691406 L 56.9375 87.261719 L 55.320312 87.261719 L 55.320312 87.84375 " fill-opacity="1" fill-rule="nonzero"/><path fill="#ffffff" d="M 60.324219 88.582031 C 60.324219 89.355469 59.957031 89.714844 59.394531 89.714844 C 58.84375 89.714844 58.476562 89.355469 58.476562 88.582031 L 58.476562 84.675781 L 57.800781 84.675781 L 57.800781 88.582031 C 57.800781 89.730469 58.445312 90.355469 59.394531 90.355469 C 60.347656 90.355469 60.992188 89.730469 60.992188 88.582031 L 60.992188 84.675781 L 60.324219 84.675781 L 60.324219 88.582031 " fill-opacity="1" fill-rule="nonzero"/><path fill="#ffffff" d="M 62.6875 88.453125 L 63.144531 86.558594 C 63.234375 86.199219 63.3125 85.726562 63.34375 85.511719 L 63.367188 85.511719 C 63.398438 85.726562 63.480469 86.199219 63.570312 86.558594 L 64.027344 88.453125 Z M 63 84.675781 L 61.558594 90.277344 L 62.246094 90.277344 L 62.542969 89.0625 L 64.167969 89.0625 L 64.464844 90.277344 L 65.15625 90.277344 L 63.714844 84.675781 L 63 84.675781 " fill-opacity="1" fill-rule="nonzero"/><path fill="#ffffff" d="M 66.46875 87.546875 L 66.46875 85.292969 L 67.179688 85.292969 C 67.820312 85.292969 68.15625 85.667969 68.15625 86.398438 C 68.15625 87.140625 67.820312 87.546875 67.171875 87.546875 Z M 68.820312 86.375 C 68.820312 85.300781 68.238281 84.675781 67.179688 84.675781 L 65.808594 84.675781 L 65.808594 90.277344 L 66.46875 90.277344 L 66.46875 88.164062 L 67.035156 88.164062 L 68.261719 90.277344 L 69.007812 90.277344 L 67.710938 88.101562 C 68.414062 87.898438 68.820312 87.292969 68.820312 86.375 " fill-opacity="1" fill-rule="nonzero"/><path fill="#ffffff" d="M 70.382812 88.453125 L 70.839844 86.558594 C 70.925781 86.199219 71.007812 85.726562 71.039062 85.511719 L 71.0625 85.511719 C 71.09375 85.726562 71.175781 86.199219 71.265625 86.558594 L 71.722656 88.453125 Z M 70.695312 84.675781 L 69.253906 90.277344 L 69.941406 90.277344 L 70.238281 89.0625 L 71.863281 89.0625 L 72.160156 90.277344 L 72.851562 90.277344 L 71.410156 84.675781 L 70.695312 84.675781 " fill-opacity="1" fill-rule="nonzero"/><path fill="#ffffff" d="M 76.070312 87.269531 C 76.070312 87.757812 76.117188 88.539062 76.15625 89.027344 L 76.132812 89.035156 C 76.003906 88.707031 75.757812 88.117188 75.570312 87.734375 L 74.171875 84.675781 L 73.503906 84.675781 L 73.503906 90.277344 L 74.164062 90.277344 L 74.164062 87.636719 C 74.164062 87.15625 74.128906 86.414062 74.097656 85.917969 L 74.121094 85.910156 C 74.242188 86.230469 74.5 86.867188 74.675781 87.269531 L 76.054688 90.277344 L 76.71875 90.277344 L 76.71875 84.675781 L 76.070312 84.675781 L 76.070312 87.269531 " fill-opacity="1" fill-rule="nonzero"/><path fill="#ffffff" d="M 77.445312 85.292969 L 78.648438 85.292969 L 78.648438 90.277344 L 79.3125 90.277344 L 79.3125 85.292969 L 80.515625 85.292969 L 80.515625 84.675781 L 77.445312 84.675781 L 77.445312 85.292969 " fill-opacity="1" fill-rule="nonzero"/><path fill="#ffffff" d="M 81.867188 87.734375 L 83.75 87.734375 L 83.75 87.132812 L 81.867188 87.132812 L 81.867188 85.285156 L 83.890625 85.285156 L 83.890625 84.675781 L 81.210938 84.675781 L 81.210938 90.277344 L 83.980469 90.277344 L 83.980469 89.660156 L 81.867188 89.660156 L 81.867188 87.734375 " fill-opacity="1" fill-rule="nonzero"/><path fill="#ffffff" d="M 85.53125 87.734375 L 87.414062 87.734375 L 87.414062 87.132812 L 85.53125 87.132812 L 85.53125 85.285156 L 87.5625 85.285156 L 87.5625 84.675781 L 84.875 84.675781 L 84.875 90.277344 L 87.648438 90.277344 L 87.648438 89.660156 L 85.53125 89.660156 L 85.53125 87.734375 " fill-opacity="1" fill-rule="nonzero"/><path fill="#ffffff" d="M 91.660156 87.089844 L 91.128906 85.457031 L 90.601562 87.089844 L 88.878906 87.089844 L 90.269531 88.097656 L 89.738281 89.730469 L 91.128906 88.722656 L 92.519531 89.730469 L 91.988281 88.097656 L 93.378906 87.089844 L 91.660156 87.089844 " fill-opacity="1" fill-rule="nonzero"/><path fill="#ffffff" d="M 48.855469 89.730469 L 50.246094 88.722656 L 51.636719 89.730469 L 51.105469 88.097656 L 52.496094 87.089844 L 50.777344 87.089844 L 50.246094 85.457031 L 49.714844 87.089844 L 47.996094 87.089844 L 49.386719 88.097656 L 48.855469 89.730469 " fill-opacity="1" fill-rule="nonzero"/></svg>