<svg xmlns="http://www.w3.org/2000/svg" xmlns:xlink="http://www.w3.org/1999/xlink" width="188" zoomAndPan="magnify" viewBox="0 0 141.12 141.750002" height="188" preserveAspectRatio="xMidYMid meet" version="1.0"><defs><clipPath id="58519f5916"><path d="M 8.609375 29 L 131.683594 29 L 131.683594 111.933594 L 8.609375 111.933594 Z M 8.609375 29 " clip-rule="nonzero"/></clipPath></defs><g clip-path="url(#58519f5916)"><path fill="#ffffff" d="M 19.933594 80.613281 C 20 80.339844 20.0625 80.078125 20.140625 79.808594 C 20.015625 79.671875 19.941406 79.53125 19.898438 79.386719 C 19.101562 79.238281 18.3125 79.085938 17.527344 78.847656 C 17.265625 78.769531 17.011719 78.507812 17.039062 78.210938 C 17.621094 73.246094 17.875 68.496094 17.910156 63.503906 C 17.28125 63.226562 16.652344 62.945312 16.019531 62.683594 C 15.6875 68.355469 15.3125 74.027344 14.660156 79.671875 C 14.761719 79.753906 14.851562 79.855469 14.910156 79.972656 C 16.582031 80.222656 18.269531 80.289062 19.933594 80.613281 Z M 20.632812 86.691406 C 20.691406 86.632812 20.75 86.574219 20.800781 86.515625 C 20.050781 85.707031 19.441406 84.914062 19.484375 83.652344 C 19.492188 83.367188 19.519531 83.070312 19.554688 82.777344 C 17.894531 82.441406 16.203125 82.359375 14.527344 82.125 C 14.484375 82.285156 14.441406 82.441406 14.394531 82.59375 C 14.769531 82.667969 15.121094 82.753906 15.417969 82.839844 C 16.121094 83.042969 16.652344 83.242188 17.046875 83.390625 C 17.832031 83.679688 18.132812 83.828125 18.113281 83.996094 C 18.105469 84.136719 17.738281 84.253906 16.863281 84.144531 C 16.421875 84.089844 15.863281 83.96875 15.167969 83.820312 C 14.851562 83.761719 14.492188 83.6875 14.109375 83.636719 C 14.027344 83.960938 13.941406 84.273438 13.851562 84.597656 C 15.136719 84.902344 16.039062 85.121094 16.652344 85.261719 C 17.40625 85.421875 17.710938 85.589844 17.699219 85.734375 C 17.699219 85.890625 17.394531 86.011719 16.5625 86.039062 C 16.144531 86.050781 15.613281 85.988281 14.929688 85.90625 C 14.535156 85.832031 14.082031 85.75 13.582031 85.648438 C 13.539062 85.820312 13.488281 85.988281 13.445312 86.152344 C 15.710938 86.421875 17.988281 86.5 20.226562 86.964844 C 20.234375 86.957031 20.242188 86.957031 20.242188 86.949219 C 20.308594 86.921875 20.367188 86.878906 20.429688 86.84375 C 20.472656 86.816406 20.515625 86.789062 20.550781 86.757812 C 20.558594 86.75 20.578125 86.730469 20.632812 86.691406 Z M 22.789062 77.179688 C 22.605469 77.058594 22.429688 76.90625 22.238281 76.664062 C 21.769531 76.074219 22.101562 75.632812 21 75.914062 C 20.675781 75.992188 20.246094 75.808594 20.183594 75.449219 C 19.605469 72.066406 20.753906 68.351562 20.925781 64.90625 C 20.367188 64.632812 19.800781 64.371094 19.238281 64.113281 C 19.265625 67.152344 19.441406 70.238281 19.058594 73.253906 C 18.882812 74.59375 18.636719 75.914062 18.472656 77.25 C 18.40625 77.871094 19.421875 78.105469 20.339844 78.21875 C 20.53125 78.078125 20.753906 77.992188 20.992188 77.984375 C 21.59375 77.726562 22.1875 77.449219 22.789062 77.179688 Z M 29.066406 74.328125 C 29.695312 74.035156 30.335938 73.769531 30.980469 73.5 C 28.585938 73.09375 26.609375 70.800781 26.632812 67.796875 C 26.640625 67.785156 26.640625 67.769531 26.644531 67.753906 C 25.171875 67 23.6875 66.25 22.203125 65.523438 C 21.957031 68.460938 21.066406 71.640625 21.382812 74.515625 C 22.867188 74.429688 22.953125 75.605469 24.371094 76.480469 C 25.945312 75.765625 27.507812 75.046875 29.066406 74.328125 Z M 27.992188 68.453125 C 28.347656 71.480469 31.285156 73.414062 33.867188 71.5 C 31.90625 70.496094 29.957031 69.472656 27.992188 68.453125 Z M 42.28125 75.957031 C 41.78125 75.574219 41.304688 75.171875 40.839844 74.722656 C 40.648438 74.742188 40.453125 74.714844 40.238281 74.621094 C 39.671875 74.355469 39.117188 74.09375 38.550781 73.820312 C 37.300781 74.980469 36.191406 76.375 34.65625 77.152344 C 33.023438 77.976562 31.429688 78.839844 29.859375 79.765625 C 31.144531 80.289062 32.355469 80.949219 33.539062 81.667969 C 34.273438 80.296875 35.160156 80.019531 36.542969 79.3125 C 38.527344 78.296875 40.414062 77.160156 42.28125 75.957031 Z M 41.664062 65.433594 C 41.722656 65.089844 41.785156 64.746094 41.847656 64.398438 C 36.59375 61.476562 31.480469 58.238281 26.375 55.074219 C 22 52.347656 17.980469 49.097656 13.410156 46.710938 C 13.347656 46.71875 13.269531 46.71875 13.199219 46.710938 C 13.15625 46.824219 13.117188 46.9375 13.070312 47.050781 C 13.671875 47.5625 14.21875 48.066406 14.71875 48.519531 C 15.078125 48.855469 15.429688 49.140625 15.769531 49.402344 C 16.101562 49.671875 16.445312 49.917969 16.78125 50.164062 C 18.097656 51.109375 19.117188 51.875 19.878906 52.46875 C 21.410156 53.648438 21.925781 54.179688 21.835938 54.304688 C 21.742188 54.429688 21.058594 54.113281 19.421875 53.097656 C 18.601562 52.585938 17.546875 51.902344 16.207031 51 C 15.871094 50.78125 15.519531 50.539062 15.140625 50.25 C 14.761719 49.972656 14.371094 49.664062 14.003906 49.324219 C 13.550781 48.9375 13.085938 48.519531 12.605469 48.101562 C 12.332031 48.679688 12.035156 49.246094 11.738281 49.820312 C 14.109375 51.75 16.277344 53.179688 18.113281 54.296875 C 20.164062 55.542969 21.800781 56.445312 23.0625 57.125 C 25.585938 58.480469 26.546875 59.011719 26.472656 59.171875 C 26.417969 59.289062 25.339844 59.015625 22.710938 57.820312 C 21.398438 57.222656 19.699219 56.390625 17.589844 55.167969 C 16.269531 54.40625 14.78125 53.480469 13.175781 52.3125 C 13.175781 52.355469 13.183594 52.402344 13.183594 52.445312 C 13.121094 53.253906 12.726562 53.855469 12.167969 54.289062 C 12.335938 54.40625 12.519531 54.523438 12.710938 54.628906 C 13.191406 54.882812 13.699219 55.082031 14.1875 55.257812 C 15.183594 55.617188 16.113281 55.882812 16.964844 56.21875 C 18.601562 56.917969 19.832031 57.492188 20.761719 58.007812 C 21.6875 58.496094 22.292969 58.917969 22.660156 59.207031 C 23.027344 59.496094 23.15625 59.660156 23.121094 59.722656 C 23.078125 59.78125 22.871094 59.746094 22.4375 59.574219 C 22.019531 59.398438 21.367188 59.113281 20.417969 58.707031 C 19.476562 58.296875 18.199219 57.792969 16.597656 57.167969 C 15.820312 56.890625 14.871094 56.636719 13.828125 56.277344 C 13.304688 56.09375 12.753906 55.886719 12.199219 55.597656 C 11.925781 55.449219 11.640625 55.28125 11.371094 55.066406 C 11.332031 55.527344 11.28125 55.992188 11.230469 56.453125 C 11.835938 56.742188 12.429688 57.011719 12.964844 57.265625 C 13.757812 57.609375 14.46875 57.921875 15.113281 58.210938 C 16.421875 58.738281 17.4375 59.179688 18.214844 59.488281 C 19.78125 60.074219 20.359375 60.394531 20.316406 60.542969 C 20.28125 60.691406 19.632812 60.632812 17.964844 60.230469 C 17.132812 60.007812 16.085938 59.640625 14.730469 59.15625 C 14.074219 58.882812 13.339844 58.585938 12.519531 58.253906 C 12.074219 58.054688 11.601562 57.835938 11.101562 57.609375 C 11.082031 57.886719 11.058594 58.167969 11.050781 58.445312 C 21.390625 61.917969 30.796875 67.761719 40.640625 72.390625 C 40.664062 72.085938 40.683594 71.789062 40.71875 71.492188 C 39.441406 70.976562 38.460938 70.242188 37.5625 69.640625 C 37.019531 69.273438 36.523438 68.921875 36.03125 68.636719 C 35.535156 68.34375 35.007812 68.109375 34.546875 67.855469 C 32.65625 66.894531 31.1875 66.117188 30.054688 65.515625 C 27.800781 64.304688 27 63.75 27.066406 63.621094 C 27.140625 63.480469 28.074219 63.792969 30.394531 64.8125 C 31.554688 65.316406 33.078125 66.03125 35.015625 66.964844 C 35.5 67.203125 36.015625 67.417969 36.550781 67.726562 C 37.101562 68.027344 37.625 68.386719 38.175781 68.746094 C 38.996094 69.296875 39.871094 69.910156 40.839844 70.347656 C 40.902344 69.871094 40.964844 69.386719 41.046875 68.90625 C 39.921875 68.351562 38.871094 67.839844 37.929688 67.332031 C 36.816406 66.683594 35.804688 66.097656 34.890625 65.574219 C 33.113281 64.582031 31.601562 63.988281 30.453125 63.460938 C 29.300781 62.96875 28.550781 62.5 28.078125 62.1875 C 27.617188 61.878906 27.441406 61.714844 27.484375 61.644531 C 27.519531 61.582031 27.773438 61.625 28.285156 61.808594 C 28.800781 62 29.574219 62.335938 30.753906 62.738281 C 31.90625 63.164062 33.480469 63.695312 35.402344 64.695312 C 36.3125 65.199219 37.328125 65.757812 38.453125 66.382812 C 39.304688 66.835938 40.238281 67.277344 41.234375 67.769531 C 41.3125 67.367188 41.382812 66.964844 41.460938 66.5625 C 40.296875 65.976562 39.214844 65.433594 38.226562 64.945312 C 37.109375 64.347656 36.101562 63.804688 35.199219 63.320312 C 33.367188 62.402344 31.90625 61.722656 30.820312 61.109375 C 30.28125 60.804688 29.820312 60.558594 29.453125 60.316406 C 29.09375 60.070312 28.804688 59.863281 28.585938 59.703125 C 28.15625 59.363281 27.992188 59.1875 28.035156 59.121094 C 28.074219 59.054688 28.316406 59.113281 28.804688 59.328125 C 29.058594 59.433594 29.371094 59.582031 29.757812 59.773438 C 30.144531 59.949219 30.613281 60.164062 31.171875 60.414062 C 32.273438 60.917969 33.769531 61.53125 35.648438 62.410156 C 36.574219 62.878906 37.59375 63.402344 38.726562 63.984375 C 39.636719 64.429688 40.613281 64.914062 41.664062 65.433594 Z M 52.042969 79.503906 C 52.257812 76.699219 52.640625 73.894531 53.527344 71.21875 C 50.300781 69.261719 46.871094 67.652344 43.910156 65.304688 C 43.433594 68.03125 42.824219 70.75 42.816406 73.535156 C 45.550781 76.007812 49.011719 77.433594 52.042969 79.503906 Z M 52.039062 85.230469 C 52.554688 85.460938 55.683594 86.773438 56.738281 86.414062 C 55.125 85.269531 53.675781 83.976562 52.511719 82.457031 C 52.457031 82.433594 52.40625 82.402344 52.351562 82.375 C 52.214844 82.332031 52.082031 82.265625 51.957031 82.160156 C 51.542969 81.820312 51.128906 81.507812 50.691406 81.207031 C 50.65625 81.222656 50.625 81.242188 50.582031 81.25 C 49.714844 81.414062 47.144531 82.675781 49.234375 83.898438 C 49.605469 84.117188 49.984375 84.3125 50.386719 84.484375 C 50.9375 84.730469 51.480469 84.996094 52.039062 85.230469 Z M 58.867188 50.214844 C 58.230469 50.007812 57.667969 49.75 57.546875 49.28125 C 57.421875 48.816406 57.300781 47.480469 56.933594 47.277344 C 56.234375 46.886719 55.613281 46.484375 54.984375 45.976562 C 51.269531 43.042969 47.308594 41.242188 44.558594 37.257812 C 42.53125 37.957031 40.414062 38.046875 38.375 38.699219 C 36.199219 39.382812 34.125 40.28125 32.070312 41.234375 C 29.242188 42.550781 26.449219 43.796875 23.429688 44.5 C 24.421875 45.410156 25.414062 46.441406 26.574219 46.929688 C 28.167969 47.605469 29.460938 47.488281 31.09375 47.65625 C 32.355469 47.785156 34.082031 47.882812 34.808594 49.128906 C 35.035156 49.515625 35.125 50.179688 34.957031 50.597656 C 34.808594 50.964844 36.191406 51.816406 36.292969 52.164062 C 36.855469 54.234375 41.136719 57.035156 43.347656 57.894531 C 43.898438 55.839844 45.789062 53.894531 47.84375 53.097656 C 51.09375 51.84375 54.996094 50.632812 58.867188 50.214844 Z M 57.109375 89.460938 C 59.066406 90.136719 61.804688 91.875 63.402344 90.3125 C 61.550781 89.335938 59.675781 88.335938 57.933594 87.21875 C 56.546875 88.710938 52.519531 86.886719 51.121094 86.265625 C 49.625 85.59375 47.894531 85.078125 47.300781 83.425781 C 46.785156 81.984375 48.019531 80.832031 49.285156 80.28125 C 47.34375 79.09375 45.308594 78.0625 43.425781 76.792969 C 42.117188 77.652344 40.804688 78.511719 39.433594 79.277344 C 38.332031 79.878906 36.601562 80.480469 35.484375 81.414062 C 36.851562 81.292969 38.269531 81.023438 39.371094 81.949219 C 41.773438 83.976562 45.570312 85.199219 48.488281 86.324219 C 51.339844 87.433594 54.21875 88.453125 57.109375 89.460938 Z M 61.769531 50.050781 C 63.402344 50.066406 64.988281 50.265625 66.488281 50.6875 C 62.914062 48.78125 59.410156 46.457031 56.15625 44.132812 C 52.234375 41.335938 49.074219 37.632812 45.054688 34.957031 C 44.992188 34.917969 44.957031 34.867188 44.917969 34.816406 C 40.59375 36.523438 36.007812 37.644531 31.578125 39.039062 C 27.105469 40.441406 22.953125 42.691406 18.472656 44.019531 C 22.886719 47.570312 27.675781 50.339844 32.625 53.070312 C 36.367188 55.125 39.636719 57.976562 43.332031 60.074219 C 43.253906 59.800781 43.207031 59.523438 43.191406 59.238281 C 40.945312 58.457031 38.503906 56.660156 36.785156 55.082031 C 35.71875 54.105469 34.773438 52.328125 33.730469 51.632812 C 33.503906 51.476562 33.3125 51.167969 33.429688 50.882812 C 34.433594 48.371094 29.082031 49.039062 27.949219 48.757812 C 25.296875 48.109375 23.871094 46.34375 21.734375 44.78125 C 21.722656 44.765625 21.710938 44.757812 21.695312 44.746094 C 21.144531 44.539062 21 43.628906 21.703125 43.511719 C 26.304688 42.710938 30.351562 40.484375 34.597656 38.664062 C 37.835938 37.269531 41.3125 37.125 44.539062 35.859375 C 44.742188 35.78125 44.917969 35.808594 45.050781 35.894531 C 45.183594 35.9375 45.316406 36.015625 45.410156 36.167969 C 48.289062 40.648438 53.261719 43.289062 57.605469 46.136719 C 58.394531 46.660156 59.042969 47.09375 58.8125 48.136719 C 58.855469 47.917969 61.34375 49.714844 61.769531 50.050781 Z M 66.207031 51.980469 C 62.300781 50.871094 58.148438 51.640625 54.234375 52.617188 C 52.503906 53.046875 50.699219 53.40625 49.039062 54.046875 C 46.6875 54.957031 42.039062 58.472656 45.632812 61.191406 C 49.957031 60.167969 54.21875 57.878906 58.105469 55.992188 C 60.808594 54.679688 63.480469 53.273438 66.207031 51.980469 Z M 65.84375 101.449219 C 65.914062 101.03125 65.984375 100.613281 66.097656 100.203125 C 57.730469 95.617188 48.429688 93.894531 39.667969 90.285156 C 36.015625 88.777344 32.527344 86.933594 28.945312 85.269531 C 26.539062 84.144531 24.109375 83.007812 21.984375 81.414062 C 21.90625 81.765625 21.84375 82.109375 21.792969 82.464844 C 23.320312 83.527344 24.878906 84.355469 26.324219 85.105469 C 28.066406 85.996094 29.667969 86.789062 31.058594 87.636719 C 31.738281 88.042969 32.378906 88.425781 32.988281 88.792969 C 33.597656 89.136719 34.152344 89.5 34.722656 89.746094 C 35.851562 90.269531 36.800781 90.800781 37.695312 91.113281 C 38.570312 91.464844 39.304688 91.761719 39.921875 92.007812 C 40.554688 92.222656 41.058594 92.398438 41.453125 92.542969 C 42.230469 92.835938 42.5625 93.003906 42.539062 93.082031 C 42.523438 93.152344 42.152344 93.125 41.332031 92.953125 C 40.921875 92.871094 40.394531 92.757812 39.730469 92.59375 C 39.085938 92.410156 38.320312 92.148438 37.410156 91.839844 C 36.484375 91.566406 35.492188 91.070312 34.320312 90.566406 C 33.722656 90.339844 33.140625 89.980469 32.511719 89.636719 C 31.886719 89.28125 31.226562 88.90625 30.527344 88.511719 C 29.179688 87.710938 27.597656 86.949219 25.832031 86.066406 C 24.546875 85.414062 23.152344 84.703125 21.742188 83.777344 C 21.84375 84.449219 22.210938 84.804688 22.84375 85.464844 C 22.921875 85.546875 22.972656 85.636719 23.027344 85.722656 C 29.390625 90.339844 37.101562 92.722656 44.398438 95.464844 C 51.453125 98.117188 58.515625 100.746094 65.539062 103.488281 C 65.597656 103.183594 65.640625 102.875 65.683594 102.566406 C 62.945312 101.53125 60.867188 100.296875 59.015625 99.582031 C 56.914062 98.71875 55.230469 98.132812 53.980469 97.582031 C 51.460938 96.480469 50.5625 95.972656 50.625 95.832031 C 50.683594 95.695312 51.707031 95.949219 54.257812 96.847656 C 55.535156 97.300781 57.242188 97.816406 59.390625 98.636719 C 61.269531 99.320312 63.335938 100.480469 65.84375 101.449219 Z M 67.171875 95.519531 C 67.476562 95.753906 68.519531 94.277344 69.109375 93.527344 C 67.722656 92.625 66.199219 91.789062 64.628906 90.957031 C 64.304688 91.421875 63.902344 92 63.777344 92.265625 C 63.644531 92.542969 63.296875 92.628906 63.027344 92.574219 C 57.554688 91.386719 52.089844 89.253906 46.917969 87.117188 C 44.710938 86.199219 41.863281 85.566406 39.976562 84.121094 C 39.304688 83.609375 38.019531 82.527344 37.273438 82.625 C 36.59375 82.710938 35.980469 82.777344 35.347656 82.789062 C 37.097656 83.886719 38.847656 84.957031 40.832031 85.65625 C 45.125 87.164062 49.449219 88.617188 53.726562 90.101562 C 57.164062 91.292969 60.386719 92.890625 63.863281 94.035156 C 65.011719 94.410156 66.199219 94.769531 67.171875 95.519531 Z M 73.972656 101.296875 C 71.769531 102.441406 69.585938 103.636719 67.652344 105.191406 C 67.539062 105.289062 67.417969 105.347656 67.300781 105.394531 C 67.136719 105.90625 66.675781 106.28125 66.027344 106.03125 C 57.789062 102.796875 49.480469 99.746094 41.199219 96.59375 C 34.75 94.148438 28.078125 91.957031 22.394531 87.96875 C 22.109375 88.292969 21.792969 88.570312 21.417969 88.792969 C 22.429688 90.625 27.902344 92.722656 29.25 93.460938 C 32.625 95.3125 35.808594 97.417969 39.335938 99.011719 C 47.921875 102.910156 57.355469 104.492188 65.84375 108.511719 C 68.894531 106.484375 71.480469 103.949219 73.972656 101.296875 Z M 70.210938 50.199219 C 70.230469 50.171875 70.253906 50.144531 70.277344 50.109375 C 67.414062 48.613281 64.597656 47.035156 61.855469 45.316406 C 55.957031 41.617188 49.664062 37.398438 45.578125 31.613281 C 43.199219 32.863281 40.648438 33.589844 38.054688 34.355469 C 35.027344 35.25 32.128906 36.488281 29.109375 37.421875 C 25.90625 38.414062 22.738281 39.609375 19.5 40.476562 C 17.195312 41.085938 14.230469 41.582031 12.375 43.269531 C 12.882812 43.589844 13.320312 43.957031 13.726562 44.414062 C 18.636719 46.824219 22.871094 50.277344 27.484375 53.167969 C 32.3125 56.191406 37.175781 59.238281 42.148438 62.035156 C 42.324219 61.828125 42.574219 61.675781 42.914062 61.644531 C 43.050781 61.632812 43.191406 61.609375 43.332031 61.59375 C 38.96875 59.273438 35.238281 55.867188 30.804688 53.605469 C 25.824219 51.074219 21.078125 47.929688 16.78125 44.34375 C 16.277344 44.132812 16.164062 43.28125 16.84375 43.113281 C 21.816406 41.859375 26.324219 39.28125 31.226562 37.761719 C 35.875 36.3125 40.699219 35.140625 45.210938 33.289062 C 45.734375 33.074219 46.050781 33.5625 45.988281 34.007812 C 49.871094 36.671875 52.859375 40.476562 56.828125 42.996094 C 58.867188 44.289062 60.878906 45.671875 62.921875 46.984375 C 64.964844 48.304688 67.046875 49.558594 69.226562 50.609375 C 69.558594 50.46875 69.878906 50.339844 70.210938 50.199219 Z M 72.496094 95.789062 C 71.734375 95.265625 70.972656 94.761719 70.210938 94.253906 C 69.304688 95.25 68.449219 96.191406 67.335938 96.960938 C 67.050781 97.167969 66.59375 97.023438 66.433594 96.726562 C 65.484375 95.03125 60.152344 94.363281 58.480469 93.667969 C 56.78125 92.960938 55.179688 91.796875 53.375 91.375 C 51.726562 90.992188 50.117188 90.625 48.554688 89.972656 C 45.140625 88.546875 41.507812 87.558594 38.15625 86.011719 C 34.695312 84.414062 31.894531 81.675781 28.191406 80.578125 C 27.632812 80.414062 27.632812 79.757812 27.949219 79.453125 C 27.957031 79.429688 27.980469 79.421875 27.992188 79.398438 C 28.007812 79.390625 28.023438 79.378906 28.035156 79.363281 C 28.074219 79.328125 28.101562 79.285156 28.164062 79.246094 C 29.871094 78.1875 31.628906 77.207031 33.429688 76.296875 C 34.957031 75.523438 36.050781 74.328125 37.273438 73.203125 C 37.160156 73.152344 37.058594 73.101562 36.957031 73.046875 C 34.824219 74.429688 32.449219 75.117188 30.183594 76.226562 C 27.839844 77.363281 25.453125 78.425781 23.0625 79.46875 C 25.683594 81.53125 28.898438 82.785156 31.894531 84.210938 C 35.851562 86.097656 39.730469 88.042969 43.847656 89.601562 C 51.675781 92.550781 59.652344 94.203125 67.058594 98.21875 C 68.816406 97.285156 70.660156 96.542969 72.496094 95.789062 Z M 75.652344 97.949219 C 75.316406 97.71875 74.976562 97.484375 74.636719 97.257812 C 72.582031 98.148438 70.484375 98.929688 68.492188 99.957031 C 68.484375 99.984375 68.476562 99.996094 68.46875 100.019531 C 68.117188 100.746094 67.96875 101.539062 67.867188 102.335938 C 70.335938 100.664062 73.011719 99.34375 75.652344 97.949219 Z M 82.1875 56.242188 C 78.851562 54.273438 75.242188 52.488281 71.410156 52.050781 C 71.347656 52.085938 71.28125 52.121094 71.210938 52.152344 C 65.527344 54.445312 60.082031 57.476562 54.496094 60.007812 C 51.441406 61.398438 48.429688 62.796875 45.175781 63.488281 C 48 65.785156 51.339844 67.34375 54.460938 69.210938 C 56.59375 68.527344 58.816406 67.359375 60.921875 66.582031 C 63.875 65.488281 66.425781 63.769531 69.164062 62.253906 C 73.429688 59.898438 77.746094 58.113281 82.1875 56.242188 Z M 74.714844 68.414062 C 78.886719 67.308594 85.921875 63.984375 82.539062 58.65625 C 82.484375 58.613281 82.433594 58.578125 82.382812 58.535156 C 77.519531 60.597656 72.773438 62.652344 68.167969 65.382812 C 66.132812 66.597656 64.046875 67.855469 61.785156 68.605469 C 65.882812 69.953125 70.628906 69.5 74.714844 68.414062 Z M 93.078125 58.332031 C 93.746094 56.652344 91.042969 55.0625 89.550781 54.6875 C 89.132812 54.582031 88.214844 54.363281 87.414062 54.363281 C 86.636719 54.363281 85.976562 54.566406 85.976562 55.28125 C 87.445312 55.933594 89.050781 56.578125 90.5 57.234375 C 91.308594 57.582031 92.285156 57.957031 93.078125 58.332031 Z M 98.25 91.941406 C 98.71875 91.492188 98.984375 90.863281 99.070312 90.1875 C 95.695312 89.8125 92.722656 88.519531 89.453125 87.492188 C 85.152344 86.140625 80.949219 84.71875 76.800781 82.96875 C 69.695312 79.972656 61.6875 77.101562 55.445312 72.445312 C 55.371094 72.679688 55.3125 72.917969 55.246094 73.152344 C 56.695312 73.871094 58.046875 74.539062 59.300781 75.164062 C 60.917969 76.042969 62.378906 76.847656 63.691406 77.554688 C 66.296875 79.015625 68.273438 80.210938 69.792969 81.121094 C 72.828125 82.9375 73.929688 83.722656 73.855469 83.855469 C 73.78125 83.988281 72.539062 83.453125 69.402344 81.792969 C 67.84375 80.949219 65.796875 79.847656 63.179688 78.4375 C 61.871094 77.746094 60.425781 76.976562 58.816406 76.132812 C 57.625 75.546875 56.347656 74.914062 54.984375 74.246094 C 54.929688 74.503906 54.871094 74.757812 54.820312 75.015625 C 55.457031 75.40625 56.09375 75.789062 56.695312 76.15625 C 57.574219 76.664062 58.464844 77.082031 59.285156 77.519531 C 60.9375 78.386719 62.496094 79.101562 63.847656 79.808594 C 66.59375 81.234375 68.613281 82.464844 70.179688 83.394531 C 70.957031 83.886719 71.621094 84.203125 72.203125 84.484375 C 72.78125 84.746094 73.253906 85 73.605469 85.199219 C 74.296875 85.65625 74.539062 85.914062 74.496094 85.96875 C 74.449219 86.039062 74.121094 85.898438 73.40625 85.582031 C 73.039062 85.445312 72.5625 85.269531 71.960938 85.046875 C 71.355469 84.824219 70.605469 84.527344 69.820312 84.082031 C 68.203125 83.242188 66.113281 82.066406 63.394531 80.722656 C 62.03125 80.039062 60.484375 79.347656 58.804688 78.488281 C 57.964844 78.050781 57.0625 77.632812 56.15625 77.109375 C 55.65625 76.808594 55.144531 76.5 54.621094 76.183594 C 54.582031 76.488281 54.53125 76.777344 54.496094 77.082031 C 55.296875 77.492188 56.070312 77.878906 56.8125 78.261719 C 57.710938 78.703125 58.566406 79.128906 59.382812 79.539062 C 61.007812 80.394531 62.398438 81.300781 63.636719 82.066406 C 66.148438 83.578125 68.160156 84.675781 69.667969 85.582031 C 72.695312 87.367188 73.796875 88.128906 73.710938 88.265625 C 73.640625 88.394531 72.40625 87.875 69.292969 86.265625 C 67.742188 85.453125 65.667969 84.414062 63.105469 82.9375 C 61.828125 82.175781 60.464844 81.316406 58.875 80.492188 C 58.070312 80.097656 57.222656 79.6875 56.339844 79.253906 C 55.703125 78.929688 55.039062 78.59375 54.363281 78.246094 C 54.335938 78.488281 54.3125 78.734375 54.292969 78.972656 C 54.621094 79.40625 55.105469 79.789062 55.585938 80.125 C 56.226562 80.578125 56.890625 80.957031 57.53125 81.398438 C 58.757812 82.210938 59.871094 82.953125 60.867188 83.621094 C 62.878906 84.964844 64.371094 86.089844 65.53125 86.933594 C 67.835938 88.644531 68.660156 89.371094 68.570312 89.5 C 68.492188 89.628906 67.511719 89.128906 65.097656 87.585938 C 63.894531 86.800781 62.320312 85.777344 60.308594 84.464844 C 59.300781 83.851562 58.148438 83.101562 56.914062 82.285156 C 56.324219 81.898438 55.648438 81.507812 54.953125 81.03125 C 54.703125 80.839844 54.441406 80.648438 54.179688 80.4375 C 54.164062 80.613281 54.152344 80.789062 54.144531 80.964844 C 56.390625 84.074219 60.210938 85.730469 63.488281 87.542969 C 66.953125 89.460938 70.3125 91.550781 73.5 93.910156 C 80.378906 99.011719 87.53125 103.671875 94.050781 109.234375 C 94.253906 108.960938 94.453125 108.6875 94.636719 108.402344 C 94.324219 107.960938 94.027344 107.53125 93.695312 107.148438 C 93.210938 106.632812 92.777344 106.101562 92.304688 105.664062 C 91.824219 105.226562 91.359375 104.804688 90.929688 104.402344 C 90.464844 104.027344 90.023438 103.671875 89.609375 103.339844 C 87.921875 102.007812 86.554688 101.007812 85.546875 100.1875 C 84.535156 99.386719 83.875 98.769531 83.484375 98.351562 C 83.082031 97.941406 82.941406 97.726562 82.992188 97.667969 C 83.042969 97.609375 83.28125 97.710938 83.753906 98.019531 C 84.234375 98.332031 84.945312 98.839844 86.019531 99.5625 C 87.070312 100.296875 88.480469 101.222656 90.234375 102.527344 C 90.660156 102.867188 91.125 103.21875 91.601562 103.59375 C 92.074219 103.988281 92.550781 104.429688 93.054688 104.878906 C 93.554688 105.339844 94.019531 105.890625 94.539062 106.433594 C 94.789062 106.730469 95.023438 107.050781 95.257812 107.382812 C 95.476562 107.007812 95.6875 106.625 95.886719 106.238281 C 93.238281 104.335938 91.167969 102.578125 89.425781 101.191406 C 87.574219 99.710938 86.121094 98.578125 84.976562 97.773438 C 84.394531 97.371094 83.917969 97.007812 83.515625 96.726562 C 83.097656 96.457031 82.765625 96.226562 82.515625 96.054688 C 82.007812 95.6875 81.8125 95.484375 81.847656 95.421875 C 81.875 95.347656 82.148438 95.414062 82.722656 95.667969 C 83.011719 95.796875 83.382812 95.964844 83.832031 96.191406 C 84.277344 96.417969 84.792969 96.726562 85.40625 97.09375 C 86.628906 97.835938 88.160156 98.902344 90.058594 100.351562 C 91.734375 101.617188 93.667969 103.167969 96.039062 104.902344 C 95.808594 104.34375 95.574219 103.863281 95.363281 103.128906 L 95.363281 103.207031 C 95.214844 102.824219 95.089844 102.519531 94.996094 102.117188 C 94.8125 101.941406 94.699219 101.699219 94.699219 101.40625 C 93.867188 100.539062 92.894531 99.855469 91.980469 99.261719 C 90.695312 98.429688 89.457031 97.765625 88.363281 97.082031 C 86.195312 95.78125 84.496094 94.761719 83.210938 93.988281 C 80.597656 92.460938 79.65625 91.796875 79.730469 91.65625 C 79.804688 91.523438 80.886719 91.957031 83.578125 93.308594 C 84.925781 93.980469 86.679688 94.96875 88.894531 96.214844 C 89.960938 96.855469 91.21875 97.5 92.566406 98.34375 C 93.4375 98.910156 94.394531 99.554688 95.265625 100.414062 C 95.429688 100.316406 95.605469 100.261719 95.800781 100.28125 C 96.246094 100.339844 96.898438 100.363281 97.320312 100.371094 C 97.320312 100.3125 97.324219 100.261719 97.324219 100.203125 C 96.046875 99.335938 94.871094 98.523438 93.773438 97.800781 C 92.574219 97.066406 91.484375 96.398438 90.5 95.796875 C 88.5 94.636719 86.945312 93.734375 85.753906 93.046875 C 83.367188 91.667969 82.507812 91.0625 82.582031 90.921875 C 82.644531 90.789062 83.640625 91.15625 86.121094 92.359375 C 87.363281 92.960938 88.972656 93.796875 91.007812 94.914062 C 92.015625 95.503906 93.125 96.164062 94.355469 96.882812 C 95.320312 97.507812 96.347656 98.203125 97.441406 98.953125 C 97.574219 97.867188 97.734375 96.785156 97.871094 95.710938 C 96.507812 95.1875 95.3125 94.59375 94.234375 94.042969 C 93.527344 93.683594 92.863281 93.386719 92.234375 93.082031 C 91.578125 92.792969 90.949219 92.550781 90.363281 92.300781 C 87.984375 91.332031 86.136719 90.554688 84.742188 89.945312 C 81.933594 88.730469 80.914062 88.171875 80.972656 88.035156 C 81.03125 87.894531 82.164062 88.1875 85.035156 89.226562 C 86.472656 89.746094 88.355469 90.441406 90.75 91.359375 C 91.34375 91.597656 91.976562 91.832031 92.644531 92.101562 C 93.300781 92.410156 94.011719 92.722656 94.707031 93.074219 C 95.296875 93.367188 95.914062 93.660156 96.542969 93.953125 C 96.402344 93.527344 96.480469 93.027344 96.855469 92.726562 C 96.0625 92.484375 95.347656 92.199219 94.6875 91.941406 C 93.605469 91.5 92.609375 91.148438 91.699219 90.816406 C 90.800781 90.488281 90.003906 90.1875 89.289062 89.929688 C 88.578125 89.65625 87.949219 89.464844 87.414062 89.277344 C 85.265625 88.519531 84.46875 88.136719 84.503906 87.984375 C 84.542969 87.839844 85.414062 87.953125 87.644531 88.527344 C 88.203125 88.671875 88.851562 88.828125 89.574219 89.054688 C 90.300781 89.289062 91.117188 89.5625 92.035156 89.855469 C 92.949219 90.15625 93.957031 90.496094 95.082031 90.933594 C 96.0625 91.308594 97.121094 91.714844 98.25 91.941406 Z M 100.582031 48.496094 C 101.464844 48.796875 102.46875 49.046875 103.492188 49.3125 C 98.867188 47.136719 94.191406 45.066406 89.382812 43.347656 C 87.292969 42.597656 84.984375 41.488281 82.792969 41.109375 C 81.558594 40.902344 80.886719 43.003906 80.289062 43.914062 C 78.8125 46.144531 77.277344 48.355469 75.28125 50.125 C 76.234375 50.597656 77.1875 51.054688 78.144531 51.515625 C 78.832031 50.734375 79.53125 49.957031 80.378906 49.347656 C 80.761719 49.082031 82.707031 48.203125 81.722656 47.71875 C 81.148438 47.429688 79.953125 47.042969 79.738281 46.328125 C 79.003906 43.796875 82.574219 44.578125 83.449219 42.832031 C 83.578125 42.5625 83.910156 42.464844 84.191406 42.535156 C 89.898438 43.75 95.074219 46.625 100.582031 48.496094 Z M 101.386719 85.445312 C 101.371094 85.367188 101.367188 85.296875 101.378906 85.207031 C 101.5 84.464844 91.726562 82.675781 91.183594 82.464844 C 90.050781 82.019531 88.914062 81.558594 88.125 80.585938 C 86.261719 78.269531 85.921875 80.441406 84.453125 80.148438 C 80.878906 79.429688 76.757812 77.609375 73.4375 76.007812 C 69.144531 73.945312 65.117188 71.378906 60.640625 69.746094 C 60.46875 69.683594 60.359375 69.578125 60.285156 69.445312 C 60.160156 69.394531 60.027344 69.347656 59.90625 69.289062 C 59.660156 69.394531 59.417969 69.496094 59.183594 69.597656 C 62.058594 70.976562 64.566406 72.953125 67.484375 74.277344 C 71.464844 76.082031 75.535156 77.582031 79.5625 79.261719 C 83.285156 80.808594 86.980469 82.601562 90.878906 83.703125 C 93.953125 84.578125 97.085938 85.054688 100.136719 86.015625 C 100.554688 85.820312 100.96875 85.636719 101.386719 85.445312 Z M 109.097656 55.101562 C 111.140625 53.039062 106.808594 51.804688 105.707031 51.464844 C 103.054688 50.644531 100.410156 49.875 97.800781 48.90625 C 93.921875 47.460938 90.152344 45.417969 86.152344 44.363281 C 84.285156 43.863281 83.359375 44.847656 81.574219 45.445312 C 80.851562 45.691406 83.160156 47.007812 83.203125 47.0625 C 83.605469 47.621094 83.734375 47.761719 83.46875 48.386719 C 82.914062 49.71875 80.722656 51.027344 79.445312 52.121094 C 81.304688 53.003906 83.167969 53.855469 85.046875 54.707031 C 85.449219 52.480469 88.988281 53.019531 90.605469 53.570312 C 92.835938 54.320312 95.207031 56.644531 94.261719 58.910156 C 97.085938 60.273438 99.859375 61.734375 102.617188 63.226562 C 102.828125 63.058594 102.945312 62.972656 103.097656 62.929688 C 102.488281 61.625 102.515625 60.054688 103.640625 58.929688 C 105.03125 57.542969 106.421875 60.039062 107.492188 57.351562 C 107.902344 56.324219 108.300781 55.921875 109.097656 55.101562 Z M 111.578125 58.679688 C 112.574219 57.066406 113.546875 55.507812 114.832031 54.140625 C 113.207031 53.210938 111.4375 52.480469 109.636719 51.796875 C 109.710938 51.859375 109.792969 51.902344 109.863281 51.960938 C 112.78125 54.457031 109.429688 55.25 108.769531 57.703125 C 108.585938 58.386719 108.320312 59.90625 107.410156 60.140625 C 106.183594 60.441406 101.726562 59.144531 104.730469 63.085938 C 104.972656 63.402344 104.730469 64.003906 104.332031 64.054688 C 104.296875 64.074219 104.261719 64.089844 104.214844 64.105469 C 104.882812 64.472656 105.558594 64.839844 106.230469 65.214844 C 108.132812 63.121094 110.078125 61.101562 111.578125 58.679688 Z M 115.257812 75.53125 C 115.441406 75.53125 115.636719 75.546875 115.828125 75.566406 C 114.632812 74.898438 113.433594 74.234375 112.164062 73.605469 C 108.71875 71.925781 105.230469 70.460938 101.8125 68.757812 C 95.753906 65.734375 89.714844 61.90625 84.394531 57.675781 C 84.183594 57.765625 83.976562 57.859375 83.761719 57.945312 C 85.984375 59.703125 88.265625 61.15625 90.714844 62.542969 C 91.097656 62.761719 91.140625 63.277344 90.851562 63.585938 C 88.5 66.101562 105.546875 72.894531 107.234375 73.71875 C 108.660156 74.410156 111.8125 76.90625 113.46875 76.035156 C 114.347656 75.582031 114.316406 75.554688 115.257812 75.53125 Z M 116.238281 53.429688 C 116.59375 53.648438 116.695312 54.164062 116.378906 54.464844 C 114.304688 56.410156 113.214844 58.917969 111.542969 61.15625 C 110.292969 62.828125 108.835938 64.335938 107.417969 65.875 C 107.507812 65.917969 107.59375 65.96875 107.679688 66.023438 C 107.722656 65.984375 107.75 65.949219 107.785156 65.914062 C 110.46875 63.636719 113.378906 61.585938 115.191406 58.488281 C 116.21875 56.742188 117.148438 54.957031 118.386719 53.371094 C 106.421875 47.367188 93.503906 41.589844 80.449219 38.53125 C 78.8125 42.402344 76.402344 46.328125 73.15625 49.070312 C 73.441406 49.214844 73.726562 49.351562 74.015625 49.496094 C 76.667969 47.367188 79.796875 43.488281 80.6875 40.300781 C 80.746094 40.089844 80.929688 39.882812 81.148438 39.835938 C 83.515625 39.339844 86.296875 40.851562 88.488281 41.628906 C 91.472656 42.695312 94.425781 43.835938 97.332031 45.085938 C 101.167969 46.738281 104.898438 48.921875 108.824219 50.316406 C 111.371094 51.226562 113.933594 51.96875 116.238281 53.429688 Z M 117.007812 79.171875 C 117.65625 78.855469 118.292969 78.527344 118.851562 78.175781 C 117.011719 77.207031 115.285156 76.617188 113.132812 77.574219 C 112.507812 77.851562 111.578125 77.695312 110.996094 77.34375 C 107.515625 75.246094 103.894531 73.738281 100.160156 72.144531 C 98.046875 71.238281 87.6875 67.0625 89.417969 63.363281 C 88.179688 62.761719 87.09375 62.5 86.046875 61.433594 C 85.589844 60.972656 85.085938 60.574219 84.578125 60.183594 C 85.277344 63.820312 82.101562 67.078125 78.453125 68.5625 C 74.679688 70.09375 70.21875 71.007812 65.972656 70.714844 C 69.375 72.460938 72.671875 74.4375 76.261719 75.773438 C 78.511719 76.609375 80.898438 77.214844 83.054688 78.277344 C 84.339844 78.917969 86.097656 78.09375 87.496094 78.386719 C 88.28125 78.550781 88.5625 79.15625 89.058594 79.652344 C 90.722656 81.292969 92.527344 81.453125 94.65625 81.675781 C 95.84375 81.800781 96.949219 81.921875 97.90625 82.652344 C 99.359375 83.777344 102.339844 82.699219 102.664062 84.628906 C 103.703125 84.136719 104.78125 83.792969 105.871094 83.480469 C 109.558594 81.960938 113.28125 80.597656 117.007812 79.171875 Z M 117.558594 68.109375 C 117.820312 67.988281 119.035156 67.527344 118.914062 67.101562 C 118.722656 66.398438 118.335938 65.757812 117.898438 65.171875 C 117.269531 65.65625 116.648438 66.136719 116.035156 66.632812 C 114.984375 67.472656 113.882812 68.214844 112.691406 68.773438 C 112.820312 68.851562 112.941406 68.914062 113.066406 68.980469 C 113.382812 69.15625 113.703125 69.332031 114.023438 69.5 C 115.101562 68.863281 116.421875 68.628906 117.558594 68.109375 Z M 117.664062 62.429688 C 118.164062 62.089844 120.847656 60.578125 119.964844 59.878906 C 119.273438 59.328125 118.492188 58.917969 117.753906 58.421875 C 117.128906 59.503906 116.503906 60.574219 115.765625 61.558594 C 114.097656 63.75 111.832031 65.398438 109.726562 67.152344 C 109.855469 67.226562 109.988281 67.296875 110.121094 67.375 C 113.230469 66.582031 115.136719 64.1875 117.664062 62.429688 Z M 127.605469 77.214844 C 126.3125 76.492188 124.519531 76.402344 123.214844 76.027344 C 121.675781 75.597656 120.179688 74.949219 118.722656 74.285156 C 114.890625 72.539062 111.203125 70.511719 107.550781 68.394531 C 100.785156 64.484375 93.902344 61.136719 86.820312 57.914062 C 92.242188 62.089844 98.484375 66.054688 104.679688 68.570312 C 110.78125 71.0625 116.292969 74.933594 122.441406 77.226562 C 123.089844 77.460938 123.046875 78.246094 122.433594 78.496094 C 120.800781 79.164062 119.15625 79.800781 117.511719 80.429688 C 115.636719 81.332031 113.652344 82.101562 111.839844 82.910156 C 110.253906 83.601562 108.5625 84.027344 106.894531 84.503906 C 104.90625 85.3125 102.929688 86.164062 100.984375 87.085938 C 100.871094 87.359375 100.609375 87.550781 100.25 87.433594 C 96.21875 86.089844 91.976562 85.628906 87.988281 84.128906 C 84.199219 82.703125 80.546875 80.9375 76.742188 79.554688 C 73.351562 78.328125 70.109375 76.890625 66.816406 75.421875 C 63.746094 74.042969 61.148438 71.917969 58.097656 70.539062 C 57.929688 70.460938 57.839844 70.347656 57.792969 70.230469 C 57.449219 70.382812 57.101562 70.539062 56.757812 70.6875 C 62.554688 74.933594 69.871094 77.667969 76.417969 80.4375 C 80.472656 82.144531 84.535156 83.636719 88.730469 84.957031 C 92.441406 86.117188 95.941406 87.792969 99.859375 88.050781 C 105.582031 87.164062 110.746094 84.847656 115.910156 82.28125 C 119.769531 80.359375 123.632812 78.761719 127.605469 77.214844 Z M 126.445312 74.515625 C 126.359375 74.085938 126.265625 73.660156 126.144531 73.238281 C 125.617188 71.457031 124.652344 71.480469 123.109375 71.625 C 121.847656 71.742188 119.988281 71.769531 118.328125 71.777344 C 120.363281 72.777344 122.453125 73.636719 124.609375 74.09375 C 125.234375 74.226562 125.851562 74.355469 126.445312 74.515625 Z M 129.066406 84.308594 C 129.316406 83.636719 129.390625 83.425781 128.65625 83.175781 C 128.457031 83.109375 128.300781 83 128.1875 82.875 C 127.824219 83.027344 127.480469 83.183594 127.15625 83.328125 C 126.570312 83.628906 126.03125 83.90625 125.546875 84.160156 C 124.570312 84.667969 123.816406 85.070312 123.207031 85.332031 C 121.988281 85.863281 121.484375 85.964844 121.421875 85.832031 C 121.351562 85.691406 121.734375 85.339844 122.828125 84.648438 C 123.378906 84.308594 124.101562 83.828125 125.050781 83.269531 C 125.53125 83 126.074219 82.699219 126.675781 82.359375 C 127.042969 82.183594 127.445312 82 127.863281 81.808594 C 127.855469 81.699219 127.855469 81.582031 127.882812 81.453125 C 128.054688 80.765625 128.089844 80.0625 128.171875 79.363281 C 119.339844 83.007812 110.714844 88.34375 101.289062 90.03125 C 101.226562 91.253906 100.792969 92.40625 100.011719 93.273438 C 101.089844 92.910156 102.101562 92.484375 103.03125 92.058594 C 104.613281 91.339844 106.011719 90.605469 107.3125 90.003906 C 108.632812 89.4375 109.804688 88.929688 110.84375 88.484375 C 111.363281 88.265625 111.847656 88.050781 112.304688 87.859375 C 112.757812 87.675781 113.199219 87.535156 113.597656 87.386719 C 116.816406 86.25 118.0625 85.914062 118.117188 86.058594 C 118.164062 86.207031 117.011719 86.800781 113.886719 88.109375 C 113.5 88.277344 113.074219 88.441406 112.636719 88.644531 C 112.183594 88.859375 111.71875 89.078125 111.210938 89.316406 C 110.195312 89.789062 109.050781 90.320312 107.765625 90.921875 C 106.492188 91.535156 105.097656 92.292969 103.492188 93.042969 C 102.378906 93.554688 101.160156 94.078125 99.808594 94.503906 C 100.023438 94.671875 100.152344 94.953125 100.117188 95.335938 C 100.078125 95.679688 100.03125 96.03125 99.984375 96.382812 C 101.289062 95.941406 102.503906 95.433594 103.648438 94.960938 C 105.332031 94.246094 106.851562 93.605469 108.226562 93.035156 C 109.601562 92.460938 110.820312 91.957031 111.902344 91.5 C 112.976562 91.046875 113.886719 90.589844 114.699219 90.238281 C 117.917969 88.777344 119.1875 88.3125 119.261719 88.449219 C 119.332031 88.578125 118.1875 89.289062 115.039062 90.941406 C 114.242188 91.339844 113.335938 91.839844 112.277344 92.339844 C 111.203125 92.8125 109.988281 93.359375 108.632812 93.964844 C 107.261719 94.570312 105.75 95.25 104.078125 95.949219 C 102.785156 96.5 101.394531 97.101562 99.820312 97.601562 C 99.710938 98.402344 99.609375 99.195312 99.542969 100.003906 C 99.953125 99.820312 100.363281 99.625 100.757812 99.417969 C 101.734375 98.917969 102.660156 98.386719 103.632812 97.976562 C 105.484375 97.179688 107.164062 96.449219 108.667969 95.800781 C 111.691406 94.511719 114.050781 93.519531 115.863281 92.777344 C 119.488281 91.292969 120.90625 90.835938 120.964844 90.972656 C 121.015625 91.113281 119.707031 91.839844 116.167969 93.5 C 114.394531 94.328125 112.070312 95.394531 109.0625 96.734375 C 107.566406 97.40625 105.898438 98.148438 104.054688 98.96875 C 103.171875 99.347656 102.261719 99.878906 101.261719 100.394531 C 100.695312 100.675781 100.109375 100.972656 99.46875 101.226562 C 99.46875 101.265625 99.460938 101.304688 99.453125 101.339844 C 100.703125 100.996094 101.8125 100.621094 102.820312 100.289062 C 104.847656 99.589844 106.429688 99.027344 107.652344 98.636719 C 110.109375 97.84375 111.097656 97.726562 111.132812 97.851562 C 111.1875 98.019531 110.292969 98.394531 107.925781 99.371094 C 106.734375 99.847656 105.1875 100.496094 103.160156 101.242188 C 101.613281 101.808594 99.777344 102.457031 97.566406 102.925781 C 97.785156 103.488281 98.023438 104.054688 98.25 104.621094 C 103.761719 102.183594 105.609375 101.597656 105.722656 101.847656 C 105.824219 102.105469 104.132812 103.117188 98.574219 105.671875 C 98.582031 105.925781 98.484375 106.152344 98.332031 106.308594 C 98.324219 106.328125 98.316406 106.339844 98.316406 106.347656 C 98.148438 106.652344 97.984375 106.964844 97.824219 107.273438 C 102.363281 104.746094 107.199219 102.386719 111.824219 100.324219 C 114.265625 99.242188 116.753906 98.339844 119.308594 97.574219 C 120.722656 97.152344 128.195312 95.871094 127.890625 93.578125 C 126.136719 94.234375 124.628906 94.785156 123.371094 95.230469 C 121.867188 95.710938 120.679688 96.015625 119.769531 96.261719 C 117.953125 96.726562 117.234375 96.8125 117.195312 96.664062 C 117.15625 96.515625 117.800781 96.171875 119.539062 95.511719 C 120.40625 95.179688 121.5625 94.796875 123.03125 94.277344 C 124.394531 93.734375 126.0625 93.097656 128.046875 92.347656 C 128.222656 91.375 128.589844 90.453125 128.886719 89.5 C 128.660156 89.59375 128.449219 89.679688 128.242188 89.761719 C 127.75 89.988281 127.3125 90.191406 126.914062 90.375 C 126.105469 90.75 125.480469 91.046875 124.972656 91.238281 C 123.96875 91.613281 123.546875 91.664062 123.484375 91.523438 C 123.425781 91.386719 123.730469 91.082031 124.628906 90.539062 C 125.078125 90.269531 125.671875 89.902344 126.449219 89.472656 C 126.859375 89.269531 127.296875 89.035156 127.789062 88.785156 C 128.105469 88.636719 128.449219 88.488281 128.816406 88.34375 C 128.660156 88.179688 128.503906 88.011719 128.355469 87.851562 C 128.28125 87.769531 128.230469 87.683594 128.1875 87.601562 C 127.585938 87.800781 127.03125 87.953125 126.5625 88.101562 C 125.695312 88.363281 125.035156 88.589844 124.542969 88.773438 C 124.042969 88.953125 123.710938 89.097656 123.484375 89.175781 C 123.25 89.246094 123.117188 89.238281 123.074219 89.179688 C 123.03125 89.121094 123.074219 89.003906 123.242188 88.816406 C 123.410156 88.625 123.710938 88.355469 124.203125 88.074219 C 124.691406 87.769531 125.363281 87.460938 126.238281 87.140625 C 126.773438 86.933594 127.410156 86.730469 128.074219 86.476562 C 128.355469 85.730469 128.789062 85.054688 129.066406 84.308594 Z M 130.109375 81.441406 C 130.976562 81.949219 131.578125 82.738281 131.441406 83.878906 C 131.316406 84.929688 130.734375 85.796875 130.332031 86.742188 C 130.917969 87.359375 131.425781 87.953125 131.300781 88.90625 C 131.097656 90.40625 130.300781 91.742188 130.101562 93.230469 C 130.09375 93.285156 130.078125 93.320312 130.074219 93.367188 C 130.550781 98.269531 121.929688 99.019531 118.671875 100.078125 C 114.042969 101.566406 109.925781 103.835938 105.617188 106.03125 C 102.207031 107.769531 98.632812 109.269531 95.347656 111.246094 C 95.296875 111.265625 95.25 111.289062 95.207031 111.308594 C 95.144531 111.378906 95.082031 111.457031 95.019531 111.53125 C 94.671875 111.910156 94.242188 111.953125 93.886719 111.789062 C 93.710938 111.753906 93.535156 111.667969 93.363281 111.53125 C 88.628906 107.382812 83.515625 103.496094 78.296875 99.808594 C 78.253906 99.894531 78.195312 99.976562 78.125 100.054688 C 74.507812 103.960938 70.953125 107.910156 66.417969 110.78125 C 65.90625 111.113281 65.40625 110.941406 65.097656 110.582031 C 59.59375 107.925781 53.601562 106.730469 47.851562 104.746094 C 43 103.074219 38.183594 101.144531 33.691406 98.644531 C 30.246094 96.726562 26.714844 94.796875 23.339844 92.757812 C 21.894531 91.882812 19.714844 90.757812 19.160156 88.992188 C 16.714844 88.546875 14.21875 88.503906 11.765625 88.128906 C 11.171875 88.042969 10.839844 87.300781 10.996094 86.78125 C 11.507812 84.980469 11.925781 83.152344 12.464844 81.363281 C 12.359375 81.191406 12.308594 81.007812 12.332031 80.824219 C 13.109375 74.507812 13.496094 68.160156 13.863281 61.808594 C 12.683594 61.347656 11.492188 60.902344 10.296875 60.507812 C 10.15625 60.464844 10.046875 60.394531 9.949219 60.324219 C 9.40625 60.308594 8.863281 59.957031 8.84375 59.257812 C 8.785156 57.5625 9.179688 55.902344 9.207031 54.214844 C 9.207031 54.128906 9.222656 54.054688 9.238281 53.980469 C 9.1875 53.503906 9.414062 53.019531 10.015625 52.871094 C 10.3125 52.804688 10.707031 52.730469 10.910156 52.511719 C 10.953125 52.46875 10.972656 52.453125 10.988281 52.445312 C 10.988281 52.441406 10.980469 52.417969 10.988281 52.382812 C 10.964844 52.523438 10.941406 52.363281 10.953125 52.339844 C 10.804688 51.945312 10.304688 51.613281 9.847656 51.402344 C 9.664062 51.308594 9.53125 51.195312 9.441406 51.0625 C 9.152344 50.75 9.019531 50.285156 9.265625 49.804688 C 10.023438 48.304688 10.875 46.851562 11.375 45.234375 C 10.988281 44.941406 10.558594 44.699219 10.105469 44.515625 C 9.597656 44.273438 9.378906 43.480469 9.710938 43.007812 C 12.605469 38.945312 19.179688 38.230469 23.644531 36.8125 C 27.570312 35.5625 31.425781 34.097656 35.347656 32.878906 C 38.753906 31.8125 42.265625 31.054688 45.367188 29.214844 C 45.902344 28.898438 46.550781 29.113281 46.871094 29.613281 C 51.558594 36.855469 60.011719 41.925781 67.414062 46.03125 C 68.601562 46.691406 69.804688 47.335938 71.019531 47.96875 C 74.523438 45.382812 77.09375 41.085938 78.667969 37.125 C 78.769531 36.542969 79.277344 36.007812 80.023438 36.167969 C 93.9375 39.273438 107.820312 45.566406 120.507812 51.972656 C 120.609375 52.027344 120.695312 52.09375 120.765625 52.15625 C 121.230469 52.53125 121.441406 53.238281 120.914062 53.796875 C 120.113281 54.636719 119.464844 55.570312 118.863281 56.535156 C 120.949219 58.011719 124.238281 59.890625 121.246094 62.492188 C 120.714844 62.953125 120.171875 63.394531 119.628906 63.828125 C 120.808594 65.445312 121.929688 67.535156 120.128906 69.128906 C 119.910156 69.3125 119.683594 69.472656 119.445312 69.613281 C 120.304688 69.613281 121.152344 69.589844 121.972656 69.515625 C 123.132812 69.421875 124.691406 69.0625 125.828125 69.445312 C 128.28125 70.285156 128.414062 73.308594 128.886719 75.484375 C 129.394531 75.800781 129.875 76.191406 130.300781 76.691406 C 130.785156 76.960938 131.101562 77.546875 130.726562 78.175781 C 130.171875 79.109375 130.25 80.339844 130.109375 81.441406 " fill-opacity="1" fill-rule="nonzero"/></g><path fill="#ffffff" d="M 97.957031 77.601562 C 100.410156 74.757812 89.882812 69.53125 87.582031 73.117188 C 85.609375 77.484375 95.460938 80.488281 97.957031 77.601562 Z M 86.621094 72.21875 C 89.90625 67.960938 102.390625 73.328125 99.234375 78.121094 C 96.171875 82.777344 84.058594 78.671875 86.34375 72.714844 C 86.359375 72.628906 86.386719 72.542969 86.445312 72.445312 C 86.488281 72.347656 86.550781 72.269531 86.621094 72.21875 " fill-opacity="1" fill-rule="nonzero"/><path fill="#ffffff" d="M 44.625 48.671875 C 46.496094 47.746094 45.851562 46.101562 44.835938 44.710938 C 43.339844 43.058594 39.414062 42.308594 37.695312 44.046875 C 35.964844 45.808594 37.410156 47.925781 39.328125 48.605469 C 40.914062 49.171875 43.042969 49.457031 44.625 48.671875 Z M 45.894531 43.933594 C 47.460938 46.011719 47.84375 48.710938 45.078125 49.902344 C 42.867188 50.867188 39.695312 50.589844 37.675781 49.253906 C 35.449219 47.785156 34.757812 44.773438 37.003906 42.910156 C 39.34375 40.976562 43.847656 41.59375 45.789062 43.804688 C 45.824219 43.828125 45.832031 43.863281 45.84375 43.886719 C 45.859375 43.90625 45.882812 43.914062 45.894531 43.933594 " fill-opacity="1" fill-rule="nonzero"/></svg>