<svg xmlns="http://www.w3.org/2000/svg" xmlns:xlink="http://www.w3.org/1999/xlink" width="188" zoomAndPan="magnify" viewBox="0 0 141.12 141.750002" height="188" preserveAspectRatio="xMidYMid meet" version="1.0"><defs><clipPath id="7c3d1c5404"><path d="M 83 18 L 107.628906 18 L 107.628906 24 L 83 24 Z M 83 18 " clip-rule="nonzero"/></clipPath><clipPath id="0f209e0ae9"><path d="M 91 6.730469 L 93 6.730469 L 93 9 L 91 9 Z M 91 6.730469 " clip-rule="nonzero"/></clipPath><clipPath id="ef2ec34669"><path d="M 60 123 L 85 123 L 85 134.253906 L 60 134.253906 Z M 60 123 " clip-rule="nonzero"/></clipPath><clipPath id="ca7095f142"><path d="M 32.746094 55 L 33 55 L 33 56 L 32.746094 56 Z M 32.746094 55 " clip-rule="nonzero"/></clipPath></defs><path fill="#ffffff" d="M 86.058594 17.449219 C 85.339844 19.445312 84.625 20.722656 83.804688 23.140625 C 83.648438 23.546875 83.449219 24.222656 83.03125 25.625 C 82.621094 26.933594 82.207031 28.726562 81.785156 30.667969 C 81.605469 31.648438 81.421875 32.664062 81.242188 33.675781 C 81.105469 34.699219 80.972656 35.714844 80.84375 36.691406 C 80.667969 38.652344 80.511719 40.445312 80.5 41.75 C 80.464844 43.058594 80.449219 43.871094 80.449219 43.871094 C 80.449219 43.871094 80.460938 44.550781 80.480469 45.664062 C 80.476562 46.78125 80.585938 48.328125 80.714844 50.0625 C 80.890625 51.792969 81.089844 53.710938 81.433594 55.546875 C 81.71875 57.390625 82.167969 59.148438 82.507812 60.613281 C 83.042969 62.496094 83.347656 63.664062 83.574219 64.257812 C 84.367188 66.6875 85.070312 67.972656 85.765625 69.976562 C 85.09375 67.960938 84.847656 66.527344 84.300781 64.058594 C 84.136719 63.457031 83.953125 62.269531 83.566406 60.382812 C 83.34375 58.914062 83.007812 57.167969 82.816406 55.339844 C 82.5625 53.523438 82.433594 51.640625 82.296875 49.941406 C 82.214844 48.242188 82.117188 46.726562 82.128906 45.632812 C 82.113281 44.542969 82.105469 43.875 82.105469 43.875 C 82.105469 43.875 82.121094 43.078125 82.152344 41.800781 C 82.15625 40.523438 82.285156 38.765625 82.410156 36.839844 C 82.503906 35.878906 82.601562 34.878906 82.699219 33.871094 C 82.832031 32.871094 82.964844 31.867188 83.09375 30.898438 C 83.410156 28.972656 83.6875 27.179688 83.988281 25.863281 C 84.28125 24.445312 84.414062 23.757812 84.527344 23.347656 C 85.101562 20.886719 85.367188 19.457031 86.058594 17.449219 " fill-opacity="1" fill-rule="nonzero"/><path fill="#ffffff" d="M 88.9375 69.367188 C 90.34375 67.785156 91.496094 66.871094 93.132812 64.902344 C 93.425781 64.582031 93.875 64.039062 94.742188 62.855469 C 95.652344 61.707031 96.734375 60.066406 97.867188 58.265625 C 98.390625 57.339844 98.933594 56.378906 99.476562 55.421875 C 99.960938 54.429688 100.441406 53.445312 100.902344 52.5 C 101.742188 50.570312 102.488281 48.792969 102.910156 47.460938 C 103.367188 46.144531 103.632812 45.316406 103.632812 45.316406 C 103.632812 45.316406 103.828125 44.613281 104.152344 43.464844 C 104.507812 42.324219 104.832031 40.699219 105.222656 38.882812 C 105.527344 37.050781 105.859375 35.015625 105.992188 33.023438 C 106.101562 32.03125 106.144531 31.046875 106.15625 30.113281 C 106.164062 29.179688 106.230469 28.296875 106.179688 27.492188 C 106.136719 26.515625 106.105469 25.722656 106.082031 25.097656 C 106.070312 24.472656 105.988281 24.015625 105.964844 23.699219 C 105.738281 21.152344 105.300781 19.746094 105.042969 17.644531 C 105.277344 19.753906 105.253906 21.203125 105.234375 23.730469 C 105.265625 24.355469 105.199219 25.550781 105.128906 27.472656 C 105.121094 28.261719 104.996094 29.128906 104.929688 30.039062 C 104.867188 30.953125 104.769531 31.910156 104.621094 32.878906 C 104.398438 34.820312 104.007812 36.792969 103.667969 38.574219 C 103.246094 40.339844 102.914062 41.921875 102.5625 43.027344 C 102.242188 44.148438 102.050781 44.832031 102.050781 44.832031 C 102.050781 44.832031 101.785156 45.636719 101.351562 46.925781 C 100.949219 48.226562 100.242188 49.964844 99.46875 51.867188 C 99.046875 52.804688 98.609375 53.785156 98.167969 54.765625 C 97.679688 55.726562 97.191406 56.6875 96.71875 57.617188 C 95.703125 59.429688 94.761719 61.121094 93.960938 62.316406 C 93.199219 63.546875 92.808594 64.121094 92.550781 64.464844 C 91.132812 66.554688 90.328125 67.761719 88.9375 69.367188 " fill-opacity="1" fill-rule="nonzero"/><g clip-path="url(#7c3d1c5404)"><path fill="#ffffff" d="M 83.433594 18.519531 C 85.191406 19.699219 86.859375 19.941406 89.332031 20.210938 C 89.542969 20.230469 89.820312 20.257812 90.207031 20.3125 C 90.589844 20.355469 91.066406 20.46875 91.792969 20.613281 C 92.738281 20.8125 94.972656 21.285156 94.972656 21.285156 C 94.972656 21.285156 96.84375 21.695312 97.882812 21.921875 C 99.777344 22.3125 100.953125 22.554688 101.566406 22.683594 C 104.058594 23.179688 105.566406 23.132812 107.625 23.660156 C 105.585938 23.0625 104.320312 22.234375 101.894531 21.4375 C 101.292969 21.242188 100.148438 20.855469 98.257812 20.359375 C 97.21875 20.070312 95.316406 19.671875 95.316406 19.671875 C 95.316406 19.671875 93.035156 19.214844 92.054688 19.101562 C 91.347656 19.007812 90.761719 18.929688 90.320312 18.929688 C 89.890625 18.917969 89.597656 18.925781 89.378906 18.929688 C 88.085938 18.972656 87.117188 19.117188 86.183594 19.148438 C 85.269531 19.164062 84.320312 19.140625 83.433594 18.519531 " fill-opacity="1" fill-rule="nonzero"/></g><path fill="#ffffff" d="M 80.796875 32.394531 C 82.933594 32.238281 84.339844 32.789062 86.714844 33.476562 C 87.121094 33.597656 87.773438 33.804688 89.144531 34.257812 C 89.710938 34.4375 90.667969 34.746094 91.480469 35.003906 C 92.304688 35.253906 93.003906 35.425781 93.003906 35.425781 C 93.003906 35.425781 93.585938 35.582031 94.339844 35.742188 C 95.113281 35.894531 96.023438 36.03125 96.675781 36.109375 C 98.617188 36.351562 99.804688 36.449219 100.425781 36.519531 C 102.921875 36.789062 104.421875 36.699219 106.457031 37.34375 C 104.464844 36.640625 103.144531 35.871094 100.632812 35.289062 C 100.015625 35.144531 98.824219 34.886719 96.917969 34.546875 C 96.289062 34.429688 95.40625 34.261719 94.679688 34.125 C 93.964844 33.957031 93.40625 33.828125 93.40625 33.828125 C 93.40625 33.828125 90.707031 33.117188 89.5625 32.816406 C 88.136719 32.464844 87.429688 32.339844 86.996094 32.269531 C 84.414062 31.847656 82.886719 32.171875 80.796875 32.394531 " fill-opacity="1" fill-rule="nonzero"/><path fill="#ffffff" d="M 86.347656 69.929688 C 86.054688 72.03125 85.578125 73.421875 85.128906 75.925781 C 85.054688 76.347656 84.9375 77.039062 84.695312 78.476562 C 84.417969 80.117188 84.019531 82.882812 83.722656 85.25 C 83.457031 87.613281 83.234375 89.566406 83.234375 89.566406 C 83.234375 89.566406 83.074219 91.207031 82.871094 93.300781 C 82.683594 95.394531 82.503906 97.945312 82.410156 99.769531 C 82.3125 101.710938 82.269531 102.914062 82.253906 103.542969 C 82.179688 106.085938 82.359375 107.542969 82.214844 109.660156 C 82.410156 107.546875 82.824219 106.140625 83.191406 103.625 C 83.277344 103.003906 83.441406 101.8125 83.707031 99.890625 C 84.199219 96.273438 84.878906 89.738281 84.878906 89.738281 C 84.878906 89.738281 85.074219 87.785156 85.308594 85.421875 C 85.535156 83.054688 85.765625 80.269531 85.882812 78.613281 C 85.984375 77.164062 86.03125 76.464844 86.058594 76.035156 C 86.21875 73.5 86.105469 72.035156 86.347656 69.929688 " fill-opacity="1" fill-rule="nonzero"/><path fill="#ffffff" d="M 90.101562 68.882812 C 89.824219 70.988281 89.382812 72.382812 88.9375 74.886719 C 88.867188 75.3125 88.746094 76 88.503906 77.433594 C 88.183594 79.363281 87.6875 82.609375 87.320312 85.386719 C 86.964844 88.160156 86.675781 90.449219 86.675781 90.449219 C 86.675781 90.449219 86.453125 92.371094 86.171875 94.824219 C 85.902344 97.28125 85.617188 100.273438 85.449219 102.410156 C 85.308594 104.347656 85.21875 105.546875 85.171875 106.175781 C 85.011719 108.710938 85.113281 110.171875 84.882812 112.28125 C 85.160156 110.179688 85.601562 108.78125 86.046875 106.277344 C 86.152344 105.660156 86.351562 104.472656 86.671875 102.558594 C 87.015625 100.441406 87.449219 97.464844 87.769531 95.015625 C 88.078125 92.566406 88.316406 90.648438 88.316406 90.648438 C 88.316406 90.648438 88.578125 88.351562 88.894531 85.574219 C 89.191406 82.792969 89.480469 79.515625 89.628906 77.570312 C 89.730469 76.117188 89.777344 75.421875 89.808594 74.992188 C 89.96875 72.453125 89.871094 70.992188 90.101562 68.882812 " fill-opacity="1" fill-rule="nonzero"/><path fill="#ffffff" d="M 79.039062 109.695312 C 77.382812 109.886719 76.226562 109.867188 74.246094 110.351562 C 74.078125 110.394531 73.855469 110.445312 73.539062 110.558594 C 73.222656 110.671875 72.804688 110.800781 72.261719 111.128906 C 72.019531 111.261719 71.761719 111.476562 71.527344 111.761719 C 71.296875 112.058594 71.132812 112.597656 71.308594 113.019531 C 71.644531 113.902344 72.300781 114.296875 72.871094 114.789062 C 74.09375 115.726562 75.558594 116.472656 76.945312 117.027344 C 78.335938 117.570312 79.648438 117.9375 80.609375 118.160156 C 81.578125 118.359375 82.179688 118.480469 82.179688 118.480469 C 82.179688 118.480469 82.691406 118.554688 83.527344 118.671875 C 84.371094 118.75 85.542969 118.871094 86.875 118.800781 C 88.195312 118.746094 89.691406 118.535156 91.0625 117.984375 C 91.730469 117.699219 92.40625 117.390625 92.964844 116.789062 C 93.238281 116.476562 93.433594 115.976562 93.347656 115.527344 C 93.265625 115.089844 93.039062 114.789062 92.832031 114.546875 C 92.234375 113.914062 91.679688 113.605469 91.25 113.339844 C 90.816406 113.085938 90.492188 112.921875 90.269531 112.808594 C 88.476562 111.890625 87.316406 111.667969 85.964844 110.671875 C 87.289062 111.683594 88.304688 112.257812 89.964844 113.335938 C 90.167969 113.472656 90.472656 113.660156 90.859375 113.941406 C 91.238281 114.21875 91.75 114.582031 92.160156 115.101562 C 92.457031 115.519531 92.535156 115.8125 92.21875 116.125 C 91.871094 116.460938 91.277344 116.738281 90.667969 116.949219 C 89.4375 117.375 88.074219 117.527344 86.832031 117.550781 C 85.59375 117.589844 84.476562 117.464844 83.679688 117.382812 C 82.886719 117.269531 82.398438 117.199219 82.398438 117.199219 C 82.398438 117.199219 81.824219 117.082031 80.898438 116.898438 C 79.980469 116.691406 78.722656 116.355469 77.386719 115.875 C 76.058594 115.382812 74.65625 114.730469 73.492188 113.941406 C 72.929688 113.535156 72.324219 113.09375 72.191406 112.738281 C 72.007812 112.433594 72.324219 112.050781 72.703125 111.789062 C 73.117188 111.484375 73.503906 111.3125 73.785156 111.191406 C 74.070312 111.0625 74.273438 110.980469 74.429688 110.925781 C 76.277344 110.269531 77.386719 109.910156 79.039062 109.695312 " fill-opacity="1" fill-rule="nonzero"/><path fill="#ffffff" d="M 86.6875 10.296875 C 86.578125 10.335938 86.363281 10.183594 86.105469 10.238281 C 85.980469 10.261719 85.613281 10.46875 85.476562 10.789062 C 85.320312 11.101562 85.355469 11.410156 85.355469 11.410156 C 85.355469 11.410156 85.363281 11.722656 85.554688 12.011719 C 85.734375 12.3125 86.128906 12.46875 86.253906 12.472656 C 86.519531 12.492188 86.714844 12.3125 86.824219 12.335938 C 86.722656 12.261719 86.777344 12.011719 86.835938 11.839844 C 86.847656 11.75 86.9375 11.558594 86.980469 11.464844 C 87.023438 11.367188 87.007812 11.296875 87.007812 11.296875 C 87.007812 11.296875 87.011719 11.226562 86.957031 11.136719 C 86.902344 11.050781 86.785156 10.871094 86.761719 10.78125 C 86.683594 10.621094 86.597656 10.382812 86.6875 10.296875 " fill-opacity="1" fill-rule="nonzero"/><g clip-path="url(#0f209e0ae9)"><path fill="#ffffff" d="M 91.636719 7.554688 C 91.683594 7.585938 91.691406 7.828125 91.734375 7.996094 C 91.757812 8.074219 91.835938 8.277344 91.921875 8.355469 C 92.007812 8.441406 92.09375 8.445312 92.09375 8.445312 C 92.09375 8.445312 92.175781 8.464844 92.28125 8.402344 C 92.382812 8.347656 92.507812 8.167969 92.550781 8.101562 C 92.636719 7.949219 92.703125 7.714844 92.757812 7.695312 C 92.710938 7.660156 92.703125 7.417969 92.660156 7.25 C 92.636719 7.171875 92.558594 6.96875 92.472656 6.890625 C 92.386719 6.804688 92.300781 6.804688 92.300781 6.804688 C 92.300781 6.804688 92.214844 6.785156 92.113281 6.847656 C 92.011719 6.902344 91.882812 7.078125 91.839844 7.148438 C 91.757812 7.300781 91.691406 7.53125 91.636719 7.554688 " fill-opacity="1" fill-rule="nonzero"/></g><path fill="#ffffff" d="M 90.535156 16.515625 C 90.546875 16.433594 90.78125 16.359375 90.945312 16.335938 C 91.023438 16.308594 91.21875 16.308594 91.289062 16.328125 C 91.363281 16.34375 91.363281 16.332031 91.363281 16.332031 C 91.363281 16.332031 91.378906 16.328125 91.347656 16.257812 C 91.316406 16.195312 91.277344 16 91.289062 15.921875 C 91.28125 15.757812 91.3125 15.511719 91.390625 15.484375 C 91.320312 15.460938 91.253906 15.21875 91.082031 15.089844 C 91 15.03125 90.695312 14.929688 90.460938 15.019531 C 90.21875 15.097656 90.085938 15.277344 90.085938 15.277344 C 90.085938 15.277344 89.933594 15.445312 89.90625 15.691406 C 89.859375 15.941406 90.019531 16.21875 90.09375 16.289062 C 90.246094 16.433594 90.496094 16.453125 90.535156 16.515625 " fill-opacity="1" fill-rule="nonzero"/><path fill="#ffffff" d="M 89.367188 27.816406 C 89.355469 27.863281 89.140625 27.972656 89.007812 28.070312 C 88.945312 28.121094 88.792969 28.261719 88.753906 28.351562 C 88.710938 28.441406 88.742188 28.5 88.742188 28.5 C 88.742188 28.5 88.753906 28.566406 88.847656 28.605469 C 88.933594 28.648438 89.144531 28.652344 89.222656 28.648438 C 89.390625 28.636719 89.625 28.578125 89.664062 28.605469 C 89.675781 28.558594 89.890625 28.449219 90.023438 28.347656 C 90.085938 28.296875 90.238281 28.160156 90.277344 28.070312 C 90.320312 27.976562 90.289062 27.921875 90.289062 27.921875 C 90.289062 27.921875 90.277344 27.855469 90.179688 27.816406 C 90.089844 27.773438 89.886719 27.769531 89.808594 27.773438 C 89.640625 27.785156 89.40625 27.84375 89.367188 27.816406 " fill-opacity="1" fill-rule="nonzero"/><path fill="#ffffff" d="M 92.917969 24.425781 C 92.949219 24.457031 92.945312 24.695312 92.964844 24.863281 C 92.980469 24.9375 93.023438 25.136719 93.078125 25.210938 C 93.128906 25.296875 93.1875 25.292969 93.1875 25.292969 C 93.1875 25.292969 93.246094 25.308594 93.316406 25.246094 C 93.386719 25.1875 93.480469 25.003906 93.511719 24.933594 C 93.574219 24.777344 93.628906 24.542969 93.667969 24.519531 C 93.636719 24.492188 93.640625 24.246094 93.621094 24.082031 C 93.605469 24.007812 93.5625 23.808594 93.507812 23.734375 C 93.453125 23.652344 93.394531 23.65625 93.394531 23.65625 C 93.394531 23.65625 93.339844 23.636719 93.269531 23.703125 C 93.195312 23.765625 93.105469 23.945312 93.074219 24.015625 C 93.011719 24.171875 92.957031 24.402344 92.917969 24.425781 " fill-opacity="1" fill-rule="nonzero"/><path fill="#ffffff" d="M 93.128906 37.714844 C 93.058594 37.699219 92.949219 37.464844 92.710938 37.410156 C 92.601562 37.375 92.214844 37.441406 92.03125 37.679688 C 91.835938 37.898438 91.820312 38.152344 91.820312 38.152344 C 91.820312 38.152344 91.769531 38.402344 91.902344 38.664062 C 92.019531 38.941406 92.378906 39.101562 92.492188 39.097656 C 92.738281 39.105469 92.90625 38.902344 92.976562 38.90625 C 92.90625 38.851562 92.984375 38.605469 93.097656 38.488281 C 93.136719 38.445312 93.136719 38.453125 93.179688 38.421875 C 93.214844 38.40625 93.28125 38.378906 93.328125 38.367188 C 93.445312 38.351562 93.445312 38.359375 93.445312 38.359375 C 93.445312 38.359375 93.441406 38.367188 93.335938 38.324219 C 93.289062 38.300781 93.230469 38.257812 93.203125 38.234375 C 93.171875 38.195312 93.167969 38.195312 93.140625 38.144531 C 93.058594 38.003906 93.050781 37.75 93.128906 37.714844 " fill-opacity="1" fill-rule="nonzero"/><path fill="#ffffff" d="M 95.417969 41.042969 C 95.425781 41.113281 95.234375 41.261719 95.128906 41.40625 C 95.082031 41.480469 94.972656 41.679688 94.96875 41.8125 C 94.957031 41.945312 95.011719 42.03125 95.011719 42.03125 C 95.011719 42.03125 95.054688 42.128906 95.171875 42.191406 C 95.285156 42.261719 95.515625 42.277344 95.601562 42.28125 C 95.777344 42.269531 96.011719 42.195312 96.066406 42.234375 C 96.058594 42.167969 96.25 42.015625 96.355469 41.871094 C 96.398438 41.800781 96.511719 41.597656 96.515625 41.46875 C 96.527344 41.332031 96.46875 41.246094 96.46875 41.246094 C 96.46875 41.246094 96.425781 41.152344 96.304688 41.085938 C 96.191406 41.019531 95.964844 41.003906 95.878906 41 C 95.703125 41.011719 95.472656 41.085938 95.417969 41.042969 " fill-opacity="1" fill-rule="nonzero"/><path fill="#ffffff" d="M 90.023438 44.253906 C 89.9375 44.222656 89.859375 43.972656 89.621094 43.871094 C 89.511719 43.820312 89.097656 43.804688 88.839844 44.007812 C 88.570312 44.195312 88.476562 44.464844 88.476562 44.464844 C 88.476562 44.464844 88.347656 44.71875 88.402344 45.039062 C 88.433594 45.371094 88.734375 45.65625 88.851562 45.699219 C 89.085938 45.796875 89.320312 45.675781 89.402344 45.714844 C 89.34375 45.628906 89.484375 45.414062 89.617188 45.3125 C 89.667969 45.246094 89.851562 45.171875 89.921875 45.15625 C 89.996094 45.136719 90 45.105469 90 45.105469 C 90 45.105469 90.019531 45.082031 89.980469 45.011719 C 89.941406 44.949219 89.871094 44.769531 89.878906 44.6875 C 89.863281 44.519531 89.917969 44.273438 90.023438 44.253906 " fill-opacity="1" fill-rule="nonzero"/><path fill="#ffffff" d="M 86.355469 45.917969 C 86.242188 45.914062 86.230469 45.667969 85.96875 45.566406 C 85.933594 45.5625 85.894531 45.554688 85.839844 45.546875 C 85.8125 45.542969 85.777344 45.539062 85.738281 45.535156 L 85.675781 45.523438 L 85.640625 45.519531 L 85.621094 45.515625 L 85.605469 45.515625 L 85.503906 45.40625 C 85.445312 45.515625 85.34375 45.691406 85.253906 45.84375 C 85.207031 45.925781 85.183594 45.976562 85.132812 46.054688 C 85.066406 46.144531 85.027344 46.199219 85.027344 46.199219 C 85.027344 46.199219 84.886719 46.390625 84.601562 46.78125 L 85.007812 46.625 L 85.007812 46.628906 L 85.011719 46.628906 L 85.015625 46.632812 L 85.03125 46.640625 L 85.054688 46.660156 L 85.113281 46.703125 C 85.15625 46.730469 85.199219 46.757812 85.242188 46.789062 C 85.339844 46.859375 85.441406 46.929688 85.472656 46.910156 C 85.566406 46.929688 85.695312 46.90625 85.746094 46.90625 C 85.933594 46.871094 86.148438 46.746094 86.222656 46.789062 C 86.183594 46.710938 86.324219 46.503906 86.371094 46.320312 C 86.375 46.269531 86.402344 46.144531 86.390625 46.050781 C 86.410156 45.957031 86.355469 46.007812 86.300781 46.066406 L 86.226562 46.128906 L 86.195312 46.15625 L 86.175781 46.175781 L 86.171875 46.175781 L 86.167969 46.179688 L 86.363281 46.105469 C 86.273438 46.140625 86.230469 46.15625 86.230469 46.15625 C 86.230469 46.15625 86.175781 46.179688 86.183594 46.164062 L 86.160156 46.136719 C 86.121094 46.105469 86.164062 46.171875 86.164062 46.171875 L 86.183594 46.226562 C 86.191406 46.253906 86.199219 46.273438 86.207031 46.289062 C 86.273438 46.296875 86.28125 45.917969 86.355469 45.917969 " fill-opacity="1" fill-rule="nonzero"/><path fill="#ffffff" d="M 88.90625 49.8125 C 88.882812 49.78125 88.960938 49.511719 88.734375 49.359375 C 88.679688 49.339844 88.523438 49.285156 88.371094 49.328125 C 88.210938 49.363281 88.066406 49.441406 87.980469 49.53125 C 87.796875 49.710938 87.78125 49.898438 87.78125 49.898438 C 87.78125 49.898438 87.730469 50.082031 87.847656 50.3125 C 87.902344 50.425781 88.011719 50.546875 88.148438 50.636719 C 88.28125 50.722656 88.449219 50.726562 88.503906 50.722656 C 88.773438 50.652344 88.785156 50.371094 88.816406 50.347656 C 88.792969 50.347656 88.765625 50.265625 88.765625 50.191406 C 88.765625 50.160156 88.757812 50.210938 88.757812 50.210938 C 88.742188 50.21875 88.804688 50.144531 88.949219 50.121094 C 89.085938 50.105469 89.09375 50.117188 89.09375 50.117188 C 89.09375 50.117188 89.082031 50.128906 88.957031 50.070312 C 88.828125 50 88.792969 49.910156 88.804688 49.925781 C 88.804688 49.925781 88.796875 49.972656 88.804688 49.945312 C 88.828125 49.871094 88.882812 49.804688 88.90625 49.8125 " fill-opacity="1" fill-rule="nonzero"/><path fill="#ffffff" d="M 39.398438 43.378906 C 39.972656 45.777344 40.078125 47.472656 40.660156 50.375 C 40.769531 50.863281 40.9375 51.660156 41.296875 53.320312 C 41.820312 55.679688 42.824219 59.640625 43.910156 62.957031 C 44.972656 66.277344 46.082031 68.945312 46.082031 68.945312 C 46.082031 68.945312 46.316406 69.5 46.699219 70.414062 C 47.09375 71.324219 47.652344 72.582031 48.347656 73.964844 C 49.707031 76.742188 51.667969 79.96875 53.261719 82.132812 C 54.605469 83.980469 55.546875 85.039062 56.027344 85.59375 C 58.011719 87.828125 59.390625 88.84375 61.171875 90.542969 C 59.421875 88.804688 58.5 87.371094 56.8125 84.980469 C 56.398438 84.386719 55.597656 83.253906 54.425781 81.355469 C 53.050781 79.121094 51.292969 75.894531 50.027344 73.152344 C 48.734375 70.425781 47.867188 68.222656 47.867188 68.222656 C 47.867188 68.222656 46.792969 65.605469 45.652344 62.367188 C 44.503906 59.132812 43.265625 55.277344 42.535156 52.984375 C 42.023438 51.375 41.777344 50.597656 41.625 50.125 C 40.722656 47.316406 40.023438 45.761719 39.398438 43.378906 " fill-opacity="1" fill-rule="nonzero"/><path fill="#ffffff" d="M 64.226562 85.828125 C 64.628906 83.398438 65.179688 81.78125 65.664062 78.855469 C 65.746094 78.359375 65.878906 77.550781 66.101562 75.871094 C 66.402344 73.679688 66.761719 69.976562 66.953125 66.820312 C 67.054688 65.246094 67.125 63.789062 67.140625 62.730469 C 67.164062 61.671875 67.15625 61.011719 67.15625 61.011719 C 67.15625 61.011719 67.1875 58.800781 66.921875 55.980469 C 66.679688 53.160156 66.019531 49.761719 65.292969 47.410156 C 64.628906 45.210938 64.050781 43.914062 63.761719 43.230469 C 62.507812 40.503906 61.453125 39.148438 60.15625 37.058594 C 61.410156 39.1875 61.886719 40.832031 62.789062 43.597656 C 62.90625 43.9375 63.035156 44.449219 63.238281 45.128906 C 63.425781 45.816406 63.65625 46.6875 63.890625 47.773438 C 64.40625 50.09375 64.878906 53.398438 65.054688 56.132812 C 65.246094 58.867188 65.234375 61.023438 65.234375 61.023438 C 65.234375 61.023438 65.230469 61.664062 65.226562 62.699219 C 65.214844 63.730469 65.167969 65.148438 65.109375 66.726562 C 64.992188 69.871094 64.855469 73.5625 64.773438 75.753906 C 64.699219 77.4375 64.660156 78.246094 64.636719 78.746094 C 64.488281 81.6875 64.578125 83.386719 64.226562 85.828125 " fill-opacity="1" fill-rule="nonzero"/><path fill="#ffffff" d="M 38.039062 46.136719 C 40.484375 45.800781 42.226562 46.085938 45.171875 45.816406 C 45.667969 45.773438 46.480469 45.707031 48.160156 45.519531 C 48.980469 45.4375 50.90625 45.175781 50.90625 45.175781 C 50.90625 45.175781 52.519531 44.953125 53.414062 44.832031 C 55.640625 44.496094 57.015625 44.257812 57.734375 44.125 C 60.640625 43.621094 62.25 42.90625 64.710938 42.667969 C 62.25 42.808594 60.523438 42.414062 57.554688 42.578125 C 56.824219 42.617188 55.417969 42.695312 53.167969 42.945312 C 52.265625 43.042969 50.644531 43.277344 50.644531 43.277344 C 50.644531 43.277344 48.710938 43.550781 47.898438 43.707031 C 46.230469 44.003906 45.429688 44.179688 44.941406 44.285156 C 42.039062 44.894531 40.46875 45.703125 38.039062 46.136719 " fill-opacity="1" fill-rule="nonzero"/><path fill="#ffffff" d="M 41.011719 57.324219 C 43.464844 57.105469 45.214844 57.402344 48.183594 56.941406 C 48.683594 56.855469 49.503906 56.742188 51.175781 56.339844 C 52.085938 56.113281 54.242188 55.578125 54.242188 55.578125 C 54.242188 55.578125 56.042969 55.132812 57.042969 54.886719 C 59.214844 54.347656 60.558594 54.015625 61.261719 53.839844 C 62.332031 53.570312 63.28125 53.328125 64.855469 52.929688 C 65.914062 52.6875 66.960938 52.460938 68.179688 52.695312 C 66.976562 52.441406 65.917969 52.332031 64.800781 52.253906 C 63.679688 52.1875 62.488281 52.164062 60.996094 52.332031 C 60.261719 52.417969 58.851562 52.578125 56.621094 53.046875 C 55.589844 53.246094 53.769531 53.722656 53.769531 53.722656 C 53.769531 53.722656 51.589844 54.292969 50.691406 54.59375 C 49.09375 55.078125 48.324219 55.308594 47.851562 55.453125 C 45.042969 56.238281 43.464844 57.011719 41.011719 57.324219 " fill-opacity="1" fill-rule="nonzero"/><path fill="#ffffff" d="M 61.089844 87.953125 C 61.523438 90.378906 61.453125 92.097656 61.871094 95.027344 C 61.945312 95.523438 62.066406 96.328125 62.320312 98.003906 C 62.566406 99.53125 63.023438 102.09375 63.476562 104.265625 C 63.945312 106.433594 64.332031 108.222656 64.332031 108.222656 C 64.332031 108.222656 64.6875 109.710938 65.136719 111.617188 C 65.605469 113.519531 66.21875 115.820312 66.695312 117.453125 C 67.316406 119.625 67.746094 120.960938 67.972656 121.65625 C 68.871094 124.476562 69.6875 125.992188 70.351562 128.363281 C 69.738281 125.976562 69.683594 124.261719 69.121094 121.363281 C 68.976562 120.648438 68.699219 119.277344 68.257812 117.066406 C 67.578125 113.746094 66.207031 107.792969 66.207031 107.792969 C 66.207031 107.792969 64.566406 100.683594 63.78125 97.699219 C 63.359375 96.0625 63.15625 95.277344 63.027344 94.792969 C 62.273438 91.941406 61.578125 90.371094 61.089844 87.953125 " fill-opacity="1" fill-rule="nonzero"/><g clip-path="url(#ef2ec34669)"><path fill="#ffffff" d="M 68.511719 124.914062 C 67.039062 125.894531 65.910156 126.359375 64.140625 127.5625 C 63.84375 127.773438 63.34375 128.082031 62.386719 128.875 C 61.921875 129.269531 61.382812 129.75 60.871094 130.410156 C 60.632812 130.753906 60.371094 131.136719 60.265625 131.6875 C 60.128906 132.253906 60.476562 132.992188 60.953125 133.289062 C 61.882812 133.933594 62.84375 133.996094 63.769531 134.125 C 64.703125 134.222656 65.617188 134.210938 66.492188 134.195312 C 69.972656 134.09375 72.796875 133.550781 72.796875 133.550781 C 72.796875 133.550781 73.386719 133.457031 74.351562 133.257812 C 75.316406 133.058594 76.652344 132.738281 78.125 132.246094 C 79.582031 131.738281 81.21875 131.082031 82.5625 129.878906 C 83.199219 129.273438 83.78125 128.5625 83.988281 127.640625 C 84.238281 126.71875 83.785156 125.726562 83.195312 125.265625 C 82.46875 124.65625 81.769531 124.46875 81.242188 124.339844 C 80.703125 124.214844 80.3125 124.1875 80.058594 124.15625 C 77.949219 123.90625 76.734375 123.902344 74.984375 123.625 C 76.730469 123.921875 77.882812 124.3125 79.957031 124.753906 C 80.21875 124.8125 80.585938 124.882812 81.050781 125.03125 C 81.507812 125.179688 82.101562 125.425781 82.589844 125.90625 C 82.980469 126.296875 83.171875 126.828125 82.992188 127.398438 C 82.839844 127.96875 82.347656 128.554688 81.789062 129.023438 C 80.65625 129.953125 79.101562 130.550781 77.710938 130.992188 C 76.304688 131.425781 75.011719 131.726562 74.074219 131.910156 C 73.136719 132.085938 72.5625 132.195312 72.5625 132.195312 C 72.5625 132.195312 69.808594 132.707031 66.4375 132.890625 C 65.601562 132.929688 64.722656 132.964844 63.867188 132.910156 C 63.039062 132.851562 62.121094 132.742188 61.601562 132.402344 C 61.347656 132.222656 61.269531 132.09375 61.285156 131.832031 C 61.308594 131.566406 61.472656 131.242188 61.65625 130.953125 C 62.039062 130.371094 62.515625 129.875 62.929688 129.464844 C 63.777344 128.636719 64.242188 128.277344 64.507812 128.042969 C 66.128906 126.707031 67.050781 125.910156 68.511719 124.914062 " fill-opacity="1" fill-rule="nonzero"/></g><path fill="#ffffff" d="M 63.847656 87.710938 C 64.296875 89.785156 64.320312 91.253906 64.746094 93.761719 C 64.820312 94.1875 64.941406 94.875 65.195312 96.308594 C 65.46875 97.828125 65.976562 100.375 66.441406 102.535156 C 66.921875 104.695312 67.316406 106.476562 67.316406 106.476562 C 67.316406 106.476562 68.695312 112.433594 69.605469 115.699219 C 70.132812 117.570312 70.457031 118.726562 70.628906 119.332031 C 71.34375 121.773438 71.96875 123.105469 72.46875 125.167969 C 72.019531 123.09375 71.996094 121.621094 71.574219 119.117188 C 71.460938 118.496094 71.25 117.3125 70.902344 115.402344 C 70.296875 112.066406 68.929688 106.105469 68.929688 106.105469 C 68.929688 106.105469 68.507812 104.332031 67.996094 102.179688 C 67.46875 100.03125 66.8125 97.519531 66.394531 96.035156 C 65.996094 94.632812 65.804688 93.960938 65.6875 93.546875 C 64.972656 91.105469 64.347656 89.773438 63.847656 87.710938 " fill-opacity="1" fill-rule="nonzero"/><path fill="#ffffff" d="M 57.386719 74.914062 C 57.480469 75.019531 57.386719 75.257812 57.328125 75.445312 C 57.3125 75.542969 57.238281 75.78125 57.207031 75.921875 C 57.175781 76.066406 57.1875 76.175781 57.1875 76.175781 C 57.1875 76.175781 57.183594 76.289062 57.230469 76.433594 C 57.277344 76.566406 57.378906 76.792969 57.40625 76.890625 C 57.480469 77.070312 57.601562 77.296875 57.523438 77.414062 C 57.632812 77.34375 57.878906 77.441406 58.128906 77.351562 C 58.25 77.304688 58.597656 77.070312 58.726562 76.734375 C 58.871094 76.410156 58.839844 76.089844 58.839844 76.089844 C 58.839844 76.089844 58.835938 75.769531 58.65625 75.460938 C 58.488281 75.144531 58.121094 74.945312 57.996094 74.914062 C 57.738281 74.851562 57.503906 74.972656 57.386719 74.914062 " fill-opacity="1" fill-rule="nonzero"/><path fill="#ffffff" d="M 50.386719 67.675781 C 50.308594 67.734375 50.070312 67.652344 49.847656 67.734375 C 49.746094 67.773438 49.457031 67.988281 49.375 68.273438 C 49.28125 68.550781 49.34375 68.808594 49.34375 68.808594 C 49.34375 68.808594 49.378906 69.070312 49.574219 69.292969 C 49.753906 69.527344 50.105469 69.621094 50.214844 69.617188 C 50.449219 69.613281 50.644531 69.441406 50.734375 69.464844 C 50.660156 69.394531 50.738281 69.152344 50.800781 68.992188 C 50.820312 68.90625 50.910156 68.714844 50.949219 68.632812 C 50.988281 68.542969 50.96875 68.492188 50.96875 68.492188 C 50.96875 68.492188 50.964844 68.441406 50.894531 68.371094 C 50.828125 68.308594 50.671875 68.164062 50.625 68.089844 C 50.503906 67.964844 50.34375 67.773438 50.386719 67.675781 " fill-opacity="1" fill-rule="nonzero"/><path fill="#ffffff" d="M 49.753906 62.152344 C 49.710938 62.128906 49.660156 61.867188 49.421875 61.785156 C 49.316406 61.734375 48.914062 61.796875 48.742188 62.027344 C 48.5625 62.234375 48.558594 62.453125 48.558594 62.453125 C 48.558594 62.453125 48.519531 62.675781 48.660156 62.910156 C 48.78125 63.164062 49.167969 63.304688 49.28125 63.273438 C 49.53125 63.238281 49.628906 62.988281 49.675781 62.972656 C 49.589844 62.96875 49.703125 62.605469 49.679688 62.703125 C 49.679688 62.703125 49.746094 62.628906 49.863281 62.601562 C 49.980469 62.578125 49.984375 62.585938 49.984375 62.585938 C 49.984375 62.585938 49.976562 62.597656 49.867188 62.550781 C 49.753906 62.503906 49.707031 62.417969 49.707031 62.417969 C 49.710938 62.519531 49.667969 62.140625 49.753906 62.152344 " fill-opacity="1" fill-rule="nonzero"/><path fill="#ffffff" d="M 52.746094 59.75 C 52.835938 59.730469 53.003906 59.914062 53.152344 60.019531 C 53.230469 60.0625 53.429688 60.191406 53.472656 60.257812 C 53.503906 60.292969 53.496094 60.316406 53.496094 60.242188 C 53.5 60.21875 53.5 60.203125 53.5 60.203125 L 53.5 60.199219 L 53.527344 59.925781 L 53.535156 59.9375 C 53.539062 59.949219 53.59375 59.976562 53.558594 59.988281 C 53.507812 60.011719 53.503906 60.070312 53.484375 60.074219 C 53.445312 60.089844 53.640625 59.984375 53.679688 60 C 53.753906 59.964844 54.054688 60.101562 53.992188 60.199219 C 54.054688 60.160156 54.335938 60.175781 54.488281 59.929688 C 54.566406 59.8125 54.636719 59.367188 54.398438 59.074219 C 54.28125 58.921875 54.175781 58.828125 53.96875 58.75 C 53.921875 58.734375 53.882812 58.71875 53.855469 58.710938 C 53.800781 58.699219 53.769531 58.691406 53.769531 58.691406 C 53.769531 58.691406 53.441406 58.628906 53.1875 58.765625 C 52.921875 58.886719 52.8125 59.160156 52.789062 59.25 C 52.75 59.445312 52.8125 59.683594 52.746094 59.75 " fill-opacity="1" fill-rule="nonzero"/><path fill="#ffffff" d="M 49.09375 54.011719 C 49.085938 53.984375 49.144531 53.734375 49.003906 53.566406 C 48.949219 53.484375 48.632812 53.351562 48.421875 53.445312 C 48.207031 53.515625 48.125 53.675781 48.125 53.675781 C 48.125 53.675781 48.015625 53.820312 48.042969 54.042969 C 48.050781 54.273438 48.304688 54.503906 48.40625 54.515625 C 48.617188 54.570312 48.820312 54.40625 48.851562 54.402344 C 48.839844 54.390625 48.886719 54.316406 48.941406 54.269531 L 48.945312 54.269531 C 48.945312 54.269531 48.992188 54.253906 49.046875 54.269531 C 49.097656 54.28125 49.097656 54.285156 49.097656 54.285156 C 49.097656 54.285156 49.09375 54.289062 49.058594 54.25 C 49.023438 54.207031 49.015625 54.15625 49.015625 54.15625 C 49.035156 54.082031 49.078125 54.011719 49.09375 54.011719 " fill-opacity="1" fill-rule="nonzero"/><path fill="#ffffff" d="M 46.714844 50.261719 C 46.675781 50.246094 46.589844 49.988281 46.335938 49.957031 C 46.285156 49.960938 46.132812 49.96875 46.019531 50.054688 C 45.894531 50.132812 45.785156 50.253906 45.734375 50.371094 C 45.621094 50.613281 45.679688 50.808594 45.679688 50.808594 C 45.679688 50.808594 45.703125 51.015625 45.894531 51.195312 C 45.988281 51.28125 46.136719 51.355469 46.28125 51.378906 C 46.421875 51.414062 46.5625 51.363281 46.609375 51.347656 C 46.835938 51.222656 46.816406 50.949219 46.84375 50.917969 C 46.820312 50.921875 46.773438 50.847656 46.757812 50.773438 C 46.746094 50.664062 46.757812 50.761719 46.753906 50.738281 C 46.746094 50.742188 46.785156 50.65625 46.894531 50.59375 C 47 50.535156 47.011719 50.542969 47.011719 50.542969 C 47.011719 50.542969 47.003906 50.554688 46.882812 50.542969 C 46.757812 50.53125 46.691406 50.460938 46.699219 50.464844 C 46.691406 50.4375 46.722656 50.535156 46.691406 50.429688 C 46.675781 50.355469 46.6875 50.269531 46.714844 50.261719 " fill-opacity="1" fill-rule="nonzero"/><path fill="#ffffff" d="M 45.507812 41.703125 C 45.460938 41.652344 45.484375 41.394531 45.316406 41.222656 C 45.242188 41.140625 44.902344 40.957031 44.550781 41.113281 C 44.1875 41.25 44.03125 41.695312 44.046875 41.683594 C 44.046875 41.683594 44.035156 41.71875 44.015625 41.78125 C 44.015625 41.8125 44.007812 41.863281 44 41.917969 C 43.984375 42.164062 44.042969 42.328125 44.152344 42.5 C 44.375 42.835938 44.808594 42.859375 44.929688 42.8125 C 45.1875 42.730469 45.246094 42.460938 45.296875 42.417969 C 45.1875 42.453125 45.171875 42.089844 45.210938 42.082031 C 45.210938 42.042969 45.308594 41.964844 45.234375 42.019531 C 45.199219 42.039062 45.15625 42.023438 45.140625 42.050781 C 45.121094 42.078125 45.132812 42.03125 45.132812 42.023438 C 45.152344 42.035156 45.085938 41.972656 45.179688 42.050781 C 45.171875 42.050781 45.191406 42.042969 45.25 42.117188 C 45.273438 42.148438 45.28125 42.179688 45.28125 42.179688 C 45.28125 42.203125 45.273438 42.101562 45.28125 42.074219 C 45.296875 41.910156 45.421875 41.6875 45.507812 41.703125 " fill-opacity="1" fill-rule="nonzero"/><path fill="#ffffff" d="M 41.949219 36.28125 C 41.90625 36.261719 41.820312 36.003906 41.566406 35.972656 C 41.515625 35.976562 41.367188 35.984375 41.253906 36.070312 C 41.128906 36.148438 41.019531 36.269531 40.96875 36.386719 C 40.855469 36.628906 40.914062 36.824219 40.914062 36.824219 C 40.914062 36.824219 40.933594 37.03125 41.128906 37.210938 C 41.222656 37.300781 41.367188 37.371094 41.515625 37.394531 C 41.652344 37.429688 41.796875 37.378906 41.84375 37.363281 C 42.066406 37.238281 42.046875 36.964844 42.078125 36.933594 C 42.050781 36.9375 42.007812 36.863281 41.992188 36.789062 C 41.980469 36.679688 41.992188 36.777344 41.988281 36.753906 C 41.980469 36.757812 42.015625 36.671875 42.125 36.609375 C 42.234375 36.550781 42.242188 36.558594 42.242188 36.558594 C 42.242188 36.558594 42.238281 36.570312 42.117188 36.558594 C 41.992188 36.546875 41.921875 36.480469 41.933594 36.480469 C 41.925781 36.457031 41.953125 36.550781 41.925781 36.445312 C 41.910156 36.371094 41.921875 36.285156 41.949219 36.28125 " fill-opacity="1" fill-rule="nonzero"/><path fill="#ffffff" d="M 55.75 51.730469 C 55.789062 51.75 55.835938 51.746094 55.875 51.726562 C 55.945312 51.695312 55.980469 51.628906 55.996094 51.589844 L 55.886719 51.558594 L 55.890625 51.546875 L 55.996094 51.589844 C 56.042969 51.472656 56.011719 51.363281 55.921875 51.328125 L 55.878906 51.4375 L 55.875 51.433594 C 55.832031 51.488281 55.773438 51.492188 55.753906 51.597656 C 55.769531 51.617188 55.78125 51.609375 55.792969 51.613281 L 55.75 51.730469 " fill-opacity="1" fill-rule="nonzero"/><path fill="#ffffff" d="M 44.816406 59.371094 L 44.867188 59.242188 L 44.867188 59.25 C 44.898438 59.195312 44.957031 59.210938 44.972656 59.132812 C 44.960938 59.113281 44.949219 59.117188 44.933594 59.109375 L 44.988281 58.976562 C 44.882812 58.9375 44.765625 58.996094 44.71875 59.117188 L 44.847656 59.164062 L 44.71875 59.117188 C 44.703125 59.15625 44.699219 59.199219 44.707031 59.238281 C 44.71875 59.300781 44.757812 59.351562 44.816406 59.371094 " fill-opacity="1" fill-rule="nonzero"/><path fill="#ffffff" d="M 68.558594 65.128906 L 68.710938 65.035156 C 68.71875 64.972656 68.734375 64.921875 68.75 64.878906 C 68.773438 64.820312 68.792969 64.753906 68.765625 64.6875 L 68.570312 64.660156 C 68.558594 64.679688 68.539062 64.691406 68.515625 64.710938 C 68.460938 64.75 68.382812 64.804688 68.351562 64.945312 L 68.417969 65.074219 L 68.558594 65.128906 " fill-opacity="1" fill-rule="nonzero"/><path fill="#ffffff" d="M 64.324219 81.535156 L 64.421875 81.535156 C 64.476562 81.515625 64.609375 81.386719 64.613281 81.265625 C 64.617188 81.195312 64.582031 81.136719 64.519531 81.105469 L 64.378906 81.136719 C 64.386719 81.125 64.410156 81.117188 64.410156 81.113281 L 64.253906 81.160156 C 64.128906 81.402344 64.273438 81.507812 64.324219 81.535156 " fill-opacity="1" fill-rule="nonzero"/><path fill="#ffffff" d="M 57.972656 76.960938 L 57.984375 77.027344 C 58.023438 77.113281 58.089844 77.175781 58.175781 77.210938 C 58.300781 77.257812 58.449219 77.234375 58.5625 77.144531 L 58.609375 77.011719 L 58.566406 76.816406 L 58.46875 76.714844 L 58.417969 76.695312 C 58.179688 76.601562 58.058594 76.714844 58.003906 76.789062 L 57.980469 76.851562 L 57.972656 76.960938 " fill-opacity="1" fill-rule="nonzero"/><path fill="#ffffff" d="M 63.296875 73.671875 L 63.363281 73.84375 C 63.402344 73.855469 63.480469 73.875 63.550781 73.832031 C 63.59375 73.804688 63.621094 73.757812 63.628906 73.695312 L 63.546875 73.570312 C 63.535156 73.566406 63.527344 73.5625 63.515625 73.558594 C 63.46875 73.542969 63.332031 73.492188 63.265625 73.617188 L 63.289062 73.691406 C 63.292969 73.683594 63.296875 73.675781 63.296875 73.671875 " fill-opacity="1" fill-rule="nonzero"/><path fill="#ffffff" d="M 70.03125 72.195312 C 70.03125 72.195312 70.015625 72.195312 69.988281 72.195312 L 70.1875 72.191406 C 70.222656 72.117188 70.230469 72.046875 70.207031 71.984375 C 70.191406 71.941406 70.15625 71.886719 70.066406 71.851562 L 70.035156 71.839844 L 69.894531 71.910156 C 69.882812 71.941406 69.871094 71.953125 69.835938 71.976562 L 69.871094 72.179688 C 69.945312 72.207031 70 72.199219 70.03125 72.195312 " fill-opacity="1" fill-rule="nonzero"/><path fill="#ffffff" d="M 55.359375 85.039062 L 55.378906 85.1875 C 55.402344 85.207031 55.417969 85.230469 55.4375 85.253906 C 55.464844 85.285156 55.492188 85.320312 55.527344 85.347656 L 55.699219 85.320312 C 55.738281 85.242188 55.75 85.152344 55.71875 85.070312 C 55.695312 85.007812 55.65625 84.960938 55.601562 84.9375 C 55.566406 84.925781 55.453125 84.898438 55.359375 85.039062 " fill-opacity="1" fill-rule="nonzero"/><path fill="#ffffff" d="M 59.171875 82.09375 C 59.28125 82.136719 59.394531 82.089844 59.441406 81.984375 L 59.402344 81.84375 C 59.394531 81.839844 59.390625 81.832031 59.378906 81.820312 C 59.355469 81.792969 59.320312 81.75 59.257812 81.726562 C 59.238281 81.71875 59.214844 81.710938 59.191406 81.707031 L 59.078125 81.757812 C 59.035156 81.820312 59.023438 81.894531 59.042969 81.960938 C 59.0625 82.023438 59.113281 82.070312 59.171875 82.09375 " fill-opacity="1" fill-rule="nonzero"/><path fill="#ffffff" d="M 47.726562 53.867188 C 47.738281 53.914062 47.761719 53.996094 47.847656 54.042969 L 48.007812 53.980469 C 48.046875 53.875 47.996094 53.660156 47.871094 53.609375 C 47.808594 53.585938 47.738281 53.605469 47.6875 53.660156 L 47.714844 53.832031 C 47.714844 53.832031 47.722656 53.855469 47.726562 53.867188 " fill-opacity="1" fill-rule="nonzero"/><path fill="#ffffff" d="M 43.898438 64.148438 L 43.894531 64.167969 C 43.800781 64.222656 43.683594 64.328125 43.671875 64.511719 C 43.660156 64.660156 43.734375 64.800781 43.867188 64.890625 L 44.03125 64.929688 L 44.171875 64.921875 L 44.277344 64.890625 L 44.324219 64.871094 C 44.429688 64.828125 44.628906 64.753906 44.710938 64.535156 C 44.757812 64.40625 44.746094 64.257812 44.671875 64.125 L 44.425781 63.988281 L 44.273438 63.996094 L 44.261719 63.960938 C 44.0625 63.96875 43.953125 64.066406 43.898438 64.148438 " fill-opacity="1" fill-rule="nonzero"/><path fill="#ffffff" d="M 52.394531 58.558594 L 52.414062 58.617188 C 52.429688 58.648438 52.488281 58.742188 52.59375 58.78125 C 52.644531 58.800781 52.824219 58.851562 52.976562 58.644531 L 53 58.535156 L 52.9375 58.324219 C 52.921875 58.296875 52.875 58.21875 52.769531 58.175781 L 52.71875 58.160156 L 52.617188 58.171875 L 52.488281 58.242188 L 52.429688 58.308594 L 52.394531 58.402344 L 52.386719 58.460938 L 52.394531 58.558594 " fill-opacity="1" fill-rule="nonzero"/><path fill="#ffffff" d="M 39.085938 73.335938 L 39.164062 73.398438 C 39.394531 73.46875 39.539062 73.394531 39.621094 73.324219 L 39.660156 73.253906 L 39.6875 73.128906 L 39.683594 73.050781 C 39.640625 72.953125 39.566406 72.875 39.46875 72.835938 C 39.371094 72.800781 39.269531 72.804688 39.179688 72.851562 C 39.085938 72.902344 39.019531 72.992188 38.996094 73.109375 L 39.007812 73.203125 L 39.085938 73.335938 " fill-opacity="1" fill-rule="nonzero"/><path fill="#ffffff" d="M 44.582031 75.417969 C 44.597656 75.449219 44.628906 75.5 44.6875 75.542969 L 44.792969 75.5625 L 44.984375 75.511719 C 45.007812 75.5 45.0625 75.472656 45.105469 75.410156 L 45.128906 75.304688 L 45.074219 75.097656 C 45.0625 75.074219 45.03125 75.023438 44.972656 74.984375 L 44.867188 74.960938 L 44.671875 75.011719 C 44.648438 75.027344 44.589844 75.054688 44.546875 75.121094 L 44.527344 75.226562 L 44.582031 75.417969 " fill-opacity="1" fill-rule="nonzero"/><path fill="#ffffff" d="M 49.253906 57.996094 C 49.265625 58.023438 49.296875 58.074219 49.355469 58.113281 L 49.464844 58.132812 L 49.671875 58.074219 C 49.703125 58.054688 49.804688 57.992188 49.835938 57.839844 L 49.820312 57.75 L 49.75 57.625 L 49.683594 57.566406 L 49.546875 57.511719 L 49.445312 57.511719 L 49.296875 57.578125 L 49.226562 57.652344 L 49.191406 57.742188 L 49.191406 57.835938 L 49.253906 57.996094 " fill-opacity="1" fill-rule="nonzero"/><path fill="#ffffff" d="M 41.578125 54.925781 C 41.578125 54.929688 41.574219 54.953125 41.574219 54.964844 C 41.566406 55.015625 41.550781 55.117188 41.632812 55.183594 L 41.8125 55.132812 C 41.820312 55.105469 41.832031 55.09375 41.871094 55.066406 L 41.859375 54.878906 C 41.851562 54.871094 41.835938 54.851562 41.828125 54.835938 C 41.792969 54.785156 41.757812 54.730469 41.699219 54.707031 C 41.671875 54.699219 41.582031 54.671875 41.503906 54.765625 L 41.601562 54.953125 C 41.589844 54.953125 41.578125 54.933594 41.578125 54.925781 " fill-opacity="1" fill-rule="nonzero"/><path fill="#ffffff" d="M 33.933594 72.25 C 34.054688 72.296875 34.175781 72.253906 34.226562 72.140625 L 34.167969 71.976562 C 34.15625 71.945312 34.136719 71.898438 34.085938 71.859375 L 33.898438 71.902344 C 33.867188 71.914062 33.816406 71.933594 33.78125 71.984375 L 33.765625 72.09375 C 33.792969 72.160156 33.855469 72.21875 33.933594 72.25 " fill-opacity="1" fill-rule="nonzero"/><path fill="#ffffff" d="M 39.128906 59.949219 C 39.175781 59.839844 39.128906 59.722656 39.023438 59.671875 L 38.882812 59.710938 C 38.878906 59.71875 38.867188 59.726562 38.855469 59.734375 C 38.820312 59.765625 38.765625 59.8125 38.746094 59.921875 L 38.792969 60.035156 C 38.925781 60.121094 39.074219 60.074219 39.128906 59.949219 " fill-opacity="1" fill-rule="nonzero"/><path fill="#ffffff" d="M 40.796875 64.34375 L 40.695312 64.425781 L 40.636719 64.527344 C 40.558594 64.726562 40.585938 64.871094 40.722656 64.960938 L 40.835938 64.980469 L 40.886719 64.964844 L 40.898438 64.976562 C 41.109375 65.023438 41.207031 64.914062 41.25 64.84375 L 41.265625 64.792969 L 41.277344 64.6875 C 41.300781 64.519531 41.230469 64.394531 41.089844 64.339844 C 41.03125 64.316406 40.964844 64.308594 40.875 64.3125 L 40.796875 64.34375 " fill-opacity="1" fill-rule="nonzero"/><path fill="#ffffff" d="M 41.503906 61.804688 L 41.617188 61.832031 L 41.789062 61.796875 L 41.882812 61.722656 C 41.925781 61.636719 42.003906 61.472656 41.9375 61.308594 C 41.902344 61.21875 41.832031 61.148438 41.734375 61.113281 C 41.714844 61.105469 41.695312 61.097656 41.667969 61.09375 L 41.570312 61.109375 L 41.433594 61.191406 L 41.375 61.277344 C 41.355469 61.363281 41.292969 61.625 41.503906 61.804688 " fill-opacity="1" fill-rule="nonzero"/><path fill="#ffffff" d="M 34.277344 62.824219 C 34.410156 62.699219 34.550781 62.570312 34.710938 62.488281 L 34.667969 62.277344 C 34.519531 62.261719 34.328125 62.347656 34.199219 62.476562 C 34.113281 62.566406 34.074219 62.664062 34.089844 62.757812 L 34.277344 62.824219 " fill-opacity="1" fill-rule="nonzero"/><path fill="#ffffff" d="M 36.636719 67.59375 L 36.796875 67.566406 C 36.804688 67.558594 36.8125 67.550781 36.824219 67.539062 C 36.859375 67.511719 36.914062 67.464844 36.933594 67.355469 L 36.878906 67.238281 C 36.855469 67.226562 36.835938 67.214844 36.8125 67.207031 C 36.679688 67.15625 36.5625 67.191406 36.503906 67.304688 L 36.554688 67.472656 C 36.566406 67.507812 36.585938 67.554688 36.636719 67.59375 " fill-opacity="1" fill-rule="nonzero"/><path fill="#ffffff" d="M 56.722656 65.519531 L 56.710938 65.523438 C 56.71875 65.601562 56.746094 65.691406 56.804688 65.769531 L 56.800781 65.882812 L 56.851562 66.023438 L 56.875 66.066406 C 56.890625 66.09375 56.933594 66.171875 57.027344 66.234375 L 57.242188 66.265625 L 57.410156 66.21875 L 57.484375 66.1875 C 57.597656 66.109375 57.671875 66.003906 57.699219 65.871094 L 57.671875 65.691406 L 57.605469 65.566406 L 57.558594 65.527344 L 57.550781 65.347656 L 57.472656 65.199219 L 57.292969 65.0625 C 57 64.953125 56.804688 65.085938 56.71875 65.242188 L 56.699219 65.453125 L 56.722656 65.519531 " fill-opacity="1" fill-rule="nonzero"/><path fill="#ffffff" d="M 58.167969 71.597656 C 58.265625 71.632812 58.363281 71.628906 58.4375 71.585938 C 58.515625 71.546875 58.566406 71.472656 58.582031 71.382812 L 58.566406 71.296875 L 58.53125 71.230469 L 58.507812 71.230469 L 58.480469 71.136719 L 58.402344 71.050781 L 58.308594 71.015625 L 58.242188 71.003906 L 58.132812 71.019531 L 58.074219 71.042969 C 57.976562 71.113281 57.929688 71.226562 57.941406 71.335938 C 57.957031 71.445312 58.046875 71.550781 58.167969 71.597656 " fill-opacity="1" fill-rule="nonzero"/><path fill="#ffffff" d="M 53.246094 74.367188 C 53.332031 74.398438 53.421875 74.410156 53.515625 74.402344 L 53.652344 74.351562 L 53.746094 74.277344 L 53.835938 74.164062 L 53.921875 73.933594 L 53.921875 73.730469 L 53.855469 73.585938 L 53.710938 73.441406 L 53.433594 73.335938 L 53.226562 73.339844 L 53.082031 73.410156 L 52.941406 73.554688 C 52.8125 73.902344 52.945312 74.246094 53.246094 74.367188 " fill-opacity="1" fill-rule="nonzero"/><path fill="#ffffff" d="M 55.527344 67.730469 L 55.589844 67.847656 L 55.765625 67.984375 C 56.128906 68.128906 56.371094 67.894531 56.460938 67.8125 L 56.496094 67.777344 L 56.578125 67.625 L 56.601562 67.488281 L 56.574219 67.320312 C 56.507812 67.199219 56.40625 67.109375 56.285156 67.0625 C 56.128906 67 55.953125 67.015625 55.804688 67.101562 C 55.640625 67.195312 55.53125 67.367188 55.5 67.566406 L 55.527344 67.730469 " fill-opacity="1" fill-rule="nonzero"/><path fill="#ffffff" d="M 63.679688 58.757812 L 63.871094 58.722656 L 63.980469 58.449219 L 63.855469 58.296875 C 63.757812 58.3125 63.695312 58.308594 63.625 58.304688 C 63.546875 58.296875 63.464844 58.289062 63.351562 58.324219 L 63.277344 58.460938 C 63.3125 58.585938 63.402344 58.648438 63.539062 58.683594 C 63.589844 58.699219 63.644531 58.714844 63.679688 58.757812 " fill-opacity="1" fill-rule="nonzero"/><path fill="#ffffff" d="M 45.839844 81.40625 L 45.667969 81.453125 L 45.9375 81.652344 L 45.902344 81.480469 C 45.894531 81.464844 45.875 81.433594 45.839844 81.40625 " fill-opacity="1" fill-rule="nonzero"/><path fill="#ffffff" d="M 50.746094 66.742188 L 50.601562 66.804688 L 50.460938 66.953125 L 50.421875 67.042969 L 50.421875 67.234375 L 50.492188 67.410156 C 50.507812 67.441406 50.550781 67.515625 50.640625 67.578125 L 50.855469 67.613281 L 51.027344 67.566406 L 51.101562 67.535156 C 51.144531 67.503906 51.28125 67.417969 51.320312 67.214844 L 51.292969 67.039062 L 51.226562 66.910156 L 51.089844 66.792969 L 50.949219 66.738281 L 50.746094 66.742188 " fill-opacity="1" fill-rule="nonzero"/><path fill="#ffffff" d="M 51.160156 63.824219 L 51.136719 63.945312 L 51.152344 64.089844 C 51.199219 64.214844 51.296875 64.308594 51.429688 64.359375 C 51.589844 64.421875 51.777344 64.414062 51.929688 64.332031 L 52.054688 64.1875 L 52.105469 64.042969 L 52.101562 63.855469 C 52.035156 63.691406 51.933594 63.585938 51.800781 63.53125 C 51.707031 63.496094 51.46875 63.441406 51.226562 63.695312 L 51.160156 63.824219 " fill-opacity="1" fill-rule="nonzero"/><path fill="#ffffff" d="M 55.300781 57.925781 C 55.347656 57.90625 55.382812 57.867188 55.402344 57.816406 L 55.308594 57.660156 C 55.296875 57.621094 55.277344 57.539062 55.179688 57.5 C 55.160156 57.492188 55.140625 57.488281 55.117188 57.484375 L 55.011719 57.527344 C 54.960938 57.59375 54.945312 57.671875 54.96875 57.746094 C 55.007812 57.882812 55.179688 57.976562 55.300781 57.925781 " fill-opacity="1" fill-rule="nonzero"/><path fill="#ffffff" d="M 56.730469 60.039062 C 56.84375 60.082031 56.964844 60.070312 57.050781 60.007812 C 57.136719 59.941406 57.179688 59.835938 57.171875 59.71875 L 57.144531 59.652344 L 57.074219 59.554688 L 57.015625 59.511719 L 56.878906 59.457031 L 56.804688 59.449219 L 56.6875 59.472656 L 56.625 59.507812 C 56.535156 59.585938 56.496094 59.691406 56.519531 59.800781 C 56.535156 59.902344 56.617188 59.992188 56.730469 60.039062 " fill-opacity="1" fill-rule="nonzero"/><path fill="#ffffff" d="M 65.027344 70.023438 C 65.042969 70.03125 65.0625 70.039062 65.078125 70.042969 C 65.105469 70.054688 65.183594 70.085938 65.257812 70.039062 C 65.304688 70.007812 65.332031 69.953125 65.335938 69.878906 L 65.328125 69.828125 C 65.296875 69.753906 65.25 69.722656 65.214844 69.710938 C 65.09375 69.660156 64.976562 69.761719 64.929688 69.808594 L 64.988281 70.003906 C 65 70.007812 65.011719 70.015625 65.027344 70.023438 " fill-opacity="1" fill-rule="nonzero"/><path fill="#ffffff" d="M 47.949219 63.609375 L 48.039062 63.6875 L 48.171875 63.746094 C 48.414062 63.785156 48.589844 63.679688 48.714844 63.605469 L 48.824219 63.496094 L 48.878906 63.382812 L 48.90625 63.234375 C 48.882812 63.042969 48.765625 62.886719 48.59375 62.820312 C 48.398438 62.742188 48.167969 62.792969 48.011719 62.941406 C 47.859375 63.085938 47.804688 63.296875 47.867188 63.488281 L 47.949219 63.609375 " fill-opacity="1" fill-rule="nonzero"/><path fill="#ffffff" d="M 49.128906 77.734375 L 49.125 77.78125 L 49.171875 77.925781 L 49.230469 78 C 49.253906 78.015625 49.273438 78.023438 49.292969 78.03125 C 49.390625 78.066406 49.480469 78.066406 49.574219 78.023438 C 49.730469 77.949219 49.785156 77.777344 49.816406 77.6875 L 49.8125 77.589844 L 49.746094 77.453125 L 49.675781 77.386719 L 49.648438 77.375 C 49.523438 77.324219 49.402344 77.320312 49.296875 77.355469 L 49.253906 77.378906 L 49.191406 77.433594 L 49.164062 77.472656 C 49.101562 77.582031 49.113281 77.675781 49.121094 77.730469 L 49.128906 77.734375 " fill-opacity="1" fill-rule="nonzero"/><path fill="#ffffff" d="M 49.667969 69.113281 C 49.652344 69.066406 49.609375 68.964844 49.496094 68.878906 L 49.265625 68.839844 L 49.09375 68.890625 L 48.917969 69.046875 L 48.867188 69.183594 L 48.875 69.402344 L 48.953125 69.554688 L 49.136719 69.691406 C 49.496094 69.816406 49.660156 69.59375 49.703125 69.519531 L 49.730469 69.3125 L 49.667969 69.113281 " fill-opacity="1" fill-rule="nonzero"/><g clip-path="url(#ca7095f142)"><path fill="#ffffff" d="M 32.78125 55.40625 C 32.804688 55.457031 32.835938 55.496094 32.882812 55.511719 L 32.929688 55.394531 C 32.941406 55.398438 32.949219 55.410156 32.964844 55.402344 C 33.015625 55.375 32.988281 55.257812 32.972656 55.246094 C 32.953125 55.226562 32.941406 55.234375 32.925781 55.230469 L 32.972656 55.113281 C 32.890625 55.082031 32.804688 55.121094 32.773438 55.203125 C 32.75 55.261719 32.75 55.34375 32.78125 55.40625 " fill-opacity="1" fill-rule="nonzero"/></g><path fill="#ffffff" d="M 42.621094 68.453125 L 42.628906 68.628906 L 42.6875 68.757812 L 42.804688 68.882812 C 42.84375 68.90625 42.882812 68.921875 42.917969 68.9375 C 43.261719 69.070312 43.527344 68.941406 43.660156 68.773438 L 43.714844 68.628906 L 43.722656 68.507812 L 43.695312 68.363281 C 43.628906 68.238281 43.519531 68.140625 43.382812 68.089844 C 43.222656 68.027344 43.046875 68.035156 42.898438 68.109375 C 42.757812 68.175781 42.660156 68.300781 42.621094 68.453125 " fill-opacity="1" fill-rule="nonzero"/><path fill="#ffffff" d="M 61.511719 65.308594 C 61.523438 65.332031 61.554688 65.390625 61.621094 65.4375 L 61.730469 65.457031 L 61.917969 65.402344 C 61.953125 65.386719 62.003906 65.355469 62.042969 65.292969 L 62.0625 65.1875 L 62.011719 65 C 62 64.976562 61.96875 64.921875 61.90625 64.875 L 61.800781 64.855469 L 61.601562 64.90625 C 61.574219 64.921875 61.523438 64.949219 61.480469 65.011719 L 61.460938 65.121094 L 61.511719 65.308594 " fill-opacity="1" fill-rule="nonzero"/><path fill="#ffffff" d="M 39.429688 78.871094 L 39.339844 78.867188 C 39.242188 78.90625 39.167969 79.019531 39.164062 79.125 C 39.164062 79.214844 39.210938 79.289062 39.292969 79.324219 L 39.378906 79.324219 C 39.476562 79.285156 39.550781 79.171875 39.554688 79.066406 C 39.554688 78.976562 39.507812 78.90625 39.429688 78.871094 " fill-opacity="1" fill-rule="nonzero"/><path fill="#ffffff" d="M 55.433594 80.894531 L 55.542969 80.886719 C 55.636719 80.828125 55.699219 80.738281 55.726562 80.605469 L 55.671875 80.480469 L 55.644531 80.46875 C 55.511719 80.417969 55.378906 80.5 55.332031 80.613281 C 55.285156 80.726562 55.328125 80.84375 55.433594 80.894531 " fill-opacity="1" fill-rule="nonzero"/><path fill="#ffffff" d="M 90.992188 24.960938 C 91.035156 24.976562 91.078125 24.972656 91.121094 24.957031 C 91.191406 24.925781 91.226562 24.855469 91.242188 24.816406 L 91.128906 24.785156 L 91.132812 24.773438 L 91.242188 24.816406 C 91.289062 24.699219 91.253906 24.59375 91.164062 24.554688 L 91.121094 24.667969 C 91.117188 24.664062 91.121094 24.660156 91.121094 24.660156 C 91.078125 24.714844 91.015625 24.722656 91 24.824219 C 91.011719 24.84375 91.027344 24.839844 91.039062 24.84375 L 90.992188 24.960938 " fill-opacity="1" fill-rule="nonzero"/><path fill="#ffffff" d="M 80.058594 32.601562 L 80.109375 32.46875 L 80.113281 32.480469 C 80.144531 32.421875 80.203125 32.4375 80.21875 32.359375 C 80.207031 32.34375 80.191406 32.34375 80.179688 32.339844 L 80.230469 32.207031 C 80.125 32.164062 80.011719 32.222656 79.964844 32.34375 L 80.09375 32.394531 L 79.964844 32.34375 C 79.949219 32.382812 79.945312 32.425781 79.949219 32.464844 C 79.960938 32.527344 80.003906 32.578125 80.058594 32.601562 " fill-opacity="1" fill-rule="nonzero"/><path fill="#ffffff" d="M 103.804688 38.355469 L 103.957031 38.261719 C 103.960938 38.199219 103.980469 38.152344 103.996094 38.109375 C 104.015625 38.046875 104.039062 37.984375 104.011719 37.914062 L 103.816406 37.890625 C 103.804688 37.90625 103.785156 37.917969 103.761719 37.9375 C 103.703125 37.976562 103.628906 38.03125 103.59375 38.171875 L 103.664062 38.304688 L 103.804688 38.355469 " fill-opacity="1" fill-rule="nonzero"/><path fill="#ffffff" d="M 99.566406 54.761719 L 99.667969 54.765625 C 99.722656 54.742188 99.855469 54.617188 99.859375 54.492188 C 99.863281 54.425781 99.824219 54.363281 99.761719 54.332031 L 99.621094 54.363281 C 99.628906 54.351562 99.652344 54.34375 99.652344 54.34375 L 99.5 54.390625 C 99.375 54.628906 99.519531 54.734375 99.566406 54.761719 " fill-opacity="1" fill-rule="nonzero"/><path fill="#ffffff" d="M 93.21875 50.191406 L 93.226562 50.257812 C 93.265625 50.339844 93.335938 50.40625 93.417969 50.4375 C 93.546875 50.488281 93.691406 50.460938 93.804688 50.371094 L 93.851562 50.242188 L 93.8125 50.042969 L 93.710938 49.941406 L 93.664062 49.921875 C 93.421875 49.828125 93.300781 49.941406 93.25 50.015625 L 93.226562 50.078125 L 93.21875 50.191406 " fill-opacity="1" fill-rule="nonzero"/><path fill="#ffffff" d="M 98.542969 46.902344 L 98.605469 47.070312 C 98.648438 47.082031 98.726562 47.105469 98.792969 47.058594 C 98.839844 47.03125 98.863281 46.984375 98.875 46.925781 L 98.792969 46.796875 C 98.78125 46.792969 98.769531 46.789062 98.757812 46.785156 C 98.714844 46.769531 98.574219 46.722656 98.507812 46.84375 L 98.535156 46.917969 C 98.535156 46.910156 98.539062 46.90625 98.542969 46.902344 " fill-opacity="1" fill-rule="nonzero"/><path fill="#ffffff" d="M 105.277344 45.421875 C 105.277344 45.421875 105.261719 45.425781 105.234375 45.425781 L 105.429688 45.421875 C 105.46875 45.34375 105.476562 45.273438 105.453125 45.210938 C 105.4375 45.171875 105.398438 45.113281 105.308594 45.082031 L 105.28125 45.070312 L 105.140625 45.140625 C 105.128906 45.167969 105.113281 45.183594 105.082031 45.207031 L 105.113281 45.40625 C 105.191406 45.4375 105.242188 45.425781 105.277344 45.421875 " fill-opacity="1" fill-rule="nonzero"/><path fill="#ffffff" d="M 90.605469 58.265625 L 90.621094 58.414062 C 90.648438 58.433594 90.664062 58.457031 90.683594 58.480469 C 90.710938 58.511719 90.738281 58.546875 90.769531 58.574219 L 90.941406 58.546875 C 90.984375 58.472656 90.992188 58.378906 90.964844 58.296875 C 90.941406 58.234375 90.898438 58.1875 90.84375 58.167969 C 90.8125 58.15625 90.699219 58.125 90.605469 58.265625 " fill-opacity="1" fill-rule="nonzero"/><path fill="#ffffff" d="M 94.417969 55.320312 C 94.527344 55.367188 94.640625 55.320312 94.6875 55.214844 L 94.648438 55.074219 C 94.640625 55.070312 94.632812 55.058594 94.625 55.046875 C 94.601562 55.019531 94.566406 54.980469 94.5 54.953125 C 94.480469 54.945312 94.460938 54.941406 94.433594 54.9375 L 94.324219 54.984375 C 94.28125 55.050781 94.269531 55.121094 94.289062 55.1875 C 94.308594 55.25 94.355469 55.296875 94.417969 55.320312 " fill-opacity="1" fill-rule="nonzero"/><path fill="#ffffff" d="M 82.972656 27.097656 C 82.984375 27.144531 83.003906 27.222656 83.089844 27.269531 L 83.253906 27.210938 C 83.292969 27.101562 83.242188 26.886719 83.113281 26.839844 C 83.050781 26.8125 82.984375 26.832031 82.933594 26.886719 L 82.960938 27.0625 C 82.964844 27.066406 82.96875 27.082031 82.972656 27.097656 " fill-opacity="1" fill-rule="nonzero"/><path fill="#ffffff" d="M 79.140625 37.378906 L 79.140625 37.394531 C 79.046875 37.453125 78.925781 37.554688 78.914062 37.742188 C 78.90625 37.890625 78.980469 38.027344 79.109375 38.117188 L 79.277344 38.160156 L 79.417969 38.148438 L 79.523438 38.117188 L 79.566406 38.101562 C 79.675781 38.058594 79.875 37.984375 79.957031 37.765625 C 80.003906 37.632812 79.988281 37.488281 79.917969 37.351562 L 79.671875 37.214844 L 79.515625 37.222656 L 79.507812 37.191406 C 79.308594 37.195312 79.199219 37.296875 79.140625 37.378906 " fill-opacity="1" fill-rule="nonzero"/><path fill="#ffffff" d="M 87.636719 31.789062 L 87.65625 31.847656 C 87.675781 31.875 87.730469 31.96875 87.835938 32.011719 C 87.886719 32.03125 88.070312 32.078125 88.222656 31.875 L 88.246094 31.761719 L 88.183594 31.550781 C 88.167969 31.523438 88.117188 31.445312 88.011719 31.40625 L 87.960938 31.390625 L 87.859375 31.402344 L 87.734375 31.46875 L 87.675781 31.539062 L 87.640625 31.628906 L 87.628906 31.691406 L 87.636719 31.789062 " fill-opacity="1" fill-rule="nonzero"/><path fill="#ffffff" d="M 74.332031 46.566406 L 74.40625 46.625 C 74.640625 46.695312 74.785156 46.625 74.863281 46.550781 L 74.902344 46.484375 L 74.933594 46.359375 L 74.925781 46.277344 C 74.886719 46.179688 74.808594 46.101562 74.714844 46.066406 C 74.617188 46.027344 74.511719 46.035156 74.425781 46.082031 C 74.332031 46.128906 74.265625 46.21875 74.238281 46.335938 L 74.253906 46.433594 L 74.332031 46.566406 " fill-opacity="1" fill-rule="nonzero"/><path fill="#ffffff" d="M 79.824219 48.644531 C 79.84375 48.679688 79.871094 48.730469 79.933594 48.769531 L 80.039062 48.789062 L 80.226562 48.738281 C 80.25 48.726562 80.308594 48.699219 80.351562 48.636719 L 80.375 48.53125 L 80.320312 48.324219 C 80.304688 48.300781 80.277344 48.25 80.21875 48.210938 L 80.113281 48.191406 L 79.917969 48.242188 C 79.890625 48.253906 79.835938 48.285156 79.792969 48.351562 L 79.773438 48.457031 L 79.824219 48.644531 " fill-opacity="1" fill-rule="nonzero"/><path fill="#ffffff" d="M 84.496094 31.226562 C 84.511719 31.25 84.539062 31.300781 84.597656 31.339844 L 84.707031 31.359375 L 84.914062 31.300781 C 84.949219 31.28125 85.050781 31.21875 85.078125 31.066406 L 85.066406 30.976562 L 84.996094 30.851562 L 84.925781 30.792969 L 84.789062 30.738281 L 84.6875 30.742188 L 84.542969 30.804688 L 84.472656 30.878906 L 84.4375 30.96875 L 84.433594 31.0625 L 84.496094 31.226562 " fill-opacity="1" fill-rule="nonzero"/><path fill="#ffffff" d="M 76.820312 28.152344 C 76.824219 28.160156 76.820312 28.179688 76.816406 28.191406 C 76.808594 28.246094 76.792969 28.34375 76.878906 28.410156 L 77.054688 28.359375 C 77.066406 28.332031 77.078125 28.320312 77.113281 28.296875 L 77.105469 28.105469 C 77.097656 28.101562 77.082031 28.078125 77.070312 28.0625 C 77.039062 28.015625 77.003906 27.960938 76.941406 27.933594 C 76.917969 27.925781 76.828125 27.902344 76.75 27.996094 L 76.84375 28.183594 C 76.835938 28.179688 76.824219 28.164062 76.820312 28.152344 " fill-opacity="1" fill-rule="nonzero"/><path fill="#ffffff" d="M 69.175781 45.476562 C 69.300781 45.523438 69.421875 45.480469 69.46875 45.371094 L 69.414062 45.207031 C 69.398438 45.171875 69.378906 45.125 69.328125 45.085938 L 69.144531 45.128906 C 69.109375 45.144531 69.0625 45.160156 69.023438 45.210938 L 69.011719 45.320312 C 69.039062 45.386719 69.101562 45.445312 69.175781 45.476562 " fill-opacity="1" fill-rule="nonzero"/><path fill="#ffffff" d="M 74.371094 33.175781 C 74.417969 33.070312 74.375 32.949219 74.265625 32.902344 L 74.125 32.9375 C 74.121094 32.945312 74.113281 32.953125 74.101562 32.964844 C 74.066406 32.996094 74.007812 33.042969 73.992188 33.148438 L 74.039062 33.261719 C 74.167969 33.347656 74.320312 33.300781 74.371094 33.175781 " fill-opacity="1" fill-rule="nonzero"/><path fill="#ffffff" d="M 76.042969 37.570312 L 75.9375 37.65625 L 75.882812 37.757812 C 75.800781 37.953125 75.832031 38.097656 75.96875 38.191406 L 76.082031 38.207031 L 76.132812 38.191406 L 76.144531 38.203125 C 76.355469 38.25 76.453125 38.140625 76.492188 38.070312 L 76.511719 38.019531 L 76.523438 37.914062 C 76.542969 37.75 76.476562 37.621094 76.335938 37.566406 C 76.277344 37.546875 76.207031 37.539062 76.121094 37.539062 L 76.042969 37.570312 " fill-opacity="1" fill-rule="nonzero"/><path fill="#ffffff" d="M 76.746094 35.03125 L 76.859375 35.058594 L 77.035156 35.023438 L 77.128906 34.949219 C 77.167969 34.863281 77.246094 34.703125 77.183594 34.539062 C 77.148438 34.449219 77.074219 34.378906 76.980469 34.339844 C 76.960938 34.335938 76.9375 34.328125 76.914062 34.320312 L 76.8125 34.339844 L 76.679688 34.421875 L 76.621094 34.503906 C 76.597656 34.589844 76.539062 34.851562 76.746094 35.03125 " fill-opacity="1" fill-rule="nonzero"/><path fill="#ffffff" d="M 69.523438 36.050781 C 69.652344 35.925781 69.796875 35.796875 69.953125 35.714844 L 69.910156 35.503906 C 69.761719 35.492188 69.570312 35.574219 69.445312 35.707031 C 69.359375 35.792969 69.320312 35.890625 69.332031 35.984375 L 69.523438 36.050781 " fill-opacity="1" fill-rule="nonzero"/><path fill="#ffffff" d="M 71.882812 40.820312 L 72.042969 40.792969 C 72.046875 40.785156 72.054688 40.777344 72.066406 40.769531 C 72.101562 40.738281 72.160156 40.691406 72.179688 40.585938 L 72.121094 40.464844 C 72.101562 40.453125 72.082031 40.441406 72.058594 40.433594 C 71.925781 40.382812 71.808594 40.417969 71.746094 40.53125 L 71.796875 40.703125 C 71.8125 40.734375 71.832031 40.78125 71.882812 40.820312 " fill-opacity="1" fill-rule="nonzero"/><path fill="#ffffff" d="M 91.96875 38.746094 L 91.953125 38.75 C 91.960938 38.828125 91.992188 38.921875 92.050781 38.996094 L 92.046875 39.113281 L 92.097656 39.25 L 92.117188 39.292969 C 92.136719 39.324219 92.179688 39.402344 92.269531 39.460938 L 92.488281 39.496094 L 92.65625 39.445312 L 92.726562 39.414062 C 92.84375 39.339844 92.917969 39.234375 92.945312 39.101562 L 92.917969 38.917969 L 92.847656 38.792969 L 92.804688 38.753906 L 92.792969 38.578125 L 92.714844 38.425781 L 92.539062 38.289062 C 92.242188 38.183594 92.050781 38.3125 91.964844 38.472656 L 91.945312 38.683594 L 91.96875 38.746094 " fill-opacity="1" fill-rule="nonzero"/><path fill="#ffffff" d="M 93.414062 44.824219 C 93.507812 44.863281 93.609375 44.859375 93.683594 44.8125 C 93.757812 44.773438 93.8125 44.699219 93.828125 44.609375 L 93.8125 44.523438 L 93.773438 44.457031 L 93.753906 44.460938 L 93.726562 44.363281 L 93.644531 44.277344 L 93.554688 44.242188 L 93.488281 44.234375 L 93.378906 44.246094 L 93.316406 44.273438 C 93.21875 44.34375 93.171875 44.453125 93.1875 44.5625 C 93.203125 44.671875 93.289062 44.777344 93.414062 44.824219 " fill-opacity="1" fill-rule="nonzero"/><path fill="#ffffff" d="M 88.492188 47.59375 C 88.574219 47.625 88.667969 47.636719 88.761719 47.628906 L 88.894531 47.578125 L 88.992188 47.507812 L 89.078125 47.390625 L 89.167969 47.160156 L 89.164062 46.957031 L 89.101562 46.8125 L 88.953125 46.671875 L 88.679688 46.566406 L 88.472656 46.570312 L 88.328125 46.636719 L 88.1875 46.785156 C 88.058594 47.128906 88.1875 47.476562 88.492188 47.59375 " fill-opacity="1" fill-rule="nonzero"/><path fill="#ffffff" d="M 90.773438 40.957031 L 90.835938 41.074219 L 91.007812 41.210938 C 91.375 41.355469 91.617188 41.121094 91.703125 41.039062 L 91.738281 41.007812 L 91.824219 40.855469 L 91.847656 40.71875 L 91.816406 40.546875 C 91.75 40.425781 91.652344 40.335938 91.527344 40.289062 C 91.371094 40.230469 91.199219 40.242188 91.046875 40.328125 C 90.886719 40.425781 90.777344 40.59375 90.746094 40.792969 L 90.773438 40.957031 " fill-opacity="1" fill-rule="nonzero"/><path fill="#ffffff" d="M 98.925781 31.984375 L 99.117188 31.953125 L 99.222656 31.675781 L 99.101562 31.523438 C 99.003906 31.542969 98.9375 31.535156 98.871094 31.53125 C 98.792969 31.523438 98.710938 31.515625 98.597656 31.550781 L 98.523438 31.6875 C 98.554688 31.8125 98.648438 31.878906 98.78125 31.914062 C 98.835938 31.925781 98.890625 31.945312 98.925781 31.984375 " fill-opacity="1" fill-rule="nonzero"/><path fill="#ffffff" d="M 81.085938 54.636719 L 80.914062 54.679688 L 81.183594 54.882812 L 81.148438 54.710938 C 81.136719 54.691406 81.121094 54.660156 81.085938 54.636719 " fill-opacity="1" fill-rule="nonzero"/><path fill="#ffffff" d="M 85.992188 39.96875 L 85.84375 40.035156 L 85.703125 40.179688 L 85.667969 40.273438 L 85.667969 40.460938 L 85.734375 40.636719 C 85.753906 40.667969 85.796875 40.742188 85.886719 40.804688 L 86.101562 40.839844 L 86.269531 40.792969 L 86.347656 40.761719 C 86.390625 40.734375 86.527344 40.644531 86.566406 40.445312 L 86.539062 40.265625 L 86.46875 40.140625 L 86.332031 40.019531 L 86.191406 39.964844 L 85.992188 39.96875 " fill-opacity="1" fill-rule="nonzero"/><path fill="#ffffff" d="M 86.40625 37.054688 L 86.382812 37.171875 L 86.394531 37.320312 C 86.441406 37.441406 86.542969 37.535156 86.675781 37.589844 C 86.835938 37.648438 87.023438 37.640625 87.171875 37.558594 L 87.300781 37.414062 L 87.351562 37.273438 L 87.347656 37.082031 C 87.277344 36.921875 87.175781 36.8125 87.042969 36.761719 C 86.953125 36.726562 86.714844 36.671875 86.472656 36.921875 L 86.40625 37.054688 " fill-opacity="1" fill-rule="nonzero"/><path fill="#ffffff" d="M 90.546875 31.152344 C 90.59375 31.132812 90.628906 31.09375 90.648438 31.046875 L 90.550781 30.886719 C 90.542969 30.847656 90.523438 30.765625 90.425781 30.726562 C 90.40625 30.71875 90.382812 30.714844 90.359375 30.710938 L 90.253906 30.757812 C 90.207031 30.824219 90.191406 30.902344 90.210938 30.976562 C 90.253906 31.109375 90.425781 31.207031 90.546875 31.152344 " fill-opacity="1" fill-rule="nonzero"/><path fill="#ffffff" d="M 91.976562 33.265625 C 92.089844 33.308594 92.207031 33.296875 92.292969 33.234375 C 92.382812 33.167969 92.425781 33.0625 92.417969 32.945312 L 92.390625 32.878906 L 92.316406 32.78125 L 92.261719 32.742188 L 92.121094 32.6875 L 92.050781 32.679688 L 91.933594 32.703125 L 91.867188 32.734375 C 91.78125 32.8125 91.742188 32.921875 91.761719 33.027344 C 91.78125 33.132812 91.859375 33.222656 91.976562 33.265625 " fill-opacity="1" fill-rule="nonzero"/><path fill="#ffffff" d="M 100.273438 43.25 C 100.289062 43.257812 100.308594 43.265625 100.324219 43.273438 C 100.351562 43.28125 100.429688 43.3125 100.5 43.269531 C 100.550781 43.238281 100.578125 43.179688 100.582031 43.105469 L 100.574219 43.054688 C 100.542969 42.984375 100.492188 42.949219 100.460938 42.9375 C 100.335938 42.890625 100.222656 42.992188 100.171875 43.035156 L 100.234375 43.234375 C 100.246094 43.238281 100.257812 43.242188 100.273438 43.25 " fill-opacity="1" fill-rule="nonzero"/><path fill="#ffffff" d="M 83.191406 36.839844 L 83.28125 36.914062 L 83.414062 36.972656 C 83.660156 37.011719 83.832031 36.910156 83.960938 36.835938 L 84.066406 36.722656 L 84.125 36.613281 L 84.148438 36.460938 C 84.128906 36.269531 84.011719 36.117188 83.835938 36.046875 C 83.644531 35.972656 83.414062 36.019531 83.253906 36.171875 C 83.105469 36.3125 83.050781 36.523438 83.113281 36.71875 L 83.191406 36.839844 " fill-opacity="1" fill-rule="nonzero"/><path fill="#ffffff" d="M 84.371094 50.960938 L 84.371094 51.007812 L 84.414062 51.152344 L 84.476562 51.226562 C 84.496094 51.242188 84.519531 51.25 84.539062 51.261719 C 84.632812 51.296875 84.726562 51.292969 84.820312 51.253906 C 84.976562 51.175781 85.03125 51.007812 85.0625 50.914062 L 85.054688 50.820312 L 84.992188 50.683594 L 84.921875 50.613281 L 84.894531 50.601562 C 84.765625 50.554688 84.648438 50.546875 84.542969 50.582031 L 84.5 50.609375 L 84.4375 50.660156 L 84.40625 50.699219 C 84.347656 50.808594 84.359375 50.902344 84.367188 50.960938 L 84.371094 50.960938 " fill-opacity="1" fill-rule="nonzero"/><path fill="#ffffff" d="M 84.914062 42.339844 C 84.894531 42.296875 84.851562 42.191406 84.742188 42.109375 L 84.507812 42.066406 L 84.335938 42.117188 L 84.164062 42.273438 L 84.109375 42.414062 L 84.121094 42.632812 L 84.199219 42.78125 L 84.382812 42.921875 C 84.738281 43.046875 84.90625 42.820312 84.945312 42.746094 L 84.972656 42.542969 L 84.914062 42.339844 " fill-opacity="1" fill-rule="nonzero"/><path fill="#ffffff" d="M 68.023438 28.636719 C 68.046875 28.6875 68.082031 28.722656 68.128906 28.738281 L 68.171875 28.621094 C 68.183594 28.625 68.195312 28.640625 68.210938 28.632812 C 68.261719 28.605469 68.230469 28.488281 68.21875 28.476562 C 68.195312 28.457031 68.1875 28.464844 68.171875 28.460938 L 68.21875 28.34375 C 68.132812 28.308594 68.050781 28.347656 68.015625 28.433594 C 67.992188 28.492188 67.996094 28.570312 68.023438 28.636719 " fill-opacity="1" fill-rule="nonzero"/><path fill="#ffffff" d="M 77.863281 41.679688 L 77.875 41.855469 L 77.929688 41.984375 L 78.046875 42.113281 C 78.089844 42.132812 78.128906 42.152344 78.164062 42.164062 C 78.507812 42.300781 78.769531 42.167969 78.902344 42 L 78.960938 41.859375 L 78.96875 41.734375 L 78.941406 41.589844 C 78.875 41.46875 78.765625 41.371094 78.628906 41.316406 C 78.46875 41.253906 78.292969 41.261719 78.140625 41.335938 C 78.003906 41.40625 77.90625 41.527344 77.863281 41.679688 " fill-opacity="1" fill-rule="nonzero"/><path fill="#ffffff" d="M 96.753906 38.539062 C 96.765625 38.558594 96.796875 38.621094 96.867188 38.664062 L 96.972656 38.683594 L 97.164062 38.628906 C 97.199219 38.613281 97.246094 38.582031 97.289062 38.519531 L 97.304688 38.417969 L 97.253906 38.226562 C 97.246094 38.207031 97.214844 38.148438 97.148438 38.105469 L 97.042969 38.082031 L 96.847656 38.132812 C 96.820312 38.148438 96.765625 38.179688 96.722656 38.242188 L 96.703125 38.347656 L 96.753906 38.539062 " fill-opacity="1" fill-rule="nonzero"/><path fill="#ffffff" d="M 74.671875 52.097656 L 74.585938 52.09375 C 74.488281 52.132812 74.410156 52.246094 74.410156 52.355469 C 74.40625 52.441406 74.457031 52.515625 74.539062 52.550781 L 74.625 52.554688 C 74.71875 52.515625 74.796875 52.402344 74.796875 52.292969 C 74.800781 52.207031 74.753906 52.132812 74.671875 52.097656 " fill-opacity="1" fill-rule="nonzero"/><path fill="#ffffff" d="M 90.679688 54.125 L 90.789062 54.117188 C 90.882812 54.054688 90.941406 53.964844 90.972656 53.835938 L 90.917969 53.710938 L 90.890625 53.695312 C 90.753906 53.644531 90.625 53.730469 90.578125 53.839844 C 90.53125 53.953125 90.574219 54.074219 90.679688 54.125 " fill-opacity="1" fill-rule="nonzero"/></svg>