<svg xmlns="http://www.w3.org/2000/svg" xmlns:xlink="http://www.w3.org/1999/xlink" width="188" zoomAndPan="magnify" viewBox="0 0 141.12 141.750002" height="188" preserveAspectRatio="xMidYMid meet" version="1.0"><defs><clipPath id="d4b80163fb"><path d="M 18.675781 67 L 58 67 L 58 119 L 18.675781 119 Z M 18.675781 67 " clip-rule="nonzero"/></clipPath><clipPath id="a57715097e"><path d="M 80 11.332031 L 110 11.332031 L 110 50 L 80 50 Z M 80 11.332031 " clip-rule="nonzero"/></clipPath><clipPath id="cc125756f3"><path d="M 21 114 L 58 114 L 58 126.25 L 21 126.25 Z M 21 114 " clip-rule="nonzero"/></clipPath><clipPath id="93299f30bb"><path d="M 117 75 L 121.730469 75 L 121.730469 82 L 117 82 Z M 117 75 " clip-rule="nonzero"/></clipPath></defs><g clip-path="url(#d4b80163fb)"><path fill="#ffffff" d="M 37.765625 67.292969 C 37.140625 67.296875 36.519531 67.328125 35.894531 67.394531 C 35.273438 67.457031 34.65625 67.550781 34.042969 67.675781 C 33.429688 67.800781 32.824219 67.957031 32.226562 68.140625 C 31.628906 68.324219 31.042969 68.535156 30.46875 68.777344 C 29.890625 69.019531 29.328125 69.285156 28.777344 69.582031 C 28.226562 69.878906 27.691406 70.199219 27.171875 70.546875 C 26.65625 70.898438 26.15625 71.269531 25.671875 71.667969 C 25.191406 72.0625 24.730469 72.484375 24.289062 72.925781 C 23.847656 73.367188 23.429688 73.828125 23.035156 74.3125 C 22.640625 74.792969 22.269531 75.296875 21.925781 75.8125 C 21.578125 76.332031 21.257812 76.867188 20.964844 77.417969 C 20.671875 77.96875 20.40625 78.53125 20.167969 79.105469 C 19.933594 79.683594 19.722656 80.269531 19.542969 80.863281 C 19.363281 81.460938 19.210938 82.066406 19.09375 82.675781 C 18.972656 83.289062 18.882812 83.902344 18.820312 84.523438 C 18.761719 85.140625 18.730469 85.765625 18.734375 86.386719 C 18.734375 99.390625 29.652344 111.667969 35.011719 116.910156 C 35.398438 117.289062 35.84375 117.578125 36.34375 117.785156 C 36.84375 117.988281 37.367188 118.089844 37.910156 118.089844 C 38.449219 118.089844 38.972656 117.988281 39.472656 117.785156 C 39.972656 117.578125 40.417969 117.289062 40.804688 116.910156 C 46.164062 111.667969 57.085938 99.390625 57.085938 86.386719 C 57.085938 85.757812 57.054688 85.132812 56.992188 84.507812 C 56.929688 83.878906 56.839844 83.261719 56.714844 82.644531 C 56.589844 82.027344 56.4375 81.417969 56.253906 80.816406 C 56.070312 80.21875 55.855469 79.625 55.613281 79.046875 C 55.371094 78.464844 55.101562 77.898438 54.800781 77.347656 C 54.503906 76.792969 54.175781 76.253906 53.824219 75.734375 C 53.472656 75.210938 53.097656 74.710938 52.695312 74.222656 C 52.292969 73.738281 51.867188 73.277344 51.417969 72.832031 C 50.972656 72.390625 50.503906 71.972656 50.015625 71.574219 C 49.523438 71.179688 49.015625 70.808594 48.488281 70.460938 C 47.964844 70.113281 47.421875 69.792969 46.863281 69.5 C 46.304688 69.207031 45.734375 68.941406 45.148438 68.703125 C 44.566406 68.46875 43.972656 68.257812 43.367188 68.082031 C 42.761719 67.902344 42.148438 67.753906 41.527344 67.632812 C 40.910156 67.515625 40.285156 67.429688 39.65625 67.371094 C 39.027344 67.3125 38.398438 67.289062 37.765625 67.292969 Z M 37.910156 94.984375 C 37.347656 94.984375 36.796875 94.929688 36.246094 94.820312 C 35.699219 94.710938 35.164062 94.550781 34.648438 94.339844 C 34.132812 94.125 33.640625 93.863281 33.175781 93.554688 C 32.710938 93.246094 32.28125 92.894531 31.886719 92.5 C 31.488281 92.105469 31.136719 91.675781 30.824219 91.214844 C 30.515625 90.75 30.253906 90.261719 30.039062 89.75 C 29.824219 89.234375 29.664062 88.703125 29.554688 88.15625 C 29.445312 87.609375 29.390625 87.058594 29.390625 86.503906 C 29.390625 85.945312 29.445312 85.394531 29.554688 84.847656 C 29.664062 84.300781 29.824219 83.769531 30.039062 83.257812 C 30.253906 82.742188 30.515625 82.253906 30.824219 81.789062 C 31.136719 81.328125 31.488281 80.898438 31.886719 80.503906 C 32.28125 80.109375 32.710938 79.757812 33.175781 79.449219 C 33.640625 79.140625 34.132812 78.878906 34.648438 78.667969 C 35.164062 78.453125 35.699219 78.292969 36.246094 78.183594 C 36.796875 78.074219 37.347656 78.019531 37.910156 78.019531 C 38.46875 78.019531 39.023438 78.074219 39.570312 78.183594 C 40.117188 78.292969 40.652344 78.453125 41.167969 78.667969 C 41.683594 78.878906 42.175781 79.140625 42.640625 79.449219 C 43.105469 79.757812 43.535156 80.109375 43.933594 80.503906 C 44.328125 80.898438 44.679688 81.328125 44.992188 81.789062 C 45.300781 82.253906 45.566406 82.742188 45.777344 83.257812 C 45.992188 83.769531 46.15625 84.300781 46.261719 84.847656 C 46.371094 85.394531 46.425781 85.945312 46.425781 86.503906 C 46.425781 87.058594 46.371094 87.609375 46.261719 88.15625 C 46.15625 88.703125 45.992188 89.234375 45.777344 89.75 C 45.566406 90.261719 45.300781 90.75 44.992188 91.214844 C 44.679688 91.675781 44.328125 92.105469 43.933594 92.5 C 43.535156 92.894531 43.105469 93.246094 42.640625 93.554688 C 42.175781 93.863281 41.683594 94.125 41.167969 94.339844 C 40.652344 94.550781 40.117188 94.710938 39.570312 94.820312 C 39.023438 94.929688 38.46875 94.984375 37.910156 94.984375 Z M 37.910156 94.984375 " fill-opacity="1" fill-rule="nonzero"/></g><g clip-path="url(#a57715097e)"><path fill="#ffffff" d="M 94.945312 11.589844 C 93.988281 11.632812 93.039062 11.765625 92.105469 11.996094 C 91.171875 12.222656 90.269531 12.535156 89.398438 12.9375 C 88.527344 13.339844 87.703125 13.820312 86.921875 14.382812 C 86.144531 14.945312 85.429688 15.578125 84.777344 16.277344 C 84.121094 16.976562 83.539062 17.734375 83.035156 18.546875 C 82.527344 19.359375 82.105469 20.214844 81.765625 21.109375 C 81.425781 22.003906 81.175781 22.925781 81.019531 23.867188 C 80.859375 24.8125 80.792969 25.761719 80.816406 26.71875 C 81.136719 35.769531 88.234375 44.269531 92.398438 48.5 C 92.589844 48.699219 92.800781 48.875 93.027344 49.03125 C 93.253906 49.183594 93.496094 49.316406 93.746094 49.425781 C 94 49.53125 94.261719 49.613281 94.53125 49.667969 C 94.800781 49.722656 95.074219 49.753906 95.351562 49.753906 C 95.625 49.757812 95.898438 49.730469 96.167969 49.679688 C 96.4375 49.625 96.699219 49.546875 96.957031 49.441406 C 97.210938 49.335938 97.453125 49.207031 97.679688 49.054688 C 97.910156 48.902344 98.121094 48.730469 98.316406 48.535156 C 102.5625 44.207031 109.929688 35.378906 109.929688 26.070312 C 109.929688 25.585938 109.902344 25.105469 109.855469 24.625 C 109.804688 24.144531 109.734375 23.664062 109.636719 23.191406 C 109.539062 22.71875 109.417969 22.25 109.273438 21.789062 C 109.132812 21.328125 108.964844 20.875 108.773438 20.429688 C 108.585938 19.984375 108.375 19.550781 108.140625 19.125 C 107.910156 18.703125 107.65625 18.289062 107.382812 17.890625 C 107.105469 17.492188 106.8125 17.109375 106.5 16.738281 C 106.1875 16.371094 105.855469 16.015625 105.507812 15.679688 C 105.160156 15.34375 104.796875 15.023438 104.414062 14.722656 C 104.035156 14.425781 103.640625 14.144531 103.234375 13.882812 C 102.824219 13.621094 102.402344 13.378906 101.972656 13.160156 C 101.539062 12.941406 101.097656 12.746094 100.644531 12.570312 C 100.191406 12.394531 99.730469 12.242188 99.261719 12.113281 C 98.796875 11.984375 98.324219 11.878906 97.84375 11.796875 C 97.367188 11.710938 96.886719 11.65625 96.402344 11.621094 C 95.917969 11.585938 95.433594 11.574219 94.945312 11.589844 Z M 95.363281 32.617188 C 94.9375 32.617188 94.515625 32.578125 94.101562 32.492188 C 93.683594 32.410156 93.277344 32.289062 92.886719 32.128906 C 92.492188 31.964844 92.121094 31.765625 91.765625 31.53125 C 91.414062 31.296875 91.085938 31.03125 90.785156 30.730469 C 90.488281 30.433594 90.21875 30.105469 89.980469 29.753906 C 89.746094 29.402344 89.546875 29.03125 89.382812 28.640625 C 89.222656 28.25 89.097656 27.847656 89.015625 27.433594 C 88.933594 27.015625 88.890625 26.597656 88.890625 26.175781 C 88.890625 25.753906 88.933594 25.332031 89.015625 24.917969 C 89.097656 24.503906 89.222656 24.101562 89.382812 23.710938 C 89.546875 23.320312 89.746094 22.949219 89.984375 22.597656 C 90.21875 22.246094 90.488281 21.917969 90.785156 21.621094 C 91.085938 21.320312 91.414062 21.054688 91.765625 20.820312 C 92.121094 20.585938 92.492188 20.386719 92.886719 20.222656 C 93.277344 20.0625 93.683594 19.941406 94.101562 19.855469 C 94.515625 19.773438 94.9375 19.734375 95.363281 19.734375 C 95.785156 19.734375 96.207031 19.773438 96.625 19.855469 C 97.039062 19.941406 97.445312 20.0625 97.839844 20.222656 C 98.230469 20.386719 98.601562 20.585938 98.957031 20.820312 C 99.308594 21.054688 99.636719 21.320312 99.9375 21.621094 C 100.238281 21.917969 100.503906 22.246094 100.742188 22.597656 C 100.976562 22.949219 101.175781 23.320312 101.339844 23.710938 C 101.503906 24.101562 101.625 24.503906 101.707031 24.917969 C 101.789062 25.332031 101.832031 25.753906 101.832031 26.175781 C 101.832031 26.597656 101.789062 27.015625 101.707031 27.429688 C 101.625 27.84375 101.5 28.246094 101.335938 28.636719 C 101.175781 29.027344 100.976562 29.398438 100.738281 29.75 C 100.503906 30.101562 100.234375 30.425781 99.933594 30.726562 C 99.632812 31.023438 99.308594 31.289062 98.953125 31.527344 C 98.601562 31.761719 98.226562 31.957031 97.835938 32.121094 C 97.445312 32.28125 97.039062 32.402344 96.625 32.484375 C 96.207031 32.566406 95.785156 32.609375 95.363281 32.609375 Z M 95.363281 32.617188 " fill-opacity="1" fill-rule="nonzero"/></g><path fill="#ffffff" d="M 76.941406 87.738281 C 77.160156 87.902344 77.339844 88.105469 77.476562 88.34375 C 77.613281 88.578125 77.703125 88.832031 77.738281 89.105469 C 77.777344 89.375 77.757812 89.644531 77.6875 89.910156 C 77.617188 90.175781 77.5 90.414062 77.332031 90.632812 C 77.011719 91.054688 76.742188 91.507812 76.523438 91.992188 C 76.410156 92.242188 76.253906 92.460938 76.054688 92.648438 C 75.855469 92.835938 75.628906 92.976562 75.371094 93.078125 C 75.117188 93.175781 74.851562 93.222656 74.574219 93.21875 C 74.300781 93.214844 74.039062 93.160156 73.785156 93.050781 C 73.53125 92.941406 73.3125 92.785156 73.121094 92.589844 C 72.929688 92.390625 72.785156 92.164062 72.6875 91.90625 C 72.585938 91.652344 72.539062 91.386719 72.546875 91.113281 C 72.554688 90.839844 72.613281 90.578125 72.722656 90.324219 C 73.070312 89.542969 73.507812 88.808594 74.027344 88.125 C 74.195312 87.90625 74.398438 87.730469 74.636719 87.59375 C 74.875 87.453125 75.128906 87.367188 75.402344 87.332031 C 75.675781 87.292969 75.945312 87.3125 76.210938 87.382812 C 76.480469 87.453125 76.722656 87.570312 76.941406 87.738281 Z M 76.941406 87.738281 " fill-opacity="1" fill-rule="nonzero"/><path fill="#ffffff" d="M 63.421875 56.457031 C 63.222656 56.269531 63.066406 56.046875 62.957031 55.796875 C 62.84375 55.546875 62.785156 55.285156 62.78125 55.011719 C 62.773438 54.734375 62.820312 54.472656 62.921875 54.214844 C 63.019531 53.960938 63.164062 53.734375 63.355469 53.535156 C 63.957031 52.90625 64.632812 52.359375 65.378906 51.902344 C 65.613281 51.746094 65.867188 51.640625 66.144531 51.589844 C 66.421875 51.535156 66.699219 51.539062 66.976562 51.597656 C 67.25 51.660156 67.503906 51.769531 67.734375 51.929688 C 67.964844 52.09375 68.152344 52.292969 68.300781 52.53125 C 68.449219 52.773438 68.546875 53.03125 68.589844 53.308594 C 68.632812 53.585938 68.617188 53.859375 68.546875 54.132812 C 68.476562 54.40625 68.359375 54.652344 68.1875 54.875 C 68.015625 55.097656 67.808594 55.28125 67.5625 55.417969 C 67.121094 55.691406 66.71875 56.015625 66.359375 56.390625 C 66.171875 56.589844 65.949219 56.742188 65.699219 56.851562 C 65.445312 56.964844 65.179688 57.023438 64.90625 57.027344 C 64.628906 57.035156 64.363281 56.988281 64.105469 56.890625 C 63.851562 56.789062 63.621094 56.644531 63.421875 56.457031 Z M 63.421875 56.457031 " fill-opacity="1" fill-rule="nonzero"/><path fill="#ffffff" d="M 70.410156 52.449219 C 70.410156 52.175781 70.464844 51.910156 70.570312 51.65625 C 70.675781 51.402344 70.824219 51.179688 71.019531 50.984375 C 71.214844 50.792969 71.4375 50.640625 71.691406 50.539062 C 71.949219 50.433594 72.210938 50.378906 72.488281 50.378906 L 74.566406 50.378906 C 74.839844 50.378906 75.105469 50.433594 75.359375 50.539062 C 75.617188 50.640625 75.839844 50.792969 76.035156 50.984375 C 76.230469 51.179688 76.378906 51.402344 76.484375 51.65625 C 76.589844 51.910156 76.644531 52.175781 76.644531 52.449219 C 76.644531 52.722656 76.589844 52.988281 76.484375 53.242188 C 76.378906 53.492188 76.230469 53.71875 76.035156 53.910156 C 75.839844 54.105469 75.617188 54.253906 75.359375 54.359375 C 75.105469 54.464844 74.839844 54.515625 74.566406 54.515625 L 72.488281 54.515625 C 72.210938 54.515625 71.949219 54.464844 71.691406 54.359375 C 71.4375 54.253906 71.214844 54.105469 71.019531 53.910156 C 70.824219 53.71875 70.675781 53.492188 70.570312 53.242188 C 70.464844 52.988281 70.410156 52.722656 70.410156 52.449219 Z M 70.410156 52.449219 " fill-opacity="1" fill-rule="nonzero"/><path fill="#ffffff" d="M 79.835938 52.449219 C 79.835938 52.175781 79.890625 51.910156 79.996094 51.65625 C 80.101562 51.402344 80.25 51.179688 80.445312 50.984375 C 80.640625 50.792969 80.867188 50.640625 81.121094 50.539062 C 81.375 50.433594 81.640625 50.378906 81.914062 50.378906 L 82.757812 50.378906 C 83.566406 49.101562 84.699219 48.238281 86.148438 47.792969 C 87.316406 49.179688 88.433594 50.398438 89.417969 51.394531 C 89.804688 51.785156 90.226562 52.136719 90.679688 52.445312 C 91.136719 52.757812 91.617188 53.019531 92.125 53.230469 C 92.632812 53.445312 93.15625 53.609375 93.695312 53.71875 C 94.238281 53.828125 94.78125 53.882812 95.332031 53.886719 C 95.882812 53.886719 96.429688 53.835938 96.972656 53.726562 C 97.511719 53.621094 98.039062 53.460938 98.546875 53.253906 C 99.054688 53.042969 99.539062 52.78125 99.996094 52.476562 C 100.453125 52.167969 100.875 51.820312 101.261719 51.429688 C 102.257812 50.421875 103.394531 49.191406 104.570312 47.792969 C 106.800781 48.699219 108.175781 49.933594 108.175781 51.292969 C 108.175781 54.078125 102.4375 56.335938 95.355469 56.335938 C 91.941406 56.425781 88.660156 55.820312 85.503906 54.523438 L 81.914062 54.523438 C 81.640625 54.523438 81.375 54.46875 81.117188 54.363281 C 80.863281 54.257812 80.640625 54.109375 80.445312 53.914062 C 80.25 53.71875 80.097656 53.496094 79.996094 53.242188 C 79.890625 52.988281 79.835938 52.722656 79.835938 52.449219 Z M 79.835938 52.449219 " fill-opacity="1" fill-rule="nonzero"/><path fill="#ffffff" d="M 60.835938 63.160156 C 60.617188 62.316406 60.507812 61.460938 60.507812 60.59375 C 60.507812 60.320312 60.5625 60.054688 60.667969 59.800781 C 60.773438 59.546875 60.921875 59.324219 61.117188 59.128906 C 61.3125 58.9375 61.535156 58.785156 61.789062 58.683594 C 62.046875 58.578125 62.308594 58.523438 62.585938 58.523438 C 62.859375 58.523438 63.125 58.578125 63.382812 58.683594 C 63.636719 58.785156 63.859375 58.9375 64.054688 59.128906 C 64.25 59.324219 64.398438 59.546875 64.503906 59.800781 C 64.609375 60.054688 64.664062 60.320312 64.664062 60.59375 C 64.664062 61.109375 64.726562 61.621094 64.855469 62.121094 C 64.894531 62.273438 64.914062 62.429688 64.917969 62.585938 C 64.921875 62.742188 64.90625 62.898438 64.871094 63.050781 C 64.839844 63.207031 64.789062 63.355469 64.722656 63.496094 C 64.65625 63.640625 64.578125 63.773438 64.480469 63.898438 C 64.382812 64.023438 64.273438 64.136719 64.152344 64.234375 C 64.027344 64.335938 63.898438 64.417969 63.753906 64.488281 C 63.613281 64.558594 63.464844 64.613281 63.3125 64.648438 C 63.160156 64.6875 63.003906 64.707031 62.84375 64.707031 C 62.375 64.699219 61.953125 64.554688 61.582031 64.265625 C 61.210938 63.980469 60.960938 63.609375 60.835938 63.160156 Z M 60.835938 63.160156 " fill-opacity="1" fill-rule="nonzero"/><path fill="#ffffff" d="M 67.558594 65.761719 C 68 66.03125 68.472656 66.246094 68.96875 66.398438 C 69.207031 66.472656 69.425781 66.585938 69.621094 66.738281 C 69.816406 66.886719 69.984375 67.066406 70.113281 67.277344 C 70.246094 67.484375 70.335938 67.710938 70.386719 67.953125 C 70.4375 68.195312 70.445312 68.4375 70.410156 68.683594 C 70.371094 68.929688 70.292969 69.160156 70.171875 69.375 C 70.054688 69.589844 69.898438 69.78125 69.710938 69.941406 C 69.523438 70.105469 69.3125 70.226562 69.082031 70.3125 C 68.847656 70.402344 68.609375 70.445312 68.359375 70.445312 C 67.265625 70.3125 66.269531 69.925781 65.378906 69.28125 C 65.132812 69.144531 64.921875 68.964844 64.746094 68.742188 C 64.574219 68.515625 64.453125 68.269531 64.382812 67.996094 C 64.308594 67.722656 64.296875 67.445312 64.339844 67.167969 C 64.378906 66.890625 64.476562 66.628906 64.625 66.390625 C 64.773438 66.148438 64.964844 65.949219 65.195312 65.785156 C 65.425781 65.625 65.679688 65.511719 65.957031 65.453125 C 66.234375 65.394531 66.511719 65.390625 66.792969 65.445312 C 67.070312 65.5 67.324219 65.605469 67.558594 65.765625 Z M 67.558594 65.761719 " fill-opacity="1" fill-rule="nonzero"/><path fill="#ffffff" d="M 74.566406 120.460938 C 74.566406 120.738281 74.511719 121 74.40625 121.253906 C 74.300781 121.507812 74.152344 121.730469 73.957031 121.925781 C 73.761719 122.121094 73.539062 122.269531 73.285156 122.375 C 73.027344 122.480469 72.765625 122.53125 72.488281 122.53125 L 70.410156 122.53125 C 70.136719 122.53125 69.871094 122.480469 69.617188 122.375 C 69.359375 122.269531 69.136719 122.121094 68.941406 121.925781 C 68.746094 121.730469 68.597656 121.507812 68.492188 121.253906 C 68.386719 121 68.332031 120.738281 68.332031 120.460938 C 68.332031 120.1875 68.386719 119.925781 68.492188 119.671875 C 68.597656 119.417969 68.746094 119.195312 68.941406 119 C 69.136719 118.804688 69.359375 118.65625 69.617188 118.550781 C 69.871094 118.445312 70.136719 118.394531 70.410156 118.394531 L 72.488281 118.394531 C 72.765625 118.394531 73.027344 118.445312 73.285156 118.550781 C 73.539062 118.65625 73.761719 118.804688 73.957031 119 C 74.152344 119.195312 74.300781 119.417969 74.40625 119.671875 C 74.511719 119.925781 74.566406 120.1875 74.566406 120.460938 Z M 74.566406 120.460938 " fill-opacity="1" fill-rule="nonzero"/><path fill="#ffffff" d="M 66.234375 120.460938 C 66.234375 120.738281 66.179688 121 66.074219 121.253906 C 65.96875 121.507812 65.820312 121.730469 65.625 121.925781 C 65.429688 122.121094 65.207031 122.269531 64.953125 122.375 C 64.695312 122.480469 64.433594 122.53125 64.15625 122.53125 L 62.078125 122.53125 C 61.804688 122.53125 61.539062 122.480469 61.285156 122.375 C 61.027344 122.269531 60.804688 122.121094 60.609375 121.925781 C 60.414062 121.730469 60.265625 121.507812 60.160156 121.253906 C 60.054688 121 60 120.738281 60 120.460938 C 60 120.1875 60.054688 119.925781 60.160156 119.671875 C 60.265625 119.417969 60.414062 119.195312 60.609375 119 C 60.804688 118.804688 61.027344 118.65625 61.285156 118.550781 C 61.539062 118.445312 61.804688 118.394531 62.078125 118.394531 L 64.15625 118.394531 C 64.433594 118.394531 64.695312 118.445312 64.953125 118.550781 C 65.207031 118.65625 65.429688 118.804688 65.625 119 C 65.820312 119.195312 65.96875 119.417969 66.074219 119.671875 C 66.179688 119.925781 66.234375 120.1875 66.234375 120.460938 Z M 66.234375 120.460938 " fill-opacity="1" fill-rule="nonzero"/><g clip-path="url(#cc125756f3)"><path fill="#ffffff" d="M 57.792969 120.460938 C 57.792969 120.738281 57.738281 121 57.632812 121.253906 C 57.527344 121.507812 57.378906 121.730469 57.183594 121.925781 C 56.988281 122.121094 56.765625 122.269531 56.511719 122.375 C 56.253906 122.480469 55.988281 122.53125 55.714844 122.53125 L 53.011719 122.53125 C 50.246094 124.710938 44.535156 126.210938 37.917969 126.210938 C 28.59375 126.210938 21.035156 123.242188 21.035156 119.574219 C 21.035156 117.53125 23.390625 115.703125 27.089844 114.484375 C 28.871094 116.570312 30.605469 118.394531 32.109375 119.863281 C 32.492188 120.238281 32.90625 120.574219 33.359375 120.871094 C 33.808594 121.164062 34.28125 121.414062 34.777344 121.617188 C 35.277344 121.820312 35.789062 121.972656 36.316406 122.074219 C 36.847656 122.179688 37.378906 122.230469 37.917969 122.230469 C 38.453125 122.230469 38.988281 122.179688 39.515625 122.074219 C 40.042969 121.972656 40.558594 121.820312 41.054688 121.617188 C 41.554688 121.414062 42.027344 121.164062 42.476562 120.871094 C 42.925781 120.574219 43.34375 120.238281 43.726562 119.863281 C 45.226562 118.394531 46.964844 116.574219 48.746094 114.484375 C 49.921875 114.742188 51.011719 115.210938 52.007812 115.886719 C 53.003906 116.5625 53.835938 117.398438 54.507812 118.394531 L 55.726562 118.394531 C 56 118.398438 56.261719 118.449219 56.515625 118.554688 C 56.769531 118.660156 56.992188 118.8125 57.1875 119.003906 C 57.378906 119.199219 57.53125 119.421875 57.632812 119.675781 C 57.738281 119.925781 57.792969 120.191406 57.792969 120.460938 Z M 57.792969 120.460938 " fill-opacity="1" fill-rule="nonzero"/></g><path fill="#ffffff" d="M 101.621094 70.804688 L 99.542969 70.804688 C 99.269531 70.804688 99.003906 70.753906 98.75 70.648438 C 98.496094 70.542969 98.269531 70.394531 98.074219 70.199219 C 97.878906 70.003906 97.730469 69.78125 97.625 69.527344 C 97.519531 69.273438 97.46875 69.011719 97.46875 68.734375 C 97.46875 68.460938 97.519531 68.199219 97.625 67.945312 C 97.730469 67.691406 97.878906 67.46875 98.074219 67.273438 C 98.269531 67.078125 98.496094 66.929688 98.75 66.824219 C 99.003906 66.71875 99.269531 66.667969 99.542969 66.667969 L 101.621094 66.667969 C 101.898438 66.667969 102.164062 66.71875 102.417969 66.824219 C 102.671875 66.929688 102.898438 67.078125 103.089844 67.273438 C 103.285156 67.46875 103.4375 67.691406 103.542969 67.945312 C 103.648438 68.199219 103.699219 68.460938 103.699219 68.734375 C 103.699219 69.011719 103.648438 69.273438 103.542969 69.527344 C 103.4375 69.78125 103.285156 70.003906 103.089844 70.199219 C 102.898438 70.394531 102.671875 70.542969 102.417969 70.648438 C 102.164062 70.753906 101.898438 70.804688 101.621094 70.804688 Z M 101.621094 70.804688 " fill-opacity="1" fill-rule="nonzero"/><path fill="#ffffff" d="M 101.652344 85.953125 C 101.652344 86.226562 101.597656 86.492188 101.492188 86.746094 C 101.386719 87 101.238281 87.222656 101.042969 87.417969 C 100.847656 87.609375 100.625 87.761719 100.367188 87.867188 C 100.113281 87.96875 99.847656 88.023438 99.574219 88.023438 L 97.496094 88.023438 C 97.21875 88.023438 96.957031 87.96875 96.699219 87.867188 C 96.445312 87.761719 96.222656 87.609375 96.027344 87.417969 C 95.832031 87.222656 95.683594 87 95.578125 86.746094 C 95.472656 86.492188 95.417969 86.226562 95.417969 85.953125 C 95.417969 85.679688 95.472656 85.414062 95.578125 85.164062 C 95.683594 84.910156 95.832031 84.683594 96.027344 84.492188 C 96.222656 84.296875 96.445312 84.148438 96.699219 84.042969 C 96.957031 83.9375 97.21875 83.886719 97.496094 83.886719 L 99.574219 83.886719 C 99.847656 83.886719 100.113281 83.9375 100.367188 84.042969 C 100.625 84.148438 100.847656 84.296875 101.042969 84.492188 C 101.238281 84.683594 101.386719 84.910156 101.492188 85.164062 C 101.597656 85.414062 101.652344 85.679688 101.652344 85.953125 Z M 101.652344 85.953125 " fill-opacity="1" fill-rule="nonzero"/><path fill="#ffffff" d="M 74.566406 66.667969 L 76.644531 66.667969 C 76.917969 66.667969 77.183594 66.71875 77.4375 66.824219 C 77.695312 66.929688 77.917969 67.078125 78.113281 67.273438 C 78.308594 67.46875 78.457031 67.691406 78.5625 67.945312 C 78.667969 68.199219 78.722656 68.460938 78.722656 68.734375 C 78.722656 69.011719 78.667969 69.273438 78.5625 69.527344 C 78.457031 69.78125 78.308594 70.003906 78.113281 70.199219 C 77.917969 70.394531 77.695312 70.542969 77.4375 70.648438 C 77.183594 70.753906 76.917969 70.804688 76.644531 70.804688 L 74.566406 70.804688 C 74.289062 70.804688 74.027344 70.753906 73.769531 70.648438 C 73.515625 70.542969 73.292969 70.394531 73.097656 70.199219 C 72.902344 70.003906 72.75 69.78125 72.644531 69.527344 C 72.539062 69.273438 72.488281 69.011719 72.488281 68.734375 C 72.488281 68.460938 72.539062 68.199219 72.644531 67.945312 C 72.75 67.691406 72.902344 67.46875 73.097656 67.273438 C 73.292969 67.078125 73.515625 66.929688 73.769531 66.824219 C 74.027344 66.71875 74.289062 66.667969 74.566406 66.667969 Z M 74.566406 66.667969 " fill-opacity="1" fill-rule="nonzero"/><path fill="#ffffff" d="M 114.691406 71.96875 C 114.464844 71.8125 114.277344 71.621094 114.128906 71.390625 C 113.980469 71.160156 113.878906 70.90625 113.832031 70.636719 C 113.78125 70.367188 113.785156 70.097656 113.84375 69.832031 C 113.902344 69.5625 114.011719 69.316406 114.167969 69.089844 C 114.324219 68.863281 114.519531 68.675781 114.75 68.527344 C 114.980469 68.378906 115.234375 68.28125 115.503906 68.230469 C 115.777344 68.183594 116.046875 68.1875 116.316406 68.246094 C 116.585938 68.304688 116.832031 68.410156 117.058594 68.566406 C 117.769531 69.054688 118.410156 69.625 118.984375 70.269531 C 119.167969 70.472656 119.304688 70.707031 119.394531 70.964844 C 119.484375 71.226562 119.519531 71.492188 119.503906 71.765625 C 119.484375 72.039062 119.417969 72.300781 119.296875 72.546875 C 119.175781 72.792969 119.011719 73.007812 118.804688 73.191406 C 118.59375 73.363281 118.359375 73.492188 118.101562 73.578125 C 117.84375 73.660156 117.578125 73.695312 117.304688 73.679688 C 117.03125 73.660156 116.773438 73.597656 116.523438 73.480469 C 116.277344 73.367188 116.0625 73.210938 115.875 73.011719 C 115.5 72.640625 115.109375 72.292969 114.691406 71.96875 Z M 114.691406 71.96875 " fill-opacity="1" fill-rule="nonzero"/><path fill="#ffffff" d="M 84.972656 66.667969 C 85.246094 66.667969 85.511719 66.71875 85.765625 66.824219 C 86.019531 66.929688 86.246094 67.078125 86.441406 67.273438 C 86.636719 67.46875 86.785156 67.691406 86.890625 67.945312 C 86.996094 68.199219 87.050781 68.460938 87.050781 68.734375 C 87.050781 69.011719 86.996094 69.273438 86.890625 69.527344 C 86.785156 69.78125 86.636719 70.003906 86.441406 70.199219 C 86.246094 70.394531 86.019531 70.542969 85.765625 70.648438 C 85.511719 70.753906 85.246094 70.804688 84.972656 70.804688 L 82.894531 70.804688 C 82.617188 70.804688 82.351562 70.753906 82.097656 70.648438 C 81.84375 70.542969 81.621094 70.394531 81.425781 70.199219 C 81.230469 70.003906 81.078125 69.78125 80.972656 69.527344 C 80.867188 69.273438 80.816406 69.011719 80.816406 68.734375 C 80.816406 68.460938 80.867188 68.199219 80.972656 67.945312 C 81.078125 67.691406 81.230469 67.46875 81.425781 67.273438 C 81.621094 67.078125 81.84375 66.929688 82.097656 66.824219 C 82.351562 66.71875 82.617188 66.667969 82.894531 66.667969 Z M 84.972656 66.667969 " fill-opacity="1" fill-rule="nonzero"/><path fill="#ffffff" d="M 95.375 68.734375 C 95.375 69.011719 95.320312 69.273438 95.214844 69.527344 C 95.109375 69.78125 94.960938 70.003906 94.765625 70.199219 C 94.570312 70.394531 94.347656 70.542969 94.09375 70.648438 C 93.835938 70.753906 93.574219 70.804688 93.296875 70.804688 L 91.21875 70.804688 C 90.945312 70.804688 90.679688 70.753906 90.425781 70.648438 C 90.167969 70.542969 89.945312 70.394531 89.75 70.199219 C 89.554688 70.003906 89.40625 69.78125 89.300781 69.527344 C 89.195312 69.273438 89.140625 69.011719 89.140625 68.734375 C 89.140625 68.460938 89.195312 68.199219 89.300781 67.945312 C 89.40625 67.691406 89.554688 67.46875 89.75 67.273438 C 89.945312 67.078125 90.167969 66.929688 90.425781 66.824219 C 90.679688 66.71875 90.945312 66.667969 91.21875 66.667969 L 93.296875 66.667969 C 93.574219 66.667969 93.835938 66.71875 94.09375 66.824219 C 94.347656 66.929688 94.570312 67.078125 94.765625 67.273438 C 94.960938 67.46875 95.109375 67.691406 95.214844 67.945312 C 95.320312 68.199219 95.375 68.460938 95.375 68.734375 Z M 95.375 68.734375 " fill-opacity="1" fill-rule="nonzero"/><path fill="#ffffff" d="M 106.160156 108.789062 C 106.242188 109.054688 106.269531 109.320312 106.242188 109.59375 C 106.21875 109.867188 106.140625 110.125 106.011719 110.367188 C 105.882812 110.609375 105.714844 110.816406 105.5 110.992188 C 105.289062 111.167969 105.050781 111.296875 104.789062 111.375 C 104.527344 111.449219 104.257812 111.472656 103.984375 111.445312 C 103.714844 111.414062 103.457031 111.335938 103.214844 111.210938 C 102.972656 111.082031 102.765625 110.914062 102.585938 110.707031 C 102.410156 110.5 102.277344 110.269531 102.191406 110.011719 C 102.035156 109.511719 101.820312 109.039062 101.546875 108.589844 C 101.410156 108.355469 101.320312 108.105469 101.28125 107.835938 C 101.242188 107.566406 101.253906 107.296875 101.320312 107.035156 C 101.386719 106.769531 101.503906 106.527344 101.664062 106.308594 C 101.828125 106.089844 102.023438 105.910156 102.257812 105.769531 C 102.492188 105.628906 102.746094 105.535156 103.015625 105.496094 C 103.285156 105.453125 103.554688 105.460938 103.820312 105.527344 C 104.085938 105.589844 104.328125 105.699219 104.550781 105.859375 C 104.773438 106.019531 104.957031 106.214844 105.101562 106.445312 C 105.550781 107.183594 105.902344 107.964844 106.160156 108.789062 Z M 106.160156 108.789062 " fill-opacity="1" fill-rule="nonzero"/><path fill="#ffffff" d="M 105.675781 116.332031 C 105.3125 117.117188 104.863281 117.84375 104.328125 118.519531 C 104.15625 118.730469 103.949219 118.902344 103.707031 119.035156 C 103.464844 119.164062 103.207031 119.246094 102.9375 119.277344 C 102.664062 119.308594 102.394531 119.289062 102.128906 119.214844 C 101.867188 119.140625 101.625 119.019531 101.410156 118.851562 C 101.191406 118.679688 101.019531 118.476562 100.882812 118.234375 C 100.75 117.996094 100.667969 117.738281 100.636719 117.464844 C 100.605469 117.195312 100.628906 116.925781 100.703125 116.664062 C 100.78125 116.398438 100.90625 116.160156 101.074219 115.945312 C 101.40625 115.53125 101.683594 115.085938 101.90625 114.609375 C 102.023438 114.359375 102.179688 114.140625 102.382812 113.953125 C 102.585938 113.769531 102.816406 113.628906 103.074219 113.53125 C 103.332031 113.4375 103.597656 113.394531 103.875 113.40625 C 104.148438 113.414062 104.410156 113.476562 104.660156 113.589844 C 104.910156 113.707031 105.132812 113.863281 105.316406 114.0625 C 105.503906 114.265625 105.648438 114.496094 105.742188 114.75 C 105.839844 115.007812 105.882812 115.273438 105.871094 115.546875 C 105.863281 115.824219 105.800781 116.085938 105.683594 116.332031 Z M 105.675781 116.332031 " fill-opacity="1" fill-rule="nonzero"/><path fill="#ffffff" d="M 76.175781 100.902344 C 75.9375 101.042969 75.683594 101.128906 75.410156 101.167969 C 75.136719 101.207031 74.867188 101.191406 74.601562 101.125 C 74.332031 101.058594 74.089844 100.941406 73.867188 100.78125 C 73.644531 100.617188 73.460938 100.417969 73.320312 100.183594 C 72.878906 99.445312 72.53125 98.664062 72.28125 97.839844 C 72.203125 97.582031 72.179688 97.316406 72.210938 97.042969 C 72.238281 96.773438 72.316406 96.519531 72.449219 96.28125 C 72.578125 96.042969 72.746094 95.835938 72.960938 95.664062 C 73.171875 95.492188 73.40625 95.367188 73.667969 95.285156 C 73.929688 95.207031 74.195312 95.179688 74.464844 95.203125 C 74.738281 95.230469 74.996094 95.304688 75.238281 95.429688 C 75.476562 95.554688 75.6875 95.722656 75.863281 95.929688 C 76.039062 96.136719 76.167969 96.371094 76.253906 96.628906 C 76.40625 97.132812 76.621094 97.613281 76.894531 98.066406 C 77.035156 98.300781 77.125 98.554688 77.164062 98.824219 C 77.207031 99.097656 77.191406 99.367188 77.125 99.632812 C 77.058594 99.898438 76.941406 100.140625 76.777344 100.359375 C 76.613281 100.582031 76.414062 100.761719 76.175781 100.902344 Z M 76.175781 100.902344 " fill-opacity="1" fill-rule="nonzero"/><path fill="#ffffff" d="M 109.976562 85.953125 C 109.976562 86.226562 109.925781 86.492188 109.820312 86.746094 C 109.714844 87 109.5625 87.222656 109.367188 87.417969 C 109.171875 87.609375 108.949219 87.761719 108.695312 87.867188 C 108.441406 87.96875 108.175781 88.023438 107.898438 88.023438 L 105.820312 88.023438 C 105.546875 88.023438 105.28125 87.96875 105.027344 87.867188 C 104.773438 87.761719 104.546875 87.609375 104.351562 87.417969 C 104.15625 87.222656 104.007812 87 103.902344 86.746094 C 103.796875 86.492188 103.742188 86.226562 103.742188 85.953125 C 103.742188 85.679688 103.796875 85.414062 103.902344 85.164062 C 104.007812 84.910156 104.15625 84.683594 104.351562 84.492188 C 104.546875 84.296875 104.773438 84.148438 105.027344 84.042969 C 105.28125 83.9375 105.546875 83.886719 105.820312 83.886719 L 107.898438 83.886719 C 108.175781 83.886719 108.441406 83.9375 108.695312 84.042969 C 108.949219 84.148438 109.171875 84.296875 109.367188 84.492188 C 109.5625 84.683594 109.714844 84.910156 109.820312 85.164062 C 109.925781 85.414062 109.976562 85.679688 109.976562 85.953125 Z M 109.976562 85.953125 " fill-opacity="1" fill-rule="nonzero"/><path fill="#ffffff" d="M 117.605469 83.214844 C 117.765625 83.441406 117.871094 83.6875 117.933594 83.953125 C 117.992188 84.222656 117.996094 84.492188 117.949219 84.761719 C 117.902344 85.03125 117.804688 85.28125 117.65625 85.515625 C 117.507812 85.746094 117.320312 85.941406 117.09375 86.097656 C 116.386719 86.589844 115.628906 86.992188 114.824219 87.304688 C 114.566406 87.402344 114.300781 87.445312 114.027344 87.4375 C 113.753906 87.429688 113.492188 87.371094 113.238281 87.261719 C 112.988281 87.152344 112.765625 87 112.574219 86.800781 C 112.382812 86.605469 112.238281 86.382812 112.136719 86.128906 C 112.035156 85.871094 111.988281 85.605469 111.996094 85.332031 C 112 85.058594 112.058594 84.796875 112.171875 84.546875 C 112.28125 84.292969 112.4375 84.074219 112.636719 83.882812 C 112.835938 83.695312 113.0625 83.550781 113.320312 83.449219 C 113.8125 83.257812 114.277344 83.011719 114.714844 82.707031 C 114.941406 82.550781 115.1875 82.441406 115.457031 82.382812 C 115.722656 82.324219 115.996094 82.316406 116.265625 82.367188 C 116.535156 82.414062 116.789062 82.511719 117.019531 82.65625 C 117.253906 82.804688 117.449219 82.992188 117.605469 83.214844 Z M 117.605469 83.214844 " fill-opacity="1" fill-rule="nonzero"/><path fill="#ffffff" d="M 112.027344 68.734375 C 112.027344 69.011719 111.972656 69.273438 111.867188 69.527344 C 111.761719 69.78125 111.613281 70.003906 111.417969 70.199219 C 111.222656 70.394531 110.996094 70.542969 110.742188 70.648438 C 110.488281 70.753906 110.222656 70.804688 109.949219 70.804688 L 107.871094 70.804688 C 107.59375 70.804688 107.328125 70.753906 107.074219 70.648438 C 106.820312 70.542969 106.59375 70.394531 106.402344 70.199219 C 106.207031 70.003906 106.054688 69.78125 105.949219 69.527344 C 105.84375 69.273438 105.792969 69.011719 105.792969 68.734375 C 105.792969 68.460938 105.84375 68.199219 105.949219 67.945312 C 106.054688 67.691406 106.207031 67.46875 106.402344 67.273438 C 106.59375 67.078125 106.820312 66.929688 107.074219 66.824219 C 107.328125 66.71875 107.59375 66.667969 107.871094 66.667969 L 109.949219 66.667969 C 110.222656 66.667969 110.488281 66.71875 110.742188 66.824219 C 110.996094 66.929688 111.222656 67.078125 111.417969 67.273438 C 111.613281 67.46875 111.761719 67.691406 111.867188 67.945312 C 111.972656 68.199219 112.027344 68.460938 112.027344 68.734375 Z M 112.027344 68.734375 " fill-opacity="1" fill-rule="nonzero"/><g clip-path="url(#93299f30bb)"><path fill="#ffffff" d="M 121.671875 77.328125 C 121.671875 78.1875 121.574219 79.035156 121.367188 79.871094 C 121.3125 80.09375 121.222656 80.304688 121.097656 80.5 C 120.972656 80.695312 120.816406 80.863281 120.636719 81.007812 C 120.453125 81.152344 120.25 81.261719 120.03125 81.335938 C 119.8125 81.414062 119.585938 81.449219 119.351562 81.449219 C 119.035156 81.441406 118.734375 81.367188 118.453125 81.226562 C 118.171875 81.085938 117.929688 80.894531 117.734375 80.644531 C 117.539062 80.398438 117.40625 80.121094 117.335938 79.816406 C 117.265625 79.507812 117.261719 79.199219 117.328125 78.894531 C 117.453125 78.382812 117.515625 77.867188 117.515625 77.34375 C 117.515625 77.070312 117.566406 76.804688 117.667969 76.550781 C 117.773438 76.296875 117.921875 76.074219 118.117188 75.878906 C 118.3125 75.683594 118.535156 75.535156 118.789062 75.425781 C 119.042969 75.320312 119.308594 75.269531 119.585938 75.265625 C 119.859375 75.265625 120.125 75.316406 120.378906 75.421875 C 120.636719 75.523438 120.859375 75.671875 121.054688 75.867188 C 121.25 76.058594 121.402344 76.285156 121.507812 76.535156 C 121.617188 76.789062 121.667969 77.054688 121.671875 77.328125 Z M 121.671875 77.328125 " fill-opacity="1" fill-rule="nonzero"/></g><path fill="#ffffff" d="M 99.5 119.992188 C 99.546875 120.261719 99.539062 120.53125 99.480469 120.796875 C 99.417969 121.066406 99.308594 121.3125 99.152344 121.535156 C 98.992188 121.761719 98.796875 121.945312 98.566406 122.09375 C 98.332031 122.242188 98.082031 122.335938 97.808594 122.382812 C 97.003906 122.515625 96.195312 122.566406 95.378906 122.539062 C 95.101562 122.539062 94.839844 122.488281 94.582031 122.382812 C 94.328125 122.277344 94.105469 122.128906 93.910156 121.933594 C 93.714844 121.738281 93.566406 121.515625 93.460938 121.261719 C 93.355469 121.007812 93.300781 120.746094 93.300781 120.472656 C 93.300781 120.195312 93.355469 119.933594 93.460938 119.679688 C 93.566406 119.425781 93.714844 119.203125 93.910156 119.007812 C 94.105469 118.8125 94.328125 118.664062 94.582031 118.558594 C 94.839844 118.453125 95.101562 118.402344 95.378906 118.402344 C 95.953125 118.417969 96.527344 118.386719 97.09375 118.308594 C 97.367188 118.261719 97.636719 118.265625 97.90625 118.328125 C 98.175781 118.386719 98.421875 118.496094 98.648438 118.652344 C 98.871094 118.8125 99.058594 119.007812 99.207031 119.238281 C 99.355469 119.46875 99.453125 119.71875 99.5 119.992188 Z M 99.5 119.992188 " fill-opacity="1" fill-rule="nonzero"/><path fill="#ffffff" d="M 100.5 104.375 C 100.367188 104.808594 100.117188 105.160156 99.75 105.429688 C 99.382812 105.699219 98.972656 105.835938 98.515625 105.835938 C 97.792969 105.835938 97.089844 105.503906 96.359375 105.464844 C 96.082031 105.453125 95.820312 105.386719 95.574219 105.265625 C 95.324219 105.148438 95.105469 104.984375 94.921875 104.78125 C 94.738281 104.578125 94.601562 104.34375 94.507812 104.085938 C 94.417969 103.828125 94.378906 103.558594 94.394531 103.285156 C 94.410156 103.011719 94.476562 102.75 94.59375 102.503906 C 94.714844 102.253906 94.875 102.039062 95.082031 101.855469 C 95.285156 101.671875 95.519531 101.535156 95.78125 101.445312 C 96.039062 101.351562 96.308594 101.3125 96.582031 101.328125 C 97.449219 101.375 98.296875 101.527344 99.125 101.78125 C 99.390625 101.859375 99.628906 101.988281 99.84375 102.164062 C 100.054688 102.339844 100.226562 102.550781 100.355469 102.792969 C 100.484375 103.039062 100.5625 103.296875 100.585938 103.570312 C 100.613281 103.84375 100.582031 104.113281 100.5 104.375 Z M 100.5 104.375 " fill-opacity="1" fill-rule="nonzero"/><path fill="#ffffff" d="M 85 85.953125 C 85 86.226562 84.945312 86.492188 84.839844 86.746094 C 84.734375 87 84.585938 87.222656 84.390625 87.417969 C 84.195312 87.609375 83.96875 87.761719 83.714844 87.867188 C 83.460938 87.96875 83.195312 88.023438 82.921875 88.023438 C 82.222656 88.023438 81.539062 88.203125 80.84375 88.203125 C 80.585938 88.203125 80.339844 88.15625 80.097656 88.066406 C 79.859375 87.972656 79.644531 87.839844 79.453125 87.667969 C 79.265625 87.496094 79.113281 87.296875 78.996094 87.066406 C 78.878906 86.839844 78.808594 86.597656 78.785156 86.34375 C 78.757812 86.089844 78.777344 85.839844 78.847656 85.59375 C 78.914062 85.347656 79.023438 85.121094 79.175781 84.914062 C 79.328125 84.707031 79.511719 84.535156 79.726562 84.394531 C 79.941406 84.257812 80.175781 84.164062 80.425781 84.109375 C 81.25 83.949219 82.082031 83.875 82.921875 83.886719 C 83.195312 83.886719 83.460938 83.941406 83.714844 84.042969 C 83.96875 84.148438 84.195312 84.296875 84.390625 84.492188 C 84.582031 84.6875 84.734375 84.910156 84.839844 85.164062 C 84.945312 85.417969 85 85.679688 85 85.953125 Z M 85 85.953125 " fill-opacity="1" fill-rule="nonzero"/><path fill="#ffffff" d="M 91.210938 120.460938 C 91.210938 120.738281 91.15625 121 91.050781 121.253906 C 90.945312 121.507812 90.796875 121.730469 90.601562 121.925781 C 90.40625 122.121094 90.183594 122.269531 89.929688 122.375 C 89.671875 122.480469 89.410156 122.53125 89.132812 122.53125 L 87.054688 122.53125 C 86.78125 122.53125 86.515625 122.480469 86.261719 122.375 C 86.003906 122.269531 85.78125 122.121094 85.585938 121.925781 C 85.390625 121.730469 85.242188 121.507812 85.136719 121.253906 C 85.03125 121 84.976562 120.738281 84.976562 120.460938 C 84.976562 120.1875 85.03125 119.925781 85.136719 119.671875 C 85.242188 119.417969 85.390625 119.195312 85.585938 119 C 85.78125 118.804688 86.003906 118.65625 86.261719 118.550781 C 86.515625 118.445312 86.78125 118.394531 87.054688 118.394531 L 89.132812 118.394531 C 89.410156 118.394531 89.671875 118.445312 89.929688 118.550781 C 90.183594 118.65625 90.40625 118.804688 90.601562 119 C 90.796875 119.195312 90.945312 119.417969 91.050781 119.671875 C 91.15625 119.925781 91.210938 120.1875 91.210938 120.460938 Z M 91.210938 120.460938 " fill-opacity="1" fill-rule="nonzero"/><path fill="#ffffff" d="M 83.972656 103.53125 C 83.949219 103.792969 83.882812 104.039062 83.765625 104.269531 C 83.652344 104.503906 83.5 104.710938 83.304688 104.886719 C 83.113281 105.0625 82.894531 105.195312 82.652344 105.289062 C 82.40625 105.382812 82.15625 105.429688 81.894531 105.429688 C 80.96875 105.398438 80.074219 105.222656 79.203125 104.910156 C 78.941406 104.824219 78.707031 104.691406 78.496094 104.511719 C 78.289062 104.332031 78.121094 104.117188 78 103.871094 C 77.875 103.628906 77.804688 103.367188 77.785156 103.09375 C 77.765625 102.820312 77.796875 102.550781 77.882812 102.292969 C 77.972656 102.03125 78.105469 101.796875 78.285156 101.589844 C 78.464844 101.382812 78.679688 101.214844 78.925781 101.09375 C 79.171875 100.96875 79.433594 100.898438 79.710938 100.878906 C 79.984375 100.859375 80.253906 100.894531 80.515625 100.980469 C 81.019531 101.144531 81.535156 101.25 82.066406 101.296875 C 82.339844 101.316406 82.601562 101.390625 82.847656 101.515625 C 83.09375 101.640625 83.304688 101.808594 83.484375 102.019531 C 83.664062 102.230469 83.796875 102.464844 83.878906 102.726562 C 83.964844 102.988281 83.996094 103.257812 83.972656 103.53125 Z M 83.972656 103.53125 " fill-opacity="1" fill-rule="nonzero"/><path fill="#ffffff" d="M 82.878906 120.460938 C 82.878906 120.738281 82.824219 121 82.71875 121.253906 C 82.613281 121.507812 82.464844 121.730469 82.269531 121.925781 C 82.074219 122.121094 81.847656 122.269531 81.59375 122.375 C 81.339844 122.480469 81.074219 122.53125 80.800781 122.53125 L 78.722656 122.53125 C 78.445312 122.53125 78.179688 122.480469 77.925781 122.375 C 77.671875 122.269531 77.445312 122.121094 77.253906 121.925781 C 77.058594 121.730469 76.90625 121.507812 76.800781 121.253906 C 76.695312 121 76.644531 120.738281 76.644531 120.460938 C 76.644531 120.1875 76.695312 119.925781 76.800781 119.671875 C 76.90625 119.417969 77.058594 119.195312 77.253906 119 C 77.445312 118.804688 77.671875 118.65625 77.925781 118.550781 C 78.179688 118.445312 78.445312 118.394531 78.722656 118.394531 L 80.800781 118.394531 C 81.074219 118.394531 81.339844 118.445312 81.59375 118.550781 C 81.847656 118.65625 82.074219 118.804688 82.269531 119 C 82.464844 119.195312 82.613281 119.417969 82.71875 119.671875 C 82.824219 119.925781 82.878906 120.1875 82.878906 120.460938 Z M 82.878906 120.460938 " fill-opacity="1" fill-rule="nonzero"/><path fill="#ffffff" d="M 92.304688 103.390625 C 92.304688 103.664062 92.25 103.929688 92.144531 104.183594 C 92.039062 104.4375 91.890625 104.660156 91.695312 104.855469 C 91.5 105.046875 91.277344 105.199219 91.019531 105.304688 C 90.765625 105.40625 90.5 105.460938 90.226562 105.460938 L 88.148438 105.460938 C 87.871094 105.460938 87.609375 105.40625 87.351562 105.304688 C 87.097656 105.199219 86.875 105.046875 86.679688 104.855469 C 86.484375 104.660156 86.335938 104.4375 86.230469 104.183594 C 86.125 103.929688 86.070312 103.664062 86.070312 103.390625 C 86.070312 103.117188 86.125 102.851562 86.230469 102.601562 C 86.335938 102.347656 86.484375 102.121094 86.679688 101.929688 C 86.875 101.734375 87.097656 101.585938 87.351562 101.480469 C 87.609375 101.375 87.871094 101.324219 88.148438 101.324219 L 90.226562 101.324219 C 90.5 101.324219 90.765625 101.375 91.019531 101.480469 C 91.277344 101.585938 91.5 101.734375 91.695312 101.929688 C 91.890625 102.121094 92.039062 102.347656 92.144531 102.601562 C 92.25 102.851562 92.304688 103.117188 92.304688 103.390625 Z M 92.304688 103.390625 " fill-opacity="1" fill-rule="nonzero"/><path fill="#ffffff" d="M 93.324219 85.953125 C 93.324219 86.226562 93.269531 86.492188 93.164062 86.746094 C 93.058594 87 92.910156 87.222656 92.714844 87.417969 C 92.519531 87.609375 92.296875 87.761719 92.042969 87.867188 C 91.785156 87.96875 91.523438 88.023438 91.246094 88.023438 L 89.167969 88.023438 C 88.894531 88.023438 88.628906 87.96875 88.375 87.867188 C 88.117188 87.761719 87.894531 87.609375 87.699219 87.417969 C 87.503906 87.222656 87.355469 87 87.25 86.746094 C 87.144531 86.492188 87.089844 86.226562 87.089844 85.953125 C 87.089844 85.679688 87.144531 85.414062 87.25 85.164062 C 87.355469 84.910156 87.503906 84.683594 87.699219 84.492188 C 87.894531 84.296875 88.117188 84.148438 88.375 84.042969 C 88.628906 83.9375 88.894531 83.886719 89.167969 83.886719 L 91.246094 83.886719 C 91.523438 83.886719 91.785156 83.9375 92.042969 84.042969 C 92.296875 84.148438 92.519531 84.296875 92.714844 84.492188 C 92.910156 84.683594 93.058594 84.910156 93.164062 85.164062 C 93.269531 85.414062 93.324219 85.679688 93.324219 85.953125 Z M 93.324219 85.953125 " fill-opacity="1" fill-rule="nonzero"/></svg>