<svg xmlns="http://www.w3.org/2000/svg" xmlns:xlink="http://www.w3.org/1999/xlink" width="188" zoomAndPan="magnify" viewBox="0 0 141.12 141.750002" height="188" preserveAspectRatio="xMidYMid meet" version="1.0"><defs><clipPath id="0700a2c231"><path d="M 48 94 L 131.457031 94 L 131.457031 97 L 48 97 Z M 48 94 " clip-rule="nonzero"/></clipPath><clipPath id="fef1d30363"><path d="M 23 14.324219 L 47 14.324219 L 47 41 L 23 41 Z M 23 14.324219 " clip-rule="nonzero"/></clipPath><clipPath id="c58fddbf4f"><path d="M 8.382812 19 L 56 19 L 56 126.277344 L 8.382812 126.277344 Z M 8.382812 19 " clip-rule="nonzero"/></clipPath></defs><g clip-path="url(#0700a2c231)"><path fill="#ffffff" d="M 48.265625 94.742188 L 131.441406 94.742188 L 131.441406 96.527344 L 48.265625 96.527344 Z M 48.265625 94.742188 " fill-opacity="1" fill-rule="nonzero"/></g><path fill="#ffffff" d="M 118.691406 57.007812 L 118.742188 57.136719 L 118.824219 57.359375 L 127.1875 57.359375 C 128.285156 57.359375 129.175781 56.46875 129.175781 55.367188 L 129.175781 53.375 C 129.175781 52.277344 128.285156 51.382812 127.1875 51.382812 L 121.214844 51.382812 C 120.113281 51.382812 119.222656 52.277344 119.222656 53.375 L 119.222656 54.371094 L 117.699219 54.371094 C 118.058594 55.332031 118.351562 56.101562 118.523438 56.558594 Z M 118.691406 57.007812 " fill-opacity="1" fill-rule="nonzero"/><path fill="#ffffff" d="M 89.199219 43.714844 L 84.558594 43.714844 C 83.917969 43.714844 83.398438 44.234375 83.398438 44.878906 C 83.398438 45.519531 83.917969 46.039062 84.558594 46.039062 L 89.199219 46.039062 C 89.84375 46.039062 90.363281 45.519531 90.363281 44.878906 C 90.363281 44.234375 89.84375 43.714844 89.199219 43.714844 Z M 89.199219 43.714844 " fill-opacity="1" fill-rule="nonzero"/><path fill="#ffffff" d="M 58.234375 82.488281 C 58.042969 85.789062 55.308594 88.371094 52.007812 88.371094 C 51.875 88.371094 51.742188 88.367188 51.609375 88.359375 C 51.421875 88.351562 51.238281 88.328125 51.050781 88.300781 L 51.050781 91.996094 C 51.050781 93.097656 51.941406 93.988281 53.042969 93.988281 L 61.003906 93.988281 C 62.101562 93.988281 62.996094 93.097656 62.996094 91.996094 L 62.996094 88.011719 C 74.867188 88.011719 101.175781 88.011719 111.976562 88.011719 L 111.976562 92.128906 C 111.976562 93.15625 112.808594 93.988281 113.835938 93.988281 L 121.273438 93.988281 C 122.300781 93.988281 123.132812 93.15625 123.132812 92.128906 L 123.132812 84.691406 C 123.222656 84.691406 123.304688 84.691406 123.371094 84.691406 C 126.6875 84.691406 126.6875 79.527344 126.6875 79.527344 L 58.378906 79.527344 C 58.339844 80.5 58.292969 81.484375 58.234375 82.488281 Z M 58.234375 82.488281 " fill-opacity="1" fill-rule="nonzero"/><path fill="#ffffff" d="M 75.433594 78.28125 L 75.433594 68.320312 L 78.421875 68.320312 L 78.421875 78.28125 L 80.410156 78.28125 L 80.410156 68.320312 L 83.394531 68.320312 L 83.394531 78.28125 L 85.386719 78.28125 L 85.386719 68.320312 L 88.371094 68.320312 L 88.371094 78.28125 L 90.363281 78.28125 L 90.363281 68.320312 L 93.347656 68.320312 L 93.347656 78.28125 L 95.339844 78.28125 L 95.339844 68.320312 L 98.324219 68.320312 L 98.324219 78.28125 L 125.582031 78.28125 C 125.582031 78.28125 125.582031 71.863281 125.582031 66.328125 C 125.582031 61.984375 120.59375 59.007812 118.441406 57.921875 L 118.167969 57.207031 C 118.164062 57.191406 113.003906 43.535156 112.28125 41.371094 C 111.84375 39.984375 110.6875 39.21875 109.34375 38.890625 C 107.980469 38.535156 106.308594 38.449219 104.265625 38.277344 C 99.8125 37.90625 91.707031 37.539062 86.878906 37.539062 C 82.050781 37.539062 73.945312 37.90625 69.492188 38.277344 C 67.449219 38.449219 65.777344 38.535156 64.414062 38.890625 C 63.070312 39.21875 61.914062 39.984375 61.472656 41.371094 C 60.9375 42.984375 57.929688 50.988281 56.433594 54.960938 C 57.15625 57.582031 57.683594 60.542969 58.027344 63.863281 C 58.632812 63.597656 59.304688 63.449219 60.007812 63.449219 C 62.757812 63.449219 64.984375 65.679688 64.984375 68.429688 C 64.984375 71.179688 62.757812 73.410156 60.007812 73.410156 C 59.480469 73.410156 58.976562 73.328125 58.5 73.175781 C 58.5 73.378906 58.503906 73.574219 58.503906 73.777344 C 58.503906 75.226562 58.476562 76.734375 58.425781 78.28125 Z M 113.75 73.414062 C 111.003906 73.414062 108.773438 71.179688 108.773438 68.429688 C 108.773438 65.679688 111.003906 63.449219 113.75 63.449219 C 116.5 63.449219 118.726562 65.679688 118.726562 68.429688 C 118.726562 71.179688 116.5 73.414062 113.75 73.414062 Z M 62.890625 44.761719 C 63.1875 43.933594 63.664062 43.582031 64.792969 43.257812 C 65.910156 42.960938 67.554688 42.859375 69.617188 42.6875 C 74.007812 42.324219 82.121094 41.953125 86.878906 41.953125 C 91.636719 41.953125 99.75 42.324219 104.140625 42.6875 C 106.203125 42.863281 107.847656 42.960938 108.960938 43.257812 C 110.09375 43.582031 110.570312 43.933594 110.867188 44.761719 C 111.496094 46.648438 115.183594 53.523438 116.390625 56.722656 L 57.367188 56.722656 C 58.574219 53.523438 62.265625 46.648438 62.890625 44.761719 Z M 62.890625 44.761719 " fill-opacity="1" fill-rule="nonzero"/><path fill="#ffffff" d="M 63.878906 68.429688 C 63.878906 66.292969 62.144531 64.554688 60.011719 64.554688 C 59.332031 64.554688 58.699219 64.730469 58.144531 65.039062 C 58.335938 67.207031 58.445312 69.527344 58.484375 71.992188 C 58.953125 72.191406 59.46875 72.304688 60.011719 72.304688 C 62.144531 72.304688 63.878906 70.566406 63.878906 68.429688 Z M 63.878906 68.429688 " fill-opacity="1" fill-rule="nonzero"/><path fill="#ffffff" d="M 117.621094 68.429688 C 117.621094 68.945312 117.523438 69.4375 117.328125 69.914062 C 117.128906 70.386719 116.851562 70.804688 116.488281 71.167969 C 116.125 71.53125 115.707031 71.8125 115.234375 72.007812 C 114.757812 72.203125 114.265625 72.304688 113.75 72.304688 C 113.238281 72.304688 112.746094 72.203125 112.269531 72.007812 C 111.796875 71.8125 111.378906 71.53125 111.015625 71.167969 C 110.652344 70.804688 110.375 70.386719 110.175781 69.914062 C 109.980469 69.4375 109.882812 68.945312 109.882812 68.429688 C 109.882812 67.917969 109.980469 67.421875 110.175781 66.949219 C 110.375 66.472656 110.652344 66.054688 111.015625 65.691406 C 111.378906 65.328125 111.796875 65.046875 112.269531 64.851562 C 112.746094 64.65625 113.238281 64.558594 113.75 64.558594 C 114.265625 64.558594 114.757812 64.65625 115.234375 64.851562 C 115.707031 65.046875 116.125 65.328125 116.488281 65.691406 C 116.851562 66.054688 117.128906 66.472656 117.328125 66.949219 C 117.523438 67.421875 117.621094 67.917969 117.621094 68.429688 Z M 117.621094 68.429688 " fill-opacity="1" fill-rule="nonzero"/><g clip-path="url(#fef1d30363)"><path fill="#ffffff" d="M 27.113281 21.078125 C 27.273438 21.359375 27.394531 21.648438 27.484375 21.945312 C 29.152344 21.527344 31.25 21.28125 33.53125 21.28125 C 38.949219 21.28125 43.339844 22.679688 43.339844 24.40625 C 43.339844 24.660156 43.242188 24.910156 43.058594 25.148438 C 42.011719 23.78125 38.144531 22.769531 33.53125 22.769531 C 31.335938 22.769531 29.308594 23 27.675781 23.386719 C 27.628906 24.902344 26.820312 26.359375 25.40625 27.152344 C 24.816406 27.484375 24.269531 27.804688 23.757812 28.113281 C 23.589844 28.84375 23.496094 29.597656 23.496094 30.375 C 23.496094 35.367188 27.136719 39.507812 31.902344 40.285156 C 32.433594 40.371094 32.976562 40.417969 33.53125 40.417969 C 34.085938 40.417969 34.628906 40.371094 35.15625 40.285156 C 39.925781 39.507812 43.5625 35.367188 43.5625 30.375 C 43.5625 29.121094 43.332031 27.917969 42.910156 26.808594 C 43.148438 26.5625 43.292969 26.300781 43.328125 26.027344 C 44.496094 26.070312 45.394531 25.882812 45.792969 25.253906 C 47.121094 23.15625 43.710938 14.394531 33.53125 14.394531 C 28.605469 14.394531 25.269531 16.445312 23.28125 18.800781 C 24.871094 18.820312 26.335938 19.6875 27.113281 21.078125 Z M 27.113281 21.078125 " fill-opacity="1" fill-rule="nonzero"/></g><g clip-path="url(#c58fddbf4f)"><path fill="#ffffff" d="M 32.496094 80.390625 L 34.5625 80.390625 L 34.5625 120.6875 C 34.5625 123.734375 37.03125 126.207031 40.078125 126.207031 C 43.121094 126.207031 45.589844 123.734375 45.589844 120.6875 L 45.589844 53.75 C 45.855469 54.292969 46.121094 54.914062 46.382812 55.640625 C 47.640625 59.128906 48.699219 64.847656 48.695312 73.78125 C 48.695312 76.242188 48.617188 78.945312 48.441406 81.914062 C 48.328125 83.882812 49.828125 85.574219 51.796875 85.6875 C 51.867188 85.691406 51.9375 85.695312 52.007812 85.695312 C 53.882812 85.695312 55.453125 84.230469 55.566406 82.332031 C 55.746094 79.234375 55.828125 76.394531 55.828125 73.78125 C 55.8125 60.308594 53.660156 52.851562 50.730469 48.367188 C 49.265625 46.140625 47.550781 44.714844 45.96875 43.921875 C 44.441406 43.152344 43.097656 42.980469 42.296875 42.972656 C 42.246094 42.96875 42.195312 42.964844 42.144531 42.964844 L 38.320312 42.964844 C 38.921875 46.421875 40.386719 56.507812 37.285156 58.511719 C 36.765625 58.847656 36.324219 59.128906 35.929688 59.375 L 34.867188 48.742188 C 34.433594 48.863281 33.984375 48.925781 33.535156 48.925781 L 33.53125 48.925781 C 33.082031 48.925781 32.628906 48.863281 32.191406 48.746094 L 31.128906 59.375 C 30.734375 59.128906 30.292969 58.847656 29.773438 58.511719 C 26.675781 56.507812 28.136719 46.421875 28.742188 42.964844 L 25.5625 42.964844 C 24.511719 42.601562 21.980469 41.648438 19.742188 40.269531 C 18.429688 39.472656 17.238281 38.527344 16.507812 37.640625 C 15.765625 36.734375 15.519531 36.050781 15.519531 35.417969 C 15.527344 34.789062 15.746094 33.796875 17.125 32.191406 C 18.488281 30.613281 20.992188 28.597656 24.96875 26.375 C 26.6875 25.410156 27.300781 23.234375 26.335938 21.511719 C 25.375 19.792969 23.199219 19.179688 21.480469 20.144531 C 17.046875 22.636719 13.914062 25.019531 11.746094 27.5 C 9.589844 29.953125 8.375 32.683594 8.382812 35.417969 C 8.382812 38.34375 9.734375 40.785156 11.332031 42.566406 C 13.757812 45.261719 16.859375 46.964844 19.394531 48.160156 C 20.148438 48.511719 20.847656 48.808594 21.46875 49.058594 L 21.46875 120.6875 C 21.46875 123.734375 23.9375 126.207031 26.980469 126.207031 C 29.339844 126.207031 31.34375 124.726562 32.132812 122.644531 C 32.363281 122.035156 32.496094 121.378906 32.496094 120.6875 Z M 32.496094 80.390625 " fill-opacity="1" fill-rule="nonzero"/></g><path fill="#ffffff" d="M 35.402344 46.507812 L 34.78125 43.160156 L 32.28125 43.160156 L 31.65625 46.507812 L 32.011719 47.265625 C 32.492188 47.476562 33.011719 47.585938 33.53125 47.585938 C 34.050781 47.585938 34.566406 47.476562 35.050781 47.261719 Z M 35.402344 46.507812 " fill-opacity="1" fill-rule="nonzero"/></svg>