<svg xmlns="http://www.w3.org/2000/svg" xmlns:xlink="http://www.w3.org/1999/xlink" width="188" zoomAndPan="magnify" viewBox="0 0 141.12 141.750002" height="188" preserveAspectRatio="xMidYMid meet" version="1.0"><defs><clipPath id="d243018403"><path d="M 101 87 L 104 87 L 104 126.277344 L 101 126.277344 Z M 101 87 " clip-rule="nonzero"/></clipPath><clipPath id="47835125b3"><path d="M 14.011719 14.324219 L 117.066406 14.324219 L 117.066406 126.277344 L 14.011719 126.277344 Z M 14.011719 14.324219 " clip-rule="nonzero"/></clipPath></defs><g clip-path="url(#d243018403)"><path fill="#ffffff" d="M 102.210938 87.042969 C 101.722656 87.042969 101.324219 87.441406 101.324219 87.929688 L 101.324219 125.390625 C 101.324219 125.878906 101.722656 126.277344 102.210938 126.277344 C 102.703125 126.277344 103.101562 125.878906 103.101562 125.390625 L 103.101562 87.929688 C 103.101562 87.441406 102.703125 87.042969 102.210938 87.042969 Z M 102.210938 87.042969 " fill-opacity="1" fill-rule="nonzero"/></g><path fill="#ffffff" d="M 87.917969 90.085938 L 79.765625 90.085938 C 79.277344 90.085938 78.878906 90.484375 78.878906 90.976562 L 78.878906 103.429688 C 78.878906 103.917969 79.277344 104.316406 79.765625 104.316406 L 87.917969 104.316406 C 88.40625 104.316406 88.804688 103.917969 88.804688 103.429688 L 88.804688 90.976562 C 88.804688 90.484375 88.40625 90.085938 87.917969 90.085938 Z M 87.917969 90.085938 " fill-opacity="1" fill-rule="nonzero"/><g clip-path="url(#47835125b3)"><path fill="#ffffff" d="M 112.90625 78.390625 C 109.375 71.890625 101.59375 68.132812 99.242188 67.113281 C 99.308594 66.394531 99.121094 65.6875 98.695312 65.09375 C 98.21875 64.4375 97.515625 64.011719 96.703125 63.894531 C 96.550781 63.875 96.417969 63.863281 96.292969 63.863281 C 95.511719 63.863281 94.792969 64.171875 94.261719 64.675781 C 93.753906 63.621094 93.421875 62.464844 93.265625 61.214844 C 95.433594 59.664062 97.378906 57.644531 98.53125 55.722656 C 99.933594 53.386719 101.140625 48.757812 101.75 43.472656 C 101.980469 43.515625 102.214844 43.535156 102.449219 43.535156 C 103.464844 43.535156 104.433594 43.15625 105.175781 42.464844 C 106.046875 41.65625 106.511719 40.511719 106.449219 39.328125 C 106.386719 38.132812 105.804688 37.035156 104.851562 36.316406 C 104.570312 36.105469 104.277344 35.894531 103.980469 35.6875 C 103.859375 33.769531 103.269531 26.203125 101.328125 22.507812 C 98.945312 17.976562 89.816406 14.324219 83.84375 14.324219 C 77.871094 14.324219 68.738281 17.976562 66.355469 22.507812 C 64.417969 26.199219 63.824219 33.761719 63.703125 35.683594 C 63.421875 35.882812 63.132812 36.09375 62.824219 36.324219 C 61.871094 37.042969 61.289062 38.136719 61.226562 39.328125 C 61.164062 40.507812 61.621094 41.648438 62.480469 42.457031 C 62.484375 42.457031 62.488281 42.460938 62.492188 42.464844 C 63.25 43.175781 64.234375 43.542969 65.226562 43.542969 C 65.464844 43.542969 65.699219 43.523438 65.933594 43.480469 C 66.542969 48.761719 67.753906 53.386719 69.152344 55.722656 C 70.304688 57.640625 72.25 59.664062 74.421875 61.214844 C 74.265625 62.460938 73.933594 63.621094 73.425781 64.671875 C 72.890625 64.167969 72.175781 63.863281 71.394531 63.863281 C 71.265625 63.863281 71.132812 63.875 70.972656 63.894531 C 70.167969 64.011719 69.464844 64.4375 68.988281 65.097656 C 68.5625 65.6875 68.375 66.398438 68.441406 67.113281 C 66.089844 68.132812 58.308594 71.890625 54.777344 78.390625 C 53.769531 80.25 52.949219 83.964844 52.292969 89.671875 C 51.027344 84.351562 49.703125 79 49.226562 77.09375 C 50.773438 76.234375 51.796875 74.378906 51.796875 72.292969 C 51.796875 70.316406 50.863281 68.515625 49.425781 67.609375 L 50.941406 29.144531 C 50.941406 29.132812 50.941406 29.113281 50.941406 29.101562 C 50.941406 29.074219 50.941406 29.046875 50.941406 29.023438 C 50.941406 27.351562 49.632812 25.988281 47.964844 25.925781 C 47.132812 25.894531 46.347656 26.183594 45.738281 26.746094 C 45.390625 27.070312 45.128906 27.460938 44.960938 27.894531 C 43.160156 27.558594 38.898438 26.90625 35.046875 27.375 C 32.835938 27.644531 31.03125 28.132812 29.285156 28.605469 C 27.15625 29.183594 25.316406 29.679688 23.128906 29.679688 C 19.355469 29.679688 15.597656 26.664062 15.558594 26.632812 C 15.269531 26.394531 14.859375 26.367188 14.539062 26.5625 C 14.21875 26.757812 14.054688 27.132812 14.128906 27.5 C 14.214844 27.914062 16.265625 37.625 21.300781 40.929688 C 24.390625 42.957031 28.402344 43.523438 31.941406 44.023438 C 34.167969 44.339844 36.269531 44.636719 37.925781 45.242188 C 41.382812 46.511719 43.375 48.71875 43.941406 49.414062 L 43.316406 65.328125 C 42.945312 65.203125 42.5625 65.121094 42.167969 65.089844 C 38.417969 64.800781 35.863281 65.429688 34.570312 66.964844 C 31.949219 70.074219 31.019531 78.417969 31.695312 81.035156 C 32.078125 82.527344 33.3125 83.578125 34.507812 84.59375 C 35.484375 85.425781 36.496094 86.289062 37.003906 87.355469 C 37.625 88.652344 38.015625 96.578125 38.300781 102.367188 C 38.5625 107.675781 38.789062 112.261719 39.164062 113.632812 C 40.066406 116.917969 43.988281 121.101562 47.234375 122.238281 C 47.777344 122.425781 48.402344 122.511719 49.082031 122.511719 C 52.667969 122.511719 57.765625 120.121094 59.945312 118 C 61.449219 116.535156 63.269531 112.160156 64.582031 108.578125 L 64.582031 125.390625 C 64.582031 125.878906 64.980469 126.277344 65.472656 126.277344 C 65.960938 126.277344 66.359375 125.878906 66.359375 125.390625 L 66.359375 87.929688 C 66.359375 87.441406 65.960938 87.042969 65.472656 87.042969 C 64.980469 87.042969 64.582031 87.441406 64.582031 87.929688 L 64.582031 103.097656 C 63.539062 106.398438 60.5625 114.917969 58.707031 116.726562 C 56.320312 119.050781 50.289062 121.425781 47.824219 120.558594 C 45.128906 119.617188 41.625 115.886719 40.878906 113.164062 C 40.554688 111.980469 40.308594 107.046875 40.074219 102.277344 C 39.65625 93.78125 39.328125 88.097656 38.609375 86.589844 C 37.933594 85.179688 36.726562 84.152344 35.660156 83.242188 C 34.628906 82.367188 33.65625 81.539062 33.414062 80.589844 C 32.839844 78.363281 33.789062 70.648438 35.929688 68.109375 C 36.804688 67.066406 38.972656 66.625 42.03125 66.863281 C 42.601562 66.90625 43.148438 67.117188 43.609375 67.464844 C 44.066406 67.816406 44.417969 68.285156 44.617188 68.820312 C 44.746094 69.167969 44.8125 69.527344 44.8125 69.894531 L 44.8125 74.785156 C 44.8125 75.132812 44.753906 75.472656 44.636719 75.796875 C 44.390625 76.492188 43.902344 77.074219 43.257812 77.4375 C 43.046875 77.554688 42.820312 77.648438 42.578125 77.714844 L 39.253906 78.636719 C 38.78125 78.765625 38.503906 79.253906 38.632812 79.730469 C 38.761719 80.203125 39.253906 80.480469 39.726562 80.347656 L 42.757812 79.511719 L 42.359375 89.664062 C 42.355469 89.710938 42.355469 89.753906 42.355469 89.800781 C 42.355469 91.472656 43.664062 92.832031 45.332031 92.894531 C 45.375 92.894531 45.414062 92.898438 45.457031 92.898438 C 47.109375 92.898438 48.484375 91.585938 48.550781 89.921875 L 48.828125 82.886719 C 49.734375 86.59375 50.882812 91.359375 51.792969 95.320312 C 52.535156 98.5625 53.015625 100.820312 53.21875 102.035156 C 54.035156 106.902344 53.460938 112.910156 53.457031 112.96875 C 53.410156 113.457031 53.765625 113.890625 54.253906 113.941406 C 54.28125 113.941406 54.3125 113.945312 54.339844 113.945312 C 54.792969 113.945312 55.179688 113.601562 55.222656 113.140625 C 55.25 112.886719 55.824219 106.847656 54.96875 101.742188 C 54.765625 100.511719 54.289062 98.261719 53.554688 95.058594 C 54.417969 84.640625 55.542969 80.703125 56.339844 79.238281 C 59.402344 73.597656 66.246094 70.070312 68.78125 68.914062 C 70.121094 75.207031 72.507812 80.773438 75.890625 85.488281 C 74.871094 86.25 74.234375 87.46875 74.234375 88.777344 L 74.234375 105.011719 C 74.234375 107.273438 76.074219 109.117188 78.339844 109.117188 L 89.34375 109.117188 C 91.609375 109.117188 93.449219 107.273438 93.449219 105.011719 L 93.449219 88.777344 C 93.449219 87.46875 92.8125 86.253906 91.796875 85.488281 C 95.175781 80.773438 97.5625 75.203125 98.902344 68.914062 C 101.4375 70.070312 108.28125 73.597656 111.347656 79.238281 C 115.183594 86.304688 115.273438 125 115.273438 125.390625 C 115.277344 125.882812 115.671875 126.277344 116.164062 126.277344 C 116.65625 126.277344 117.050781 125.878906 117.050781 125.390625 C 117.050781 123.777344 116.957031 85.847656 112.90625 78.390625 Z M 47.921875 75.734375 C 47.726562 75.792969 47.523438 75.824219 47.316406 75.824219 C 47.035156 75.824219 46.765625 75.769531 46.507812 75.660156 C 46.558594 75.375 46.589844 75.082031 46.589844 74.785156 L 46.589844 69.894531 C 46.589844 69.570312 46.554688 69.25 46.488281 68.933594 C 47.035156 68.707031 47.628906 68.703125 48.164062 68.941406 C 49.273438 69.425781 50.019531 70.773438 50.019531 72.292969 C 50.019531 73.914062 49.140625 75.363281 47.921875 75.734375 Z M 46.945312 28.050781 C 47.207031 27.8125 47.542969 27.6875 47.894531 27.699219 C 48.609375 27.726562 49.167969 28.308594 49.167969 29.03125 C 49.164062 29.046875 49.164062 29.066406 49.164062 29.085938 L 47.671875 67.003906 C 47.554688 66.992188 47.433594 66.984375 47.316406 66.984375 C 46.804688 66.984375 46.300781 67.085938 45.824219 67.285156 C 45.609375 66.949219 45.347656 66.640625 45.050781 66.363281 L 46.523438 28.96875 C 46.535156 28.617188 46.6875 28.289062 46.945312 28.050781 Z M 45.402344 91.117188 C 44.6875 91.09375 44.132812 90.511719 44.132812 89.800781 L 44.132812 89.773438 C 44.132812 89.761719 44.132812 89.753906 44.132812 89.746094 L 44.566406 78.703125 C 45.089844 78.332031 45.527344 77.859375 45.863281 77.316406 C 46.3125 77.496094 46.78125 77.589844 47.257812 77.597656 L 46.777344 89.847656 C 46.746094 90.578125 46.132812 91.140625 45.402344 91.117188 Z M 82.8125 84.671875 C 78.570312 79.878906 75.730469 73.808594 74.367188 66.621094 C 75.191406 65.316406 75.757812 63.859375 76.054688 62.265625 C 78.042969 63.414062 80.753906 64.511719 83.84375 64.511719 C 86.933594 64.511719 89.640625 63.414062 91.628906 62.265625 C 91.929688 63.859375 92.492188 65.320312 93.316406 66.621094 C 91.953125 73.808594 89.113281 79.878906 84.871094 84.671875 Z M 63.710938 41.175781 C 63.707031 41.171875 63.707031 41.167969 63.703125 41.164062 C 63.222656 40.714844 62.964844 40.078125 63 39.421875 C 63.035156 38.757812 63.359375 38.144531 63.894531 37.742188 C 64.308594 37.429688 64.691406 37.15625 65.0625 36.902344 C 68.894531 34.289062 75.257812 31.175781 83.84375 31.175781 C 92.429688 31.175781 98.792969 34.289062 102.617188 36.902344 C 103.019531 37.175781 103.410156 37.457031 103.78125 37.734375 C 104.316406 38.136719 104.640625 38.75 104.675781 39.417969 C 104.710938 40.078125 104.453125 40.714844 103.96875 41.164062 C 103.554688 41.546875 103.015625 41.757812 102.449219 41.757812 C 102.082031 41.757812 101.71875 41.667969 101.402344 41.5 C 101.289062 41.441406 101.191406 41.378906 101.097656 41.3125 C 98.25 39.1875 92.222656 35.625 83.84375 35.625 C 75.453125 35.625 69.425781 39.191406 66.578125 41.316406 C 66.484375 41.386719 66.386719 41.449219 66.289062 41.5 C 66.285156 41.5 66.285156 41.5 66.28125 41.503906 C 65.441406 41.953125 64.40625 41.820312 63.710938 41.175781 Z M 70.675781 54.808594 C 69.351562 52.601562 68.199219 48.007812 67.640625 42.742188 C 70.3125 40.746094 75.96875 37.402344 83.84375 37.402344 C 91.710938 37.402344 97.367188 40.742188 100.035156 42.734375 C 100.039062 42.734375 100.042969 42.738281 100.042969 42.738281 C 99.484375 48.007812 98.332031 52.597656 97.007812 54.808594 C 95.90625 56.648438 93.96875 58.605469 91.824219 60.050781 C 90.007812 61.277344 87.148438 62.738281 83.84375 62.738281 C 80.535156 62.738281 77.675781 61.273438 75.859375 60.050781 C 73.71875 58.605469 71.78125 56.644531 70.675781 54.808594 Z M 91.671875 105.011719 C 91.671875 106.292969 90.628906 107.335938 89.34375 107.335938 L 78.339844 107.335938 C 77.054688 107.335938 76.011719 106.292969 76.011719 105.011719 L 76.011719 88.777344 C 76.011719 87.816406 76.613281 86.941406 77.511719 86.597656 C 77.773438 86.5 78.054688 86.449219 78.339844 86.449219 L 89.34375 86.449219 C 89.632812 86.449219 89.910156 86.5 90.167969 86.601562 C 90.171875 86.601562 90.171875 86.601562 90.175781 86.601562 C 91.070312 86.941406 91.671875 87.816406 91.671875 88.777344 Z M 91.671875 105.011719 " fill-opacity="1" fill-rule="nonzero"/></g></svg>