<svg xmlns="http://www.w3.org/2000/svg" xmlns:xlink="http://www.w3.org/1999/xlink" width="188" zoomAndPan="magnify" viewBox="0 0 141.12 141.750002" height="188" preserveAspectRatio="xMidYMid meet" version="1.0"><defs><clipPath id="04db9ee4e6"><path d="M 8.820312 26 L 131 26 L 131 114.789062 L 8.820312 114.789062 Z M 8.820312 26 " clip-rule="nonzero"/></clipPath></defs><g clip-path="url(#04db9ee4e6)"><path fill="#ffffff" d="M 48.917969 55.894531 C 48.574219 54.675781 48.203125 53.472656 47.828125 52.277344 C 47.261719 52.359375 46.769531 52.332031 46.300781 52.324219 C 46.078125 52.316406 45.832031 52.316406 45.644531 52.324219 C 45.554688 52.324219 45.421875 52.339844 45.3125 52.347656 L 45.007812 52.402344 C 44.574219 52.492188 44.148438 52.542969 43.746094 52.664062 C 42.101562 53.082031 40.675781 53.667969 39.492188 54.1875 C 37.128906 55.234375 35.65625 55.835938 35.59375 55.699219 C 35.535156 55.566406 36.859375 54.730469 39.15625 53.488281 C 40.308594 52.871094 41.738281 52.175781 43.46875 51.65625 C 43.894531 51.507812 44.351562 51.441406 44.816406 51.332031 L 45.191406 51.253906 C 45.3125 51.238281 45.410156 51.21875 45.558594 51.210938 C 45.84375 51.199219 46.070312 51.199219 46.316406 51.199219 C 46.714844 51.191406 47.105469 51.191406 47.460938 51.144531 C 47.074219 50.003906 46.6875 48.863281 46.265625 47.722656 C 45.957031 47.652344 45.394531 47.695312 44.914062 47.6875 C 43.792969 47.710938 42.714844 47.722656 41.691406 47.738281 C 39.675781 47.875 37.867188 48 36.355469 48.304688 C 34.828125 48.503906 33.632812 48.878906 32.785156 49.050781 C 31.941406 49.242188 31.457031 49.304688 31.421875 49.226562 C 31.402344 49.148438 31.835938 48.921875 32.644531 48.601562 C 33.46875 48.289062 34.636719 47.765625 36.191406 47.453125 C 37.703125 47.039062 39.582031 46.78125 41.664062 46.589844 C 42.679688 46.554688 43.757812 46.464844 44.878906 46.421875 C 45.160156 46.414062 45.445312 46.304688 45.726562 46.304688 C 45.757812 46.304688 45.785156 46.304688 45.808594 46.304688 C 45.554688 45.597656 45.285156 45.03125 45.007812 44.34375 C 40.207031 44.195312 35.601562 44.585938 31.007812 46.125 C 27.40625 47.335938 23.246094 48.46875 20.0625 50.585938 C 15.644531 53.527344 15.164062 58.476562 13.859375 63.207031 C 13.839844 63.265625 13.824219 63.324219 13.8125 63.386719 C 14.03125 63.011719 14.257812 62.632812 14.492188 62.246094 C 16.484375 59.226562 18.722656 56.894531 20.269531 55.179688 C 21.824219 53.488281 22.785156 52.394531 22.921875 52.507812 C 23.039062 52.609375 22.335938 53.855469 20.917969 55.726562 C 19.523438 57.585938 17.414062 60 15.5 62.894531 C 14.601562 64.355469 13.730469 65.851562 12.902344 67.132812 C 12.824219 67.253906 12.757812 67.375 12.675781 67.496094 C 12.007812 70.003906 11.4375 72.535156 11.144531 75.128906 C 11.144531 75.136719 11.152344 75.136719 11.152344 75.136719 C 13.066406 75.914062 15.179688 77.105469 17.171875 76.269531 C 16.8125 75.183594 16.695312 73.964844 16.820312 72.773438 C 16.875 71.988281 17.035156 71.167969 17.125 70.441406 C 17.191406 69.667969 17.214844 68.859375 17.320312 67.996094 C 17.355469 67.664062 17.414062 67.324219 17.492188 66.984375 C 17.558594 66.660156 17.667969 66.261719 17.78125 65.984375 L 17.863281 65.769531 L 17.90625 65.652344 L 17.925781 65.597656 L 17.964844 65.527344 L 17.980469 65.503906 L 18.214844 65.078125 C 18.375 64.796875 18.53125 64.519531 18.6875 64.242188 C 18.976562 63.675781 19.375 63.199219 19.714844 62.707031 C 20.054688 62.203125 20.433594 61.746094 20.808594 61.316406 C 22.265625 59.542969 23.765625 58.140625 25.015625 56.984375 C 27.5625 54.703125 29.191406 53.371094 29.300781 53.480469 C 29.425781 53.605469 27.988281 55.164062 25.613281 57.59375 C 24.433594 58.824219 23.027344 60.265625 21.65625 62.011719 C 21.3125 62.4375 20.953125 62.882812 20.640625 63.363281 C 20.332031 63.847656 19.957031 64.304688 19.695312 64.835938 C 19.550781 65.101562 19.410156 65.355469 19.269531 65.625 L 19.050781 66.019531 L 19.03125 66.035156 L 19.019531 66.078125 L 18.976562 66.191406 L 18.894531 66.410156 C 18.773438 66.722656 18.726562 66.949219 18.652344 67.25 C 18.589844 67.53125 18.539062 67.835938 18.503906 68.140625 C 18.410156 68.929688 18.382812 69.742188 18.296875 70.558594 C 18.191406 71.421875 18.035156 72.136719 17.972656 72.875 C 17.851562 73.925781 17.917969 74.902344 18.160156 75.792969 C 18.304688 75.765625 18.4375 75.773438 18.566406 75.808594 C 19.199219 75.136719 19.734375 74.425781 20.226562 73.765625 C 20.90625 72.804688 21.492188 71.960938 21.988281 71.265625 C 23.003906 69.867188 23.734375 69.183594 23.8125 69.253906 C 23.902344 69.332031 23.351562 70.132812 22.5 71.597656 C 22.078125 72.335938 21.578125 73.234375 20.933594 74.25 C 20.480469 74.949219 19.957031 75.722656 19.300781 76.484375 C 19.308594 76.488281 19.320312 76.496094 19.328125 76.511719 C 19.972656 77.976562 22.390625 78.21875 23.953125 77.601562 C 24.570312 72.839844 29.730469 68.507812 33.113281 65.5625 C 37.40625 61.816406 43.179688 57.226562 48.917969 55.894531 Z M 49.941406 59.914062 C 49.984375 59.898438 50.019531 59.894531 50.058594 59.878906 C 49.882812 59.320312 49.714844 58.757812 49.554688 58.1875 C 49.535156 58.105469 49.515625 58.027344 49.492188 57.953125 C 44.296875 59.183594 38.332031 63.5625 34.617188 67.0625 C 31.984375 69.542969 27.21875 73.1875 26.210938 76.984375 C 26.34375 77.042969 26.476562 77.125 26.597656 77.265625 C 27.316406 78.082031 27.84375 79.199219 28.808594 79.761719 C 32.035156 76.179688 35.582031 72.929688 38.933594 69.464844 C 42.375 65.902344 45.3125 61.996094 49.941406 59.914062 Z M 67.46875 56.230469 C 68.457031 56.238281 69.445312 56.222656 70.433594 56.183594 C 69.167969 52.582031 66.230469 49.574219 62.875 47.667969 C 64.371094 50.328125 65.875 52.996094 67.234375 55.761719 C 67.316406 55.914062 67.390625 56.070312 67.46875 56.230469 Z M 87.488281 63.351562 C 87.316406 63.074219 87.144531 62.804688 86.984375 62.519531 C 85.382812 64.734375 82.125 65.90625 79.773438 64.566406 C 79.492188 64.511719 79.199219 64.457031 78.902344 64.371094 C 77.625 64.007812 76.578125 63.289062 76.019531 62.613281 C 75.421875 61.914062 75.3125 61.421875 75.421875 61.324219 C 75.546875 61.203125 75.976562 61.578125 76.585938 61.988281 C 77.046875 62.300781 77.65625 62.640625 78.386719 62.929688 C 78.386719 62.882812 78.386719 62.832031 78.394531 62.785156 C 78.519531 61.71875 78.773438 61.109375 79.519531 60.316406 C 80.425781 59.355469 81.179688 58.707031 81.65625 57.878906 C 77.273438 57.785156 72.914062 58.3125 68.53125 58.351562 C 69.636719 60.542969 70.75 62.753906 71.765625 64.996094 C 72 65.257812 72.246094 65.527344 72.527344 65.796875 C 73.316406 66.523438 74.089844 67.183594 74.613281 67.726562 C 75.125 68.273438 75.386719 68.679688 75.285156 68.804688 C 75.179688 68.933594 74.734375 68.761719 74.082031 68.394531 C 73.742188 68.195312 73.328125 67.941406 72.898438 67.628906 C 72.933594 67.714844 72.96875 67.808594 73.011719 67.898438 C 74.019531 70.4375 73.929688 72.40625 71.65625 74.0625 C 71.078125 74.492188 70.511719 74.175781 70.261719 73.675781 L 70.199219 73.65625 C 70.101562 73.609375 69.976562 73.582031 69.894531 73.519531 C 69.851562 73.492188 69.808594 73.457031 69.761719 73.421875 C 69.671875 73.730469 69.527344 74.035156 69.300781 74.3125 C 69.113281 74.511719 68.835938 74.714844 68.71875 74.78125 L 68.597656 74.851562 C 68.53125 74.878906 68.457031 74.914062 68.382812 74.941406 C 68.234375 74.992188 68.085938 75.058594 67.929688 75.058594 C 67.632812 75.101562 67.316406 75.027344 67.058594 74.902344 C 66.84375 74.796875 66.6875 74.652344 66.546875 74.511719 C 66.5 74.570312 66.472656 74.597656 66.472656 74.601562 L 66.46875 74.601562 L 66.445312 74.617188 L 66.378906 74.679688 L 66.230469 74.789062 C 65.789062 75.074219 65.285156 75.074219 64.917969 75 C 64.539062 74.921875 64.230469 74.78125 63.945312 74.625 C 63.660156 74.460938 63.414062 74.277344 63.175781 74.058594 C 63.066406 73.964844 62.898438 73.773438 62.839844 73.703125 C 62.789062 73.628906 62.761719 73.589844 62.734375 73.539062 C 62.5625 73.753906 62.320312 73.90625 61.996094 73.945312 C 61.152344 74.042969 60.34375 73.835938 59.570312 73.460938 C 59.617188 73.558594 59.667969 73.664062 59.714844 73.765625 C 60.117188 74.914062 60.289062 76.007812 60.191406 76.863281 C 60.183594 76.960938 60.175781 77.0625 60.164062 77.152344 C 60.140625 77.238281 60.117188 77.320312 60.097656 77.386719 C 60.046875 77.535156 60.003906 77.65625 59.957031 77.761719 C 59.863281 77.960938 59.777344 78.066406 59.691406 78.058594 C 59.609375 78.054688 59.542969 77.933594 59.492188 77.714844 C 59.464844 77.609375 59.445312 77.472656 59.429688 77.320312 C 59.421875 77.246094 59.417969 77.160156 59.410156 77.078125 C 59.390625 76.996094 59.367188 76.917969 59.347656 76.828125 C 59.226562 76.179688 58.957031 75.210938 58.59375 74.195312 C 58.28125 73.425781 57.972656 72.722656 57.6875 72.148438 C 56.652344 71.230469 55.738281 70.132812 55.023438 69.253906 C 53.148438 66.984375 51.796875 64.527344 50.761719 61.878906 C 46.105469 64.0625 43.183594 68.230469 39.625 71.789062 C 36.046875 75.363281 32.230469 78.777344 29.050781 82.71875 C 25.484375 87.109375 22.210938 91.753906 19.410156 96.660156 C 18.019531 99.105469 16.75 101.617188 15.644531 104.195312 C 14.988281 105.75 14.007812 107.265625 13.753906 108.957031 C 13.578125 110.085938 13.847656 110.0625 14.527344 110.707031 C 15.5625 111.699219 16.113281 112.707031 17.753906 112.6875 C 17.816406 112.6875 17.863281 112.695312 17.917969 112.703125 C 25.832031 110.621094 33.84375 108.902344 41.558594 106.128906 C 48.8125 103.523438 55.921875 100.53125 63.175781 97.917969 C 63.328125 97.8125 63.492188 97.695312 63.660156 97.585938 C 64.503906 97.019531 65.339844 96.550781 66.015625 96.292969 C 66.667969 96.066406 67.109375 96.03125 67.175781 96.175781 C 67.253906 96.328125 66.9375 96.640625 66.40625 97.046875 C 66.191406 97.214844 65.941406 97.414062 65.65625 97.628906 C 68.664062 97.917969 71.746094 98.007812 74.386719 96.300781 C 72.054688 93.9375 68.609375 91.144531 67.121094 87.953125 C 66.527344 88.125 65.945312 88.296875 65.363281 88.476562 C 64.421875 88.765625 63.527344 89.070312 62.605469 89.339844 C 60.808594 89.921875 58.960938 90.355469 57.246094 90.660156 C 53.824219 91.226562 50.777344 91.511719 48.175781 92.195312 C 47.460938 92.332031 46.769531 92.476562 46.101562 92.617188 C 45.410156 92.722656 44.746094 92.753906 44.089844 92.824219 C 43.445312 92.859375 42.824219 92.835938 42.222656 92.84375 C 41.609375 92.835938 41.035156 92.78125 40.476562 92.753906 C 38.25 92.566406 36.363281 92.320312 34.742188 92.195312 C 33.121094 92.097656 31.738281 92 30.660156 92.132812 C 29.570312 92.257812 28.726562 92.503906 28.125 92.832031 C 27.527344 93.132812 27.125 93.433594 26.867188 93.644531 C 26.597656 93.839844 26.433594 93.921875 26.378906 93.871094 C 26.324219 93.828125 26.363281 93.671875 26.542969 93.363281 C 26.710938 93.042969 27.066406 92.59375 27.691406 92.125 C 28.304688 91.632812 29.257812 91.214844 30.46875 90.957031 C 31.691406 90.6875 33.132812 90.6875 34.816406 90.679688 C 36.5 90.714844 38.429688 90.886719 40.585938 90.984375 C 41.539062 91.027344 42.542969 91.035156 43.570312 90.972656 C 43.867188 90.183594 44.28125 89.457031 44.792969 88.847656 C 45.464844 88.03125 46.265625 87.429688 47.054688 86.984375 C 48.644531 86.097656 50.121094 85.699219 51.394531 85.308594 C 52.667969 84.941406 53.757812 84.609375 54.65625 84.234375 C 55.554688 83.859375 56.246094 83.425781 56.769531 82.972656 C 57.816406 82.054688 58.21875 81.09375 58.496094 80.5 C 58.761719 79.882812 58.917969 79.59375 59.078125 79.613281 C 59.210938 79.628906 59.332031 79.945312 59.300781 80.691406 C 59.28125 81.058594 59.203125 81.542969 58.996094 82.121094 C 58.800781 82.703125 58.421875 83.375 57.835938 84.042969 C 57.242188 84.703125 56.410156 85.324219 55.402344 85.835938 C 54.40625 86.347656 53.246094 86.761719 51.988281 87.183594 C 50.738281 87.613281 49.355469 88.046875 48.105469 88.789062 C 47.59375 89.089844 47.125 89.449219 46.714844 89.875 C 47.089844 90.011719 47.40625 90.128906 47.632812 90.28125 C 47.648438 90.285156 47.648438 90.292969 47.65625 90.292969 C 50.457031 89.511719 53.578125 89.1875 56.894531 88.601562 C 58.546875 88.296875 60.203125 87.890625 61.972656 87.324219 C 62.859375 87.058594 63.785156 86.742188 64.71875 86.445312 C 65.285156 86.265625 65.878906 86.097656 66.472656 85.917969 C 66.273438 84.660156 66.425781 83.339844 67.121094 81.957031 C 69.898438 76.46875 75.636719 70.671875 81.242188 68.097656 C 82.007812 67.753906 82.773438 67.503906 83.550781 67.324219 C 83.523438 67.117188 83.558594 66.902344 83.675781 66.675781 C 84.34375 65.371094 85.808594 64.152344 87.488281 63.351562 Z M 93.207031 65.957031 C 93.339844 65.914062 93.46875 65.875 93.597656 65.832031 C 92.609375 63.046875 88.011719 65.015625 86.140625 66.921875 C 88.5 66.6875 90.882812 66.6875 93.207031 65.957031 Z M 97.308594 80.988281 C 101.324219 76.53125 94.75 75.660156 92.414062 74.199219 C 91.117188 73.394531 91.546875 71.457031 90.171875 70.503906 C 89.902344 70.324219 89.789062 69.910156 90.058594 69.667969 C 89.933594 69.289062 89.796875 68.914062 89.664062 68.535156 C 87.792969 68.644531 85.898438 68.742188 84.164062 69.300781 C 78.5625 71.085938 74.578125 75.496094 70.976562 79.960938 C 68.191406 83.410156 67.964844 86.628906 71.144531 90.023438 C 72.886719 91.863281 74.769531 93.550781 76.480469 95.414062 C 80.785156 97.738281 86.402344 97.523438 91.179688 97.804688 C 92.4375 97.882812 93.710938 97.9375 94.992188 97.964844 C 96.375 97.5625 99.195312 96.488281 96.84375 94.609375 C 96.300781 94.175781 95.765625 93.75 95.292969 93.238281 C 94.703125 92.617188 94.449219 91.765625 94.65625 90.9375 C 94.722656 90.6875 94.710938 90.273438 94.679688 89.894531 L 94.632812 89.535156 L 94.660156 89.535156 C 94.566406 88.828125 94.40625 87.585938 94.9375 87.066406 C 95.589844 86.4375 97.261719 86.125 96.523438 84.722656 C 96.410156 84.507812 96.164062 84.175781 96.148438 83.886719 C 96.085938 82.65625 96.496094 81.894531 97.308594 80.988281 Z M 100.089844 64.128906 C 101 64.015625 101.933594 63.980469 102.925781 64.035156 C 102.210938 62.96875 100.894531 62.203125 99.621094 61.683594 C 99.796875 62.492188 99.960938 63.308594 100.089844 64.128906 Z M 111.332031 29.144531 C 107.992188 28.824219 104.632812 29.191406 101.308594 29.527344 C 100.164062 32.875 99.222656 35.4375 96.625 38.144531 C 93.882812 40.996094 90.578125 42.96875 87.703125 45.65625 C 85.828125 47.410156 84.0625 49.574219 84.148438 52.332031 C 84.199219 53.910156 84.34375 55.476562 84.28125 57.066406 C 84.246094 58.0625 83.957031 59.390625 83.191406 60.117188 C 82.492188 60.792969 80.921875 61.558594 80.589844 62.550781 C 82.054688 63.613281 84.234375 62.714844 85.214844 61.386719 C 85.664062 60.785156 86.15625 59.777344 86.230469 59.042969 C 86.328125 58.027344 85.777344 57.042969 85.792969 56.03125 C 85.808594 55.285156 85.949219 54.839844 86.140625 54.8125 C 86.347656 54.78125 86.554688 55.214844 86.796875 55.886719 C 87.03125 56.546875 87.316406 57.46875 87.601562 58.484375 C 87.667969 58.699219 87.738281 58.914062 87.800781 59.125 C 87.882812 59.253906 87.9375 59.417969 87.945312 59.601562 C 88.007812 59.785156 88.0625 59.964844 88.117188 60.132812 C 88.527344 61 89.023438 61.808594 89.539062 62.617188 C 92.136719 61.988281 94.738281 62.515625 95.636719 65.175781 C 96.4375 64.933594 97.21875 64.703125 98.011719 64.511719 C 97.265625 59.984375 95.773438 55.800781 93.859375 51.628906 C 93.804688 51.496094 93.773438 51.367188 93.765625 51.238281 C 93.667969 50.984375 93.671875 50.6875 93.859375 50.375 C 94.730469 48.957031 95.898438 47.980469 97.289062 47.074219 C 99.527344 45.613281 101.171875 43.933594 102.96875 41.964844 C 106.484375 38.109375 109.628906 34.089844 111.332031 29.144531 Z M 117.003906 87.460938 C 118.09375 83.460938 117.710938 78.09375 116.96875 74.050781 C 116.96875 74.035156 116.96875 74.023438 116.96875 74.007812 C 115.332031 71.824219 113.589844 68.859375 110.976562 67.714844 C 108.304688 66.539062 103.796875 65.804688 100.945312 66.039062 C 98.027344 66.28125 95.589844 67.828125 92.746094 68.253906 C 92.371094 68.3125 91.996094 68.355469 91.613281 68.394531 C 93.042969 69.371094 94.757812 69.605469 96.445312 69.488281 C 97.273438 69.40625 98.101562 69.296875 98.851562 69.191406 C 99.578125 69.0625 100.257812 68.960938 100.894531 68.792969 C 101.523438 68.652344 102.101562 68.523438 102.636719 68.425781 C 103.148438 68.320312 103.597656 68.230469 103.964844 68.222656 C 104.695312 68.183594 105.109375 68.195312 105.117188 68.273438 C 105.128906 68.359375 104.746094 68.5 104.039062 68.6875 C 103.675781 68.761719 103.25 68.90625 102.777344 69.066406 C 102.285156 69.226562 101.726562 69.398438 101.109375 69.597656 C 100.496094 69.8125 99.769531 69.96875 98.996094 70.144531 C 98.226562 70.296875 97.433594 70.414062 96.554688 70.527344 C 95.679688 70.621094 94.609375 70.65625 93.738281 70.519531 C 92.988281 70.40625 92.261719 70.136719 91.601562 69.777344 C 91.621094 70.011719 91.667969 70.222656 91.757812 70.421875 C 91.863281 70.550781 91.933594 70.671875 91.988281 70.789062 C 92.042969 70.855469 92.078125 70.933594 92.152344 70.996094 C 92.691406 71.519531 93.480469 71.824219 94.253906 72.03125 C 95.828125 72.414062 97.367188 72.460938 98.636719 72.488281 C 101.1875 72.503906 102.796875 72.398438 102.808594 72.585938 C 102.808594 72.730469 101.261719 73.128906 98.65625 73.332031 C 97.351562 73.414062 95.773438 73.460938 94 73.101562 C 93.578125 73 93.128906 72.875 92.679688 72.6875 C 92.859375 72.980469 93.085938 73.199219 93.339844 73.371094 C 93.425781 73.414062 93.515625 73.460938 93.609375 73.496094 C 94.289062 73.78125 95.183594 73.945312 96.226562 74.183594 C 96.480469 74.242188 96.769531 74.320312 97.027344 74.398438 C 97.289062 74.476562 97.558594 74.554688 97.839844 74.660156 C 98.414062 74.859375 98.949219 75.078125 99.484375 75.226562 L 99.890625 75.339844 C 99.960938 75.375 100.167969 75.390625 100.292969 75.417969 C 100.578125 75.460938 100.882812 75.53125 101.136719 75.542969 C 101.40625 75.574219 101.667969 75.605469 101.933594 75.625 C 102.195312 75.640625 102.457031 75.652344 102.714844 75.667969 C 103.746094 75.710938 104.683594 75.710938 105.484375 75.730469 C 107.074219 75.757812 108.070312 75.910156 108.070312 76.070312 C 108.0625 76.242188 107.101562 76.386719 105.519531 76.574219 C 104.726562 76.664062 103.777344 76.75 102.699219 76.773438 C 102.429688 76.765625 102.152344 76.765625 101.871094 76.765625 C 101.578125 76.746094 101.28125 76.730469 100.984375 76.707031 C 100.667969 76.691406 100.398438 76.628906 100.101562 76.59375 C 99.941406 76.558594 99.839844 76.566406 99.628906 76.511719 L 99.160156 76.375 C 98.917969 76.3125 98.699219 76.234375 98.480469 76.152344 C 99.347656 77.160156 99.90625 78.429688 99.375 79.71875 C 99.300781 79.882812 99.1875 80.078125 99.0625 80.292969 C 99.167969 80.230469 99.28125 80.175781 99.386719 80.117188 C 100.625 79.484375 101.78125 79.101562 102.738281 78.8125 C 104.683594 78.265625 105.828125 78.03125 105.886719 78.140625 C 105.960938 78.300781 104.832031 78.8125 103.003906 79.542969 C 102.097656 79.925781 101.003906 80.378906 99.882812 81.023438 C 99.339844 81.347656 98.773438 81.71875 98.316406 82.1875 C 98.070312 82.433594 97.871094 82.703125 97.75 82.996094 C 98.253906 82.890625 98.757812 82.851562 99.230469 82.816406 C 101.054688 82.675781 102.816406 82.53125 104.371094 82.3125 C 105.921875 82.089844 107.296875 81.765625 108.386719 81.355469 C 109.480469 80.949219 110.316406 80.457031 110.828125 80.070312 C 111.367188 79.691406 111.664062 79.421875 111.738281 79.492188 C 111.777344 79.550781 111.621094 79.890625 111.152344 80.410156 C 110.671875 80.953125 109.867188 81.585938 108.726562 82.128906 C 107.589844 82.683594 106.148438 83.097656 104.550781 83.402344 C 102.933594 83.695312 101.171875 83.867188 99.3125 84.011719 C 98.636719 84.050781 98.027344 84.113281 97.503906 84.269531 C 97.773438 84.660156 98.144531 85.183594 98.035156 85.664062 C 97.800781 86.652344 97.550781 86.976562 96.601562 87.378906 C 95.871094 87.695312 95.929688 88.917969 95.914062 89.84375 C 96.59375 89.875 97.28125 89.90625 97.992188 89.894531 C 102.386719 89.691406 106.183594 88.125 108.746094 86.726562 C 109.996094 86.007812 111.039062 85.433594 111.738281 84.972656 C 112.449219 84.535156 112.863281 84.335938 112.914062 84.398438 C 112.960938 84.460938 112.644531 84.800781 112.015625 85.34375 C 111.40625 85.914062 110.417969 86.609375 109.167969 87.460938 C 108.519531 87.832031 107.804688 88.253906 107.03125 88.675781 C 106.625 88.863281 106.207031 89.050781 105.773438 89.242188 C 105.339844 89.4375 104.910156 89.664062 104.421875 89.796875 C 103.945312 89.960938 103.457031 90.121094 102.960938 90.285156 C 102.464844 90.46875 101.925781 90.527344 101.394531 90.652344 C 100.328125 90.9375 99.1875 90.984375 98.035156 91.085938 C 97.410156 91.101562 96.800781 91.074219 96.1875 91.042969 C 96.410156 91.566406 96.714844 92.027344 97.128906 92.375 C 97.410156 92.644531 97.765625 92.816406 98.109375 92.996094 C 98.480469 93.128906 98.835938 93.28125 99.222656 93.347656 C 100.734375 93.679688 102.203125 93.570312 103.398438 93.46875 C 105.800781 93.210938 107.261719 92.851562 107.300781 93.023438 C 107.339844 93.132812 105.964844 93.765625 103.507812 94.238281 C 102.277344 94.453125 100.757812 94.671875 99.015625 94.359375 C 98.644531 94.316406 98.277344 94.191406 97.890625 94.070312 C 98.488281 94.621094 98.925781 95.230469 98.746094 96.140625 C 98.714844 96.308594 98.65625 96.464844 98.601562 96.613281 C 99.546875 96.195312 100.585938 95.886719 101.640625 95.65625 C 103.3125 95.304688 104.894531 95.082031 106.277344 94.773438 C 107.667969 94.460938 108.871094 94.082031 109.777344 93.550781 C 110.027344 93.453125 110.210938 93.28125 110.410156 93.164062 C 110.605469 93.03125 110.8125 92.921875 110.957031 92.78125 C 111.253906 92.496094 111.558594 92.3125 111.757812 92.0625 C 112.171875 91.601562 112.4375 91.378906 112.5 91.425781 C 112.566406 91.46875 112.4375 91.792969 112.132812 92.332031 C 112.007812 92.617188 111.703125 92.898438 111.414062 93.261719 C 111.265625 93.453125 111.066406 93.597656 110.875 93.765625 C 110.671875 93.929688 110.472656 94.132812 110.222656 94.273438 C 109.277344 94.953125 107.976562 95.457031 106.539062 95.84375 C 105.101562 96.230469 103.507812 96.480469 101.898438 96.824219 C 100.632812 97.101562 99.464844 97.457031 98.457031 97.945312 C 101.503906 97.820312 104.539062 97.394531 107.390625 96.390625 C 111.621094 94.882812 115.746094 92.023438 117.003906 87.460938 Z M 130.265625 76.628906 C 130.738281 79.628906 131.171875 83.84375 128.925781 86.320312 C 126.117188 89.402344 122.4375 87.96875 119.113281 86.652344 C 117.992188 91.285156 115.269531 95.222656 109.992188 97.65625 C 104.28125 100.277344 97.324219 100.390625 91.179688 99.9375 C 86.148438 99.5625 80.539062 99.8125 75.917969 97.53125 C 75.851562 97.753906 75.71875 97.964844 75.472656 98.132812 C 72.316406 100.179688 68.609375 100.066406 65.007812 99.6875 C 64.90625 99.679688 64.800781 99.652344 64.710938 99.617188 C 57.121094 102.3125 49.71875 105.515625 42.121094 108.175781 C 34.351562 110.90625 26.34375 112.6875 18.390625 114.769531 C 18.222656 114.816406 18.058594 114.816406 17.90625 114.789062 C 17.855469 114.796875 17.808594 114.8125 17.753906 114.8125 C 15.652344 114.839844 14.664062 113.636719 13.074219 112.566406 C 12.515625 112.191406 11.96875 112.054688 11.671875 111.402344 C 11.25 110.488281 11.683594 109.347656 11.859375 108.4375 C 12.175781 106.773438 12.945312 105.140625 13.613281 103.59375 C 15.042969 100.28125 16.777344 97.109375 18.722656 94.070312 C 21.441406 89.789062 24.128906 85.289062 27.398438 81.390625 C 26.589844 80.816406 26.058594 79.980469 25.449219 79.199219 C 23.175781 80.449219 19.488281 80.363281 17.90625 78.28125 C 15.476562 79.28125 12.996094 78.175781 10.59375 77.183594 C 10.449219 77.125 10.328125 77.050781 10.234375 76.949219 C 9.597656 77.125 8.851562 76.808594 8.929688 75.984375 C 9.398438 70.585938 11.117188 65.511719 12.417969 60.289062 C 13.441406 56.15625 14.425781 51.785156 18.203125 49.269531 C 25.632812 44.320312 35.277344 42.191406 44.125 42.304688 C 44.054688 42.136719 43.992188 41.976562 43.929688 41.820312 C 42.113281 37.597656 40.617188 33.359375 40.199219 28.769531 C 40.199219 28.753906 40.199219 28.742188 40.199219 28.71875 C 40.011719 28.300781 40.074219 27.808594 40.613281 27.554688 C 44.105469 25.867188 49.058594 26.761719 52.605469 26.761719 C 52.652344 26.761719 52.699219 26.769531 52.742188 26.769531 C 53.285156 26.515625 54.007812 26.664062 54.164062 27.421875 C 55.402344 33.664062 58.125 39.128906 61.105469 44.515625 C 61.167969 44.527344 61.242188 44.542969 61.304688 44.570312 C 66.347656 46.644531 71.015625 50.742188 72.636719 56.078125 C 75.816406 55.902344 78.996094 55.664062 82.175781 55.769531 C 82.183594 55.554688 82.183594 55.332031 82.167969 55.101562 C 81.964844 51.808594 82.140625 49.199219 84.082031 46.429688 C 86.273438 43.304688 89.949219 41.601562 92.679688 39.050781 C 94.363281 37.476562 96.667969 35.613281 97.671875 33.511719 C 98.480469 31.808594 98.90625 29.988281 99.511719 28.222656 C 99.699219 27.671875 100.183594 27.457031 100.640625 27.492188 C 100.722656 27.46875 100.804688 27.449219 100.890625 27.441406 C 104.929688 27.046875 108.925781 26.632812 112.960938 27.207031 C 113.542969 27.296875 113.769531 27.726562 113.726562 28.175781 C 113.761719 28.328125 113.761719 28.507812 113.707031 28.699219 C 112.242188 33.636719 109.445312 37.914062 106.027344 41.738281 C 104.378906 43.59375 102.769531 45.640625 100.832031 47.210938 C 99.203125 48.550781 97.191406 49.359375 95.941406 51.101562 C 97.140625 53.769531 98.195312 56.445312 98.988281 59.210938 C 101.578125 60 104.492188 61.601562 105.378906 64.269531 C 108.253906 64.601562 111.210938 65.164062 113.5625 66.847656 C 114.613281 67.601562 115.503906 68.5625 116.328125 69.597656 C 117.890625 66.921875 121.441406 65.582031 124.367188 67.253906 C 127.820312 69.226562 129.65625 72.785156 130.265625 76.628906 Z M 67.101562 73.179688 C 67.109375 73.179688 67.121094 73.207031 67.121094 73.207031 L 67.171875 73.292969 C 67.242188 73.414062 67.328125 73.492188 67.40625 73.582031 C 67.574219 73.746094 67.683594 73.773438 67.773438 73.746094 C 68.574219 73.601562 68.773438 72.171875 68.09375 70.773438 C 67.9375 70.414062 67.765625 70.070312 67.597656 69.703125 C 67.417969 69.324219 67.234375 68.949219 67.101562 68.59375 C 66.796875 67.851562 66.5 67.226562 66.230469 66.574219 C 65.980469 65.929688 65.625 65.355469 65.363281 64.789062 C 65.09375 64.226562 64.816406 63.703125 64.578125 63.21875 C 63.597656 61.296875 63.113281 60.039062 63.28125 59.949219 C 63.460938 59.847656 64.253906 60.933594 65.457031 62.71875 C 65.753906 63.164062 66.078125 63.65625 66.40625 64.214844 C 66.722656 64.773438 67.113281 65.328125 67.417969 66 C 67.710938 66.601562 68.042969 67.269531 68.328125 67.914062 C 68.574219 68.3125 68.835938 68.734375 69.121094 69.203125 C 69.46875 69.792969 70.324219 72.273438 70.914062 72.121094 C 73.824219 71.386719 67.785156 61.761719 67.152344 60.4375 C 65.214844 56.417969 63.25 52.386719 60.96875 48.546875 C 57.234375 42.242188 53.902344 36.074219 52.308594 28.886719 C 50.859375 28.886719 48.578125 28.886719 46.671875 28.847656 C 45.214844 28.8125 43.75 28.699219 42.375 29.179688 C 43.296875 37.699219 48.339844 45.027344 50.464844 53.238281 C 51.546875 57.433594 52.414062 62.046875 54.9375 65.667969 C 56.253906 67.558594 58.984375 71.960938 61.820312 71.816406 C 61.820312 71.371094 61.523438 70.976562 61.273438 70.542969 L 61.117188 70.222656 L 61.042969 70.070312 L 61.019531 70.039062 L 60.96875 69.960938 C 60.839844 69.769531 60.722656 69.578125 60.59375 69.386719 C 60.351562 69.003906 60.109375 68.636719 59.886719 68.273438 C 59.429688 67.550781 59.011719 66.882812 58.621094 66.269531 C 57.109375 63.804688 56.246094 62.230469 56.410156 62.117188 C 56.582031 62.011719 57.738281 63.390625 59.472656 65.707031 C 59.902344 66.289062 60.371094 66.929688 60.875 67.617188 C 61.125 67.960938 61.378906 68.320312 61.648438 68.6875 C 61.773438 68.871094 61.910156 69.0625 62.042969 69.246094 L 62.097656 69.316406 L 62.125 69.359375 L 62.140625 69.371094 L 62.175781 69.4375 L 62.257812 69.585938 L 62.4375 69.898438 C 62.6875 70.28125 62.886719 70.816406 63.109375 71.285156 C 63.308594 71.71875 63.515625 72.171875 63.761719 72.535156 C 63.820312 72.613281 63.902344 72.753906 63.921875 72.796875 C 64.03125 72.921875 64.039062 72.921875 64.128906 73.007812 C 64.289062 73.152344 64.464844 73.277344 64.65625 73.386719 C 65.007812 73.601562 65.394531 73.640625 65.449219 73.582031 L 65.511719 73.484375 C 65.527344 73.460938 65.5625 73.421875 65.554688 73.40625 L 65.542969 73.394531 C 65.53125 73.378906 65.53125 73.378906 65.542969 73.371094 L 65.546875 73.125 L 65.511719 72.804688 C 65.429688 72.363281 65.269531 71.902344 65.085938 71.449219 C 64.703125 70.542969 64.242188 69.667969 63.777344 68.859375 C 62.789062 67.183594 62.015625 65.667969 61.332031 64.386719 C 59.996094 61.808594 59.25 60.175781 59.429688 60.082031 C 59.601562 59.984375 60.648438 61.441406 62.214844 63.882812 C 62.980469 65.105469 63.894531 66.558594 64.910156 68.175781 C 65.429688 69.003906 65.941406 69.898438 66.382812 70.898438 C 66.597656 71.410156 66.796875 71.949219 66.914062 72.5625 C 66.929688 72.667969 66.945312 72.78125 66.957031 72.894531 C 66.964844 72.902344 66.972656 72.917969 66.976562 72.929688 L 67.085938 73.144531 Z M 119.652344 78.308594 C 119.816406 80.449219 119.789062 82.546875 119.511719 84.550781 C 122.007812 85.621094 125.980469 87.570312 127.589844 84.535156 C 128.476562 82.863281 128.613281 80.929688 128.449219 79.074219 C 128.253906 76.96875 127.902344 74.535156 126.789062 72.683594 C 125.269531 70.136719 120.921875 67.089844 118.722656 69.648438 C 119.105469 69.640625 119.5 69.683594 119.863281 69.765625 C 121.039062 70.027344 122.011719 70.574219 122.820312 71.140625 C 123.625 71.71875 124.261719 72.34375 124.722656 72.9375 C 125.179688 73.527344 125.457031 74.085938 125.570312 74.503906 C 125.683594 74.941406 125.628906 75.164062 125.558594 75.183594 C 125.394531 75.199219 125.101562 74.425781 124.089844 73.503906 C 123.601562 73.035156 122.960938 72.527344 122.207031 72.050781 C 121.453125 71.582031 120.5625 71.140625 119.609375 70.933594 C 119 70.789062 118.441406 70.808594 117.972656 70.96875 C 117.972656 70.980469 117.964844 70.988281 117.957031 71.003906 C 119.105469 71.328125 120.0625 71.867188 120.871094 72.40625 C 121.316406 72.71875 121.730469 73.015625 122.078125 73.332031 C 122.445312 73.640625 122.753906 73.953125 123.023438 74.234375 C 124.125 75.382812 124.59375 76.226562 124.496094 76.304688 C 124.367188 76.410156 123.699219 75.75 122.511719 74.804688 C 121.660156 74.140625 120.503906 73.261719 119.089844 72.640625 C 119.121094 72.675781 119.148438 72.710938 119.171875 72.753906 C 119.558594 73.371094 119.941406 73.980469 120.3125 74.5625 C 120.714844 75.121094 121.109375 75.667969 121.484375 76.183594 C 122.214844 77.222656 122.871094 78.167969 123.425781 78.953125 C 124.539062 80.542969 125.152344 81.578125 125.027344 81.683594 C 124.890625 81.785156 124.03125 80.929688 122.761719 79.46875 C 122.113281 78.757812 121.382812 77.851562 120.589844 76.835938 C 120.507812 76.738281 120.425781 76.621094 120.347656 76.523438 C 120.496094 76.988281 120.652344 77.480469 120.808594 77.984375 C 121.070312 78.992188 121.199219 79.882812 121.375 80.691406 C 121.542969 81.488281 121.730469 82.191406 121.953125 82.746094 C 122.160156 83.292969 122.4375 83.679688 122.636719 83.894531 C 122.71875 84.011719 122.863281 84.101562 122.925781 84.167969 C 122.996094 84.238281 123.035156 84.296875 123.011719 84.339844 C 122.996094 84.375 122.933594 84.398438 122.835938 84.390625 C 122.726562 84.390625 122.601562 84.398438 122.402344 84.289062 C 122 84.128906 121.550781 83.722656 121.199219 83.128906 C 120.453125 81.957031 120.09375 80.105469 119.652344 78.308594 " fill-opacity="1" fill-rule="nonzero"/></g><path fill="#ffffff" d="M 81 89.617188 C 81.015625 89.707031 80.75 89.824219 80.261719 89.96875 C 79.78125 90.109375 79.058594 90.246094 78.292969 90.554688 C 78.109375 90.640625 77.925781 90.730469 77.757812 90.847656 L 77.6875 90.886719 L 77.664062 90.917969 C 77.613281 90.957031 77.5625 91 77.554688 91.019531 C 77.523438 91.066406 77.449219 91.164062 77.398438 91.25 C 77.273438 91.433594 77.207031 91.683594 76.929688 92.023438 C 76.789062 92.1875 76.527344 92.367188 76.257812 92.402344 C 76.011719 92.4375 75.773438 92.402344 75.601562 92.355469 L 75.527344 92.332031 L 75.492188 92.324219 C 75.464844 92.320312 75.386719 92.285156 75.386719 92.285156 L 75.285156 92.234375 L 75.1875 92.1875 L 75.035156 92.078125 L 74.875 91.964844 L 74.777344 91.855469 C 74.703125 91.789062 74.640625 91.722656 74.585938 91.65625 C 74.359375 91.386719 74.1875 91.121094 74.019531 90.957031 L 73.992188 90.929688 L 73.976562 90.917969 L 73.902344 90.859375 C 73.832031 90.8125 73.769531 90.765625 73.722656 90.738281 L 73.320312 90.507812 C 73.027344 90.328125 72.617188 90.042969 72.382812 89.605469 C 71.988281 88.855469 72.027344 87.9375 72.140625 87.265625 C 72.25 86.558594 72.523438 85.925781 72.816406 85.351562 C 72.996094 85.070312 73.164062 84.792969 73.402344 84.550781 C 73.457031 84.480469 73.488281 84.4375 73.578125 84.355469 L 73.734375 84.21875 C 73.777344 84.175781 73.863281 84.121094 73.949219 84.070312 C 74.027344 84.011719 74.097656 83.964844 74.195312 83.929688 C 74.367188 83.84375 74.597656 83.796875 74.8125 83.816406 C 75.039062 83.835938 75.203125 83.914062 75.359375 84 C 75.628906 84.167969 75.816406 84.363281 75.980469 84.53125 C 76.128906 84.695312 76.28125 84.863281 76.414062 85.035156 C 76.542969 85.199219 76.648438 85.34375 76.753906 85.453125 C 76.957031 85.679688 77.171875 85.828125 77.386719 85.925781 C 77.8125 86.125 78.097656 86.203125 78.082031 86.304688 C 78.0625 86.367188 77.792969 86.449219 77.246094 86.367188 C 76.984375 86.339844 76.625 86.195312 76.308594 85.953125 C 76.148438 85.828125 76.003906 85.683594 75.851562 85.550781 C 75.71875 85.421875 75.570312 85.289062 75.394531 85.140625 C 75.230469 85.007812 75.070312 84.886719 74.917969 84.804688 C 74.757812 84.75 74.742188 84.757812 74.621094 84.820312 C 74.597656 84.828125 74.566406 84.855469 74.535156 84.886719 C 74.507812 84.910156 74.476562 84.921875 74.421875 84.976562 L 74.273438 85.117188 C 74.273438 85.132812 74.21875 85.207031 74.1875 85.246094 C 74.039062 85.414062 73.917969 85.644531 73.792969 85.871094 C 73.351562 86.8125 73.027344 88.109375 73.425781 89.023438 C 73.515625 89.195312 73.679688 89.320312 73.941406 89.484375 C 74.074219 89.570312 74.210938 89.640625 74.386719 89.761719 C 74.488281 89.816406 74.550781 89.875 74.613281 89.914062 L 74.703125 89.996094 L 74.757812 90.03125 C 74.777344 90.050781 74.808594 90.078125 74.808594 90.078125 L 74.863281 90.136719 C 75.179688 90.480469 75.359375 91.386719 75.910156 91.371094 C 76.308594 91.355469 76.742188 90.417969 77.066406 90.183594 L 77.101562 90.15625 L 77.160156 90.113281 L 77.183594 90.101562 L 77.28125 90.058594 C 77.535156 89.914062 77.78125 89.832031 78.015625 89.761719 C 78.960938 89.507812 79.695312 89.511719 80.199219 89.507812 C 80.703125 89.507812 80.992188 89.539062 81 89.617188 " fill-opacity="1" fill-rule="nonzero"/><path fill="#ffffff" d="M 66.472656 74.601562 C 66.460938 74.609375 66.46875 74.609375 66.46875 74.601562 L 66.472656 74.601562 " fill-opacity="1" fill-rule="nonzero"/><path fill="#ffffff" d="M 30.632812 58.96875 C 30.746094 59.09375 30.199219 59.820312 29.171875 60.871094 C 28.152344 61.917969 26.660156 63.257812 25.117188 64.796875 C 24.34375 65.570312 23.648438 66.324219 23.046875 67.042969 C 22.472656 67.773438 21.960938 68.4375 21.601562 69.039062 C 20.855469 70.230469 20.53125 71.066406 20.351562 71.023438 C 20.210938 70.988281 20.253906 70.039062 20.855469 68.652344 C 21.140625 67.949219 21.617188 67.183594 22.175781 66.371094 C 22.761719 65.574219 23.472656 64.753906 24.265625 63.953125 C 25.867188 62.355469 27.457031 61.109375 28.609375 60.234375 C 29.765625 59.367188 30.515625 58.851562 30.632812 58.96875 " fill-opacity="1" fill-rule="nonzero"/><path fill="#ffffff" d="M 26.910156 108.667969 C 26.945312 108.824219 26.363281 109.148438 25.363281 109.597656 C 24.359375 110.027344 22.925781 110.566406 21.238281 110.871094 C 20.386719 111.015625 19.558594 111.09375 18.78125 111.019531 C 18.007812 110.957031 17.277344 110.730469 16.757812 110.339844 C 16.234375 109.960938 16.003906 109.460938 15.941406 109.109375 C 15.886719 108.777344 15.941406 108.605469 16.007812 108.582031 C 16.09375 108.546875 16.203125 108.714844 16.375 108.945312 C 16.53125 109.148438 16.800781 109.445312 17.207031 109.625 C 18.015625 110.027344 19.460938 109.972656 21.027344 109.695312 C 22.605469 109.410156 24.039062 109.011719 25.101562 108.796875 C 26.15625 108.554688 26.875 108.5 26.910156 108.667969 " fill-opacity="1" fill-rule="nonzero"/></svg>