<svg xmlns="http://www.w3.org/2000/svg" xmlns:xlink="http://www.w3.org/1999/xlink" width="188" zoomAndPan="magnify" viewBox="0 0 141.12 141.750002" height="188" preserveAspectRatio="xMidYMid meet" version="1.0"><defs><clipPath id="feae011452"><path d="M 21.175781 15 L 119 15 L 119 123.3125 L 21.175781 123.3125 Z M 21.175781 15 " clip-rule="nonzero"/></clipPath><clipPath id="4d4809395f"><path d="M 16 37 L 129 37 L 129 132 L 16 132 Z M 16 37 " clip-rule="nonzero"/></clipPath><clipPath id="d9fe09eb65"><path d="M 16.722656 127.882812 L 125.488281 37.203125 L 128.808594 41.1875 L 20.042969 131.871094 Z M 16.722656 127.882812 " clip-rule="nonzero"/></clipPath><clipPath id="69d80a80dd"><path d="M 16.722656 127.882812 L 125.488281 37.203125 L 128.808594 41.1875 L 20.042969 131.871094 Z M 16.722656 127.882812 " clip-rule="nonzero"/></clipPath><clipPath id="09df353586"><path d="M 16.722656 127.882812 L 125.488281 37.203125 L 128.808594 41.1875 L 20.042969 131.871094 Z M 16.722656 127.882812 " clip-rule="nonzero"/></clipPath><clipPath id="bc287bd42d"><path d="M 13 36 L 125 36 L 125 133 L 13 133 Z M 13 36 " clip-rule="nonzero"/></clipPath><clipPath id="04de0c2ded"><path d="M 16.289062 36.863281 L 124.234375 128.523438 L 120.875 132.476562 L 12.929688 40.820312 Z M 16.289062 36.863281 " clip-rule="nonzero"/></clipPath><clipPath id="5c57f9968b"><path d="M 16.289062 36.863281 L 124.234375 128.523438 L 120.875 132.476562 L 12.929688 40.820312 Z M 16.289062 36.863281 " clip-rule="nonzero"/></clipPath><clipPath id="49d9156f69"><path d="M 16.289062 36.863281 L 124.234375 128.523438 L 120.875 132.476562 L 12.929688 40.820312 Z M 16.289062 36.863281 " clip-rule="nonzero"/></clipPath></defs><g clip-path="url(#feae011452)"><path fill="#ffffff" d="M 117.222656 43.015625 L 90.109375 43.015625 C 96.554688 40.421875 103.292969 35.957031 108.230469 28.242188 C 108.746094 27.429688 108.5 26.347656 107.6875 25.828125 C 106.878906 25.308594 105.796875 25.558594 105.277344 26.371094 C 98.289062 37.332031 86.957031 41.097656 79.066406 42.382812 C 84.882812 39.089844 91.734375 34.0625 92.679688 28.105469 C 93.242188 24.542969 91.710938 21.207031 88.082031 18.183594 C 84.453125 15.136719 81.074219 14.324219 78.074219 15.746094 C 73.839844 17.730469 71.449219 24.023438 70.097656 30.25 C 68.746094 24.023438 66.355469 17.730469 62.121094 15.746094 C 59.121094 14.347656 55.765625 15.160156 52.113281 18.183594 C 48.484375 21.207031 46.953125 24.519531 47.515625 28.105469 C 48.484375 34.085938 55.335938 39.113281 61.152344 42.40625 C 53.261719 41.144531 41.925781 37.378906 34.894531 26.371094 C 34.378906 25.558594 33.296875 25.308594 32.484375 25.828125 C 31.671875 26.347656 31.425781 27.429688 31.945312 28.242188 C 36.855469 35.980469 43.59375 40.421875 50.0625 43.015625 L 22.996094 43.015625 C 22.027344 43.015625 21.261719 43.804688 21.261719 44.753906 L 21.261719 69.203125 C 21.261719 70.171875 22.050781 70.941406 22.996094 70.941406 L 26.488281 70.941406 L 26.488281 121.574219 C 26.488281 122.546875 27.277344 123.3125 28.226562 123.3125 L 111.96875 123.3125 C 112.941406 123.3125 113.707031 122.523438 113.707031 121.574219 L 113.707031 70.960938 L 117.199219 70.960938 C 118.167969 70.960938 118.933594 70.171875 118.933594 69.226562 L 118.933594 44.753906 C 118.957031 43.804688 118.191406 43.015625 117.222656 43.015625 Z M 79.5625 18.90625 C 80.015625 18.703125 80.507812 18.589844 81.027344 18.589844 C 82.425781 18.589844 84.023438 19.355469 85.851562 20.867188 C 88.488281 23.054688 89.59375 25.242188 89.230469 27.542969 C 88.285156 33.453125 78.03125 39.292969 71.96875 42.070312 C 72.441406 35.144531 74.515625 21.273438 79.5625 18.90625 Z M 50.988281 27.542969 C 50.625 25.242188 51.730469 23.078125 54.367188 20.867188 C 56.191406 19.355469 57.816406 18.589844 59.191406 18.589844 C 59.707031 18.589844 60.203125 18.703125 60.65625 18.90625 C 65.726562 21.273438 67.777344 35.167969 68.25 42.070312 C 62.1875 39.292969 51.933594 33.453125 50.988281 27.542969 Z M 24.753906 67.464844 L 24.753906 46.511719 L 59.640625 46.511719 L 59.640625 67.464844 Z M 29.984375 70.960938 L 59.640625 70.960938 L 59.640625 119.863281 L 29.984375 119.863281 Z M 63.132812 119.839844 L 63.132812 46.511719 L 67.777344 46.511719 C 67.957031 46.511719 68.160156 46.511719 68.339844 46.511719 C 68.632812 46.511719 68.902344 46.511719 69.128906 46.511719 L 71.113281 46.511719 C 71.335938 46.511719 71.609375 46.511719 71.902344 46.511719 C 72.058594 46.511719 72.285156 46.511719 72.464844 46.511719 L 77.105469 46.511719 L 77.105469 119.839844 Z M 80.578125 119.839844 L 80.578125 70.960938 L 110.234375 70.960938 L 110.234375 119.863281 L 80.578125 119.863281 Z M 115.464844 67.464844 L 80.578125 67.464844 L 80.578125 46.511719 L 115.464844 46.511719 Z M 115.464844 67.464844 " fill-opacity="1" fill-rule="nonzero"/></g><g clip-path="url(#4d4809395f)"><g clip-path="url(#d9fe09eb65)"><g clip-path="url(#69d80a80dd)"><g clip-path="url(#09df353586)"><path fill="#ff0000" d="M 16.859375 127.769531 L 20.164062 131.773438 L 128.695312 41.285156 L 125.371094 37.300781 Z M 16.859375 127.769531 " fill-opacity="1" fill-rule="nonzero"/></g></g></g></g><g clip-path="url(#bc287bd42d)"><g clip-path="url(#04de0c2ded)"><g clip-path="url(#5c57f9968b)"><g clip-path="url(#49d9156f69)"><path fill="#ff0000" d="M 16.425781 36.980469 L 13.046875 40.921875 L 120.757812 132.378906 L 124.117188 128.425781 Z M 16.425781 36.980469 " fill-opacity="1" fill-rule="nonzero"/></g></g></g></g></svg>