<svg xmlns="http://www.w3.org/2000/svg" xmlns:xlink="http://www.w3.org/1999/xlink" width="188" zoomAndPan="magnify" viewBox="0 0 141.12 141.750002" height="188" preserveAspectRatio="xMidYMid meet" version="1.0"><defs><clipPath id="6cdfcede41"><path d="M 12.265625 12.578125 L 127.925781 12.578125 L 127.925781 128.238281 L 12.265625 128.238281 Z M 12.265625 12.578125 " clip-rule="nonzero"/></clipPath></defs><path fill="#ffffff" d="M 62.039062 44.148438 C 61.84375 44.289062 61.476562 44.785156 60.78125 46.269531 L 79.488281 46.269531 C 78.796875 44.785156 78.425781 44.289062 78.234375 44.148438 Z M 62.039062 44.148438 " fill-opacity="1" fill-rule="evenodd"/><path fill="#ffffff" d="M 80.695312 47.796875 L 59.570312 47.796875 C 59.304688 47.796875 59.058594 47.660156 58.921875 47.4375 C 58.785156 47.210938 58.773438 46.933594 58.886719 46.695312 L 59.125 46.214844 C 59.164062 46.132812 59.21875 46.015625 59.285156 45.871094 C 60.25 43.769531 60.960938 42.628906 61.945312 42.628906 L 78.308594 42.628906 C 79.296875 42.628906 80.007812 43.769531 80.96875 45.871094 C 81.035156 46.015625 81.089844 46.136719 81.128906 46.214844 L 81.367188 46.695312 C 81.484375 46.933594 81.472656 47.210938 81.332031 47.4375 C 81.203125 47.660156 80.957031 47.796875 80.695312 47.796875 Z M 57.804688 45.546875 L 55.941406 49.277344 L 84.324219 49.277344 L 82.464844 45.546875 C 82.378906 45.371094 82.289062 45.191406 82.199219 45.015625 C 81.019531 42.601562 80.167969 41.140625 78.316406 41.140625 L 61.949219 41.140625 C 60.097656 41.140625 59.25 42.605469 58.070312 45.015625 C 57.980469 45.191406 57.890625 45.371094 57.804688 45.546875 Z M 57.804688 45.546875 " fill-opacity="1" fill-rule="evenodd"/><path fill="#ffffff" d="M 90.535156 46.210938 L 94.980469 46.210938 L 94.980469 49.28125 L 90.535156 49.28125 Z M 90.535156 46.210938 " fill-opacity="1" fill-rule="evenodd"/><path fill="#ffffff" d="M 45.289062 46.210938 L 49.730469 46.210938 L 49.730469 49.28125 L 45.289062 49.28125 Z M 45.289062 46.210938 " fill-opacity="1" fill-rule="evenodd"/><path fill="#ffffff" d="M 43.003906 55.867188 L 47.492188 55.867188 L 47.492188 60.0625 L 43.003906 60.0625 Z M 43.003906 55.867188 " fill-opacity="1" fill-rule="evenodd"/><path fill="#ffffff" d="M 48.253906 54.347656 C 48.675781 54.347656 49.015625 54.6875 49.015625 55.109375 L 49.015625 60.824219 C 49.015625 61.246094 48.675781 61.585938 48.253906 61.585938 L 42.242188 61.585938 C 41.820312 61.585938 41.480469 61.246094 41.480469 60.824219 L 41.480469 55.109375 C 41.480469 54.6875 41.820312 54.347656 42.242188 54.347656 Z M 41.703125 50.804688 C 39.878906 50.804688 38.394531 52.292969 38.394531 54.113281 L 38.394531 90.652344 C 38.394531 92.476562 39.882812 93.960938 41.703125 93.960938 L 53.097656 93.960938 C 49.257812 89.816406 46.90625 84.273438 46.90625 78.191406 C 46.90625 65.382812 57.328125 54.964844 70.132812 54.964844 C 82.941406 54.964844 93.359375 65.386719 93.359375 78.191406 C 93.359375 84.273438 91.011719 89.816406 87.171875 93.960938 L 98.558594 93.960938 C 100.382812 93.960938 101.867188 92.476562 101.867188 90.652344 L 101.867188 54.113281 C 101.867188 52.289062 100.382812 50.804688 98.558594 50.804688 L 85.59375 50.804688 C 85.578125 50.804688 85.566406 50.808594 85.550781 50.808594 L 85.507812 50.804688 L 54.746094 50.804688 C 54.722656 50.804688 54.699219 50.804688 54.675781 50.804688 Z M 41.703125 50.804688 " fill-opacity="1" fill-rule="evenodd"/><path fill="#ffffff" d="M 70.132812 56.488281 C 58.164062 56.488281 48.429688 66.226562 48.429688 78.191406 C 48.429688 90.15625 58.167969 99.894531 70.132812 99.894531 C 82.097656 99.894531 91.835938 90.15625 91.835938 78.191406 C 91.835938 66.230469 82.101562 56.488281 70.132812 56.488281 Z M 52.355469 78.191406 C 52.355469 68.390625 60.332031 60.414062 70.136719 60.414062 C 79.9375 60.414062 87.914062 68.390625 87.914062 78.191406 C 87.914062 87.996094 79.9375 95.96875 70.136719 95.96875 C 60.332031 95.96875 52.355469 87.996094 52.355469 78.191406 Z M 52.355469 78.191406 " fill-opacity="1" fill-rule="evenodd"/><path fill="#ffffff" d="M 70.132812 61.941406 C 61.167969 61.941406 53.878906 69.234375 53.878906 78.195312 C 53.878906 87.160156 61.171875 94.449219 70.132812 94.449219 C 79.09375 94.449219 86.386719 87.15625 86.386719 78.195312 C 86.386719 69.234375 79.09375 61.941406 70.132812 61.941406 Z M 63.425781 78.191406 C 63.425781 74.496094 66.4375 71.484375 70.132812 71.484375 C 73.832031 71.484375 76.839844 74.496094 76.839844 78.191406 C 76.839844 81.890625 73.832031 84.898438 70.132812 84.898438 C 66.4375 84.898438 63.425781 81.890625 63.425781 78.191406 Z M 63.425781 78.191406 " fill-opacity="1" fill-rule="evenodd"/><path fill="#ffffff" d="M 70.132812 73.011719 C 67.273438 73.011719 64.949219 75.335938 64.949219 78.195312 C 64.949219 81.050781 67.273438 83.378906 70.132812 83.378906 C 72.992188 83.378906 75.316406 81.050781 75.316406 78.195312 C 75.316406 75.335938 72.992188 73.011719 70.132812 73.011719 Z M 70.132812 73.011719 " fill-opacity="1" fill-rule="evenodd"/><g clip-path="url(#6cdfcede41)"><path fill="#ffffff" d="M 70.09375 128.238281 C 54.644531 128.238281 40.125 122.226562 29.203125 111.300781 C 18.28125 100.378906 12.265625 85.859375 12.265625 70.410156 C 12.265625 54.960938 18.277344 40.4375 29.203125 29.519531 C 40.125 18.597656 54.644531 12.578125 70.09375 12.578125 C 85.542969 12.578125 100.066406 18.59375 110.984375 29.519531 C 121.90625 40.441406 127.925781 54.960938 127.925781 70.410156 C 127.925781 85.859375 121.910156 100.378906 110.984375 111.300781 C 100.0625 122.222656 85.542969 128.238281 70.09375 128.238281 Z M 70.09375 17.835938 C 41.105469 17.835938 17.519531 41.421875 17.519531 70.410156 C 17.519531 99.398438 41.101562 122.984375 70.09375 122.984375 C 99.082031 122.984375 122.667969 99.402344 122.667969 70.410156 C 122.667969 41.421875 99.082031 17.835938 70.09375 17.835938 Z M 70.09375 17.835938 " fill-opacity="1" fill-rule="nonzero"/></g></svg>