<svg xmlns="http://www.w3.org/2000/svg" xmlns:xlink="http://www.w3.org/1999/xlink" width="188" zoomAndPan="magnify" viewBox="0 0 141.12 141.750002" height="188" preserveAspectRatio="xMidYMid meet" version="1.0"><defs><clipPath id="26b5103c45"><path d="M 51 96 L 90 96 L 90 105.753906 L 51 105.753906 Z M 51 96 " clip-rule="nonzero"/></clipPath><clipPath id="fe2ad2126a"><path d="M 9 41.25 L 21 41.25 L 21 102 L 9 102 Z M 9 41.25 " clip-rule="nonzero"/></clipPath><clipPath id="cbc246959f"><path d="M 121 41.25 L 133 41.25 L 133 102 L 121 102 Z M 121 41.25 " clip-rule="nonzero"/></clipPath></defs><g clip-path="url(#26b5103c45)"><path fill="#ffffff" d="M 51.6875 96.078125 L 89.816406 96.078125 L 89.816406 106.039062 L 51.6875 106.039062 Z M 51.6875 96.078125 " fill-opacity="1" fill-rule="nonzero"/></g><path fill="#ffffff" d="M 51.6875 92.285156 L 89.628906 92.285156 L 89.628906 48.839844 L 51.6875 48.839844 Z M 70.65625 55.859375 C 71.632812 55.851562 72.597656 55.941406 73.554688 56.128906 C 74.511719 56.3125 75.441406 56.585938 76.339844 56.957031 C 77.242188 57.324219 78.101562 57.777344 78.914062 58.3125 C 79.726562 58.851562 80.476562 59.464844 81.171875 60.148438 C 81.863281 60.835938 82.480469 61.582031 83.023438 62.390625 C 83.566406 63.199219 84.027344 64.050781 84.402344 64.949219 C 84.78125 65.847656 85.0625 66.777344 85.257812 67.730469 C 85.449219 68.6875 85.546875 69.652344 85.546875 70.625 C 85.550781 71.601562 85.457031 72.566406 85.269531 73.519531 C 85.082031 74.476562 84.800781 75.40625 84.429688 76.304688 C 84.054688 77.207031 83.601562 78.0625 83.058594 78.871094 C 82.519531 79.683594 81.902344 80.433594 81.214844 81.121094 C 80.527344 81.808594 79.777344 82.425781 78.964844 82.964844 C 78.15625 83.507812 77.300781 83.960938 76.398438 84.335938 C 75.5 84.707031 74.570312 84.988281 73.617188 85.175781 C 72.660156 85.363281 71.695312 85.457031 70.71875 85.453125 C 69.746094 85.453125 68.78125 85.355469 67.828125 85.164062 C 66.871094 84.96875 65.945312 84.6875 65.046875 84.308594 C 64.148438 83.933594 63.292969 83.472656 62.484375 82.929688 C 61.679688 82.386719 60.929688 81.769531 60.246094 81.074219 C 59.558594 80.382812 58.949219 79.632812 58.410156 78.820312 C 57.871094 78.007812 57.421875 77.148438 57.050781 76.246094 C 56.683594 75.34375 56.40625 74.414062 56.222656 73.457031 C 56.039062 72.503906 55.949219 71.535156 55.957031 70.5625 C 55.957031 69.59375 56.050781 68.632812 56.242188 67.683594 C 56.429688 66.730469 56.710938 65.808594 57.085938 64.914062 C 57.457031 64.019531 57.914062 63.167969 58.453125 62.363281 C 58.992188 61.558594 59.609375 60.816406 60.296875 60.132812 C 60.984375 59.449219 61.730469 58.839844 62.539062 58.304688 C 63.347656 57.769531 64.199219 57.316406 65.097656 56.953125 C 65.996094 56.585938 66.917969 56.308594 67.871094 56.125 C 68.824219 55.941406 69.78125 55.851562 70.753906 55.859375 Z M 70.65625 55.859375 " fill-opacity="1" fill-rule="nonzero"/><path fill="#ffffff" d="M 70.753906 81.472656 C 71.46875 81.464844 72.175781 81.390625 72.875 81.242188 C 73.574219 81.097656 74.253906 80.886719 74.910156 80.609375 C 75.570312 80.328125 76.195312 79.988281 76.785156 79.585938 C 77.378906 79.183594 77.925781 78.730469 78.425781 78.21875 C 78.929688 77.710938 79.375 77.15625 79.769531 76.5625 C 80.160156 75.964844 80.492188 75.335938 80.761719 74.671875 C 81.03125 74.007812 81.234375 73.328125 81.367188 72.625 C 81.503906 71.921875 81.570312 71.214844 81.566406 70.5 C 81.5625 69.785156 81.488281 69.078125 81.34375 68.375 C 81.199219 67.675781 80.992188 66.996094 80.714844 66.335938 C 80.4375 65.679688 80.097656 65.050781 79.699219 64.460938 C 79.296875 63.867188 78.84375 63.320312 78.335938 62.816406 C 77.828125 62.3125 77.277344 61.863281 76.679688 61.46875 C 76.085938 61.074219 75.457031 60.742188 74.796875 60.46875 C 74.132812 60.199219 73.453125 59.996094 72.75 59.855469 C 72.050781 59.71875 71.339844 59.652344 70.625 59.65625 C 69.910156 59.65625 69.203125 59.726562 68.503906 59.871094 C 67.800781 60.011719 67.121094 60.21875 66.460938 60.492188 C 65.800781 60.769531 65.175781 61.105469 64.582031 61.503906 C 63.988281 61.902344 63.4375 62.355469 62.933594 62.859375 C 62.429688 63.367188 61.976562 63.917969 61.582031 64.511719 C 61.183594 65.105469 60.851562 65.734375 60.578125 66.394531 C 60.304688 67.054688 60.097656 67.738281 59.957031 68.4375 C 59.820312 69.140625 59.75 69.847656 59.75 70.5625 C 59.75 71.28125 59.820312 71.996094 59.960938 72.703125 C 60.101562 73.410156 60.3125 74.09375 60.589844 74.757812 C 60.867188 75.425781 61.207031 76.054688 61.609375 76.652344 C 62.011719 77.25 62.464844 77.800781 62.976562 78.308594 C 63.488281 78.816406 64.046875 79.269531 64.648438 79.664062 C 65.246094 80.0625 65.882812 80.398438 66.550781 80.667969 C 67.214844 80.9375 67.902344 81.140625 68.609375 81.277344 C 69.320312 81.414062 70.03125 81.476562 70.753906 81.472656 Z M 70.753906 64.398438 C 71.15625 64.398438 71.558594 64.4375 71.957031 64.515625 C 72.351562 64.59375 72.738281 64.710938 73.113281 64.867188 C 73.484375 65.019531 73.839844 65.210938 74.175781 65.4375 C 74.515625 65.660156 74.824219 65.917969 75.113281 66.203125 C 75.398438 66.488281 75.652344 66.800781 75.878906 67.136719 C 76.101562 67.472656 76.292969 67.828125 76.449219 68.203125 C 76.601562 68.578125 76.71875 68.960938 76.800781 69.359375 C 76.878906 69.757812 76.917969 70.15625 76.917969 70.5625 C 76.917969 70.96875 76.878906 71.367188 76.800781 71.765625 C 76.71875 72.164062 76.601562 72.546875 76.449219 72.921875 C 76.292969 73.296875 76.101562 73.652344 75.878906 73.988281 C 75.652344 74.324219 75.398438 74.636719 75.113281 74.921875 C 74.824219 75.207031 74.515625 75.464844 74.175781 75.6875 C 73.839844 75.914062 73.484375 76.105469 73.113281 76.257812 C 72.738281 76.414062 72.351562 76.53125 71.957031 76.609375 C 71.558594 76.6875 71.15625 76.726562 70.753906 76.726562 C 70.347656 76.726562 69.945312 76.6875 69.550781 76.609375 C 69.152344 76.53125 68.765625 76.414062 68.394531 76.257812 C 68.019531 76.105469 67.664062 75.914062 67.328125 75.6875 C 66.992188 75.464844 66.679688 75.207031 66.394531 74.921875 C 66.105469 74.636719 65.851562 74.324219 65.625 73.988281 C 65.402344 73.652344 65.210938 73.296875 65.054688 72.921875 C 64.902344 72.546875 64.785156 72.164062 64.707031 71.765625 C 64.625 71.367188 64.585938 70.96875 64.585938 70.5625 C 64.585938 70.15625 64.625 69.757812 64.707031 69.359375 C 64.785156 68.960938 64.902344 68.578125 65.054688 68.203125 C 65.210938 67.828125 65.402344 67.472656 65.625 67.136719 C 65.851562 66.800781 66.105469 66.488281 66.394531 66.203125 C 66.679688 65.917969 66.992188 65.660156 67.328125 65.4375 C 67.664062 65.210938 68.019531 65.019531 68.394531 64.867188 C 68.765625 64.710938 69.152344 64.59375 69.550781 64.515625 C 69.945312 64.4375 70.347656 64.398438 70.753906 64.398438 Z M 70.753906 64.398438 " fill-opacity="1" fill-rule="nonzero"/><path fill="#ffffff" d="M 70.753906 72.933594 C 71.066406 72.933594 71.371094 72.875 71.660156 72.753906 C 71.949219 72.632812 72.207031 72.460938 72.429688 72.238281 C 72.652344 72.015625 72.824219 71.761719 72.941406 71.46875 C 73.0625 71.179688 73.125 70.878906 73.125 70.5625 C 73.125 70.25 73.0625 69.945312 72.941406 69.65625 C 72.824219 69.363281 72.652344 69.109375 72.429688 68.886719 C 72.207031 68.664062 71.949219 68.492188 71.660156 68.371094 C 71.371094 68.25 71.066406 68.191406 70.753906 68.191406 C 70.4375 68.191406 70.136719 68.25 69.84375 68.371094 C 69.554688 68.492188 69.296875 68.664062 69.074219 68.886719 C 68.851562 69.109375 68.683594 69.363281 68.5625 69.65625 C 68.441406 69.945312 68.382812 70.25 68.382812 70.5625 C 68.382812 70.878906 68.441406 71.179688 68.5625 71.46875 C 68.683594 71.761719 68.851562 72.015625 69.074219 72.238281 C 69.296875 72.460938 69.554688 72.632812 69.84375 72.753906 C 70.136719 72.875 70.4375 72.933594 70.753906 72.933594 Z M 70.753906 72.933594 " fill-opacity="1" fill-rule="nonzero"/><g clip-path="url(#fe2ad2126a)"><path fill="#ffffff" d="M 20.292969 43.148438 L 16.972656 41.25 C 15.703125 43.53125 14.582031 45.878906 13.613281 48.300781 C 12.640625 50.722656 11.828125 53.195312 11.171875 55.71875 C 10.515625 58.242188 10.023438 60.796875 9.691406 63.386719 C 9.363281 65.972656 9.195312 68.570312 9.195312 71.179688 C 9.195312 73.789062 9.363281 76.386719 9.691406 78.972656 C 10.023438 81.558594 10.515625 84.117188 11.171875 86.640625 C 11.828125 89.164062 12.640625 91.636719 13.613281 94.058594 C 14.582031 96.480469 15.703125 98.828125 16.972656 101.105469 L 20.292969 99.210938 C 19.113281 97.070312 18.074219 94.867188 17.175781 92.601562 C 16.273438 90.332031 15.519531 88.015625 14.910156 85.652344 C 14.300781 83.289062 13.84375 80.894531 13.539062 78.472656 C 13.230469 76.050781 13.078125 73.621094 13.078125 71.179688 C 13.078125 68.738281 13.230469 66.308594 13.539062 63.886719 C 13.84375 61.464844 14.300781 59.070312 14.910156 56.707031 C 15.519531 54.34375 16.273438 52.027344 17.175781 49.757812 C 18.074219 47.488281 19.113281 45.285156 20.292969 43.148438 Z M 20.292969 43.148438 " fill-opacity="1" fill-rule="nonzero"/></g><g clip-path="url(#cbc246959f)"><path fill="#ffffff" d="M 124.4375 41.25 L 121.023438 43.148438 C 122.214844 45.28125 123.265625 47.480469 124.175781 49.75 C 125.085938 52.015625 125.847656 54.332031 126.464844 56.695312 C 127.078125 59.0625 127.542969 61.457031 127.851562 63.878906 C 128.164062 66.300781 128.320312 68.734375 128.320312 71.179688 C 128.320312 73.621094 128.164062 76.054688 127.851562 78.480469 C 127.542969 80.902344 127.078125 83.296875 126.464844 85.660156 C 125.847656 88.027344 125.085938 90.339844 124.175781 92.609375 C 123.265625 94.875 122.214844 97.074219 121.023438 99.210938 L 124.4375 101.105469 C 125.691406 98.824219 126.796875 96.46875 127.757812 94.046875 C 128.714844 91.625 129.519531 89.152344 130.167969 86.628906 C 130.816406 84.105469 131.300781 81.550781 131.628906 78.964844 C 131.957031 76.378906 132.117188 73.785156 132.117188 71.179688 C 132.117188 68.574219 131.957031 65.976562 131.628906 63.394531 C 131.300781 60.808594 130.816406 58.253906 130.167969 55.730469 C 129.519531 53.207031 128.714844 50.734375 127.757812 48.3125 C 126.796875 45.886719 125.691406 43.535156 124.4375 41.25 Z M 124.4375 41.25 " fill-opacity="1" fill-rule="nonzero"/></g><path fill="#ffffff" d="M 34.046875 50.738281 C 32.300781 53.851562 30.980469 57.136719 30.078125 60.59375 C 29.179688 64.046875 28.730469 67.5625 28.734375 71.132812 C 28.71875 74.703125 29.164062 78.21875 30.0625 81.675781 C 30.964844 85.132812 32.292969 88.414062 34.046875 91.527344 L 37.652344 89.722656 C 36.875 88.308594 36.191406 86.847656 35.597656 85.347656 C 35.007812 83.847656 34.511719 82.3125 34.109375 80.75 C 33.710938 79.1875 33.410156 77.605469 33.207031 76.003906 C 33.007812 74.402344 32.90625 72.792969 32.90625 71.179688 C 32.90625 69.566406 33.007812 67.957031 33.207031 66.355469 C 33.410156 64.753906 33.710938 63.171875 34.109375 61.609375 C 34.511719 60.042969 35.007812 58.511719 35.597656 57.011719 C 36.191406 55.507812 36.875 54.050781 37.652344 52.632812 Z M 34.046875 50.738281 " fill-opacity="1" fill-rule="nonzero"/><path fill="#ffffff" d="M 28.164062 47.703125 L 25.226562 45.898438 C 24.15625 47.824219 23.214844 49.8125 22.394531 51.855469 C 21.578125 53.902344 20.894531 55.988281 20.34375 58.121094 C 19.789062 60.253906 19.375 62.414062 19.097656 64.597656 C 18.816406 66.78125 18.679688 68.976562 18.679688 71.179688 C 18.679688 73.382812 18.816406 75.574219 19.097656 77.761719 C 19.375 79.945312 19.789062 82.105469 20.34375 84.234375 C 20.894531 86.367188 21.578125 88.457031 22.394531 90.503906 C 23.214844 92.546875 24.15625 94.53125 25.226562 96.457031 L 28.164062 94.5625 C 26.253906 90.953125 24.816406 87.167969 23.855469 83.203125 C 22.890625 79.238281 22.429688 75.210938 22.476562 71.132812 C 22.4375 67.050781 22.902344 63.027344 23.863281 59.0625 C 24.828125 55.097656 26.261719 51.3125 28.164062 47.703125 Z M 28.164062 47.703125 " fill-opacity="1" fill-rule="nonzero"/><path fill="#ffffff" d="M 116.089844 45.898438 L 112.769531 47.703125 C 113.761719 49.488281 114.632812 51.328125 115.390625 53.222656 C 116.148438 55.117188 116.78125 57.054688 117.292969 59.03125 C 117.804688 61.007812 118.191406 63.007812 118.449219 65.03125 C 118.707031 67.058594 118.835938 69.089844 118.835938 71.132812 C 118.835938 73.171875 118.707031 75.207031 118.449219 77.230469 C 118.191406 79.257812 117.804688 81.257812 117.292969 83.234375 C 116.78125 85.207031 116.148438 87.144531 115.390625 89.039062 C 114.632812 90.9375 113.761719 92.777344 112.769531 94.5625 L 116.089844 96.457031 C 118.328125 92.609375 120.03125 88.539062 121.207031 84.246094 C 122.378906 79.953125 122.980469 75.582031 123.015625 71.132812 C 122.976562 66.695312 122.371094 62.339844 121.195312 58.0625 C 120.023438 53.789062 118.320312 49.734375 116.089844 45.898438 Z M 116.089844 45.898438 " fill-opacity="1" fill-rule="nonzero"/><path fill="#ffffff" d="M 104.042969 52.632812 C 104.835938 54.046875 105.53125 55.5 106.136719 57 C 106.738281 58.5 107.246094 60.03125 107.652344 61.597656 C 108.0625 63.160156 108.371094 64.746094 108.574219 66.347656 C 108.78125 67.953125 108.882812 69.5625 108.882812 71.179688 C 108.882812 72.796875 108.78125 74.40625 108.574219 76.011719 C 108.371094 77.613281 108.0625 79.199219 107.652344 80.761719 C 107.246094 82.328125 106.738281 83.859375 106.136719 85.359375 C 105.53125 86.859375 104.835938 88.3125 104.042969 89.722656 L 107.457031 91.527344 C 109.175781 88.402344 110.476562 85.113281 111.363281 81.660156 C 112.246094 78.207031 112.683594 74.695312 112.675781 71.132812 C 112.65625 67.5625 112.199219 64.054688 111.300781 60.601562 C 110.402344 57.148438 109.089844 53.859375 107.363281 50.738281 Z M 104.042969 52.632812 " fill-opacity="1" fill-rule="nonzero"/></svg>