<svg xmlns="http://www.w3.org/2000/svg" xmlns:xlink="http://www.w3.org/1999/xlink" width="188" zoomAndPan="magnify" viewBox="0 0 141.12 141.750002" height="188" preserveAspectRatio="xMidYMid meet" version="1.0"><defs><clipPath id="a647021b28"><path d="M 16.800781 8 L 123 8 L 123 134 L 16.800781 134 Z M 16.800781 8 " clip-rule="nonzero"/></clipPath></defs><g clip-path="url(#a647021b28)"><path fill="#ffffff" d="M 68.183594 133.652344 C 65.769531 133.925781 63.949219 132.394531 64.007812 129.988281 C 63.613281 128.988281 61.632812 130.167969 60.664062 129.957031 C 56.449219 130.675781 52.175781 130.390625 47.960938 129.875 C 46.160156 129.210938 44.523438 132.605469 43.675781 129.792969 C 40.113281 130.773438 38.292969 125.816406 41.292969 123.996094 C 43.261719 123.273438 42.316406 127.792969 45.023438 125.9375 C 48.792969 123.988281 48.972656 119.34375 50.621094 115.925781 C 51.722656 113.265625 55.375 112.304688 54.832031 109.351562 C 57.554688 107.933594 60.921875 109.355469 63.898438 109.214844 C 66.636719 109.679688 68.464844 107.628906 71.390625 108.429688 C 74.25 108.363281 77.070312 109.050781 79.460938 110.644531 C 83.777344 112.902344 89.191406 112.546875 93.480469 110.386719 C 95.347656 108.414062 100.769531 110.832031 98.03125 113.019531 C 96.75 109.609375 93.285156 112.261719 90.933594 113.171875 C 85.855469 115.042969 80.453125 112.988281 76.011719 110.460938 C 73.414062 109.710938 76.746094 112.980469 78.015625 112.617188 C 80.542969 114.035156 82.273438 116.625 82.007812 119.59375 C 82.351562 121.996094 81.800781 126.1875 85.167969 126.378906 C 86.9375 127.027344 87.621094 128.257812 88.199219 126.152344 C 89.609375 126.601562 88.703125 129.484375 90.382812 129.042969 C 93.421875 128.976562 96.519531 128.382812 99.523438 128.910156 C 98.484375 131.089844 95.015625 129.15625 93.027344 130.144531 C 92.261719 130.296875 90.113281 130.550781 92.0625 130.496094 C 93.71875 130.628906 95.554688 130.261719 97.054688 131.019531 C 94.847656 132.386719 91.496094 131.417969 88.859375 131.46875 C 86.304688 131.195312 90.425781 129.902344 87.847656 130.4375 C 85.058594 130.753906 81.394531 131.429688 79.644531 128.597656 C 76.96875 124.972656 76.578125 120.378906 76.101562 116.0625 C 75.824219 113.253906 73.457031 110.742188 70.484375 111.226562 C 69.464844 111.25 68.113281 110.921875 68.503906 112.40625 C 68.21875 116.40625 68.300781 120.515625 67.078125 124.347656 C 66.738281 127.105469 68.421875 129.703125 68.460938 132.011719 C 71.226562 132.585938 74.34375 131.648438 76.914062 132.828125 C 75.636719 134.625 72.125 133.464844 69.949219 133.75 C 69.363281 133.726562 68.773438 133.710938 68.183594 133.652344 Z M 63.910156 126.695312 C 64.210938 123.851562 63.769531 120.882812 64.558594 118.121094 C 66.441406 117.367188 63.667969 115.394531 64.585938 113.679688 C 64.113281 109.769531 60.054688 112.699219 58.328125 114.054688 C 55.558594 116.085938 53.886719 119.171875 52.742188 122.335938 C 51.710938 124.660156 49.785156 126.359375 48.027344 128.125 C 53.285156 128.25 58.542969 128.425781 63.800781 128.402344 Z M 43.34375 127.667969 C 42.339844 125.789062 40.574219 129.125 43.34375 127.667969 Z M 49.898438 124.601562 C 51.578125 121.332031 44.671875 128.140625 47.449219 126.628906 C 48.332031 126.050781 49.234375 125.4375 49.898438 124.601562 Z M 80.96875 117.675781 C 80.894531 114.589844 79.277344 117.769531 80.542969 118.902344 C 80.984375 118.710938 80.917969 118.058594 80.96875 117.675781 Z M 47.128906 119.09375 C 48.925781 118.546875 47.886719 119.976562 47.128906 119.09375 Z M 49.582031 113.011719 C 47.019531 111.644531 43.347656 113.285156 41.300781 110.871094 C 38.804688 109.503906 37.691406 105.613281 34.175781 107.398438 C 31.933594 109.316406 28.769531 108.398438 26.09375 108.003906 C 23.972656 107.199219 22.132812 105.460938 22.960938 103.0625 C 19.863281 103.226562 18.765625 100.289062 16.800781 98.816406 C 19.464844 96.085938 20.542969 92.207031 22.308594 88.878906 C 23.503906 86.515625 24.644531 84.109375 25.199219 81.5 C 27.710938 76.097656 29.488281 70.351562 31.078125 64.609375 C 31.730469 61.480469 35.578125 62.089844 37.988281 61.59375 C 40.523438 60.863281 44.148438 62.1875 45.921875 60.203125 C 47.203125 55.855469 46.570312 51.234375 47.035156 46.769531 C 46.796875 44.125 48.191406 42.085938 49.308594 39.625 C 52.238281 35.503906 52.425781 30.285156 52.835938 25.433594 C 52.628906 23.316406 50.210938 21.195312 53.144531 19.984375 C 53.335938 18.621094 53.117188 17.246094 53.085938 15.875 C 54.40625 16.148438 56.867188 15.617188 57.082031 17.332031 C 56.027344 19.769531 58.253906 22.039062 57 24.597656 C 57.011719 28.316406 56.910156 32.140625 57.894531 35.75 C 58.679688 38.304688 60.875 40.515625 60.925781 43.175781 C 59.914062 42.820312 58.710938 41.289062 59.246094 43.828125 C 58.839844 45.359375 60.519531 46.703125 60.292969 44.429688 C 58.101562 42.527344 63.800781 44.234375 61.464844 45.824219 C 62.054688 47.191406 62.09375 48.71875 60.460938 49.488281 C 61.722656 50.859375 61.03125 53.152344 61.167969 54.902344 C 62.285156 56.832031 59.832031 61.640625 63.75 60.242188 C 66.753906 59.691406 70.308594 60.042969 72.675781 57.789062 C 74.796875 55.992188 74.328125 52.191406 74.523438 49.539062 C 71.945312 49.507812 70.523438 47.355469 69.355469 45.496094 C 67.25 44.800781 62.269531 46.121094 63.125 42.472656 C 63.882812 36.164062 65.035156 29.910156 65.886719 23.613281 C 66.945312 19.316406 67.097656 14.800781 68.050781 10.457031 C 67.820312 6.382812 72.296875 9.054688 74.6875 8.605469 C 81 8.992188 87.332031 8.765625 93.640625 9.015625 C 96.171875 8.902344 94.339844 10.570312 94.4375 11.523438 C 96.683594 12.308594 94.722656 16.601562 94.054688 18.484375 C 93.558594 22.113281 93.648438 25.824219 92.824219 29.421875 C 92.371094 32.707031 91.183594 35.824219 90.402344 39.011719 C 89.597656 41.527344 91.546875 47.152344 87.742188 47.054688 C 85.089844 47.351562 82.207031 46.628906 79.707031 47.628906 C 77.355469 48.394531 75.035156 49.664062 75.6875 52.652344 C 75.363281 55.324219 75.746094 57.8125 77.527344 59.808594 C 80.113281 60.832031 83.09375 60.164062 85.835938 60.5 C 88.945312 60.582031 92.039062 61.015625 95.125 61.308594 C 96.546875 59.632812 96.367188 56.097656 94.226562 54.847656 C 91.183594 53.722656 89.878906 50.5625 90.6875 47.527344 C 91.078125 44.992188 90.875 40.71875 94.539062 40.910156 C 97.71875 40.59375 101.125 40.109375 104.035156 41.78125 C 105.214844 42.011719 105.734375 42.671875 105.445312 43.867188 C 105.308594 46.539062 105.875 49.367188 104.835938 51.894531 C 103.859375 55.082031 99.789062 54.136719 98.488281 56.65625 C 96.632812 57.726562 98.082031 60.007812 98.570312 61.210938 C 101.84375 61.15625 105.0625 62.183594 108.328125 62.464844 C 110.867188 63.117188 114 62.308594 116.039062 64.25 C 117.542969 66.800781 116.917969 69.992188 117.457031 72.820312 C 118.109375 78.078125 118.167969 83.445312 119.488281 88.59375 C 120.214844 91.148438 120.992188 93.730469 122.359375 96.011719 C 123.585938 99.257812 118.105469 99.136719 119.386719 102.132812 C 120.148438 105.945312 115.167969 105.011719 113.378906 106.761719 C 110.5625 107.234375 111.796875 111.523438 108.644531 111.136719 C 106.078125 113.804688 102.730469 112.902344 100.320312 110.484375 C 98.910156 110.132812 97.832031 107.21875 100.09375 108.695312 C 102.441406 109.894531 105.734375 112.515625 107.949219 109.652344 C 108.582031 108.898438 109.75 108.359375 109.371094 107.210938 C 109.3125 103.136719 108.898438 99.042969 109.222656 94.984375 C 110.171875 98.691406 109.796875 102.757812 110.488281 106.570312 C 112.535156 104.421875 115.886719 104.671875 117.894531 102.746094 C 116.753906 98.402344 116.863281 93.824219 116 89.410156 C 115.574219 85.046875 114.714844 80.667969 114.867188 76.28125 C 116.351562 77.46875 115.789062 81.722656 116.578125 84.070312 C 117.441406 88.671875 117.65625 93.453125 119.230469 97.882812 C 121.542969 98.542969 119.914062 94.050781 119.363281 92.65625 C 117.785156 86.746094 117.105469 80.667969 116.335938 74.617188 C 115.789062 71.699219 115.292969 68.746094 115.035156 65.800781 C 112.753906 64.691406 109.855469 64.855469 107.308594 64.722656 C 102.84375 65.816406 98.175781 65.734375 93.613281 65.429688 C 90.332031 64.355469 95.625 63.722656 96.746094 63.984375 C 99.519531 63.589844 102.203125 64.792969 104.933594 64.222656 C 106.304688 63.527344 101.550781 63.1875 100.5625 62.765625 C 97.835938 62.378906 95.328125 63.230469 92.53125 62.527344 C 88.945312 62.480469 85.359375 62.21875 81.792969 61.945312 C 82.507812 64.730469 86.238281 62.730469 88.121094 63.800781 C 86.394531 65.160156 82.769531 64.539062 80.304688 64.882812 C 74.144531 65.175781 67.945312 65.039062 61.816406 65.78125 C 59.433594 66.460938 64.039062 66.109375 64.777344 66.882812 C 76.859375 67.484375 88.964844 67.105469 101.054688 67.375 C 104.296875 67.277344 107.527344 66.710938 110.75 66.605469 C 111.15625 69.171875 106.410156 67.730469 104.566406 68.402344 C 98.9375 69.003906 93.257812 68.515625 87.605469 68.652344 C 79.710938 68.578125 71.816406 68.804688 63.925781 68.644531 C 57.796875 68.4375 51.691406 67.8125 45.59375 67.226562 C 43.425781 68.195312 42.320312 65.15625 44.808594 65.316406 C 47.605469 64.878906 45.109375 61.59375 43.074219 62.824219 C 40.023438 63.183594 36.910156 63.34375 33.929688 64.097656 C 31.90625 65.871094 32.648438 69.164062 30.984375 71.304688 C 28.886719 76.9375 26.757812 82.566406 24.179688 88.007812 C 22.71875 91.59375 21.117188 95.125 19.214844 98.503906 C 20.128906 99.734375 21.378906 102.222656 23.144531 100.835938 C 24.460938 98.070312 24.832031 94.890625 25.667969 91.933594 C 26.519531 88.851562 26.796875 85.617188 27.789062 82.589844 C 29.359375 82.558594 27.519531 86.574219 27.660156 88.011719 C 27.164062 92.09375 25.1875 95.886719 25.339844 100.0625 C 24.164062 102.53125 24.328125 106.851562 28.171875 106.496094 C 31.5625 106.8125 34.988281 104.214844 38.265625 105.828125 C 40.746094 107.417969 42.558594 110.390625 45.792969 110.53125 C 47.289062 111.328125 51.773438 110.738281 51.351562 112.832031 C 50.953125 113.582031 50.136719 113.789062 49.582031 113.011719 Z M 65.894531 64.246094 C 68.394531 60.980469 62.964844 60.90625 61.421875 62.210938 C 60.53125 64.503906 64.707031 65.195312 65.894531 64.246094 Z M 51.382812 63.335938 C 50.351562 60.414062 46.5 65.3125 50.621094 64.296875 C 51.117188 64.3125 51.464844 63.792969 51.382812 63.335938 Z M 53.328125 63.367188 C 52.109375 59.78125 52.167969 66.882812 53.328125 63.367188 Z M 68.667969 63.359375 C 66.46875 62.109375 67.996094 65.316406 68.667969 63.359375 Z M 74.890625 62.347656 C 73.574219 60.667969 70.328125 61.984375 68.429688 61.320312 C 69.480469 62.976562 74.335938 64.550781 74.890625 62.347656 Z M 77.78125 62.882812 C 78.417969 60.832031 74.238281 61.429688 76.152344 63.253906 C 76.703125 63.160156 77.210938 62.882812 77.78125 62.882812 Z M 52.46875 60.453125 C 53.320312 60.257812 54.945312 60.847656 55.265625 60.117188 C 55.25 55.898438 55.519531 51.648438 55.113281 47.453125 C 53.335938 46.851562 47.523438 47.648438 49.625 44.589844 C 50.820312 43.238281 50.113281 40.582031 49.03125 43.351562 C 48.179688 44.746094 47.609375 46.351562 48.625 47.40625 C 47.429688 50.65625 47.714844 54.238281 47.503906 57.660156 L 47.386719 61.070312 C 49.023438 60.539062 50.757812 60.464844 52.46875 60.453125 Z M 74.273438 59.472656 C 72.585938 57.480469 72.222656 61.386719 74.273438 59.472656 Z M 59.332031 54.003906 C 58.667969 53.242188 59.695312 49.558594 58.414062 48.800781 C 58.160156 50.488281 54.601562 51.359375 57.234375 52.449219 C 56.160156 50.632812 59.105469 51.117188 57.78125 52.75 C 57.417969 54.589844 58.21875 56.421875 58.433594 58.253906 C 58.625 56.828125 58.433594 55.210938 59.332031 54.003906 Z M 98.027344 55.664062 C 96.804688 53.570312 96.242188 58.136719 98.027344 55.664062 Z M 102.78125 52.09375 C 104.425781 50.164062 104.160156 47.464844 104.539062 45.101562 C 101.171875 45.019531 97.773438 45.316406 94.4375 44.832031 C 91.789062 41.800781 92.054688 47.226562 91.960938 49.015625 C 91.703125 52.195312 95.160156 53.894531 97.925781 53.574219 C 99.597656 53.5 101.488281 53.269531 102.78125 52.09375 Z M 78.082031 46.773438 C 79.261719 45.980469 75.507812 47.15625 74.691406 46.804688 C 72.945312 46.351562 71.660156 47.859375 74.179688 47.664062 C 75.507812 47.589844 76.898438 47.417969 78.082031 46.773438 Z M 78.089844 44.226562 C 79.746094 43.671875 80.996094 46.09375 83.09375 45.335938 C 84.824219 45.351562 86.558594 45.339844 88.292969 45.34375 C 89.902344 34.65625 91.070312 23.902344 92.8125 13.238281 C 94.503906 9.871094 89.949219 10.457031 87.9375 10.480469 C 84.175781 10.886719 80.378906 10.933594 76.632812 10.316406 C 74.34375 10.410156 70.90625 9.332031 69.4375 11.535156 C 67.042969 21.148438 66.339844 31.0625 64.683594 40.808594 C 63.539062 43.683594 65.636719 44.222656 68.042969 43.855469 C 69.9375 45.125 72.050781 42.242188 73.09375 44.734375 C 74.59375 45.617188 76.582031 44.703125 78.089844 44.226562 Z M 76.789062 37.550781 C 78.71875 35.226562 78.136719 39.730469 76.789062 37.550781 Z M 72.8125 36.820312 C 74.027344 34.210938 73.761719 39.328125 72.8125 36.820312 Z M 78.289062 34.507812 C 79.347656 32.3125 81.289062 35.515625 78.707031 35.070312 C 78.460938 35.035156 78.171875 34.785156 78.289062 34.507812 Z M 70.375 33.882812 C 70.566406 31.15625 77.296875 34.429688 73.054688 34.617188 C 72.277344 34.515625 70.628906 34.9375 70.375 33.882812 Z M 76.386719 32.78125 C 73.949219 32.945312 70.878906 31.859375 69.46875 30.601562 C 70.15625 26.777344 74.0625 27.65625 76.730469 28.492188 C 79.269531 29.320312 81.957031 29.296875 84.574219 29.601562 C 87.96875 30.90625 80.453125 30.90625 83.902344 32.320312 C 82.613281 33.902344 78.960938 32.457031 76.800781 32.796875 Z M 81.089844 31.277344 C 79.121094 29.964844 76.542969 29.726562 74.238281 29.253906 C 72.914062 28.511719 69.824219 29.765625 72.5 30.613281 C 75.277344 31.152344 78.214844 31.570312 80.992188 31.398438 Z M 76.953125 25.351562 C 74.464844 24.558594 70.5 24.355469 70.402344 20.925781 C 69.863281 19.621094 72 15.460938 72.046875 18.617188 C 70.402344 21.773438 74.25 23.789062 76.882812 23.949219 C 80.449219 24.703125 85.089844 23.429688 86.171875 19.550781 C 86.863281 16.683594 83.558594 15.023438 81.304688 14.320312 C 78.652344 14.160156 75.25 13.824219 73.550781 16.34375 C 71.039062 18.089844 73.398438 13.421875 75.058594 13.691406 C 79.449219 11.425781 85.640625 13.332031 87.707031 17.867188 C 88.667969 21.28125 85.1875 23.933594 82.367188 24.984375 C 80.65625 25.617188 78.726562 25.890625 76.953125 25.351562 Z M 77.195312 20.988281 C 78.507812 19.027344 78.34375 22.886719 77.195312 20.988281 Z M 83.039062 18.339844 C 84.140625 16.535156 84.464844 19.265625 83.039062 18.339844 Z M 57.226562 43.855469 C 56.210938 41.417969 56.820312 46.636719 57.226562 43.855469 Z M 55.542969 43.847656 C 56.0625 41.835938 52.265625 41.4375 54.164062 43.125 C 54.242188 43.992188 54.75 45 55.542969 43.847656 Z M 52.597656 43.394531 C 50.425781 41.707031 51.914062 45.171875 52.597656 43.394531 Z M 102.367188 43.226562 C 101.441406 41.207031 96.808594 41.714844 94.859375 42.726562 C 96.011719 44.566406 99.890625 43.40625 102.019531 43.367188 Z M 52.984375 40.914062 C 53.4375 40.289062 53.1875 36.183594 52.164062 38.140625 C 50.464844 39.386719 50.1875 43.773438 52.984375 40.914062 Z M 57.226562 36.792969 C 55.886719 35.8125 56.035156 38.601562 57.226562 36.792969 Z M 53.996094 33.53125 C 54.238281 31.828125 54.683594 29.457031 53.871094 28.074219 C 53.40625 29.597656 52.378906 34.195312 53.679688 34.304688 L 53.851562 33.957031 Z M 56.753906 31.730469 C 56.203125 30.210938 54.417969 29.960938 55.851562 31.835938 C 56.164062 32.652344 57.609375 33.175781 56.753906 31.730469 Z M 91.804688 31.707031 C 90.410156 29.941406 91.339844 33.238281 91.804688 31.707031 Z M 55.695312 25.492188 C 55.449219 24.328125 56.886719 21.347656 55.167969 23.378906 C 52.183594 23.070312 54.601562 29.210938 55.726562 25.859375 Z M 55.765625 21.457031 C 54.46875 19.601562 51.300781 22.824219 54.433594 22.539062 C 54.960938 22.382812 55.6875 22.085938 55.765625 21.457031 Z M 55.277344 18.28125 C 54.3125 16.53125 54.359375 20.621094 55.277344 18.28125 Z M 101.273438 106.355469 C 101.363281 105.179688 100.105469 101.535156 100.101562 104.652344 C 100.335938 106.105469 99.207031 107.679688 99.300781 105.167969 C 99.070312 101.890625 99.160156 98.585938 99.050781 95.316406 C 100.402344 94.894531 100.019531 98.078125 100.320312 99.261719 C 100.460938 101.136719 100.4375 98.679688 100.480469 98.011719 C 100.308594 96.566406 100.972656 93.550781 101.316406 96.601562 C 101.84375 100.527344 101.699219 104.539062 102.386719 108.433594 C 101.628906 109.277344 101.402344 106.773438 101.273438 106.355469 Z M 99.109375 79.808594 C 99.410156 78.113281 97.96875 74.707031 99.101562 73.917969 C 99.847656 75.816406 100.753906 79.476562 99.449219 80.816406 C 99.179688 80.5625 99.117188 80.160156 99.109375 79.808594 Z M 65.503906 66.320312 C 66.8125 64.503906 66.4375 67.472656 65.503906 66.320312 Z M 65.503906 66.320312 " fill-opacity="1" fill-rule="nonzero"/></g></svg>