<svg xmlns="http://www.w3.org/2000/svg" xmlns:xlink="http://www.w3.org/1999/xlink" width="188" zoomAndPan="magnify" viewBox="0 0 141.12 141.750002" height="188" preserveAspectRatio="xMidYMid meet" version="1.0"><defs><clipPath id="e3b002e17d"><path d="M 38.03125 11.527344 L 101.792969 11.527344 L 101.792969 22 L 38.03125 22 Z M 38.03125 11.527344 " clip-rule="nonzero"/></clipPath><clipPath id="299ec6646b"><path d="M 38.03125 116 L 101.792969 116 L 101.792969 126.445312 L 38.03125 126.445312 Z M 38.03125 116 " clip-rule="nonzero"/></clipPath></defs><path fill="#ffffff" d="M 42.796875 23.042969 C 41.726562 23.042969 40.851562 23.898438 40.820312 24.972656 C 40.617188 32.398438 40.367188 40.394531 42.824219 46.789062 C 43.890625 49.566406 45.441406 51.980469 47.066406 54.128906 C 48.195312 55.621094 49.390625 57.015625 50.496094 58.308594 C 51.539062 59.53125 52.5 60.65625 53.335938 61.757812 C 54.332031 63.074219 55.167969 64.382812 55.996094 65.679688 C 56.726562 66.820312 57.46875 68 58.316406 69.105469 C 59.128906 70.164062 60.035156 71.160156 61.113281 71.996094 C 61.980469 70.765625 62.808594 69.789062 63.792969 69.046875 C 62.777344 68.332031 61.933594 67.375 61.0625 66.15625 L 61.058594 66.15625 C 60.511719 65.390625 59.949219 64.515625 59.324219 63.535156 C 58.503906 62.25 57.585938 60.8125 56.480469 59.355469 C 55.5625 58.140625 54.519531 56.925781 53.496094 55.722656 C 52.378906 54.417969 51.261719 53.105469 50.214844 51.726562 C 48.710938 49.738281 47.394531 47.660156 46.511719 45.359375 C 44.578125 40.328125 44.550781 33.949219 44.722656 27.027344 L 94.722656 27.324219 C 94.703125 33.964844 94.507812 40.101562 92.554688 45.058594 C 90.425781 50.449219 86.140625 54.609375 81.445312 59.117188 C 81.257812 59.292969 81.109375 59.507812 81.007812 59.738281 C 79.960938 62.078125 79 64.175781 77.914062 65.890625 C 77.144531 67.105469 76.308594 68.128906 75.335938 68.902344 C 76.339844 69.652344 77.191406 70.65625 77.976562 71.863281 C 79.011719 70.996094 79.90625 69.964844 80.695312 68.84375 C 82.261719 66.625 83.414062 64.050781 84.453125 61.726562 C 88.941406 57.410156 93.777344 52.734375 96.230469 46.519531 C 98.710938 40.230469 98.675781 32.527344 98.671875 25.351562 C 98.671875 24.257812 97.792969 23.371094 96.707031 23.367188 L 42.808594 23.042969 C 42.804688 23.042969 42.800781 23.042969 42.796875 23.042969 Z M 42.796875 23.042969 " fill-opacity="1" fill-rule="nonzero"/><g clip-path="url(#e3b002e17d)"><path fill="#ffffff" d="M 40.003906 11.609375 C 39.480469 11.609375 38.976562 11.816406 38.605469 12.1875 C 38.234375 12.5625 38.027344 13.066406 38.027344 13.59375 L 38.023438 19.574219 C 38.023438 20.101562 38.230469 20.605469 38.601562 20.976562 C 38.972656 21.351562 39.476562 21.558594 40 21.558594 L 99.671875 21.59375 C 100.761719 21.59375 101.648438 20.703125 101.648438 19.609375 L 101.652344 13.628906 C 101.652344 12.53125 100.769531 11.640625 99.675781 11.640625 Z M 40.003906 11.609375 " fill-opacity="1" fill-rule="nonzero"/></g><g clip-path="url(#299ec6646b)"><path fill="#ffffff" d="M 40.148438 116.363281 C 39.625 116.363281 39.121094 116.570312 38.75 116.945312 C 38.378906 117.316406 38.171875 117.820312 38.171875 118.347656 L 38.167969 124.328125 C 38.167969 124.855469 38.375 125.359375 38.746094 125.730469 C 39.117188 126.105469 39.617188 126.3125 40.144531 126.3125 L 99.816406 126.347656 C 100.90625 126.347656 101.792969 125.460938 101.792969 124.363281 L 101.796875 118.382812 C 101.796875 117.285156 100.914062 116.398438 99.820312 116.394531 Z M 40.148438 116.363281 " fill-opacity="1" fill-rule="nonzero"/></g><path fill="#ffffff" d="M 77.914062 65.890625 C 77.144531 67.105469 76.308594 68.128906 75.335938 68.902344 C 76.339844 69.652344 77.191406 70.65625 77.976562 71.863281 C 79.113281 73.613281 80.109375 75.792969 81.199219 78.226562 C 81.300781 78.460938 81.449219 78.671875 81.632812 78.851562 C 86.328125 83.367188 90.609375 87.527344 92.730469 92.921875 C 94.679688 97.882812 94.867188 104.015625 94.875 110.65625 L 44.878906 110.902344 C 44.714844 103.976562 44.75 97.601562 46.6875 92.570312 C 47.574219 90.273438 48.890625 88.191406 50.394531 86.207031 C 51.445312 84.828125 52.5625 83.519531 53.683594 82.214844 C 54.710938 81.015625 55.75 79.796875 56.671875 78.585938 C 57.777344 77.128906 58.699219 75.691406 59.519531 74.40625 C 60.089844 73.515625 60.609375 72.710938 61.113281 71.996094 C 61.980469 70.765625 62.808594 69.789062 63.792969 69.046875 C 62.777344 68.332031 61.933594 67.375 61.0625 66.15625 C 60.003906 67.019531 59.113281 68.035156 58.3125 69.109375 C 58.3125 69.109375 58.316406 69.109375 58.316406 69.113281 L 58.3125 69.113281 C 57.546875 70.136719 56.863281 71.214844 56.195312 72.257812 C 55.363281 73.558594 54.527344 74.863281 53.527344 76.179688 C 52.691406 77.28125 51.730469 78.40625 50.6875 79.625 C 49.578125 80.917969 48.382812 82.3125 47.253906 83.800781 C 45.621094 85.949219 44.070312 88.363281 43 91.136719 C 40.535156 97.527344 40.777344 105.523438 40.976562 112.949219 C 41.003906 114.027344 41.878906 114.882812 42.949219 114.882812 C 42.953125 114.882812 42.957031 114.882812 42.960938 114.882812 L 96.859375 114.621094 C 97.945312 114.613281 98.824219 113.730469 98.824219 112.636719 C 98.839844 105.460938 98.878906 97.757812 96.40625 91.464844 C 93.960938 85.246094 89.132812 80.566406 84.640625 76.246094 C 83.566406 73.820312 82.363281 71.128906 80.699219 68.84375 L 80.695312 68.847656 C 79.890625 67.738281 78.976562 66.726562 77.917969 65.890625 Z M 77.914062 65.890625 " fill-opacity="1" fill-rule="nonzero"/><path fill="#ffffff" d="M 54.03125 53.617188 L 53.480469 53.613281 C 52.59375 53.609375 52.625 53.582031 53.566406 53.523438 L 60.207031 53.273438 C 64.585938 53.140625 68.039062 53.074219 70.558594 53.070312 C 75.113281 53.058594 79.960938 53.1875 85.113281 53.460938 L 71.011719 72.257812 L 71.0625 95.328125 L 86.101562 111.445312 L 52.675781 111.5 L 68.679688 95.171875 L 68.394531 71.898438 L 54.03125 53.617188 " fill-opacity="1" fill-rule="nonzero"/></svg>