<svg xmlns="http://www.w3.org/2000/svg" xmlns:xlink="http://www.w3.org/1999/xlink" width="188" zoomAndPan="magnify" viewBox="0 0 141.12 141.750002" height="188" preserveAspectRatio="xMidYMid meet" version="1.0"><defs><clipPath id="05a01763cc"><path d="M 11.054688 85 L 20 85 L 20 116 L 11.054688 116 Z M 11.054688 85 " clip-rule="nonzero"/></clipPath><clipPath id="0d1869ecf0"><path d="M 122 85 L 131.164062 85 L 131.164062 116 L 122 116 Z M 122 85 " clip-rule="nonzero"/></clipPath><clipPath id="407e31efa8"><path d="M 15 16.015625 L 127 16.015625 L 127 82 L 15 82 Z M 15 16.015625 " clip-rule="nonzero"/></clipPath></defs><g clip-path="url(#05a01763cc)"><path fill="#ffffff" d="M 11.070312 91.644531 L 11.070312 108.785156 C 11.070312 112.320312 13.964844 115.210938 17.503906 115.210938 L 19.648438 115.210938 L 19.648438 85.21875 L 17.503906 85.21875 C 13.964844 85.21875 11.070312 88.113281 11.070312 91.644531 Z M 11.070312 91.644531 " fill-opacity="1" fill-rule="nonzero"/></g><path fill="#ffffff" d="M 32.511719 76.652344 C 27.773438 76.652344 23.9375 80.484375 23.9375 85.21875 L 23.9375 115.210938 C 24.28125 126.527344 40.742188 126.542969 41.089844 115.210938 C 41.089844 115.210938 41.089844 85.21875 41.089844 85.21875 C 41.089844 80.484375 37.253906 76.652344 32.511719 76.652344 Z M 32.511719 76.652344 " fill-opacity="1" fill-rule="nonzero"/><path fill="#ffffff" d="M 109.707031 76.652344 C 104.96875 76.652344 101.128906 80.484375 101.128906 85.21875 L 101.128906 115.210938 C 101.472656 126.527344 117.9375 126.542969 118.285156 115.210938 C 118.285156 115.210938 118.285156 85.21875 118.285156 85.21875 C 118.285156 80.484375 114.445312 76.652344 109.707031 76.652344 Z M 109.707031 76.652344 " fill-opacity="1" fill-rule="nonzero"/><g clip-path="url(#0d1869ecf0)"><path fill="#ffffff" d="M 124.71875 85.21875 L 122.574219 85.21875 L 122.574219 115.210938 L 124.71875 115.210938 C 128.253906 115.210938 131.148438 112.316406 131.148438 108.785156 L 131.148438 91.644531 C 131.148438 88.113281 128.253906 85.21875 124.71875 85.21875 Z M 124.71875 85.21875 " fill-opacity="1" fill-rule="nonzero"/></g><g clip-path="url(#407e31efa8)"><path fill="#ffffff" d="M 108.976562 37.578125 C 117.769531 47.089844 122.574219 59.363281 122.574219 72.367188 C 122.574219 72.367188 122.574219 80.933594 122.574219 80.933594 C 123.660156 80.914062 125.777344 80.882812 126.863281 81.148438 C 126.863281 81.148438 126.863281 72.367188 126.863281 72.367188 C 127.472656 42.429688 101.09375 16.0625 71.109375 16.671875 C 41.128906 16.0625 14.757812 42.429688 15.359375 72.367188 C 15.359375 72.367188 15.359375 81.148438 15.359375 81.148438 C 16.046875 81 16.773438 80.933594 17.503906 80.933594 L 19.648438 80.933594 L 19.648438 72.367188 C 19.648438 59.363281 24.449219 47.066406 33.242188 37.578125 L 35.238281 39.570312 C 38.933594 43.230469 44.609375 43.859375 48.832031 40.855469 C 55.351562 36.25 63.046875 33.808594 71.109375 33.808594 C 79.171875 33.808594 86.871094 36.25 93.390625 40.855469 C 97.550781 43.8125 103.273438 43.253906 106.984375 39.570312 Z M 108.976562 37.578125 " fill-opacity="1" fill-rule="nonzero"/></g><path fill="#ffffff" d="M 71.109375 55.230469 C 69.925781 55.230469 68.964844 56.1875 68.964844 57.371094 L 68.964844 83.078125 C 68.964844 84.261719 69.925781 85.21875 71.109375 85.21875 C 72.292969 85.21875 73.253906 84.261719 73.253906 83.078125 L 73.253906 57.371094 C 73.253906 56.1875 72.292969 55.230469 71.109375 55.230469 Z M 71.109375 55.230469 " fill-opacity="1" fill-rule="nonzero"/><path fill="#ffffff" d="M 81.832031 60.15625 C 80.648438 60.15625 79.6875 61.113281 79.6875 62.296875 L 79.6875 78.152344 C 79.6875 79.335938 80.648438 80.292969 81.832031 80.292969 C 83.015625 80.292969 83.976562 79.335938 83.976562 78.152344 L 83.976562 62.296875 C 83.976562 61.113281 83.015625 60.15625 81.832031 60.15625 Z M 81.832031 60.15625 " fill-opacity="1" fill-rule="nonzero"/><path fill="#ffffff" d="M 92.554688 63.796875 C 91.367188 63.796875 90.410156 64.757812 90.410156 65.941406 L 90.410156 74.507812 C 90.410156 75.691406 91.367188 76.652344 92.554688 76.652344 C 93.738281 76.652344 94.699219 75.691406 94.699219 74.507812 L 94.699219 65.941406 C 94.699219 64.757812 93.738281 63.796875 92.554688 63.796875 Z M 92.554688 63.796875 " fill-opacity="1" fill-rule="nonzero"/><path fill="#ffffff" d="M 60.390625 60.15625 C 59.203125 60.15625 58.246094 61.113281 58.246094 62.296875 L 58.246094 78.152344 C 58.246094 79.335938 59.203125 80.292969 60.390625 80.292969 C 61.574219 80.292969 62.535156 79.335938 62.535156 78.152344 L 62.535156 62.296875 C 62.535156 61.113281 61.574219 60.15625 60.390625 60.15625 Z M 60.390625 60.15625 " fill-opacity="1" fill-rule="nonzero"/><path fill="#ffffff" d="M 49.667969 63.796875 C 48.484375 63.796875 47.523438 64.757812 47.523438 65.941406 L 47.523438 74.507812 C 47.523438 75.691406 48.484375 76.652344 49.667969 76.652344 C 50.851562 76.652344 51.8125 75.691406 51.8125 74.507812 L 51.8125 65.941406 C 51.8125 64.757812 50.851562 63.796875 49.667969 63.796875 Z M 49.667969 63.796875 " fill-opacity="1" fill-rule="nonzero"/></svg>