<svg xmlns="http://www.w3.org/2000/svg" xmlns:xlink="http://www.w3.org/1999/xlink" width="188" zoomAndPan="magnify" viewBox="0 0 141.12 141.750002" height="188" preserveAspectRatio="xMidYMid meet" version="1.0"><defs><clipPath id="3e9ef97903"><path d="M 9.695312 47.199219 L 131.359375 47.199219 L 131.359375 101.164062 L 9.695312 101.164062 Z M 9.695312 47.199219 " clip-rule="nonzero"/></clipPath><clipPath id="4f7a1a1c1b"><path d="M 53 39.644531 L 88 39.644531 L 88 92 L 53 92 Z M 53 39.644531 " clip-rule="nonzero"/></clipPath></defs><g clip-path="url(#3e9ef97903)"><path fill="#ffffff" d="M 96.320312 79.0625 C 95.355469 79.121094 94.394531 79.050781 93.460938 78.863281 C 93 78.761719 92.539062 78.636719 92.09375 78.476562 L 92.09375 74.652344 C 92.09375 74.042969 92.355469 73.46875 92.816406 73.070312 C 93.273438 72.671875 93.886719 72.488281 94.488281 72.570312 C 95.53125 72.710938 96.320312 73.605469 96.320312 74.652344 Z M 94.585938 71.859375 C 93.777344 71.753906 92.957031 71.996094 92.339844 72.53125 C 91.726562 73.066406 91.375 73.835938 91.375 74.652344 L 91.375 78.726562 C 91.375 78.878906 91.464844 79.007812 91.605469 79.0625 C 92.160156 79.273438 92.738281 79.4375 93.316406 79.558594 C 94.082031 79.71875 94.863281 79.796875 95.648438 79.796875 C 96 79.796875 96.355469 79.785156 96.714844 79.75 C 96.898438 79.730469 97.039062 79.578125 97.039062 79.394531 L 97.039062 74.652344 C 97.039062 73.246094 95.984375 72.046875 94.585938 71.859375 Z M 108.222656 79.4375 C 107.570312 79.558594 106.917969 79.613281 106.261719 79.601562 C 105.5 79.597656 104.738281 79.507812 103.992188 79.335938 L 103.992188 75.242188 C 103.992188 74.671875 104.21875 74.136719 104.632812 73.738281 C 105.039062 73.339844 105.582031 73.117188 106.160156 73.144531 C 107.3125 73.167969 108.222656 74.09375 108.222656 75.242188 Z M 106.175781 72.425781 C 105.398438 72.417969 104.675781 72.691406 104.128906 73.226562 C 103.578125 73.761719 103.273438 74.476562 103.273438 75.242188 L 103.273438 79.617188 C 103.273438 79.777344 103.382812 79.921875 103.542969 79.960938 C 104.429688 80.191406 105.339844 80.3125 106.25 80.316406 C 106.292969 80.316406 106.328125 80.320312 106.363281 80.320312 C 107.128906 80.320312 107.902344 80.238281 108.652344 80.085938 C 108.820312 80.050781 108.941406 79.90625 108.941406 79.734375 L 108.941406 75.242188 C 108.941406 73.699219 107.726562 72.464844 106.175781 72.425781 Z M 123.441406 78.273438 C 122.746094 78.542969 122.019531 78.742188 121.277344 78.859375 C 120.617188 78.964844 119.945312 79.007812 119.273438 78.984375 L 119.273438 74.492188 C 119.273438 73.472656 120.007812 72.613281 121.015625 72.449219 C 121.621094 72.347656 122.238281 72.515625 122.707031 72.910156 C 123.175781 73.304688 123.441406 73.878906 123.441406 74.492188 Z M 123.171875 72.367188 C 122.539062 71.835938 121.710938 71.609375 120.898438 71.742188 C 119.539062 71.96875 118.554688 73.121094 118.554688 74.492188 L 118.554688 79.324219 C 118.554688 79.511719 118.703125 79.667969 118.890625 79.683594 C 119.132812 79.695312 119.375 79.703125 119.613281 79.703125 C 120.207031 79.703125 120.804688 79.65625 121.394531 79.5625 C 122.269531 79.421875 123.125 79.179688 123.941406 78.84375 C 124.078125 78.785156 124.164062 78.660156 124.164062 78.515625 L 124.164062 74.492188 C 124.164062 73.671875 123.804688 72.894531 123.171875 72.367188 Z M 90.671875 70.011719 L 90.390625 70.011719 L 90.390625 68.078125 L 90.671875 68.078125 Z M 91.394531 67.722656 C 91.394531 67.523438 91.230469 67.363281 91.035156 67.363281 L 90.03125 67.363281 C 89.832031 67.363281 89.671875 67.523438 89.671875 67.722656 L 89.671875 70.367188 C 89.671875 70.566406 89.832031 70.726562 90.03125 70.726562 L 91.035156 70.726562 C 91.230469 70.726562 91.394531 70.566406 91.394531 70.367188 Z M 94.394531 67.136719 L 94.675781 67.136719 L 94.675781 69.066406 L 94.394531 69.066406 Z M 94.035156 69.78125 L 95.035156 69.78125 C 95.234375 69.78125 95.394531 69.621094 95.394531 69.421875 L 95.394531 66.777344 C 95.394531 66.582031 95.234375 66.417969 95.035156 66.417969 L 94.035156 66.417969 C 93.835938 66.417969 93.671875 66.582031 93.671875 66.777344 L 93.671875 69.421875 C 93.671875 69.621094 93.835938 69.78125 94.035156 69.78125 Z M 99.007812 68.304688 L 98.71875 68.304688 L 98.71875 66.375 L 99.007812 66.375 Z M 99.367188 65.660156 L 98.359375 65.660156 C 98.164062 65.660156 98 65.820312 98 66.015625 L 98 68.664062 C 98 68.863281 98.164062 69.019531 98.359375 69.019531 L 99.367188 69.019531 C 99.566406 69.019531 99.726562 68.863281 99.726562 68.664062 L 99.726562 66.015625 C 99.726562 65.820312 99.566406 65.660156 99.367188 65.660156 Z M 119 65.808594 L 119.285156 65.808594 L 119.285156 67.742188 L 119 67.742188 Z M 119.644531 68.457031 C 119.84375 68.457031 120.003906 68.300781 120.003906 68.097656 L 120.003906 65.453125 C 120.003906 65.253906 119.84375 65.09375 119.644531 65.09375 L 118.640625 65.09375 C 118.441406 65.09375 118.28125 65.253906 118.28125 65.453125 L 118.28125 68.097656 C 118.28125 68.300781 118.441406 68.457031 118.640625 68.457031 Z M 115.054688 67.523438 L 114.769531 67.523438 L 114.769531 65.59375 L 115.054688 65.59375 Z M 115.414062 64.878906 L 114.410156 64.878906 C 114.210938 64.878906 114.050781 65.039062 114.050781 65.234375 L 114.050781 67.882812 C 114.050781 68.082031 114.210938 68.238281 114.410156 68.238281 L 115.414062 68.238281 C 115.613281 68.238281 115.773438 68.082031 115.773438 67.882812 L 115.773438 65.234375 C 115.773438 65.039062 115.613281 64.878906 115.414062 64.878906 Z M 110.824219 67.523438 L 110.539062 67.523438 L 110.539062 65.59375 L 110.824219 65.59375 Z M 111.183594 64.878906 L 110.179688 64.878906 C 109.980469 64.878906 109.820312 65.039062 109.820312 65.234375 L 109.820312 67.882812 C 109.820312 68.082031 109.980469 68.238281 110.179688 68.238281 L 111.183594 68.238281 C 111.378906 68.238281 111.542969 68.082031 111.542969 67.882812 L 111.542969 65.234375 C 111.542969 65.039062 111.378906 64.878906 111.183594 64.878906 Z M 106.796875 65.59375 L 107.078125 65.59375 L 107.078125 67.523438 L 106.796875 67.523438 Z M 106.4375 68.238281 L 107.441406 68.238281 C 107.640625 68.238281 107.800781 68.082031 107.800781 67.882812 L 107.800781 65.234375 C 107.800781 65.039062 107.640625 64.878906 107.441406 64.878906 L 106.4375 64.878906 C 106.238281 64.878906 106.078125 65.039062 106.078125 65.234375 L 106.078125 67.882812 C 106.078125 68.082031 106.238281 68.238281 106.4375 68.238281 Z M 103.042969 67.742188 L 102.757812 67.742188 L 102.757812 65.808594 L 103.042969 65.808594 Z M 103.761719 68.097656 L 103.761719 65.453125 C 103.761719 65.253906 103.601562 65.09375 103.402344 65.09375 L 102.398438 65.09375 C 102.199219 65.09375 102.039062 65.253906 102.039062 65.453125 L 102.039062 68.097656 C 102.039062 68.300781 102.199219 68.457031 102.398438 68.457031 L 103.402344 68.457031 C 103.601562 68.457031 103.761719 68.300781 103.761719 68.097656 Z M 124.273438 68.304688 L 123.992188 68.304688 L 123.992188 66.375 L 124.273438 66.375 Z M 124.632812 65.660156 L 123.632812 65.660156 C 123.429688 65.660156 123.273438 65.820312 123.273438 66.015625 L 123.273438 68.664062 C 123.273438 68.863281 123.429688 69.019531 123.632812 69.019531 L 124.632812 69.019531 C 124.832031 69.019531 124.996094 68.863281 124.996094 68.664062 L 124.996094 66.015625 C 124.996094 65.820312 124.832031 65.660156 124.632812 65.660156 Z M 90.347656 61.742188 L 90.058594 61.742188 L 90.058594 59.8125 L 90.347656 59.8125 Z M 90.707031 59.097656 L 89.699219 59.097656 C 89.503906 59.097656 89.339844 59.257812 89.339844 59.453125 L 89.339844 62.101562 C 89.339844 62.300781 89.503906 62.457031 89.699219 62.457031 L 90.707031 62.457031 C 90.90625 62.457031 91.0625 62.300781 91.0625 62.101562 L 91.0625 59.453125 C 91.0625 59.257812 90.90625 59.097656 90.707031 59.097656 Z M 94.351562 60.800781 L 94.0625 60.800781 L 94.0625 58.867188 L 94.351562 58.867188 Z M 94.707031 58.152344 L 93.703125 58.152344 C 93.503906 58.152344 93.34375 58.3125 93.34375 58.511719 L 93.34375 61.160156 C 93.34375 61.355469 93.503906 61.515625 93.703125 61.515625 L 94.707031 61.515625 C 94.90625 61.515625 95.066406 61.355469 95.066406 61.160156 L 95.066406 58.511719 C 95.066406 58.3125 94.90625 58.152344 94.707031 58.152344 Z M 98.675781 60.042969 L 98.394531 60.042969 L 98.394531 58.109375 L 98.675781 58.109375 Z M 99.035156 57.394531 L 98.035156 57.394531 C 97.832031 57.394531 97.671875 57.554688 97.671875 57.753906 L 97.671875 60.398438 C 97.671875 60.59375 97.832031 60.757812 98.035156 60.757812 L 99.035156 60.757812 C 99.234375 60.757812 99.398438 60.59375 99.398438 60.398438 L 99.398438 57.753906 C 99.398438 57.554688 99.234375 57.394531 99.035156 57.394531 Z M 118.953125 59.476562 L 118.671875 59.476562 L 118.671875 57.546875 L 118.953125 57.546875 Z M 119.316406 56.832031 L 118.3125 56.832031 C 118.113281 56.832031 117.953125 56.992188 117.953125 57.1875 L 117.953125 59.835938 C 117.953125 60.03125 118.113281 60.191406 118.3125 60.191406 L 119.316406 60.191406 C 119.515625 60.191406 119.675781 60.03125 119.675781 59.835938 L 119.675781 57.1875 C 119.675781 56.992188 119.515625 56.832031 119.316406 56.832031 Z M 114.726562 59.261719 L 114.441406 59.261719 L 114.441406 57.328125 L 114.726562 57.328125 Z M 115.085938 56.613281 L 114.078125 56.613281 C 113.882812 56.613281 113.71875 56.773438 113.71875 56.972656 L 113.71875 59.617188 C 113.71875 59.816406 113.882812 59.976562 114.078125 59.976562 L 115.085938 59.976562 C 115.285156 59.976562 115.441406 59.816406 115.441406 59.617188 L 115.441406 56.972656 C 115.441406 56.773438 115.285156 56.613281 115.085938 56.613281 Z M 110.492188 59.261719 L 110.207031 59.261719 L 110.207031 57.328125 L 110.492188 57.328125 Z M 110.851562 56.613281 L 109.847656 56.613281 C 109.652344 56.613281 109.488281 56.773438 109.488281 56.972656 L 109.488281 59.617188 C 109.488281 59.816406 109.652344 59.976562 109.847656 59.976562 L 110.851562 59.976562 C 111.054688 59.976562 111.210938 59.816406 111.210938 59.617188 L 111.210938 56.972656 C 111.210938 56.773438 111.054688 56.613281 110.851562 56.613281 Z M 106.753906 59.261719 L 106.464844 59.261719 L 106.464844 57.328125 L 106.753906 57.328125 Z M 107.113281 56.613281 L 106.105469 56.613281 C 105.910156 56.613281 105.746094 56.773438 105.746094 56.972656 L 105.746094 59.617188 C 105.746094 59.816406 105.910156 59.976562 106.105469 59.976562 L 107.113281 59.976562 C 107.3125 59.976562 107.472656 59.816406 107.472656 59.617188 L 107.472656 56.972656 C 107.472656 56.773438 107.3125 56.613281 107.113281 56.613281 Z M 102.714844 59.476562 L 102.429688 59.476562 L 102.429688 57.546875 L 102.714844 57.546875 Z M 103.074219 56.832031 L 102.070312 56.832031 C 101.871094 56.832031 101.710938 56.992188 101.710938 57.1875 L 101.710938 59.835938 C 101.710938 60.03125 101.871094 60.191406 102.070312 60.191406 L 103.074219 60.191406 C 103.269531 60.191406 103.433594 60.03125 103.433594 59.835938 L 103.433594 57.1875 C 103.433594 56.992188 103.269531 56.832031 103.074219 56.832031 Z M 123.945312 60.042969 L 123.660156 60.042969 L 123.660156 58.109375 L 123.945312 58.109375 Z M 124.304688 57.394531 L 123.300781 57.394531 C 123.101562 57.394531 122.941406 57.554688 122.941406 57.753906 L 122.941406 60.398438 C 122.941406 60.59375 123.101562 60.757812 123.300781 60.757812 L 124.304688 60.757812 C 124.503906 60.757812 124.664062 60.59375 124.664062 60.398438 L 124.664062 57.753906 C 124.664062 57.554688 124.503906 57.394531 124.304688 57.394531 Z M 116.777344 100.042969 C 113.230469 100.015625 102.425781 99.933594 91.414062 93.46875 C 90.011719 92.644531 88.644531 91.738281 87.34375 90.777344 L 87.34375 90.234375 C 88.535156 91.097656 89.777344 91.917969 91.046875 92.660156 C 102.226562 99.226562 113.175781 99.308594 116.773438 99.335938 C 116.917969 99.335938 117.066406 99.339844 117.210938 99.339844 C 121.761719 99.339844 126.132812 98.800781 130.53125 97.710938 C 130.558594 97.9375 130.585938 98.167969 130.609375 98.382812 C 126.046875 99.523438 121.398438 100.082031 116.777344 100.042969 Z M 106.066406 48.613281 C 118.046875 47.902344 124.59375 49.027344 125.066406 49.886719 C 125.175781 50.859375 125.292969 51.898438 125.417969 52.980469 C 124.613281 52.585938 123.0625 52.207031 120.121094 51.953125 C 116.394531 51.636719 111.46875 51.628906 106.253906 51.941406 C 99.503906 52.339844 90.011719 53.523438 87.34375 55.296875 L 87.34375 52.195312 C 87.414062 51.316406 93.792969 49.34375 106.066406 48.613281 Z M 128.421875 79.253906 C 128.324219 79.476562 127.625 80.335938 122.734375 81.347656 C 118.835938 82.15625 113.621094 82.789062 108.054688 83.117188 C 102.484375 83.449219 97.230469 83.445312 93.265625 83.105469 C 88.007812 82.652344 87.410156 81.828125 87.34375 81.664062 L 87.34375 67.863281 C 87.351562 67.832031 87.355469 67.808594 87.355469 67.78125 C 87.304688 66.890625 93.992188 64.832031 106.964844 64.058594 C 112.324219 63.742188 117.378906 63.742188 121.191406 64.0625 C 125.257812 64.402344 126.5625 65.007812 126.828125 65.316406 C 127.160156 68.226562 127.503906 71.226562 127.847656 74.226562 C 128.039062 75.910156 128.234375 77.589844 128.421875 79.253906 Z M 87.34375 83.597656 C 88.125 84.035156 89.761719 84.503906 93.203125 84.804688 C 95.234375 84.976562 97.601562 85.066406 100.171875 85.066406 C 102.660156 85.066406 105.339844 84.984375 108.097656 84.820312 C 113.695312 84.484375 118.949219 83.851562 122.878906 83.035156 C 126.398438 82.304688 127.953125 81.617188 128.636719 81.078125 C 129.304688 86.914062 129.9375 92.46875 130.453125 96.996094 C 125.933594 98.121094 121.453125 98.652344 116.777344 98.621094 C 113.230469 98.59375 102.421875 98.511719 91.414062 92.046875 C 90.011719 91.222656 88.644531 90.3125 87.34375 89.347656 Z M 121.058594 61.496094 C 117.226562 61.167969 112.164062 61.167969 106.800781 61.484375 C 101.441406 61.804688 96.414062 62.410156 92.652344 63.1875 C 89.636719 63.804688 88.105469 64.386719 87.34375 64.890625 L 87.34375 59.5 C 87.347656 59.476562 87.355469 59.457031 87.351562 59.433594 C 87.300781 58.570312 93.820312 56.558594 106.460938 55.804688 C 111.683594 55.492188 116.609375 55.496094 120.328125 55.8125 C 124.824219 56.1875 125.847656 56.898438 125.867188 57.140625 C 125.867188 57.191406 125.886719 57.242188 125.910156 57.285156 C 126.101562 58.972656 126.300781 60.734375 126.507812 62.546875 C 125.683594 62.140625 124.097656 61.75 121.058594 61.496094 Z M 87.34375 65.917969 C 87.34375 65.917969 87.347656 65.914062 87.347656 65.914062 C 87.332031 65.664062 88.28125 64.816406 92.796875 63.886719 C 96.527344 63.113281 101.515625 62.515625 106.84375 62.199219 C 112.175781 61.882812 117.199219 61.882812 120.996094 62.207031 C 125.148438 62.558594 126.402344 63.1875 126.617188 63.488281 C 126.652344 63.789062 126.683594 64.089844 126.71875 64.386719 C 125.90625 64.003906 124.328125 63.605469 121.253906 63.347656 C 117.402344 63.027344 112.3125 63.023438 106.921875 63.34375 C 99.914062 63.761719 90.039062 64.984375 87.34375 66.808594 Z M 125.667969 55.324219 C 125.671875 55.359375 125.683594 55.386719 125.695312 55.421875 C 125.722656 55.660156 125.75 55.898438 125.777344 56.144531 C 124.996094 55.757812 123.457031 55.355469 120.386719 55.097656 C 116.632812 54.78125 111.675781 54.777344 106.417969 55.089844 C 99.601562 55.496094 90.003906 56.683594 87.34375 58.46875 L 87.34375 57.597656 C 87.332031 56.730469 93.8125 54.730469 106.355469 53.984375 C 118.9375 53.238281 125.613281 54.460938 125.667969 55.324219 Z M 87.34375 82.609375 C 88.125 83.050781 89.761719 83.523438 93.203125 83.816406 C 95.234375 83.992188 97.601562 84.078125 100.175781 84.078125 C 102.660156 84.078125 105.339844 83.996094 108.097656 83.832031 C 113.695312 83.5 118.949219 82.867188 122.878906 82.050781 C 126.070312 81.386719 127.644531 80.757812 128.421875 80.25 C 128.304688 80.488281 127.558594 81.335938 122.734375 82.335938 C 118.835938 83.144531 113.621094 83.773438 108.054688 84.105469 C 102.484375 84.4375 97.230469 84.433594 93.265625 84.089844 C 88.007812 83.640625 87.410156 82.808594 87.34375 82.652344 Z M 125.527344 53.933594 C 125.542969 54.078125 125.558594 54.222656 125.574219 54.371094 C 122.75 52.910156 113.105469 52.867188 106.3125 53.269531 C 99.542969 53.671875 90.011719 54.855469 87.34375 56.632812 L 87.34375 56.253906 C 87.402344 55.375 93.859375 53.394531 106.296875 52.652344 C 111.480469 52.34375 116.367188 52.351562 120.058594 52.667969 C 124.167969 53.015625 125.351562 53.648438 125.527344 53.933594 Z M 129.160156 79.332031 C 129.167969 79.257812 129.164062 79.195312 129.160156 79.152344 C 129.15625 79.097656 129.144531 79.050781 129.121094 79.007812 C 128.933594 77.398438 128.75 75.777344 128.5625 74.148438 C 128.230469 71.246094 127.898438 68.347656 127.574219 65.535156 C 127.59375 65.484375 127.601562 65.4375 127.597656 65.382812 C 127.59375 65.296875 127.585938 65.175781 127.519531 65.039062 C 127.464844 64.566406 127.410156 64.09375 127.359375 63.628906 C 127.363281 63.597656 127.375 63.5625 127.371094 63.53125 C 127.363281 63.449219 127.351562 63.363281 127.316406 63.273438 C 126.941406 59.992188 126.582031 56.859375 126.261719 54.027344 C 126.265625 54.003906 126.273438 53.980469 126.273438 53.953125 C 126.265625 53.886719 126.25 53.8125 126.230469 53.734375 C 126.078125 52.417969 125.933594 51.167969 125.804688 49.996094 C 125.804688 49.972656 125.8125 49.949219 125.8125 49.929688 C 125.808594 49.875 125.792969 49.824219 125.777344 49.769531 C 125.777344 49.746094 125.773438 49.71875 125.769531 49.695312 C 125.753906 49.566406 125.671875 49.46875 125.5625 49.417969 C 123.832031 47.566406 113.28125 47.46875 106.023438 47.902344 C 98.90625 48.324219 88.699219 49.628906 86.902344 51.605469 C 86.742188 51.644531 86.625 51.78125 86.625 51.949219 L 86.625 52.234375 C 86.625 52.242188 86.621094 52.253906 86.625 52.261719 C 86.625 52.265625 86.625 52.269531 86.625 52.273438 L 86.625 56.292969 C 86.625 56.300781 86.625 56.308594 86.625 56.316406 C 86.625 56.320312 86.625 56.324219 86.625 56.324219 L 86.625 81.632812 C 86.625 81.648438 86.617188 81.664062 86.617188 81.683594 C 86.621094 81.707031 86.621094 81.734375 86.625 81.765625 L 86.625 82.621094 C 86.625 82.636719 86.617188 82.652344 86.617188 82.667969 C 86.621094 82.691406 86.621094 82.722656 86.625 82.75 L 86.625 90.953125 C 86.625 91.0625 86.675781 91.171875 86.769531 91.238281 C 88.132812 92.261719 89.570312 93.21875 91.046875 94.085938 C 102.226562 100.648438 113.175781 100.730469 116.773438 100.757812 C 116.910156 100.757812 117.046875 100.757812 117.1875 100.757812 C 121.832031 100.757812 126.507812 100.167969 131.089844 99 C 131.265625 98.957031 131.378906 98.789062 131.359375 98.613281 C 130.769531 93.410156 129.984375 86.527344 129.160156 79.332031 Z M 44.734375 75.054688 C 44.734375 74.007812 45.523438 73.113281 46.566406 72.972656 C 47.167969 72.890625 47.78125 73.074219 48.242188 73.472656 C 48.699219 73.875 48.964844 74.449219 48.964844 75.054688 L 48.964844 78.886719 C 48.519531 79.039062 48.054688 79.167969 47.59375 79.265625 C 46.660156 79.457031 45.699219 79.523438 44.734375 79.464844 Z M 44.34375 80.152344 C 44.699219 80.1875 45.054688 80.203125 45.410156 80.203125 C 46.195312 80.203125 46.976562 80.121094 47.742188 79.964844 C 48.320312 79.84375 48.898438 79.675781 49.453125 79.46875 C 49.589844 79.417969 49.683594 79.28125 49.683594 79.132812 L 49.683594 75.054688 C 49.683594 74.242188 49.328125 73.46875 48.714844 72.9375 C 48.097656 72.402344 47.28125 72.160156 46.472656 72.265625 C 45.070312 72.453125 44.015625 73.652344 44.015625 75.054688 L 44.015625 79.796875 C 44.015625 79.984375 44.15625 80.136719 44.34375 80.152344 Z M 32.835938 75.644531 C 32.835938 74.496094 33.742188 73.574219 34.898438 73.546875 C 35.472656 73.53125 36.015625 73.746094 36.425781 74.144531 C 36.835938 74.542969 37.0625 75.074219 37.0625 75.644531 L 37.0625 79.738281 C 36.320312 79.910156 35.558594 80 34.792969 80.007812 C 34.140625 80.015625 33.480469 79.960938 32.835938 79.84375 Z M 32.402344 80.488281 C 33.15625 80.644531 33.925781 80.722656 34.695312 80.722656 C 34.730469 80.722656 34.769531 80.722656 34.804688 80.722656 C 35.71875 80.714844 36.628906 80.59375 37.515625 80.363281 C 37.671875 80.324219 37.78125 80.179688 37.78125 80.019531 L 37.78125 75.644531 C 37.78125 74.878906 37.476562 74.164062 36.925781 73.632812 C 36.375 73.097656 35.644531 72.816406 34.878906 72.832031 C 33.328125 72.871094 32.113281 74.105469 32.113281 75.644531 L 32.113281 80.136719 C 32.113281 80.308594 32.238281 80.453125 32.402344 80.488281 Z M 18.347656 73.3125 C 18.816406 72.917969 19.433594 72.753906 20.039062 72.851562 C 21.046875 73.019531 21.78125 73.878906 21.78125 74.894531 L 21.78125 79.386719 C 21.109375 79.410156 20.4375 79.367188 19.777344 79.261719 C 19.039062 79.144531 18.308594 78.945312 17.613281 78.679688 L 17.613281 74.894531 C 17.613281 74.285156 17.878906 73.707031 18.347656 73.3125 Z M 16.894531 74.894531 L 16.894531 78.917969 C 16.894531 79.0625 16.980469 79.191406 17.113281 79.25 C 17.933594 79.585938 18.789062 79.828125 19.664062 79.96875 C 20.25 80.0625 20.847656 80.109375 21.445312 80.109375 C 21.683594 80.109375 21.921875 80.097656 22.164062 80.085938 C 22.351562 80.070312 22.5 79.917969 22.5 79.726562 L 22.5 74.894531 C 22.5 73.527344 21.515625 72.371094 20.15625 72.144531 C 19.34375 72.011719 18.511719 72.238281 17.882812 72.769531 C 17.253906 73.300781 16.894531 74.074219 16.894531 74.894531 Z M 50.382812 68.484375 L 50.667969 68.484375 L 50.667969 70.414062 L 50.382812 70.414062 Z M 50.023438 71.128906 L 51.027344 71.128906 C 51.222656 71.128906 51.386719 70.96875 51.386719 70.773438 L 51.386719 68.125 C 51.386719 67.929688 51.222656 67.769531 51.027344 67.769531 L 50.023438 67.769531 C 49.824219 67.769531 49.664062 67.929688 49.664062 68.125 L 49.664062 70.773438 C 49.664062 70.96875 49.824219 71.128906 50.023438 71.128906 Z M 46.378906 67.539062 L 46.664062 67.539062 L 46.664062 69.46875 L 46.378906 69.46875 Z M 46.019531 70.183594 L 47.023438 70.183594 C 47.21875 70.183594 47.382812 70.027344 47.382812 69.828125 L 47.382812 67.179688 C 47.382812 66.984375 47.21875 66.824219 47.023438 66.824219 L 46.019531 66.824219 C 45.820312 66.824219 45.660156 66.984375 45.660156 67.179688 L 45.660156 69.828125 C 45.660156 70.027344 45.820312 70.183594 46.019531 70.183594 Z M 42.046875 66.78125 L 42.335938 66.78125 L 42.335938 68.710938 L 42.046875 68.710938 Z M 41.6875 69.425781 L 42.695312 69.425781 C 42.894531 69.425781 43.054688 69.265625 43.054688 69.070312 L 43.054688 66.421875 C 43.054688 66.222656 42.894531 66.066406 42.695312 66.066406 L 41.6875 66.066406 C 41.492188 66.066406 41.328125 66.222656 41.328125 66.421875 L 41.328125 69.070312 C 41.328125 69.265625 41.492188 69.425781 41.6875 69.425781 Z M 21.769531 66.214844 L 22.054688 66.214844 L 22.054688 68.148438 L 21.769531 68.148438 Z M 21.410156 68.863281 L 22.414062 68.863281 C 22.613281 68.863281 22.773438 68.703125 22.773438 68.503906 L 22.773438 65.859375 C 22.773438 65.660156 22.613281 65.5 22.414062 65.5 L 21.410156 65.5 C 21.214844 65.5 21.050781 65.660156 21.050781 65.859375 L 21.050781 68.503906 C 21.050781 68.703125 21.214844 68.863281 21.410156 68.863281 Z M 26.003906 65.996094 L 26.285156 65.996094 L 26.285156 67.933594 L 26.003906 67.933594 Z M 25.640625 68.648438 L 26.644531 68.648438 C 26.84375 68.648438 27.003906 68.484375 27.003906 68.289062 L 27.003906 65.640625 C 27.003906 65.441406 26.84375 65.28125 26.644531 65.28125 L 25.640625 65.28125 C 25.445312 65.28125 25.28125 65.441406 25.28125 65.640625 L 25.28125 68.289062 C 25.28125 68.484375 25.445312 68.648438 25.640625 68.648438 Z M 30.234375 65.996094 L 30.515625 65.996094 L 30.515625 67.933594 L 30.234375 67.933594 Z M 29.875 68.648438 L 30.878906 68.648438 C 31.074219 68.648438 31.238281 68.484375 31.238281 68.289062 L 31.238281 65.640625 C 31.238281 65.441406 31.074219 65.28125 30.878906 65.28125 L 29.875 65.28125 C 29.675781 65.28125 29.515625 65.441406 29.515625 65.640625 L 29.515625 68.289062 C 29.515625 68.484375 29.675781 68.648438 29.875 68.648438 Z M 33.976562 65.996094 L 34.261719 65.996094 L 34.261719 67.933594 L 33.976562 67.933594 Z M 33.617188 68.648438 L 34.621094 68.648438 C 34.816406 68.648438 34.980469 68.484375 34.980469 68.289062 L 34.980469 65.640625 C 34.980469 65.441406 34.816406 65.28125 34.621094 65.28125 L 33.617188 65.28125 C 33.414062 65.28125 33.257812 65.441406 33.257812 65.640625 L 33.257812 68.289062 C 33.257812 68.484375 33.414062 68.648438 33.617188 68.648438 Z M 38.011719 66.214844 L 38.296875 66.214844 L 38.296875 68.148438 L 38.011719 68.148438 Z M 37.652344 68.863281 L 38.65625 68.863281 C 38.855469 68.863281 39.015625 68.703125 39.015625 68.503906 L 39.015625 65.859375 C 39.015625 65.660156 38.855469 65.5 38.65625 65.5 L 37.652344 65.5 C 37.453125 65.5 37.292969 65.660156 37.292969 65.859375 L 37.292969 68.503906 C 37.292969 68.703125 37.453125 68.863281 37.652344 68.863281 Z M 16.78125 66.78125 L 17.066406 66.78125 L 17.066406 68.710938 L 16.78125 68.710938 Z M 16.421875 69.425781 L 17.425781 69.425781 C 17.621094 69.425781 17.785156 69.265625 17.785156 69.070312 L 17.785156 66.421875 C 17.785156 66.222656 17.621094 66.066406 17.425781 66.066406 L 16.421875 66.066406 C 16.222656 66.066406 16.0625 66.222656 16.0625 66.421875 L 16.0625 69.070312 C 16.0625 69.265625 16.222656 69.425781 16.421875 69.425781 Z M 50.710938 60.21875 L 50.996094 60.21875 L 50.996094 62.148438 L 50.710938 62.148438 Z M 50.347656 62.863281 L 51.355469 62.863281 C 51.554688 62.863281 51.714844 62.703125 51.714844 62.507812 L 51.714844 59.859375 C 51.714844 59.660156 51.554688 59.503906 51.355469 59.503906 L 50.347656 59.503906 C 50.152344 59.503906 49.992188 59.660156 49.992188 59.859375 L 49.992188 62.507812 C 49.992188 62.703125 50.152344 62.863281 50.347656 62.863281 Z M 46.707031 59.273438 L 46.992188 59.273438 L 46.992188 61.207031 L 46.707031 61.207031 Z M 46.347656 61.921875 L 47.351562 61.921875 C 47.550781 61.921875 47.710938 61.761719 47.710938 61.5625 L 47.710938 58.917969 C 47.710938 58.71875 47.550781 58.558594 47.351562 58.558594 L 46.347656 58.558594 C 46.148438 58.558594 45.988281 58.71875 45.988281 58.917969 L 45.988281 61.5625 C 45.988281 61.761719 46.148438 61.921875 46.347656 61.921875 Z M 42.378906 58.511719 L 42.664062 58.511719 L 42.664062 60.445312 L 42.378906 60.445312 Z M 42.019531 61.160156 L 43.023438 61.160156 C 43.21875 61.160156 43.382812 61.003906 43.382812 60.800781 L 43.382812 58.15625 C 43.382812 57.960938 43.21875 57.796875 43.023438 57.796875 L 42.019531 57.796875 C 41.820312 57.796875 41.660156 57.960938 41.660156 58.15625 L 41.660156 60.800781 C 41.660156 61.003906 41.820312 61.160156 42.019531 61.160156 Z M 22.097656 57.949219 L 22.386719 57.949219 L 22.386719 59.878906 L 22.097656 59.878906 Z M 21.738281 60.59375 L 22.746094 60.59375 C 22.941406 60.59375 23.105469 60.433594 23.105469 60.238281 L 23.105469 57.589844 C 23.105469 57.394531 22.941406 57.234375 22.746094 57.234375 L 21.738281 57.234375 C 21.539062 57.234375 21.382812 57.394531 21.382812 57.589844 L 21.382812 60.238281 C 21.382812 60.433594 21.539062 60.59375 21.738281 60.59375 Z M 26.328125 57.734375 L 26.617188 57.734375 L 26.617188 59.664062 L 26.328125 59.664062 Z M 25.96875 60.378906 L 26.976562 60.378906 C 27.175781 60.378906 27.335938 60.21875 27.335938 60.023438 L 27.335938 57.375 C 27.335938 57.179688 27.175781 57.019531 26.976562 57.019531 L 25.96875 57.019531 C 25.769531 57.019531 25.613281 57.179688 25.613281 57.375 L 25.613281 60.023438 C 25.613281 60.21875 25.769531 60.378906 25.96875 60.378906 Z M 30.5625 57.734375 L 30.847656 57.734375 L 30.847656 59.664062 L 30.5625 59.664062 Z M 30.203125 60.378906 L 31.207031 60.378906 C 31.40625 60.378906 31.566406 60.21875 31.566406 60.023438 L 31.566406 57.375 C 31.566406 57.179688 31.40625 57.019531 31.207031 57.019531 L 30.203125 57.019531 C 30.003906 57.019531 29.84375 57.179688 29.84375 57.375 L 29.84375 60.023438 C 29.84375 60.21875 30.003906 60.378906 30.203125 60.378906 Z M 34.304688 57.734375 L 34.589844 57.734375 L 34.589844 59.664062 L 34.304688 59.664062 Z M 33.941406 60.378906 L 34.949219 60.378906 C 35.148438 60.378906 35.308594 60.21875 35.308594 60.023438 L 35.308594 57.375 C 35.308594 57.179688 35.148438 57.019531 34.949219 57.019531 L 33.941406 57.019531 C 33.746094 57.019531 33.582031 57.179688 33.582031 57.375 L 33.582031 60.023438 C 33.582031 60.21875 33.746094 60.378906 33.941406 60.378906 Z M 38.34375 57.949219 L 38.625 57.949219 L 38.625 59.878906 L 38.34375 59.878906 Z M 37.984375 60.59375 L 38.984375 60.59375 C 39.183594 60.59375 39.347656 60.433594 39.347656 60.238281 L 39.347656 57.589844 C 39.347656 57.394531 39.183594 57.234375 38.984375 57.234375 L 37.984375 57.234375 C 37.78125 57.234375 37.621094 57.394531 37.621094 57.589844 L 37.621094 60.238281 C 37.621094 60.433594 37.78125 60.59375 37.984375 60.59375 Z M 17.109375 58.511719 L 17.394531 58.511719 L 17.394531 60.445312 L 17.109375 60.445312 Z M 16.75 61.160156 L 17.753906 61.160156 C 17.953125 61.160156 18.113281 61.003906 18.113281 60.800781 L 18.113281 58.15625 C 18.113281 57.960938 17.953125 57.796875 17.753906 57.796875 L 16.75 57.796875 C 16.554688 57.796875 16.390625 57.960938 16.390625 58.15625 L 16.390625 60.800781 C 16.390625 61.003906 16.554688 61.160156 16.75 61.160156 Z M 49.644531 93.875 C 38.628906 100.339844 27.828125 100.421875 24.28125 100.445312 C 19.644531 100.484375 15.003906 99.925781 10.449219 98.789062 C 10.46875 98.570312 10.496094 98.339844 10.523438 98.117188 C 14.925781 99.207031 19.292969 99.742188 23.84375 99.742188 C 23.988281 99.742188 24.136719 99.742188 24.28125 99.738281 C 27.878906 99.710938 38.828125 99.628906 50.007812 93.066406 C 51.28125 92.320312 52.519531 91.503906 53.710938 90.636719 L 53.710938 91.179688 C 52.410156 92.148438 51.039062 93.050781 49.644531 93.875 Z M 14.230469 65.722656 C 14.492188 65.410156 15.796875 64.804688 19.863281 64.464844 C 23.679688 64.144531 28.730469 64.144531 34.089844 64.460938 C 47.066406 65.234375 53.753906 67.296875 53.699219 68.183594 C 53.699219 68.214844 53.707031 68.238281 53.710938 68.261719 L 53.710938 82.070312 C 53.644531 82.230469 53.046875 83.054688 47.792969 83.507812 C 43.824219 83.851562 38.574219 83.855469 33.003906 83.523438 C 27.433594 83.191406 22.21875 82.5625 18.320312 81.753906 C 13.429688 80.738281 12.730469 79.886719 12.632812 79.65625 C 12.820312 77.996094 13.015625 76.316406 13.207031 74.636719 C 13.554688 71.632812 13.894531 68.628906 14.230469 65.722656 Z M 21.386719 49.046875 C 25.039062 48.726562 29.867188 48.71875 34.988281 49.023438 C 47.246094 49.753906 53.625 51.71875 53.710938 52.601562 L 53.710938 56.050781 C 51.046875 54.277344 41.550781 53.097656 34.800781 52.695312 C 28.027344 52.292969 18.40625 52.339844 15.589844 53.800781 C 15.730469 52.578125 15.863281 51.410156 15.984375 50.316406 C 16.152344 50.03125 17.320312 49.398438 21.386719 49.046875 Z M 12.636719 80.652344 C 13.410156 81.164062 14.984375 81.789062 18.175781 82.453125 C 22.109375 83.269531 27.359375 83.902344 32.960938 84.238281 C 35.714844 84.402344 38.394531 84.484375 40.882812 84.484375 C 43.453125 84.484375 45.820312 84.394531 47.855469 84.21875 C 51.292969 83.925781 52.929688 83.453125 53.710938 83.015625 L 53.710938 83.054688 C 53.644531 83.21875 53.046875 84.042969 47.792969 84.496094 C 43.824219 84.835938 38.574219 84.839844 33.003906 84.507812 C 27.433594 84.175781 22.21875 83.546875 18.320312 82.742188 C 13.496094 81.738281 12.75 80.890625 12.636719 80.652344 Z M 14.441406 63.878906 C 14.980469 63 21.789062 61.863281 34.210938 62.601562 C 47.113281 63.375 53.765625 65.429688 53.710938 66.316406 C 53.710938 66.316406 53.710938 66.320312 53.710938 66.320312 L 53.710938 67.214844 C 51.015625 65.386719 41.140625 64.167969 34.132812 63.75 C 28.742188 63.429688 23.652344 63.429688 19.800781 63.753906 C 16.726562 64.007812 15.152344 64.40625 14.335938 64.792969 C 14.371094 64.484375 14.40625 64.179688 14.441406 63.878906 Z M 15.148438 57.691406 C 15.171875 57.644531 15.1875 57.597656 15.191406 57.546875 C 15.207031 57.304688 16.230469 56.59375 20.726562 56.214844 C 24.449219 55.898438 29.375 55.898438 34.597656 56.207031 C 39.816406 56.519531 44.707031 57.105469 48.363281 57.859375 C 52.785156 58.773438 53.714844 59.59375 53.703125 59.839844 C 53.699219 59.859375 53.710938 59.878906 53.710938 59.902344 L 53.710938 65.335938 C 51.007812 63.519531 41.210938 62.304688 34.253906 61.890625 C 27.316406 61.476562 17.472656 61.515625 14.542969 62.992188 C 14.75 61.164062 14.957031 59.390625 15.148438 57.691406 Z M 48.546875 55.335938 C 44.878906 54.574219 39.972656 53.988281 34.742188 53.675781 C 27.964844 53.269531 18.355469 53.3125 15.5 54.765625 C 15.5 54.761719 15.503906 54.757812 15.503906 54.753906 C 15.554688 53.890625 22.214844 52.664062 34.757812 53.410156 C 47.128906 54.144531 53.582031 56.105469 53.710938 56.992188 C 52.957031 56.503906 51.460938 55.9375 48.546875 55.335938 Z M 15.359375 55.835938 C 15.371094 55.800781 15.386719 55.769531 15.386719 55.730469 C 15.441406 54.863281 22.117188 53.640625 34.699219 54.386719 C 39.898438 54.699219 44.761719 55.28125 48.402344 56.035156 C 52.761719 56.9375 53.710938 57.753906 53.710938 58.003906 L 53.710938 58.824219 C 52.976562 58.347656 51.496094 57.777344 48.511719 57.160156 C 44.820312 56.398438 39.894531 55.808594 34.640625 55.496094 C 29.382812 55.179688 24.421875 55.183594 20.664062 55.503906 C 17.597656 55.761719 16.058594 56.160156 15.277344 56.550781 C 15.304688 56.308594 15.332031 56.070312 15.359375 55.835938 Z M 53.710938 89.753906 C 52.410156 90.71875 51.042969 91.628906 49.644531 92.453125 C 38.628906 98.917969 27.828125 98.996094 24.28125 99.023438 C 19.585938 99.054688 15.117188 98.523438 10.601562 97.398438 C 11.117188 92.871094 11.75 87.320312 12.421875 81.484375 C 13.105469 82.019531 14.660156 82.707031 18.175781 83.441406 C 22.109375 84.257812 27.359375 84.890625 32.960938 85.222656 C 35.714844 85.386719 38.394531 85.46875 40.878906 85.46875 C 43.453125 85.46875 45.820312 85.382812 47.855469 85.207031 C 51.292969 84.914062 52.929688 84.441406 53.710938 84.003906 Z M 54.4375 82.085938 C 54.4375 82.070312 54.433594 82.050781 54.433594 82.035156 L 54.429688 58.050781 C 54.433594 58.019531 54.433594 57.988281 54.429688 57.957031 L 54.429688 57.082031 C 54.433594 57.082031 54.433594 57.078125 54.433594 57.074219 C 54.433594 57.0625 54.429688 57.058594 54.429688 57.046875 L 54.429688 52.6875 C 54.433594 52.683594 54.433594 52.679688 54.433594 52.671875 C 54.433594 52.660156 54.429688 52.648438 54.429688 52.636719 L 54.429688 52.351562 C 54.429688 52.179688 54.308594 52.046875 54.148438 52.011719 C 52.328125 50.035156 42.136719 48.734375 35.03125 48.3125 C 29.875 48.003906 25.007812 48.011719 21.324219 48.335938 C 17.222656 48.691406 15.863281 49.300781 15.429688 49.851562 C 15.355469 49.910156 15.300781 49.996094 15.285156 50.097656 C 15.285156 50.109375 15.285156 50.117188 15.28125 50.125 C 15.257812 50.199219 15.246094 50.273438 15.242188 50.339844 C 15.242188 50.359375 15.25 50.378906 15.253906 50.402344 C 14.828125 54.164062 14.300781 58.765625 13.734375 63.714844 C 13.707031 63.785156 13.6875 63.859375 13.683594 63.933594 C 13.683594 63.96875 13.691406 64 13.699219 64.03125 C 13.644531 64.5 13.59375 64.96875 13.535156 65.441406 C 13.46875 65.582031 13.460938 65.703125 13.457031 65.785156 C 13.453125 65.84375 13.464844 65.890625 13.480469 65.9375 C 13.15625 68.753906 12.824219 71.65625 12.492188 74.558594 C 12.304688 76.183594 12.121094 77.804688 11.9375 79.414062 C 11.914062 79.457031 11.898438 79.5 11.894531 79.554688 C 11.894531 79.601562 11.890625 79.664062 11.894531 79.738281 C 11.070312 86.9375 10.285156 93.8125 9.699219 99.019531 C 9.679688 99.199219 9.789062 99.359375 9.964844 99.402344 C 14.546875 100.570312 19.222656 101.164062 23.875 101.164062 C 24.011719 101.164062 24.148438 101.164062 24.28125 101.160156 C 27.878906 101.136719 38.832031 101.054688 50.007812 94.488281 C 51.480469 93.625 52.921875 92.667969 54.285156 91.644531 C 54.378906 91.574219 54.433594 91.472656 54.433594 91.359375 L 54.433594 83.15625 C 54.433594 83.125 54.433594 83.097656 54.4375 83.074219 C 54.4375 83.054688 54.433594 83.039062 54.433594 83.023438 L 54.433594 82.171875 C 54.433594 82.136719 54.433594 82.113281 54.4375 82.085938 " fill-opacity="1" fill-rule="nonzero"/></g><g clip-path="url(#4f7a1a1c1b)"><path fill="#ffffff" d="M 77.984375 47.574219 L 81.671875 47.574219 L 81.671875 51.195312 L 77.984375 51.195312 Z M 77.765625 45.535156 C 77.964844 45.316406 78.207031 45.253906 78.519531 45.179688 C 78.871094 45.09375 79.308594 44.984375 79.71875 44.601562 C 79.777344 44.546875 79.832031 44.488281 79.882812 44.429688 C 79.941406 44.492188 80.003906 44.554688 80.066406 44.609375 C 80.5 44.988281 80.953125 45.046875 81.316406 45.097656 C 81.660156 45.140625 81.863281 45.175781 82.042969 45.351562 C 82.394531 45.6875 82.339844 46.277344 82.339844 46.285156 C 82.316406 46.527344 82.222656 46.71875 82.128906 46.859375 L 77.683594 46.859375 C 77.589844 46.714844 77.5 46.511719 77.496094 46.265625 C 77.496094 46.195312 77.507812 45.828125 77.765625 45.535156 Z M 76.992188 51.195312 C 76.792969 51.195312 76.632812 51.359375 76.632812 51.554688 C 76.632812 51.75 76.792969 51.910156 76.992188 51.910156 L 82.667969 51.910156 C 82.863281 51.910156 83.027344 51.75 83.027344 51.554688 C 83.027344 51.359375 82.863281 51.195312 82.667969 51.195312 L 82.394531 51.195312 L 82.394531 47.574219 L 82.660156 47.574219 C 82.859375 47.574219 83.019531 47.414062 83.019531 47.214844 C 83.019531 47.109375 82.96875 47.015625 82.894531 46.949219 C 82.972656 46.78125 83.03125 46.582031 83.054688 46.355469 C 83.066406 46.257812 83.136719 45.398438 82.542969 44.835938 C 82.183594 44.492188 81.773438 44.433594 81.414062 44.390625 C 81.089844 44.347656 80.808594 44.308594 80.542969 44.074219 C 80.410156 43.957031 80.296875 43.800781 80.210938 43.625 C 80.15625 43.496094 80.03125 43.417969 79.886719 43.414062 C 79.753906 43.410156 79.625 43.492188 79.5625 43.617188 C 79.476562 43.796875 79.363281 43.953125 79.222656 44.082031 C 78.949219 44.339844 78.671875 44.40625 78.347656 44.488281 C 77.984375 44.574219 77.574219 44.675781 77.226562 45.066406 C 76.804688 45.535156 76.777344 46.105469 76.777344 46.269531 C 76.777344 46.496094 76.824219 46.699219 76.890625 46.878906 C 76.746094 46.925781 76.640625 47.054688 76.640625 47.214844 C 76.640625 47.414062 76.796875 47.574219 76.996094 47.574219 L 77.265625 47.574219 L 77.265625 51.195312 Z M 58.832031 47.574219 L 62.519531 47.574219 L 62.519531 51.195312 L 58.832031 51.195312 Z M 58.613281 45.535156 C 58.808594 45.316406 59.054688 45.253906 59.363281 45.179688 C 59.714844 45.09375 60.15625 44.984375 60.5625 44.601562 C 60.625 44.546875 60.679688 44.488281 60.730469 44.429688 C 60.789062 44.492188 60.847656 44.554688 60.914062 44.609375 C 61.34375 44.988281 61.796875 45.046875 62.164062 45.097656 C 62.503906 45.140625 62.710938 45.175781 62.890625 45.351562 C 63.242188 45.6875 63.1875 46.277344 63.1875 46.285156 C 63.164062 46.527344 63.074219 46.71875 62.976562 46.859375 L 58.53125 46.859375 C 58.4375 46.714844 58.34375 46.511719 58.34375 46.265625 C 58.34375 46.195312 58.351562 45.828125 58.613281 45.535156 Z M 57.839844 51.195312 C 57.640625 51.195312 57.476562 51.359375 57.476562 51.554688 C 57.476562 51.75 57.640625 51.910156 57.839844 51.910156 L 63.511719 51.910156 C 63.710938 51.910156 63.871094 51.75 63.871094 51.554688 C 63.871094 51.359375 63.710938 51.195312 63.511719 51.195312 L 63.242188 51.195312 L 63.242188 47.574219 L 63.507812 47.574219 C 63.707031 47.574219 63.867188 47.414062 63.867188 47.214844 C 63.867188 47.109375 63.816406 47.015625 63.742188 46.949219 C 63.816406 46.78125 63.882812 46.582031 63.902344 46.355469 C 63.914062 46.257812 63.980469 45.398438 63.390625 44.835938 C 63.027344 44.492188 62.621094 44.433594 62.261719 44.390625 C 61.9375 44.347656 61.65625 44.308594 61.390625 44.074219 C 61.253906 43.957031 61.140625 43.800781 61.058594 43.625 C 61 43.496094 60.875 43.417969 60.734375 43.414062 C 60.605469 43.410156 60.46875 43.492188 60.410156 43.617188 C 60.324219 43.796875 60.207031 43.953125 60.074219 44.082031 C 59.796875 44.339844 59.519531 44.40625 59.191406 44.488281 C 58.832031 44.574219 58.417969 44.675781 58.070312 45.066406 C 57.652344 45.535156 57.621094 46.105469 57.625 46.269531 C 57.625 46.496094 57.667969 46.699219 57.738281 46.878906 C 57.59375 46.925781 57.484375 47.054688 57.484375 47.214844 C 57.484375 47.414062 57.648438 47.574219 57.84375 47.574219 L 58.113281 47.574219 L 58.113281 51.195312 Z M 68.648438 46.867188 C 68.648438 46.714844 68.703125 46.570312 68.808594 46.453125 L 70.363281 44.785156 L 72.199219 46.40625 C 72.320312 46.515625 72.394531 46.675781 72.394531 46.839844 L 72.4375 49.277344 L 68.691406 49.277344 Z M 67.78125 49.992188 L 68.339844 49.992188 C 68.339844 49.992188 68.34375 49.992188 68.34375 49.992188 L 73.3125 49.992188 C 73.511719 49.992188 73.671875 49.832031 73.671875 49.636719 C 73.671875 49.4375 73.511719 49.277344 73.3125 49.277344 L 73.160156 49.277344 L 73.117188 46.824219 C 73.109375 46.460938 72.949219 46.113281 72.675781 45.875 L 70.578125 44.019531 C 70.433594 43.890625 70.207031 43.898438 70.074219 44.042969 L 68.28125 45.96875 C 68.050781 46.21875 67.925781 46.542969 67.929688 46.882812 L 67.972656 49.277344 L 67.78125 49.277344 C 67.585938 49.277344 67.421875 49.4375 67.421875 49.636719 C 67.421875 49.832031 67.585938 49.992188 67.78125 49.992188 Z M 79.679688 90.921875 L 79.679688 72.722656 C 79.679688 72.429688 79.648438 72.140625 79.585938 71.859375 L 79.585938 70.132812 C 79.585938 68.960938 79.105469 67.832031 78.273438 67.039062 L 70.242188 59.371094 C 70.175781 59.308594 70.085938 59.265625 69.984375 59.273438 C 69.886719 59.277344 69.796875 59.320312 69.734375 59.390625 L 65.667969 63.796875 C 64.683594 64.863281 63.699219 65.929688 62.710938 66.996094 L 62.632812 67.085938 C 61.910156 67.867188 61.511719 68.898438 61.511719 69.988281 L 61.511719 71.714844 C 61.449219 72 61.414062 72.285156 61.414062 72.582031 L 61.414062 90.921875 L 54.417969 90.921875 L 54.417969 54.425781 L 86.671875 54.425781 L 86.671875 90.921875 Z M 75.671875 90.921875 L 65.421875 90.921875 L 65.421875 79.59375 C 65.421875 79.082031 65.621094 78.597656 65.972656 78.230469 L 70.214844 73.824219 L 75.03125 78.230469 C 75.4375 78.597656 75.671875 79.128906 75.671875 79.683594 Z M 62.136719 72.582031 C 62.136719 71.710938 62.46875 70.882812 63.074219 70.25 L 70.007812 63.050781 L 77.863281 70.242188 C 78.5625 70.875 78.960938 71.78125 78.960938 72.722656 L 78.960938 90.921875 L 76.390625 90.921875 L 76.390625 79.683594 C 76.390625 78.929688 76.074219 78.210938 75.519531 77.699219 L 70.441406 73.0625 C 70.300781 72.929688 70.074219 72.9375 69.941406 73.078125 L 65.457031 77.734375 C 64.96875 78.238281 64.703125 78.898438 64.703125 79.59375 L 64.703125 90.921875 L 62.136719 90.921875 Z M 78.863281 70.289062 C 78.714844 70.082031 78.542969 69.890625 78.351562 69.714844 L 70.234375 62.289062 C 70.09375 62.15625 69.867188 62.164062 69.734375 62.304688 L 62.558594 69.753906 C 62.4375 69.878906 62.328125 70.011719 62.230469 70.144531 L 62.230469 69.988281 C 62.230469 69.078125 62.5625 68.21875 63.164062 67.566406 L 63.242188 67.480469 C 64.226562 66.414062 65.210938 65.34375 66.199219 64.277344 L 70.011719 60.144531 L 77.777344 67.554688 C 78.46875 68.214844 78.863281 69.15625 78.863281 70.132812 Z M 54.417969 42.179688 L 86.671875 42.179688 L 86.671875 53.710938 L 54.417969 53.710938 Z M 55.148438 40.359375 L 85.945312 40.359375 L 85.945312 41.464844 L 55.148438 41.464844 Z M 87.035156 41.464844 L 86.664062 41.464844 L 86.664062 40 C 86.664062 39.804688 86.503906 39.644531 86.304688 39.644531 L 54.789062 39.644531 C 54.589844 39.644531 54.429688 39.804688 54.429688 40 L 54.429688 41.464844 L 54.058594 41.464844 C 53.859375 41.464844 53.699219 41.625 53.699219 41.820312 L 53.699219 91.28125 C 53.699219 91.476562 53.859375 91.636719 54.058594 91.636719 L 87.035156 91.636719 C 87.230469 91.636719 87.394531 91.476562 87.394531 91.28125 L 87.394531 41.820312 C 87.394531 41.625 87.230469 41.464844 87.035156 41.464844 " fill-opacity="1" fill-rule="nonzero"/></g></svg>