<svg xmlns="http://www.w3.org/2000/svg" xmlns:xlink="http://www.w3.org/1999/xlink" width="188" zoomAndPan="magnify" viewBox="0 0 141.75 141.749996" height="188" preserveAspectRatio="xMidYMid meet" version="1.0"><defs><clipPath id="9089b5551c"><path d="M 28 28 L 126.734375 28 L 126.734375 127.546875 L 28 127.546875 Z M 28 28 " clip-rule="nonzero"/></clipPath><clipPath id="972974f922"><path d="M 15 15.796875 L 114 15.796875 L 114 115 L 15 115 Z M 15 15.796875 " clip-rule="nonzero"/></clipPath></defs><path fill="#f58420" d="M 30.183594 125.476562 C 30.046875 106.273438 30.347656 83.339844 30.210938 64.128906 C 30.140625 54.191406 29.480469 31.597656 30.148438 31.757812 C 38.21875 33.660156 107.996094 28.488281 121.144531 29.980469 C 122.691406 69.960938 125.347656 102.78125 124.359375 125.472656 C 78.195312 125.601562 30.183594 125.476562 30.183594 125.476562 Z M 30.183594 125.476562 " fill-opacity="1" fill-rule="nonzero"/><g clip-path="url(#9089b5551c)"><path fill="#000000" d="M 31.699219 125.476562 C 31.5625 105.453125 31.855469 85.429688 31.734375 65.402344 C 31.695312 58.78125 31.535156 52.164062 31.4375 45.546875 C 31.394531 42.410156 31.347656 39.273438 31.375 36.136719 C 31.382812 35.226562 31.390625 34.320312 31.433594 33.414062 C 31.449219 33.105469 31.566406 32.65625 31.503906 32.359375 C 31.527344 32.496094 31.546875 32.515625 31.492188 32.421875 C 31.210938 31.925781 29.402344 32.839844 29.929688 33.257812 C 30.535156 33.738281 32.589844 33.570312 33.351562 33.605469 C 35.039062 33.6875 36.730469 33.699219 38.414062 33.699219 C 43.339844 33.691406 48.261719 33.535156 53.183594 33.367188 C 65.621094 32.9375 78.050781 32.324219 90.484375 31.832031 C 96.734375 31.582031 102.988281 31.355469 109.246094 31.257812 C 113.191406 31.195312 117.214844 31.0625 121.144531 31.492188 C 120.636719 30.988281 120.136719 30.484375 119.628906 29.980469 C 120.652344 56.332031 122.640625 82.671875 123.019531 109.046875 C 123.097656 114.519531 123.078125 120 122.84375 125.472656 C 123.347656 124.964844 123.851562 124.464844 124.359375 123.957031 C 95.113281 124.039062 65.867188 124.035156 36.621094 123.976562 C 34.476562 123.972656 32.332031 123.964844 30.183594 123.960938 C 28.234375 123.953125 28.234375 126.984375 30.183594 126.988281 C 51.511719 127.042969 72.839844 127.054688 94.167969 127.039062 C 104.230469 127.027344 114.292969 127.011719 124.359375 126.984375 C 125.203125 126.984375 125.835938 126.292969 125.871094 125.472656 C 126.863281 102.117188 124.9375 78.621094 123.792969 55.308594 C 123.375 46.867188 122.988281 38.425781 122.660156 29.980469 C 122.625 29.089844 121.984375 28.558594 121.144531 28.464844 C 117.625 28.078125 114.035156 28.167969 110.503906 28.210938 C 105.058594 28.273438 99.617188 28.457031 94.179688 28.660156 C 81.351562 29.140625 68.535156 29.777344 55.710938 30.25 C 50.503906 30.4375 45.300781 30.613281 40.089844 30.660156 C 38.175781 30.675781 36.257812 30.679688 34.347656 30.613281 C 33.285156 30.582031 31.609375 30.476562 31.046875 30.390625 C 29.214844 30.117188 28.589844 30.9375 28.449219 32.652344 C 28.261719 34.890625 28.335938 37.167969 28.347656 39.410156 C 28.382812 46.269531 28.550781 53.125 28.652344 59.980469 C 28.976562 81.8125 28.523438 103.644531 28.671875 125.476562 C 28.6875 127.425781 31.714844 127.429688 31.699219 125.476562 Z M 31.699219 125.476562 " fill-opacity="1" fill-rule="nonzero"/></g><path fill="#febf10" d="M 17.183594 112.867188 C 17.046875 93.660156 17.347656 70.730469 17.210938 51.523438 C 17.140625 41.582031 16.480469 18.992188 17.148438 19.148438 C 25.21875 21.050781 94.996094 15.882812 108.144531 17.371094 C 109.691406 57.351562 112.347656 90.171875 111.355469 112.863281 C 65.195312 112.996094 17.183594 112.867188 17.183594 112.867188 Z M 17.183594 112.867188 " fill-opacity="1" fill-rule="nonzero"/><g clip-path="url(#972974f922)"><path fill="#000000" d="M 18.699219 112.867188 C 18.578125 95.234375 18.785156 77.59375 18.757812 59.960938 C 18.738281 47.871094 18.269531 35.777344 18.363281 23.6875 C 18.371094 22.835938 18.378906 21.980469 18.414062 21.125 C 18.425781 20.789062 18.4375 20.449219 18.46875 20.113281 C 18.496094 19.75 18.511719 19.722656 18.515625 19.722656 C 18.761719 19.875 16.757812 20.410156 17.632812 20.65625 C 17.761719 20.695312 18.007812 20.640625 18.132812 20.648438 C 18.570312 20.679688 19.03125 20.628906 19.46875 20.621094 C 20.460938 20.597656 21.453125 20.578125 22.445312 20.558594 C 27.351562 20.449219 32.257812 20.328125 37.164062 20.214844 C 49.59375 19.917969 62.027344 19.617188 74.457031 19.355469 C 85.679688 19.117188 96.917969 18.824219 108.144531 18.890625 C 107.636719 18.386719 107.132812 17.882812 106.628906 17.378906 C 107.652344 43.730469 109.640625 70.074219 110.019531 96.445312 C 110.097656 101.917969 110.074219 107.398438 109.84375 112.871094 C 110.347656 112.363281 110.851562 111.863281 111.355469 111.355469 C 82.109375 111.4375 52.863281 111.433594 23.617188 111.375 C 21.476562 111.371094 19.332031 111.367188 17.183594 111.359375 C 15.234375 111.351562 15.234375 114.382812 17.183594 114.386719 C 38.511719 114.441406 59.839844 114.453125 81.164062 114.4375 C 91.230469 114.425781 101.292969 114.410156 111.355469 114.382812 C 112.203125 114.382812 112.835938 113.691406 112.871094 112.871094 C 113.863281 89.515625 111.9375 66.019531 110.789062 42.707031 C 110.375 34.265625 109.988281 25.824219 109.65625 17.378906 C 109.625 16.554688 108.988281 15.867188 108.144531 15.863281 C 85.300781 15.726562 62.429688 16.582031 39.597656 17.128906 C 34.316406 17.257812 29.035156 17.382812 23.75 17.5 C 21.792969 17.542969 19.832031 17.5625 17.878906 17.625 C 16.085938 17.6875 15.578125 18.4375 15.4375 20.121094 C 15.039062 24.925781 15.347656 29.859375 15.425781 34.679688 C 15.523438 40.613281 15.664062 46.542969 15.703125 52.472656 C 15.828125 72.605469 15.53125 92.738281 15.667969 112.867188 C 15.679688 114.816406 18.710938 114.820312 18.699219 112.867188 Z M 18.699219 112.867188 " fill-opacity="1" fill-rule="nonzero"/></g><path fill="#d6e5e5" d="M 95.773438 35.789062 C 95.773438 36.191406 95.726562 36.585938 95.640625 36.976562 C 95.554688 37.367188 95.425781 37.75 95.253906 38.117188 C 95.082031 38.488281 94.871094 38.839844 94.621094 39.171875 C 94.375 39.503906 94.089844 39.808594 93.773438 40.09375 C 93.457031 40.375 93.113281 40.628906 92.742188 40.847656 C 92.367188 41.070312 91.976562 41.257812 91.5625 41.410156 C 91.148438 41.5625 90.722656 41.679688 90.28125 41.757812 C 89.84375 41.835938 89.398438 41.875 88.953125 41.875 C 88.503906 41.875 88.058594 41.835938 87.621094 41.757812 C 87.183594 41.679688 86.753906 41.5625 86.34375 41.410156 C 85.929688 41.257812 85.535156 41.070312 85.164062 40.847656 C 84.789062 40.628906 84.445312 40.375 84.128906 40.09375 C 83.8125 39.808594 83.53125 39.503906 83.28125 39.171875 C 83.03125 38.839844 82.820312 38.488281 82.652344 38.117188 C 82.480469 37.75 82.351562 37.367188 82.261719 36.976562 C 82.175781 36.585938 82.132812 36.191406 82.132812 35.789062 C 82.132812 35.390625 82.175781 34.996094 82.261719 34.601562 C 82.351562 34.210938 82.480469 33.832031 82.652344 33.460938 C 82.820312 33.09375 83.03125 32.742188 83.28125 32.410156 C 83.53125 32.078125 83.8125 31.769531 84.128906 31.488281 C 84.445312 31.207031 84.789062 30.953125 85.164062 30.730469 C 85.535156 30.507812 85.929688 30.320312 86.34375 30.167969 C 86.753906 30.015625 87.183594 29.902344 87.621094 29.824219 C 88.058594 29.746094 88.503906 29.707031 88.953125 29.707031 C 89.398438 29.707031 89.84375 29.746094 90.28125 29.824219 C 90.722656 29.902344 91.148438 30.015625 91.5625 30.167969 C 91.976562 30.320312 92.367188 30.507812 92.742188 30.730469 C 93.113281 30.953125 93.457031 31.207031 93.773438 31.488281 C 94.089844 31.769531 94.375 32.078125 94.621094 32.410156 C 94.871094 32.742188 95.082031 33.09375 95.253906 33.460938 C 95.425781 33.832031 95.554688 34.210938 95.640625 34.601562 C 95.726562 34.996094 95.773438 35.390625 95.773438 35.789062 Z M 95.773438 35.789062 " fill-opacity="1" fill-rule="nonzero"/><path fill="#000000" d="M 97.230469 32.785156 C 96.714844 29.480469 92.835938 27.882812 89.859375 27.945312 C 85.667969 28.03125 82.3125 31.058594 81.296875 35.0625 C 81.082031 35.898438 81.195312 36.742188 81.339844 37.582031 C 81.527344 38.671875 81.929688 39.792969 82.570312 40.707031 C 83.457031 41.960938 84.722656 42.902344 86.246094 43.21875 C 87.785156 43.535156 89.5 43.414062 91.019531 43.046875 C 92.558594 42.675781 94.015625 41.851562 95.019531 40.617188 C 96.339844 38.996094 96.953125 36.988281 97.230469 34.941406 C 97.335938 34.132812 97.035156 33.316406 96.171875 33.078125 C 95.464844 32.886719 94.417969 33.320312 94.308594 34.136719 C 94.195312 34.96875 94.039062 35.796875 93.789062 36.597656 C 93.578125 37.269531 93.46875 37.535156 93.078125 38.160156 C 93.007812 38.277344 92.929688 38.390625 92.847656 38.507812 C 92.710938 38.699219 92.984375 38.34375 92.835938 38.523438 C 92.792969 38.574219 92.753906 38.625 92.710938 38.671875 C 92.523438 38.886719 92.320312 39.066406 92.113281 39.257812 C 91.988281 39.371094 92.160156 39.230469 92.175781 39.214844 C 92.125 39.25 92.074219 39.292969 92.023438 39.324219 C 91.917969 39.394531 91.816406 39.464844 91.710938 39.527344 C 91.605469 39.589844 91.496094 39.652344 91.386719 39.710938 C 91.332031 39.738281 91.273438 39.761719 91.21875 39.789062 C 90.972656 39.929688 91.351562 39.75 91.183594 39.8125 C 90.683594 40.003906 90.167969 40.144531 89.640625 40.234375 C 89.535156 40.253906 89.242188 40.289062 89.511719 40.261719 C 89.375 40.277344 89.238281 40.289062 89.101562 40.300781 C 88.777344 40.328125 88.445312 40.34375 88.117188 40.351562 C 87.804688 40.355469 87.488281 40.355469 87.175781 40.320312 C 87.402344 40.347656 87.046875 40.292969 86.980469 40.277344 C 86.820312 40.242188 86.664062 40.195312 86.5 40.144531 C 86.160156 40.039062 86.527344 40.179688 86.308594 40.074219 C 86.191406 40.015625 86.082031 39.953125 85.972656 39.886719 C 85.867188 39.824219 85.761719 39.753906 85.664062 39.683594 C 85.898438 39.851562 85.636719 39.648438 85.554688 39.570312 C 85.46875 39.488281 85.386719 39.402344 85.308594 39.316406 C 85.269531 39.273438 85.058594 39.003906 85.167969 39.15625 C 85.277344 39.300781 85.066406 38.996094 85.027344 38.929688 C 84.957031 38.820312 84.890625 38.707031 84.828125 38.589844 C 84.777344 38.492188 84.730469 38.390625 84.683594 38.292969 C 84.546875 38.023438 84.691406 38.328125 84.664062 38.253906 C 84.589844 38.039062 84.507812 37.824219 84.449219 37.605469 C 84.390625 37.40625 84.34375 37.199219 84.300781 36.988281 C 84.265625 36.800781 84.234375 36.269531 84.25 36.75 C 84.238281 36.476562 84.207031 36.203125 84.199219 35.925781 C 84.199219 35.878906 84.230469 35.757812 84.210938 35.71875 C 84.277344 35.847656 84.070312 36.328125 84.214844 35.863281 C 84.289062 35.628906 84.351562 35.394531 84.429688 35.164062 C 84.683594 34.4375 85.058594 33.726562 85.535156 33.121094 C 86.429688 31.976562 87.496094 31.359375 88.839844 31.074219 C 89.3125 30.976562 89.265625 30.984375 89.78125 30.96875 C 90.144531 30.957031 90.511719 30.972656 90.875 31.011719 C 91.054688 31.03125 90.886719 31.015625 90.855469 31.007812 C 90.953125 31.023438 91.054688 31.042969 91.152344 31.0625 C 91.324219 31.097656 91.5 31.136719 91.667969 31.183594 C 91.835938 31.230469 92 31.28125 92.164062 31.339844 C 92.234375 31.363281 92.300781 31.390625 92.371094 31.414062 C 92.523438 31.476562 92.230469 31.339844 92.472656 31.460938 C 92.761719 31.609375 93.039062 31.769531 93.308594 31.949219 C 93.507812 32.082031 93.242188 31.863281 93.472656 32.082031 C 93.582031 32.1875 93.691406 32.289062 93.796875 32.402344 C 93.839844 32.445312 93.882812 32.5 93.921875 32.542969 C 94.066406 32.707031 93.800781 32.351562 93.914062 32.539062 C 93.996094 32.675781 94.078125 32.820312 94.160156 32.960938 C 94.246094 33.105469 94.140625 32.898438 94.128906 32.875 C 94.15625 32.953125 94.1875 33.027344 94.210938 33.105469 C 94.25 33.265625 94.289062 33.421875 94.3125 33.582031 C 94.4375 34.390625 95.449219 34.839844 96.175781 34.640625 C 97.039062 34.414062 97.355469 33.597656 97.230469 32.785156 Z M 97.230469 32.785156 " fill-opacity="1" fill-rule="nonzero"/><path fill="#f58420" d="M 25.597656 91.757812 C 39.710938 68.214844 40.289062 66.050781 50.585938 44.042969 C 61.554688 65.007812 70.6875 79.859375 76.851562 92.390625 C 54.984375 92.390625 51.226562 92.390625 25.597656 91.757812 " fill-opacity="1" fill-rule="nonzero"/><path fill="#f58420" d="M 71.9375 82.242188 C 76.550781 76.335938 79.332031 74.121094 83.941406 68.214844 C 90.164062 77.203125 94.222656 84.195312 99.425781 91.769531 C 87.683594 91.960938 86.695312 92.371094 76.851562 92.390625 " fill-opacity="1" fill-rule="nonzero"/><path fill="#000000" d="M 26.90625 92.523438 C 31.722656 84.484375 36.554688 76.433594 40.832031 68.089844 C 44.75 60.445312 48.253906 52.589844 51.894531 44.808594 C 51.023438 44.808594 50.152344 44.808594 49.28125 44.808594 C 57.789062 61.046875 67.433594 76.71875 75.542969 93.15625 C 75.980469 92.394531 76.417969 91.636719 76.851562 90.878906 C 59.761719 90.878906 42.6875 90.667969 25.601562 90.246094 C 23.652344 90.199219 23.65625 93.226562 25.601562 93.277344 C 42.6875 93.695312 59.761719 93.90625 76.851562 93.90625 C 78.0625 93.90625 78.65625 92.636719 78.160156 91.628906 C 70.046875 75.1875 60.402344 59.519531 51.898438 43.28125 C 51.398438 42.328125 49.761719 42.257812 49.285156 43.28125 C 45.648438 51.0625 42.140625 58.917969 38.222656 66.566406 C 33.945312 74.910156 29.117188 82.960938 24.296875 91 C 23.289062 92.671875 25.90625 94.195312 26.90625 92.523438 Z M 26.90625 92.523438 " fill-opacity="1" fill-rule="nonzero"/><path fill="#000000" d="M 73.011719 83.3125 C 76.816406 78.46875 81.207031 74.132812 85.015625 69.289062 C 84.222656 69.183594 83.429688 69.085938 82.636719 68.980469 C 87.980469 76.71875 92.808594 84.785156 98.121094 92.539062 C 98.558594 91.777344 98.996094 91.015625 99.429688 90.261719 C 91.902344 90.386719 84.386719 90.859375 76.855469 90.878906 C 74.910156 90.882812 74.902344 93.914062 76.855469 93.90625 C 84.386719 93.886719 91.902344 93.414062 99.429688 93.289062 C 100.507812 93.269531 101.410156 91.988281 100.738281 91.011719 C 95.425781 83.257812 90.597656 75.1875 85.253906 67.457031 C 84.761719 66.742188 83.523438 66.324219 82.875 67.148438 C 79.070312 71.996094 74.679688 76.328125 70.871094 81.175781 C 69.675781 82.6875 71.804688 84.84375 73.011719 83.3125 Z M 73.011719 83.3125 " fill-opacity="1" fill-rule="nonzero"/></svg>