<svg xmlns="http://www.w3.org/2000/svg" xmlns:xlink="http://www.w3.org/1999/xlink" width="188" zoomAndPan="magnify" viewBox="0 0 141.12 141.750002" height="188" preserveAspectRatio="xMidYMid meet" version="1.0"><defs><clipPath id="e754141216"><path d="M 19.804688 9.210938 L 120.636719 9.210938 L 120.636719 126.355469 L 19.804688 126.355469 Z M 19.804688 9.210938 " clip-rule="nonzero"/></clipPath></defs><g clip-path="url(#e754141216)"><path fill="#ffffff" d="M 57.621094 82.425781 L 42.921875 82.425781 C 42.164062 82.425781 41.410156 82.464844 40.65625 82.535156 C 39.90625 82.609375 39.15625 82.722656 38.414062 82.867188 C 37.675781 83.015625 36.941406 83.199219 36.21875 83.417969 C 35.492188 83.636719 34.78125 83.890625 34.082031 84.175781 C 33.382812 84.464844 32.699219 84.789062 32.035156 85.144531 C 31.367188 85.5 30.71875 85.886719 30.089844 86.304688 C 29.460938 86.722656 28.851562 87.171875 28.269531 87.648438 C 27.683594 88.128906 27.125 88.632812 26.589844 89.164062 C 26.054688 89.699219 25.546875 90.257812 25.066406 90.839844 C 24.585938 91.421875 24.136719 92.027344 23.714844 92.652344 C 23.296875 93.277344 22.90625 93.925781 22.550781 94.589844 C 22.195312 95.253906 21.871094 95.933594 21.582031 96.628906 C 21.292969 97.328125 21.039062 98.035156 20.816406 98.757812 C 20.597656 99.476562 20.414062 100.207031 20.265625 100.945312 C 20.121094 101.6875 20.007812 102.429688 19.933594 103.179688 C 19.859375 103.929688 19.824219 104.683594 19.824219 105.4375 L 19.824219 124.261719 C 19.824219 124.539062 19.875 124.808594 19.984375 125.0625 C 20.089844 125.320312 20.242188 125.546875 20.4375 125.742188 C 20.636719 125.9375 20.863281 126.089844 21.121094 126.195312 C 21.378906 126.300781 21.644531 126.355469 21.921875 126.355469 L 118.515625 126.355469 C 118.796875 126.355469 119.0625 126.300781 119.320312 126.195312 C 119.578125 126.089844 119.804688 125.9375 120 125.742188 C 120.199219 125.546875 120.351562 125.320312 120.457031 125.0625 C 120.5625 124.808594 120.617188 124.539062 120.617188 124.261719 L 120.617188 105.4375 C 120.617188 104.683594 120.578125 103.929688 120.503906 103.179688 C 120.429688 102.429688 120.320312 101.6875 120.171875 100.945312 C 120.027344 100.207031 119.84375 99.476562 119.621094 98.757812 C 119.402344 98.035156 119.148438 97.328125 118.859375 96.628906 C 118.570312 95.933594 118.246094 95.253906 117.890625 94.589844 C 117.53125 93.925781 117.144531 93.277344 116.722656 92.652344 C 116.304688 92.027344 115.855469 91.421875 115.375 90.839844 C 114.894531 90.257812 114.386719 89.699219 113.851562 89.164062 C 113.316406 88.632812 112.757812 88.128906 112.171875 87.648438 C 111.585938 87.171875 110.980469 86.722656 110.351562 86.304688 C 109.722656 85.886719 109.074219 85.5 108.40625 85.144531 C 107.738281 84.789062 107.058594 84.464844 106.359375 84.175781 C 105.660156 83.890625 104.949219 83.636719 104.222656 83.417969 C 103.5 83.199219 102.765625 83.015625 102.023438 82.867188 C 101.28125 82.722656 100.535156 82.609375 99.78125 82.535156 C 99.03125 82.464844 98.273438 82.425781 97.519531 82.425781 L 97.289062 82.425781 C 98.703125 81.050781 99.792969 79.457031 100.5625 77.640625 C 101.332031 75.828125 101.714844 73.9375 101.71875 71.96875 C 101.71875 71.691406 101.664062 71.421875 101.558594 71.167969 C 101.453125 70.910156 101.300781 70.683594 101.101562 70.488281 C 100.90625 70.292969 100.679688 70.140625 100.421875 70.035156 C 100.164062 69.929688 99.898438 69.875 99.617188 69.875 C 98.742188 69.875 97.875 69.953125 97.011719 70.109375 C 96.148438 70.265625 95.308594 70.496094 94.488281 70.800781 C 93.667969 71.109375 92.882812 71.484375 92.128906 71.929688 C 91.375 72.375 90.667969 72.882812 90.007812 73.453125 C 89.34375 74.027344 88.738281 74.652344 88.1875 75.332031 C 87.640625 76.011719 87.15625 76.734375 86.734375 77.5 C 86.316406 78.265625 85.96875 79.0625 85.691406 79.890625 C 85.414062 80.71875 85.210938 81.5625 85.085938 82.425781 L 82.820312 82.425781 C 81.871094 81.738281 81.066406 80.914062 80.398438 79.953125 C 79.734375 78.992188 79.246094 77.945312 78.933594 76.820312 C 79.953125 76.296875 80.933594 75.707031 81.878906 75.058594 C 82.820312 74.40625 83.71875 73.699219 84.570312 72.933594 C 85.421875 72.167969 86.21875 71.351562 86.964844 70.484375 C 87.710938 69.613281 88.398438 68.703125 89.023438 67.746094 C 89.652344 66.789062 90.214844 65.796875 90.714844 64.769531 C 91.214844 63.738281 91.644531 62.683594 92.007812 61.597656 C 92.367188 60.515625 92.660156 59.410156 92.878906 58.289062 C 93.097656 57.167969 93.246094 56.039062 93.320312 54.898438 C 93.929688 54.6875 94.496094 54.394531 95.019531 54.011719 C 95.539062 53.628906 95.988281 53.175781 96.371094 52.652344 C 96.75 52.132812 97.042969 51.566406 97.25 50.957031 C 97.457031 50.34375 97.566406 49.714844 97.574219 49.070312 C 97.585938 48.425781 97.5 47.796875 97.316406 47.179688 C 97.132812 46.558594 96.859375 45.984375 96.5 45.449219 C 96.136719 44.914062 95.703125 44.449219 95.195312 44.046875 C 94.6875 43.644531 94.132812 43.332031 93.527344 43.101562 L 93.96875 37.953125 C 94.054688 36.894531 94.050781 35.835938 93.957031 34.777344 C 93.863281 33.71875 93.679688 32.675781 93.40625 31.648438 C 93.136719 30.621094 92.78125 29.625 92.339844 28.660156 C 91.898438 27.691406 91.378906 26.769531 90.78125 25.886719 C 90.183594 25.007812 89.515625 24.183594 88.777344 23.417969 C 88.039062 22.652344 87.242188 21.949219 86.386719 21.320312 C 85.53125 20.6875 84.625 20.128906 83.675781 19.648438 C 82.722656 19.167969 81.738281 18.773438 80.71875 18.457031 L 80.71875 17.578125 C 80.71875 12.957031 76.015625 9.210938 70.21875 9.210938 C 64.425781 9.210938 59.722656 12.957031 59.722656 17.578125 L 59.722656 18.457031 C 58.707031 18.773438 57.722656 19.175781 56.773438 19.65625 C 55.828125 20.140625 54.925781 20.695312 54.074219 21.332031 C 53.21875 21.964844 52.425781 22.664062 51.691406 23.433594 C 50.957031 24.199219 50.292969 25.023438 49.699219 25.902344 C 49.101562 26.78125 48.585938 27.707031 48.148438 28.671875 C 47.710938 29.636719 47.355469 30.632812 47.085938 31.660156 C 46.816406 32.6875 46.636719 33.726562 46.542969 34.785156 C 46.449219 35.839844 46.449219 36.898438 46.535156 37.953125 L 46.976562 43.121094 C 46.382812 43.347656 45.832031 43.65625 45.332031 44.046875 C 44.832031 44.4375 44.402344 44.890625 44.039062 45.414062 C 43.679688 45.933594 43.402344 46.496094 43.210938 47.101562 C 43.023438 47.703125 42.925781 48.324219 42.921875 48.957031 C 42.917969 49.609375 43.015625 50.242188 43.210938 50.863281 C 43.410156 51.484375 43.695312 52.0625 44.070312 52.59375 C 44.449219 53.125 44.894531 53.589844 45.417969 53.984375 C 45.9375 54.375 46.503906 54.679688 47.121094 54.898438 C 47.191406 56.035156 47.335938 57.164062 47.550781 58.28125 C 47.765625 59.402344 48.054688 60.5 48.410156 61.582031 C 48.769531 62.664062 49.195312 63.71875 49.6875 64.746094 C 50.183594 65.777344 50.738281 66.765625 51.363281 67.722656 C 51.984375 68.679688 52.664062 69.59375 53.402344 70.460938 C 54.144531 71.332031 54.9375 72.148438 55.78125 72.914062 C 56.625 73.683594 57.519531 74.394531 58.453125 75.046875 C 59.390625 75.699219 60.367188 76.292969 61.378906 76.820312 C 61.085938 77.9375 60.617188 78.976562 59.972656 79.9375 C 59.328125 80.898438 58.546875 81.726562 57.621094 82.425781 Z M 24.023438 122.171875 L 24.023438 105.4375 C 24.023438 104.820312 24.054688 104.203125 24.113281 103.589844 C 24.175781 102.976562 24.265625 102.367188 24.386719 101.761719 C 24.507812 101.160156 24.65625 100.5625 24.835938 99.972656 C 25.015625 99.382812 25.226562 98.800781 25.460938 98.230469 C 25.699219 97.660156 25.964844 97.105469 26.253906 96.5625 C 26.546875 96.019531 26.863281 95.488281 27.207031 94.976562 C 27.550781 94.464844 27.921875 93.96875 28.3125 93.492188 C 28.707031 93.015625 29.121094 92.558594 29.558594 92.125 C 29.996094 91.6875 30.453125 91.273438 30.933594 90.882812 C 31.410156 90.492188 31.90625 90.125 32.421875 89.78125 C 32.9375 89.441406 33.46875 89.125 34.011719 88.832031 C 34.558594 88.542969 35.117188 88.277344 35.691406 88.042969 C 36.261719 87.808594 36.84375 87.597656 37.4375 87.421875 C 38.027344 87.242188 38.628906 87.09375 39.234375 86.972656 C 39.84375 86.851562 40.453125 86.761719 41.070312 86.699219 C 41.6875 86.640625 42.304688 86.609375 42.921875 86.609375 L 47.710938 86.609375 L 53.527344 104.015625 C 53.671875 104.441406 53.925781 104.785156 54.292969 105.046875 C 54.660156 105.308594 55.070312 105.4375 55.519531 105.4375 L 60.394531 105.4375 L 67.113281 122.171875 Z M 97.246094 74.332031 C 97.023438 75.285156 96.675781 76.1875 96.199219 77.042969 C 95.722656 77.898438 95.136719 78.671875 94.441406 79.363281 C 93.75 80.054688 92.972656 80.636719 92.113281 81.109375 C 91.253906 81.585938 90.347656 81.933594 89.390625 82.152344 C 89.613281 81.203125 89.964844 80.296875 90.441406 79.441406 C 90.914062 78.589844 91.5 77.816406 92.195312 77.125 C 92.890625 76.433594 93.664062 75.847656 94.523438 75.375 C 95.382812 74.898438 96.289062 74.550781 97.246094 74.332031 Z M 97.246094 94.707031 C 96.289062 94.484375 95.382812 94.136719 94.523438 93.660156 C 93.664062 93.1875 92.890625 92.605469 92.195312 91.914062 C 91.5 91.222656 90.914062 90.449219 90.441406 89.59375 C 89.964844 88.738281 89.613281 87.835938 89.390625 86.882812 C 90.347656 87.101562 91.253906 87.449219 92.113281 87.925781 C 92.972656 88.398438 93.75 88.984375 94.441406 89.675781 C 95.136719 90.367188 95.722656 91.140625 96.199219 91.992188 C 96.675781 92.847656 97.023438 93.753906 97.246094 94.707031 Z M 89.789062 95.375 C 91.136719 96.589844 92.660156 97.523438 94.351562 98.175781 C 96.046875 98.828125 97.800781 99.15625 99.617188 99.160156 C 99.898438 99.160156 100.164062 99.109375 100.421875 99 C 100.679688 98.894531 100.90625 98.746094 101.101562 98.546875 C 101.300781 98.351562 101.453125 98.125 101.558594 97.871094 C 101.664062 97.613281 101.71875 97.347656 101.71875 97.070312 C 101.714844 95.101562 101.332031 93.207031 100.5625 91.394531 C 99.792969 89.582031 98.703125 87.984375 97.289062 86.609375 L 97.519531 86.609375 C 98.136719 86.609375 98.753906 86.640625 99.371094 86.699219 C 99.988281 86.761719 100.597656 86.851562 101.207031 86.972656 C 101.8125 87.09375 102.414062 87.242188 103.003906 87.421875 C 103.597656 87.597656 104.179688 87.808594 104.75 88.042969 C 105.324219 88.277344 105.882812 88.542969 106.425781 88.832031 C 106.972656 89.125 107.503906 89.441406 108.019531 89.78125 C 108.53125 90.125 109.027344 90.492188 109.507812 90.882812 C 109.984375 91.273438 110.445312 91.6875 110.882812 92.125 C 111.320312 92.558594 111.734375 93.015625 112.128906 93.492188 C 112.519531 93.96875 112.886719 94.464844 113.230469 94.976562 C 113.574219 95.488281 113.894531 96.019531 114.1875 96.5625 C 114.476562 97.105469 114.742188 97.660156 114.980469 98.230469 C 115.214844 98.800781 115.421875 99.382812 115.601562 99.972656 C 115.78125 100.5625 115.933594 101.160156 116.054688 101.761719 C 116.175781 102.367188 116.265625 102.976562 116.328125 103.589844 C 116.386719 104.203125 116.417969 104.820312 116.417969 105.4375 L 116.417969 122.171875 L 73.328125 122.171875 L 80.046875 105.4375 L 84.917969 105.4375 C 85.390625 105.460938 85.820312 105.339844 86.210938 105.078125 C 86.597656 104.8125 86.867188 104.457031 87.019531 104.015625 Z M 63.921875 17.578125 C 63.921875 15.320312 66.796875 13.394531 70.21875 13.394531 C 73.644531 13.394531 76.519531 15.320312 76.519531 17.578125 C 76.035156 17.578125 75.554688 17.578125 75.070312 17.578125 L 65.371094 17.578125 C 64.886719 17.578125 64.402344 17.578125 63.921875 17.578125 Z M 54.554688 26.492188 C 55.941406 24.972656 57.574219 23.804688 59.457031 22.980469 C 61.339844 22.15625 63.3125 21.75 65.371094 21.761719 L 75.070312 21.761719 C 75.578125 21.761719 76.085938 21.785156 76.589844 21.835938 C 77.097656 21.886719 77.597656 21.964844 78.09375 22.066406 C 78.59375 22.167969 79.082031 22.296875 79.566406 22.449219 C 80.050781 22.601562 80.527344 22.78125 80.992188 22.980469 C 81.457031 23.183594 81.910156 23.410156 82.355469 23.65625 C 82.796875 23.90625 83.222656 24.179688 83.636719 24.472656 C 84.050781 24.765625 84.449219 25.078125 84.832031 25.414062 C 85.210938 25.746094 85.574219 26.101562 85.921875 26.472656 C 86.265625 26.84375 86.589844 27.230469 86.894531 27.636719 C 87.199219 28.042969 87.480469 28.460938 87.742188 28.894531 C 88 29.332031 88.238281 29.777344 88.453125 30.234375 C 88.667969 30.695312 88.855469 31.164062 89.019531 31.640625 C 89.1875 32.121094 89.328125 32.605469 89.441406 33.097656 C 89.554688 33.59375 89.644531 34.089844 89.707031 34.59375 C 89.769531 35.09375 89.808594 35.597656 89.816406 36.105469 C 89.828125 36.609375 89.8125 37.113281 89.769531 37.617188 L 89.621094 39.523438 L 78.914062 26.699219 C 78.6875 26.429688 78.410156 26.230469 78.082031 26.101562 C 77.753906 25.972656 77.414062 25.925781 77.066406 25.96875 C 76.71875 26.003906 76.402344 26.117188 76.109375 26.308594 C 75.820312 26.5 75.59375 26.75 75.429688 27.054688 C 74.992188 27.890625 74.503906 28.6875 73.953125 29.453125 C 73.40625 30.214844 72.804688 30.9375 72.15625 31.617188 C 71.503906 32.296875 70.808594 32.925781 70.066406 33.507812 C 69.324219 34.085938 68.546875 34.613281 67.730469 35.082031 C 66.914062 35.550781 66.070312 35.960938 65.195312 36.3125 C 64.320312 36.664062 63.425781 36.949219 62.507812 37.171875 C 61.59375 37.398438 60.664062 37.554688 59.726562 37.648438 C 58.789062 37.738281 57.847656 37.765625 56.90625 37.722656 C 56.234375 37.722656 55.605469 37.722656 54.953125 37.722656 C 53.503906 37.613281 52.148438 37.914062 50.878906 38.625 L 50.878906 37.683594 C 50.667969 35.640625 50.882812 33.644531 51.523438 31.695312 C 52.164062 29.746094 53.171875 28.011719 54.554688 26.492188 Z M 51.320312 53.140625 C 51.320312 52.863281 51.269531 52.597656 51.160156 52.339844 C 51.054688 52.082031 50.902344 51.859375 50.707031 51.660156 C 50.507812 51.464844 50.28125 51.3125 50.023438 51.207031 C 49.769531 51.101562 49.5 51.046875 49.222656 51.046875 C 48.941406 51.046875 48.675781 50.996094 48.417969 50.890625 C 48.160156 50.785156 47.933594 50.632812 47.738281 50.4375 C 47.539062 50.238281 47.386719 50.011719 47.28125 49.757812 C 47.175781 49.5 47.121094 49.234375 47.121094 48.957031 C 47.121094 48.679688 47.175781 48.414062 47.28125 48.15625 C 47.386719 47.898438 47.539062 47.675781 47.738281 47.476562 C 47.933594 47.28125 48.160156 47.128906 48.417969 47.023438 C 48.675781 46.917969 48.941406 46.863281 49.222656 46.863281 C 49.5 46.863281 49.769531 46.8125 50.023438 46.707031 C 50.28125 46.601562 50.507812 46.449219 50.707031 46.253906 C 50.902344 46.054688 51.054688 45.828125 51.160156 45.574219 C 51.269531 45.316406 51.320312 45.050781 51.320312 44.773438 C 51.332031 43.941406 51.648438 43.242188 52.265625 42.679688 C 52.859375 42.136719 53.558594 41.871094 54.367188 41.886719 L 54.597656 41.886719 C 55.332031 41.886719 56.089844 41.886719 56.863281 41.886719 C 58.882812 41.964844 60.875 41.792969 62.851562 41.371094 C 64.824219 40.945312 66.710938 40.285156 68.519531 39.390625 C 70.324219 38.492188 71.988281 37.382812 73.515625 36.070312 C 75.039062 34.753906 76.378906 33.269531 77.527344 31.617188 L 89.621094 46.089844 C 90.035156 46.597656 90.566406 46.855469 91.21875 46.863281 C 91.496094 46.863281 91.765625 46.917969 92.023438 47.023438 C 92.28125 47.128906 92.507812 47.28125 92.703125 47.476562 C 92.902344 47.675781 93.050781 47.898438 93.160156 48.15625 C 93.265625 48.414062 93.320312 48.679688 93.320312 48.957031 C 93.320312 49.234375 93.265625 49.5 93.160156 49.757812 C 93.050781 50.011719 92.902344 50.238281 92.703125 50.4375 C 92.507812 50.632812 92.28125 50.785156 92.023438 50.890625 C 91.765625 50.996094 91.496094 51.046875 91.21875 51.046875 C 90.941406 51.046875 90.671875 51.101562 90.414062 51.207031 C 90.15625 51.3125 89.929688 51.464844 89.734375 51.660156 C 89.539062 51.859375 89.386719 52.082031 89.277344 52.339844 C 89.171875 52.597656 89.117188 52.863281 89.117188 53.140625 C 89.117188 54.261719 89.035156 55.378906 88.867188 56.484375 C 88.699219 57.59375 88.449219 58.683594 88.117188 59.757812 C 87.785156 60.828125 87.378906 61.871094 86.890625 62.878906 C 86.402344 63.890625 85.839844 64.859375 85.207031 65.785156 C 84.574219 66.714844 83.878906 67.589844 83.113281 68.414062 C 82.347656 69.234375 81.527344 70 80.648438 70.699219 C 79.769531 71.398438 78.84375 72.03125 77.871094 72.59375 C 76.898438 73.160156 75.886719 73.644531 74.839844 74.058594 L 70.21875 75.898438 L 65.601562 74.058594 C 64.554688 73.644531 63.542969 73.160156 62.570312 72.59375 C 61.597656 72.03125 60.671875 71.398438 59.792969 70.699219 C 58.914062 70 58.09375 69.234375 57.328125 68.414062 C 56.5625 67.589844 55.863281 66.714844 55.230469 65.785156 C 54.597656 64.859375 54.039062 63.890625 53.550781 62.878906 C 53.0625 61.871094 52.652344 60.828125 52.324219 59.757812 C 51.992188 58.683594 51.742188 57.59375 51.574219 56.484375 C 51.40625 55.378906 51.320312 54.261719 51.320312 53.140625 Z M 70.21875 86.609375 C 73.214844 86.605469 75.949219 85.769531 78.429688 84.101562 C 78.511719 84.171875 78.589844 84.246094 78.660156 84.328125 C 78.660156 84.328125 78.621094 84.519531 78.621094 84.519531 C 78.621094 85.066406 78.566406 85.613281 78.457031 86.148438 C 78.351562 86.6875 78.191406 87.210938 77.980469 87.71875 C 77.769531 88.226562 77.511719 88.710938 77.203125 89.167969 C 76.898438 89.625 76.550781 90.046875 76.160156 90.433594 C 75.769531 90.824219 75.34375 91.171875 74.886719 91.476562 C 74.429688 91.78125 73.945312 92.039062 73.433594 92.25 C 72.925781 92.457031 72.398438 92.617188 71.859375 92.722656 C 71.316406 92.832031 70.773438 92.886719 70.21875 92.886719 C 69.667969 92.886719 69.121094 92.832031 68.582031 92.722656 C 68.039062 92.617188 67.515625 92.457031 67.007812 92.25 C 66.496094 92.039062 66.011719 91.78125 65.554688 91.476562 C 65.09375 91.171875 64.671875 90.824219 64.28125 90.433594 C 63.890625 90.046875 63.542969 89.625 63.238281 89.167969 C 62.929688 88.710938 62.671875 88.226562 62.460938 87.71875 C 62.25 87.210938 62.089844 86.6875 61.980469 86.148438 C 61.875 85.613281 61.820312 85.066406 61.820312 84.519531 C 61.820312 84.519531 61.820312 84.390625 61.820312 84.328125 L 62.050781 84.101562 C 64.519531 85.761719 67.242188 86.597656 70.21875 86.609375 Z M 64.425781 80.667969 C 64.769531 79.992188 65.0625 79.296875 65.304688 78.578125 L 69.507812 80.230469 C 70.023438 80.433594 70.542969 80.433594 71.058594 80.230469 L 75.261719 78.578125 C 75.503906 79.296875 75.796875 79.992188 76.140625 80.667969 C 75.28125 81.234375 74.359375 81.667969 73.371094 81.964844 C 72.386719 82.257812 71.375 82.40625 70.347656 82.40625 C 69.316406 82.40625 68.308594 82.257812 67.320312 81.964844 C 66.332031 81.667969 65.410156 81.234375 64.550781 80.667969 Z M 70.21875 97.070312 C 70.960938 97.070312 71.691406 97.003906 72.421875 96.878906 C 73.148438 96.75 73.859375 96.558594 74.554688 96.304688 C 75.246094 96.054688 75.914062 95.742188 76.550781 95.375 C 77.191406 95.003906 77.792969 94.582031 78.359375 94.105469 C 78.921875 93.632812 79.441406 93.109375 79.914062 92.546875 C 80.386719 91.980469 80.804688 91.375 81.171875 90.738281 C 81.539062 90.097656 81.84375 89.433594 82.09375 88.738281 C 82.34375 88.046875 82.527344 87.335938 82.652344 86.609375 L 85.085938 86.609375 C 85.332031 88.320312 85.863281 89.9375 86.683594 91.460938 L 83.40625 101.253906 L 78.621094 101.253906 C 78.191406 101.253906 77.796875 101.371094 77.441406 101.613281 C 77.082031 101.851562 76.824219 102.171875 76.667969 102.570312 L 70.21875 118.636719 L 63.773438 102.570312 C 63.613281 102.171875 63.355469 101.851562 63 101.613281 C 62.644531 101.371094 62.25 101.253906 61.820312 101.253906 L 57.03125 101.253906 L 52.140625 86.609375 L 57.789062 86.609375 C 57.914062 87.335938 58.097656 88.046875 58.347656 88.738281 C 58.59375 89.433594 58.902344 90.097656 59.269531 90.738281 C 59.632812 91.375 60.054688 91.980469 60.527344 92.546875 C 61 93.109375 61.519531 93.632812 62.082031 94.105469 C 62.648438 94.582031 63.25 95.003906 63.886719 95.375 C 64.527344 95.742188 65.195312 96.054688 65.886719 96.304688 C 66.582031 96.558594 67.292969 96.75 68.019531 96.878906 C 68.746094 97.003906 69.480469 97.070312 70.21875 97.070312 Z M 70.21875 97.070312 " fill-opacity="1" fill-rule="nonzero"/></g><path fill="#ffffff" d="M 34.523438 101.253906 L 47.121094 101.253906 L 47.121094 105.4375 L 34.523438 105.4375 Z M 34.523438 101.253906 " fill-opacity="1" fill-rule="nonzero"/></svg>