<svg xmlns="http://www.w3.org/2000/svg" xmlns:xlink="http://www.w3.org/1999/xlink" width="188" zoomAndPan="magnify" viewBox="0 0 141.12 141.750002" height="188" preserveAspectRatio="xMidYMid meet" version="1.0"><defs><clipPath id="8a136ef00f"><path d="M 28 17.941406 L 112 17.941406 L 112 45 L 28 45 Z M 28 17.941406 " clip-rule="nonzero"/></clipPath><clipPath id="d6f9b5a6c7"><path d="M 22.148438 119 L 117.789062 119 L 117.789062 122.480469 L 22.148438 122.480469 Z M 22.148438 119 " clip-rule="nonzero"/></clipPath></defs><path fill="#ffffff" d="M 36.160156 43.070312 C 36.160156 42.394531 35.613281 41.847656 34.933594 41.847656 C 34.257812 41.847656 33.710938 42.394531 33.710938 43.070312 L 33.710938 108.480469 C 33.710938 109.15625 34.257812 109.703125 34.933594 109.703125 L 104.917969 109.703125 C 105.59375 109.703125 106.144531 109.15625 106.144531 108.480469 L 106.144531 43.070312 C 106.144531 42.394531 105.59375 41.847656 104.917969 41.847656 C 104.242188 41.847656 103.691406 42.394531 103.691406 43.070312 L 103.691406 107.253906 L 36.160156 107.253906 Z M 36.160156 43.070312 " fill-opacity="1" fill-rule="nonzero"/><g clip-path="url(#8a136ef00f)"><path fill="#ffffff" d="M 29.679688 17.984375 L 110.339844 17.984375 C 111.015625 17.984375 111.566406 18.53125 111.566406 19.207031 L 111.566406 43.070312 C 111.566406 43.746094 111.015625 44.292969 110.339844 44.292969 L 29.679688 44.292969 C 29.003906 44.292969 28.457031 43.746094 28.457031 43.070312 L 28.457031 19.207031 C 28.457031 18.53125 29.003906 17.984375 29.679688 17.984375 Z M 109.113281 20.433594 L 30.90625 20.433594 L 30.90625 41.847656 L 109.113281 41.847656 Z M 109.113281 20.433594 " fill-opacity="1" fill-rule="nonzero"/></g><path fill="#ffffff" d="M 80.179688 108.480469 C 80.179688 109.15625 80.730469 109.703125 81.40625 109.703125 C 82.082031 109.703125 82.632812 109.15625 82.632812 108.480469 L 82.632812 91.257812 C 82.632812 87.804688 81.21875 84.664062 78.9375 82.386719 C 76.660156 80.109375 73.515625 78.695312 70.054688 78.695312 C 66.59375 78.695312 63.449219 80.109375 61.167969 82.386719 C 58.890625 84.664062 57.476562 87.804688 57.476562 91.257812 L 57.476562 108.480469 C 57.476562 109.15625 58.023438 109.703125 58.699219 109.703125 C 59.378906 109.703125 59.925781 109.15625 59.925781 108.480469 L 59.925781 91.257812 C 59.925781 88.480469 61.066406 85.949219 62.902344 84.117188 C 64.738281 82.285156 67.269531 81.144531 70.054688 81.144531 C 72.835938 81.144531 75.367188 82.285156 77.207031 84.117188 C 79.039062 85.949219 80.179688 88.480469 80.179688 91.257812 Z M 80.179688 108.480469 " fill-opacity="1" fill-rule="nonzero"/><path fill="#ffffff" d="M 56.582031 45.867188 L 82.679688 45.867188 C 83.355469 45.867188 83.902344 46.414062 83.902344 47.089844 L 83.902344 71.796875 C 83.902344 72.472656 83.355469 73.023438 82.679688 73.023438 L 56.582031 73.023438 C 55.90625 73.023438 55.355469 72.472656 55.355469 71.796875 L 55.355469 47.089844 C 55.355469 46.414062 55.90625 45.867188 56.582031 45.867188 Z M 81.453125 48.3125 L 57.808594 48.3125 L 57.808594 70.574219 L 81.453125 70.574219 Z M 81.453125 48.3125 " fill-opacity="1" fill-rule="nonzero"/><path fill="#ffffff" d="M 56.582031 58.21875 C 55.90625 58.21875 55.355469 58.769531 55.355469 59.445312 C 55.355469 60.121094 55.90625 60.667969 56.582031 60.667969 L 82.679688 60.667969 C 83.355469 60.667969 83.902344 60.121094 83.902344 59.445312 C 83.902344 58.769531 83.355469 58.21875 82.679688 58.21875 Z M 56.582031 58.21875 " fill-opacity="1" fill-rule="nonzero"/><path fill="#ffffff" d="M 70.855469 47.089844 C 70.855469 46.414062 70.308594 45.867188 69.628906 45.867188 C 68.953125 45.867188 68.40625 46.414062 68.40625 47.089844 L 68.40625 71.796875 C 68.40625 72.472656 68.953125 73.023438 69.628906 73.023438 C 70.308594 73.023438 70.855469 72.472656 70.855469 71.796875 Z M 70.855469 47.089844 " fill-opacity="1" fill-rule="nonzero"/><path fill="#ffffff" d="M 41.332031 45.527344 L 51.5 45.527344 C 52.175781 45.527344 52.722656 46.074219 52.722656 46.75 L 52.722656 57.582031 C 52.722656 58.257812 52.175781 58.808594 51.5 58.808594 L 41.332031 58.808594 C 40.65625 58.808594 40.105469 58.257812 40.105469 57.582031 L 40.105469 46.75 C 40.105469 46.074219 40.65625 45.527344 41.332031 45.527344 Z M 50.273438 47.976562 L 42.558594 47.976562 L 42.558594 56.359375 L 50.273438 56.359375 Z M 50.273438 47.976562 " fill-opacity="1" fill-rule="nonzero"/><path fill="#ffffff" d="M 87.761719 45.527344 L 97.929688 45.527344 C 98.605469 45.527344 99.152344 46.074219 99.152344 46.75 L 99.152344 57.582031 C 99.152344 58.257812 98.605469 58.808594 97.929688 58.808594 L 87.761719 58.808594 C 87.085938 58.808594 86.535156 58.257812 86.535156 57.582031 L 86.535156 46.75 C 86.535156 46.074219 87.085938 45.527344 87.761719 45.527344 Z M 96.703125 47.976562 L 88.988281 47.976562 L 88.988281 56.359375 L 96.703125 56.359375 Z M 96.703125 47.976562 " fill-opacity="1" fill-rule="nonzero"/><path fill="#ffffff" d="M 87.761719 60.421875 L 97.929688 60.421875 C 98.605469 60.421875 99.152344 60.96875 99.152344 61.644531 L 99.152344 72.476562 C 99.152344 73.152344 98.605469 73.699219 97.929688 73.699219 L 87.761719 73.699219 C 87.085938 73.699219 86.535156 73.152344 86.535156 72.476562 L 86.535156 61.644531 C 86.535156 60.96875 87.085938 60.421875 87.761719 60.421875 Z M 96.703125 62.867188 L 88.988281 62.867188 L 88.988281 71.25 L 96.703125 71.25 Z M 96.703125 62.867188 " fill-opacity="1" fill-rule="nonzero"/><path fill="#ffffff" d="M 41.332031 60.421875 L 51.5 60.421875 C 52.175781 60.421875 52.722656 60.96875 52.722656 61.644531 L 52.722656 72.476562 C 52.722656 73.152344 52.175781 73.699219 51.5 73.699219 L 41.332031 73.699219 C 40.65625 73.699219 40.105469 73.152344 40.105469 72.476562 L 40.105469 61.644531 C 40.105469 60.96875 40.65625 60.421875 41.332031 60.421875 Z M 50.273438 62.867188 L 42.558594 62.867188 L 42.558594 71.25 L 50.273438 71.25 Z M 50.273438 62.867188 " fill-opacity="1" fill-rule="nonzero"/><path fill="#ffffff" d="M 32.691406 111.1875 C 32.011719 111.1875 31.464844 111.738281 31.464844 112.414062 C 31.464844 113.089844 32.011719 113.636719 32.691406 113.636719 L 107.417969 113.636719 C 108.09375 113.636719 108.644531 113.089844 108.644531 112.414062 C 108.644531 111.738281 108.09375 111.1875 107.417969 111.1875 Z M 32.691406 111.1875 " fill-opacity="1" fill-rule="nonzero"/><path fill="#ffffff" d="M 27.945312 115.589844 C 27.269531 115.589844 26.71875 116.136719 26.71875 116.8125 C 26.71875 117.488281 27.269531 118.039062 27.945312 118.039062 L 112.164062 118.039062 C 112.839844 118.039062 113.386719 117.488281 113.386719 116.8125 C 113.386719 116.136719 112.839844 115.589844 112.164062 115.589844 Z M 27.945312 115.589844 " fill-opacity="1" fill-rule="nonzero"/><g clip-path="url(#d6f9b5a6c7)"><path fill="#ffffff" d="M 23.371094 119.988281 C 22.695312 119.988281 22.144531 120.539062 22.144531 121.214844 C 22.144531 121.890625 22.695312 122.4375 23.371094 122.4375 L 116.570312 122.4375 C 117.246094 122.4375 117.792969 121.890625 117.792969 121.214844 C 117.792969 120.539062 117.246094 119.988281 116.570312 119.988281 Z M 23.371094 119.988281 " fill-opacity="1" fill-rule="nonzero"/></g><path fill="#ffffff" d="M 40.484375 77.425781 L 54.046875 77.425781 C 54.722656 77.425781 55.269531 77.976562 55.269531 78.652344 L 55.269531 101.835938 C 55.269531 102.511719 54.722656 103.0625 54.046875 103.0625 L 40.484375 103.0625 C 39.808594 103.0625 39.257812 102.511719 39.257812 101.835938 L 39.257812 78.652344 C 39.257812 77.976562 39.808594 77.425781 40.484375 77.425781 Z M 52.820312 79.875 L 41.710938 79.875 L 41.710938 100.613281 L 52.820312 100.613281 Z M 52.820312 79.875 " fill-opacity="1" fill-rule="nonzero"/><path fill="#ffffff" d="M 86.234375 77.425781 L 99.796875 77.425781 C 100.472656 77.425781 101.023438 77.976562 101.023438 78.652344 L 101.023438 101.835938 C 101.023438 102.511719 100.472656 103.0625 99.796875 103.0625 L 86.234375 103.0625 C 85.558594 103.0625 85.011719 102.511719 85.011719 101.835938 L 85.011719 78.652344 C 85.011719 77.976562 85.558594 77.425781 86.234375 77.425781 Z M 98.570312 79.875 L 87.460938 79.875 L 87.460938 100.613281 L 98.570312 100.613281 Z M 98.570312 79.875 " fill-opacity="1" fill-rule="nonzero"/><path fill="#ffffff" d="M 40.484375 89.019531 C 39.808594 89.019531 39.257812 89.566406 39.257812 90.246094 C 39.257812 90.921875 39.808594 91.46875 40.484375 91.46875 L 54.046875 91.46875 C 54.722656 91.46875 55.269531 90.921875 55.269531 90.246094 C 55.269531 89.566406 54.722656 89.019531 54.046875 89.019531 Z M 40.484375 89.019531 " fill-opacity="1" fill-rule="nonzero"/><path fill="#ffffff" d="M 86.234375 89.019531 C 85.558594 89.019531 85.011719 89.566406 85.011719 90.246094 C 85.011719 90.921875 85.558594 91.46875 86.234375 91.46875 L 99.796875 91.46875 C 100.472656 91.46875 101.023438 90.921875 101.023438 90.246094 C 101.023438 89.566406 100.472656 89.019531 99.796875 89.019531 Z M 86.234375 89.019531 " fill-opacity="1" fill-rule="nonzero"/><path fill="#ffffff" d="M 38.683594 38.101562 L 38.683594 24.1875 L 40.53125 24.1875 L 40.53125 29.902344 L 47.773438 29.902344 L 47.773438 24.1875 L 49.621094 24.1875 L 49.621094 38.101562 L 47.773438 38.101562 L 47.773438 31.546875 L 40.53125 31.546875 L 40.53125 38.101562 Z M 52.128906 31.324219 C 52.128906 29.015625 52.746094 27.207031 53.988281 25.898438 C 55.230469 24.59375 56.835938 23.9375 58.800781 23.9375 C 60.085938 23.9375 61.246094 24.246094 62.28125 24.859375 C 63.3125 25.476562 64.097656 26.332031 64.640625 27.429688 C 65.183594 28.523438 65.453125 29.773438 65.453125 31.164062 C 65.453125 32.574219 65.171875 33.839844 64.597656 34.949219 C 64.027344 36.066406 63.21875 36.90625 62.175781 37.480469 C 61.128906 38.054688 60 38.339844 58.792969 38.339844 C 57.476562 38.339844 56.304688 38.027344 55.273438 37.390625 C 54.238281 36.757812 53.457031 35.894531 52.925781 34.796875 C 52.394531 33.707031 52.128906 32.546875 52.128906 31.324219 Z M 54.027344 31.351562 C 54.027344 33.03125 54.480469 34.351562 55.382812 35.316406 C 56.285156 36.28125 57.417969 36.765625 58.78125 36.765625 C 60.171875 36.765625 61.3125 36.277344 62.207031 35.304688 C 63.105469 34.328125 63.554688 32.945312 63.554688 31.152344 C 63.554688 30.023438 63.359375 29.035156 62.976562 28.1875 C 62.59375 27.34375 62.03125 26.6875 61.296875 26.222656 C 60.554688 25.757812 59.730469 25.523438 58.8125 25.523438 C 57.503906 25.523438 56.378906 25.972656 55.441406 26.871094 C 54.5 27.761719 54.027344 29.261719 54.027344 31.351562 Z M 71.378906 38.101562 L 71.378906 25.828125 L 66.785156 25.828125 L 66.785156 24.1875 L 77.832031 24.1875 L 77.832031 25.828125 L 73.21875 25.828125 L 73.21875 38.101562 Z M 79.761719 38.101562 L 79.761719 24.1875 L 89.835938 24.1875 L 89.835938 25.828125 L 81.605469 25.828125 L 81.605469 30.089844 L 89.3125 30.089844 L 89.3125 31.722656 L 81.605469 31.722656 L 81.605469 36.460938 L 90.160156 36.460938 L 90.160156 38.101562 Z M 92.628906 38.101562 L 92.628906 24.1875 L 94.476562 24.1875 L 94.476562 36.460938 L 101.335938 36.460938 L 101.335938 38.101562 Z M 92.628906 38.101562 " fill-opacity="1" fill-rule="nonzero"/></svg>