<svg xmlns="http://www.w3.org/2000/svg" xmlns:xlink="http://www.w3.org/1999/xlink" width="188" zoomAndPan="magnify" viewBox="0 0 141.12 141.750002" height="188" preserveAspectRatio="xMidYMid meet" version="1.0"><defs><clipPath id="a684525d38"><path d="M 14.011719 24.484375 L 125.964844 24.484375 L 125.964844 116.417969 L 14.011719 116.417969 Z M 14.011719 24.484375 " clip-rule="nonzero"/></clipPath></defs><g clip-path="url(#a684525d38)"><path fill="#ffffff" d="M 30.320312 51.863281 C 26.859375 57.371094 24.976562 63.777344 24.976562 70.46875 C 24.976562 89.765625 40.570312 105.40625 59.808594 105.40625 C 66.480469 105.40625 72.867188 103.519531 78.359375 100.046875 L 68.535156 90.191406 L 60.132812 90.191406 C 54.320312 90.191406 49.632812 85.351562 49.632812 79.410156 L 49.632812 71.234375 Z M 49.632812 56.09375 L 49.632812 51.34375 C 49.632812 45.402344 54.320312 40.5625 60.132812 40.5625 L 77.824219 40.5625 C 72.570312 37.367188 66.402344 35.53125 59.808594 35.53125 C 51.605469 35.53125 43.835938 38.386719 37.640625 43.519531 L 37.34375 43.765625 Z M 83.625 90.191406 L 86.429688 93.003906 L 86.679688 92.707031 C 87.347656 91.894531 87.976562 91.054688 88.566406 90.191406 Z M 52.859375 59.332031 L 81.410156 87.96875 L 115.460938 87.96875 C 120.035156 87.96875 123.746094 84.136719 123.746094 79.410156 L 123.746094 59.332031 Z M 51.851562 73.457031 L 51.851562 79.410156 C 51.851562 84.136719 55.558594 87.96875 60.132812 87.96875 L 66.316406 87.96875 Z M 94.574219 40.5625 L 115.460938 40.5625 C 121.277344 40.5625 125.964844 45.402344 125.964844 51.34375 L 125.964844 79.410156 C 125.964844 85.351562 121.277344 90.191406 115.460938 90.191406 L 101.183594 90.191406 C 93.828125 105.691406 78.066406 116.40625 59.808594 116.40625 C 34.515625 116.40625 14.011719 95.839844 14.011719 70.46875 C 14.011719 45.097656 34.515625 24.53125 59.808594 24.53125 C 73.714844 24.53125 86.175781 30.746094 94.574219 40.5625 Z M 123.746094 56.082031 L 123.746094 51.34375 C 123.746094 46.617188 120.035156 42.785156 115.460938 42.785156 L 60.132812 42.785156 C 55.558594 42.785156 51.851562 46.617188 51.851562 51.34375 L 51.851562 56.082031 Z M 100.222656 66.0625 C 102.144531 66.0625 103.890625 66.828125 105.191406 68.082031 C 106.492188 66.828125 108.242188 66.0625 110.160156 66.0625 C 114.1875 66.0625 117.449219 69.433594 117.449219 73.589844 C 117.449219 77.75 114.1875 81.121094 110.160156 81.121094 C 108.242188 81.121094 106.492188 80.355469 105.191406 79.097656 C 103.890625 80.355469 102.144531 81.121094 100.222656 81.121094 C 96.195312 81.121094 92.933594 77.75 92.933594 73.589844 C 92.933594 69.433594 96.195312 66.0625 100.222656 66.0625 Z M 100.222656 66.0625 " fill-opacity="1" fill-rule="evenodd"/></g></svg>