<svg xmlns="http://www.w3.org/2000/svg" xmlns:xlink="http://www.w3.org/1999/xlink" width="188" zoomAndPan="magnify" viewBox="0 0 141.75 141.749996" height="188" preserveAspectRatio="xMidYMid meet" version="1.0"><defs><clipPath id="567c19896f"><path d="M 4.054688 14.148438 L 113 14.148438 L 113 103 L 4.054688 103 Z M 4.054688 14.148438 " clip-rule="nonzero"/></clipPath><clipPath id="d7bda63965"><path d="M 28.855469 37.726562 L 137.289062 37.726562 L 137.289062 125.695312 L 28.855469 125.695312 Z M 28.855469 37.726562 " clip-rule="nonzero"/></clipPath></defs><path fill="#000000" d="M 96.070312 74.992188 L 96.070312 66.800781 C 96.070312 65.546875 96.007812 64.621094 95.882812 64.027344 C 95.753906 63.429688 95.519531 62.886719 95.171875 62.394531 C 94.824219 61.90625 94.3125 61.5 93.628906 61.1875 C 92.945312 60.871094 92.179688 60.714844 91.332031 60.714844 C 89.675781 60.714844 88.253906 61.410156 87.0625 62.804688 L 87.0625 55.71875 L 83.371094 55.71875 L 83.371094 74.992188 L 87.0625 74.992188 L 87.0625 67.996094 C 87.0625 66.824219 87.171875 65.933594 87.398438 65.335938 C 87.621094 64.734375 87.972656 64.285156 88.453125 63.988281 C 88.933594 63.6875 89.484375 63.539062 90.097656 63.539062 C 90.628906 63.539062 91.074219 63.65625 91.429688 63.886719 C 91.785156 64.121094 92.03125 64.433594 92.171875 64.828125 C 92.3125 65.222656 92.382812 66.152344 92.382812 67.613281 L 92.382812 74.992188 L 96.070312 74.992188 " fill-opacity="1" fill-rule="nonzero"/><path fill="#000000" d="M 49.585938 73.054688 L 55.078125 64.882812 L 55.078125 73.054688 Z M 59.511719 81.898438 L 59.511719 77.085938 L 62.480469 77.085938 L 62.480469 73.054688 L 59.511719 73.054688 L 59.511719 57.882812 L 55.667969 57.882812 L 45.300781 73.070312 L 45.300781 77.085938 L 55.078125 77.085938 L 55.078125 81.898438 L 59.511719 81.898438 " fill-opacity="1" fill-rule="nonzero"/><path fill="#000000" d="M 69.933594 72.109375 C 70.484375 71.335938 71.316406 70.949219 72.4375 70.949219 C 73.402344 70.949219 74.203125 71.289062 74.832031 71.96875 C 75.460938 72.648438 75.777344 73.550781 75.777344 74.671875 C 75.777344 75.953125 75.46875 76.933594 74.847656 77.613281 C 74.230469 78.292969 73.445312 78.632812 72.5 78.632812 C 71.535156 78.632812 70.726562 78.28125 70.082031 77.574219 C 69.433594 76.867188 69.113281 75.882812 69.113281 74.621094 C 69.113281 73.71875 69.386719 72.882812 69.933594 72.109375 Z M 70.316406 62.304688 C 70.839844 61.78125 71.539062 61.519531 72.421875 61.519531 C 73.269531 61.519531 73.949219 61.78125 74.464844 62.296875 C 74.980469 62.8125 75.238281 63.5 75.238281 64.359375 C 75.238281 65.273438 74.980469 65.988281 74.457031 66.503906 C 73.9375 67.023438 73.238281 67.28125 72.371094 67.28125 C 71.511719 67.28125 70.824219 67.023438 70.308594 66.511719 C 69.792969 66.003906 69.535156 65.289062 69.535156 64.375 C 69.535156 63.515625 69.796875 62.824219 70.316406 62.304688 Z M 65.558594 71.496094 C 64.917969 72.578125 64.597656 73.769531 64.597656 75.0625 C 64.597656 77.410156 65.449219 79.261719 67.15625 80.609375 C 68.601562 81.75 70.410156 82.320312 72.582031 82.320312 C 74.917969 82.320312 76.789062 81.628906 78.199219 80.25 C 79.605469 78.867188 80.308594 77.074219 80.308594 74.867188 C 80.308594 73.527344 79.964844 72.347656 79.273438 71.324219 C 78.582031 70.304688 77.574219 69.527344 76.25 68.992188 C 77.292969 68.535156 78.101562 67.875 78.679688 67.011719 C 79.253906 66.144531 79.542969 65.160156 79.542969 64.050781 C 79.542969 62.265625 78.914062 60.792969 77.660156 59.628906 C 76.40625 58.464844 74.640625 57.882812 72.371094 57.882812 C 70.078125 57.882812 68.308594 58.464844 67.066406 59.628906 C 65.824219 60.792969 65.199219 62.265625 65.199219 64.050781 C 65.199219 65.09375 65.46875 66.054688 66.007812 66.929688 C 66.546875 67.804688 67.40625 68.492188 68.589844 68.992188 C 67.210938 69.582031 66.199219 70.414062 65.558594 71.496094 " fill-opacity="1" fill-rule="nonzero"/><g clip-path="url(#567c19896f)"><path fill="#000000" d="M 25.199219 82.410156 C 23.550781 77.28125 22.742188 71.847656 22.914062 66.386719 C 22.996094 63.65625 23.304688 60.921875 23.859375 58.222656 C 24.414062 55.523438 25.191406 52.855469 26.207031 50.269531 C 27.222656 47.683594 28.449219 45.164062 29.898438 42.765625 C 31.347656 40.371094 33 38.082031 34.84375 35.945312 C 36.691406 33.8125 38.726562 31.832031 40.921875 30.023438 C 43.125 28.230469 45.484375 26.609375 47.980469 25.199219 C 49.230469 24.5 50.511719 23.847656 51.816406 23.25 L 52.308594 23.027344 C 52.472656 22.953125 52.636719 22.878906 52.804688 22.8125 L 53.800781 22.390625 L 54.808594 22 C 55.144531 21.867188 55.484375 21.75 55.824219 21.625 C 58.550781 20.660156 61.363281 19.914062 64.226562 19.410156 C 69.960938 18.386719 75.90625 18.398438 81.730469 19.390625 C 84.640625 19.894531 87.515625 20.660156 90.324219 21.65625 L 90.851562 21.839844 L 91.371094 22.042969 L 92.414062 22.445312 C 92.589844 22.511719 92.757812 22.589844 92.929688 22.660156 L 93.445312 22.882812 L 93.957031 23.105469 C 94.128906 23.179688 94.304688 23.25 94.472656 23.332031 L 95.484375 23.8125 L 95.992188 24.050781 L 96.488281 24.308594 L 97.488281 24.824219 C 97.65625 24.910156 97.820312 25.003906 97.980469 25.09375 L 98.472656 25.371094 C 103.710938 28.300781 108.453125 32.183594 112.46875 36.769531 C 108.867188 31.859375 104.414062 27.503906 99.300781 24.035156 L 98.824219 23.707031 C 98.664062 23.597656 98.503906 23.488281 98.339844 23.386719 L 97.359375 22.765625 L 96.867188 22.457031 L 96.367188 22.164062 L 95.363281 21.578125 C 95.199219 21.476562 95.023438 21.390625 94.855469 21.296875 L 94.34375 21.019531 L 93.828125 20.746094 C 93.660156 20.652344 93.488281 20.558594 93.3125 20.476562 L 92.269531 19.960938 L 91.746094 19.707031 L 91.210938 19.464844 C 88.382812 18.175781 85.433594 17.113281 82.402344 16.3125 C 76.339844 14.730469 69.957031 14.148438 63.625 14.722656 C 60.457031 15 57.308594 15.546875 54.210938 16.351562 C 53.828125 16.457031 53.4375 16.554688 53.054688 16.667969 L 51.902344 17.007812 L 50.757812 17.375 C 50.566406 17.433594 50.375 17.5 50.1875 17.570312 L 49.617188 17.769531 C 48.105469 18.304688 46.613281 18.910156 45.144531 19.574219 C 42.210938 20.914062 39.378906 22.507812 36.695312 24.335938 C 34.015625 26.175781 31.484375 28.246094 29.136719 30.519531 C 26.796875 32.800781 24.640625 35.289062 22.703125 37.949219 C 20.765625 40.609375 19.054688 43.449219 17.582031 46.417969 C 16.109375 49.386719 14.898438 52.496094 13.945312 55.695312 C 12.992188 58.894531 12.320312 62.191406 11.929688 65.53125 C 11.136719 72.214844 11.53125 79.074219 13.046875 85.699219 L 4.082031 88.125 L 24.085938 102.433594 L 34.160156 79.984375 L 25.199219 82.410156 " fill-opacity="1" fill-rule="nonzero"/></g><g clip-path="url(#d7bda63965)"><path fill="#000000" d="M 117.289062 37.773438 L 107.210938 60.21875 L 116.171875 57.792969 C 117.824219 62.921875 118.628906 68.351562 118.460938 73.8125 C 118.378906 76.539062 118.070312 79.273438 117.515625 81.972656 C 116.960938 84.667969 116.1875 87.335938 115.171875 89.921875 C 114.15625 92.507812 112.929688 95.027344 111.484375 97.421875 C 110.035156 99.820312 108.386719 102.105469 106.542969 104.242188 C 104.695312 106.375 102.664062 108.359375 100.46875 110.164062 C 98.269531 111.960938 95.910156 113.582031 93.417969 114.992188 C 92.167969 115.695312 90.890625 116.34375 89.582031 116.945312 C 89.253906 117.089844 88.929688 117.246094 88.597656 117.382812 L 87.601562 117.800781 L 86.59375 118.195312 C 86.257812 118.328125 85.917969 118.445312 85.578125 118.570312 C 82.855469 119.539062 80.042969 120.285156 77.179688 120.789062 C 71.449219 121.816406 65.507812 121.808594 59.683594 120.824219 C 56.773438 120.320312 53.898438 119.558594 51.09375 118.566406 L 50.566406 118.382812 L 50.042969 118.183594 L 49.003906 117.777344 C 48.828125 117.710938 48.65625 117.636719 48.484375 117.5625 L 47.972656 117.34375 C 47.628906 117.191406 47.285156 117.050781 46.945312 116.894531 L 45.933594 116.417969 L 45.425781 116.175781 C 45.257812 116.09375 45.09375 116.003906 44.925781 115.921875 L 43.929688 115.402344 C 43.761719 115.320312 43.597656 115.226562 43.433594 115.136719 L 42.945312 114.859375 C 37.703125 111.933594 32.957031 108.058594 28.941406 103.480469 C 32.546875 108.386719 37 112.734375 42.113281 116.199219 L 42.59375 116.523438 C 42.753906 116.636719 42.914062 116.742188 43.078125 116.84375 L 44.058594 117.464844 C 44.222656 117.566406 44.382812 117.671875 44.546875 117.773438 L 45.050781 118.066406 L 46.054688 118.652344 C 46.390625 118.84375 46.734375 119.019531 47.074219 119.203125 L 47.589844 119.480469 C 47.757812 119.570312 47.929688 119.664062 48.105469 119.746094 L 49.148438 120.261719 L 49.671875 120.519531 L 50.207031 120.757812 C 53.035156 122.042969 55.984375 123.105469 59.015625 123.902344 C 62.046875 124.6875 65.15625 125.226562 68.296875 125.496094 C 71.441406 125.773438 74.621094 125.753906 77.785156 125.476562 C 80.949219 125.199219 84.101562 124.648438 87.195312 123.839844 C 87.578125 123.738281 87.96875 123.640625 88.351562 123.527344 L 89.503906 123.1875 L 90.648438 122.816406 C 91.03125 122.695312 91.40625 122.554688 91.785156 122.425781 C 93.296875 121.886719 94.789062 121.28125 96.257812 120.617188 C 99.1875 119.277344 102.015625 117.679688 104.699219 115.851562 C 107.375 114.015625 109.90625 111.941406 112.25 109.667969 C 114.589844 107.386719 116.742188 104.898438 118.679688 102.238281 C 120.617188 99.578125 122.324219 96.742188 123.796875 93.773438 C 125.269531 90.804688 126.476562 87.695312 127.429688 84.496094 C 128.382812 81.296875 129.054688 78.003906 129.445312 74.664062 C 130.234375 67.988281 129.839844 61.125 128.328125 54.503906 L 137.289062 52.078125 L 117.289062 37.773438 " fill-opacity="1" fill-rule="nonzero"/></g><path fill="#000000" d="M 73.453125 41.066406 L 68.746094 41.066406 L 68.746094 30.296875 L 73.453125 30.296875 L 73.453125 41.066406 " fill-opacity="1" fill-rule="nonzero"/><path fill="#000000" d="M 73.453125 109.90625 L 68.746094 109.90625 L 68.746094 99.136719 L 73.453125 99.136719 L 73.453125 109.90625 " fill-opacity="1" fill-rule="nonzero"/><path fill="#000000" d="M 110.449219 68.160156 L 110.449219 72.871094 L 99.695312 72.871094 L 99.695312 68.160156 L 110.449219 68.160156 " fill-opacity="1" fill-rule="nonzero"/><path fill="#000000" d="M 41.679688 68.160156 L 41.679688 72.871094 L 30.921875 72.871094 L 30.921875 68.160156 L 41.679688 68.160156 " fill-opacity="1" fill-rule="nonzero"/><path fill="#000000" d="M 57.851562 43.992188 L 55.230469 45.503906 L 49.851562 36.179688 L 52.472656 34.667969 L 57.851562 43.992188 " fill-opacity="1" fill-rule="nonzero"/><path fill="#000000" d="M 46.527344 53.914062 L 45.015625 56.535156 L 35.699219 51.152344 L 37.214844 48.527344 L 46.527344 53.914062 " fill-opacity="1" fill-rule="nonzero"/><path fill="#000000" d="M 44.601562 82.949219 L 46.113281 85.570312 L 36.796875 90.957031 L 35.285156 88.332031 L 44.601562 82.949219 " fill-opacity="1" fill-rule="nonzero"/><path fill="#000000" d="M 54.511719 94.285156 L 57.132812 95.796875 L 51.753906 105.121094 L 49.136719 103.609375 L 54.511719 94.285156 " fill-opacity="1" fill-rule="nonzero"/><path fill="#000000" d="M 83.519531 96.210938 L 86.140625 94.699219 L 91.519531 104.023438 L 88.898438 105.539062 L 83.519531 96.210938 " fill-opacity="1" fill-rule="nonzero"/><path fill="#000000" d="M 94.84375 86.289062 L 96.355469 83.667969 L 105.671875 89.050781 L 104.160156 91.675781 L 94.84375 86.289062 " fill-opacity="1" fill-rule="nonzero"/><path fill="#000000" d="M 96.769531 57.253906 L 95.257812 54.632812 L 104.574219 49.246094 L 106.085938 51.871094 L 96.769531 57.253906 " fill-opacity="1" fill-rule="nonzero"/><path fill="#000000" d="M 86.859375 45.917969 L 84.238281 44.40625 L 89.617188 35.082031 L 92.238281 36.59375 L 86.859375 45.917969 " fill-opacity="1" fill-rule="nonzero"/></svg>