<svg xmlns="http://www.w3.org/2000/svg" xmlns:xlink="http://www.w3.org/1999/xlink" width="188" zoomAndPan="magnify" viewBox="0 0 141.12 141.750002" height="188" preserveAspectRatio="xMidYMid meet" version="1.0"><defs><clipPath id="6d5403f8ba"><path d="M 8.074219 8.390625 L 131.910156 8.390625 L 131.910156 132.226562 L 8.074219 132.226562 Z M 8.074219 8.390625 " clip-rule="nonzero"/></clipPath></defs><g clip-path="url(#6d5403f8ba)"><path fill="#2ead1a" d="M 132.046875 70.375 C 132.046875 72.40625 131.949219 74.433594 131.75 76.453125 C 131.550781 78.472656 131.253906 80.476562 130.859375 82.46875 C 130.460938 84.460938 129.96875 86.425781 129.378906 88.371094 C 128.789062 90.3125 128.105469 92.222656 127.332031 94.097656 C 126.554688 95.972656 125.6875 97.804688 124.730469 99.597656 C 123.773438 101.386719 122.730469 103.125 121.601562 104.816406 C 120.472656 106.503906 119.265625 108.132812 117.976562 109.699219 C 116.691406 111.269531 115.328125 112.773438 113.894531 114.207031 C 112.457031 115.644531 110.957031 117.003906 109.386719 118.292969 C 107.816406 119.582031 106.1875 120.789062 104.5 121.917969 C 102.8125 123.046875 101.074219 124.085938 99.28125 125.042969 C 97.492188 126 95.660156 126.867188 93.78125 127.644531 C 91.90625 128.421875 90 129.105469 88.054688 129.695312 C 86.113281 130.285156 84.144531 130.777344 82.15625 131.171875 C 80.164062 131.570312 78.15625 131.867188 76.136719 132.066406 C 74.117188 132.265625 72.089844 132.363281 70.0625 132.363281 C 68.03125 132.363281 66.007812 132.265625 63.984375 132.066406 C 61.964844 131.867188 59.960938 131.570312 57.96875 131.171875 C 55.976562 130.777344 54.011719 130.285156 52.066406 129.695312 C 50.125 129.105469 48.214844 128.421875 46.339844 127.644531 C 44.464844 126.867188 42.632812 126 40.839844 125.042969 C 39.050781 124.085938 37.3125 123.046875 35.625 121.917969 C 33.933594 120.789062 32.304688 119.582031 30.738281 118.292969 C 29.167969 117.003906 27.664062 115.644531 26.230469 114.207031 C 24.792969 112.773438 23.433594 111.269531 22.144531 109.699219 C 20.855469 108.132812 19.648438 106.503906 18.519531 104.816406 C 17.394531 103.125 16.351562 101.386719 15.394531 99.597656 C 14.4375 97.804688 13.570312 95.972656 12.792969 94.097656 C 12.015625 92.222656 11.332031 90.3125 10.742188 88.371094 C 10.152344 86.425781 9.660156 84.460938 9.265625 82.46875 C 8.867188 80.476562 8.570312 78.472656 8.371094 76.453125 C 8.171875 74.433594 8.074219 72.40625 8.074219 70.375 C 8.074219 68.347656 8.171875 66.320312 8.371094 64.300781 C 8.570312 62.28125 8.867188 60.273438 9.265625 58.285156 C 9.660156 56.292969 10.152344 54.324219 10.742188 52.382812 C 11.332031 50.441406 12.015625 48.53125 12.792969 46.65625 C 13.570312 44.777344 14.4375 42.945312 15.394531 41.15625 C 16.351562 39.367188 17.394531 37.625 18.519531 35.9375 C 19.648438 34.25 20.855469 32.621094 22.144531 31.050781 C 23.433594 29.484375 24.792969 27.980469 26.230469 26.542969 C 27.664062 25.109375 29.167969 23.746094 30.738281 22.460938 C 32.304688 21.171875 33.933594 19.964844 35.625 18.835938 C 37.3125 17.707031 39.050781 16.664062 40.839844 15.707031 C 42.632812 14.75 44.464844 13.882812 46.339844 13.109375 C 48.214844 12.332031 50.125 11.648438 52.066406 11.058594 C 54.011719 10.46875 55.976562 9.976562 57.96875 9.582031 C 59.960938 9.183594 61.964844 8.886719 63.984375 8.6875 C 66.007812 8.488281 68.03125 8.390625 70.0625 8.390625 C 72.089844 8.390625 74.117188 8.488281 76.136719 8.6875 C 78.15625 8.886719 80.164062 9.183594 82.15625 9.582031 C 84.144531 9.976562 86.113281 10.46875 88.054688 11.058594 C 90 11.648438 91.90625 12.332031 93.78125 13.109375 C 95.660156 13.882812 97.492188 14.75 99.28125 15.707031 C 101.074219 16.664062 102.8125 17.707031 104.5 18.835938 C 106.1875 19.964844 107.816406 21.171875 109.386719 22.460938 C 110.957031 23.746094 112.457031 25.109375 113.894531 26.542969 C 115.328125 27.980469 116.691406 29.484375 117.976562 31.050781 C 119.265625 32.621094 120.472656 34.25 121.601562 35.9375 C 122.730469 37.625 123.773438 39.367188 124.730469 41.15625 C 125.6875 42.945312 126.554688 44.777344 127.332031 46.65625 C 128.105469 48.53125 128.789062 50.441406 129.378906 52.382812 C 129.96875 54.324219 130.460938 56.292969 130.859375 58.285156 C 131.253906 60.273438 131.550781 62.28125 131.75 64.300781 C 131.949219 66.320312 132.046875 68.347656 132.046875 70.375 Z M 132.046875 70.375 " fill-opacity="1" fill-rule="nonzero"/></g><path fill="#ffffff" d="M 54.6875 113.121094 L 20.882812 79.320312 L 34.351562 65.851562 L 54.6875 86.183594 L 105.761719 35.105469 L 119.234375 48.574219 Z M 54.6875 113.121094 " fill-opacity="1" fill-rule="nonzero"/></svg>