<svg xmlns="http://www.w3.org/2000/svg" xmlns:xlink="http://www.w3.org/1999/xlink" width="188" zoomAndPan="magnify" viewBox="0 0 141.75 141.749996" height="188" preserveAspectRatio="xMidYMid meet" version="1.0"><defs><clipPath id="51c7e41e48"><path d="M 8.152344 8.152344 L 133.179688 8.152344 L 133.179688 133.179688 L 8.152344 133.179688 Z M 8.152344 8.152344 " clip-rule="nonzero"/></clipPath><clipPath id="92085ac225"><path d="M 25 25 L 133.179688 25 L 133.179688 133.179688 L 25 133.179688 Z M 25 25 " clip-rule="nonzero"/></clipPath><clipPath id="4a9e617b71"><path d="M 8.152344 8.152344 L 109 8.152344 L 109 123 L 8.152344 123 Z M 8.152344 8.152344 " clip-rule="nonzero"/></clipPath></defs><g clip-path="url(#51c7e41e48)"><path fill="#fff800" d="M 133.320312 70.71875 C 133.320312 105.28125 105.304688 133.296875 70.742188 133.296875 C 53.109375 133.296875 37.167969 126.003906 25.792969 114.25 C 14.875 102.992188 8.160156 87.632812 8.160156 70.714844 C 8.160156 36.148438 36.1875 8.132812 70.742188 8.132812 C 87.660156 8.132812 103.003906 14.847656 114.273438 25.765625 C 126.023438 37.132812 133.320312 53.070312 133.320312 70.71875 Z M 133.320312 70.71875 " fill-opacity="1" fill-rule="nonzero"/></g><path fill="#e0882a" d="M 117.878906 70.71875 C 117.878906 96.738281 96.773438 117.847656 70.742188 117.847656 C 57.367188 117.847656 45.300781 112.277344 36.734375 103.324219 C 28.601562 94.851562 23.617188 83.367188 23.617188 70.71875 C 23.617188 44.683594 44.722656 23.578125 70.746094 23.578125 C 83.394531 23.578125 94.886719 28.5625 103.363281 36.683594 C 112.3125 45.265625 117.878906 57.339844 117.878906 70.71875 Z M 117.878906 70.71875 " fill-opacity="1" fill-rule="nonzero"/><path fill="#c3651c" d="M 105.320312 38.691406 C 96.898438 30.804688 85.582031 25.996094 73.164062 25.996094 C 47.144531 25.996094 26.035156 47.105469 26.035156 73.136719 C 26.035156 85.554688 30.84375 96.859375 38.742188 105.28125 C 38.054688 104.652344 37.386719 104 36.734375 103.324219 C 28.601562 94.851562 23.617188 83.367188 23.617188 70.71875 C 23.617188 44.683594 44.722656 23.578125 70.746094 23.578125 C 83.394531 23.578125 94.886719 28.5625 103.363281 36.683594 C 104.039062 37.335938 104.691406 38.003906 105.320312 38.691406 Z M 105.320312 38.691406 " fill-opacity="1" fill-rule="nonzero"/><g clip-path="url(#92085ac225)"><path fill="#ffde17" d="M 133.324219 70.71875 C 133.324219 105.28125 105.308594 133.296875 70.746094 133.296875 C 53.113281 133.296875 37.171875 126.003906 25.796875 114.25 L 36.738281 103.320312 C 37.378906 103.996094 38.046875 104.652344 38.734375 105.265625 C 40.273438 106.707031 41.894531 108.039062 43.613281 109.25 C 51.285156 114.660156 60.640625 117.84375 70.746094 117.84375 C 96.777344 117.84375 117.882812 96.734375 117.882812 70.714844 C 117.882812 58.355469 113.128906 47.101562 105.320312 38.6875 C 104.691406 38 104.039062 37.332031 103.363281 36.679688 L 103.542969 36.507812 L 114.277344 25.761719 C 126.027344 37.132812 133.324219 53.070312 133.324219 70.71875 Z M 133.324219 70.71875 " fill-opacity="1" fill-rule="nonzero"/></g><path fill="#fff800" d="M 120.304688 73.136719 C 120.304688 99.160156 99.199219 120.265625 73.164062 120.265625 C 59.792969 120.265625 47.722656 114.699219 39.15625 105.742188 C 39.015625 105.585938 38.855469 105.429688 38.734375 105.269531 C 40.273438 106.710938 41.894531 108.042969 43.613281 109.253906 C 51.285156 114.664062 60.640625 117.847656 70.746094 117.847656 C 96.777344 117.847656 117.882812 96.738281 117.882812 70.71875 C 117.882812 58.359375 113.128906 47.105469 105.320312 38.691406 C 105.480469 38.8125 105.625 38.960938 105.78125 39.105469 C 114.734375 47.6875 120.304688 59.761719 120.304688 73.136719 Z M 120.304688 73.136719 " fill-opacity="1" fill-rule="nonzero"/><g clip-path="url(#4a9e617b71)"><path fill="#fff800" d="M 11.019531 72.773438 C 11.019531 89.695312 17.734375 105.050781 28.652344 116.308594 C 30.78125 118.511719 33.082031 120.558594 35.511719 122.429688 C 32.003906 120.035156 28.746094 117.289062 25.796875 114.25 C 14.878906 102.996094 8.164062 87.636719 8.164062 70.71875 C 8.164062 36.152344 36.191406 8.136719 70.746094 8.136719 C 85.023438 8.136719 98.179688 12.914062 108.710938 20.964844 C 98.703125 14.164062 86.613281 10.191406 73.597656 10.191406 C 39.046875 10.191406 11.019531 38.207031 11.019531 72.773438 Z M 11.019531 72.773438 " fill-opacity="1" fill-rule="nonzero"/></g><path fill="#c3651c" d="M 82.160156 70.703125 L 99.878906 76.691406 L 52.65625 113.917969 L 73.363281 84.777344 L 62.628906 82.261719 L 50.125 79.332031 L 73.363281 34.769531 L 89.410156 41.753906 L 89.421875 41.753906 L 98.984375 45.902344 L 101.246094 46.894531 Z M 82.160156 70.703125 " fill-opacity="1" fill-rule="nonzero"/><path fill="#fff800" d="M 80.953125 67.074219 L 98.671875 73.0625 L 51.445312 110.289062 L 72.152344 81.148438 L 61.417969 78.628906 L 48.917969 75.703125 L 72.152344 31.140625 L 88.199219 38.125 L 88.214844 38.125 L 97.773438 42.277344 L 100.039062 43.265625 Z M 80.953125 67.074219 " fill-opacity="1" fill-rule="nonzero"/><path fill="#ffde17" d="M 80.953125 67.074219 L 98.671875 73.0625 L 51.445312 110.289062 L 72.152344 81.148438 L 61.417969 78.628906 L 97.773438 42.277344 L 100.039062 43.265625 Z M 80.953125 67.074219 " fill-opacity="1" fill-rule="nonzero"/><path fill="#fff800" d="M 52.609375 74.453125 L 77.332031 80.214844 L 51.445312 110.289062 L 72.152344 81.148438 L 48.917969 75.703125 L 72.152344 31.140625 L 88.199219 38.125 L 74.730469 33.242188 Z M 52.609375 74.453125 " fill-opacity="1" fill-rule="nonzero"/></svg>