<svg xmlns="http://www.w3.org/2000/svg" xmlns:xlink="http://www.w3.org/1999/xlink" width="188" zoomAndPan="magnify" viewBox="0 0 141.12 141.750002" height="188" preserveAspectRatio="xMidYMid meet" version="1.0"><defs><clipPath id="908256c32a"><path d="M 14.011719 14.328125 L 128 14.328125 L 128 128 L 14.011719 128 Z M 14.011719 14.328125 " clip-rule="nonzero"/></clipPath></defs><g clip-path="url(#908256c32a)"><path fill="#f58420" d="M 26.832031 13.890625 L 114.167969 13.890625 C 115.039062 13.890625 115.902344 13.976562 116.753906 14.148438 C 117.609375 14.316406 118.4375 14.566406 119.242188 14.902344 C 120.042969 15.234375 120.808594 15.640625 121.53125 16.125 C 122.253906 16.609375 122.925781 17.160156 123.539062 17.773438 C 124.15625 18.390625 124.703125 19.058594 125.1875 19.78125 C 125.671875 20.503906 126.082031 21.269531 126.414062 22.074219 C 126.746094 22.878906 126.996094 23.707031 127.167969 24.558594 C 127.335938 25.414062 127.421875 26.273438 127.421875 27.144531 L 127.421875 114.484375 C 127.421875 115.355469 127.335938 116.214844 127.167969 117.070312 C 126.996094 117.921875 126.746094 118.75 126.414062 119.554688 C 126.082031 120.359375 125.671875 121.125 125.1875 121.847656 C 124.703125 122.570312 124.15625 123.238281 123.539062 123.855469 C 122.925781 124.46875 122.253906 125.019531 121.53125 125.503906 C 120.808594 125.988281 120.042969 126.394531 119.242188 126.726562 C 118.4375 127.0625 117.609375 127.3125 116.753906 127.480469 C 115.902344 127.652344 115.039062 127.738281 114.167969 127.738281 L 26.832031 127.738281 C 25.960938 127.738281 25.097656 127.652344 24.246094 127.480469 C 23.390625 127.3125 22.5625 127.0625 21.757812 126.726562 C 20.953125 126.394531 20.191406 125.988281 19.46875 125.503906 C 18.742188 125.019531 18.074219 124.46875 17.457031 123.855469 C 16.84375 123.238281 16.292969 122.570312 15.8125 121.847656 C 15.328125 121.125 14.917969 120.359375 14.585938 119.554688 C 14.253906 118.75 14 117.921875 13.832031 117.070312 C 13.660156 116.214844 13.578125 115.355469 13.578125 114.484375 L 13.578125 27.144531 C 13.578125 26.273438 13.660156 25.414062 13.832031 24.558594 C 14 23.707031 14.253906 22.878906 14.585938 22.074219 C 14.917969 21.269531 15.328125 20.503906 15.8125 19.78125 C 16.292969 19.058594 16.84375 18.390625 17.457031 17.773438 C 18.074219 17.160156 18.742188 16.609375 19.46875 16.125 C 20.191406 15.640625 20.953125 15.234375 21.757812 14.902344 C 22.5625 14.566406 23.390625 14.316406 24.246094 14.148438 C 25.097656 13.976562 25.960938 13.890625 26.832031 13.890625 Z M 26.832031 13.890625 " fill-opacity="1" fill-rule="evenodd"/></g><path fill="#212121" d="M 70.492188 27.414062 C 82.476562 27.414062 93.324219 32.269531 101.179688 40.125 C 109.03125 47.976562 113.890625 58.824219 113.890625 70.808594 C 113.890625 82.792969 109.03125 93.640625 101.179688 101.492188 C 93.324219 109.347656 82.476562 114.203125 70.492188 114.203125 C 58.511719 114.203125 47.664062 109.347656 39.808594 101.492188 C 31.957031 93.640625 27.097656 82.792969 27.097656 70.808594 C 27.097656 58.824219 31.957031 47.976562 39.808594 40.125 C 47.664062 32.269531 58.511719 27.414062 70.492188 27.414062 Z M 98.648438 42.65625 C 91.441406 35.449219 81.488281 30.992188 70.492188 30.992188 C 59.5 30.992188 49.542969 35.449219 42.339844 42.65625 C 35.132812 49.859375 30.679688 59.8125 30.679688 70.808594 C 30.679688 81.804688 35.132812 91.757812 42.339844 98.964844 C 49.542969 106.167969 59.5 110.625 70.492188 110.625 C 81.488281 110.625 91.441406 106.167969 98.648438 98.964844 C 105.855469 91.757812 110.308594 81.804688 110.308594 70.808594 C 110.308594 59.8125 105.855469 49.859375 98.648438 42.65625 Z M 98.648438 42.65625 " fill-opacity="1" fill-rule="nonzero"/><path fill="#212121" d="M 74.832031 80.75 L 74.832031 66.265625 C 74.832031 65.074219 74.34375 63.992188 73.554688 63.203125 C 72.769531 62.417969 71.683594 61.929688 70.492188 61.929688 C 68.382812 61.929688 66.082031 63.371094 64.128906 65.339844 C 63.53125 65.9375 62.976562 66.582031 62.46875 67.246094 C 63.4375 66.816406 64.019531 66.714844 64.050781 66.707031 L 64.050781 66.699219 C 65.023438 66.527344 65.953125 67.171875 66.128906 68.144531 C 66.148438 68.257812 66.15625 68.371094 66.15625 68.484375 L 66.15625 95.230469 C 66.15625 96.421875 66.644531 97.507812 67.433594 98.292969 C 68.21875 99.082031 69.304688 99.570312 70.492188 99.570312 C 72.605469 99.570312 74.90625 98.128906 76.859375 96.160156 C 77.457031 95.558594 78.011719 94.914062 78.519531 94.25 C 77.550781 94.679688 76.964844 94.785156 76.9375 94.789062 L 76.9375 94.796875 C 75.964844 94.972656 75.035156 94.328125 74.859375 93.355469 C 74.839844 93.238281 74.828125 93.125 74.832031 93.015625 Z M 78.410156 66.265625 L 78.410156 90.3125 C 79.285156 89.757812 80.398438 88.894531 81.683594 87.550781 C 82.066406 87.058594 82.695312 86.78125 83.355469 86.875 C 84.332031 87.011719 85.011719 87.917969 84.871094 88.898438 C 84.441406 91.890625 82.273438 95.769531 79.390625 98.675781 C 76.828125 101.257812 73.648438 103.148438 70.492188 103.148438 C 68.316406 103.148438 66.335938 102.257812 64.902344 100.824219 C 63.46875 99.390625 62.578125 97.410156 62.578125 95.230469 L 62.578125 71.1875 C 61.703125 71.738281 60.589844 72.605469 59.300781 73.949219 C 58.921875 74.441406 58.292969 74.71875 57.632812 74.625 C 56.65625 74.484375 55.976562 73.578125 56.113281 72.601562 L 56.117188 72.601562 C 56.542969 69.609375 58.714844 65.730469 61.597656 62.820312 C 64.160156 60.238281 67.339844 58.351562 70.492188 58.351562 C 72.671875 58.351562 74.652344 59.238281 76.085938 60.675781 C 77.519531 62.109375 78.410156 64.085938 78.410156 66.265625 Z M 78.410156 66.265625 " fill-opacity="1" fill-rule="nonzero"/><path fill="#212121" d="M 68.902344 38.667969 C 71.214844 38.667969 73.3125 39.605469 74.828125 41.121094 C 76.34375 42.636719 77.28125 44.730469 77.28125 47.042969 C 77.28125 49.355469 76.34375 51.449219 74.828125 52.964844 C 73.308594 54.480469 71.214844 55.417969 68.902344 55.417969 C 66.589844 55.417969 64.496094 54.480469 62.980469 52.964844 C 61.464844 51.449219 60.527344 49.355469 60.527344 47.042969 C 60.527344 44.730469 61.464844 42.636719 62.980469 41.121094 C 64.496094 39.605469 66.589844 38.667969 68.902344 38.667969 Z M 72.296875 43.648438 C 71.429688 42.78125 70.226562 42.246094 68.902344 42.246094 C 67.578125 42.246094 66.378906 42.78125 65.511719 43.648438 C 64.644531 44.519531 64.105469 45.71875 64.105469 47.042969 C 64.105469 48.367188 64.644531 49.566406 65.511719 50.433594 C 66.378906 51.304688 67.578125 51.839844 68.902344 51.839844 C 70.226562 51.839844 71.429688 51.304688 72.296875 50.433594 C 73.164062 49.566406 73.699219 48.367188 73.699219 47.042969 C 73.699219 45.71875 73.164062 44.519531 72.296875 43.648438 Z M 72.296875 43.648438 " fill-opacity="1" fill-rule="nonzero"/><path fill="#febf10" d="M 62.980469 52.964844 C 61.464844 51.449219 60.527344 49.355469 60.527344 47.042969 C 60.527344 44.730469 61.464844 42.636719 62.980469 41.121094 C 64.496094 39.605469 66.589844 38.667969 68.902344 38.667969 C 71.214844 38.667969 73.3125 39.605469 74.828125 41.121094 C 76.34375 42.636719 77.28125 44.730469 77.28125 47.042969 C 77.28125 49.355469 76.34375 51.449219 74.828125 52.964844 C 73.308594 54.480469 71.214844 55.417969 68.902344 55.417969 C 66.589844 55.417969 64.496094 54.480469 62.980469 52.964844 Z M 56.117188 72.601562 C 56.542969 69.609375 58.714844 65.730469 61.597656 62.820312 C 64.160156 60.238281 67.339844 58.351562 70.492188 58.351562 C 72.671875 58.351562 74.652344 59.238281 76.085938 60.675781 C 77.519531 62.109375 78.410156 64.085938 78.410156 66.265625 L 78.410156 90.3125 C 79.285156 89.757812 80.398438 88.894531 81.683594 87.550781 C 82.066406 87.058594 82.695312 86.78125 83.355469 86.875 C 84.332031 87.011719 85.011719 87.917969 84.871094 88.898438 C 84.441406 91.890625 82.273438 95.769531 79.390625 98.675781 C 76.828125 101.257812 73.648438 103.148438 70.492188 103.148438 C 68.316406 103.148438 66.335938 102.257812 64.902344 100.824219 C 63.46875 99.390625 62.578125 97.410156 62.578125 95.230469 L 62.578125 71.1875 C 61.703125 71.738281 60.589844 72.605469 59.300781 73.949219 C 58.921875 74.441406 58.292969 74.71875 57.632812 74.625 C 56.65625 74.484375 55.976562 73.578125 56.113281 72.601562 Z M 110.308594 70.808594 C 110.308594 59.8125 105.855469 49.859375 98.648438 42.65625 C 91.441406 35.449219 81.488281 30.992188 70.492188 30.992188 C 59.5 30.992188 49.542969 35.449219 42.339844 42.65625 C 35.132812 49.859375 30.679688 59.8125 30.679688 70.808594 C 30.679688 81.804688 35.132812 91.757812 42.339844 98.964844 C 49.542969 106.167969 59.5 110.625 70.492188 110.625 C 81.488281 110.625 91.441406 106.167969 98.648438 98.964844 C 105.855469 91.757812 110.308594 81.804688 110.308594 70.808594 Z M 110.308594 70.808594 " fill-opacity="1" fill-rule="evenodd"/><path fill="#ffffff" d="M 72.296875 50.433594 C 73.164062 49.566406 73.699219 48.367188 73.699219 47.042969 C 73.699219 45.71875 73.164062 44.519531 72.296875 43.652344 C 71.429688 42.78125 70.226562 42.246094 68.902344 42.246094 C 67.578125 42.246094 66.378906 42.78125 65.511719 43.652344 C 64.644531 44.519531 64.105469 45.71875 64.105469 47.042969 C 64.105469 48.367188 64.644531 49.566406 65.511719 50.433594 C 66.378906 51.304688 67.578125 51.839844 68.902344 51.839844 C 70.226562 51.839844 71.429688 51.304688 72.296875 50.433594 Z M 72.296875 50.433594 " fill-opacity="1" fill-rule="evenodd"/><path fill="#ffffff" d="M 74.832031 80.75 L 74.832031 66.265625 C 74.832031 65.074219 74.34375 63.992188 73.554688 63.203125 C 72.769531 62.417969 71.683594 61.929688 70.492188 61.929688 C 68.382812 61.929688 66.082031 63.371094 64.128906 65.339844 C 63.53125 65.9375 62.976562 66.582031 62.46875 67.246094 C 63.4375 66.816406 64.019531 66.714844 64.050781 66.707031 L 64.050781 66.699219 C 65.023438 66.527344 65.953125 67.171875 66.128906 68.144531 C 66.148438 68.257812 66.15625 68.371094 66.15625 68.484375 L 66.15625 95.230469 C 66.15625 96.421875 66.644531 97.507812 67.433594 98.292969 C 68.21875 99.082031 69.304688 99.570312 70.492188 99.570312 C 72.605469 99.570312 74.90625 98.128906 76.859375 96.160156 C 77.457031 95.558594 78.011719 94.914062 78.519531 94.25 C 77.550781 94.679688 76.964844 94.785156 76.9375 94.789062 L 76.9375 94.796875 C 75.964844 94.972656 75.035156 94.328125 74.859375 93.355469 C 74.839844 93.238281 74.828125 93.125 74.832031 93.015625 Z M 74.832031 80.75 " fill-opacity="1" fill-rule="evenodd"/></svg>