<svg xmlns="http://www.w3.org/2000/svg" xmlns:xlink="http://www.w3.org/1999/xlink" width="188" zoomAndPan="magnify" viewBox="0 0 141.75 141.749996" height="188" preserveAspectRatio="xMidYMid meet" version="1.0"><defs><clipPath id="5fa3811f38"><path d="M 9.933594 9.933594 L 131.222656 9.933594 L 131.222656 131.222656 L 9.933594 131.222656 Z M 9.933594 9.933594 " clip-rule="nonzero"/></clipPath><clipPath id="66ccaf1b05"><path d="M 9.933594 9.933594 L 131.222656 9.933594 L 131.222656 131.222656 L 9.933594 131.222656 Z M 9.933594 9.933594 " clip-rule="nonzero"/></clipPath></defs><g clip-path="url(#5fa3811f38)"><path fill="#2508a8" d="M 36.519531 9.652344 L 104.390625 9.652344 C 105.269531 9.652344 106.144531 9.695312 107.023438 9.78125 C 107.898438 9.867188 108.765625 9.996094 109.628906 10.167969 C 110.492188 10.339844 111.34375 10.554688 112.1875 10.808594 C 113.03125 11.066406 113.855469 11.359375 114.667969 11.699219 C 115.484375 12.035156 116.277344 12.410156 117.054688 12.824219 C 117.828125 13.238281 118.582031 13.691406 119.3125 14.179688 C 120.046875 14.667969 120.75 15.191406 121.433594 15.75 C 122.113281 16.308594 122.761719 16.898438 123.386719 17.519531 C 124.007812 18.144531 124.597656 18.792969 125.15625 19.472656 C 125.714844 20.15625 126.238281 20.859375 126.726562 21.59375 C 127.214844 22.324219 127.667969 23.078125 128.082031 23.855469 C 128.496094 24.628906 128.871094 25.425781 129.210938 26.238281 C 129.546875 27.050781 129.84375 27.878906 130.097656 28.71875 C 130.351562 29.5625 130.566406 30.414062 130.738281 31.277344 C 130.910156 32.140625 131.039062 33.007812 131.125 33.882812 C 131.210938 34.761719 131.253906 35.636719 131.253906 36.519531 L 131.253906 104.390625 C 131.253906 105.269531 131.210938 106.144531 131.125 107.023438 C 131.039062 107.898438 130.910156 108.765625 130.738281 109.628906 C 130.566406 110.492188 130.351562 111.34375 130.097656 112.1875 C 129.84375 113.03125 129.546875 113.855469 129.210938 114.667969 C 128.871094 115.484375 128.496094 116.277344 128.082031 117.054688 C 127.667969 117.828125 127.214844 118.582031 126.726562 119.3125 C 126.238281 120.046875 125.714844 120.75 125.15625 121.433594 C 124.597656 122.113281 124.007812 122.761719 123.386719 123.386719 C 122.761719 124.007812 122.113281 124.597656 121.433594 125.15625 C 120.75 125.714844 120.046875 126.238281 119.3125 126.726562 C 118.582031 127.214844 117.828125 127.667969 117.054688 128.082031 C 116.277344 128.496094 115.484375 128.871094 114.667969 129.210938 C 113.855469 129.546875 113.03125 129.84375 112.1875 130.097656 C 111.34375 130.351562 110.492188 130.566406 109.628906 130.738281 C 108.765625 130.910156 107.898438 131.039062 107.023438 131.125 C 106.144531 131.210938 105.269531 131.253906 104.390625 131.253906 L 36.519531 131.253906 C 35.636719 131.253906 34.761719 131.210938 33.882812 131.125 C 33.007812 131.039062 32.140625 130.910156 31.277344 130.738281 C 30.414062 130.566406 29.5625 130.351562 28.71875 130.097656 C 27.878906 129.84375 27.050781 129.546875 26.238281 129.210938 C 25.425781 128.871094 24.628906 128.496094 23.855469 128.082031 C 23.078125 127.667969 22.324219 127.214844 21.59375 126.726562 C 20.859375 126.238281 20.15625 125.714844 19.472656 125.15625 C 18.792969 124.597656 18.144531 124.007812 17.519531 123.386719 C 16.898438 122.761719 16.308594 122.113281 15.75 121.433594 C 15.191406 120.75 14.667969 120.046875 14.179688 119.3125 C 13.691406 118.582031 13.238281 117.828125 12.824219 117.054688 C 12.410156 116.277344 12.035156 115.484375 11.699219 114.667969 C 11.359375 113.855469 11.066406 113.03125 10.808594 112.1875 C 10.554688 111.34375 10.339844 110.492188 10.167969 109.628906 C 9.996094 108.765625 9.867188 107.898438 9.78125 107.023438 C 9.695312 106.144531 9.652344 105.269531 9.652344 104.390625 L 9.652344 36.519531 C 9.652344 35.636719 9.695312 34.761719 9.78125 33.882812 C 9.867188 33.007812 9.996094 32.140625 10.167969 31.277344 C 10.339844 30.414062 10.554688 29.5625 10.808594 28.71875 C 11.066406 27.878906 11.359375 27.050781 11.699219 26.238281 C 12.035156 25.425781 12.410156 24.628906 12.824219 23.855469 C 13.238281 23.078125 13.691406 22.324219 14.179688 21.59375 C 14.667969 20.859375 15.191406 20.15625 15.75 19.472656 C 16.308594 18.792969 16.898438 18.144531 17.519531 17.519531 C 18.144531 16.898438 18.792969 16.308594 19.472656 15.75 C 20.15625 15.191406 20.859375 14.667969 21.59375 14.179688 C 22.324219 13.691406 23.078125 13.238281 23.855469 12.824219 C 24.628906 12.410156 25.425781 12.035156 26.238281 11.699219 C 27.050781 11.359375 27.878906 11.066406 28.71875 10.808594 C 29.5625 10.554688 30.414062 10.339844 31.277344 10.167969 C 32.140625 9.996094 33.007812 9.867188 33.882812 9.78125 C 34.761719 9.695312 35.636719 9.652344 36.519531 9.652344 Z M 36.519531 9.652344 " fill-opacity="1" fill-rule="nonzero"/></g><path fill="#ffffff" d="M 70.453125 108.628906 C 70.175781 108.628906 69.898438 108.601562 69.625 108.550781 C 69.351562 108.496094 69.085938 108.414062 68.828125 108.308594 C 68.574219 108.199219 68.328125 108.070312 68.097656 107.914062 C 67.863281 107.761719 67.652344 107.585938 67.453125 107.386719 C 67.257812 107.191406 67.082031 106.976562 66.925781 106.746094 C 66.773438 106.515625 66.640625 106.269531 66.535156 106.011719 C 66.425781 105.753906 66.347656 105.488281 66.292969 105.214844 C 66.238281 104.941406 66.210938 104.667969 66.210938 104.390625 L 66.210938 63.382812 L 64.796875 63.382812 C 64.519531 63.382812 64.242188 63.355469 63.96875 63.300781 C 63.695312 63.246094 63.429688 63.167969 63.175781 63.058594 C 62.917969 62.953125 62.671875 62.824219 62.441406 62.667969 C 62.210938 62.515625 61.996094 62.339844 61.796875 62.140625 C 61.601562 61.945312 61.425781 61.730469 61.269531 61.5 C 61.117188 61.265625 60.984375 61.023438 60.878906 60.765625 C 60.773438 60.507812 60.691406 60.242188 60.636719 59.96875 C 60.582031 59.695312 60.554688 59.421875 60.554688 59.140625 C 60.554688 58.863281 60.582031 58.585938 60.636719 58.3125 C 60.691406 58.039062 60.773438 57.777344 60.878906 57.519531 C 60.984375 57.261719 61.117188 57.015625 61.269531 56.785156 C 61.425781 56.554688 61.601562 56.339844 61.796875 56.140625 C 61.996094 55.945312 62.210938 55.769531 62.441406 55.613281 C 62.671875 55.460938 62.917969 55.328125 63.175781 55.222656 C 63.429688 55.117188 63.695312 55.035156 63.96875 54.980469 C 64.242188 54.925781 64.519531 54.898438 64.796875 54.898438 L 70.453125 54.898438 C 70.730469 54.898438 71.007812 54.925781 71.28125 54.980469 C 71.554688 55.035156 71.820312 55.117188 72.078125 55.222656 C 72.332031 55.328125 72.578125 55.460938 72.808594 55.613281 C 73.042969 55.769531 73.257812 55.945312 73.453125 56.140625 C 73.648438 56.339844 73.824219 56.554688 73.980469 56.785156 C 74.136719 57.015625 74.265625 57.261719 74.371094 57.519531 C 74.480469 57.777344 74.558594 58.039062 74.613281 58.3125 C 74.667969 58.585938 74.695312 58.863281 74.695312 59.140625 L 74.695312 104.390625 C 74.695312 104.667969 74.667969 104.941406 74.613281 105.214844 C 74.558594 105.488281 74.480469 105.753906 74.371094 106.011719 C 74.265625 106.269531 74.136719 106.515625 73.980469 106.746094 C 73.824219 106.976562 73.648438 107.191406 73.453125 107.386719 C 73.257812 107.585938 73.042969 107.761719 72.808594 107.914062 C 72.578125 108.070312 72.332031 108.199219 72.078125 108.308594 C 71.820312 108.414062 71.554688 108.496094 71.28125 108.550781 C 71.007812 108.601562 70.730469 108.628906 70.453125 108.628906 Z M 70.453125 108.628906 " fill-opacity="1" fill-rule="nonzero"/><path fill="#ffffff" d="M 78.9375 108.628906 L 61.96875 108.628906 C 61.691406 108.628906 61.414062 108.601562 61.140625 108.550781 C 60.867188 108.496094 60.601562 108.414062 60.347656 108.308594 C 60.089844 108.199219 59.84375 108.070312 59.613281 107.914062 C 59.382812 107.761719 59.167969 107.585938 58.96875 107.386719 C 58.773438 107.191406 58.597656 106.976562 58.441406 106.746094 C 58.289062 106.515625 58.15625 106.269531 58.050781 106.011719 C 57.945312 105.753906 57.863281 105.488281 57.808594 105.214844 C 57.753906 104.941406 57.726562 104.667969 57.726562 104.390625 C 57.726562 104.109375 57.753906 103.835938 57.808594 103.5625 C 57.863281 103.289062 57.945312 103.023438 58.050781 102.765625 C 58.15625 102.507812 58.289062 102.261719 58.441406 102.03125 C 58.597656 101.800781 58.773438 101.585938 58.96875 101.390625 C 59.167969 101.191406 59.382812 101.015625 59.613281 100.863281 C 59.84375 100.707031 60.089844 100.578125 60.347656 100.46875 C 60.601562 100.363281 60.867188 100.28125 61.140625 100.226562 C 61.414062 100.175781 61.691406 100.148438 61.96875 100.148438 L 78.9375 100.148438 C 79.214844 100.148438 79.492188 100.175781 79.765625 100.226562 C 80.039062 100.28125 80.304688 100.363281 80.558594 100.46875 C 80.816406 100.578125 81.0625 100.707031 81.292969 100.863281 C 81.527344 101.015625 81.738281 101.191406 81.9375 101.390625 C 82.132812 101.585938 82.308594 101.800781 82.464844 102.03125 C 82.617188 102.261719 82.75 102.507812 82.855469 102.765625 C 82.960938 103.023438 83.042969 103.289062 83.097656 103.5625 C 83.152344 103.835938 83.179688 104.109375 83.179688 104.390625 C 83.179688 104.667969 83.152344 104.941406 83.097656 105.214844 C 83.042969 105.488281 82.960938 105.753906 82.855469 106.011719 C 82.75 106.269531 82.617188 106.515625 82.464844 106.746094 C 82.308594 106.976562 82.132812 107.191406 81.9375 107.386719 C 81.738281 107.585938 81.527344 107.761719 81.292969 107.914062 C 81.0625 108.070312 80.816406 108.199219 80.558594 108.308594 C 80.304688 108.414062 80.039062 108.496094 79.765625 108.550781 C 79.492188 108.601562 79.214844 108.628906 78.9375 108.628906 Z M 78.9375 108.628906 " fill-opacity="1" fill-rule="nonzero"/><path fill="#ffffff" d="M 77.523438 42.171875 C 77.523438 42.636719 77.476562 43.097656 77.386719 43.554688 C 77.296875 44.007812 77.164062 44.449219 76.984375 44.878906 C 76.808594 45.308594 76.589844 45.714844 76.332031 46.101562 C 76.074219 46.488281 75.78125 46.84375 75.453125 47.171875 C 75.125 47.5 74.765625 47.792969 74.382812 48.050781 C 73.996094 48.308594 73.585938 48.527344 73.160156 48.707031 C 72.730469 48.882812 72.289062 49.015625 71.832031 49.109375 C 71.378906 49.199219 70.917969 49.242188 70.453125 49.242188 C 69.988281 49.242188 69.53125 49.199219 69.074219 49.109375 C 68.617188 49.015625 68.175781 48.882812 67.746094 48.707031 C 67.320312 48.527344 66.910156 48.308594 66.527344 48.050781 C 66.140625 47.792969 65.78125 47.5 65.453125 47.171875 C 65.125 46.84375 64.832031 46.488281 64.574219 46.101562 C 64.316406 45.714844 64.097656 45.308594 63.921875 44.878906 C 63.742188 44.449219 63.609375 44.007812 63.519531 43.554688 C 63.429688 43.097656 63.382812 42.636719 63.382812 42.171875 C 63.382812 41.710938 63.429688 41.25 63.519531 40.792969 C 63.609375 40.339844 63.742188 39.898438 63.921875 39.46875 C 64.097656 39.039062 64.316406 38.632812 64.574219 38.246094 C 64.832031 37.859375 65.125 37.503906 65.453125 37.175781 C 65.78125 36.847656 66.140625 36.554688 66.527344 36.296875 C 66.910156 36.039062 67.320312 35.820312 67.746094 35.640625 C 68.175781 35.464844 68.617188 35.332031 69.074219 35.238281 C 69.53125 35.148438 69.988281 35.105469 70.453125 35.105469 C 70.917969 35.105469 71.378906 35.148438 71.832031 35.238281 C 72.289062 35.332031 72.730469 35.464844 73.160156 35.640625 C 73.585938 35.820312 73.996094 36.039062 74.382812 36.296875 C 74.765625 36.554688 75.125 36.847656 75.453125 37.175781 C 75.78125 37.503906 76.074219 37.859375 76.332031 38.246094 C 76.589844 38.632812 76.808594 39.039062 76.984375 39.46875 C 77.164062 39.898438 77.296875 40.339844 77.386719 40.792969 C 77.476562 41.25 77.523438 41.710938 77.523438 42.171875 Z M 77.523438 42.171875 " fill-opacity="1" fill-rule="nonzero"/><g clip-path="url(#66ccaf1b05)"><path fill="#ffffff" d="M 104.390625 131.253906 L 36.519531 131.253906 C 35.636719 131.253906 34.761719 131.210938 33.886719 131.121094 C 33.011719 131.035156 32.140625 130.90625 31.277344 130.734375 C 30.417969 130.558594 29.566406 130.347656 28.722656 130.089844 C 27.882812 129.832031 27.054688 129.539062 26.242188 129.199219 C 25.429688 128.863281 24.636719 128.488281 23.859375 128.070312 C 23.085938 127.65625 22.332031 127.207031 21.601562 126.714844 C 20.867188 126.226562 20.164062 125.703125 19.484375 125.144531 C 18.804688 124.585938 18.152344 123.996094 17.53125 123.375 C 16.910156 122.753906 16.320312 122.101562 15.761719 121.421875 C 15.203125 120.742188 14.679688 120.039062 14.191406 119.304688 C 13.703125 118.574219 13.25 117.820312 12.835938 117.046875 C 12.417969 116.269531 12.042969 115.476562 11.707031 114.664062 C 11.371094 113.851562 11.074219 113.023438 10.816406 112.183594 C 10.5625 111.34375 10.347656 110.488281 10.175781 109.628906 C 10 108.765625 9.871094 107.894531 9.785156 107.019531 C 9.699219 106.144531 9.652344 105.269531 9.652344 104.390625 L 9.652344 36.519531 C 9.652344 35.636719 9.699219 34.761719 9.785156 33.886719 C 9.871094 33.011719 10 32.140625 10.175781 31.277344 C 10.347656 30.417969 10.5625 29.566406 10.816406 28.722656 C 11.074219 27.882812 11.371094 27.054688 11.707031 26.242188 C 12.042969 25.429688 12.417969 24.636719 12.835938 23.859375 C 13.25 23.085938 13.703125 22.332031 14.191406 21.601562 C 14.679688 20.867188 15.203125 20.164062 15.761719 19.484375 C 16.320312 18.804688 16.910156 18.152344 17.53125 17.53125 C 18.152344 16.910156 18.804688 16.320312 19.484375 15.761719 C 20.164062 15.203125 20.867188 14.679688 21.601562 14.191406 C 22.332031 13.703125 23.085938 13.25 23.859375 12.835938 C 24.636719 12.417969 25.429688 12.042969 26.242188 11.707031 C 27.054688 11.371094 27.882812 11.074219 28.722656 10.816406 C 29.566406 10.5625 30.417969 10.347656 31.277344 10.175781 C 32.140625 10 33.011719 9.871094 33.886719 9.785156 C 34.761719 9.699219 35.636719 9.652344 36.519531 9.652344 L 104.390625 9.652344 C 105.269531 9.652344 106.144531 9.699219 107.019531 9.785156 C 107.894531 9.871094 108.765625 10 109.628906 10.175781 C 110.488281 10.347656 111.34375 10.5625 112.183594 10.816406 C 113.023438 11.074219 113.851562 11.371094 114.664062 11.707031 C 115.476562 12.042969 116.269531 12.417969 117.046875 12.835938 C 117.820312 13.25 118.574219 13.703125 119.304688 14.191406 C 120.039062 14.679688 120.742188 15.203125 121.421875 15.761719 C 122.101562 16.320312 122.753906 16.910156 123.375 17.53125 C 123.996094 18.152344 124.585938 18.804688 125.144531 19.484375 C 125.703125 20.164062 126.226562 20.867188 126.714844 21.601562 C 127.207031 22.332031 127.65625 23.085938 128.070312 23.859375 C 128.488281 24.636719 128.863281 25.429688 129.199219 26.242188 C 129.539062 27.054688 129.832031 27.882812 130.089844 28.722656 C 130.347656 29.566406 130.558594 30.417969 130.734375 31.277344 C 130.90625 32.140625 131.035156 33.011719 131.121094 33.886719 C 131.210938 34.761719 131.253906 35.636719 131.253906 36.519531 L 131.253906 104.390625 C 131.253906 105.269531 131.210938 106.144531 131.121094 107.019531 C 131.035156 107.894531 130.90625 108.765625 130.734375 109.628906 C 130.558594 110.488281 130.347656 111.34375 130.089844 112.183594 C 129.832031 113.023438 129.539062 113.851562 129.199219 114.664062 C 128.863281 115.476562 128.488281 116.269531 128.070312 117.046875 C 127.65625 117.820312 127.207031 118.574219 126.714844 119.304688 C 126.226562 120.039062 125.703125 120.742188 125.144531 121.421875 C 124.585938 122.101562 123.996094 122.753906 123.375 123.375 C 122.753906 123.996094 122.101562 124.585938 121.421875 125.144531 C 120.742188 125.703125 120.039062 126.226562 119.304688 126.714844 C 118.574219 127.207031 117.820312 127.65625 117.046875 128.070312 C 116.269531 128.488281 115.476562 128.863281 114.664062 129.199219 C 113.851562 129.539062 113.023438 129.832031 112.183594 130.089844 C 111.34375 130.347656 110.488281 130.558594 109.628906 130.734375 C 108.765625 130.90625 107.894531 131.035156 107.019531 131.121094 C 106.144531 131.210938 105.269531 131.253906 104.390625 131.253906 Z M 36.519531 18.136719 C 35.917969 18.136719 35.316406 18.167969 34.71875 18.226562 C 34.117188 18.285156 33.523438 18.375 32.933594 18.492188 C 32.34375 18.609375 31.761719 18.757812 31.183594 18.933594 C 30.609375 19.109375 30.042969 19.3125 29.488281 19.542969 C 28.929688 19.773438 28.386719 20.03125 27.855469 20.3125 C 27.328125 20.597656 26.8125 20.90625 26.3125 21.242188 C 25.8125 21.574219 25.328125 21.933594 24.863281 22.316406 C 24.398438 22.699219 23.953125 23.101562 23.527344 23.527344 C 23.101562 23.953125 22.699219 24.398438 22.316406 24.863281 C 21.933594 25.328125 21.574219 25.8125 21.242188 26.3125 C 20.90625 26.8125 20.597656 27.328125 20.3125 27.855469 C 20.03125 28.386719 19.773438 28.929688 19.542969 29.488281 C 19.3125 30.042969 19.109375 30.609375 18.933594 31.183594 C 18.757812 31.761719 18.609375 32.34375 18.492188 32.933594 C 18.375 33.523438 18.285156 34.117188 18.226562 34.71875 C 18.167969 35.316406 18.136719 35.917969 18.136719 36.519531 L 18.136719 104.390625 C 18.136719 104.992188 18.167969 105.589844 18.226562 106.191406 C 18.285156 106.789062 18.375 107.382812 18.492188 107.972656 C 18.609375 108.5625 18.757812 109.144531 18.933594 109.722656 C 19.109375 110.296875 19.3125 110.863281 19.542969 111.417969 C 19.773438 111.976562 20.03125 112.519531 20.3125 113.050781 C 20.597656 113.578125 20.90625 114.09375 21.242188 114.59375 C 21.574219 115.097656 21.933594 115.578125 22.316406 116.042969 C 22.699219 116.507812 23.101562 116.953125 23.527344 117.378906 C 23.953125 117.804688 24.398438 118.210938 24.863281 118.589844 C 25.328125 118.972656 25.8125 119.332031 26.3125 119.664062 C 26.8125 120 27.328125 120.308594 27.855469 120.59375 C 28.386719 120.878906 28.929688 121.132812 29.488281 121.363281 C 30.042969 121.597656 30.609375 121.796875 31.183594 121.972656 C 31.761719 122.148438 32.34375 122.296875 32.933594 122.414062 C 33.523438 122.53125 34.117188 122.621094 34.71875 122.679688 C 35.316406 122.738281 35.917969 122.769531 36.519531 122.769531 L 104.390625 122.769531 C 104.992188 122.769531 105.589844 122.738281 106.191406 122.679688 C 106.789062 122.621094 107.382812 122.53125 107.972656 122.414062 C 108.5625 122.296875 109.144531 122.148438 109.722656 121.972656 C 110.296875 121.796875 110.863281 121.597656 111.417969 121.363281 C 111.976562 121.132812 112.519531 120.878906 113.050781 120.59375 C 113.578125 120.308594 114.09375 120 114.597656 119.664062 C 115.097656 119.332031 115.578125 118.972656 116.042969 118.589844 C 116.507812 118.210938 116.953125 117.804688 117.378906 117.378906 C 117.804688 116.953125 118.210938 116.507812 118.589844 116.042969 C 118.972656 115.578125 119.332031 115.097656 119.664062 114.597656 C 120 114.09375 120.308594 113.578125 120.59375 113.050781 C 120.878906 112.519531 121.132812 111.976562 121.363281 111.417969 C 121.597656 110.863281 121.796875 110.296875 121.972656 109.722656 C 122.148438 109.144531 122.296875 108.5625 122.414062 107.972656 C 122.53125 107.382812 122.621094 106.789062 122.679688 106.191406 C 122.738281 105.589844 122.769531 104.992188 122.769531 104.390625 L 122.769531 36.519531 C 122.769531 35.917969 122.738281 35.316406 122.679688 34.71875 C 122.621094 34.117188 122.53125 33.523438 122.414062 32.933594 C 122.296875 32.34375 122.148438 31.761719 121.972656 31.183594 C 121.796875 30.609375 121.597656 30.042969 121.363281 29.488281 C 121.132812 28.929688 120.878906 28.386719 120.59375 27.855469 C 120.308594 27.328125 120 26.8125 119.664062 26.3125 C 119.332031 25.8125 118.972656 25.328125 118.589844 24.863281 C 118.210938 24.398438 117.804688 23.953125 117.378906 23.527344 C 116.953125 23.101562 116.507812 22.699219 116.042969 22.316406 C 115.578125 21.933594 115.097656 21.574219 114.59375 21.242188 C 114.09375 20.90625 113.578125 20.597656 113.050781 20.3125 C 112.519531 20.03125 111.976562 19.773438 111.417969 19.542969 C 110.863281 19.3125 110.296875 19.109375 109.722656 18.933594 C 109.144531 18.757812 108.5625 18.609375 107.972656 18.492188 C 107.382812 18.375 106.789062 18.285156 106.191406 18.226562 C 105.589844 18.167969 104.992188 18.136719 104.390625 18.136719 Z M 36.519531 18.136719 " fill-opacity="1" fill-rule="nonzero"/></g></svg>