<svg xmlns="http://www.w3.org/2000/svg" xmlns:xlink="http://www.w3.org/1999/xlink" width="188" zoomAndPan="magnify" viewBox="0 0 141.75 141.749996" height="188" preserveAspectRatio="xMidYMid meet" version="1.0"><defs><clipPath id="394851930a"><path d="M 7.367188 7.367188 L 131.644531 7.367188 L 131.644531 131.644531 L 7.367188 131.644531 Z M 7.367188 7.367188 " clip-rule="nonzero"/></clipPath></defs><g clip-path="url(#394851930a)"><path fill="#2e2eaf" d="M 131.644531 69.507812 C 131.644531 103.824219 103.824219 131.644531 69.507812 131.644531 C 35.1875 131.644531 7.367188 103.824219 7.367188 69.507812 C 7.367188 35.191406 35.1875 7.367188 69.507812 7.367188 C 103.824219 7.367188 131.644531 35.191406 131.644531 69.507812 " fill-opacity="1" fill-rule="nonzero"/></g><path fill="#ffffff" d="M 77.148438 86.921875 L 77.148438 61.792969 L 61.863281 61.792969 L 61.863281 86.921875 L 56.796875 86.921875 L 56.796875 98.972656 L 82.21875 98.972656 L 82.21875 86.921875 L 77.148438 86.921875 " fill-opacity="1" fill-rule="nonzero"/><path fill="#ffffff" d="M 69.507812 59.441406 C 74.863281 59.441406 79.207031 55.101562 79.207031 49.742188 C 79.207031 44.386719 74.863281 40.042969 69.507812 40.042969 C 64.152344 40.042969 59.808594 44.386719 59.808594 49.742188 C 59.808594 55.101562 64.152344 59.441406 69.507812 59.441406 " fill-opacity="1" fill-rule="nonzero"/></svg>