<svg xmlns="http://www.w3.org/2000/svg" xmlns:xlink="http://www.w3.org/1999/xlink" width="188" zoomAndPan="magnify" viewBox="0 0 141.75 141.749996" height="188" preserveAspectRatio="xMidYMid meet" version="1.0"><defs><clipPath id="3fc531c4a5"><path d="M 9.007812 47.171875 L 132.539062 47.171875 L 132.539062 91 L 9.007812 91 Z M 9.007812 47.171875 " clip-rule="nonzero"/></clipPath><clipPath id="0a47eb378b"><path d="M 9.007812 50 L 64 50 L 64 91 L 9.007812 91 Z M 9.007812 50 " clip-rule="nonzero"/></clipPath><clipPath id="c734cf4cdf"><path d="M 9.007812 47.171875 L 132.539062 47.171875 L 132.539062 94.335938 L 9.007812 94.335938 Z M 9.007812 47.171875 " clip-rule="nonzero"/></clipPath></defs><g clip-path="url(#3fc531c4a5)"><path fill="#f58420" d="M 132.078125 61.496094 L 132.078125 76.644531 C 132.078125 84.316406 125.859375 90.535156 118.191406 90.535156 L 23.289062 90.535156 C 15.617188 90.535156 9.398438 84.316406 9.398438 76.644531 L 9.398438 61.496094 C 9.398438 53.824219 15.617188 47.609375 23.289062 47.609375 L 118.191406 47.609375 C 125.859375 47.609375 132.078125 53.824219 132.078125 61.496094 Z M 132.078125 61.496094 " fill-opacity="1" fill-rule="nonzero"/></g><g clip-path="url(#0a47eb378b)"><path fill="#4120d8" d="M 63.675781 82.9375 C 63.675781 85.554688 63.359375 88.097656 62.765625 90.535156 L 23.289062 90.535156 C 15.617188 90.535156 9.398438 84.316406 9.398438 76.644531 L 9.398438 61.496094 C 9.398438 60.875 9.445312 60.261719 9.523438 59.664062 C 15.273438 54.207031 23.042969 50.859375 31.597656 50.859375 C 49.3125 50.859375 63.675781 65.222656 63.675781 82.9375 Z M 63.675781 82.9375 " fill-opacity="1" fill-rule="nonzero"/></g><path fill="#4120d8" d="M 118.292969 68.628906 C 118.292969 73.480469 114.355469 77.417969 109.503906 77.417969 C 104.648438 77.417969 100.714844 73.480469 100.714844 68.628906 C 100.714844 63.773438 104.648438 59.839844 109.503906 59.839844 C 114.355469 59.839844 118.292969 63.773438 118.292969 68.628906 Z M 118.292969 68.628906 " fill-opacity="1" fill-rule="nonzero"/><path fill="#ffffff" d="M 112.914062 68.90625 L 108.316406 73.503906 C 108.238281 73.578125 108.140625 73.617188 108.039062 73.617188 C 107.9375 73.617188 107.839844 73.578125 107.761719 73.503906 L 106.152344 71.894531 C 106 71.742188 106 71.492188 106.152344 71.339844 L 108.867188 68.628906 L 106.152344 65.914062 C 106 65.761719 106 65.515625 106.152344 65.363281 L 107.761719 63.753906 C 107.839844 63.675781 107.9375 63.640625 108.039062 63.640625 C 108.140625 63.640625 108.238281 63.675781 108.316406 63.753906 L 112.914062 68.351562 C 113.066406 68.503906 113.066406 68.75 112.914062 68.90625 Z M 33.96875 71.390625 L 27.730469 71.390625 L 27.730469 62.164062 C 27.730469 61.949219 27.554688 61.773438 27.339844 61.773438 L 23.1875 61.773438 C 22.972656 61.773438 22.796875 61.949219 22.796875 62.164062 L 22.796875 75.089844 C 22.796875 75.304688 22.972656 75.480469 23.1875 75.480469 L 33.96875 75.480469 C 34.1875 75.480469 34.359375 75.304688 34.359375 75.089844 L 34.359375 71.785156 C 34.359375 71.566406 34.1875 71.390625 33.96875 71.390625 Z M 49.203125 68.628906 C 49.203125 70.910156 48.546875 72.679688 47.257812 73.890625 C 45.972656 75.097656 44.144531 75.707031 41.824219 75.707031 C 39.5 75.707031 37.675781 75.097656 36.398438 73.902344 C 35.113281 72.695312 34.460938 70.921875 34.460938 68.628906 C 34.460938 66.332031 35.113281 64.558594 36.398438 63.355469 C 37.675781 62.15625 39.5 61.550781 41.824219 61.550781 C 44.144531 61.550781 45.972656 62.160156 47.257812 63.363281 C 48.546875 64.574219 49.203125 66.347656 49.203125 68.628906 Z M 44.175781 68.027344 C 44.175781 67.214844 43.96875 66.566406 43.566406 66.105469 C 43.171875 65.652344 42.601562 65.429688 41.824219 65.429688 C 41.046875 65.429688 40.480469 65.652344 40.089844 66.101562 C 39.691406 66.566406 39.488281 67.214844 39.488281 68.027344 L 39.488281 69.230469 C 39.488281 70.042969 39.691406 70.691406 40.089844 71.152344 C 40.480469 71.605469 41.046875 71.824219 41.824219 71.824219 C 42.601562 71.824219 43.171875 71.605469 43.566406 71.152344 C 43.96875 70.6875 44.175781 70.042969 44.175781 69.230469 Z M 93.125 61.773438 L 89.3125 61.773438 C 89.097656 61.773438 88.921875 61.949219 88.921875 62.164062 L 88.921875 67.472656 L 84.179688 61.910156 C 84.105469 61.824219 83.996094 61.773438 83.882812 61.773438 L 80.257812 61.773438 C 80.042969 61.773438 79.867188 61.949219 79.867188 62.164062 L 79.867188 75.089844 C 79.867188 75.304688 80.042969 75.480469 80.257812 75.480469 L 84.070312 75.480469 C 84.285156 75.480469 84.460938 75.304688 84.460938 75.089844 L 84.460938 69.867188 L 89.203125 75.347656 C 89.277344 75.433594 89.386719 75.480469 89.5 75.480469 L 93.125 75.480469 C 93.339844 75.480469 93.515625 75.304688 93.515625 75.089844 L 93.515625 62.164062 C 93.515625 61.949219 93.339844 61.773438 93.125 61.773438 Z M 77.289062 61.773438 L 73.136719 61.773438 C 72.921875 61.773438 72.746094 61.949219 72.746094 62.164062 L 72.746094 75.089844 C 72.746094 75.304688 72.921875 75.480469 73.136719 75.480469 L 77.289062 75.480469 C 77.503906 75.480469 77.679688 75.304688 77.679688 75.089844 L 77.679688 62.164062 C 77.679688 61.949219 77.503906 61.773438 77.289062 61.773438 Z M 55.78125 66.089844 C 56.203125 65.652344 56.851562 65.429688 57.714844 65.429688 C 58.3125 65.429688 58.808594 65.570312 59.21875 65.859375 C 59.59375 66.117188 59.765625 66.433594 59.765625 66.84375 C 59.765625 67.058594 59.941406 67.234375 60.15625 67.234375 L 64.121094 67.234375 C 64.335938 67.234375 64.511719 67.058594 64.511719 66.84375 C 64.511719 65.707031 64.191406 64.722656 63.554688 63.921875 C 62.929688 63.136719 62.082031 62.539062 61.027344 62.136719 C 60 61.746094 58.828125 61.550781 57.546875 61.550781 C 55.199219 61.550781 53.355469 62.15625 52.066406 63.351562 C 50.769531 64.558594 50.109375 66.332031 50.109375 68.628906 C 50.109375 70.9375 50.691406 72.714844 51.835938 73.90625 C 52.984375 75.101562 54.703125 75.707031 56.945312 75.707031 C 58.703125 75.707031 60.183594 75.289062 61.363281 74.460938 L 61.605469 75.210938 C 61.660156 75.371094 61.808594 75.480469 61.980469 75.480469 L 64.121094 75.480469 C 64.335938 75.480469 64.511719 75.304688 64.511719 75.089844 L 64.511719 67.875 C 64.511719 67.660156 64.335938 67.484375 64.121094 67.484375 L 57.226562 67.484375 C 57.011719 67.484375 56.835938 67.660156 56.835938 67.875 L 56.835938 70.507812 C 56.835938 70.722656 57.011719 70.898438 57.226562 70.898438 L 59.6875 70.898438 C 59.605469 71.089844 59.453125 71.257812 59.226562 71.410156 C 58.816406 71.6875 58.308594 71.824219 57.714844 71.824219 C 56.851562 71.824219 56.203125 71.601562 55.78125 71.164062 C 55.355469 70.722656 55.136719 70.070312 55.136719 69.230469 L 55.136719 68.027344 C 55.136719 67.183594 55.355469 66.53125 55.78125 66.089844 Z M 55.78125 66.089844 " fill-opacity="1" fill-rule="nonzero"/><g clip-path="url(#c734cf4cdf)"><path fill="#2d2828" d="M 118.191406 47.21875 L 23.289062 47.21875 C 16.054688 47.21875 10.0625 52.625 9.136719 59.609375 C 9.136719 59.609375 9.136719 59.609375 9.136719 59.613281 C 9.132812 59.632812 9.132812 59.648438 9.128906 59.667969 C 9.097656 59.902344 9.074219 60.132812 9.058594 60.363281 C 9.050781 60.453125 9.042969 60.539062 9.035156 60.628906 C 9.03125 60.714844 9.027344 60.804688 9.023438 60.894531 C 9.015625 61.097656 9.007812 61.296875 9.007812 61.496094 L 9.007812 76.644531 C 9.007812 80.257812 10.355469 83.554688 12.574219 86.070312 C 14.6875 90.882812 19.496094 94.257812 25.078125 94.257812 L 116.398438 94.257812 C 121.984375 94.257812 126.792969 90.882812 128.902344 86.070312 C 131.121094 83.554688 132.46875 80.257812 132.46875 76.644531 L 132.46875 61.496094 C 132.46875 53.621094 126.066406 47.21875 118.191406 47.21875 Z M 131.6875 76.644531 C 131.6875 79.230469 130.957031 81.644531 129.691406 83.699219 C 129.480469 84.046875 129.25 84.382812 129.007812 84.707031 C 128.765625 85.03125 128.507812 85.34375 128.238281 85.644531 C 125.765625 88.402344 122.179688 90.144531 118.191406 90.144531 L 63.257812 90.144531 C 63.792969 87.785156 64.066406 85.367188 64.066406 82.9375 C 64.066406 80.917969 63.878906 78.9375 63.523438 77.015625 L 64.121094 77.015625 C 64.554688 77.015625 64.902344 76.667969 64.902344 76.234375 L 64.902344 67.875 C 64.902344 67.851562 64.898438 67.828125 64.898438 67.804688 C 64.890625 67.578125 64.875 67.355469 64.84375 67.140625 C 64.882812 67.050781 64.902344 66.949219 64.902344 66.84375 C 64.902344 65.613281 64.550781 64.550781 63.859375 63.679688 C 63.191406 62.839844 62.285156 62.195312 61.167969 61.773438 C 60.09375 61.363281 58.875 61.15625 57.546875 61.15625 C 56.917969 61.15625 56.324219 61.199219 55.765625 61.285156 C 52.730469 57.898438 48.992188 55.148438 44.785156 53.273438 C 44.480469 53.136719 44.175781 53.007812 43.867188 52.878906 C 43.535156 52.746094 43.203125 52.613281 42.867188 52.488281 C 39.355469 51.183594 35.558594 50.46875 31.597656 50.46875 C 23.632812 50.46875 16.046875 53.351562 10.105469 58.601562 C 11.433594 52.546875 16.839844 48 23.289062 48 L 118.191406 48 C 125.632812 48 131.6875 54.054688 131.6875 61.496094 Z M 41.625 52.878906 C 41.996094 53.003906 42.359375 53.132812 42.722656 53.273438 C 47.394531 55.03125 51.546875 57.859375 54.871094 61.464844 C 53.652344 61.769531 52.621094 62.304688 51.800781 63.066406 C 50.417969 64.347656 49.71875 66.21875 49.71875 68.628906 C 49.71875 68.828125 49.726562 69.023438 49.734375 69.21875 C 49.722656 69.398438 49.71875 69.582031 49.71875 69.773438 C 49.71875 72.1875 50.335938 74.054688 51.554688 75.320312 C 52.777344 76.597656 54.59375 77.242188 56.945312 77.242188 C 58.574219 77.242188 59.984375 76.894531 61.148438 76.210938 L 61.234375 76.476562 C 61.339844 76.796875 61.640625 77.015625 61.980469 77.015625 L 62.726562 77.015625 C 63.089844 78.9375 63.28125 80.914062 63.28125 82.9375 C 63.28125 85.367188 63.003906 87.789062 62.457031 90.144531 L 23.289062 90.144531 C 19.300781 90.144531 15.714844 88.402344 13.238281 85.644531 C 12.96875 85.34375 12.710938 85.03125 12.46875 84.707031 C 12.226562 84.382812 12 84.046875 11.785156 83.699219 C 10.523438 81.644531 9.789062 79.230469 9.789062 76.644531 L 9.789062 61.496094 C 9.789062 61.308594 9.796875 61.117188 9.804688 60.925781 C 9.808594 60.851562 9.8125 60.78125 9.816406 60.707031 C 9.824219 60.574219 9.832031 60.441406 9.847656 60.308594 C 9.859375 60.164062 9.875 60.015625 9.890625 59.871094 C 9.894531 59.863281 9.894531 59.859375 9.894531 59.851562 C 15.792969 54.304688 23.492188 51.253906 31.597656 51.253906 C 34.640625 51.253906 37.582031 51.683594 40.371094 52.488281 C 40.792969 52.609375 41.210938 52.742188 41.625 52.878906 Z M 64.007812 65.773438 C 64.082031 66.109375 64.121094 66.464844 64.121094 66.84375 L 60.15625 66.84375 C 60.15625 66.304688 59.917969 65.871094 59.441406 65.539062 C 59.242188 65.398438 59.019531 65.289062 58.78125 65.207031 C 58.613281 65.148438 58.433594 65.105469 58.242188 65.078125 C 58.078125 65.054688 57.90625 65.039062 57.726562 65.039062 C 57.722656 65.039062 57.71875 65.039062 57.714844 65.039062 C 56.738281 65.039062 56 65.300781 55.5 65.820312 C 54.996094 66.339844 54.746094 67.074219 54.746094 68.027344 L 54.746094 69.230469 C 54.746094 69.960938 54.894531 70.5625 55.191406 71.039062 C 55.28125 71.183594 55.382812 71.316406 55.5 71.4375 C 55.59375 71.535156 55.703125 71.625 55.816406 71.703125 C 56.035156 71.859375 56.28125 71.976562 56.5625 72.0625 C 56.902344 72.164062 57.285156 72.214844 57.714844 72.214844 C 58.121094 72.214844 58.492188 72.15625 58.824219 72.042969 C 59.046875 71.964844 59.253906 71.863281 59.441406 71.738281 C 59.484375 71.710938 59.523438 71.679688 59.558594 71.652344 C 59.957031 71.34375 60.15625 70.964844 60.15625 70.507812 L 57.226562 70.507812 L 57.226562 67.875 L 64.121094 67.875 L 64.121094 75.089844 L 61.980469 75.089844 L 61.566406 73.8125 C 60.390625 74.816406 58.847656 75.316406 56.945312 75.316406 C 54.804688 75.316406 53.195312 74.753906 52.117188 73.632812 C 51.136719 72.617188 50.605469 71.144531 50.515625 69.222656 C 50.507812 69.027344 50.5 68.832031 50.5 68.628906 C 50.5 67.761719 50.597656 66.980469 50.789062 66.28125 C 51.007812 65.476562 51.351562 64.777344 51.824219 64.191406 C 51.980469 63.996094 52.148438 63.8125 52.332031 63.640625 C 53.148438 62.882812 54.195312 62.378906 55.472656 62.128906 C 55.625 62.097656 55.777344 62.070312 55.9375 62.046875 C 56.085938 62.027344 56.234375 62.011719 56.386719 61.996094 C 56.757812 61.960938 57.140625 61.941406 57.546875 61.941406 C 58.785156 61.941406 59.898438 62.128906 60.890625 62.503906 C 61.878906 62.878906 62.664062 63.433594 63.246094 64.167969 C 63.25 64.171875 63.253906 64.175781 63.257812 64.179688 C 63.625 64.648438 63.875 65.179688 64.007812 65.773438 Z M 56.445312 67.875 L 56.445312 71.175781 C 56.296875 71.097656 56.171875 71.003906 56.0625 70.894531 C 55.703125 70.523438 55.53125 69.976562 55.53125 69.230469 L 55.53125 69.171875 C 55.53125 68.421875 55.703125 67.878906 56.0625 67.507812 C 56.410156 67.144531 56.953125 66.964844 57.714844 66.964844 C 58.019531 66.964844 58.285156 67.011719 58.527344 67.09375 L 57.226562 67.09375 C 56.792969 67.09375 56.445312 67.445312 56.445312 67.875 Z M 109.503906 59.449219 C 105.355469 59.449219 101.839844 62.214844 100.707031 65.996094 C 100.207031 67.15625 99.929688 68.433594 99.929688 69.773438 C 99.929688 75.050781 104.222656 79.34375 109.503906 79.34375 C 114.78125 79.34375 119.074219 75.050781 119.074219 69.773438 C 119.074219 68.433594 118.796875 67.15625 118.296875 65.996094 C 117.164062 62.214844 113.648438 59.449219 109.503906 59.449219 Z M 109.503906 60.230469 C 112.0625 60.230469 114.359375 61.382812 115.902344 63.199219 C 116.648438 64.078125 117.21875 65.113281 117.554688 66.25 C 117.777344 67.003906 117.898438 67.800781 117.898438 68.628906 C 117.898438 73.257812 114.132812 77.027344 109.503906 77.027344 C 104.871094 77.027344 101.105469 73.257812 101.105469 68.628906 C 101.105469 67.800781 101.226562 67.003906 101.449219 66.25 C 101.785156 65.113281 102.355469 64.078125 103.101562 63.199219 C 104.644531 61.382812 106.941406 60.230469 109.503906 60.230469 Z M 105.878906 72.171875 L 107.484375 73.777344 C 107.632812 73.925781 107.832031 74.007812 108.039062 74.007812 C 108.246094 74.007812 108.445312 73.925781 108.59375 73.777344 L 113.191406 69.179688 C 113.335938 69.035156 113.417969 68.835938 113.417969 68.628906 C 113.417969 68.421875 113.335938 68.222656 113.191406 68.074219 L 108.59375 63.476562 C 108.445312 63.332031 108.246094 63.246094 108.039062 63.246094 C 107.832031 63.246094 107.632812 63.332031 107.484375 63.476562 L 105.878906 65.085938 C 105.570312 65.390625 105.570312 65.886719 105.878906 66.191406 L 108.3125 68.628906 L 105.878906 71.0625 C 105.570312 71.371094 105.570312 71.863281 105.878906 72.171875 Z M 109.417969 68.628906 L 106.429688 65.640625 L 108.039062 64.03125 L 112.636719 68.628906 L 108.039062 73.226562 L 106.429688 71.617188 Z M 93.125 61.382812 L 89.3125 61.382812 C 88.878906 61.382812 88.53125 61.734375 88.53125 62.164062 L 88.53125 66.410156 L 84.476562 61.65625 C 84.328125 61.484375 84.113281 61.382812 83.882812 61.382812 L 80.257812 61.382812 C 79.824219 61.382812 79.476562 61.734375 79.476562 62.164062 L 79.476562 76.234375 C 79.476562 76.667969 79.824219 77.015625 80.257812 77.015625 L 84.070312 77.015625 C 84.503906 77.015625 84.851562 76.667969 84.851562 76.234375 L 84.851562 72.058594 L 88.90625 76.746094 C 89.058594 76.917969 89.273438 77.015625 89.5 77.015625 L 93.125 77.015625 C 93.558594 77.015625 93.90625 76.667969 93.90625 76.234375 L 93.90625 62.164062 C 93.90625 61.734375 93.558594 61.382812 93.125 61.382812 Z M 80.257812 62.164062 L 83.882812 62.164062 L 84.296875 62.652344 L 88.921875 68.074219 L 89.3125 68.535156 L 89.3125 62.164062 L 93.125 62.164062 L 93.125 75.089844 L 89.5 75.089844 L 84.070312 68.816406 L 84.070312 75.089844 L 80.257812 75.089844 Z M 77.289062 61.382812 L 73.136719 61.382812 C 72.707031 61.382812 72.355469 61.734375 72.355469 62.164062 L 72.355469 76.234375 C 72.355469 76.667969 72.707031 77.015625 73.136719 77.015625 L 77.289062 77.015625 C 77.722656 77.015625 78.070312 76.667969 78.070312 76.234375 L 78.070312 62.164062 C 78.070312 61.734375 77.722656 61.382812 77.289062 61.382812 Z M 73.136719 62.164062 L 77.289062 62.164062 L 77.289062 75.089844 L 73.136719 75.089844 Z M 28.121094 71 L 28.121094 62.164062 C 28.121094 61.734375 27.769531 61.382812 27.339844 61.382812 L 23.1875 61.382812 C 22.753906 61.382812 22.40625 61.734375 22.40625 62.164062 L 22.40625 76.234375 C 22.40625 76.667969 22.753906 77.015625 23.1875 77.015625 L 33.96875 77.015625 C 34.402344 77.015625 34.753906 76.667969 34.753906 76.234375 L 34.753906 73.378906 C 35.089844 74.132812 35.546875 74.785156 36.128906 75.332031 C 37.484375 76.597656 39.398438 77.242188 41.824219 77.242188 C 44.246094 77.242188 46.164062 76.597656 47.523438 75.320312 C 48.898438 74.03125 49.59375 72.164062 49.59375 69.773438 C 49.59375 69.578125 49.585938 69.386719 49.578125 69.199219 C 49.585938 69.011719 49.59375 68.824219 49.59375 68.628906 C 49.59375 66.234375 48.898438 64.367188 47.523438 63.078125 C 46.164062 61.804688 44.246094 61.15625 41.824219 61.15625 C 39.398438 61.15625 37.484375 61.800781 36.128906 63.070312 C 34.761719 64.351562 34.070312 66.222656 34.070312 68.628906 C 34.070312 68.820312 34.078125 69.007812 34.085938 69.195312 C 34.078125 69.382812 34.070312 69.574219 34.070312 69.773438 C 34.070312 70.207031 34.09375 70.621094 34.140625 71.019531 C 34.085938 71.007812 34.027344 71 33.96875 71 Z M 36.175781 64.175781 C 36.324219 63.984375 36.488281 63.804688 36.664062 63.640625 C 37.875 62.507812 39.59375 61.941406 41.824219 61.941406 C 44.050781 61.941406 45.773438 62.511719 46.988281 63.648438 C 47.167969 63.816406 47.332031 63.996094 47.484375 64.1875 C 47.957031 64.777344 48.304688 65.476562 48.523438 66.285156 C 48.714844 66.984375 48.8125 67.765625 48.8125 68.628906 C 48.8125 68.824219 48.804688 69.011719 48.792969 69.199219 C 48.695312 71.097656 48.09375 72.570312 46.988281 73.605469 C 45.773438 74.746094 44.050781 75.316406 41.824219 75.316406 C 39.59375 75.316406 37.875 74.75 36.664062 73.617188 C 35.566406 72.582031 34.96875 71.109375 34.867188 69.199219 C 34.859375 69.011719 34.851562 68.824219 34.851562 68.628906 C 34.851562 67.753906 34.949219 66.96875 35.140625 66.261719 C 35.359375 65.457031 35.707031 64.761719 36.175781 64.175781 Z M 33.96875 72.144531 L 33.96875 75.089844 L 23.1875 75.089844 L 23.1875 62.164062 L 27.339844 62.164062 L 27.339844 71.785156 L 33.96875 71.785156 Z M 39.792969 71.40625 C 39.914062 71.546875 40.046875 71.667969 40.199219 71.773438 C 40.621094 72.066406 41.164062 72.214844 41.824219 72.214844 C 42.488281 72.214844 43.035156 72.066406 43.464844 71.765625 C 43.609375 71.664062 43.742188 71.542969 43.859375 71.40625 C 43.957031 71.296875 44.042969 71.175781 44.117188 71.050781 C 44.414062 70.5625 44.566406 69.957031 44.566406 69.230469 L 44.566406 68.027344 C 44.566406 67.113281 44.332031 66.386719 43.859375 65.847656 C 43.390625 65.308594 42.710938 65.039062 41.824219 65.039062 C 40.933594 65.039062 40.257812 65.308594 39.792969 65.847656 C 39.328125 66.386719 39.097656 67.113281 39.097656 68.027344 L 39.097656 69.230469 C 39.097656 69.960938 39.25 70.570312 39.546875 71.0625 C 39.621094 71.183594 39.703125 71.300781 39.792969 71.40625 Z M 41.824219 71.433594 C 41.167969 71.433594 40.695312 71.257812 40.386719 70.898438 C 40.046875 70.503906 39.882812 69.957031 39.882812 69.230469 L 39.882812 69.171875 C 39.882812 68.441406 40.046875 67.898438 40.386719 67.503906 C 40.695312 67.140625 41.167969 66.964844 41.824219 66.964844 C 42.480469 66.964844 42.953125 67.144531 43.269531 67.507812 C 43.617188 67.902344 43.78125 68.445312 43.78125 69.171875 L 43.78125 69.230469 C 43.78125 69.953125 43.617188 70.5 43.269531 70.894531 C 42.953125 71.257812 42.480469 71.433594 41.824219 71.433594 Z M 41.824219 71.433594 " fill-opacity="1" fill-rule="nonzero"/></g></svg>