<svg xmlns="http://www.w3.org/2000/svg" xmlns:xlink="http://www.w3.org/1999/xlink" width="188" zoomAndPan="magnify" viewBox="0 0 141.12 141.750002" height="188" preserveAspectRatio="xMidYMid meet" version="1.0"><defs><clipPath id="3f69ee7e6a"><path d="M 35 64.09375 L 105 64.09375 L 105 85 L 35 85 Z M 35 64.09375 " clip-rule="nonzero"/></clipPath><clipPath id="767053434d"><path d="M 34.976562 64.09375 L 105.421875 64.09375 L 105.421875 86.335938 L 34.976562 86.335938 Z M 34.976562 64.09375 " clip-rule="nonzero"/></clipPath></defs><g clip-path="url(#3f69ee7e6a)"><path fill="#000000" d="M 104.960938 70.835938 L 104.960938 77.972656 C 104.960938 81.585938 102.03125 84.511719 98.421875 84.511719 L 41.703125 84.511719 C 38.089844 84.511719 35.160156 81.585938 35.160156 77.972656 L 35.160156 70.835938 C 35.160156 67.226562 38.089844 64.296875 41.703125 64.296875 L 98.421875 64.296875 C 102.03125 64.296875 104.960938 67.226562 104.960938 70.835938 Z M 104.960938 70.835938 " fill-opacity="1" fill-rule="nonzero"/></g><path fill="#ffde17" d="M 104.960938 70.835938 L 104.960938 77.972656 C 104.960938 81.585938 102.03125 84.511719 98.421875 84.511719 L 79.828125 84.511719 C 79.546875 83.367188 79.398438 82.167969 79.398438 80.9375 C 79.398438 72.59375 86.164062 65.828125 94.507812 65.828125 C 98.535156 65.828125 102.195312 67.40625 104.902344 69.972656 C 104.941406 70.257812 104.960938 70.542969 104.960938 70.835938 Z M 104.960938 70.835938 " fill-opacity="1" fill-rule="nonzero"/><path fill="#000000" d="M 99.109375 74.195312 C 99.109375 76.480469 97.257812 78.335938 94.972656 78.335938 C 92.683594 78.335938 90.832031 76.480469 90.832031 74.195312 C 90.832031 71.910156 92.683594 70.054688 94.972656 70.054688 C 97.257812 70.054688 99.109375 71.910156 99.109375 74.195312 Z M 99.109375 74.195312 " fill-opacity="1" fill-rule="nonzero"/><path fill="#f5f1e1" d="M 96.546875 75.472656 C 96.621094 75.546875 96.621094 75.660156 96.546875 75.734375 L 95.789062 76.492188 C 95.753906 76.527344 95.707031 76.546875 95.660156 76.546875 C 95.613281 76.546875 95.566406 76.527344 95.53125 76.492188 L 93.363281 74.324219 C 93.292969 74.253906 93.292969 74.136719 93.363281 74.066406 L 95.53125 71.898438 C 95.566406 71.863281 95.613281 71.847656 95.660156 71.847656 C 95.707031 71.847656 95.753906 71.863281 95.789062 71.898438 L 96.546875 72.65625 C 96.621094 72.730469 96.621094 72.847656 96.546875 72.917969 L 95.269531 74.195312 Z M 55.335938 74.195312 C 55.335938 75.269531 55.027344 76.105469 54.421875 76.675781 C 53.816406 77.242188 52.953125 77.53125 51.863281 77.53125 C 50.769531 77.53125 49.910156 77.242188 49.308594 76.679688 C 48.703125 76.113281 48.394531 75.277344 48.394531 74.195312 C 48.394531 73.117188 48.703125 72.28125 49.308594 71.710938 C 49.910156 71.148438 50.769531 70.863281 51.863281 70.863281 C 52.953125 70.863281 53.816406 71.148438 54.421875 71.71875 C 55.027344 72.289062 55.335938 73.121094 55.335938 74.195312 Z M 52.96875 73.914062 C 52.96875 73.53125 52.871094 73.226562 52.683594 73.007812 C 52.496094 72.792969 52.226562 72.691406 51.863281 72.691406 C 51.496094 72.691406 51.230469 72.792969 51.046875 73.007812 C 50.859375 73.222656 50.761719 73.53125 50.761719 73.914062 L 50.761719 74.480469 C 50.761719 74.863281 50.859375 75.167969 51.046875 75.386719 C 51.230469 75.597656 51.496094 75.703125 51.863281 75.703125 C 52.226562 75.703125 52.496094 75.597656 52.683594 75.382812 C 52.871094 75.167969 52.96875 74.863281 52.96875 74.480469 Z M 79.984375 71.070312 L 78.097656 71.070312 C 77.996094 71.070312 77.914062 71.152344 77.914062 71.253906 L 77.914062 74.734375 C 77.914062 75.015625 77.84375 75.234375 77.691406 75.398438 C 77.550781 75.558594 77.339844 75.636719 77.058594 75.636719 C 76.773438 75.636719 76.566406 75.558594 76.425781 75.402344 C 76.28125 75.238281 76.207031 75.023438 76.207031 74.734375 L 76.207031 71.253906 C 76.207031 71.152344 76.125 71.070312 76.023438 71.070312 L 74.136719 71.070312 C 74.035156 71.070312 73.953125 71.152344 73.953125 71.253906 L 73.953125 74.761719 C 73.953125 75.617188 74.234375 76.285156 74.785156 76.738281 C 75.324219 77.1875 76.09375 77.414062 77.066406 77.414062 C 78.039062 77.414062 78.804688 77.1875 79.34375 76.738281 C 79.890625 76.285156 80.167969 75.617188 80.167969 74.761719 L 80.167969 71.253906 C 80.167969 71.152344 80.085938 71.070312 79.984375 71.070312 Z M 48.164062 75.496094 L 45.226562 75.496094 L 45.226562 71.152344 C 45.226562 71.050781 45.140625 70.96875 45.039062 70.96875 L 43.085938 70.96875 C 42.984375 70.96875 42.902344 71.050781 42.902344 71.152344 L 42.902344 77.238281 C 42.902344 77.339844 42.984375 77.421875 43.085938 77.421875 L 48.164062 77.421875 C 48.265625 77.421875 48.347656 77.339844 48.347656 77.238281 L 48.347656 75.683594 C 48.347656 75.582031 48.265625 75.496094 48.164062 75.496094 Z M 73.304688 74.191406 C 73.304688 75.230469 73.007812 76.035156 72.417969 76.585938 C 71.835938 77.136719 71.003906 77.414062 69.945312 77.414062 C 68.890625 77.414062 68.058594 77.136719 67.476562 76.589844 C 66.890625 76.042969 66.59375 75.234375 66.59375 74.191406 C 66.59375 73.144531 66.890625 72.339844 67.476562 71.789062 C 68.058594 71.242188 68.890625 70.964844 69.945312 70.964844 C 71.003906 70.964844 71.835938 71.246094 72.417969 71.792969 C 73.007812 72.34375 73.304688 73.152344 73.304688 74.191406 Z M 71.007812 73.917969 C 71.007812 73.550781 70.914062 73.257812 70.734375 73.046875 C 70.554688 72.84375 70.296875 72.742188 69.945312 72.742188 C 69.59375 72.742188 69.339844 72.84375 69.164062 73.046875 C 68.984375 73.253906 68.890625 73.546875 68.890625 73.917969 L 68.890625 74.464844 C 68.890625 74.832031 68.984375 75.125 69.164062 75.332031 C 69.339844 75.535156 69.59375 75.636719 69.945312 75.636719 C 70.296875 75.636719 70.554688 75.535156 70.734375 75.332031 C 70.914062 75.125 71.007812 74.832031 71.007812 74.464844 Z M 58.433594 73 C 58.632812 72.792969 58.941406 72.691406 59.347656 72.691406 C 59.628906 72.691406 59.859375 72.757812 60.054688 72.890625 C 60.230469 73.015625 60.3125 73.160156 60.3125 73.355469 C 60.3125 73.457031 60.394531 73.539062 60.496094 73.539062 L 62.363281 73.539062 C 62.464844 73.539062 62.546875 73.457031 62.546875 73.355469 C 62.546875 72.820312 62.394531 72.355469 62.097656 71.980469 C 61.800781 71.609375 61.402344 71.328125 60.90625 71.140625 C 60.421875 70.957031 59.871094 70.863281 59.265625 70.863281 C 58.160156 70.863281 57.292969 71.148438 56.6875 71.710938 C 56.074219 72.28125 55.765625 73.113281 55.765625 74.195312 C 55.765625 75.285156 56.039062 76.121094 56.578125 76.679688 C 57.117188 77.242188 57.925781 77.53125 58.984375 77.53125 C 59.8125 77.53125 60.507812 77.332031 61.066406 76.945312 L 61.179688 77.296875 C 61.203125 77.371094 61.273438 77.421875 61.355469 77.421875 L 62.363281 77.421875 C 62.464844 77.421875 62.546875 77.339844 62.546875 77.238281 L 62.546875 73.84375 C 62.546875 73.738281 62.464844 73.65625 62.363281 73.65625 L 59.117188 73.65625 C 59.015625 73.65625 58.933594 73.738281 58.933594 73.84375 L 58.933594 75.082031 C 58.933594 75.183594 59.015625 75.265625 59.117188 75.265625 L 60.277344 75.265625 C 60.238281 75.355469 60.164062 75.433594 60.058594 75.507812 C 59.867188 75.636719 59.625 75.703125 59.347656 75.703125 C 58.941406 75.703125 58.632812 75.597656 58.433594 75.390625 C 58.234375 75.183594 58.132812 74.875 58.132812 74.480469 L 58.132812 73.914062 C 58.132812 73.515625 58.234375 73.210938 58.433594 73 Z M 86.550781 71.070312 L 80.8125 71.070312 C 80.710938 71.070312 80.628906 71.152344 80.628906 71.253906 L 80.628906 72.753906 C 80.628906 72.859375 80.710938 72.941406 80.8125 72.941406 L 82.558594 72.941406 L 82.558594 77.125 C 82.558594 77.226562 82.640625 77.3125 82.742188 77.3125 L 84.628906 77.3125 C 84.730469 77.3125 84.8125 77.226562 84.8125 77.125 L 84.8125 72.941406 L 86.550781 72.941406 C 86.652344 72.941406 86.734375 72.859375 86.734375 72.753906 L 86.734375 71.253906 C 86.734375 71.152344 86.652344 71.070312 86.550781 71.070312 Z M 86.550781 71.070312 " fill-opacity="1" fill-rule="nonzero"/><g clip-path="url(#767053434d)"><path fill="#2d2828" d="M 105.136719 70.554688 C 105.136719 70.511719 105.132812 70.46875 105.132812 70.429688 C 105.128906 70.386719 105.125 70.34375 105.121094 70.304688 C 105.113281 70.195312 105.101562 70.085938 105.089844 69.976562 C 105.085938 69.96875 105.085938 69.957031 105.085938 69.949219 C 104.648438 66.660156 101.828125 64.113281 98.421875 64.113281 L 41.703125 64.113281 C 37.996094 64.113281 34.976562 67.128906 34.976562 70.835938 L 34.976562 77.972656 C 34.976562 79.671875 35.613281 81.226562 36.65625 82.410156 C 37.652344 84.675781 39.917969 86.265625 42.546875 86.265625 L 97.578125 86.265625 C 100.207031 86.265625 102.472656 84.675781 103.464844 82.410156 C 104.507812 81.226562 105.144531 79.671875 105.144531 77.972656 L 105.144531 70.835938 C 105.144531 70.742188 105.140625 70.648438 105.136719 70.554688 Z M 35.347656 77.972656 L 35.347656 70.835938 C 35.347656 67.332031 38.199219 64.480469 41.703125 64.480469 L 98.421875 64.480469 C 101.457031 64.480469 104.003906 66.621094 104.628906 69.472656 C 101.832031 67 98.257812 65.644531 94.507812 65.644531 C 92.640625 65.644531 90.851562 65.980469 89.199219 66.59375 C 89.039062 66.652344 88.882812 66.714844 88.726562 66.78125 C 88.582031 66.839844 88.4375 66.898438 88.296875 66.964844 C 86.253906 67.875 84.445312 69.222656 82.992188 70.882812 L 80.8125 70.882812 C 80.609375 70.882812 80.445312 71.050781 80.445312 71.253906 L 80.445312 73.46875 C 80.445312 73.671875 80.609375 73.835938 80.8125 73.835938 L 80.96875 73.835938 C 80.742188 74.261719 80.539062 74.699219 80.355469 75.148438 L 80.355469 71.253906 C 80.355469 71.050781 80.1875 70.882812 79.984375 70.882812 L 78.097656 70.882812 C 77.894531 70.882812 77.730469 71.050781 77.730469 71.253906 L 77.730469 74.734375 C 77.730469 74.96875 77.671875 75.144531 77.554688 75.273438 C 77.449219 75.394531 77.285156 75.453125 77.058594 75.453125 C 76.828125 75.453125 76.667969 75.394531 76.5625 75.28125 C 76.449219 75.152344 76.394531 74.972656 76.394531 74.734375 L 76.394531 71.253906 C 76.394531 71.050781 76.226562 70.882812 76.023438 70.882812 L 74.136719 70.882812 C 73.933594 70.882812 73.769531 71.050781 73.769531 71.253906 L 73.769531 75.472656 C 73.769531 76.386719 74.070312 77.101562 74.667969 77.59375 C 75.242188 78.070312 76.046875 78.308594 77.066406 78.308594 C 78.082031 78.308594 78.890625 78.070312 79.460938 77.59375 C 79.515625 77.546875 79.566406 77.5 79.617188 77.449219 C 79.355469 78.570312 79.214844 79.738281 79.214844 80.9375 C 79.214844 82.078125 79.34375 83.21875 79.597656 84.328125 L 41.703125 84.328125 C 39.824219 84.328125 38.136719 83.507812 36.96875 82.210938 C 36.84375 82.070312 36.722656 81.921875 36.609375 81.769531 C 36.492188 81.617188 36.386719 81.457031 36.285156 81.292969 C 35.691406 80.328125 35.347656 79.1875 35.347656 77.972656 Z M 76.023438 71.597656 L 76.023438 74.734375 C 76.023438 75.011719 76.085938 75.238281 76.207031 75.421875 C 76.234375 75.457031 76.257812 75.492188 76.289062 75.527344 C 76.324219 75.566406 76.363281 75.601562 76.40625 75.632812 C 76.574219 75.757812 76.789062 75.820312 77.058594 75.820312 C 77.328125 75.820312 77.546875 75.753906 77.714844 75.625 C 77.757812 75.59375 77.796875 75.558594 77.828125 75.523438 C 77.859375 75.488281 77.886719 75.449219 77.914062 75.410156 C 78.035156 75.230469 78.097656 75.003906 78.097656 74.734375 L 78.097656 71.253906 L 79.984375 71.253906 L 79.984375 74.761719 C 79.984375 75.5625 79.730469 76.175781 79.226562 76.597656 C 78.71875 77.019531 78 77.230469 77.066406 77.230469 C 76.132812 77.230469 75.410156 77.019531 74.902344 76.597656 C 74.390625 76.175781 74.136719 75.5625 74.136719 74.761719 L 74.136719 71.253906 L 76.023438 71.253906 Z M 86.550781 71.597656 L 86.550781 72.753906 L 84.628906 72.753906 L 84.628906 77.125 L 82.742188 77.125 L 82.742188 72.753906 L 80.8125 72.753906 L 80.8125 71.253906 L 86.550781 71.253906 Z M 103.152344 82.210938 C 101.988281 83.507812 100.296875 84.328125 98.421875 84.328125 L 79.972656 84.328125 C 79.714844 83.21875 79.585938 82.078125 79.585938 80.9375 C 79.585938 78.367188 80.238281 75.949219 81.382812 73.835938 L 82.375 73.835938 L 82.375 77.839844 C 82.375 78.042969 82.539062 78.207031 82.742188 78.207031 L 84.628906 78.207031 C 84.832031 78.207031 84.996094 78.042969 84.996094 77.839844 L 84.996094 73.835938 L 86.550781 73.835938 C 86.753906 73.835938 86.917969 73.671875 86.917969 73.46875 L 86.917969 71.253906 C 86.917969 71.050781 86.753906 70.882812 86.550781 70.882812 L 83.488281 70.882812 C 85.0625 69.15625 87.039062 67.800781 89.265625 66.964844 C 89.4375 66.898438 89.609375 66.835938 89.785156 66.78125 C 89.980469 66.714844 90.175781 66.652344 90.375 66.59375 C 91.6875 66.214844 93.074219 66.011719 94.507812 66.011719 C 96.230469 66.011719 97.914062 66.308594 99.5 66.871094 C 100.253906 67.136719 100.980469 67.460938 101.679688 67.847656 C 102.773438 68.449219 103.800781 69.1875 104.726562 70.0625 C 104.726562 70.066406 104.726562 70.070312 104.730469 70.070312 C 104.738281 70.140625 104.746094 70.210938 104.75 70.277344 C 104.757812 70.339844 104.761719 70.402344 104.765625 70.464844 C 104.765625 70.5 104.769531 70.535156 104.769531 70.570312 C 104.773438 70.660156 104.777344 70.75 104.777344 70.835938 L 104.777344 77.972656 C 104.777344 79.1875 104.433594 80.328125 103.835938 81.292969 C 103.734375 81.457031 103.628906 81.617188 103.515625 81.769531 C 103.402344 81.921875 103.277344 82.070312 103.152344 82.210938 Z M 43.085938 78.320312 L 48.164062 78.320312 C 48.367188 78.320312 48.53125 78.15625 48.53125 77.953125 L 48.53125 76.605469 C 48.691406 76.960938 48.90625 77.269531 49.179688 77.527344 C 49.816406 78.121094 50.71875 78.425781 51.863281 78.425781 C 53.003906 78.425781 53.90625 78.121094 54.546875 77.519531 C 55.191406 76.914062 55.519531 76.035156 55.519531 74.90625 C 55.519531 74.785156 55.515625 74.667969 55.507812 74.550781 C 55.515625 74.4375 55.519531 74.316406 55.519531 74.195312 C 55.519531 73.070312 55.191406 72.1875 54.546875 71.582031 C 53.90625 70.980469 53.003906 70.675781 51.863281 70.675781 C 50.71875 70.675781 49.816406 70.980469 49.179688 71.578125 C 48.539062 72.183594 48.210938 73.0625 48.210938 74.195312 C 48.210938 74.316406 48.214844 74.433594 48.222656 74.550781 C 48.214844 74.667969 48.210938 74.785156 48.210938 74.90625 C 48.210938 75.050781 48.21875 75.1875 48.226562 75.320312 C 48.207031 75.316406 48.183594 75.3125 48.164062 75.3125 L 45.410156 75.3125 L 45.410156 71.152344 C 45.410156 70.949219 45.242188 70.785156 45.039062 70.785156 L 43.085938 70.785156 C 42.882812 70.785156 42.714844 70.949219 42.714844 71.152344 L 42.714844 77.953125 C 42.714844 78.15625 42.882812 78.320312 43.085938 78.320312 Z M 43.085938 71.152344 L 45.039062 71.152344 L 45.039062 75.683594 L 48.164062 75.683594 L 48.164062 77.238281 L 43.085938 77.238281 Z M 48.878906 72.625 C 49.015625 72.324219 49.203125 72.0625 49.433594 71.847656 C 50.003906 71.3125 50.8125 71.046875 51.863281 71.046875 C 52.910156 71.046875 53.722656 71.316406 54.292969 71.851562 C 54.527344 72.070312 54.714844 72.332031 54.851562 72.632812 C 54.964844 72.878906 55.046875 73.152344 55.09375 73.449219 C 55.132812 73.683594 55.152344 73.929688 55.152344 74.195312 C 55.152344 74.316406 55.148438 74.4375 55.140625 74.550781 C 55.082031 75.40625 54.796875 76.066406 54.292969 76.539062 C 53.722656 77.078125 52.910156 77.34375 51.863281 77.34375 C 50.8125 77.34375 50.003906 77.078125 49.433594 76.542969 C 48.929688 76.074219 48.652344 75.410156 48.589844 74.550781 C 48.582031 74.4375 48.578125 74.316406 48.578125 74.195312 C 48.578125 73.925781 48.597656 73.675781 48.636719 73.4375 C 48.6875 73.140625 48.769531 72.867188 48.878906 72.625 Z M 56.445312 77.519531 C 57.019531 78.121094 57.875 78.425781 58.984375 78.425781 C 59.75 78.425781 60.414062 78.261719 60.964844 77.941406 L 61.003906 78.066406 C 61.054688 78.214844 61.195312 78.320312 61.355469 78.320312 L 62.363281 78.320312 C 62.566406 78.320312 62.730469 78.15625 62.730469 77.953125 L 62.730469 73.84375 C 62.730469 73.796875 62.722656 73.753906 62.707031 73.710938 C 62.699219 73.65625 62.691406 73.597656 62.679688 73.542969 C 62.710938 73.488281 62.730469 73.421875 62.730469 73.355469 C 62.730469 72.777344 62.566406 72.277344 62.238281 71.863281 C 61.925781 71.46875 61.5 71.167969 60.972656 70.96875 C 60.464844 70.773438 59.894531 70.675781 59.265625 70.675781 C 58.113281 70.675781 57.203125 70.980469 56.5625 71.578125 C 55.910156 72.179688 55.582031 73.0625 55.582031 74.195312 C 55.582031 74.324219 55.585938 74.445312 55.589844 74.566406 C 55.585938 74.675781 55.582031 74.789062 55.582031 74.90625 C 55.582031 76.046875 55.871094 76.925781 56.445312 77.519531 Z M 56.25 72.632812 C 56.386719 72.328125 56.574219 72.066406 56.8125 71.847656 C 57.386719 71.3125 58.203125 71.046875 59.265625 71.046875 C 59.851562 71.046875 60.375 71.132812 60.839844 71.3125 C 61.308594 71.488281 61.675781 71.75 61.953125 72.09375 C 62.0625 72.234375 62.148438 72.386719 62.214844 72.546875 C 62.285156 72.722656 62.328125 72.90625 62.347656 73.109375 C 62.359375 73.1875 62.363281 73.269531 62.363281 73.355469 L 60.496094 73.355469 C 60.496094 73.101562 60.382812 72.898438 60.160156 72.742188 C 59.9375 72.585938 59.664062 72.507812 59.347656 72.507812 C 58.886719 72.507812 58.539062 72.628906 58.300781 72.875 C 58.066406 73.117188 57.949219 73.464844 57.949219 73.914062 L 57.949219 74.480469 C 57.949219 74.503906 57.949219 74.527344 57.949219 74.550781 C 57.960938 74.84375 58.019531 75.09375 58.136719 75.292969 C 58.183594 75.375 58.238281 75.453125 58.300781 75.519531 C 58.320312 75.535156 58.339844 75.550781 58.359375 75.570312 C 58.46875 75.667969 58.597656 75.742188 58.746094 75.796875 C 58.808594 75.816406 58.875 75.832031 58.941406 75.847656 C 59.066406 75.871094 59.199219 75.886719 59.347656 75.886719 C 59.550781 75.886719 59.734375 75.855469 59.898438 75.792969 C 59.992188 75.757812 60.078125 75.714844 60.160156 75.660156 C 60.382812 75.507812 60.496094 75.316406 60.496094 75.082031 L 59.117188 75.082031 L 59.117188 73.84375 L 62.363281 73.84375 L 62.363281 77.238281 L 61.355469 77.238281 L 61.160156 76.636719 C 60.605469 77.109375 59.878906 77.34375 58.984375 77.34375 C 57.976562 77.34375 57.21875 77.082031 56.710938 76.554688 C 56.265625 76.089844 56.015625 75.429688 55.960938 74.566406 C 55.953125 74.449219 55.949219 74.324219 55.949219 74.195312 C 55.949219 73.929688 55.96875 73.679688 56.007812 73.449219 C 56.054688 73.148438 56.136719 72.878906 56.25 72.632812 Z M 58.746094 73.84375 L 58.746094 75.394531 C 58.679688 75.359375 58.617188 75.316406 58.566406 75.261719 C 58.410156 75.101562 58.328125 74.867188 58.320312 74.550781 C 58.328125 74.238281 58.410156 74.003906 58.566406 73.839844 C 58.625 73.78125 58.699219 73.730469 58.78125 73.691406 C 58.761719 73.738281 58.746094 73.789062 58.746094 73.84375 Z M 67.351562 77.4375 C 67.96875 78.015625 68.839844 78.308594 69.945312 78.308594 C 71.050781 78.308594 71.925781 78.015625 72.546875 77.433594 C 73.171875 76.84375 73.492188 75.992188 73.492188 74.902344 C 73.492188 74.78125 73.484375 74.660156 73.476562 74.546875 C 73.484375 74.429688 73.492188 74.3125 73.492188 74.191406 C 73.492188 73.097656 73.171875 72.246094 72.546875 71.660156 C 71.925781 71.078125 71.050781 70.78125 69.945312 70.78125 C 68.839844 70.78125 67.96875 71.074219 67.351562 71.65625 C 66.726562 72.238281 66.410156 73.09375 66.410156 74.191406 C 66.410156 74.3125 66.414062 74.429688 66.421875 74.546875 C 66.414062 74.660156 66.410156 74.78125 66.410156 74.902344 C 66.410156 76 66.726562 76.851562 67.351562 77.4375 Z M 67.066406 72.683594 C 67.199219 72.390625 67.375 72.136719 67.601562 71.921875 C 68.152344 71.410156 68.933594 71.152344 69.945312 71.152344 C 70.960938 71.152344 71.742188 71.410156 72.292969 71.925781 C 72.523438 72.140625 72.703125 72.398438 72.835938 72.691406 C 72.945312 72.929688 73.023438 73.195312 73.070312 73.484375 C 73.105469 73.703125 73.121094 73.941406 73.121094 74.191406 C 73.121094 74.3125 73.117188 74.429688 73.109375 74.546875 C 73.050781 75.363281 72.777344 76 72.292969 76.453125 C 71.742188 76.96875 70.960938 77.230469 69.945312 77.230469 C 68.933594 77.230469 68.152344 76.972656 67.601562 76.457031 C 67.121094 76.003906 66.851562 75.367188 66.792969 74.546875 C 66.78125 74.429688 66.777344 74.3125 66.777344 74.191406 C 66.777344 73.933594 66.796875 73.695312 66.832031 73.472656 C 66.878906 73.183594 66.957031 72.921875 67.066406 72.683594 Z M 94.972656 69.871094 C 92.855469 69.871094 91.09375 71.398438 90.722656 73.410156 C 90.554688 73.878906 90.464844 74.382812 90.464844 74.90625 C 90.464844 77.394531 92.484375 79.414062 94.972656 79.414062 C 97.457031 79.414062 99.480469 77.394531 99.480469 74.90625 C 99.480469 74.382812 99.386719 73.878906 99.222656 73.410156 C 98.851562 71.398438 97.085938 69.871094 94.972656 69.871094 Z M 92.3125 71.273438 C 93.011719 70.632812 93.949219 70.242188 94.972656 70.242188 C 95.996094 70.242188 96.929688 70.632812 97.632812 71.273438 C 97.988281 71.597656 98.285156 71.984375 98.503906 72.417969 C 98.671875 72.753906 98.792969 73.113281 98.863281 73.496094 C 98.902344 73.722656 98.925781 73.957031 98.925781 74.195312 C 98.925781 76.375 97.152344 78.152344 94.972656 78.152344 C 92.789062 78.152344 91.015625 76.375 91.015625 74.195312 C 91.015625 73.957031 91.039062 73.722656 91.078125 73.496094 C 91.148438 73.113281 91.269531 72.753906 91.441406 72.417969 C 91.660156 71.984375 91.953125 71.597656 92.3125 71.273438 Z M 93.992188 75.214844 L 95.398438 76.621094 C 95.46875 76.691406 95.5625 76.730469 95.660156 76.730469 C 95.757812 76.730469 95.851562 76.691406 95.921875 76.621094 L 96.679688 75.863281 C 96.824219 75.71875 96.824219 75.488281 96.679688 75.34375 L 95.53125 74.195312 L 96.679688 73.046875 C 96.824219 72.90625 96.824219 72.671875 96.679688 72.527344 L 95.921875 71.769531 C 95.851562 71.699219 95.757812 71.660156 95.660156 71.660156 C 95.5625 71.660156 95.46875 71.699219 95.398438 71.769531 L 93.234375 73.933594 C 93.164062 74.003906 93.125 74.097656 93.125 74.195312 C 93.125 74.292969 93.164062 74.386719 93.234375 74.457031 Z M 94.253906 73.4375 L 95.660156 72.03125 L 96.417969 72.789062 L 95.011719 74.195312 L 96.417969 75.601562 L 95.660156 76.359375 L 93.496094 74.195312 Z M 68.894531 75.269531 C 68.933594 75.335938 68.976562 75.398438 69.023438 75.453125 C 69.054688 75.488281 69.085938 75.519531 69.117188 75.546875 C 69.324219 75.730469 69.597656 75.820312 69.945312 75.820312 C 70.296875 75.820312 70.574219 75.726562 70.785156 75.542969 C 70.816406 75.515625 70.84375 75.484375 70.871094 75.453125 C 70.921875 75.394531 70.96875 75.332031 71.003906 75.265625 C 71.117188 75.066406 71.179688 74.828125 71.191406 74.546875 C 71.191406 74.519531 71.191406 74.492188 71.191406 74.464844 L 71.191406 73.917969 C 71.191406 73.5 71.085938 73.171875 70.871094 72.925781 C 70.660156 72.683594 70.351562 72.558594 69.945312 72.558594 C 69.542969 72.558594 69.234375 72.683594 69.023438 72.925781 C 68.8125 73.171875 68.707031 73.5 68.707031 73.917969 L 68.707031 74.464844 C 68.707031 74.492188 68.710938 74.519531 68.710938 74.546875 C 68.722656 74.828125 68.78125 75.070312 68.894531 75.269531 Z M 69.945312 75.453125 C 69.652344 75.453125 69.441406 75.375 69.304688 75.214844 C 69.164062 75.050781 69.089844 74.832031 69.078125 74.546875 C 69.089844 74.261719 69.164062 74.039062 69.304688 73.878906 C 69.441406 73.71875 69.652344 73.640625 69.945312 73.640625 C 70.242188 73.640625 70.453125 73.71875 70.59375 73.878906 C 70.734375 74.042969 70.808594 74.261719 70.820312 74.546875 C 70.808594 74.832031 70.734375 75.050781 70.59375 75.210938 C 70.453125 75.375 70.242188 75.453125 69.945312 75.453125 Z M 50.765625 75.304688 C 50.808594 75.375 50.851562 75.445312 50.90625 75.503906 C 50.933594 75.539062 50.964844 75.566406 50.996094 75.59375 C 51.207031 75.789062 51.496094 75.886719 51.863281 75.886719 C 52.230469 75.886719 52.523438 75.785156 52.738281 75.589844 C 52.765625 75.5625 52.796875 75.535156 52.820312 75.503906 C 52.875 75.441406 52.925781 75.375 52.964844 75.300781 C 53.082031 75.09375 53.140625 74.84375 53.152344 74.550781 C 53.152344 74.527344 53.152344 74.503906 53.152344 74.480469 L 53.152344 73.914062 C 53.152344 73.480469 53.042969 73.140625 52.820312 72.886719 C 52.601562 72.632812 52.28125 72.507812 51.863281 72.507812 C 51.441406 72.507812 51.125 72.632812 50.90625 72.886719 C 50.6875 73.140625 50.578125 73.480469 50.578125 73.914062 L 50.578125 74.480469 C 50.578125 74.503906 50.582031 74.527344 50.582031 74.550781 C 50.589844 74.84375 50.652344 75.097656 50.765625 75.304688 Z M 51.863281 75.515625 C 51.550781 75.515625 51.332031 75.433594 51.183594 75.265625 C 51.035156 75.09375 50.960938 74.859375 50.949219 74.550781 C 50.960938 74.246094 51.035156 74.011719 51.183594 73.839844 C 51.332031 73.667969 51.550781 73.585938 51.863281 73.585938 C 52.171875 73.585938 52.394531 73.667969 52.542969 73.839844 C 52.695312 74.011719 52.773438 74.246094 52.78125 74.550781 C 52.773438 74.855469 52.695312 75.089844 52.542969 75.261719 C 52.394531 75.433594 52.171875 75.515625 51.863281 75.515625 Z M 51.863281 75.515625 " fill-opacity="1" fill-rule="nonzero"/></g></svg>