<svg xmlns="http://www.w3.org/2000/svg" xmlns:xlink="http://www.w3.org/1999/xlink" width="188" zoomAndPan="magnify" viewBox="0 0 141.12 141.750002" height="188" preserveAspectRatio="xMidYMid meet" version="1.0"><defs><clipPath id="65fb5b5b82"><path d="M 40.035156 63 L 62 63 L 62 86 L 40.035156 86 Z M 40.035156 63 " clip-rule="nonzero"/></clipPath><clipPath id="aaa00ff38f"><path d="M 43 45 L 100.097656 45 L 100.097656 96 L 43 96 Z M 43 45 " clip-rule="nonzero"/></clipPath></defs><g clip-path="url(#65fb5b5b82)"><path fill="#ffffff" d="M 57.890625 80.742188 C 58.078125 80.929688 58.308594 81.023438 58.574219 81.023438 C 58.675781 81.039062 58.78125 81.039062 58.886719 81.023438 C 59.0625 80.960938 59.207031 80.851562 59.320312 80.699219 C 59.433594 80.550781 59.496094 80.378906 59.511719 80.191406 L 61.828125 64.625 C 61.847656 64.484375 61.832031 64.34375 61.792969 64.207031 C 61.75 64.074219 61.683594 63.949219 61.589844 63.84375 C 61.496094 63.734375 61.382812 63.652344 61.253906 63.589844 C 61.125 63.53125 60.992188 63.5 60.847656 63.496094 L 60.714844 63.496094 L 45.179688 65.8125 C 44.777344 65.875 44.515625 66.097656 44.390625 66.484375 C 44.261719 66.863281 44.339844 67.195312 44.628906 67.480469 L 47.320312 70.171875 L 40.464844 77.007812 C 40.273438 77.199219 40.179688 77.429688 40.179688 77.699219 C 40.179688 77.96875 40.273438 78.199219 40.464844 78.390625 L 46.960938 84.890625 C 47.054688 84.984375 47.160156 85.058594 47.28125 85.109375 C 47.402344 85.160156 47.527344 85.1875 47.660156 85.1875 C 47.792969 85.1875 47.917969 85.160156 48.039062 85.109375 C 48.164062 85.058594 48.269531 84.984375 48.359375 84.890625 L 55.199219 78.109375 Z M 49.386719 70.855469 C 49.480469 70.761719 49.550781 70.65625 49.601562 70.539062 C 49.652344 70.417969 49.675781 70.292969 49.675781 70.164062 C 49.675781 70.03125 49.652344 69.90625 49.601562 69.789062 C 49.550781 69.667969 49.480469 69.5625 49.386719 69.472656 L 47.394531 67.464844 L 59.71875 65.636719 L 57.890625 77.976562 L 55.898438 75.96875 C 55.703125 75.78125 55.46875 75.6875 55.199219 75.6875 C 54.929688 75.6875 54.695312 75.78125 54.5 75.96875 L 47.617188 82.824219 L 42.546875 77.707031 Z M 60.878906 63.882812 Z M 60.878906 63.882812 " fill-opacity="1" fill-rule="nonzero"/></g><g clip-path="url(#aaa00ff38f)"><path fill="#ffffff" d="M 96.097656 45.402344 L 47.839844 45.402344 C 47.574219 45.402344 47.3125 45.429688 47.054688 45.480469 C 46.796875 45.535156 46.542969 45.609375 46.300781 45.710938 C 46.054688 45.8125 45.824219 45.9375 45.605469 46.085938 C 45.382812 46.230469 45.179688 46.398438 44.996094 46.585938 C 44.808594 46.773438 44.640625 46.976562 44.492188 47.195312 C 44.347656 47.414062 44.222656 47.648438 44.121094 47.890625 C 44.019531 48.136719 43.941406 48.386719 43.890625 48.644531 C 43.835938 48.90625 43.8125 49.167969 43.808594 49.429688 L 43.808594 63.40625 C 43.808594 63.675781 43.90625 63.90625 44.097656 64.101562 C 44.289062 64.292969 44.519531 64.386719 44.792969 64.386719 C 45.0625 64.386719 45.292969 64.292969 45.484375 64.101562 C 45.675781 63.90625 45.773438 63.675781 45.773438 63.40625 L 45.773438 49.429688 C 45.773438 49.15625 45.824219 48.894531 45.929688 48.640625 C 46.035156 48.386719 46.183594 48.164062 46.378906 47.96875 C 46.570312 47.777344 46.796875 47.625 47.046875 47.519531 C 47.300781 47.417969 47.566406 47.363281 47.839844 47.363281 L 58.367188 47.363281 L 58.367188 58.871094 C 58.367188 59.140625 58.460938 59.375 58.652344 59.566406 C 58.84375 59.757812 59.074219 59.851562 59.347656 59.851562 C 59.617188 59.851562 59.847656 59.757812 60.039062 59.566406 C 60.230469 59.375 60.328125 59.140625 60.328125 58.871094 L 60.328125 47.363281 L 96.097656 47.363281 C 96.371094 47.363281 96.636719 47.417969 96.890625 47.519531 C 97.144531 47.625 97.367188 47.777344 97.558594 47.96875 C 97.753906 48.164062 97.902344 48.386719 98.007812 48.640625 C 98.113281 48.894531 98.164062 49.15625 98.164062 49.429688 L 98.164062 76.058594 L 64.445312 76.058594 C 64.175781 76.058594 63.945312 76.152344 63.753906 76.347656 C 63.5625 76.539062 63.464844 76.769531 63.464844 77.039062 C 63.464844 77.308594 63.5625 77.539062 63.753906 77.734375 C 63.945312 77.925781 64.175781 78.019531 64.445312 78.019531 L 98.164062 78.019531 L 98.164062 79.746094 C 98.164062 80.019531 98.113281 80.285156 98.007812 80.539062 C 97.902344 80.792969 97.753906 81.015625 97.5625 81.210938 C 97.367188 81.40625 97.144531 81.558594 96.890625 81.664062 C 96.636719 81.769531 96.375 81.824219 96.097656 81.828125 L 62.082031 81.828125 C 61.8125 81.828125 61.578125 81.921875 61.386719 82.113281 C 61.195312 82.304688 61.101562 82.535156 61.101562 82.808594 L 61.101562 86.941406 L 55.363281 86.941406 C 55.09375 86.945312 54.863281 87.042969 54.671875 87.234375 C 54.480469 87.421875 54.386719 87.652344 54.378906 87.921875 L 54.378906 93.320312 L 50.144531 93.320312 C 49.871094 93.320312 49.640625 93.414062 49.449219 93.605469 C 49.257812 93.796875 49.164062 94.027344 49.164062 94.300781 C 49.164062 94.570312 49.257812 94.800781 49.449219 94.992188 C 49.640625 95.183594 49.871094 95.28125 50.144531 95.28125 L 93.792969 95.28125 C 94.066406 95.28125 94.296875 95.183594 94.488281 94.992188 C 94.679688 94.800781 94.773438 94.570312 94.773438 94.300781 C 94.773438 94.027344 94.679688 93.796875 94.488281 93.605469 C 94.296875 93.414062 94.066406 93.320312 93.792969 93.320312 L 89.558594 93.320312 L 89.558594 87.921875 C 89.554688 87.652344 89.457031 87.421875 89.265625 87.234375 C 89.074219 87.042969 88.84375 86.945312 88.574219 86.941406 L 82.820312 86.941406 L 82.820312 83.773438 L 96.097656 83.773438 C 96.363281 83.773438 96.625 83.75 96.882812 83.695312 C 97.144531 83.644531 97.394531 83.570312 97.640625 83.46875 C 97.886719 83.367188 98.117188 83.242188 98.335938 83.09375 C 98.558594 82.949219 98.761719 82.78125 98.949219 82.59375 C 99.132812 82.40625 99.300781 82.203125 99.449219 81.984375 C 99.59375 81.761719 99.71875 81.53125 99.820312 81.285156 C 99.921875 81.042969 100 80.789062 100.050781 80.53125 C 100.101562 80.273438 100.128906 80.007812 100.128906 79.746094 L 100.128906 49.429688 C 100.125 49.167969 100.101562 48.90625 100.046875 48.644531 C 99.996094 48.386719 99.917969 48.136719 99.816406 47.890625 C 99.714844 47.648438 99.589844 47.414062 99.445312 47.195312 C 99.296875 46.976562 99.128906 46.773438 98.941406 46.585938 C 98.757812 46.398438 98.554688 46.230469 98.332031 46.085938 C 98.113281 45.9375 97.882812 45.8125 97.636719 45.710938 C 97.394531 45.609375 97.144531 45.535156 96.882812 45.480469 C 96.625 45.429688 96.363281 45.402344 96.097656 45.402344 Z M 63.0625 86.941406 L 63.0625 83.773438 L 80.902344 83.773438 L 80.902344 86.941406 Z M 56.34375 93.320312 L 56.34375 88.859375 L 87.566406 88.859375 L 87.566406 93.320312 Z M 56.34375 93.320312 " fill-opacity="1" fill-rule="nonzero"/></g><path fill="#ffffff" d="M 91.476562 60.269531 C 91.746094 60.269531 91.976562 60.171875 92.167969 59.980469 C 92.359375 59.789062 92.457031 59.558594 92.457031 59.289062 L 92.457031 52.925781 L 93.703125 52.925781 C 93.976562 52.925781 94.207031 52.828125 94.398438 52.636719 C 94.589844 52.445312 94.6875 52.214844 94.6875 51.941406 C 94.6875 51.671875 94.589844 51.441406 94.398438 51.25 C 94.207031 51.058594 93.976562 50.960938 93.703125 50.960938 L 89.453125 50.960938 C 89.183594 50.960938 88.949219 51.058594 88.757812 51.25 C 88.566406 51.441406 88.472656 51.671875 88.472656 51.941406 C 88.472656 52.214844 88.566406 52.445312 88.757812 52.636719 C 88.949219 52.828125 89.183594 52.925781 89.453125 52.925781 L 90.492188 52.925781 L 90.492188 59.300781 C 90.496094 59.570312 90.59375 59.796875 90.785156 59.988281 C 90.976562 60.175781 91.207031 60.269531 91.476562 60.269531 Z M 91.476562 60.269531 " fill-opacity="1" fill-rule="nonzero"/><path fill="#ffffff" d="M 79.789062 59.300781 L 79.789062 51.941406 C 79.789062 51.671875 79.691406 51.441406 79.5 51.25 C 79.308594 51.058594 79.078125 50.960938 78.808594 50.960938 C 78.535156 50.960938 78.304688 51.058594 78.113281 51.25 C 77.921875 51.441406 77.828125 51.671875 77.828125 51.941406 L 77.828125 59.300781 C 77.828125 59.574219 77.921875 59.804688 78.113281 59.996094 C 78.304688 60.1875 78.535156 60.285156 78.808594 60.285156 C 79.078125 60.285156 79.308594 60.1875 79.5 59.996094 C 79.691406 59.804688 79.789062 59.574219 79.789062 59.300781 Z M 79.789062 59.300781 " fill-opacity="1" fill-rule="nonzero"/><path fill="#ffffff" d="M 68.429688 50.960938 L 64.179688 50.960938 C 63.90625 50.960938 63.675781 51.058594 63.484375 51.25 C 63.292969 51.441406 63.195312 51.671875 63.195312 51.941406 L 63.195312 59.300781 C 63.179688 59.441406 63.191406 59.578125 63.234375 59.714844 C 63.273438 59.847656 63.34375 59.96875 63.4375 60.074219 C 63.527344 60.179688 63.640625 60.257812 63.769531 60.316406 C 63.894531 60.375 64.03125 60.402344 64.171875 60.402344 C 64.3125 60.402344 64.445312 60.375 64.574219 60.316406 C 64.703125 60.257812 64.8125 60.179688 64.90625 60.074219 C 65 59.96875 65.066406 59.847656 65.109375 59.714844 C 65.148438 59.578125 65.160156 59.441406 65.144531 59.300781 L 65.144531 56.613281 L 68.429688 56.613281 C 68.699219 56.605469 68.925781 56.511719 69.113281 56.320312 C 69.304688 56.128906 69.398438 55.898438 69.398438 55.628906 L 69.398438 51.941406 C 69.398438 51.675781 69.304688 51.445312 69.113281 51.253906 C 68.925781 51.0625 68.699219 50.964844 68.429688 50.960938 Z M 67.449219 52.925781 L 67.449219 54.648438 L 65.21875 54.648438 L 65.21875 52.925781 Z M 67.449219 52.925781 " fill-opacity="1" fill-rule="nonzero"/><path fill="#ffffff" d="M 65.101562 63.808594 C 65.101562 64.078125 65.195312 64.308594 65.386719 64.5 C 65.578125 64.691406 65.808594 64.789062 66.082031 64.789062 L 93.929688 64.789062 C 94.066406 64.804688 94.203125 64.792969 94.339844 64.753906 C 94.472656 64.710938 94.59375 64.644531 94.699219 64.550781 C 94.804688 64.457031 94.886719 64.347656 94.941406 64.21875 C 95 64.089844 95.03125 63.957031 95.03125 63.816406 C 95.03125 63.675781 95 63.539062 94.941406 63.410156 C 94.886719 63.285156 94.804688 63.171875 94.699219 63.078125 C 94.59375 62.984375 94.472656 62.917969 94.339844 62.878906 C 94.203125 62.835938 94.066406 62.824219 93.929688 62.839844 L 66.082031 62.839844 C 65.8125 62.839844 65.582031 62.933594 65.394531 63.121094 C 65.203125 63.3125 65.105469 63.539062 65.101562 63.808594 Z M 65.101562 63.808594 " fill-opacity="1" fill-rule="nonzero"/><path fill="#ffffff" d="M 83.121094 59.300781 L 83.121094 55.660156 L 85.46875 59.792969 C 85.648438 60.097656 85.917969 60.257812 86.269531 60.269531 L 86.523438 60.269531 C 86.738281 60.210938 86.914062 60.09375 87.050781 59.917969 C 87.1875 59.738281 87.253906 59.539062 87.253906 59.316406 L 87.253906 51.941406 C 87.253906 51.671875 87.15625 51.441406 86.964844 51.25 C 86.773438 51.058594 86.542969 50.960938 86.269531 50.960938 C 86 50.960938 85.769531 51.058594 85.578125 51.25 C 85.386719 51.441406 85.289062 51.671875 85.289062 51.941406 L 85.289062 55.601562 L 82.984375 51.46875 C 82.800781 51.132812 82.519531 50.964844 82.136719 50.960938 C 82.054688 50.949219 81.96875 50.949219 81.886719 50.960938 C 81.667969 51.015625 81.492188 51.128906 81.355469 51.300781 C 81.222656 51.476562 81.152344 51.675781 81.15625 51.898438 L 81.15625 59.300781 C 81.15625 59.574219 81.253906 59.804688 81.445312 59.996094 C 81.636719 60.1875 81.867188 60.285156 82.136719 60.285156 C 82.410156 60.285156 82.640625 60.1875 82.832031 59.996094 C 83.023438 59.804688 83.121094 59.574219 83.121094 59.300781 Z M 83.121094 59.300781 " fill-opacity="1" fill-rule="nonzero"/><path fill="#ffffff" d="M 76.652344 55.628906 L 76.652344 51.941406 C 76.648438 51.671875 76.550781 51.445312 76.359375 51.253906 C 76.171875 51.0625 75.941406 50.964844 75.671875 50.960938 L 71.492188 50.960938 C 71.222656 50.960938 70.992188 51.058594 70.800781 51.25 C 70.609375 51.441406 70.511719 51.671875 70.511719 51.941406 L 70.511719 59.300781 C 70.511719 59.574219 70.609375 59.804688 70.800781 59.996094 C 70.992188 60.1875 71.222656 60.28125 71.492188 60.28125 C 71.765625 60.28125 71.996094 60.1875 72.1875 59.996094 C 72.378906 59.804688 72.472656 59.574219 72.472656 59.300781 L 72.472656 57.980469 L 74.378906 59.984375 C 74.574219 60.1875 74.8125 60.285156 75.089844 60.285156 C 75.292969 60.304688 75.484375 60.261719 75.664062 60.160156 C 75.84375 60.0625 75.972656 59.917969 76.0625 59.730469 C 76.148438 59.546875 76.171875 59.351562 76.136719 59.152344 C 76.101562 58.949219 76.011719 58.777344 75.863281 58.632812 L 73.871094 56.613281 L 75.671875 56.613281 C 75.941406 56.609375 76.171875 56.511719 76.359375 56.320312 C 76.550781 56.128906 76.648438 55.898438 76.652344 55.628906 Z M 74.691406 52.925781 L 74.691406 54.648438 L 72.472656 54.648438 L 72.472656 52.925781 Z M 74.691406 52.925781 " fill-opacity="1" fill-rule="nonzero"/></svg>