<svg xmlns="http://www.w3.org/2000/svg" xmlns:xlink="http://www.w3.org/1999/xlink" width="151" zoomAndPan="magnify" viewBox="0 0 113.25 56.999996" height="75" preserveAspectRatio="xMidYMid meet" version="1.0"><defs><clipPath id="5ae04b26c6"><path d="M 25.078125 10.539062 L 87.664062 10.539062 L 87.664062 28.421875 L 25.078125 28.421875 Z M 25.078125 10.539062 " clip-rule="nonzero"/></clipPath><clipPath id="0aa3607195"><path d="M 42.558594 24.449219 L 69 24.449219 L 69 50.527344 L 42.558594 50.527344 Z M 42.558594 24.449219 " clip-rule="nonzero"/></clipPath></defs><g clip-path="url(#5ae04b26c6)"><path fill="#fffdfa" d="M 25.398438 13.335938 C 25.359375 13.503906 25.335938 13.671875 25.328125 13.84375 L 25.203125 16.984375 C 25.195312 17.183594 25.210938 17.382812 25.25 17.582031 L 25.320312 17.949219 C 25.375 18.238281 25.472656 18.511719 25.617188 18.765625 C 25.761719 19.019531 25.945312 19.246094 26.164062 19.441406 C 26.382812 19.636719 26.625 19.789062 26.894531 19.90625 C 27.164062 20.019531 27.445312 20.085938 27.738281 20.109375 L 28.027344 20.128906 L 27.941406 22.429688 C 27.941406 22.496094 27.941406 22.5625 27.941406 22.632812 L 28.023438 24.90625 C 28.03125 25.078125 28.054688 25.25 28.09375 25.417969 L 28.191406 25.789062 C 28.289062 26.195312 28.472656 26.5625 28.742188 26.882812 C 29.011719 27.203125 29.339844 27.445312 29.726562 27.613281 L 29.847656 27.664062 C 30.183594 27.808594 30.53125 27.882812 30.894531 27.882812 L 31.300781 27.882812 C 31.441406 27.882812 31.582031 27.871094 31.722656 27.847656 L 32.160156 27.773438 L 33.664062 27.773438 C 33.839844 27.808594 34.011719 27.828125 34.191406 27.828125 L 34.804688 27.828125 C 35.179688 27.828125 35.539062 27.75 35.882812 27.597656 L 36.039062 27.53125 C 36.589844 27.285156 37.007812 26.898438 37.292969 26.367188 L 37.398438 26.175781 C 37.617188 25.78125 37.726562 25.359375 37.730469 24.910156 L 37.730469 22.894531 L 37.878906 23.238281 C 37.917969 23.328125 37.960938 23.417969 38.011719 23.5 L 38.292969 24 C 38.398438 24.1875 38.523438 24.355469 38.671875 24.511719 L 39.707031 25.601562 C 39.847656 25.746094 40.003906 25.875 40.171875 25.988281 L 40.785156 26.390625 C 40.929688 26.484375 41.078125 26.566406 41.234375 26.628906 L 42.988281 27.347656 C 43.148438 27.414062 43.308594 27.464844 43.476562 27.496094 L 44.351562 27.664062 C 44.476562 27.6875 44.605469 27.703125 44.730469 27.710938 L 45.714844 27.761719 L 47.121094 27.761719 C 47.398438 27.761719 47.671875 27.71875 47.9375 27.632812 L 48.585938 27.421875 C 48.644531 27.40625 48.699219 27.386719 48.753906 27.363281 L 48.917969 27.292969 L 49.210938 27.199219 C 49.445312 27.125 49.664062 27.023438 49.867188 26.886719 L 50.199219 26.675781 C 50.402344 27.175781 50.726562 27.578125 51.175781 27.878906 C 51.625 28.183594 52.117188 28.332031 52.660156 28.335938 L 52.808594 28.335938 L 54.042969 28.265625 L 54.917969 28.21875 L 55.085938 28.210938 C 55.144531 28.210938 55.199219 28.203125 55.25 28.195312 L 57.230469 27.949219 C 57.398438 27.929688 57.566406 27.890625 57.726562 27.839844 L 58.921875 27.453125 C 59 27.429688 59.078125 27.398438 59.152344 27.363281 L 59.847656 27.066406 L 59.871094 27.09375 C 60.402344 27.691406 61.066406 27.988281 61.863281 27.988281 L 65.898438 27.988281 C 66.574219 27.992188 67.167969 27.765625 67.671875 27.316406 C 67.765625 27.390625 67.863281 27.457031 67.964844 27.519531 L 68.136719 27.625 C 68.539062 27.863281 68.972656 27.992188 69.4375 28.003906 L 73.523438 28.109375 L 73.59375 28.109375 C 73.785156 28.109375 73.976562 28.085938 74.160156 28.046875 L 74.246094 28.066406 C 74.472656 28.128906 74.707031 28.160156 74.945312 28.160156 C 74.996094 28.160156 75.054688 28.160156 75.109375 28.160156 L 79.074219 27.914062 C 79.210938 27.90625 79.351562 27.886719 79.484375 27.859375 L 79.644531 27.820312 C 80.464844 27.636719 81.066406 27.167969 81.441406 26.414062 L 81.546875 26.203125 C 81.734375 25.828125 81.828125 25.433594 81.828125 25.015625 L 81.828125 22.363281 C 81.867188 22.203125 81.894531 22.039062 81.90625 21.875 L 82.015625 20.398438 L 82.796875 19.496094 L 86.417969 15.847656 C 86.523438 15.746094 86.621094 15.632812 86.707031 15.515625 C 87.179688 15.003906 87.417969 14.398438 87.414062 13.699219 L 87.414062 13.507812 C 87.414062 12.710938 87.117188 12.046875 86.519531 11.519531 L 86.355469 11.375 C 85.851562 10.933594 85.261719 10.710938 84.589844 10.714844 L 83.347656 10.714844 C 83.171875 10.714844 83 10.730469 82.828125 10.765625 L 82.796875 10.765625 L 78.953125 10.835938 C 78.613281 10.839844 78.289062 10.90625 77.972656 11.035156 L 77.835938 11.09375 C 77.792969 11.066406 77.75 11.042969 77.703125 11.015625 L 77.511719 10.914062 C 77.117188 10.691406 76.691406 10.582031 76.242188 10.582031 L 74.257812 10.582031 C 74.179688 10.582031 74.101562 10.582031 74.023438 10.59375 L 71.5 10.824219 C 71.230469 10.71875 70.949219 10.660156 70.660156 10.648438 L 69.058594 10.574219 L 68.941406 10.574219 L 66.085938 10.625 C 65.539062 10.636719 65.039062 10.800781 64.59375 11.121094 C 64.148438 11.4375 63.828125 11.855469 63.640625 12.371094 L 63.441406 12.921875 L 63.152344 12.632812 C 63.074219 12.554688 62.992188 12.480469 62.90625 12.414062 L 62.589844 12.167969 C 62.449219 12.058594 62.292969 11.960938 62.132812 11.882812 L 61.238281 11.441406 C 61.152344 11.398438 61.0625 11.363281 60.972656 11.328125 L 60.394531 11.117188 C 60.214844 11.050781 60.027344 11.007812 59.835938 10.980469 L 57.46875 10.667969 C 57.375 10.652344 57.28125 10.644531 57.1875 10.644531 L 55.433594 10.597656 L 53.757812 10.558594 L 53.046875 10.539062 L 52.980469 10.539062 C 52.792969 10.539062 52.609375 10.558594 52.425781 10.597656 L 52.023438 10.683594 C 51.328125 10.828125 50.78125 11.195312 50.382812 11.78125 C 50.191406 11.660156 49.984375 11.566406 49.765625 11.5 L 48.519531 11.113281 C 48.402344 11.078125 48.28125 11.054688 48.160156 11.035156 L 46.546875 10.773438 C 46.492188 10.765625 46.4375 10.757812 46.378906 10.753906 L 45.15625 10.621094 C 45.066406 10.621094 44.980469 10.609375 44.890625 10.609375 C 44.644531 10.609375 44.402344 10.644531 44.164062 10.710938 L 43.980469 10.761719 L 43.355469 10.785156 C 42.964844 10.800781 42.59375 10.894531 42.246094 11.074219 L 41.386719 11.511719 C 41.304688 11.554688 41.226562 11.601562 41.148438 11.648438 L 40.964844 11.773438 C 40.78125 11.582031 40.574219 11.421875 40.34375 11.292969 L 40.175781 11.207031 C 39.855469 11.027344 39.507812 10.917969 39.140625 10.882812 L 37.824219 10.757812 C 37.742188 10.757812 37.65625 10.75 37.578125 10.75 L 37.511719 10.75 L 31.691406 10.886719 L 29.019531 10.734375 C 28.96875 10.734375 28.921875 10.734375 28.867188 10.734375 C 28.714844 10.738281 28.5625 10.75 28.410156 10.777344 L 27.710938 10.898438 C 27.097656 11.007812 26.585938 11.292969 26.175781 11.761719 L 26.054688 11.902344 C 25.765625 12.230469 25.570312 12.609375 25.46875 13.039062 Z M 25.398438 13.335938 " fill-opacity="1" fill-rule="nonzero"/></g><path fill="#5271ff" d="M 30.679688 24.804688 L 30.589844 22.523438 L 30.695312 19.703125 L 30.84375 18.402344 L 30.84375 17.351562 L 29.71875 17.351562 L 28.664062 17.507812 L 27.929688 17.453125 L 27.859375 17.085938 L 27.980469 13.945312 L 28.050781 13.648438 L 28.175781 13.507812 L 28.875 13.386719 L 31.648438 13.542969 L 37.578125 13.402344 L 38.890625 13.527344 L 39.050781 13.613281 L 39.121094 13.789062 L 39.066406 13.910156 L 39 17.597656 L 38.890625 17.789062 L 37.234375 17.789062 L 36.070312 17.859375 L 35.527344 17.789062 L 35.089844 17.683594 L 35.070312 24.910156 L 34.964844 25.105469 L 34.800781 25.171875 L 34.1875 25.171875 L 33.980469 25.121094 L 31.945312 25.121094 L 31.296875 25.226562 L 30.894531 25.226562 L 30.769531 25.171875 Z M 30.679688 24.804688 " fill-opacity="1" fill-rule="nonzero"/><path fill="#5ce1e6" d="M 43.996094 24.894531 L 42.242188 24.171875 L 41.628906 23.769531 L 40.59375 22.683594 L 40.3125 22.183594 L 39.859375 21.140625 L 39.648438 20.191406 L 39.648438 18.613281 L 39.785156 17.859375 L 40.015625 17.175781 L 40.523438 16.121094 L 40.894531 15.542969 L 41.488281 14.894531 L 41.652344 14.597656 L 41.953125 14.296875 L 42.601562 13.875 L 43.453125 13.4375 L 44.398438 13.402344 L 44.898438 13.261719 L 46.125 13.386719 L 47.738281 13.648438 L 48.984375 14.035156 L 49.703125 14.492188 L 50.53125 15.28125 L 50.726562 15.613281 L 50.953125 15.945312 L 51.269531 16.925781 L 51.53125 18.066406 L 51.53125 19.046875 L 51.425781 20.042969 L 51.113281 21.605469 L 50.75 22.332031 L 50.253906 23.148438 L 49.09375 24.242188 L 48.429688 24.683594 L 48.042969 24.804688 L 47.78125 24.910156 L 47.132812 25.121094 L 45.867188 25.121094 L 44.886719 25.066406 Z M 45.890625 21.191406 L 46.664062 20.824219 L 47.269531 20.328125 L 47.546875 19.886719 L 47.757812 19.011719 L 47.757812 18.015625 L 47.65625 17.769531 L 47.324219 17.273438 L 46.675781 16.816406 L 46.199219 16.652344 L 45.253906 16.652344 L 44.753906 16.722656 L 44.230469 16.984375 L 43.859375 17.265625 L 43.542969 17.597656 L 43.285156 18.121094 L 43.15625 18.5 L 43.066406 19.394531 L 43.15625 19.832031 L 43.277344 20.164062 L 43.734375 20.726562 L 44.472656 21.007812 L 44.980469 21.132812 Z M 45.890625 21.191406 " fill-opacity="1" fill-rule="nonzero"/><path fill="#e109d9" d="M 62.75 17.121094 L 62.417969 16.050781 L 61.890625 15.121094 L 61.277344 14.507812 L 60.960938 14.261719 L 60.066406 13.824219 L 59.488281 13.613281 L 57.117188 13.296875 L 55.371094 13.253906 L 54.832031 13.238281 L 54.179688 13.222656 L 53.691406 13.210938 L 52.980469 13.191406 L 52.574219 13.28125 L 52.574219 24.980469 L 52.664062 25.699219 L 53.902344 25.636719 L 54.402344 25.609375 L 54.785156 25.589844 L 54.925781 25.589844 L 55.296875 25.542969 L 56.910156 25.34375 L 58.101562 24.957031 L 59.277344 24.449219 L 60.644531 23.644531 L 61.519531 22.785156 L 62.117188 21.820312 L 62.574219 20.75 L 62.835938 19.699219 L 62.835938 18.050781 Z M 56.941406 16.527344 L 58.171875 16.789062 L 58.644531 17.035156 L 59.085938 17.453125 L 59.347656 18.140625 L 59.347656 18.945312 L 59.1875 19.699219 L 58.765625 20.542969 L 58.011719 21.320312 L 57.59375 21.601562 L 57.171875 21.742188 L 56.226562 21.945312 L 56.226562 17.453125 L 56.15625 16.527344 Z M 56.941406 16.527344 " fill-opacity="1" fill-rule="nonzero"/><path fill="#febf10" d="M 69.496094 25.351562 L 69.332031 25.242188 L 69.261719 25.066406 L 69.140625 22.082031 L 66.84375 22.082031 L 65.929688 24.976562 L 65.894531 25.34375 L 61.855469 25.34375 L 61.714844 25.179688 L 61.785156 25.054688 L 61.890625 24.933594 L 66.136719 13.269531 L 68.941406 13.214844 L 70.539062 13.285156 L 73.625 24.96875 L 73.589844 25.441406 Z M 67.917969 19.035156 L 68.082031 19 L 68.890625 18.945312 L 68.628906 17.140625 L 68.3125 16.085938 L 67.339844 19.035156 Z M 67.917969 19.035156 " fill-opacity="1" fill-rule="nonzero"/><path fill="#e109d9" d="M 74.679688 25.261719 L 74.855469 22.332031 L 75.304688 18.824219 L 72.011719 14.28125 L 71.589844 13.542969 L 71.679688 13.472656 L 74.257812 13.246094 L 76.242188 13.246094 L 76.433594 13.351562 L 76.628906 13.632812 L 76.945312 14.734375 L 77.445312 15.964844 L 77.53125 16.035156 L 78.789062 13.578125 L 78.996094 13.488281 L 83.101562 13.421875 L 83.363281 13.367188 L 84.609375 13.367188 L 84.773438 13.507812 L 84.773438 13.699219 L 84.609375 13.867188 L 84.539062 13.988281 L 80.855469 17.691406 L 79.644531 19.078125 L 79.414062 19.253906 L 79.414062 19.480469 L 79.257812 21.691406 L 79.171875 22.007812 L 79.171875 25.015625 L 79.066406 25.226562 L 78.910156 25.261719 L 74.945312 25.507812 L 74.75 25.453125 Z M 74.679688 25.261719 " fill-opacity="1" fill-rule="nonzero"/><g clip-path="url(#0aa3607195)"><path fill="#5ce1e6" d="M 67.375 31.304688 L 65.316406 33.359375 C 65.910156 34.671875 66.242188 36.125 66.242188 37.65625 C 66.242188 43.429688 61.5625 48.105469 55.792969 48.105469 C 50.023438 48.105469 45.34375 43.429688 45.34375 37.65625 C 45.34375 31.886719 50.023438 27.210938 55.792969 27.210938 C 57.234375 27.210938 58.609375 27.503906 59.859375 28.03125 L 61.929688 25.960938 C 60.097656 24.996094 58.007812 24.453125 55.792969 24.453125 C 48.5 24.453125 42.585938 30.363281 42.585938 37.660156 C 42.585938 44.953125 48.5 50.867188 55.792969 50.867188 C 63.085938 50.867188 69 44.953125 69 37.65625 C 69 35.355469 68.410156 33.1875 67.375 31.304688 Z M 67.375 31.304688 " fill-opacity="1" fill-rule="nonzero"/></g><path fill="#5ce1e6" d="M 56.207031 39.074219 C 56.351562 38.761719 56.472656 38.472656 56.621094 38.195312 C 58.167969 35.277344 59.96875 32.527344 62.15625 30.046875 C 63.648438 28.355469 65.28125 26.8125 67.09375 25.472656 C 67.804688 24.945312 68.707031 24.988281 69.324219 25.566406 C 69.925781 26.125 70.046875 27.039062 69.59375 27.730469 C 69.476562 27.90625 69.324219 28.070312 69.15625 28.195312 C 66.304688 30.316406 63.972656 32.921875 62.003906 35.859375 C 60.527344 38.070312 59.238281 40.386719 58.265625 42.871094 C 57.789062 44.09375 56.242188 44.351562 55.371094 43.359375 C 54.15625 41.980469 52.960938 40.585938 51.753906 39.199219 C 51.269531 38.644531 50.785156 38.085938 50.289062 37.542969 C 49.660156 36.851562 49.710938 35.753906 50.414062 35.109375 C 51.113281 34.464844 52.199219 34.515625 52.84375 35.242188 C 53.601562 36.089844 54.335938 36.957031 55.085938 37.816406 C 55.441406 38.222656 55.804688 38.625 56.207031 39.074219 Z M 56.207031 39.074219 " fill-opacity="1" fill-rule="nonzero"/></svg>