<svg xmlns="http://www.w3.org/2000/svg" xmlns:xlink="http://www.w3.org/1999/xlink" width="151" zoomAndPan="magnify" viewBox="0 0 113.25 56.999996" height="75" preserveAspectRatio="xMidYMid meet" version="1.0"><defs><clipPath id="4a926d6376"><path d="M 3.710938 11.03125 L 108.765625 11.03125 L 108.765625 28.167969 L 3.710938 28.167969 Z M 3.710938 11.03125 " clip-rule="nonzero"/></clipPath><clipPath id="dd3957d300"><path d="M 42.558594 24.449219 L 69 24.449219 L 69 50.527344 L 42.558594 50.527344 Z M 42.558594 24.449219 " clip-rule="nonzero"/></clipPath></defs><g clip-path="url(#4a926d6376)"><path fill="#fffdfa" d="M 108.523438 12.871094 L 108.421875 12.667969 C 108.070312 11.964844 107.511719 11.519531 106.75 11.328125 L 106.34375 11.226562 C 106.140625 11.175781 105.933594 11.148438 105.722656 11.148438 L 104.011719 11.148438 C 103.914062 11.148438 103.816406 11.15625 103.722656 11.164062 L 103.230469 11.222656 L 101.890625 11.269531 C 101.28125 11.292969 100.746094 11.503906 100.289062 11.910156 L 100.15625 12.027344 C 99.765625 12.367188 99.503906 12.785156 99.371094 13.285156 L 99.285156 13.589844 C 99.167969 13.539062 99.046875 13.5 98.925781 13.46875 L 98.445312 13.351562 C 98.292969 13.3125 98.136719 13.289062 97.976562 13.277344 L 97.039062 13.222656 L 97.019531 13.164062 C 96.894531 12.777344 96.691406 12.441406 96.410156 12.152344 L 96.089844 11.832031 C 95.675781 11.421875 95.183594 11.179688 94.609375 11.101562 L 94.21875 11.050781 C 94.109375 11.039062 94 11.03125 93.886719 11.03125 L 93.800781 11.03125 L 91.230469 11.117188 C 91.003906 11.125 90.785156 11.160156 90.570312 11.222656 L 89.84375 11.445312 C 89.417969 11.574219 89.050781 11.800781 88.742188 12.121094 C 88.605469 12.046875 88.460938 11.988281 88.3125 11.941406 L 87.109375 11.570312 C 86.996094 11.535156 86.878906 11.507812 86.761719 11.488281 L 85.203125 11.234375 C 85.152344 11.222656 85.101562 11.21875 85.042969 11.214844 L 83.863281 11.09375 C 83.777344 11.085938 83.691406 11.082031 83.609375 11.082031 C 83.367188 11.082031 83.132812 11.113281 82.902344 11.179688 L 82.726562 11.230469 L 82.125 11.253906 C 81.746094 11.265625 81.390625 11.359375 81.054688 11.53125 L 80.222656 11.953125 C 80.144531 11.996094 80.070312 12.039062 79.996094 12.085938 L 79.367188 12.492188 C 79.214844 12.589844 79.078125 12.703125 78.949219 12.832031 L 78.929688 12.851562 C 78.886719 12.816406 78.851562 12.777344 78.808594 12.742188 L 78.167969 12.21875 C 78.011719 12.089844 77.847656 11.984375 77.667969 11.898438 L 77.109375 11.625 C 76.945312 11.546875 76.777344 11.488281 76.605469 11.445312 L 75.707031 11.222656 C 75.507812 11.175781 75.304688 11.148438 75.097656 11.148438 L 73.519531 11.148438 L 72.25 11.21875 C 72.121094 11.222656 71.996094 11.242188 71.871094 11.265625 L 71.285156 11.386719 L 70.058594 11.5625 C 69.972656 11.574219 69.886719 11.589844 69.800781 11.613281 L 69.527344 11.679688 L 68.683594 11.796875 C 68.605469 11.808594 68.53125 11.820312 68.457031 11.835938 L 67.796875 11.992188 C 67.589844 12.039062 67.394531 12.113281 67.207031 12.210938 C 67.054688 12.082031 66.890625 11.976562 66.714844 11.890625 L 66.15625 11.617188 C 65.992188 11.539062 65.824219 11.480469 65.648438 11.4375 L 64.742188 11.222656 C 64.542969 11.175781 64.339844 11.148438 64.132812 11.148438 L 62.554688 11.148438 L 61.285156 11.21875 C 61.160156 11.222656 61.03125 11.242188 60.90625 11.265625 L 60.324219 11.386719 L 59.09375 11.5625 C 59.007812 11.574219 58.921875 11.589844 58.835938 11.613281 L 58.566406 11.679688 L 57.71875 11.796875 C 57.644531 11.808594 57.566406 11.820312 57.492188 11.835938 L 56.832031 11.996094 C 56.457031 12.085938 56.121094 12.25 55.820312 12.488281 L 55.410156 12.230469 C 55.21875 12.109375 55.015625 12.011719 54.796875 11.945312 L 53.59375 11.574219 C 53.480469 11.539062 53.367188 11.511719 53.25 11.492188 L 51.691406 11.238281 C 51.640625 11.230469 51.585938 11.222656 51.53125 11.21875 L 50.351562 11.09375 C 50.265625 11.085938 50.179688 11.082031 50.09375 11.082031 C 49.855469 11.082031 49.621094 11.113281 49.390625 11.179688 L 49.214844 11.230469 L 48.609375 11.253906 C 48.234375 11.265625 47.878906 11.359375 47.539062 11.53125 L 46.710938 11.953125 C 46.632812 11.996094 46.554688 12.039062 46.484375 12.085938 L 45.859375 12.492188 C 45.707031 12.589844 45.570312 12.703125 45.441406 12.832031 L 45.351562 12.921875 C 45.164062 12.550781 44.902344 12.246094 44.566406 12.003906 C 44.230469 11.761719 43.855469 11.609375 43.445312 11.550781 L 42.988281 11.480469 C 42.863281 11.464844 42.738281 11.453125 42.613281 11.453125 L 38.867188 11.453125 C 38.714844 11.453125 38.5625 11.46875 38.410156 11.496094 L 38.222656 11.527344 C 37.699219 11.625 37.246094 11.859375 36.871094 12.238281 L 36.816406 12.292969 L 36.730469 12.203125 L 36.644531 12.121094 C 36.183594 11.65625 35.625 11.40625 34.96875 11.371094 L 34.449219 11.351562 L 34.03125 11.277344 C 33.882812 11.25 33.734375 11.238281 33.585938 11.238281 L 33.027344 11.238281 C 32.933594 11.238281 32.839844 11.242188 32.746094 11.253906 L 31.816406 11.351562 C 31.757812 11.351562 31.695312 11.367188 31.636719 11.375 L 31.488281 11.402344 L 30.992188 11.402344 C 30.644531 11.402344 30.304688 11.472656 29.984375 11.609375 L 29.863281 11.660156 C 29.386719 11.867188 29.003906 12.191406 28.722656 12.632812 L 28.074219 12.21875 C 27.878906 12.097656 27.675781 12.003906 27.457031 11.9375 L 26.253906 11.5625 C 26.140625 11.527344 26.027344 11.5 25.910156 11.480469 L 24.351562 11.226562 C 24.300781 11.21875 24.246094 11.210938 24.191406 11.207031 L 23 11.09375 C 22.917969 11.085938 22.832031 11.082031 22.746094 11.082031 C 22.507812 11.082031 22.273438 11.113281 22.042969 11.179688 L 21.867188 11.230469 L 21.261719 11.253906 C 20.886719 11.265625 20.527344 11.359375 20.191406 11.53125 L 19.363281 11.953125 C 19.285156 11.996094 19.207031 12.039062 19.132812 12.085938 L 18.953125 12.207031 C 18.777344 12.019531 18.578125 11.867188 18.355469 11.742188 L 18.195312 11.660156 C 17.882812 11.484375 17.546875 11.382812 17.191406 11.351562 L 15.921875 11.234375 C 15.84375 11.234375 15.761719 11.222656 15.683594 11.222656 L 15.625 11.222656 L 10.003906 11.351562 L 7.425781 11.203125 L 7.277344 11.203125 C 7.128906 11.203125 6.984375 11.214844 6.835938 11.242188 L 6.164062 11.351562 C 5.570312 11.457031 5.074219 11.738281 4.679688 12.195312 L 4.5625 12.328125 C 4.28125 12.648438 4.09375 13.019531 3.996094 13.433594 L 3.929688 13.722656 C 3.890625 13.882812 3.867188 14.042969 3.859375 14.210938 L 3.742188 17.234375 C 3.734375 17.429688 3.75 17.621094 3.785156 17.8125 L 3.851562 18.167969 C 3.90625 18.449219 4 18.710938 4.140625 18.957031 C 4.28125 19.203125 4.453125 19.421875 4.667969 19.609375 C 4.878906 19.796875 5.113281 19.945312 5.375 20.054688 C 5.632812 20.167969 5.90625 20.230469 6.1875 20.25 L 6.464844 20.269531 L 6.386719 22.492188 C 6.386719 22.558594 6.386719 22.625 6.386719 22.6875 L 6.464844 24.882812 C 6.46875 25.050781 6.492188 25.214844 6.53125 25.378906 L 6.625 25.734375 C 6.71875 26.128906 6.894531 26.480469 7.15625 26.792969 C 7.417969 27.101562 7.734375 27.335938 8.109375 27.496094 L 8.226562 27.546875 C 8.546875 27.683594 8.882812 27.753906 9.234375 27.753906 L 9.625 27.753906 C 9.761719 27.753906 9.898438 27.742188 10.03125 27.71875 L 10.457031 27.652344 L 11.910156 27.652344 C 12.074219 27.6875 12.246094 27.703125 12.414062 27.703125 L 13.007812 27.703125 C 13.371094 27.703125 13.71875 27.628906 14.050781 27.480469 L 14.203125 27.414062 C 14.730469 27.175781 15.136719 26.804688 15.410156 26.292969 L 15.511719 26.105469 C 15.71875 25.726562 15.824219 25.320312 15.824219 24.886719 L 15.824219 22.9375 L 15.972656 23.273438 C 16.007812 23.359375 16.050781 23.445312 16.097656 23.527344 L 16.367188 24.007812 C 16.46875 24.1875 16.59375 24.351562 16.738281 24.5 L 17.734375 25.550781 C 17.871094 25.695312 18.023438 25.816406 18.1875 25.921875 L 18.78125 26.3125 C 18.917969 26.402344 19.066406 26.480469 19.21875 26.542969 L 20.910156 27.238281 C 21.0625 27.300781 21.21875 27.347656 21.378906 27.378906 L 22.226562 27.546875 C 22.347656 27.570312 22.46875 27.585938 22.589844 27.59375 L 23.539062 27.644531 L 24.898438 27.644531 C 25.164062 27.644531 25.425781 27.605469 25.679688 27.523438 L 26.308594 27.320312 C 26.359375 27.304688 26.414062 27.285156 26.46875 27.265625 L 26.640625 27.203125 L 26.925781 27.113281 C 27.152344 27.042969 27.363281 26.941406 27.558594 26.8125 L 27.601562 26.871094 C 27.84375 27.195312 28.144531 27.445312 28.503906 27.625 C 28.867188 27.804688 29.25 27.898438 29.652344 27.898438 L 31.617188 27.898438 C 31.757812 27.898438 31.898438 27.886719 32.039062 27.863281 L 32.867188 27.722656 L 33.304688 27.683594 C 33.855469 27.625 34.34375 27.414062 34.757812 27.042969 L 34.917969 26.90625 C 35.335938 26.53125 35.605469 26.066406 35.71875 25.511719 L 35.929688 25.523438 C 36.023438 25.542969 36.121094 25.558594 36.21875 25.570312 L 37.097656 25.675781 C 37.195312 25.683594 37.292969 25.691406 37.394531 25.691406 L 37.835938 25.691406 C 37.882812 25.898438 37.953125 26.097656 38.046875 26.289062 L 38.097656 26.394531 C 38.304688 26.804688 38.601562 27.136719 38.984375 27.386719 C 39.371094 27.640625 39.792969 27.777344 40.253906 27.800781 L 43.824219 27.988281 C 43.871094 27.988281 43.914062 27.988281 43.960938 27.988281 C 44.503906 27.988281 44.996094 27.832031 45.441406 27.515625 L 45.847656 27.230469 C 46.117188 27.039062 46.339844 26.804688 46.519531 26.523438 C 46.535156 26.523438 46.546875 26.539062 46.5625 26.542969 L 48.261719 27.242188 C 48.414062 27.304688 48.570312 27.351562 48.730469 27.382812 L 49.578125 27.550781 C 49.695312 27.578125 49.820312 27.59375 49.941406 27.597656 L 50.890625 27.648438 L 52.246094 27.648438 C 52.515625 27.648438 52.78125 27.609375 53.035156 27.523438 L 53.664062 27.320312 L 53.824219 27.265625 L 53.984375 27.195312 L 54.269531 27.105469 C 54.496094 27.035156 54.707031 26.933594 54.902344 26.804688 L 55.425781 26.460938 C 55.742188 26.976562 56.183594 27.335938 56.753906 27.539062 L 57.042969 27.640625 C 57.28125 27.722656 57.527344 27.769531 57.777344 27.78125 L 60.671875 27.917969 C 60.710938 27.917969 60.753906 27.917969 60.792969 27.917969 C 61.035156 27.917969 61.277344 27.882812 61.511719 27.816406 L 61.917969 27.695312 C 61.964844 27.679688 62.015625 27.664062 62.066406 27.648438 C 62.1875 27.699219 62.3125 27.742188 62.441406 27.773438 L 62.710938 27.839844 C 62.914062 27.890625 63.121094 27.917969 63.332031 27.917969 C 63.460938 27.917969 63.59375 27.90625 63.722656 27.890625 L 63.96875 27.851562 L 66.722656 27.851562 C 67.121094 27.851562 67.5 27.761719 67.859375 27.585938 L 68.003906 27.636719 C 68.242188 27.71875 68.488281 27.765625 68.738281 27.78125 L 71.632812 27.914062 C 71.675781 27.914062 71.714844 27.914062 71.753906 27.914062 C 72 27.914062 72.238281 27.878906 72.472656 27.8125 L 72.875 27.691406 C 72.929688 27.679688 72.976562 27.664062 73.027344 27.644531 C 73.148438 27.695312 73.273438 27.738281 73.402344 27.769531 L 73.671875 27.835938 C 73.875 27.890625 74.082031 27.914062 74.292969 27.914062 C 74.425781 27.914062 74.554688 27.90625 74.683594 27.886719 L 74.929688 27.847656 L 77.679688 27.847656 C 78.097656 27.847656 78.488281 27.75 78.859375 27.558594 L 79.347656 27.304688 C 79.6875 27.128906 79.972656 26.890625 80.203125 26.589844 L 81.769531 27.230469 C 81.921875 27.292969 82.082031 27.339844 82.242188 27.371094 L 83.085938 27.539062 C 83.207031 27.5625 83.328125 27.578125 83.453125 27.585938 L 84.402344 27.636719 L 85.757812 27.636719 C 86.027344 27.636719 86.292969 27.597656 86.546875 27.511719 L 87.175781 27.308594 C 87.230469 27.292969 87.28125 27.273438 87.335938 27.25 L 87.496094 27.183594 L 87.78125 27.09375 C 88.007812 27.023438 88.214844 26.921875 88.414062 26.792969 L 89.054688 26.367188 C 89.183594 26.292969 89.300781 26.207031 89.414062 26.109375 L 89.535156 26 C 89.550781 26.058594 89.5625 26.117188 89.582031 26.171875 L 89.699219 26.527344 C 89.9375 27.242188 90.402344 27.753906 91.089844 28.058594 L 91.25 28.128906 C 91.582031 28.273438 91.929688 28.347656 92.292969 28.347656 L 92.378906 28.347656 C 92.574219 28.347656 92.769531 28.324219 92.960938 28.28125 L 93.375 28.28125 C 93.496094 28.28125 93.613281 28.269531 93.730469 28.253906 L 94.003906 28.21875 L 94.34375 28.261719 C 94.453125 28.273438 94.558594 28.28125 94.664062 28.28125 L 95.917969 28.28125 C 96.398438 28.28125 96.84375 28.15625 97.253906 27.902344 C 97.679688 28.175781 98.140625 28.3125 98.644531 28.3125 L 102.066406 28.3125 C 102.207031 28.3125 102.347656 28.300781 102.488281 28.28125 L 102.894531 28.210938 C 103.433594 28.121094 103.898438 27.882812 104.285156 27.496094 L 104.371094 27.410156 C 104.726562 27.054688 104.957031 26.625 105.0625 26.128906 L 105.082031 26.046875 L 105.503906 24.820312 C 105.519531 24.773438 105.535156 24.726562 105.546875 24.679688 L 107.148438 19.011719 L 108.640625 14.878906 C 108.886719 14.195312 108.847656 13.523438 108.523438 12.871094 Z M 108.523438 12.871094 " fill-opacity="1" fill-rule="nonzero"/></g><path fill="#e109d9" d="M 9.027344 24.785156 L 8.941406 22.585938 L 9.042969 19.863281 L 9.1875 18.605469 L 9.1875 17.597656 L 8.097656 17.597656 L 7.082031 17.75 L 6.371094 17.699219 L 6.304688 17.335938 L 6.421875 14.304688 L 6.488281 14.015625 L 6.609375 13.882812 L 7.285156 13.761719 L 9.960938 13.921875 L 15.683594 13.785156 L 16.953125 13.90625 L 17.105469 13.988281 L 17.175781 14.160156 L 17.125 14.277344 L 17.058594 17.835938 L 16.953125 18.019531 L 15.351562 18.019531 L 14.230469 18.089844 L 13.707031 18.019531 L 13.28125 17.917969 L 13.261719 24.894531 L 13.160156 25.078125 L 13 25.148438 L 12.40625 25.148438 L 12.210938 25.089844 L 10.25 25.089844 L 9.621094 25.191406 L 9.230469 25.191406 L 9.113281 25.140625 Z M 9.027344 24.785156 " fill-opacity="1" fill-rule="nonzero"/><path fill="#5271ff" d="M 21.882812 24.871094 L 20.1875 24.175781 L 19.59375 23.789062 L 18.597656 22.738281 L 18.328125 22.257812 L 17.886719 21.246094 L 17.683594 20.332031 L 17.683594 18.808594 L 17.816406 18.078125 L 18.039062 17.417969 L 18.53125 16.398438 L 18.886719 15.839844 L 19.460938 15.214844 L 19.621094 14.925781 L 19.910156 14.640625 L 20.527344 14.234375 L 21.355469 13.8125 L 22.269531 13.777344 L 22.75 13.644531 L 23.9375 13.761719 L 25.496094 14.015625 L 26.691406 14.394531 L 27.386719 14.835938 L 28.1875 15.597656 L 28.371094 15.917969 L 28.59375 16.238281 L 28.898438 17.183594 L 29.152344 18.285156 L 29.152344 19.234375 L 29.050781 20.195312 L 28.746094 21.699219 L 28.402344 22.402344 L 27.921875 23.179688 L 26.800781 24.242188 L 26.160156 24.667969 L 25.789062 24.785156 L 25.535156 24.886719 L 24.910156 25.089844 L 23.6875 25.089844 L 22.738281 25.039062 Z M 23.710938 21.296875 L 24.457031 20.941406 L 25.03125 20.460938 L 25.300781 20.039062 L 25.503906 19.199219 L 25.503906 18.238281 L 25.40625 18 L 25.085938 17.519531 L 24.457031 17.078125 L 24 16.917969 L 23.085938 16.917969 L 22.605469 16.988281 L 22.097656 17.242188 L 21.742188 17.511719 L 21.4375 17.832031 L 21.195312 18.335938 L 21.078125 18.707031 L 20.992188 19.570312 L 21.078125 19.992188 L 21.195312 20.3125 L 21.636719 20.855469 L 22.347656 21.128906 L 22.839844 21.246094 Z M 23.710938 21.296875 " fill-opacity="1" fill-rule="nonzero"/><path fill="#e109d9" d="M 29.554688 25.191406 L 29.453125 24.703125 L 30.652344 15.167969 L 30.875 14.015625 L 30.992188 13.964844 L 31.722656 13.964844 L 32.09375 13.898438 L 33.027344 13.796875 L 33.585938 13.796875 L 34.160156 13.898438 L 34.835938 13.929688 L 34.921875 14.015625 L 34.972656 14.269531 L 35.160156 14.542969 L 36.429688 17.285156 L 36.546875 17.765625 L 38.089844 15.089844 L 38.425781 14.308594 L 38.679688 14.054688 L 38.867188 14.023438 L 42.609375 14.023438 L 43.066406 14.089844 L 43.167969 14.308594 L 43.238281 14.96875 L 43.320312 15.328125 L 43.609375 17.570312 L 44.015625 19.550781 L 44.371094 22.835938 L 44.371094 25.140625 L 43.964844 25.429688 L 40.390625 25.242188 L 40.339844 25.140625 L 39.5625 19.960938 L 39.222656 20.640625 L 38.917969 21.121094 L 38.425781 22.136719 L 38.121094 22.9375 L 38.003906 23.097656 L 37.816406 23.144531 L 37.394531 23.144531 L 36.515625 23.042969 L 36.355469 22.992188 L 35.183594 22.941406 L 35.015625 22.875 L 34.96875 22.6875 L 33.847656 19.773438 L 33.746094 19.875 L 33.207031 24.464844 L 33.207031 24.988281 L 33.054688 25.125 L 32.53125 25.175781 L 31.613281 25.335938 L 29.65625 25.335938 Z M 29.554688 25.191406 " fill-opacity="1" fill-rule="nonzero"/><path fill="#5ce1e6" d="M 49.230469 24.871094 L 47.539062 24.175781 L 46.945312 23.789062 L 45.945312 22.738281 L 45.675781 22.257812 L 45.234375 21.242188 L 45.03125 20.328125 L 45.03125 18.808594 L 45.167969 18.082031 L 45.386719 17.421875 L 45.878906 16.402344 L 46.234375 15.84375 L 46.808594 15.21875 L 46.960938 14.929688 L 47.25 14.644531 L 47.875 14.234375 L 48.707031 13.808594 L 49.621094 13.777344 L 50.101562 13.640625 L 51.285156 13.757812 L 52.84375 14.011719 L 54.042969 14.394531 L 54.734375 14.835938 L 55.535156 15.597656 L 55.722656 15.917969 L 55.941406 16.238281 L 56.246094 17.183594 L 56.5 18.285156 L 56.5 19.234375 L 56.398438 20.195312 L 56.09375 21.699219 L 55.75 22.402344 L 55.269531 23.179688 L 54.136719 24.246094 L 53.496094 24.667969 L 53.125 24.789062 L 52.871094 24.890625 L 52.246094 25.09375 L 51.023438 25.09375 L 50.074219 25.042969 Z M 51.058594 21.296875 L 51.804688 20.941406 L 52.378906 20.460938 L 52.652344 20.039062 L 52.855469 19.199219 L 52.855469 18.238281 L 52.753906 18 L 52.433594 17.519531 L 51.808594 17.078125 L 51.347656 16.917969 L 50.433594 16.917969 L 49.953125 16.988281 L 49.445312 17.242188 L 49.089844 17.511719 L 48.785156 17.832031 L 48.53125 18.324219 L 48.421875 18.707031 L 48.335938 19.570312 L 48.421875 20 L 48.539062 20.320312 L 48.980469 20.859375 L 49.691406 21.132812 L 50.183594 21.25 Z M 51.058594 21.296875 " fill-opacity="1" fill-rule="nonzero"/><path fill="#e109d9" d="M 61.746094 21.28125 L 61.136719 21.28125 L 61.136719 22.160156 L 61.421875 24.917969 L 61.355469 25.089844 L 61.203125 25.25 L 60.796875 25.367188 L 57.902344 25.234375 L 57.613281 25.132812 L 57.546875 21.6875 L 57.34375 19.382812 L 57.34375 14.726562 L 57.410156 14.488281 L 58.070312 14.328125 L 59.054688 14.195312 L 59.460938 14.09375 L 60.765625 13.914062 L 61.421875 13.777344 L 62.695312 13.710938 L 64.132812 13.710938 L 65.03125 13.929688 L 65.589844 14.203125 L 66.230469 14.726562 L 66.757812 15.421875 L 67.113281 16.113281 L 67.28125 16.894531 L 67.28125 17.976562 L 67.195312 18.519531 L 66.992188 19 L 66.484375 19.777344 L 65.875 20.257812 L 65.46875 20.511719 L 67.214844 24.796875 L 67.214844 25.050781 L 66.722656 25.304688 L 63.777344 25.304688 L 63.335938 25.371094 L 63.066406 25.304688 Z M 61.761719 18.382812 L 62.488281 18.28125 L 63.167969 18.25 L 63.914062 18.042969 L 64.015625 17.417969 L 64.015625 16.929688 L 63.980469 16.777344 L 63.792969 16.605469 L 63.3125 16.507812 L 62.09375 16.507812 L 60.46875 16.667969 L 60.640625 18.394531 Z M 61.761719 18.382812 " fill-opacity="1" fill-rule="nonzero"/><path fill="#febf10" d="M 72.703125 21.28125 L 72.09375 21.28125 L 72.09375 22.160156 L 72.378906 24.917969 L 72.3125 25.089844 L 72.152344 25.25 L 71.746094 25.367188 L 68.851562 25.234375 L 68.570312 25.125 L 68.5 21.6875 L 68.296875 19.382812 L 68.296875 14.726562 L 68.367188 14.488281 L 69.027344 14.328125 L 70.007812 14.195312 L 70.414062 14.09375 L 71.71875 13.914062 L 72.378906 13.777344 L 73.648438 13.710938 L 75.089844 13.710938 L 75.988281 13.929688 L 76.546875 14.203125 L 77.1875 14.726562 L 77.714844 15.421875 L 78.070312 16.113281 L 78.238281 16.894531 L 78.238281 17.976562 L 78.152344 18.519531 L 77.949219 19 L 77.441406 19.777344 L 76.832031 20.257812 L 76.425781 20.511719 L 78.171875 24.785156 L 78.171875 25.039062 L 77.679688 25.292969 L 74.734375 25.292969 L 74.292969 25.363281 L 74.023438 25.292969 Z M 72.71875 18.382812 L 73.445312 18.28125 L 74.125 18.25 L 74.867188 18.042969 L 74.972656 17.417969 L 74.972656 16.929688 L 74.9375 16.777344 L 74.75 16.605469 L 74.269531 16.507812 L 73.050781 16.507812 L 71.425781 16.667969 L 71.59375 18.394531 Z M 72.71875 18.382812 " fill-opacity="1" fill-rule="nonzero"/><path fill="#5ce1e6" d="M 82.742188 24.871094 L 81.050781 24.175781 L 80.457031 23.789062 L 79.457031 22.738281 L 79.1875 22.257812 L 78.746094 21.242188 L 78.542969 20.328125 L 78.542969 18.808594 L 78.6875 18.078125 L 78.90625 17.417969 L 79.398438 16.398438 L 79.753906 15.839844 L 80.328125 15.214844 L 80.488281 14.925781 L 80.777344 14.640625 L 81.386719 14.234375 L 82.21875 13.808594 L 83.132812 13.777344 L 83.613281 13.640625 L 84.800781 13.757812 L 86.355469 14.011719 L 87.558594 14.386719 L 88.253906 14.824219 L 89.054688 15.589844 L 89.238281 15.910156 L 89.460938 16.230469 L 89.765625 17.175781 L 90.019531 18.277344 L 90.019531 19.226562 L 89.917969 20.1875 L 89.613281 21.691406 L 89.253906 22.402344 L 88.777344 23.179688 L 87.65625 24.242188 L 87.015625 24.667969 L 86.640625 24.785156 L 86.386719 24.886719 L 85.761719 25.089844 L 84.542969 25.089844 L 83.59375 25.039062 Z M 84.570312 21.296875 L 85.316406 20.941406 L 85.894531 20.460938 L 86.164062 20.039062 L 86.375 19.199219 L 86.375 18.238281 L 86.273438 18 L 85.953125 17.519531 L 85.324219 17.078125 L 84.867188 16.917969 L 83.953125 16.917969 L 83.472656 16.988281 L 82.964844 17.242188 L 82.609375 17.511719 L 82.304688 17.832031 L 82.050781 18.335938 L 81.929688 18.707031 L 81.847656 19.570312 L 81.929688 19.992188 L 82.050781 20.3125 L 82.488281 20.855469 L 83.199219 21.128906 L 83.691406 21.246094 Z M 84.570312 21.296875 " fill-opacity="1" fill-rule="nonzero"/><path fill="#5271ff" d="M 92.007812 25.363281 L 90.5 14.875 L 90.585938 14.210938 L 90.5 14.042969 L 90.585938 13.882812 L 91.3125 13.664062 L 93.886719 13.59375 L 94.277344 13.644531 L 94.597656 13.964844 L 94.800781 14.574219 L 95.054688 18.65625 L 95.660156 17.335938 L 96.191406 15.996094 L 96.425781 15.742188 L 97.832031 15.824219 L 98.3125 15.945312 L 98.546875 16.097656 L 98.902344 17.128906 L 99.683594 18.925781 L 100.105469 20.144531 L 100.144531 20.144531 L 101.027344 17.0625 L 101.164062 16.433594 L 101.839844 13.945312 L 101.972656 13.828125 L 103.414062 13.777344 L 104.007812 13.707031 L 105.71875 13.707031 L 106.125 13.808594 L 106.226562 14.011719 L 104.707031 18.238281 L 103.082031 24.003906 L 102.601562 25.371094 L 102.558594 25.601562 L 102.472656 25.6875 L 102.066406 25.753906 L 98.628906 25.753906 L 98.382812 25.378906 L 97.691406 23.53125 L 97.371094 22.875 L 97.335938 22.875 L 96.207031 25.210938 L 96.085938 25.53125 L 95.902344 25.714844 L 94.648438 25.714844 L 93.972656 25.628906 L 93.363281 25.714844 L 92.429688 25.714844 L 92.363281 25.78125 L 92.277344 25.78125 L 92.117188 25.714844 Z M 92.007812 25.363281 " fill-opacity="1" fill-rule="nonzero"/><g clip-path="url(#dd3957d300)"><path fill="#5ce1e6" d="M 67.375 31.304688 L 65.316406 33.359375 C 65.910156 34.671875 66.242188 36.125 66.242188 37.65625 C 66.242188 43.429688 61.5625 48.105469 55.792969 48.105469 C 50.023438 48.105469 45.34375 43.429688 45.34375 37.65625 C 45.34375 31.886719 50.023438 27.210938 55.792969 27.210938 C 57.234375 27.210938 58.609375 27.503906 59.859375 28.03125 L 61.929688 25.960938 C 60.097656 24.996094 58.007812 24.453125 55.792969 24.453125 C 48.5 24.453125 42.585938 30.363281 42.585938 37.660156 C 42.585938 44.953125 48.5 50.867188 55.792969 50.867188 C 63.085938 50.867188 69 44.953125 69 37.65625 C 69 35.355469 68.410156 33.1875 67.375 31.304688 Z M 67.375 31.304688 " fill-opacity="1" fill-rule="nonzero"/></g><path fill="#5ce1e6" d="M 56.207031 39.074219 C 56.351562 38.761719 56.472656 38.472656 56.621094 38.195312 C 58.167969 35.277344 59.96875 32.527344 62.15625 30.046875 C 63.648438 28.355469 65.28125 26.816406 67.09375 25.472656 C 67.804688 24.945312 68.707031 24.988281 69.324219 25.566406 C 69.925781 26.125 70.046875 27.039062 69.59375 27.730469 C 69.476562 27.90625 69.324219 28.070312 69.15625 28.195312 C 66.304688 30.316406 63.972656 32.921875 62.003906 35.859375 C 60.527344 38.070312 59.238281 40.386719 58.265625 42.871094 C 57.789062 44.09375 56.242188 44.351562 55.371094 43.359375 C 54.15625 41.980469 52.960938 40.585938 51.753906 39.199219 C 51.269531 38.644531 50.785156 38.085938 50.289062 37.542969 C 49.660156 36.851562 49.710938 35.753906 50.414062 35.109375 C 51.113281 34.464844 52.199219 34.515625 52.84375 35.242188 C 53.601562 36.089844 54.335938 36.957031 55.085938 37.816406 C 55.441406 38.222656 55.804688 38.625 56.207031 39.074219 Z M 56.207031 39.074219 " fill-opacity="1" fill-rule="nonzero"/></svg>